<svg xmlns="http://www.w3.org/2000/svg" xmlns:xlink="http://www.w3.org/1999/xlink" width="607" height="401" viewBox="0 0 607 401">
  <defs>
    <clipPath id="clip-path">
      <rect id="Rect치ngulo_409906" data-name="Rect치ngulo 409906" width="607" height="401" transform="translate(813 904)" fill="#fff" stroke="#707070" stroke-width="1" opacity="0.67"/>
    </clipPath>
    <filter id="Trazado_989622" x="54.161" y="-1.417" width="480.265" height="445.561" filterUnits="userSpaceOnUse">
      <feOffset dy="3" input="SourceAlpha"/>
      <feGaussianBlur stdDeviation="3" result="blur"/>
      <feFlood flood-opacity="0.161"/>
      <feComposite operator="in" in2="blur"/>
      <feComposite in="SourceGraphic"/>
    </filter>
    <clipPath id="clip-path-2">
      <rect id="Rect치ngulo_409905" data-name="Rect치ngulo 409905" width="457.138" height="437.403"/>
    </clipPath>
    <clipPath id="clip-path-3">
      <path id="Trazado_998025" data-name="Trazado 998025" d="M380.346,138.768l3.939,8.64c-9.414,8.225-43.388,41.316-29.46,79.7,13.211,36.412,61.851,31.57,78.871,28.663l3.581,7.852s-66.234,19.508-88.342-30.233C325.379,180.387,380.346,138.768,380.346,138.768Z" transform="translate(-343.067 -138.768)"/>
    </clipPath>
    <clipPath id="clip-path-4">
      <path id="Trazado_998063" data-name="Trazado 998063" d="M475.4,252.053s-11.961,80.5-80.819,75.647S324.1,246.557,324.1,246.557Z" transform="translate(-324.103 -246.557)"/>
    </clipPath>
  </defs>
  <g id="Enmascarar_grupo_1098695" data-name="Enmascarar grupo 1098695" transform="translate(-813 -904)" clip-path="url(#clip-path)">
    <g id="Grupo_1162372" data-name="Grupo 1162372" transform="translate(854 887.155)">
      <g transform="matrix(1, 0, 0, 1, -41, 16.84)" filter="url(#Trazado_989622)">
        <path id="Trazado_989622-2" data-name="Trazado 989622" d="M968.4,327.6c3.227,22.237,11.64,36.109,14.423,42.669,15.951,37.581-32.615,118.48-95.118,155.1C766.484,596.394,574.379,511.71,564.68,437.413c-1.667-12.748,3.575-13.46,5.557-35.64,6.738-75.252-50.1-105.076-46.447-156.312,4.619-64.858,101.881-103.733,111.474-107.438,71.677-27.7,148.943-9.343,195.5,25.043,16.355,12.077,10.483,12.522,37.16,34.734,58.419,48.647,95.968,54.35,101.582,85.832C972.147,298.468,964.794,302.779,968.4,327.6Z" transform="translate(-460.46 -119.98)" fill="#644ba6"/>
      </g>
      <g id="Grupo_1162365" data-name="Grupo 1162365" transform="translate(27.288 0)" clip-path="url(#clip-path-2)">
        <g id="Grupo_1162271" data-name="Grupo 1162271" transform="translate(28.709 220.436)">
          <path id="Trazado_997966" data-name="Trazado 997966" d="M445.86,365.336l-26.6,38.9-43.738-97.2s-7.477-26.542-14.954-32.9.747,21.308.747,21.308-10.468-12.71-13.084-20.187-4.86-22.43-11.215-22.056-5.233,28.411-2.243,38.505c3.109,10.493,22.056,25.794,22.056,25.794s33.644,124.486,51.589,130.467,60.187-32.149,60.187-32.149Z" transform="translate(-332.382 -253.197)" fill="#e4aca5"/>
          <g id="Grupo_1162267" data-name="Grupo 1162267" transform="translate(79.285 134.461)">
            <path id="Trazado_997967" data-name="Trazado 997967" d="M376.84,406.148c1.087,3.194,2.365,6.293,3.71,9.358s2.781,6.086,4.249,9.09c1.505,2.985,3.035,5.96,4.678,8.876s3.33,5.813,5.223,8.606c-1.084-3.2-2.361-6.295-3.707-9.359s-2.781-6.085-4.252-9.088c-1.508-2.985-3.037-5.959-4.68-8.876S378.73,408.943,376.84,406.148Z" transform="translate(-376.84 -406.148)" fill="#193e00"/>
          </g>
          <g id="Grupo_1162270" data-name="Grupo 1162270" transform="translate(0.06 2.194)">
            <g id="Grupo_1162268" data-name="Grupo 1162268" transform="translate(0 9.242)">
              <path id="Trazado_997968" data-name="Trazado 997968" d="M470.593,266.648a.929.929,0,0,1,1.022-.265,2.364,2.364,0,0,1,.957.543,6.6,6.6,0,0,1,1.236,1.871,17.71,17.71,0,0,1,1.242,4.377c.542,3.045,1.083,6.107,1.786,9.146a45.488,45.488,0,0,0,2.964,8.9,23.234,23.234,0,0,0,5.457,7.572,29.3,29.3,0,0,1-4.681-7.913,58.651,58.651,0,0,1-2.684-8.807c-.717-3-1.3-6.042-2.017-9.072a16.2,16.2,0,0,0-1.6-4.451,6.943,6.943,0,0,0-1.523-1.845,2.569,2.569,0,0,0-1.106-.482A1.014,1.014,0,0,0,470.593,266.648Z" transform="translate(-470.593 -266.206)" fill="#193e00"/>
            </g>
            <g id="Grupo_1162269" data-name="Grupo 1162269" transform="translate(1.621)">
              <path id="Trazado_997969" data-name="Trazado 997969" d="M464.914,255.693a7.374,7.374,0,0,1,4.055,3.3,20.345,20.345,0,0,1,2.424,4.739,73.195,73.195,0,0,1,2.576,10.446c.375,1.772.772,3.553,1.289,5.309a39.659,39.659,0,0,0,1.918,5.133,45.234,45.234,0,0,0,2.564,4.826,39.879,39.879,0,0,0,3.21,4.4,54.094,54.094,0,0,1-2.748-4.663,45.818,45.818,0,0,1-2.258-4.887,57.381,57.381,0,0,1-2.913-10.337,56.026,56.026,0,0,0-2.865-10.532,20.67,20.67,0,0,0-2.773-4.749,10.416,10.416,0,0,0-1.971-1.928A5.345,5.345,0,0,0,464.914,255.693Z" transform="translate(-464.914 -255.693)" fill="#193e00"/>
            </g>
          </g>
        </g>
        <path id="Trazado_997970" data-name="Trazado 997970" d="M256.619,349.181c12.691,1.828,25.761-3.933,34.537-13.283,6.179-6.583,10.77-16.055,8.411-24.771A34.158,34.158,0,0,0,308.9,259.41a47.915,47.915,0,0,0,11.489-43.147c-2.128-8.923-6.825-17.042-12.264-24.429-7.183-9.756-15.806-18.56-21.4-29.3-11.519-22.11-8.614-48.925-16.089-72.708-9.093-28.932-34.613-52.068-64.3-58.287-20.6-4.316-44.3-1.939-60.951,10.937-7.513,5.809-13.2,13.674-17.855,21.953-17.643,31.407-21.659,69.793-43.21,98.657-5.168,6.922-11.256,13.152-16.009,20.366-4.976,7.553-8.435,16.235-9.072,25.258s1.7,18.382,7.252,25.522c-5.548,4.9-6.454,15.624-6,23.013a24.845,24.845,0,0,0,10.563,18.672A30.37,30.37,0,0,0,84.1,319.838" transform="translate(83.532 -5.726)" fill="#193e00"/>
        <g id="Grupo_1162280" data-name="Grupo 1162280" transform="translate(191.223 37.957)">
          <g id="Grupo_1162273" data-name="Grupo 1162273" transform="translate(0 83.208)">
            <path id="Trazado_997971" data-name="Trazado 997971" d="M266.743,161.693a27.3,27.3,0,0,0,8.4,13.835,20.626,20.626,0,0,0,9.094,5.069,10.74,10.74,0,0,0,9.238-1.916,13.81,13.81,0,0,0,4.253-8.178c1.38-7.436-1.184-15.881-5.974-22.078-3.327-4.3-7.935-7.732-12.768-8.116C269.24,139.535,264.566,152.186,266.743,161.693Z" transform="translate(-266.217 -140.275)" fill="#e4aca5"/>
            <path id="Trazado_997972" data-name="Trazado 997972" d="M294.9,172.81a12.591,12.591,0,0,1-6.679-2.056,1.791,1.791,0,0,1-.834-2.859,20.707,20.707,0,0,1,4.659-5.349,41.466,41.466,0,0,0-5.152-8.6c-2.149-2.537-5.043-4.547-8.207-4.839a7.344,7.344,0,0,0-7.621,4.588s-3.89,9.062,6.421,18.213C288.359,181.558,294.9,172.81,294.9,172.81Z" transform="translate(-266.647 -141.339)" fill="#e4aca5"/>
            <g id="Grupo_1162272" data-name="Grupo 1162272" transform="translate(4.416 6.911)">
              <path id="Trazado_997973" data-name="Trazado 997973" d="M270.345,153.581a7.139,7.139,0,0,1,5.555-3.767,9.06,9.06,0,0,1,6.236,1.849,18.459,18.459,0,0,1,4.634,5.019,69.8,69.8,0,0,1,3.5,6.273l.316-1.44a21.474,21.474,0,0,0-3.179,3.391,22.7,22.7,0,0,0-1.258,1.941,8.981,8.981,0,0,0-.573,1.118,2.231,2.231,0,0,0-.009,1.7,3.925,3.925,0,0,0,1.984,1.792,12.237,12.237,0,0,0,2.148.85,11.154,11.154,0,0,0,4.484.392,14.081,14.081,0,0,1-4.135-1.293,14.878,14.878,0,0,1-1.812-1.089c-.585-.391-1.075-.862-1.134-1.212a.654.654,0,0,1,.1-.452,8.591,8.591,0,0,1,.525-.793,20.665,20.665,0,0,1,1.314-1.645,19.629,19.629,0,0,1,3.03-2.861l.739-.56-.424-.88a48.966,48.966,0,0,0-3.567-6.592A22.945,22.945,0,0,0,286.4,152.3a16.249,16.249,0,0,0-3.072-2.455,11.333,11.333,0,0,0-3.694-1.494,8.35,8.35,0,0,0-4.007.073,7.912,7.912,0,0,0-3.426,1.892,7.271,7.271,0,0,0-1.189,1.515A6.667,6.667,0,0,0,270.345,153.581Z" transform="translate(-270.345 -148.137)" fill="#193e00"/>
            </g>
          </g>
          <path id="Trazado_997974" data-name="Trazado 997974" d="M273.258,189.666a6.107,6.107,0,1,0,6.107-6.106A6.107,6.107,0,0,0,273.258,189.666Z" transform="translate(-259.782 -62.3)" fill="#fffce7"/>
          <path id="Trazado_997975" data-name="Trazado 997975" d="M142.242,116.105c0,34.245-1.783,86.583,46.939,94.169,48.388,7.533,77.073-59.923,77.073-94.169a62.006,62.006,0,0,0-124.013,0Z" transform="translate(-125.38 -46.649)" fill="#e4aca5"/>
          <ellipse id="Elipse_11707" data-name="Elipse 11707" cx="5.552" cy="5.552" rx="5.552" ry="5.552" transform="translate(34.913 83.393)" fill="#193e00"/>
          <ellipse id="Elipse_11708" data-name="Elipse 11708" cx="5.552" cy="5.552" rx="5.552" ry="5.552" transform="translate(71.853 87.432)" fill="#193e00"/>
          <g id="Grupo_1162274" data-name="Grupo 1162274" transform="translate(69.751 65.167)">
            <path id="Trazado_997976" data-name="Trazado 997976" d="M218.788,143.223A30,30,0,0,0,207.708,125.3a34.814,34.814,0,0,0-4.575-3.054,19.648,19.648,0,0,0-5.158-1.948,22.812,22.812,0,0,0-5.469-.534,17.331,17.331,0,0,0-5.361.931l.025.337c1.763.358,3.447.691,5.092,1.1s3.244.865,4.8,1.423c1.561.54,3.1,1.106,4.634,1.716a25.506,25.506,0,0,1,4.442,2.235,31.211,31.211,0,0,1,12.321,15.808Z" transform="translate(-187.146 -119.753)" fill="#193e00"/>
          </g>
          <g id="Grupo_1162275" data-name="Grupo 1162275" transform="translate(21.118 63.88)">
            <path id="Trazado_997977" data-name="Trazado 997977" d="M240.107,138.953a31.211,31.211,0,0,1,14.035-14.309,25.444,25.444,0,0,1,4.667-1.716c1.595-.432,3.186-.82,4.8-1.179,1.611-.377,3.255-.64,4.932-.869s3.391-.356,5.183-.512l.062-.332a17.3,17.3,0,0,0-5.22-1.533,22.784,22.784,0,0,0-5.494-.091,19.642,19.642,0,0,0-5.345,1.35,34.893,34.893,0,0,0-4.892,2.516,30,30,0,0,0-13.04,16.552Z" transform="translate(-239.794 -118.289)" fill="#193e00"/>
          </g>
          <g id="Grupo_1162276" data-name="Grupo 1162276" transform="translate(41.754 123.21)">
            <path id="Trazado_997978" data-name="Trazado 997978" d="M230.785,186.138c3-1.881,5.006,4.192,9.2,4.367,4.012.167,10.355-4.343,11.7-.836a4.175,4.175,0,0,1-.283,3.414,10.366,10.366,0,0,0-1.946-.522A15.59,15.59,0,0,0,235.7,197.43C230.087,194.5,228.315,187.687,230.785,186.138Z" transform="translate(-229.696 -185.777)" fill="#193e00"/>
            <path id="Trazado_997979" data-name="Trazado 997979" d="M244.053,193.465a10.233,10.233,0,0,1,1.946.522c-1.635,3.3-6.806,6.177-11.588,5.616a11.775,11.775,0,0,1-4.115-1.269A15.588,15.588,0,0,1,244.053,193.465Z" transform="translate(-224.295 -186.683)" fill="#d05d49"/>
          </g>
          <ellipse id="Elipse_11709" data-name="Elipse 11709" cx="8.627" cy="8.627" rx="8.627" ry="8.627" transform="translate(24.464 100.306)" fill="#e4aca5"/>
          <ellipse id="Elipse_11710" data-name="Elipse 11710" cx="8.627" cy="8.627" rx="8.627" ry="8.627" transform="translate(75.905 104.811)" fill="#e4aca5"/>
          <g id="Grupo_1162277" data-name="Grupo 1162277" transform="translate(45.473 81.699)">
            <path id="Trazado_997980" data-name="Trazado 997980" d="M248.68,138.559l-5.422,10.907c-1.834,3.605-3.672,7.2-5.618,10.735-.944,1.784-1.935,3.543-2.932,5.3l-.759,1.375a3.229,3.229,0,0,0-.341,1.04,2.13,2.13,0,0,0,.258,1.323,4.648,4.648,0,0,0,1.336,1.323c.418.317.853.613,1.289.9a24.168,24.168,0,0,0,11.619,4.03,32.228,32.228,0,0,1-10.632-5.4c-.386-.306-.768-.614-1.133-.943a3.451,3.451,0,0,1-.808-.812c-.03-.08-.019-.07-.009-.149a1.469,1.469,0,0,1,.17-.387l.779-1.254c1.064-1.744,2.081-3.516,3.068-5.305a114.38,114.38,0,0,0,5.248-11.071A87.147,87.147,0,0,0,248.68,138.559Z" transform="translate(-233.588 -138.559)" fill="#193e00"/>
          </g>
          <path id="Trazado_997981" data-name="Trazado 997981" d="M260.818,159.151c-9.741-3.123-16.508-12.39-19.383-22.206s-2.488-20.252-2.076-30.473c-6.067.508-11.529.559-17.421-.972-6.751-1.755-13.377-5.01-17.639-10.531-3.724-4.824-5.327-10.925-6.519-16.9-8.167,15.222-26.656,26.446-43.768,24.089-5.074,9.515-7.284,20.768-8.793,31.447-5.672-7.786-5.882-18.56-4.238-28.051C143,93.91,146.478,82.386,152.624,72.3s15.123-18.7,26.1-23.06c9.705-3.856,20.5-4.252,30.855-2.919,12.117,1.56,24.03,5.48,34.211,12.234s18.562,16.427,22.945,27.832c4.345,11.309,4.646,23.85,2.8,35.824A229.72,229.72,0,0,1,260.818,159.151Z" transform="translate(-127.848 -45.625)" fill="#193e00"/>
          <g id="Grupo_1162279" data-name="Grupo 1162279" transform="translate(119.6 86.378)">
            <path id="Trazado_997982" data-name="Trazado 997982" d="M161.525,165.3a27.3,27.3,0,0,1-8.4,13.835,20.626,20.626,0,0,1-9.094,5.069,10.74,10.74,0,0,1-9.238-1.916,13.809,13.809,0,0,1-4.253-8.177c-1.38-7.436,1.184-15.881,5.974-22.078,3.327-4.3,7.935-7.732,12.768-8.116C159.028,143.141,163.7,155.792,161.525,165.3Z" transform="translate(-130.171 -143.881)" fill="#e4aca5"/>
            <path id="Trazado_997983" data-name="Trazado 997983" d="M134.375,176.416a12.594,12.594,0,0,0,6.68-2.056,1.791,1.791,0,0,0,.835-2.859,20.706,20.706,0,0,0-4.659-5.348,41.488,41.488,0,0,1,5.152-8.6c2.149-2.537,5.042-4.547,8.206-4.839a7.344,7.344,0,0,1,7.621,4.588s3.89,9.062-6.421,18.212C140.913,185.165,134.375,176.416,134.375,176.416Z" transform="translate(-130.745 -144.945)" fill="#e4aca5"/>
            <g id="Grupo_1162278" data-name="Grupo 1162278" transform="translate(3.631 6.912)">
              <path id="Trazado_997984" data-name="Trazado 997984" d="M159.028,157.187a6.676,6.676,0,0,0-.662-1.756,7.324,7.324,0,0,0-1.189-1.515,7.9,7.9,0,0,0-3.426-1.892,8.35,8.35,0,0,0-4.007-.073,11.321,11.321,0,0,0-3.694,1.494,16.192,16.192,0,0,0-3.073,2.455,22.881,22.881,0,0,0-2.419,3.022,49.067,49.067,0,0,0-3.567,6.592l-.424.88.74.56a19.637,19.637,0,0,1,3.03,2.862,20.507,20.507,0,0,1,1.314,1.645,8.39,8.39,0,0,1,.525.793.653.653,0,0,1,.1.452c-.059.35-.55.821-1.134,1.212a14.807,14.807,0,0,1-1.812,1.089,14.072,14.072,0,0,1-4.135,1.293,11.156,11.156,0,0,0,4.484-.392,12.237,12.237,0,0,0,2.148-.85,3.921,3.921,0,0,0,1.984-1.793,2.235,2.235,0,0,0-.009-1.7,8.925,8.925,0,0,0-.573-1.118,22.7,22.7,0,0,0-1.257-1.941,21.474,21.474,0,0,0-3.179-3.391l.316,1.44a69.671,69.671,0,0,1,3.5-6.273,18.464,18.464,0,0,1,4.634-5.02,9.069,9.069,0,0,1,6.236-1.849A7.134,7.134,0,0,1,159.028,157.187Z" transform="translate(-135.194 -151.744)" fill="#193e00"/>
            </g>
          </g>
        </g>
        <ellipse id="Elipse_11711" data-name="Elipse 11711" cx="6.106" cy="6.106" rx="6.106" ry="6.106" transform="translate(310.841 161.545)" fill="#fffce7"/>
        <g id="Grupo_1162290" data-name="Grupo 1162290" transform="translate(163.801 33.637)">
          <g id="Grupo_1162281" data-name="Grupo 1162281" transform="translate(106.949 9.551)">
            <path id="Trazado_997985" data-name="Trazado 997985" d="M202.4,90.317a117.418,117.418,0,0,1-11.585,2.39,77.083,77.083,0,0,1-11.743.978,62.981,62.981,0,0,1-11.695-1,48.149,48.149,0,0,1-11.134-3.563A38.62,38.62,0,0,1,138.8,74.08a40.325,40.325,0,0,1-4.376-10.857,76.575,76.575,0,0,1-1.961-11.649,69.471,69.471,0,0,0,1.444,11.773A40.77,40.77,0,0,0,138.078,74.5a34.9,34.9,0,0,0,7.645,9.175,42.562,42.562,0,0,0,10.071,6.433A49.21,49.21,0,0,0,167.2,93.654a57.48,57.48,0,0,0,11.886.862A85.532,85.532,0,0,0,202.4,90.317Z" transform="translate(-132.461 -51.574)" fill="#fffce7"/>
          </g>
          <g id="Grupo_1162282" data-name="Grupo 1162282" transform="translate(124.253 0.93)">
            <path id="Trazado_997986" data-name="Trazado 997986" d="M185.619,76.213a31.048,31.048,0,0,1-8.408,1.873,33.335,33.335,0,0,1-8.559-.358,35.443,35.443,0,0,1-15.58-6.666A39.551,39.551,0,0,1,142.064,58.1a44.357,44.357,0,0,1-3.369-7.909,47.913,47.913,0,0,1-1.914-8.427,42.872,42.872,0,0,0,1.4,8.578,44.578,44.578,0,0,0,3.14,8.147A39.186,39.186,0,0,0,152.42,71.929a35.34,35.34,0,0,0,16.106,6.622,33.64,33.64,0,0,0,8.741.062A29.021,29.021,0,0,0,185.619,76.213Z" transform="translate(-136.781 -41.768)" fill="#fffce7"/>
          </g>
          <g id="Grupo_1162283" data-name="Grupo 1162283" transform="translate(46.155)">
            <path id="Trazado_997987" data-name="Trazado 997987" d="M274.281,40.71a51.2,51.2,0,0,1-4.143,18.766,49.6,49.6,0,0,1-36.019,28.946,49.75,49.75,0,0,1-9.624.975,45.254,45.254,0,0,0,9.716-.452,49.412,49.412,0,0,0,9.441-2.5A46.753,46.753,0,0,0,270.9,59.794a49.392,49.392,0,0,0,2.708-9.382A45.317,45.317,0,0,0,274.281,40.71Z" transform="translate(-224.495 -40.71)" fill="#fffce7"/>
          </g>
          <g id="Grupo_1162284" data-name="Grupo 1162284" transform="translate(47.809 5.935)">
            <path id="Trazado_997988" data-name="Trazado 997988" d="M274.935,47.461a40.5,40.5,0,0,1-1.527,5.823,37.748,37.748,0,0,1-2.331,5.51,38.786,38.786,0,0,1-16.521,16.677,37.71,37.71,0,0,1-5.487,2.384,40.609,40.609,0,0,1-5.807,1.584,33.51,33.51,0,0,0,5.967-1.077,37.638,37.638,0,0,0,5.7-2.146,35.147,35.147,0,0,0,16.893-17.057,37.536,37.536,0,0,0,2.091-5.722A33.588,33.588,0,0,0,274.935,47.461Z" transform="translate(-243.261 -47.461)" fill="#fffce7"/>
          </g>
          <g id="Grupo_1162285" data-name="Grupo 1162285" transform="translate(188.739 124.503)">
            <path id="Trazado_997989" data-name="Trazado 997989" d="M82.848,182.334A42.033,42.033,0,0,0,88,193.42a96.745,96.745,0,0,0,7.349,9.817c5.2,6.271,10.715,12.393,14.367,19.639a36.913,36.913,0,0,1,3.239,23.518,38.152,38.152,0,0,1-11.184,20.944l-.394.367.389.367a21.66,21.66,0,0,1-2.091,33.165l-.254.186.19.247a13.608,13.608,0,0,1-5.853,20.978A13.873,13.873,0,0,0,100.1,301.3l-.065.433a22.311,22.311,0,0,0,2.424-34.391l-.005.732a38.442,38.442,0,0,0,11.533-21.5,37.907,37.907,0,0,0-3.44-24.122c-3.8-7.374-9.469-13.415-14.74-19.605a108.686,108.686,0,0,1-7.537-9.608A41.794,41.794,0,0,1,82.848,182.334Z" transform="translate(-82.848 -182.334)" fill="#fffce7"/>
          </g>
          <g id="Grupo_1162286" data-name="Grupo 1162286" transform="translate(172.495 139.162)">
            <path id="Trazado_997990" data-name="Trazado 997990" d="M113.625,199.009a20.775,20.775,0,0,0,2.048,8.49,40.245,40.245,0,0,0,4.6,7.5c1.756,2.347,3.63,4.592,5.377,6.912A42.2,42.2,0,0,1,130.3,229.2a33.666,33.666,0,0,1,3.134,16.757A32.883,32.883,0,0,1,128,262.127l-.207.309.261.25a13.192,13.192,0,0,1,3.836,11.288,13.53,13.53,0,0,1-7.04,9.87,13.564,13.564,0,0,0,7.588-9.78,13.9,13.9,0,0,0-3.771-12l.054.558a34,34,0,0,0,2.455-33.853c-2.617-5.376-6.781-9.633-10.367-14.184a44.4,44.4,0,0,1-4.775-7.259A21.511,21.511,0,0,1,113.625,199.009Z" transform="translate(-113.625 -199.009)" fill="#fffce7"/>
          </g>
          <g id="Grupo_1162287" data-name="Grupo 1162287" transform="translate(154.842 149.713)">
            <path id="Trazado_997991" data-name="Trazado 997991" d="M138.9,211.011a18.643,18.643,0,0,0,1.264,6.817,35.82,35.82,0,0,0,3.219,6.191c2.5,3.922,5.514,7.45,7.735,11.422a24.789,24.789,0,0,1,2.568,6.249,24.1,24.1,0,0,1,.694,6.724,23.386,23.386,0,0,1-1.19,6.7,24.345,24.345,0,0,1-2.994,6.174,22.4,22.4,0,0,0,3.494-6,23.886,23.886,0,0,0,1.523-6.828,23.03,23.03,0,0,0-.529-7.014,25.343,25.343,0,0,0-2.622-6.538c-2.322-4.085-5.366-7.6-7.989-11.351a35.909,35.909,0,0,1-3.421-5.931A19.89,19.89,0,0,1,138.9,211.011Z" transform="translate(-138.897 -211.011)" fill="#fffce7"/>
          </g>
          <g id="Grupo_1162288" data-name="Grupo 1162288" transform="translate(0 129.93)">
            <path id="Trazado_997992" data-name="Trazado 997992" d="M329.831,188.507a29.434,29.434,0,0,1-9.4,14.767c-2.246,1.924-4.716,3.6-6.992,5.567a23.748,23.748,0,0,0-5.694,7.007,28.962,28.962,0,0,0-2.846,17.644,37.875,37.875,0,0,0,2.365,8.723,47.669,47.669,0,0,0,4.2,7.986l.207-.744a17.886,17.886,0,0,0-9.7,13.98,17.752,17.752,0,0,0,6.741,15.515l-.006-.482a12.063,12.063,0,0,0-3.115,4.024,14.169,14.169,0,0,0-.865,9.89,11.868,11.868,0,0,0,2.326,4.417,12.936,12.936,0,0,1-2.439-9.39,12.8,12.8,0,0,1,4.483-8.464l.3-.24-.3-.242a16.72,16.72,0,0,1,3.033-28.081l.519-.252-.312-.491a42.4,42.4,0,0,1-6.415-16.3,28.032,28.032,0,0,1,2.637-17.073,22.925,22.925,0,0,1,5.379-6.876c2.193-1.973,4.636-3.7,6.879-5.69A28.953,28.953,0,0,0,329.831,188.507Z" transform="translate(-301.885 -188.507)" fill="#fffce7"/>
          </g>
          <g id="Grupo_1162289" data-name="Grupo 1162289" transform="translate(25.426 144.138)">
            <path id="Trazado_997993" data-name="Trazado 997993" d="M302.1,204.669a29.407,29.407,0,0,1-4.367,12.454c-2.316,3.789-5.839,6.556-8.814,9.987a19.3,19.3,0,0,0-3.579,5.829,20.955,20.955,0,0,0-1.3,6.716,28.625,28.625,0,0,0,2.926,13.171l.105-.455a11.966,11.966,0,0,0-3.906,6.516,11.708,11.708,0,0,0,.695,7.443,11.9,11.9,0,0,1-.237-7.328,11.65,11.65,0,0,1,3.928-6.041l.226-.176-.12-.28a29.648,29.648,0,0,1-2.6-12.812,19.214,19.214,0,0,1,4.626-11.938c1.413-1.685,3.021-3.23,4.562-4.868a29.87,29.87,0,0,0,4.09-5.4A27.175,27.175,0,0,0,302.1,204.669Z" transform="translate(-282.86 -204.669)" fill="#fffce7"/>
          </g>
        </g>
        <g id="Grupo_1162293" data-name="Grupo 1162293" transform="translate(136.566 175.929)">
          <g id="Grupo_1162291" data-name="Grupo 1162291">
            <path id="Trazado_997994" data-name="Trazado 997994" d="M176.507,249.361c4.243-1.852,7.044-3.469,7.465-4.818,1.874-6,3.373-20.986,3.373-20.986l34.1-20.986s0,30.547,8.757,45.384l-52.248,44.9Z" transform="translate(-64.803 -202.57)" fill="#e4aca5"/>
            <path id="Trazado_997995" data-name="Trazado 997995" d="M171.345,257.818c1.983-.772,3.806-1.51,5.421-2.216l1.45,43.495,52.248-44.9a24.4,24.4,0,0,0,1.736,2.584c.754.97,1.7,2.076,2.8,3.3L173.191,313.2Z" transform="translate(-65.062 -208.811)" fill="#fffce7"/>
            <path id="Trazado_997996" data-name="Trazado 997996" d="M115.811,515.832l34.851-125.894-29.23-23.984s34.477-69.7,48.718-83.569c9.814-9.555,36-17.864,51.945-24.07l1.846,55.383,61.811-53.119c14.2,15.832,54.424,52.149,48.163,85.887-6.745,36.35-41.6,74.2-41.6,74.2l8.62,95.165H115.811Z" transform="translate(-115.811 -209.309)" fill="#abb73e"/>
          </g>
          <path id="Trazado_997997" data-name="Trazado 997997" d="M185.815,230.545a59.925,59.925,0,0,0,36.211-12.269,60.218,60.218,0,0,1-37.1,20.292" transform="translate(-64.024 -204.469)" fill="#193e00"/>
          <g id="Grupo_1162292" data-name="Grupo 1162292" transform="translate(29.713 83.281)">
            <path id="Trazado_997998" data-name="Trazado 997998" d="M324.082,297.3q-10.892,9.874-21.494,20.045c-7.057,6.747-14.274,13.587-19.8,21.915a50.36,50.36,0,0,0-6.367,13.517,36.654,36.654,0,0,0-1.317,14.9A30.3,30.3,0,0,0,277,374.951a52.132,52.132,0,0,1,2.447,6.835,20.732,20.732,0,0,1-1.654,14.1,20.536,20.536,0,0,0,2.694-14.322,51.54,51.54,0,0,0-2.15-7.1,30.016,30.016,0,0,1-1.543-6.978,36.246,36.246,0,0,1,1.6-14.122,49.169,49.169,0,0,1,6.21-12.914,89.77,89.77,0,0,1,9.014-11.355c3.261-3.607,6.744-7.036,10.156-10.552Q314.073,308.073,324.082,297.3Z" transform="translate(-274.834 -297.303)" fill="#193e00"/>
          </g>
        </g>
        <g id="Grupo_1162356" data-name="Grupo 1162356" transform="translate(13.223 119.84)">
          <g id="Grupo_1162317" data-name="Grupo 1162317" transform="translate(48.111)">
            <g id="Grupo_1162294" data-name="Grupo 1162294">
              <path id="Trazado_997999" data-name="Trazado 997999" d="M350.448,228.3c-13.928-38.386,20.046-71.477,29.46-79.7L429.319,256.96C412.3,259.868,363.659,264.71,350.448,228.3Z" transform="translate(-338.689 -139.956)" fill="#d05d49"/>
              <path id="Trazado_998000" data-name="Trazado 998000" d="M380.346,138.768l3.939,8.64c-9.414,8.225-43.388,41.316-29.46,79.7,13.211,36.412,61.851,31.57,78.871,28.663l3.581,7.852s-66.234,19.508-88.342-30.233C325.379,180.387,380.346,138.768,380.346,138.768Z" transform="translate(-343.067 -138.768)" fill="#568743"/>
            </g>
            <g id="Grupo_1162313" data-name="Grupo 1162313" transform="translate(17.119 31.818)">
              <g id="Grupo_1162295" data-name="Grupo 1162295" transform="translate(18.544)">
                <path id="Trazado_998001" data-name="Trazado 998001" d="M409.161,174.961a3.526,3.526,0,0,0-1.438.65,3.96,3.96,0,0,0-.923.985,3.867,3.867,0,0,0-.533,1.24,3.5,3.5,0,0,0-.012,1.58,3.51,3.51,0,0,0,1.441-.648,3.877,3.877,0,0,0,.92-.987,3.946,3.946,0,0,0,.53-1.242A3.528,3.528,0,0,0,409.161,174.961Z" transform="translate(-406.17 -174.961)" fill="#193e00"/>
              </g>
              <g id="Grupo_1162296" data-name="Grupo 1162296" transform="translate(11.789 9.157)">
                <path id="Trazado_998002" data-name="Trazado 998002" d="M415.944,185.377a3.6,3.6,0,0,0-.806,1.182,3.324,3.324,0,0,0-.256,1.116,3.264,3.264,0,0,0,.146,1.134,3.559,3.559,0,0,0,.694,1.253,2.71,2.71,0,0,0,1-1.076,2.89,2.89,0,0,0,.324-1.208,2.941,2.941,0,0,0-.21-1.233A2.748,2.748,0,0,0,415.944,185.377Z" transform="translate(-414.878 -185.377)" fill="#193e00"/>
              </g>
              <g id="Grupo_1162297" data-name="Grupo 1162297" transform="translate(24.5 15.843)">
                <path id="Trazado_998003" data-name="Trazado 998003" d="M402.319,193.158a3.155,3.155,0,0,0-1.46-.148,3.228,3.228,0,0,0-1.156.388,3.167,3.167,0,0,0-.926.792,3.13,3.13,0,0,0-.619,1.333,3.121,3.121,0,0,0,1.462.15,3.186,3.186,0,0,0,1.155-.389,3.225,3.225,0,0,0,.925-.795A3.185,3.185,0,0,0,402.319,193.158Z" transform="translate(-398.158 -192.983)" fill="#193e00"/>
              </g>
              <g id="Grupo_1162298" data-name="Grupo 1162298" transform="translate(12.939 22.317)">
                <path id="Trazado_998004" data-name="Trazado 998004" d="M415.426,200.347a3.1,3.1,0,0,0-1.309.942,3.665,3.665,0,0,0-.677,1.253,3.615,3.615,0,0,0-.148,1.416,3.083,3.083,0,0,0,.556,1.516,4.2,4.2,0,0,0,1.1-1.117,4.373,4.373,0,0,0,.562-1.177,4.5,4.5,0,0,0,.194-1.291A4.292,4.292,0,0,0,415.426,200.347Z" transform="translate(-413.276 -200.347)" fill="#193e00"/>
              </g>
              <g id="Grupo_1162299" data-name="Grupo 1162299" transform="translate(1.345 23.429)">
                <path id="Trazado_998005" data-name="Trazado 998005" d="M428.522,201.612a4.258,4.258,0,0,0-1.255,1.026,4.757,4.757,0,0,0-.722,1.17,4.637,4.637,0,0,0-.353,1.328,4.216,4.216,0,0,0,.124,1.618,3.347,3.347,0,0,0,1.409-.871,3.941,3.941,0,0,0,.812-1.219,4,4,0,0,0,.321-1.43A3.348,3.348,0,0,0,428.522,201.612Z" transform="translate(-426.163 -201.612)" fill="#193e00"/>
              </g>
              <g id="Grupo_1162300" data-name="Grupo 1162300" transform="translate(23.674 30.815)">
                <path id="Trazado_998006" data-name="Trazado 998006" d="M403.343,210.014a3.053,3.053,0,0,0-2.242,1.24,2.987,2.987,0,0,0-.495,1.074,3.043,3.043,0,0,0,.007,1.44,3.043,3.043,0,0,0,1.372-.437,2.982,2.982,0,0,0,.869-.8,3.05,3.05,0,0,0,.488-2.514Z" transform="translate(-400.523 -210.014)" fill="#193e00"/>
              </g>
              <g id="Grupo_1162301" data-name="Grupo 1162301" transform="translate(34.126 30.568)">
                <path id="Trazado_998007" data-name="Trazado 998007" d="M391.4,214.863a3.907,3.907,0,0,0,.084-1.676,4.6,4.6,0,0,0-.462-1.391,4.548,4.548,0,0,0-.875-1.175,3.861,3.861,0,0,0-1.425-.888,3.867,3.867,0,0,0-.087,1.677,4.543,4.543,0,0,0,.464,1.39,4.592,4.592,0,0,0,.877,1.174A3.913,3.913,0,0,0,391.4,214.863Z" transform="translate(-388.581 -209.733)" fill="#193e00"/>
              </g>
              <g id="Grupo_1162302" data-name="Grupo 1162302" transform="translate(19.761 46.964)">
                <path id="Trazado_998008" data-name="Trazado 998008" d="M407.7,230.067a2.906,2.906,0,0,0-.847-1.1,2.736,2.736,0,0,0-1-.5,2.685,2.685,0,0,0-1.118-.05,2.877,2.877,0,0,0-1.274.551,2.873,2.873,0,0,0,.847,1.1,2.689,2.689,0,0,0,1,.5,2.735,2.735,0,0,0,1.119.047A2.91,2.91,0,0,0,407.7,230.067Z" transform="translate(-403.456 -228.383)" fill="#193e00"/>
              </g>
              <g id="Grupo_1162303" data-name="Grupo 1162303" transform="translate(10.461 37.709)">
                <path id="Trazado_998009" data-name="Trazado 998009" d="M418.316,217.855a4.083,4.083,0,0,0-1.628.567,4.942,4.942,0,0,0-1.166.973,4.865,4.865,0,0,0-.816,1.28,4.048,4.048,0,0,0-.349,1.691,4.059,4.059,0,0,0,1.631-.565,4.845,4.845,0,0,0,1.163-.975,4.945,4.945,0,0,0,.813-1.282A4.063,4.063,0,0,0,418.316,217.855Z" transform="translate(-414.357 -217.855)" fill="#193e00"/>
              </g>
              <g id="Grupo_1162304" data-name="Grupo 1162304" transform="translate(0 40.596)">
                <path id="Trazado_998010" data-name="Trazado 998010" d="M429.889,221.139a2.787,2.787,0,0,0-1.138.956,3.022,3.022,0,0,0-.485,1.175,2.991,2.991,0,0,0,.042,1.27,2.761,2.761,0,0,0,.736,1.293,3.623,3.623,0,0,0,.957-1.087,3.382,3.382,0,0,0,.4-1.093,3.442,3.442,0,0,0,0-1.164A3.676,3.676,0,0,0,429.889,221.139Z" transform="translate(-428.217 -221.139)" fill="#193e00"/>
              </g>
              <g id="Grupo_1162305" data-name="Grupo 1162305" transform="translate(7.886 52.218)">
                <path id="Trazado_998011" data-name="Trazado 998011" d="M421.12,234.36a4.15,4.15,0,0,0-1.27.813,4.089,4.089,0,0,0-.762.964,4.006,4.006,0,0,0-.434,1.15,4.081,4.081,0,0,0-.037,1.509,2.864,2.864,0,0,0,1.457-.564,3.277,3.277,0,0,0,.9-1.029,3.321,3.321,0,0,0,.411-1.306A2.889,2.889,0,0,0,421.12,234.36Z" transform="translate(-418.563 -234.36)" fill="#193e00"/>
              </g>
              <g id="Grupo_1162306" data-name="Grupo 1162306" transform="translate(16.676 59.383)">
                <path id="Trazado_998012" data-name="Trazado 998012" d="M411.305,242.677a2.816,2.816,0,0,0-1.345-.141,2.535,2.535,0,0,0-1.01.376,2.492,2.492,0,0,0-.757.767,2.784,2.784,0,0,0-.418,1.288,2.788,2.788,0,0,0,1.347.143,2.494,2.494,0,0,0,1.008-.378,2.535,2.535,0,0,0,.755-.769A2.8,2.8,0,0,0,411.305,242.677Z" transform="translate(-407.775 -242.51)" fill="#193e00"/>
              </g>
              <g id="Grupo_1162307" data-name="Grupo 1162307" transform="translate(24.675 70.336)">
                <path id="Trazado_998013" data-name="Trazado 998013" d="M402.047,255.783a2.748,2.748,0,0,0-1.3-.728,3.02,3.02,0,0,0-1.277-.033,2.963,2.963,0,0,0-1.174.5,2.731,2.731,0,0,0-.934,1.161,3.682,3.682,0,0,0,1.361.49,3.391,3.391,0,0,0,1.158-.024,3.48,3.48,0,0,0,1.083-.411A3.746,3.746,0,0,0,402.047,255.783Z" transform="translate(-397.364 -254.97)" fill="#193e00"/>
              </g>
              <g id="Grupo_1162308" data-name="Grupo 1162308" transform="translate(29.83 51.092)">
                <path id="Trazado_998014" data-name="Trazado 998014" d="M395.977,233.079a4.351,4.351,0,0,0-1.138,1.1,4.674,4.674,0,0,0-.611,1.17,4.545,4.545,0,0,0-.252,1.295,4.319,4.319,0,0,0,.21,1.569,3.118,3.118,0,0,0,1.359-.9,3.691,3.691,0,0,0,.731-1.247,3.734,3.734,0,0,0,.2-1.432A3.148,3.148,0,0,0,395.977,233.079Z" transform="translate(-393.972 -233.079)" fill="#193e00"/>
              </g>
              <g id="Grupo_1162309" data-name="Grupo 1162309" transform="translate(40.765 44.619)">
                <path id="Trazado_998015" data-name="Trazado 998015" d="M383.008,225.716a3.922,3.922,0,0,0-.85,1.45,4.654,4.654,0,0,0-.235,1.45,4.549,4.549,0,0,0,.231,1.45,3.87,3.87,0,0,0,.853,1.45,3.872,3.872,0,0,0,.853-1.45,4.55,4.55,0,0,0,.231-1.45,4.654,4.654,0,0,0-.235-1.45A3.91,3.91,0,0,0,383.008,225.716Z" transform="translate(-381.923 -225.716)" fill="#193e00"/>
              </g>
              <g id="Grupo_1162310" data-name="Grupo 1162310" transform="translate(46.525 59.739)">
                <path id="Trazado_998016" data-name="Trazado 998016" d="M377.316,243.169a2.856,2.856,0,0,0-1.345-.25,2.629,2.629,0,0,0-1.058.295,2.581,2.581,0,0,0-.84.706,2.821,2.821,0,0,0-.549,1.255,2.827,2.827,0,0,0,1.347.252,2.581,2.581,0,0,0,1.057-.3,2.629,2.629,0,0,0,.839-.709A2.877,2.877,0,0,0,377.316,243.169Z" transform="translate(-373.524 -242.915)" fill="#193e00"/>
              </g>
              <g id="Grupo_1162311" data-name="Grupo 1162311" transform="translate(50.138 71.143)">
                <path id="Trazado_998017" data-name="Trazado 998017" d="M373.146,255.932a3.5,3.5,0,0,0-1.563.1,3.863,3.863,0,0,0-1.2.6,3.782,3.782,0,0,0-.917.971,3.465,3.465,0,0,0-.546,1.47,3.466,3.466,0,0,0,1.565-.1,3.783,3.783,0,0,0,1.194-.6,3.862,3.862,0,0,0,.915-.974A3.485,3.485,0,0,0,373.146,255.932Z" transform="translate(-368.925 -255.887)" fill="#193e00"/>
              </g>
              <g id="Grupo_1162312" data-name="Grupo 1162312" transform="translate(38.181 67.374)">
                <path id="Trazado_998018" data-name="Trazado 998018" d="M386.662,258.279a5.005,5.005,0,0,0,.3-1.919,6.627,6.627,0,0,0-.288-1.738,6.506,6.506,0,0,0-.733-1.6,4.977,4.977,0,0,0-1.327-1.42,4.972,4.972,0,0,0-.3,1.92,6.51,6.51,0,0,0,.291,1.737,6.632,6.632,0,0,0,.737,1.6A4.994,4.994,0,0,0,386.662,258.279Z" transform="translate(-384.309 -251.6)" fill="#193e00"/>
              </g>
            </g>
            <g id="Grupo_1162315" data-name="Grupo 1162315">
              <g id="Grupo_1162314" data-name="Grupo 1162314" clip-path="url(#clip-path-3)">
                <path id="Trazado_998019" data-name="Trazado 998019" d="M433.352,173.366a6.89,6.89,0,0,0-1.993-6.225,7.98,7.98,0,0,0-6.268-2.1c-1.654.164-3.274.809-4.927.64a6.863,6.863,0,0,1-4.672-3.014,20.312,20.312,0,0,1-2.4-5.182" transform="translate(-400.83 -141.031)" fill="none" stroke="#d4e6e0" stroke-miterlimit="10" stroke-width="13.571"/>
                <path id="Trazado_998020" data-name="Trazado 998020" d="M455.877,197.359a7.043,7.043,0,0,0-5.978-1.537c-2.644.563-4.7,2.585-7.109,3.816a12.93,12.93,0,0,1-14.493-2.173" transform="translate(-436.594 -145.648)" fill="none" stroke="#d4e6e0" stroke-miterlimit="10" stroke-width="13.571"/>
                <path id="Trazado_998021" data-name="Trazado 998021" d="M455.558,230.008a8.979,8.979,0,0,0-10.432.825c-1.678,1.477-2.739,3.55-4.4,5.049a9.317,9.317,0,0,1-11.366.6" transform="translate(-437.21 -149.642)" fill="none" stroke="#d4e6e0" stroke-miterlimit="10" stroke-width="13.571"/>
                <path id="Trazado_998022" data-name="Trazado 998022" d="M435.249,243.649c1.655,2.341.865,5.684-.8,8.017s-4.056,4.043-5.943,6.2c-3.23,3.695-4.831,8.5-6.353,13.163" transform="translate(-411.477 -151.447)" fill="none" stroke="#d4e6e0" stroke-miterlimit="10" stroke-width="13.571"/>
                <path id="Trazado_998023" data-name="Trazado 998023" d="M408.663,258.038c1.144,2.866,2.294,6.07,1.188,8.95-.7,1.822-2.2,3.193-3.388,4.742a16.015,16.015,0,0,0-3.206,11.108" transform="translate(-368.944 -153.186)" fill="none" stroke="#d4e6e0" stroke-miterlimit="10" stroke-width="13.571"/>
                <path id="Trazado_998024" data-name="Trazado 998024" d="M370.226,264.29a8.487,8.487,0,0,1,3.863,6.462,27.624,27.624,0,0,1-.549,7.765,21.266,21.266,0,0,0-.22,7.764,11.329,11.329,0,0,0,3.545,6.069" transform="translate(-306.53 -153.942)" fill="none" stroke="#d4e6e0" stroke-miterlimit="10" stroke-width="13.571"/>
              </g>
            </g>
            <g id="Grupo_1162316" data-name="Grupo 1162316" transform="translate(36.799 5.954)">
              <path id="Trazado_998026" data-name="Trazado 998026" d="M380.369,145.541c1.639,4.9,3.475,9.719,5.38,14.508s3.9,9.538,5.935,14.273c2.069,4.718,4.163,9.426,6.374,14.082s4.465,9.293,6.93,13.835c-1.639-4.907-3.473-9.726-5.379-14.514s-3.9-9.536-5.936-14.267c-2.071-4.716-4.164-9.421-6.374-14.076S382.833,150.09,380.369,145.541Z" transform="translate(-380.369 -145.541)" fill="#fffce7"/>
            </g>
          </g>
          <g id="Grupo_1162328" data-name="Grupo 1162328" transform="translate(0 23.357)">
            <g id="Grupo_1162321" data-name="Grupo 1162321" transform="translate(0 4.017)">
              <path id="Trazado_998027" data-name="Trazado 998027" d="M494.723,265.335s-9.959.391-14.938,1.206a39.347,39.347,0,0,1-26.729-5.279c-10.767-6.636-17.77-18.329-20.72-30.628s-2.2-25.211-.11-37.686c.633-3.787,1.415-7.631,3.316-10.967s5.118-6.133,8.928-6.606c2.117-.263,4.464-5.47,4.464-5.47l3.872,1.683s-.975,5.561.026,7.769c.652,1.437,1.9,2.512,2.766,3.83,1.618,2.453,1.829,5.546,1.921,8.483.386,12.309-.363,25.114,4.538,36.412a39.02,39.02,0,0,0,15.851,17.94c3.447,2.033,7.305,3.605,9.933,6.622,1.569,1.8,1.524,2.511,2.955,4.425s5.147,3.605,5.147,3.605Z" transform="translate(-430.385 -169.906)" fill="#eccb02"/>
              <path id="Trazado_998028" data-name="Trazado 998028" d="M432.749,273.156l-1.222,4.661s-1.481-1.941-1.072-3.025S432.749,273.156,432.749,273.156Z" transform="translate(-367.189 -182.388)" fill="#193e00"/>
              <g id="Grupo_1162318" data-name="Grupo 1162318" transform="translate(18.633 8.711)">
                <path id="Trazado_998029" data-name="Trazado 998029" d="M435.4,179.815a124.164,124.164,0,0,0-2.359,12.856,94.383,94.383,0,0,0-.728,13.074,66.046,66.046,0,0,0,5.356,25.568,58.466,58.466,0,0,0,3.043,5.839,54.9,54.9,0,0,0,3.756,5.41,46.122,46.122,0,0,0,9.574,8.99A74.238,74.238,0,0,0,465.451,258c3.969,1.815,8.02,3.419,12.092,4.963-3.988-1.749-8-3.441-11.886-5.4a74.107,74.107,0,0,1-11.174-6.622,55.535,55.535,0,0,1-4.967-4.15,47.878,47.878,0,0,1-4.349-4.781,53.975,53.975,0,0,1-3.652-5.337,58.6,58.6,0,0,1-2.952-5.757,61.048,61.048,0,0,1-3.98-12.31,75.313,75.313,0,0,1-1.519-12.881,95.047,95.047,0,0,1,.454-13C433.916,188.4,434.607,184.1,435.4,179.815Z" transform="translate(-432.303 -179.815)" fill="#193e00"/>
              </g>
              <g id="Grupo_1162319" data-name="Grupo 1162319" transform="translate(5.176 6.556)">
                <path id="Trazado_998030" data-name="Trazado 998030" d="M447.338,177.364a85.985,85.985,0,0,0-4.246,13.894q-.732,3.567-1.169,7.189-.4,3.622-.5,7.275a66.977,66.977,0,0,0,5.6,28.46,56.409,56.409,0,0,0,18,22.668,59.738,59.738,0,0,0,6.184,3.887,57.169,57.169,0,0,0,6.655,2.988,54.892,54.892,0,0,0,7.017,1.954,48.8,48.8,0,0,0,7.218.839,48.091,48.091,0,0,1-14.065-3.241,57.565,57.565,0,0,1-6.527-3.081,59,59,0,0,1-6.033-3.949,56.407,56.407,0,0,1-17.558-22.461,71.337,71.337,0,0,1-2.573-6.73q-1.077-3.44-1.811-6.978-.694-3.541-1.042-7.137c-.2-2.4-.313-4.8-.321-7.212q.028-3.613.365-7.218c.244-2.4.593-4.788,1.025-7.162s.983-4.729,1.607-7.065Q446.14,180.8,447.338,177.364Z" transform="translate(-441.404 -177.364)" fill="#193e00"/>
              </g>
              <g id="Grupo_1162320" data-name="Grupo 1162320" transform="translate(1.869 40.06)">
                <path id="Trazado_998031" data-name="Trazado 998031" d="M466.985,215.475a44.2,44.2,0,0,0-.226,16.709,46.521,46.521,0,0,0,16.877,28.547,44.134,44.134,0,0,0,14.752,7.851,56.834,56.834,0,0,1-13.769-9.017,52.189,52.189,0,0,1-16.37-27.681A56.69,56.69,0,0,1,466.985,215.475Z" transform="translate(-466.072 -215.475)" fill="#fffce7"/>
              </g>
            </g>
            <g id="Grupo_1162325" data-name="Grupo 1162325" transform="translate(29.521 4.657)">
              <path id="Trazado_998032" data-name="Trazado 998032" d="M458.949,235.484s-8.717,4.831-12.8,7.8a39.35,39.35,0,0,1-26.245,7.316c-12.6-1.08-24.118-8.37-32.287-18.025s-13.308-21.525-17.059-33.6c-1.138-3.667-2.171-7.451-1.974-11.286s1.81-7.78,5-9.917c1.772-1.188,1.524-6.894,1.524-6.894l4.215-.24s1.633,5.4,3.52,6.926c1.229.991,2.824,1.391,4.193,2.177,2.549,1.462,4.129,4.129,5.533,6.71,5.885,10.819,10.978,22.59,20.44,30.474a39.017,39.017,0,0,0,22.229,8.886c3.992.264,8.146-.068,11.85,1.443,2.213.9,2.491,1.556,4.63,2.622s6.219.9,6.219.9Z" transform="translate(-368.563 -170.634)" fill="#eccb02"/>
              <path id="Trazado_998033" data-name="Trazado 998033" d="M369.883,239.042l1.006,4.712s-2.2-1.066-2.318-2.219S369.883,239.042,369.883,239.042Z" transform="translate(-280.502 -178.904)" fill="#193e00"/>
              <g id="Grupo_1162322" data-name="Grupo 1162322" transform="translate(13.312 6.586)">
                <path id="Trazado_998034" data-name="Trazado 998034" d="M370.865,178.126a124.076,124.076,0,0,0,3.68,12.542,94.307,94.307,0,0,0,5.234,12,66.04,66.04,0,0,0,16.289,20.422,58.611,58.611,0,0,0,5.345,3.845,55.082,55.082,0,0,0,5.789,3.141,46.138,46.138,0,0,0,12.6,3.72,74.186,74.186,0,0,0,13.086.621c4.361-.165,8.7-.556,13.032-1.011-4.348.234-8.7.529-13.042.532a74.112,74.112,0,0,1-12.959-.884,55.758,55.758,0,0,1-6.3-1.471,47.943,47.943,0,0,1-6.035-2.313,54.145,54.145,0,0,1-5.662-3.123,58.338,58.338,0,0,1-5.227-3.813,61.064,61.064,0,0,1-9.094-9.2,75.311,75.311,0,0,1-7.154-10.819,94.972,94.972,0,0,1-5.447-11.814C373.4,186.457,372.082,182.307,370.865,178.126Z" transform="translate(-370.865 -178.126)" fill="#193e00"/>
              </g>
              <g id="Grupo_1162323" data-name="Grupo 1162323" transform="translate(2.857 9.443)">
                <path id="Trazado_998035" data-name="Trazado 998035" d="M377.018,181.375a85.956,85.956,0,0,0,2.461,14.319q.952,3.516,2.192,6.947,1.271,3.417,2.825,6.722a66.976,66.976,0,0,0,17.813,22.893,56.4,56.4,0,0,0,26.277,12.14,59.506,59.506,0,0,0,7.271.687,56.976,56.976,0,0,0,7.288-.327,54.821,54.821,0,0,0,7.145-1.413,48.831,48.831,0,0,0,6.823-2.5,48.086,48.086,0,0,1-14.019,3.436,57.656,57.656,0,0,1-7.216.186,58.963,58.963,0,0,1-7.164-.811A56.4,56.4,0,0,1,402.927,231.5a71.489,71.489,0,0,1-5.326-4.851q-2.511-2.589-4.757-5.416-2.213-2.85-4.142-5.9-1.888-3.075-3.533-6.3-1.6-3.239-2.922-6.61c-.861-2.252-1.625-4.542-2.308-6.857s-1.25-4.665-1.744-7.032Q377.493,184.978,377.018,181.375Z" transform="translate(-377.018 -181.375)" fill="#193e00"/>
              </g>
              <g id="Grupo_1162324" data-name="Grupo 1162324" transform="translate(10.499 43.11)">
                <path id="Trazado_998036" data-name="Trazado 998036" d="M400.348,219.672a44.21,44.21,0,0,0,7.319,15.023,46.522,46.522,0,0,0,27.919,17.9,44.143,44.143,0,0,0,16.708.372,56.814,56.814,0,0,1-16.354-1.856,52.182,52.182,0,0,1-27.077-17.35A56.687,56.687,0,0,1,400.348,219.672Z" transform="translate(-400.348 -219.672)" fill="#fffce7"/>
              </g>
            </g>
            <g id="Grupo_1162327" data-name="Grupo 1162327" transform="translate(12.479)">
              <g id="Grupo_1162326" data-name="Grupo 1162326">
                <path id="Trazado_998037" data-name="Trazado 998037" d="M455.415,165.607a31.676,31.676,0,0,0,27.021.616c2.758-1.225,5.167,2.849,2.388,4.085a36.781,36.781,0,0,1-31.8-.616c-2.728-1.352-.334-5.435,2.388-4.085Z" transform="translate(-451.824 -165.337)" fill="#d05d49"/>
              </g>
            </g>
          </g>
          <g id="Grupo_1162353" data-name="Grupo 1162353" transform="translate(100.83 10.178)">
            <path id="Trazado_998038" data-name="Trazado 998038" d="M353.842,157.588a16.751,16.751,0,0,0-11.275-7.242,31.162,31.162,0,0,0,.887,9.552c1.009,3.463,12.419,12.123,12.419,12.123S355.557,160.193,353.842,157.588Z" transform="translate(-313.92 -150.346)" fill="#568743"/>
            <g id="Grupo_1162329" data-name="Grupo 1162329" transform="translate(32.5 5.047)">
              <path id="Trazado_998039" data-name="Trazado 998039" d="M351.954,172.783a28,28,0,0,0-9.746-16.7,83.056,83.056,0,0,1,5.423,8.027A81.78,81.78,0,0,1,351.954,172.783Z" transform="translate(-342.208 -156.087)" fill="#193e00"/>
            </g>
            <path id="Trazado_998040" data-name="Trazado 998040" d="M379.842,193.489c.059,3.983-1.026,7.9-1.131,11.886-.245,9.247,4.772,18.115,4.063,27.339-.657,8.556-5.822,17.638-12.632,22.86-3.671,2.816-8.3,3.6-12.895,4.138a21.856,21.856,0,0,1-11.137-1.883,29.215,29.215,0,0,1-17.09-23.411c-1.1-10.97,4.291-21.762,11.809-29.826a72.132,72.132,0,0,0,5.256-5.807c3.4-4.558,5-10.261,8.349-14.857a17.555,17.555,0,0,1,7.55-6.127C372.54,173.644,379.7,183.888,379.842,193.489Z" transform="translate(-328.878 -153.55)" fill="#c5c031"/>
            <g id="Grupo_1162330" data-name="Grupo 1162330" transform="translate(39.218 12.211)">
              <path id="Trazado_998041" data-name="Trazado 998041" d="M334.052,179.413a37.878,37.878,0,0,1,2.141-4.046,40.293,40.293,0,0,1,2.551-3.728c.92-1.19,2.053-2.181,2.921-3.389a32.393,32.393,0,0,0,2.56-3.849l-.14-.165a11.482,11.482,0,0,0-4.035,2.567,16.16,16.16,0,0,0-2.743,3.863,29.287,29.287,0,0,0-3.46,8.679Z" transform="translate(-333.847 -164.236)" fill="#193e00"/>
            </g>
            <g id="Grupo_1162331" data-name="Grupo 1162331" transform="translate(35.016 25.502)">
              <path id="Trazado_998042" data-name="Trazado 998042" d="M349.175,181.837a20.887,20.887,0,0,1-4.724-.672,21.119,21.119,0,0,1-4.415-1.81,7.534,7.534,0,0,0,9.139,2.482Z" transform="translate(-340.036 -179.355)" fill="#193e00"/>
            </g>
            <g id="Grupo_1162352" data-name="Grupo 1162352" transform="translate(6.796 79.427)" opacity="0.5">
              <g id="Grupo_1162333" data-name="Grupo 1162333" transform="translate(37.25)">
                <g id="Grupo_1162332" data-name="Grupo 1162332">
                  <path id="Trazado_998043" data-name="Trazado 998043" d="M339.464,242.694q-.584,1.863-1.167,3.727c-.623,1.992-3.765,1.141-3.138-.865l1.166-3.727c.623-1.991,3.765-1.141,3.138.865Z" transform="translate(-335.077 -240.696)" fill="#75b7aa"/>
                </g>
              </g>
              <g id="Grupo_1162335" data-name="Grupo 1162335" transform="translate(28.945 1.304)">
                <g id="Grupo_1162334" data-name="Grupo 1162334">
                  <path id="Trazado_998044" data-name="Trazado 998044" d="M348.605,244.623l-2.306,3.216a1.673,1.673,0,0,1-2.226.584,1.641,1.641,0,0,1-.584-2.226l2.306-3.216a1.673,1.673,0,0,1,2.226-.584,1.641,1.641,0,0,1,.584,2.226Z" transform="translate(-343.255 -242.179)" fill="#75b7aa"/>
                </g>
              </g>
              <g id="Grupo_1162337" data-name="Grupo 1162337" transform="translate(29.733 8.911)">
                <g id="Grupo_1162336" data-name="Grupo 1162336">
                  <path id="Trazado_998045" data-name="Trazado 998045" d="M347.361,253.6l-3.209,3.648a1.627,1.627,0,1,1-2.3-2.3l3.209-3.648a1.627,1.627,0,0,1,2.3,2.3Z" transform="translate(-341.388 -250.832)" fill="#75b7aa"/>
                </g>
              </g>
              <g id="Grupo_1162339" data-name="Grupo 1162339" transform="translate(24.608 19.157)">
                <g id="Grupo_1162338" data-name="Grupo 1162338">
                  <path id="Trazado_998046" data-name="Trazado 998046" d="M352.41,265.695l-3.549,1.2a1.627,1.627,0,0,1-.865-3.138l3.549-1.2a1.627,1.627,0,0,1,.865,3.138Z" transform="translate(-346.802 -262.487)" fill="#75b7aa"/>
                </g>
              </g>
              <g id="Grupo_1162341" data-name="Grupo 1162341" transform="translate(15.495 19.696)">
                <g id="Grupo_1162340" data-name="Grupo 1162340">
                  <path id="Trazado_998047" data-name="Trazado 998047" d="M362.831,266.292a10.606,10.606,0,0,1-3.872.258,1.679,1.679,0,0,1-1.627-1.627,1.637,1.637,0,0,1,1.627-1.627,8.126,8.126,0,0,0,3.007-.142c2.033-.5,2.9,2.636.865,3.138Z" transform="translate(-357.331 -263.1)" fill="#75b7aa"/>
                </g>
              </g>
              <g id="Grupo_1162343" data-name="Grupo 1162343" transform="translate(20.627 13.874)">
                <g id="Grupo_1162342" data-name="Grupo 1162342">
                  <path id="Trazado_998048" data-name="Trazado 998048" d="M356.97,259.661l-3.367.8a1.627,1.627,0,0,1-.865-3.138l3.367-.8a1.627,1.627,0,0,1,.865,3.138Z" transform="translate(-351.548 -256.477)" fill="#75b7aa"/>
                </g>
              </g>
              <g id="Grupo_1162345" data-name="Grupo 1162345" transform="translate(35.224 11.976)">
                <g id="Grupo_1162344" data-name="Grupo 1162344">
                  <path id="Trazado_998049" data-name="Trazado 998049" d="M337.112,257.33l1.627-2.2a1.667,1.667,0,0,1,2.226-.584,1.644,1.644,0,0,1,.584,2.226l-1.627,2.2a1.667,1.667,0,0,1-2.226.584,1.645,1.645,0,0,1-.584-2.226Z" transform="translate(-336.871 -254.319)" fill="#75b7aa"/>
                </g>
              </g>
              <g id="Grupo_1162347" data-name="Grupo 1162347" transform="translate(13.103 9.628)">
                <g id="Grupo_1162346" data-name="Grupo 1162346">
                  <path id="Trazado_998050" data-name="Trazado 998050" d="M365.164,254.922l-3.342-.02a1.628,1.628,0,0,1,0-3.254l3.342.02a1.628,1.628,0,0,1,0,3.254Z" transform="translate(-360.25 -251.648)" fill="#75b7aa"/>
                </g>
              </g>
              <g id="Grupo_1162349" data-name="Grupo 1162349" transform="translate(7.221 13.353)">
                <g id="Grupo_1162348" data-name="Grupo 1162348">
                  <path id="Trazado_998051" data-name="Trazado 998051" d="M370.823,260.178l-1.98-1.535a1.63,1.63,0,0,1,0-2.3,1.678,1.678,0,0,1,2.3,0l1.98,1.535a1.629,1.629,0,0,1,0,2.3,1.678,1.678,0,0,1-2.3,0Z" transform="translate(-368.368 -255.885)" fill="#75b7aa"/>
                </g>
              </g>
              <g id="Grupo_1162351" data-name="Grupo 1162351" transform="translate(0 7.986)">
                <g id="Grupo_1162350" data-name="Grupo 1162350">
                  <path id="Trazado_998052" data-name="Trazado 998052" d="M378.874,254.227l-1.3-2.013a1.639,1.639,0,0,1,.584-2.226,1.663,1.663,0,0,1,2.226.584l1.3,2.013a1.639,1.639,0,0,1-.584,2.226,1.664,1.664,0,0,1-2.226-.584Z" transform="translate(-377.347 -249.78)" fill="#75b7aa"/>
                </g>
              </g>
            </g>
          </g>
          <path id="Trazado_998053" data-name="Trazado 998053" d="M475.4,252.053s-11.961,80.5-80.819,75.647S324.1,246.557,324.1,246.557Z" transform="translate(-316.404 -151.798)" fill="#d05d49"/>
          <path id="Trazado_998054" data-name="Trazado 998054" d="M481.022,247.057a581.476,581.476,0,0,1-160.105-3.324" transform="translate(-319.229 -151.457)" fill="none" stroke="#e4aca5" stroke-linecap="round" stroke-miterlimit="10" stroke-width="11.698"/>
          <g id="Grupo_1162355" data-name="Grupo 1162355" transform="translate(7.699 94.759)">
            <g id="Grupo_1162354" data-name="Grupo 1162354" clip-path="url(#clip-path-4)">
              <path id="Trazado_998055" data-name="Trazado 998055" d="M413.764,230.6c-20.52,41.569-46.962,81.7-85.039,108.139" transform="translate(-266.533 -244.629)" fill="none" stroke="#e4aca5" stroke-linecap="round" stroke-miterlimit="10" stroke-width="1.234"/>
              <path id="Trazado_998056" data-name="Trazado 998056" d="M450.788,224.377a285.164,285.164,0,0,1-91.019,109.206" transform="translate(-330.848 -243.876)" fill="none" stroke="#e4aca5" stroke-linecap="round" stroke-miterlimit="10" stroke-width="1.234"/>
              <path id="Trazado_998057" data-name="Trazado 998057" d="M482.539,233a367.413,367.413,0,0,1-88.892,86.326" transform="translate(-392.382 -244.918)" fill="none" stroke="#e4aca5" stroke-linecap="round" stroke-miterlimit="10" stroke-width="1.234"/>
              <path id="Trazado_998058" data-name="Trazado 998058" d="M513.287,220.742c-23.692,30.275-53.761,54.831-83.561,79.116" transform="translate(-454.847 -243.436)" fill="none" stroke="#e4aca5" stroke-linecap="round" stroke-miterlimit="10" stroke-width="1.234"/>
              <path id="Trazado_998059" data-name="Trazado 998059" d="M399.221,296.241c-28.232-19.208-51.4-44.815-74.28-70.165" transform="translate(-248.664 -244.081)" fill="none" stroke="#e4aca5" stroke-linecap="round" stroke-miterlimit="10" stroke-width="1.234"/>
              <path id="Trazado_998060" data-name="Trazado 998060" d="M447,316.131a656.682,656.682,0,0,1-104.262-107.09" transform="translate(-312.08 -242.022)" fill="none" stroke="#e4aca5" stroke-linecap="round" stroke-miterlimit="10" stroke-width="1.234"/>
              <path id="Trazado_998061" data-name="Trazado 998061" d="M484.492,336.442A978.172,978.172,0,0,1,369.45,224.452" transform="translate(-373.063 -243.885)" fill="none" stroke="#e4aca5" stroke-linecap="round" stroke-miterlimit="10" stroke-width="1.234"/>
              <path id="Trazado_998062" data-name="Trazado 998062" d="M509.836,337.187l-95.548-97.2" transform="translate(-437.824 -245.763)" fill="none" stroke="#e4aca5" stroke-linecap="round" stroke-miterlimit="10" stroke-width="1.234"/>
            </g>
          </g>
        </g>
        <g id="Grupo_1162364" data-name="Grupo 1162364" transform="translate(35.561 264.06)">
          <g id="Grupo_1162357" data-name="Grupo 1162357" transform="translate(232.934 18.397)">
            <path id="Trazado_998064" data-name="Trazado 998064" d="M129.624,379.6a47.281,47.281,0,0,0,4.8-4.109c1.523-1.457,3-2.958,4.466-4.472,2.892-3.061,5.694-6.2,8.437-9.392,2.762-3.173,5.431-6.422,8.114-9.656l7.926-9.8A67.849,67.849,0,0,1,171.7,333a32.924,32.924,0,0,1,10.3-6.482,21.677,21.677,0,0,1,12-.989,17.924,17.924,0,0,1,5.74,2.161,15.383,15.383,0,0,1,4.577,4.18c-2.054-3.726-5.947-6.237-10.071-7.372a22.109,22.109,0,0,0-12.807.426,33.114,33.114,0,0,0-11.091,6.534,67.634,67.634,0,0,0-8.675,9.362l-15.646,19.729c-2.622,3.273-5.239,6.55-7.929,9.765A98.165,98.165,0,0,1,129.624,379.6Z" transform="translate(-129.624 -323.747)" fill="#193e00"/>
          </g>
          <path id="Trazado_998065" data-name="Trazado 998065" d="M182.936,436.981A45.382,45.382,0,0,1,185.7,452.91c-.592-.8-1.177-1.6-1.763-2.4l-7.747-10.637" transform="translate(80.989 -319.039)" fill="#193e00"/>
          <g id="Grupo_1162358" data-name="Grupo 1162358" transform="translate(266.686 110.394)">
            <path id="Trazado_998066" data-name="Trazado 998066" d="M173.251,428.395c-1.637,2.1-3.366,4.1-5.1,6.09s-3.514,3.952-5.308,5.894-3.591,3.884-5.4,5.81c-1.831,1.911-3.627,3.853-5.555,5.684a52.323,52.323,0,0,0,6.152-5.085c1.946-1.814,3.8-3.723,5.607-5.676,1.789-1.969,3.531-3.983,5.16-6.091A50.559,50.559,0,0,0,173.251,428.395Z" transform="translate(-151.879 -428.395)" fill="#193e00"/>
          </g>
          <g id="Grupo_1162363" data-name="Grupo 1162363" transform="translate(0)">
            <path id="Trazado_998067" data-name="Trazado 998067" d="M414.81,373.621l-64.49,51.615s-76.931-81.77-87.207-90.447-22.15-16.9-26.717-18.5-17.355-6.622-17.812-4.111,2.512,5.48,6.394,7.764,11.189,7.079,11.189,7.079-17.583-2.969-28.772-8.905-18.04-12.331-20.552-11.874a6.41,6.41,0,0,0-3.654,1.827l-5.48-5.252s-.985,11,11.8,21.273,22.907,15.264,32.954,18.461,26.261,4.8,26.261,4.8S323.4,465.409,346.007,468.378s97.051-42.7,97.051-42.7A124.621,124.621,0,0,0,432.1,398.729,218.806,218.806,0,0,0,414.81,373.621Z" transform="translate(-177.692 -302.82)" fill="#e4aca5"/>
            <g id="Grupo_1162359" data-name="Grupo 1162359" transform="translate(5.184 5.167)">
              <path id="Trazado_998068" data-name="Trazado 998068" d="M427.825,308.7a2.355,2.355,0,0,0-.484,1.5,4.058,4.058,0,0,0,.414,1.58,9.237,9.237,0,0,0,1.945,2.57c1.5,1.443,3.032,2.856,4.656,4.164a76.607,76.607,0,0,0,10.3,7.091A75.3,75.3,0,0,0,456,330.873a62.742,62.742,0,0,0,12.052,3.179c-3.873-1.5-7.681-3.042-11.408-4.745-1.859-.86-3.709-1.731-5.523-2.674l-2.718-1.414-2.672-1.5c-3.555-2.01-6.992-4.222-10.36-6.552q-2.521-1.755-4.98-3.62a9.08,9.08,0,0,1-2.119-2.065A2.732,2.732,0,0,1,427.825,308.7Z" transform="translate(-427.34 -308.698)" fill="#193e00"/>
            </g>
            <g id="Grupo_1162360" data-name="Grupo 1162360" transform="translate(149.718 97.841)">
              <path id="Trazado_998069" data-name="Trazado 998069" d="M272.227,414.115c2.383,3.307,4.921,6.467,7.514,9.575s5.258,6.148,7.952,9.162c2.724,2.987,5.468,5.956,8.308,8.841s5.716,5.738,8.767,8.442c-2.372-3.3-4.908-6.459-7.5-9.567S292,434.415,289.3,431.4c-2.73-2.989-5.478-5.962-8.318-8.848S275.268,416.81,272.227,414.115Z" transform="translate(-272.227 -414.115)" fill="#193e00"/>
            </g>
            <g id="Grupo_1162361" data-name="Grupo 1162361" transform="translate(12.922 22.173)">
              <path id="Trazado_998070" data-name="Trazado 998070" d="M420.192,328.042c1.38,1.218,2.828,2.353,4.279,3.489l2.237,1.622,2.28,1.565a89.117,89.117,0,0,0,9.58,5.536,84.575,84.575,0,0,0,10.2,4.282l2.632.852,2.655.773,2.686.65c.9.2,1.8.375,2.706.546q-1.313-.429-2.63-.824l-2.607-.881-2.591-.913-2.563-.986c-3.4-1.36-6.744-2.832-10.011-4.47-3.278-1.616-6.472-3.4-9.619-5.268l-2.345-1.43-2.312-1.487-2.3-1.508Q421.345,328.8,420.192,328.042Z" transform="translate(-420.192 -328.042)" fill="#193e00"/>
            </g>
            <g id="Grupo_1162362" data-name="Grupo 1162362" transform="translate(92.562 77.411)">
              <path id="Trazado_998071" data-name="Trazado 998071" d="M331.762,390.876c1.458,2.24,2.971,4.439,4.455,6.66l4.548,6.594c3.041,4.389,6.161,8.723,9.237,13.086,3.148,4.313,6.257,8.653,9.441,12.94l4.793,6.418c1.63,2.116,3.229,4.254,4.886,6.352-1.457-2.241-2.971-4.44-4.454-6.661l-4.547-6.594c-3.043-4.388-6.16-8.723-9.239-13.086-3.15-4.311-6.257-8.654-9.443-12.939l-4.793-6.418C335.017,395.112,333.417,392.974,331.762,390.876Z" transform="translate(-331.762 -390.876)" fill="#193e00"/>
            </g>
          </g>
        </g>
      </g>
      <g id="Grupo_1162371" data-name="Grupo 1162371" transform="translate(0 45.358)">
        <path id="Trazado_998072" data-name="Trazado 998072" d="M51.837,191.544l-10.175-4.211-3.208-9.172L35.242,187.8l-10.17,3.742,9.231,3.619,4.152,9.763,3.208-8.981Z" transform="translate(393.829 -81.566)" fill="#568743"/>
        <path id="Trazado_998073" data-name="Trazado 998073" d="M345.121,83.7,333.4,78.852l-3.7-10.569L326,79.393,314.279,83.7l10.636,4.17L329.7,99.125l3.7-10.349Z" transform="translate(-153.7 -68.283)" fill="#568743"/>
        <path id="Trazado_998074" data-name="Trazado 998074" d="M109.632,433.355l-13.748-5.69-4.335-12.393L87.207,428.3l-13.741,5.056,12.472,4.89,5.61,13.193L95.883,439.3Z" transform="translate(293.491 -110.23)" fill="#568743"/>
        <g id="Grupo_1162367" data-name="Grupo 1162367" transform="translate(389.939 31.807)">
          <path id="Trazado_998075" data-name="Trazado 998075" d="M83.807,123.383a40.976,40.976,0,0,1-8.462,1.894,68.349,68.349,0,0,1-8.463.522,66.829,66.829,0,0,1-8.462-.516,40.548,40.548,0,0,1-8.462-1.9,40.6,40.6,0,0,1,8.462-1.9,66.991,66.991,0,0,1,8.462-.516,68.351,68.351,0,0,1,8.463.522A41.165,41.165,0,0,1,83.807,123.383Z" transform="translate(-49.957 -106.459)" fill="#e4aca5"/>
          <path id="Trazado_998076" data-name="Trazado 998076" d="M68.878,104.464a41.035,41.035,0,0,1,1.9,8.462,68.335,68.335,0,0,1,.522,8.462,66.99,66.99,0,0,1-.516,8.462,40.534,40.534,0,0,1-1.9,8.462,40.59,40.59,0,0,1-1.9-8.462,67.164,67.164,0,0,1-.516-8.462,68.332,68.332,0,0,1,.522-8.462A41.091,41.091,0,0,1,68.878,104.464Z" transform="translate(-51.953 -104.464)" fill="#e4aca5"/>
          <path id="Trazado_998077" data-name="Trazado 998077" d="M79.532,134.039a40.977,40.977,0,0,1-7.324-4.644,68.422,68.422,0,0,1-6.353-5.614,67.111,67.111,0,0,1-5.619-6.349A40.594,40.594,0,0,1,55.6,110.1a40.52,40.52,0,0,1,7.328,4.64,66.992,66.992,0,0,1,6.349,5.619,68.306,68.306,0,0,1,5.615,6.353A40.953,40.953,0,0,1,79.532,134.039Z" transform="translate(-50.639 -105.146)" fill="#e4aca5"/>
          <path id="Trazado_998078" data-name="Trazado 998078" d="M79.532,110.1a41.076,41.076,0,0,1-4.644,7.324,68.307,68.307,0,0,1-5.615,6.353,67.112,67.112,0,0,1-6.349,5.619,40.565,40.565,0,0,1-7.328,4.639,40.563,40.563,0,0,1,4.639-7.328,67.114,67.114,0,0,1,5.619-6.349,68.171,68.171,0,0,1,6.353-5.614A41.049,41.049,0,0,1,79.532,110.1Z" transform="translate(-50.64 -105.146)" fill="#e4aca5"/>
        </g>
        <g id="Grupo_1162368" data-name="Grupo 1162368" transform="translate(419.19 261.621)">
          <path id="Trazado_998079" data-name="Trazado 998079" d="M51.87,379.368a29.263,29.263,0,0,1-6.033,1.351,48.763,48.763,0,0,1-6.033.373,47.922,47.922,0,0,1-6.033-.367,28.937,28.937,0,0,1-6.033-1.356,28.937,28.937,0,0,1,6.033-1.356,47.758,47.758,0,0,1,6.033-.367,48.587,48.587,0,0,1,6.033.373A29.209,29.209,0,0,1,51.87,379.368Z" transform="translate(-27.737 -367.302)" fill="#e4aca5"/>
          <path id="Trazado_998080" data-name="Trazado 998080" d="M41.224,365.88a29.259,29.259,0,0,1,1.351,6.033,48.923,48.923,0,0,1,.373,6.033,47.907,47.907,0,0,1-.367,6.033,28.876,28.876,0,0,1-1.356,6.033,28.92,28.92,0,0,1-1.356-6.033,47.907,47.907,0,0,1-.367-6.033,48.585,48.585,0,0,1,.373-6.033A29.07,29.07,0,0,1,41.224,365.88Z" transform="translate(-29.157 -365.88)" fill="#e4aca5"/>
          <path id="Trazado_998081" data-name="Trazado 998081" d="M48.821,386.963a29.287,29.287,0,0,1-5.222-3.311,48.63,48.63,0,0,1-4.529-4,47.822,47.822,0,0,1-4.006-4.526,28.9,28.9,0,0,1-3.307-5.225,28.9,28.9,0,0,1,5.225,3.308,47.8,47.8,0,0,1,4.527,4.006,48.634,48.634,0,0,1,4,4.529A29.378,29.378,0,0,1,48.821,386.963Z" transform="translate(-28.222 -366.366)" fill="#e4aca5"/>
          <path id="Trazado_998082" data-name="Trazado 998082" d="M48.821,369.9a29.215,29.215,0,0,1-3.311,5.221,48.619,48.619,0,0,1-4,4.529,47.83,47.83,0,0,1-4.527,4.006,28.9,28.9,0,0,1-5.225,3.307,28.938,28.938,0,0,1,3.307-5.225,47.922,47.922,0,0,1,4.006-4.527,48.625,48.625,0,0,1,4.529-4A29.3,29.3,0,0,1,48.821,369.9Z" transform="translate(-28.222 -366.366)" fill="#e4aca5"/>
        </g>
        <g id="Grupo_1162369" data-name="Grupo 1162369" transform="translate(120.07 34.502)">
          <path id="Trazado_998083" data-name="Trazado 998083" d="M392.326,120.2a27.476,27.476,0,0,1-5.666,1.269,45.724,45.724,0,0,1-5.666.35,44.893,44.893,0,0,1-5.666-.346,27.163,27.163,0,0,1-5.666-1.273,27.194,27.194,0,0,1,5.666-1.273,44.881,44.881,0,0,1,5.666-.345,45.722,45.722,0,0,1,5.666.35A27.42,27.42,0,0,1,392.326,120.2Z" transform="translate(-369.662 -108.865)" fill="#e4aca5"/>
          <path id="Trazado_998084" data-name="Trazado 998084" d="M382.329,107.529a27.467,27.467,0,0,1,1.269,5.666,45.724,45.724,0,0,1,.35,5.666,44.87,44.87,0,0,1-.345,5.666,27.138,27.138,0,0,1-1.273,5.666,27.2,27.2,0,0,1-1.273-5.666,44.882,44.882,0,0,1-.345-5.666,45.712,45.712,0,0,1,.35-5.666A27.407,27.407,0,0,1,382.329,107.529Z" transform="translate(-370.998 -107.529)" fill="#e4aca5"/>
          <path id="Trazado_998085" data-name="Trazado 998085" d="M389.463,127.329a27.449,27.449,0,0,1-4.9-3.109,45.724,45.724,0,0,1-4.254-3.759,45.01,45.01,0,0,1-3.763-4.251,27.117,27.117,0,0,1-3.106-4.906,27.14,27.14,0,0,1,4.906,3.107,44.892,44.892,0,0,1,4.25,3.762,45.731,45.731,0,0,1,3.759,4.254A27.479,27.479,0,0,1,389.463,127.329Z" transform="translate(-370.118 -107.985)" fill="#e4aca5"/>
          <path id="Trazado_998086" data-name="Trazado 998086" d="M389.462,111.3a27.48,27.48,0,0,1-3.109,4.9,45.722,45.722,0,0,1-3.759,4.254,45.029,45.029,0,0,1-4.251,3.763,27.121,27.121,0,0,1-4.906,3.106,27.214,27.214,0,0,1,3.106-4.906,44.757,44.757,0,0,1,3.763-4.251,45.607,45.607,0,0,1,4.254-3.759A27.363,27.363,0,0,1,389.462,111.3Z" transform="translate(-370.117 -107.985)" fill="#e4aca5"/>
        </g>
        <path id="Trazado_998087" data-name="Trazado 998087" d="M496.372,358.491l11.915-4.93,3.756-10.74,3.762,11.29,11.908,4.381L516.9,362.728l-4.861,11.433-3.756-10.516Z" transform="translate(-496.372 -101.472)" fill="#568743"/>
        <g id="Grupo_1162370" data-name="Grupo 1162370" transform="translate(28.805 298.169)">
          <path id="Trazado_998088" data-name="Trazado 998088" d="M473.06,420.327a27.909,27.909,0,0,0,5.757,1.289,46.529,46.529,0,0,0,5.758.355,45.678,45.678,0,0,0,5.757-.351,27.636,27.636,0,0,0,5.757-1.293,27.574,27.574,0,0,0-5.757-1.293,45.5,45.5,0,0,0-5.757-.351,46.536,46.536,0,0,0-5.758.355A27.923,27.923,0,0,0,473.06,420.327Z" transform="translate(-473.06 -408.811)" fill="#e4aca5"/>
          <path id="Trazado_998089" data-name="Trazado 998089" d="M485.931,407.454a27.9,27.9,0,0,0-1.289,5.757,46.525,46.525,0,0,0-.355,5.757,45.686,45.686,0,0,0,.351,5.757,27.531,27.531,0,0,0,1.294,5.757,27.581,27.581,0,0,0,1.293-5.757,45.674,45.674,0,0,0,.351-5.757,46.525,46.525,0,0,0-.355-5.757A27.974,27.974,0,0,0,485.931,407.454Z" transform="translate(-474.415 -407.454)" fill="#e4aca5"/>
          <path id="Trazado_998090" data-name="Trazado 998090" d="M476.9,427.576a27.931,27.931,0,0,0,4.983-3.159,46.612,46.612,0,0,0,4.323-3.82,45.649,45.649,0,0,0,3.823-4.319,27.6,27.6,0,0,0,3.157-4.986,27.6,27.6,0,0,0-4.986,3.157,45.538,45.538,0,0,0-4.319,3.823,46.352,46.352,0,0,0-3.82,4.323A27.792,27.792,0,0,0,476.9,427.576Z" transform="translate(-473.522 -407.918)" fill="#e4aca5"/>
          <path id="Trazado_998091" data-name="Trazado 998091" d="M476.9,411.291a27.923,27.923,0,0,0,3.159,4.983,46.485,46.485,0,0,0,3.82,4.323,45.755,45.755,0,0,0,4.319,3.823,27.579,27.579,0,0,0,4.986,3.156,27.567,27.567,0,0,0-3.157-4.985,45.53,45.53,0,0,0-3.823-4.319,46.481,46.481,0,0,0-4.323-3.82A27.8,27.8,0,0,0,476.9,411.291Z" transform="translate(-473.523 -407.918)" fill="#e4aca5"/>
        </g>
      </g>
    </g>
  </g>
</svg>
