<svg xmlns="http://www.w3.org/2000/svg" xmlns:xlink="http://www.w3.org/1999/xlink" width="108" height="108" viewBox="0 0 108 108">
  <defs>
    <filter id="Fondo" x="0" y="0" width="108" height="108" filterUnits="userSpaceOnUse">
      <feOffset dy="3" input="SourceAlpha"/>
      <feGaussianBlur stdDeviation="3" result="blur"/>
      <feFlood flood-opacity="0.161"/>
      <feComposite operator="in" in2="blur"/>
      <feComposite in="SourceGraphic"/>
    </filter>
  </defs>
  <g id="Grupo_1161929" data-name="Grupo 1161929" transform="translate(-612 -1578)">
    <g id="Grupo_1158007" data-name="Grupo 1158007" transform="translate(415.313 392)">
      <g transform="matrix(1, 0, 0, 1, 196.69, 1186)" filter="url(#Fondo)">
        <g id="Fondo-2" data-name="Fondo" transform="translate(9 6)" fill="#fefcf6">
          <path d="M 45 88.5 C 39.12687683105469 88.5 33.43022537231445 87.35007476806641 28.06830024719238 85.08217620849609 C 22.88852500915527 82.89131164550781 18.23629951477051 79.75458526611328 14.2408504486084 75.75914764404297 C 10.24541282653809 71.76370239257812 7.108687400817871 67.11147308349609 4.917825222015381 61.93170166015625 C 2.649924993515015 56.56977462768555 1.5 50.87312316894531 1.5 45 C 1.5 39.12687683105469 2.649924993515015 33.43022537231445 4.917825222015381 28.06830024719238 C 7.108687400817871 22.88852500915527 10.24541282653809 18.23629951477051 14.2408504486084 14.2408504486084 C 18.23629951477051 10.24541282653809 22.88852500915527 7.108687400817871 28.06830024719238 4.917825222015381 C 33.43022537231445 2.649924993515015 39.12687683105469 1.5 45 1.5 C 50.87312316894531 1.5 56.56977462768555 2.649924993515015 61.93170166015625 4.917825222015381 C 67.11147308349609 7.108687400817871 71.76370239257812 10.24541282653809 75.75914764404297 14.2408504486084 C 79.75458526611328 18.23629951477051 82.89131164550781 22.88852500915527 85.08217620849609 28.06830024719238 C 87.35007476806641 33.43022537231445 88.5 39.12687683105469 88.5 45 C 88.5 50.87312316894531 87.35007476806641 56.56977462768555 85.08217620849609 61.93170166015625 C 82.89131164550781 67.11147308349609 79.75458526611328 71.76370239257812 75.75914764404297 75.75914764404297 C 71.76370239257812 79.75458526611328 67.11147308349609 82.89131164550781 61.93170166015625 85.08217620849609 C 56.56977462768555 87.35007476806641 50.87312316894531 88.5 45 88.5 Z" stroke="none"/>
          <path d="M 45 3 C 39.32871246337891 3 33.82865524291992 4.110054016113281 28.65262985229492 6.299339294433594 C 23.65165710449219 8.414573669433594 19.15968322753906 11.44334411621094 15.301513671875 15.301513671875 C 11.44334411621094 19.15968322753906 8.414573669433594 23.65165710449219 6.299339294433594 28.65262985229492 C 4.110054016113281 33.82865524291992 3 39.32871246337891 3 45 C 3 50.67128753662109 4.110054016113281 56.17134475708008 6.299339294433594 61.34737396240234 C 8.414573669433594 66.34834289550781 11.44334411621094 70.84031677246094 15.301513671875 74.698486328125 C 19.15968322753906 78.55665588378906 23.65165710449219 81.58542633056641 28.65262985229492 83.70066070556641 C 33.82865524291992 85.88994598388672 39.32871246337891 87 45 87 C 50.67128753662109 87 56.17134475708008 85.88994598388672 61.34737396240234 83.70066070556641 C 66.34834289550781 81.58542633056641 70.84031677246094 78.55665588378906 74.698486328125 74.698486328125 C 78.55665588378906 70.84031677246094 81.58542633056641 66.34834289550781 83.70066070556641 61.34737396240234 C 85.88994598388672 56.17134475708008 87 50.67128753662109 87 45 C 87 39.32871246337891 85.88994598388672 33.82865524291992 83.70066070556641 28.65262985229492 C 81.58542633056641 23.65165710449219 78.55665588378906 19.15968322753906 74.698486328125 15.301513671875 C 70.84031677246094 11.44334411621094 66.34834289550781 8.414573669433594 61.34737396240234 6.299339294433594 C 56.17134475708008 4.110054016113281 50.67128753662109 3 45 3 M 45 0 C 69.85281372070312 0 90 20.14718627929688 90 45 C 90 69.85281372070312 69.85281372070312 90 45 90 C 20.14718627929688 90 0 69.85281372070312 0 45 C 0 20.14718627929688 20.14718627929688 0 45 0 Z" stroke="none" fill="#86815c"/>
        </g>
      </g>
    </g>
    <g id="comida-sana" transform="translate(632 1595)">
      <g id="Grupo_1161927" data-name="Grupo 1161927" transform="translate(1 1)">
        <path id="Trazado_997592" data-name="Trazado 997592" d="M251.745,68.5c-.219,0-.437,0-.655.008v4c.217-.007.436-.011.655-.011a21.006,21.006,0,0,1,0,42.012c-.219,0-.437,0-.655-.011v4c.217.005.436.008.655.008a25.007,25.007,0,0,0,0-50.014Z" transform="translate(-218.602 -60.364)" fill="#fce3a0"/>
        <path id="Trazado_997593" data-name="Trazado 997593" d="M92.852,72.564v-4a25.007,25.007,0,0,0,0,50v-4a21.005,21.005,0,0,1,0-41.99Z" transform="translate(-60.364 -60.416)" fill="#ffce71"/>
        <g id="Grupo_1161922" data-name="Grupo 1161922" transform="translate(17.805)">
          <g id="Grupo_1161917" data-name="Grupo 1161917" transform="translate(0 9.174)">
            <g id="Grupo_1161915" data-name="Grupo 1161915" transform="translate(11.788)">
              <path id="Trazado_997594" data-name="Trazado 997594" d="M248.272,78.067V94.535c0,.044,0,.087,0,.129-14.915-2.337-22.243-8.348-17.4-18.346A67.173,67.173,0,0,1,248.272,78.067Z" transform="translate(-229.384 -76.285)" fill="#fff8e6"/>
            </g>
            <g id="Grupo_1161916" data-name="Grupo 1161916" transform="translate(0 0.033)">
              <path id="Trazado_997595" data-name="Trazado 997595" d="M171.671,94.876a4,4,0,0,1-4,3.872H145a4,4,0,0,1-4-4V78.28a67.79,67.79,0,0,1,13.272-1.75C155.805,84.028,160.26,91.166,171.671,94.876Z" transform="translate(-141 -76.53)" fill="#fff1cf"/>
            </g>
          </g>
          <g id="Grupo_1161918" data-name="Grupo 1161918" transform="translate(7.562 15.671)">
            <path id="Trazado_997596" data-name="Trazado 997596" d="M273.514,127.332a2.326,2.326,0,0,1-.683,1.648l-2.177,2.177c-2.575.2-4.092-.513-3.122-3.477l2-2a2.334,2.334,0,0,1,3.984,1.651Z" transform="translate(-257.962 -124.997)" fill="#b5e9f1"/>
            <path id="Trazado_997597" data-name="Trazado 997597" d="M210.389,148.587l-3.754,3.754a4,4,0,0,1-5.659,0l-2.6-2.6a2.334,2.334,0,0,1,0-3.3h0a2.334,2.334,0,0,1,3.3,0l1.654,1.654a.667.667,0,0,0,.943,0l2.989-2.989A21.385,21.385,0,0,0,210.389,148.587Z" transform="translate(-197.698 -142.428)" fill="#9be1ec"/>
          </g>
          <g id="Grupo_1161921" data-name="Grupo 1161921" transform="translate(0 3.001)">
            <g id="Grupo_1161919" data-name="Grupo 1161919" transform="translate(11.145)">
              <path id="Trazado_997598" data-name="Trazado 997598" d="M244.1,34v4H227.12c-2.365-2.637-3.775-5.349-1.112-8h14.087A4,4,0,0,1,244.1,34Z" transform="translate(-224.565 -30)" fill="#99b2e9"/>
            </g>
            <g id="Grupo_1161920" data-name="Grupo 1161920">
              <path id="Trazado_997599" data-name="Trazado 997599" d="M154.7,38H141V34a4,4,0,0,1,4-4h8.586A34.384,34.384,0,0,0,154.7,38Z" transform="translate(-141 -30)" fill="#85a4e4"/>
            </g>
          </g>
          <path id="Trazado_997600" data-name="Trazado 997600" d="M293.059,13.5h-.117A1.942,1.942,0,0,1,291,11.56V9.442A1.942,1.942,0,0,1,292.942,7.5h.117A1.942,1.942,0,0,1,295,9.442V11.56A1.942,1.942,0,0,1,293.059,13.5Z" transform="translate(-270.994 -7.5)" fill="#b5e9f1"/>
          <path id="Trazado_997601" data-name="Trazado 997601" d="M193.059,13.5h-.117A1.942,1.942,0,0,1,191,11.56V9.442A1.942,1.942,0,0,1,192.942,7.5h.117A1.942,1.942,0,0,1,195,9.442V11.56A1.942,1.942,0,0,1,193.059,13.5Z" transform="translate(-184.332 -7.5)" fill="#9be1ec"/>
        </g>
        <g id="Grupo_1161924" data-name="Grupo 1161924" transform="translate(48.947 27.379)">
          <g id="Grupo_1161923" data-name="Grupo 1161923">
            <path id="Trazado_997602" data-name="Trazado 997602" d="M422.814,227.715a7.777,7.777,0,0,1-.778,3.326c-12.132.5-12.974-6.965-10.935-15.632.838-.963,1.6-1.736,2.158-2.266a1.282,1.282,0,0,1,1.771,0C417.237,215.251,422.814,221.219,422.814,227.715Z" transform="translate(-405.476 -212.787)" fill="#8ce09f"/>
            <path id="Trazado_997603" data-name="Trazado 997603" d="M391.061,248.072a8.69,8.69,0,0,1-16.561-3.326c0-4.864,3.128-9.433,5.626-12.306C380.162,238.454,381.587,245.169,391.061,248.072Z" transform="translate(-374.5 -229.819)" fill="#73da8c"/>
          </g>
        </g>
        <g id="Grupo_1161925" data-name="Grupo 1161925" transform="translate(21.139 37.856)">
          <path id="Trazado_997604" data-name="Trazado 997604" d="M202.232,300.116s1.247-3.832-1.044-6.562a7.03,7.03,0,0,0-5.433-2.215,1.063,1.063,0,0,0-1.042.874,7.03,7.03,0,0,0,1.238,5.735C198.241,300.678,202.232,300.116,202.232,300.116Z" transform="translate(-190.758 -291.339)" fill="#8ce09f"/>
          <path id="Trazado_997605" data-name="Trazado 997605" d="M232.72,352.174a13.263,13.263,0,0,1-3.145,8.184c-12.668-.971-16.759-9.854-12.882-17.877a11.632,11.632,0,0,1,3.377.588,2.142,2.142,0,0,0,1.294,0C229.209,340.582,232.72,346.411,232.72,352.174Z" transform="translate(-208.714 -335.659)" fill="#ff8a98"/>
          <path id="Trazado_997606" data-name="Trazado 997606" d="M186.861,360.358a9.781,9.781,0,0,1-6.519,3.717,4.752,4.752,0,0,1-1.684-.186,2.264,2.264,0,0,0-1.31,0,4.752,4.752,0,0,1-1.684.186c-5.417-.458-9.665-6.631-9.665-11.9,0-4.859,2.5-9.764,7.98-9.694a17.194,17.194,0,0,0,12.881,17.878Z" transform="translate(-166 -335.659)" fill="#ff6e80"/>
        </g>
        <g id="Grupo_1161926" data-name="Grupo 1161926" transform="translate(0 27.38)">
          <path id="Trazado_997607" data-name="Trazado 997607" d="M38.49,344.809a2.528,2.528,0,0,1-.8-4.855.834.834,0,0,0,.522-.766v-7.977h4.212v7.977a.833.833,0,0,0,.522.766,2.528,2.528,0,1,1-2.226,4.528.814.814,0,0,0-.805,0A2.52,2.52,0,0,1,38.49,344.809Z" transform="translate(-32.313 -315.417)" fill="#fff1cf"/>
          <path id="Trazado_997608" data-name="Trazado 997608" d="M47.792,220.792a15.822,15.822,0,0,1-2.311,7.7c-10.067-1.236-10.906-7.785-9.335-14.785h0a7.684,7.684,0,0,1,3.644-.912A8.168,8.168,0,0,1,47.792,220.792Z" transform="translate(-31.787 -212.79)" fill="#e4996d"/>
          <path id="Trazado_997609" data-name="Trazado 997609" d="M21.193,234.417A27.287,27.287,0,0,1,19,237.67a4.437,4.437,0,0,1-6.989,0C9.854,234.909,7.5,230.93,7.5,226.72a8.286,8.286,0,0,1,4.359-7.09C11.869,225.193,13.068,231.417,21.193,234.417Z" transform="translate(-7.5 -218.718)" fill="#df8a57"/>
        </g>
      </g>
      <g id="Grupo_1161928" data-name="Grupo 1161928" transform="translate(0)">
        <path id="Trazado_997610" data-name="Trazado 997610" d="M197.319,130.594a4.986,4.986,0,0,1-3.537-1.463l-2.595-2.595a3.334,3.334,0,0,1,4.716-4.716l1.417,1.417,4.751-4.752a3.334,3.334,0,0,1,4.714,4.714l-5.931,5.931A4.986,4.986,0,0,1,197.319,130.594Zm-3.773-7.748a1.334,1.334,0,0,0-.944,2.276l2.595,2.595a3,3,0,0,0,4.244,0l5.931-5.931a1.333,1.333,0,0,0-1.885-1.885l-4.987,4.987a1.669,1.669,0,0,1-2.358,0l-1.653-1.653A1.327,1.327,0,0,0,193.546,122.846Z" transform="translate(-164.844 -101.839)"/>
        <path id="Trazado_997611" data-name="Trazado 997611" d="M60.192,28.011a2.278,2.278,0,0,0-.9-.531A26.1,26.1,0,0,0,50.48,13.907V8a5.007,5.007,0,0,0-5-5H43.812a3,3,0,1,0-6,0H30.475a3,3,0,1,0-6,0H22.806a5.007,5.007,0,0,0-5,5v5.905A26.1,26.1,0,0,0,9.025,27.38H9a8.77,8.77,0,0,0-2.055.244,1,1,0,1,0,.469,1.945A6.764,6.764,0,0,1,9,29.38a7.192,7.192,0,0,1,7,7c0,3.99-2.336,7.822-4.3,10.334a3.437,3.437,0,0,1-5.411,0C4.337,44.2,2,40.372,2,36.382a7.109,7.109,0,0,1,1.914-4.711A1,1,0,0,0,2.439,30.32,9.13,9.13,0,0,0,0,36.382c0,4.559,2.566,8.805,4.72,11.565A5.449,5.449,0,0,0,5.9,49.065v2.969A3.528,3.528,0,0,0,7.114,58.77q.116.007.231.007A3.521,3.521,0,0,0,9,58.365a3.528,3.528,0,1,0,3.106-6.331V49.065a5.39,5.39,0,0,0,.474-.372,26.118,26.118,0,0,0,8.636,8.023,14.486,14.486,0,0,0,2.929,7.021,10.888,10.888,0,0,0,7.572,4.532c.134.011.272.017.413.017a5.8,5.8,0,0,0,1.645-.242,1.252,1.252,0,0,1,.73,0,5.71,5.71,0,0,0,2.058.225c5.582-.471,9.864-6.218,10.5-11.552A25.948,25.948,0,0,0,53.687,51.3a9.572,9.572,0,0,0,3.929,1.3V54.27a1,1,0,1,0,2,0V52.6a9.646,9.646,0,0,0,5.931-2.879,9.316,9.316,0,0,0,2.738-6.418c0-6.828-5.66-12.971-8.093-15.3ZM12.183,55.356a1.545,1.545,0,0,1-1.42,1.418,1.527,1.527,0,0,1-.859-.2,1.814,1.814,0,0,0-1.8,0,1.525,1.525,0,0,1-.86.2,1.527,1.527,0,0,1-.484-2.933A1.831,1.831,0,0,0,7.9,52.152V49.923a5.538,5.538,0,0,0,2.211,0v2.229a1.831,1.831,0,0,0,1.138,1.688,1.534,1.534,0,0,1,.937,1.516ZM57.3,27.8a2.311,2.311,0,0,0-.262.216c-.391.373-.87.85-1.4,1.417A21.821,21.821,0,0,0,50.48,19.414v-2.86A24.09,24.09,0,0,1,57.3,27.8ZM39.811,3a1,1,0,1,1,2,0V5a1,1,0,1,1-2,0ZM26.474,3a1,1,0,1,1,2,0V5a1,1,0,1,1-2,0ZM19.805,8a3,3,0,0,1,3-3h1.667a3,3,0,0,0,6,0H37.81a3,3,0,1,0,6,0h1.667a3,3,0,0,1,3,3v3H34.574a1,1,0,0,0,0,2H48.48v15.42a3,3,0,0,1-3,3H22.806a3,3,0,0,1-3-3V13h10.1a1,1,0,1,0,0-2h-10.1Zm-6.883,20.3a8.694,8.694,0,0,0-1.888-.689A24.084,24.084,0,0,1,17.8,16.555v2.86A22,22,0,0,0,12.922,28.307Zm8.251,26.041A24.123,24.123,0,0,1,13.927,47.1q.686-.943,1.23-1.836A22.107,22.107,0,0,0,21.5,52.143,14.1,14.1,0,0,0,21.174,54.348ZM36.4,66.275a3.749,3.749,0,0,1-1.309-.145,3.246,3.246,0,0,0-1.891,0,3.738,3.738,0,0,1-1.309.145c-4.927-.416-8.749-6.2-8.749-10.9,0-3.283,1.18-6.107,3.156-7.553A6.1,6.1,0,0,1,30,46.673a10.633,10.633,0,0,1,3.2.547,3.123,3.123,0,0,0,1.9,0h0c2.815-.892,5.135-.692,6.9.6,1.976,1.447,3.156,4.271,3.156,7.553C45.146,60.072,41.324,65.859,36.4,66.275ZM27.078,39.906a.062.062,0,0,1,.063-.05A6.041,6.041,0,0,1,31.8,41.714a5.262,5.262,0,0,1,1.149,3.357,10.814,10.814,0,0,0-4.816-.2l-.037-.044a6.046,6.046,0,0,1-1.02-4.917ZM47.112,54.348a14.105,14.105,0,0,0-.322-2.205,22.063,22.063,0,0,0,3.938-3.552,9.991,9.991,0,0,0,.957,1.134q.191.2.391.379A23.946,23.946,0,0,1,47.112,54.348Zm12.5-3.769V48.013a9.631,9.631,0,0,1,3.948-4.137,1,1,0,1,0-.905-1.784,10.135,10.135,0,0,0-3.042,2.413V41.731a9.558,9.558,0,0,1,2.592-3.124A1,1,0,1,0,61.017,37a9.764,9.764,0,0,0-1.4,1.276V34.245a1,1,0,0,0-2,0v4.032A9.764,9.764,0,0,0,56.216,37a1,1,0,0,0-1.192,1.606,9.558,9.558,0,0,1,2.592,3.124v2.775a10.132,10.132,0,0,0-3.042-2.413,1,1,0,1,0-.905,1.784,9.633,9.633,0,0,1,3.948,4.137V50.58c-3.331-.488-6.669-3.339-6.669-7.273a11.311,11.311,0,0,1,.219-2.178,1,1,0,0,0-1.963-.387,13.309,13.309,0,0,0-.256,2.565,8.711,8.711,0,0,0,.727,3.431,20.09,20.09,0,0,1-3.525,3.4A9.21,9.21,0,0,0,43.171,46.2a9.053,9.053,0,0,0-7.55-1.2,12.843,12.843,0,0,1,1.547-2.664,1,1,0,1,0-1.6-1.2,15.4,15.4,0,0,0-1,1.52,6.624,6.624,0,0,0-1.227-2.232,7.963,7.963,0,0,0-6.16-2.573h-.041a2.062,2.062,0,0,0-2.025,1.7,8.241,8.241,0,0,0,1.044,6.01,7.714,7.714,0,0,0-1.039.642,9.211,9.211,0,0,0-2.978,3.932,20.091,20.091,0,0,1-5.84-6.96A15.7,15.7,0,0,0,18,36.382a9.13,9.13,0,0,0-2.536-6.168,9.479,9.479,0,0,0-.782-.74A19.929,19.929,0,0,1,17.8,22.61v5.814a5.007,5.007,0,0,0,5,5H45.479a5.007,5.007,0,0,0,5-5V22.605a19.775,19.775,0,0,1,3.477,8.767,27.825,27.825,0,0,0-3.093,4.713,1,1,0,0,0,1.782.909,29.69,29.69,0,0,1,5.775-7.535.282.282,0,0,1,.39,0c6.746,6.444,7.474,11.832,7.474,13.849C66.285,47.241,62.948,50.092,59.616,50.58Z" transform="translate(0)"/>
      </g>
    </g>
  </g>
</svg>
