<svg xmlns="http://www.w3.org/2000/svg" xmlns:xlink="http://www.w3.org/1999/xlink" width="108" height="108" viewBox="0 0 108 108">
  <defs>
    <filter id="Fondo" x="0" y="0" width="108" height="108" filterUnits="userSpaceOnUse">
      <feOffset dy="3" input="SourceAlpha"/>
      <feGaussianBlur stdDeviation="3" result="blur"/>
      <feFlood flood-opacity="0.161"/>
      <feComposite operator="in" in2="blur"/>
      <feComposite in="SourceGraphic"/>
    </filter>
  </defs>
  <g id="Grupo_1162992" data-name="Grupo 1162992" transform="translate(-617.3 -422)">
    <g id="Grupo_1158163" data-name="Grupo 1158163" transform="translate(420.614 -764)">
      <g transform="matrix(1, 0, 0, 1, 196.69, 1186)" filter="url(#Fondo)">
        <g id="Fondo-2" data-name="Fondo" transform="translate(9 6)" fill="#ebe9f0">
          <path d="M 45 88.5 C 39.12687683105469 88.5 33.43022537231445 87.35007476806641 28.06830024719238 85.08217620849609 C 22.88852500915527 82.89131164550781 18.23629951477051 79.75458526611328 14.2408504486084 75.75914764404297 C 10.24541282653809 71.76370239257812 7.108687400817871 67.11147308349609 4.917825222015381 61.93170166015625 C 2.649924993515015 56.56977462768555 1.5 50.87312316894531 1.5 45 C 1.5 39.12687683105469 2.649924993515015 33.43022537231445 4.917825222015381 28.06830024719238 C 7.108687400817871 22.88852500915527 10.24541282653809 18.23629951477051 14.2408504486084 14.2408504486084 C 18.23629951477051 10.24541282653809 22.88852500915527 7.108687400817871 28.06830024719238 4.917825222015381 C 33.43022537231445 2.649924993515015 39.12687683105469 1.5 45 1.5 C 50.87312316894531 1.5 56.56977462768555 2.649924993515015 61.93170166015625 4.917825222015381 C 67.11147308349609 7.108687400817871 71.76370239257812 10.24541282653809 75.75914764404297 14.2408504486084 C 79.75458526611328 18.23629951477051 82.89131164550781 22.88852500915527 85.08217620849609 28.06830024719238 C 87.35007476806641 33.43022537231445 88.5 39.12687683105469 88.5 45 C 88.5 50.87312316894531 87.35007476806641 56.56977462768555 85.08217620849609 61.93170166015625 C 82.89131164550781 67.11147308349609 79.75458526611328 71.76370239257812 75.75914764404297 75.75914764404297 C 71.76370239257812 79.75458526611328 67.11147308349609 82.89131164550781 61.93170166015625 85.08217620849609 C 56.56977462768555 87.35007476806641 50.87312316894531 88.5 45 88.5 Z" stroke="none"/>
          <path d="M 45 3 C 39.32871246337891 3 33.82865524291992 4.110054016113281 28.65262985229492 6.299339294433594 C 23.65165710449219 8.414573669433594 19.15968322753906 11.44334411621094 15.301513671875 15.301513671875 C 11.44334411621094 19.15968322753906 8.414573669433594 23.65165710449219 6.299339294433594 28.65262985229492 C 4.110054016113281 33.82865524291992 3 39.32871246337891 3 45 C 3 50.67128753662109 4.110054016113281 56.17134475708008 6.299339294433594 61.34737396240234 C 8.414573669433594 66.34834289550781 11.44334411621094 70.84031677246094 15.301513671875 74.698486328125 C 19.15968322753906 78.55665588378906 23.65165710449219 81.58542633056641 28.65262985229492 83.70066070556641 C 33.82865524291992 85.88994598388672 39.32871246337891 87 45 87 C 50.67128753662109 87 56.17134475708008 85.88994598388672 61.34737396240234 83.70066070556641 C 66.34834289550781 81.58542633056641 70.84031677246094 78.55665588378906 74.698486328125 74.698486328125 C 78.55665588378906 70.84031677246094 81.58542633056641 66.34834289550781 83.70066070556641 61.34737396240234 C 85.88994598388672 56.17134475708008 87 50.67128753662109 87 45 C 87 39.32871246337891 85.88994598388672 33.82865524291992 83.70066070556641 28.65262985229492 C 81.58542633056641 23.65165710449219 78.55665588378906 19.15968322753906 74.698486328125 15.301513671875 C 70.84031677246094 11.44334411621094 66.34834289550781 8.414573669433594 61.34737396240234 6.299339294433594 C 56.17134475708008 4.110054016113281 50.67128753662109 3 45 3 M 45 0 C 69.85281372070312 0 90 20.14718627929688 90 45 C 90 69.85281372070312 69.85281372070312 90 45 90 C 20.14718627929688 90 0 69.85281372070312 0 45 C 0 20.14718627929688 20.14718627929688 0 45 0 Z" stroke="none" fill="#453179"/>
        </g>
      </g>
    </g>
    <g id="nino" transform="translate(639.3 441.027)">
      <path id="Trazado_999028" data-name="Trazado 999028" d="M43.538,36.379A5.125,5.125,0,0,0,46,32a12.186,12.186,0,0,0-6.047-10.527l-.561-.328H24.608l-.562.327A12.186,12.186,0,0,0,18,32a5.121,5.121,0,0,0,2.462,4.378L21,41H43Z" fill="#efa0a0"/>
      <path id="Trazado_999029" data-name="Trazado 999029" d="M46,32a12.186,12.186,0,0,0-6.047-10.527l-.561-.327H27.608l-.561.327A12.185,12.185,0,0,0,21,32a5.124,5.124,0,0,0,2.461,4.378L24,41H43l.538-4.621A5.125,5.125,0,0,0,46,32Z" fill="#fcd2d2"/>
      <circle id="Elipse_11786" data-name="Elipse 11786" cx="11" cy="11" r="11" transform="translate(21 2)" fill="#f4b3b3"/>
      <path id="Trazado_999030" data-name="Trazado 999030" d="M32,2a10.94,10.94,0,0,0-6.706,2.294A10.987,10.987,0,0,0,40.706,19.706,10.987,10.987,0,0,0,32,2Z" fill="#fcd2d2"/>
      <path id="Trazado_999031" data-name="Trazado 999031" d="M19.193,43.8,16.45,41.967A3.257,3.257,0,0,1,18.257,36a6.624,6.624,0,0,1,4.682,1.939l2.233,2.233a2.828,2.828,0,0,1-2,4.828,7.17,7.17,0,0,1-3.979-1.2Z" fill="#efa0a0"/>
      <path id="Trazado_999032" data-name="Trazado 999032" d="M23,32H41v4H23Z" fill="#4b97f3"/>
      <path id="Trazado_999033" data-name="Trazado 999033" d="M27,34H41V32H25A2,2,0,0,0,27,34Z" fill="#a2c4ed"/>
      <path id="Trazado_999034" data-name="Trazado 999034" d="M23,29h2v3H23Z" fill="#f4b3b3"/>
      <path id="Trazado_999035" data-name="Trazado 999035" d="M39,29h2v3H39Z" fill="#f4b3b3"/>
      <path id="Trazado_999036" data-name="Trazado 999036" d="M24,36v6l1.97.576.687.55a8.554,8.554,0,0,0,10.686,0l.687-.55L40,42V36" fill="#114998"/>
      <path id="Trazado_999037" data-name="Trazado 999037" d="M36,43a13.117,13.117,0,0,0,1.644-.115l.386-.309L40,42V36H24.474A12.992,12.992,0,0,0,36,43Z" fill="#2a78e9"/>
      <path id="Trazado_999038" data-name="Trazado 999038" d="M31,14H29a1,1,0,0,0-2,0H25a3,3,0,0,1,6,0Z" fill="#efa0a0"/>
      <path id="Trazado_999039" data-name="Trazado 999039" d="M39,14H37a1,1,0,0,0-2,0H33a3,3,0,0,1,6,0Z" fill="#efa0a0"/>
      <path id="Trazado_999040" data-name="Trazado 999040" d="M33,6.5a.5.5,0,0,1-1,0V5H30V6.5a2.5,2.5,0,0,0,5,0,5.94,5.94,0,0,0-1-3.3l-.747-1.121A11.27,11.27,0,0,0,32,2a11.042,11.042,0,0,0-1.157.068l1.493,2.239A3.935,3.935,0,0,1,33,6.5Z" fill="#4c2606"/>
      <path id="Trazado_999041" data-name="Trazado 999041" d="M22.94,37.94A6.624,6.624,0,0,0,18.257,36a3.228,3.228,0,0,0-1.743.514,3.241,3.241,0,0,0,.936,4.453L20.193,42.8A7.17,7.17,0,0,0,24.172,44a2.8,2.8,0,0,0,1.428-.4,2.8,2.8,0,0,0-.428-3.428Z" fill="#f4b3b3"/>
      <path id="Trazado_999042" data-name="Trazado 999042" d="M44.807,43.8l2.743-1.828A3.26,3.26,0,0,0,45.743,36a6.624,6.624,0,0,0-4.682,1.939l-2.233,2.233a2.828,2.828,0,0,0,2,4.828,7.17,7.17,0,0,0,3.979-1.2Z" fill="#efa0a0"/>
      <path id="Trazado_999043" data-name="Trazado 999043" d="M41.06,37.94A6.624,6.624,0,0,1,45.743,36a3.228,3.228,0,0,1,1.743.514,3.241,3.241,0,0,1-.936,4.453L43.807,42.8A7.17,7.17,0,0,1,39.828,44a2.8,2.8,0,0,1-1.428-.4,2.8,2.8,0,0,1,.428-3.428Z" fill="#f4b3b3"/>
      <path id="Trazado_999044" data-name="Trazado 999044" d="M2,40h8V62H2Z" fill="#603813"/>
      <path id="Trazado_999045" data-name="Trazado 999045" d="M4,52a8,8,0,0,0,6,7.738V40H4Z" fill="#70492a"/>
      <path id="Trazado_999046" data-name="Trazado 999046" d="M10,44l4.046-2.529a16.248,16.248,0,0,1,15.015-1.157A20.85,20.85,0,0,0,37.279,42H42a3,3,0,0,1,3,3l12.231-4.7a4.425,4.425,0,0,1,1.593-.3,3.176,3.176,0,0,1,1.6,5.919L42.036,56.646a17.282,17.282,0,0,1-15.124,1.119l-5.439-2.176a8.241,8.241,0,0,0-8.886,1.824L10,60" fill="#e2b2aa"/>
      <path id="Trazado_999047" data-name="Trazado 999047" d="M60.967,40.845A3.156,3.156,0,0,0,58.824,40a4.425,4.425,0,0,0-1.593.3L45,45a2.985,2.985,0,0,0-.832-2.065c-.06-.063-.127-.119-.192-.177A2.98,2.98,0,0,0,42,42H37.279a20.851,20.851,0,0,1-8.213-1.685,16.256,16.256,0,0,0-15.02,1.156L10,44V57l1.587-1.587a8.241,8.241,0,0,1,8.886-1.824l5.437,2.175a17.282,17.282,0,0,0,15.126-1.118L59.424,43.919A3.176,3.176,0,0,0,61,41.176a3.285,3.285,0,0,0-.033-.331Z" fill="#ffe2d5"/>
      <path id="Trazado_999048" data-name="Trazado 999048" d="M58.824,39a5.4,5.4,0,0,0-1.952.363l-8.6,3.306a4.235,4.235,0,0,0-2.1-7.625A6.12,6.12,0,0,0,47,32a13.23,13.23,0,0,0-6.023-11.064,12,12,0,1,0-17.954,0A13.23,13.23,0,0,0,17,32a6.12,6.12,0,0,0,.82,3.044,4.228,4.228,0,0,0-3.7,5.225c-.2.116-.409.23-.608.354L11,42.2V40a1,1,0,0,0-1-1H2a1,1,0,0,0-1,1V62a1,1,0,0,0,1,1h8a1,1,0,0,0,1-1V60.414l2.293-2.293a7.24,7.24,0,0,1,7.809-1.6L26.539,58.7a18.478,18.478,0,0,0,16-1.183l18.389-10.73A4.176,4.176,0,0,0,58.824,39ZM48,39.257a2.252,2.252,0,0,1-1,1.878l-1.944,1.3A3.984,3.984,0,0,0,42,41H39.434c.034-.04.064-.084.1-.122l2.232-2.232A5.587,5.587,0,0,1,45.743,37,2.259,2.259,0,0,1,48,39.257ZM24.534,38.12l-.888-.888c-.082-.082-.171-.154-.256-.232H35V35H24V33H40v2H37v2h3.61c-.085.078-.174.15-.256.232l-2.232,2.232A3.815,3.815,0,0,0,37.2,41a19.726,19.726,0,0,1-7.739-1.6A17.028,17.028,0,0,0,24.534,38.12ZM31.482,3.026l.854,1.281A3.935,3.935,0,0,1,33,6.5a.5.5,0,0,1-1,0V5H30V6.5a2.5,2.5,0,0,0,5,0,5.937,5.937,0,0,0-1-3.3,10.048,10.048,0,1,1-2.521-.176ZM24.513,22.362a11.944,11.944,0,0,0,14.974,0A11.226,11.226,0,0,1,45,32a4.144,4.144,0,0,1-1.933,3.49,7.538,7.538,0,0,0-1.067.5V32a1,1,0,0,0-1-1V29H39v2H25V29H23v2a1,1,0,0,0-1,1v3.986a7.44,7.44,0,0,0-1.068-.5A4.146,4.146,0,0,1,19,32a11.224,11.224,0,0,1,5.513-9.638ZM16,39.257A2.259,2.259,0,0,1,18.257,37a5.573,5.573,0,0,1,3.267,1.064,17.474,17.474,0,0,0-5.513,1.284C16.01,39.317,16,39.288,16,39.257ZM9,61H3V41H9ZM59.92,45.055,41.532,55.782a16.448,16.448,0,0,1-14.25,1.053l-5.438-2.174a9.238,9.238,0,0,0-9.965,2.046L11,57.586V44.554l3.576-2.235a15.418,15.418,0,0,1,14.1-1.086A21.71,21.71,0,0,0,37.279,43H42a2,2,0,0,1,0,4H29v2H42a4,4,0,0,0,3.928-3.285L57.59,41.229A3.422,3.422,0,0,1,58.824,41a2.175,2.175,0,0,1,1.1,4.055Z"/>
      <path id="Trazado_999049" data-name="Trazado 999049" d="M28,13a1,1,0,0,1,1,1h2a3,3,0,1,0-6,0h2A1,1,0,0,1,28,13Z"/>
      <path id="Trazado_999050" data-name="Trazado 999050" d="M36,13a1,1,0,0,1,1,1h2a3,3,0,0,0-6,0h2A1,1,0,0,1,36,13Z"/>
    </g>
  </g>
</svg>
