<svg xmlns="http://www.w3.org/2000/svg" xmlns:xlink="http://www.w3.org/1999/xlink" width="610" height="429" viewBox="0 0 610 429">
  <defs>
    <clipPath id="clip-path">
      <rect id="Rectángulo_409907" data-name="Rectángulo 409907" width="610" height="429" transform="translate(810.228 3866)" fill="#fff" stroke="#707070" stroke-width="1" opacity="0.81"/>
    </clipPath>
    <filter id="Trazado_998193" x="34.688" y="8.032" width="499.084" height="462.968" filterUnits="userSpaceOnUse">
      <feOffset dy="3" input="SourceAlpha"/>
      <feGaussianBlur stdDeviation="3" result="blur"/>
      <feFlood flood-opacity="0.161"/>
      <feComposite operator="in" in2="blur"/>
      <feComposite in="SourceGraphic"/>
    </filter>
    <clipPath id="clip-path-2">
      <path id="Trazado_998187" data-name="Trazado 998187" d="M322.922,287.984H834.815a29.963,29.963,0,0,1,29.965,29.965V829.842a29.965,29.965,0,0,1-29.965,29.965H322.922a29.968,29.968,0,0,1-29.965-29.965V317.949A29.968,29.968,0,0,1,322.922,287.984Z" transform="translate(-292.957 -287.984)"/>
    </clipPath>
  </defs>
  <g id="Enmascarar_grupo_1098689" data-name="Enmascarar grupo 1098689" transform="translate(-810.228 -3866)" clip-path="url(#clip-path)">
    <g id="Grupo_1162572" data-name="Grupo 1162572" transform="translate(3047.228 168.813)">
      <g transform="matrix(1, 0, 0, 1, -2237, 3697.19)" filter="url(#Trazado_998193)">
        <path id="Trazado_998193-2" data-name="Trazado 998193" d="M986.51,335.862c3.358,23.142,12.114,37.579,15.01,44.407,16.6,39.111-33.942,123.3-98.991,161.413-126.157,73.921-326.083-14.21-336.177-91.532-1.734-13.267,3.721-14.008,5.783-37.091,7.013-78.315-52.143-109.354-48.338-162.675,4.807-67.5,106.028-107.956,116.013-111.812,74.6-28.833,155.006-9.723,203.454,26.063,17.021,12.569,10.91,13.032,38.673,36.148,60.8,50.628,99.875,56.563,105.717,89.327C990.408,305.548,982.755,310.035,986.51,335.862Z" transform="translate(-479.93 -110.53)" fill="#453179"/>
      </g>
      <g id="Grupo_1162467" data-name="Grupo 1162467" transform="translate(-2498.566 3264.104)">
        <g id="Grupo_1162463" data-name="Grupo 1162463" transform="translate(292.957 287.984)" clip-path="url(#clip-path-2)">
          <g id="Grupo_1162386" data-name="Grupo 1162386" transform="translate(34.812 116.835)">
            <g id="Grupo_1162383" data-name="Grupo 1162383" transform="translate(0 162.129)">
              <path id="Trazado_998102" data-name="Trazado 998102" d="M302.079,760.973l36.426-164.011s-27.927-82.469-29.748-101.287,26.714-89.243,35.819-103.207,34.751-31.385,34.751-31.385l5.923,42.311s-27.927,62.529-24.283,82.565,10.926,23.676,10.926,23.676l44.925,96.83,2.427,154.5H302.079Z" transform="translate(-302.079 -361.083)" fill="#ffa18a"/>
              <g id="Grupo_1162382" data-name="Grupo 1162382" transform="translate(21.852 20.218)">
                <path id="Trazado_998103" data-name="Trazado 998103" d="M307.8,463.352c5.312-22.34,10.724-45.36,20.566-66.223a111.088,111.088,0,0,1,28.057-30.748c-12.307,13.372-24.287,27.519-29.854,45.074-5.331,15.013-12.887,37.3-18.768,51.9Z" transform="translate(-307.805 -366.381)" fill="#0c0c0c"/>
              </g>
            </g>
            <g id="Grupo_1162385" data-name="Grupo 1162385" transform="translate(385.037 162.129)">
              <path id="Trazado_998104" data-name="Trazado 998104" d="M520.14,760.973,483.713,596.962s27.927-82.469,29.748-101.287-26.71-89.243-35.819-103.207-34.751-31.385-34.751-31.385l-5.923,42.311s27.927,62.529,24.283,82.565-10.926,23.676-10.926,23.676L405.4,606.464l-2.427,154.5H520.14Z" transform="translate(-402.973 -361.083)" fill="#ffa18a"/>
              <g id="Grupo_1162384" data-name="Grupo 1162384" transform="translate(46.688 20.218)">
                <path id="Trazado_998105" data-name="Trazado 998105" d="M463.83,463.352c-5.85-14.521-13.456-36.945-18.768-51.9-5.568-17.555-17.551-31.7-29.854-45.074a111.2,111.2,0,0,1,28.057,30.748c9.838,20.86,15.258,43.887,20.566,66.223Z" transform="translate(-415.207 -366.381)" fill="#0c0c0c"/>
              </g>
            </g>
            <circle id="Elipse_11713" data-name="Elipse 11713" cx="187.389" cy="187.389" r="187.389" transform="translate(19.813 360.462) rotate(-74.11)" fill="#bc486f"/>
            <circle id="Elipse_11714" data-name="Elipse 11714" cx="126.68" cy="126.68" r="126.68" transform="translate(94.85 318.894) rotate(-74.139)" fill="#8c3758"/>
            <path id="Trazado_998106" data-name="Trazado 998106" d="M323.3,474.111s-4.251-73.459-3.946-81.351.912-22.768,12.143-18.211,13.357,29.141,15.784,46.444,18.516,58.282,24.588,74.974,10.624,52.21-3.641,74.974l-42.5-52.817Z" transform="translate(-253.482 -163.426)" fill="#ffa18a"/>
            <path id="Trazado_998107" data-name="Trazado 998107" d="M455.51,474.111s4.251-73.459,3.946-81.351-.912-22.768-12.143-18.211-13.357,29.141-15.784,46.444-18.516,58.282-24.588,74.974-10.624,52.21,3.644,74.974l42.5-52.817Z" transform="translate(-23.121 -163.426)" fill="#ffa18a"/>
          </g>
          <g id="Grupo_1162462" data-name="Grupo 1162462" transform="translate(131.484 153.661)">
            <g id="Grupo_1162412" data-name="Grupo 1162412" transform="translate(0 85.104)">
              <g id="Grupo_1162393" data-name="Grupo 1162393" transform="translate(0 36.898)">
                <path id="Trazado_998108" data-name="Trazado 998108" d="M348.771,360.233S322.2,358.55,328.328,390.7a26.748,26.748,0,0,1,.431,4.782c.065,6.129.672,21.073,4.881,26.836,5.354,7.331,36.632,34.438,42.734,47.768s36.56,24.4,52.134,4.869l-14.624-42.441Z" transform="translate(-327.411 -360.218)" fill="#4b7724"/>
                <path id="Trazado_998109" data-name="Trazado 998109" d="M341.313,378.738s21.722,72.226,63.88,63.315a5.692,5.692,0,0,0,3.732-8.384C401.083,419.866,378.949,387.187,341.313,378.738Z" transform="translate(-288.259 -308.061)" fill="#bbc957"/>
                <g id="Grupo_1162392" data-name="Grupo 1162392" transform="translate(12.579 20.176)">
                  <g id="Grupo_1162387" data-name="Grupo 1162387" transform="translate(1.122)">
                    <path id="Trazado_998110" data-name="Trazado 998110" d="M331,365.505c15.99,18.585,30.95,39.5,46.635,58.343C359.863,406.381,345.243,385.9,331,365.505Z" transform="translate(-331.001 -365.505)" fill="#bbc957"/>
                  </g>
                  <g id="Grupo_1162388" data-name="Grupo 1162388" transform="translate(0 23.283)">
                    <path id="Trazado_998111" data-name="Trazado 998111" d="M330.707,371.606A168.941,168.941,0,0,1,362.3,387.714a168.814,168.814,0,0,1-31.595-16.108Z" transform="translate(-330.707 -371.606)" fill="#bbc957"/>
                  </g>
                  <g id="Grupo_1162389" data-name="Grupo 1162389" transform="translate(7.77 33.926)">
                    <path id="Trazado_998112" data-name="Trazado 998112" d="M332.743,382.966a33.274,33.274,0,0,1,13.1-8.571,33.354,33.354,0,0,1-13.1,8.571Z" transform="translate(-332.743 -374.395)" fill="#bbc957"/>
                  </g>
                  <g id="Grupo_1162390" data-name="Grupo 1162390" transform="translate(32.159 24.569)">
                    <path id="Trazado_998113" data-name="Trazado 998113" d="M339.547,371.943a42.2,42.2,0,0,1,1.244,17.6,42.14,42.14,0,0,1-1.244-17.6Z" transform="translate(-339.134 -371.943)" fill="#bbc957"/>
                  </g>
                  <g id="Grupo_1162391" data-name="Grupo 1162391" transform="translate(24.287 50.486)">
                    <path id="Trazado_998114" data-name="Trazado 998114" d="M337.071,381.916a36.922,36.922,0,0,1,16.188-3.164,36.963,36.963,0,0,1-16.188,3.164Z" transform="translate(-337.071 -378.734)" fill="#bbc957"/>
                  </g>
                </g>
              </g>
              <g id="Grupo_1162400" data-name="Grupo 1162400" transform="translate(53.242)">
                <path id="Trazado_998115" data-name="Trazado 998115" d="M341.362,364.489s8.266-25.306,35.865-7.724a26.828,26.828,0,0,0,4.282,2.168c5.671,2.328,19.329,8.423,23.126,14.464,4.831,7.686,18.44,46.772,28.572,57.377s9.148,42.994-14.761,50.237l-34.022-29.29Z" transform="translate(-341.362 -350.55)" fill="#4b7724"/>
                <path id="Trazado_998116" data-name="Trazado 998116" d="M356.259,368.767s59.068,46.9,35.194,82.771a5.693,5.693,0,0,1-9.171.366C372.356,439.509,350.183,406.861,356.259,368.767Z" transform="translate(-302.331 -299.244)" fill="#bbc957"/>
                <g id="Grupo_1162399" data-name="Grupo 1162399" transform="translate(21.569 14.279)">
                  <g id="Grupo_1162394" data-name="Grupo 1162394">
                    <path id="Trazado_998117" data-name="Trazado 998117" d="M347.014,354.291c13.674,20.772,27.3,41.933,36.953,64.907-11.708-21.543-25.6-43.17-36.953-64.907Z" transform="translate(-347.014 -354.291)" fill="#bbc957"/>
                  </g>
                  <g id="Grupo_1162395" data-name="Grupo 1162395" transform="translate(22.03 7.571)">
                    <path id="Trazado_998118" data-name="Trazado 998118" d="M352.8,356.275a168.8,168.8,0,0,1,3.278,35.316,169.021,169.021,0,0,1-3.278-35.316Z" transform="translate(-352.787 -356.275)" fill="#bbc957"/>
                  </g>
                  <g id="Grupo_1162396" data-name="Grupo 1162396" transform="translate(24.206 21.898)">
                    <path id="Trazado_998119" data-name="Trazado 998119" d="M366.168,360.029a33.317,33.317,0,0,1-12.811,9,33.347,33.347,0,0,1,12.811-9Z" transform="translate(-353.357 -360.029)" fill="#bbc957"/>
                  </g>
                  <g id="Grupo_1162397" data-name="Grupo 1162397" transform="translate(11.189 38.308)">
                    <path id="Trazado_998120" data-name="Trazado 998120" d="M349.946,364.329a42.182,42.182,0,0,1,15.891,7.663,42.1,42.1,0,0,1-15.891-7.663Z" transform="translate(-349.946 -364.329)" fill="#bbc957"/>
                  </g>
                  <g id="Grupo_1162398" data-name="Grupo 1162398" transform="translate(32.358 41.376)">
                    <path id="Trazado_998121" data-name="Trazado 998121" d="M364.423,365.133A36.922,36.922,0,0,1,355.493,379a36.877,36.877,0,0,1,8.93-13.868Z" transform="translate(-355.493 -365.133)" fill="#bbc957"/>
                  </g>
                </g>
              </g>
              <g id="Grupo_1162408" data-name="Grupo 1162408" transform="translate(17.456 2.24)">
                <path id="Trazado_998122" data-name="Trazado 998122" d="M338.84,363.19C330.3,375.6,324.094,397.35,356.3,421.857a17.3,17.3,0,0,1,4.789,5.7c2.488,4.694,8.239,13.765,19.463,23.451a28.367,28.367,0,0,1,7.266,9.834c3.08,6.793,10.537,17.654,27.134,19.493,24.458,2.71,12.567-38.754,2.11-49.936-9.171-9.808-20.737-29.431-22.043-45.169a33.16,33.16,0,0,0-6.152-16.807c-3.557-4.889-8.606-10.418-15.055-14.029C361.745,347.635,346.682,351.791,338.84,363.19Z" transform="translate(-331.985 -351.136)" fill="#609c30"/>
                <path id="Trazado_998123" data-name="Trazado 998123" d="M347.586,371.163s10.27,77.855,40.468,89.193a13.939,13.939,0,0,0,18.65-9.582C409.879,437.978,404.131,412.711,347.586,371.163Z" transform="translate(-288.048 -294.737)" fill="#bbc957"/>
                <g id="Grupo_1162407" data-name="Grupo 1162407" transform="translate(11.465 16.629)">
                  <g id="Grupo_1162401" data-name="Grupo 1162401" transform="translate(12.511)">
                    <path id="Trazado_998124" data-name="Trazado 998124" d="M338.4,355.494c-.309.775.16,1.6.382,2.355a141,141,0,0,0,8.06,15.307c9.987,17.124,20.7,33.755,32.286,49.871-13.235-14.849-24.084-31.721-33.522-49.188a125.9,125.9,0,0,1-6.3-13.536c-.466-1.534-1.381-3.194-.908-4.808Z" transform="translate(-338.267 -355.494)" fill="#bbc957"/>
                  </g>
                  <g id="Grupo_1162402" data-name="Grupo 1162402" transform="translate(0 18.326)">
                    <path id="Trazado_998125" data-name="Trazado 998125" d="M334.989,360.3a155.908,155.908,0,0,1,30.084,15.99,156.006,156.006,0,0,1-30.084-15.99Z" transform="translate(-334.989 -360.296)" fill="#bbc957"/>
                  </g>
                  <g id="Grupo_1162403" data-name="Grupo 1162403" transform="translate(35.071 9.445)">
                    <path id="Trazado_998126" data-name="Trazado 998126" d="M345.266,357.969a154.452,154.452,0,0,1-.294,33.9,154.236,154.236,0,0,1,.294-33.9Z" transform="translate(-344.179 -357.969)" fill="#bbc957"/>
                  </g>
                  <g id="Grupo_1162404" data-name="Grupo 1162404" transform="translate(35.983 22.283)">
                    <path id="Trazado_998127" data-name="Trazado 998127" d="M351.822,361.333a14.98,14.98,0,0,1-7.4,7.316,15.011,15.011,0,0,1,7.4-7.316Z" transform="translate(-344.418 -361.333)" fill="#bbc957"/>
                  </g>
                  <g id="Grupo_1162405" data-name="Grupo 1162405" transform="translate(26.618 54.469)">
                    <path id="Trazado_998128" data-name="Trazado 998128" d="M341.964,369.767a86.711,86.711,0,0,1,23.672,9.174,86.744,86.744,0,0,1-23.672-9.174Z" transform="translate(-341.964 -369.767)" fill="#bbc957"/>
                  </g>
                  <g id="Grupo_1162406" data-name="Grupo 1162406" transform="translate(47.7 43.196)">
                    <path id="Trazado_998129" data-name="Trazado 998129" d="M349.228,366.813a37.68,37.68,0,0,1-1.366,16.6,37.679,37.679,0,0,1,1.366-16.6Z" transform="translate(-347.488 -366.813)" fill="#bbc957"/>
                  </g>
                </g>
              </g>
              <g id="Grupo_1162411" data-name="Grupo 1162411" transform="translate(88.954 110.887)">
                <g id="Grupo_1162409" data-name="Grupo 1162409" transform="translate(0 17.372)">
                  <path id="Trazado_998130" data-name="Trazado 998130" d="M350.72,384.158c5.957,16.074,14.261,34,31.411,40.361-18.272-3.893-28-23.516-31.411-40.361Z" transform="translate(-350.72 -384.158)" fill="#0c0c0c"/>
                </g>
                <g id="Grupo_1162410" data-name="Grupo 1162410" transform="translate(25.523)">
                  <path id="Trazado_998131" data-name="Trazado 998131" d="M357.408,379.606c12.925,10.2,25.47,26.443,22.222,43.83.557-17.345-11.1-31.705-22.222-43.83Z" transform="translate(-357.408 -379.606)" fill="#0c0c0c"/>
                </g>
              </g>
            </g>
            <g id="Grupo_1162423" data-name="Grupo 1162423" transform="translate(88.543 37.977)">
              <path id="Trazado_998132" data-name="Trazado 998132" d="M373.756,377.635l14.693,9.991a.944.944,0,0,0,1.435-1.046l-5.034-17.062,6.728-3.316,10.563,14.857a.938.938,0,0,0,1.6-.107c1.168-2.278,2.984-9.056,2.068-28.9l10.682,1.874s-.034,41.83,5.522,48.474l-22.787,12.044s-.542-5.24-16.826-19.245-23.771-20.921-23.771-20.921Z" transform="translate(-328.027 -299.205)" fill="#bbc957"/>
              <path id="Trazado_998133" data-name="Trazado 998133" d="M357.414,372.69s-7.056-14.2,8.144-20.329c0,0,3.416-15.143,17.929-6.385,0,0,8.354-16.757,22.054-1.072,0,0,9.594-9.758,17.1,2.721l-25.493,30.782-31.061,3.473Z" transform="translate(-336.063 -338.2)" fill="#4b7724"/>
              <path id="Trazado_998134" data-name="Trazado 998134" d="M442.526,346.517s-10.735-15.624-23.791.061a8.482,8.482,0,0,0-1.981,6.827,6.638,6.638,0,0,0,3.011,4.6s-13.418,3.564-13.525,13.189c-7.335-6.354-17.211.6-17.211.6-6.137-14.109-18.081-5.232-18.081-5.232-24.466,4.984-13.223,22.287-13.223,22.287-9.854,5.942-2.2,12.1-2.2,12.1-11.449,8.224.695,14.933.695,14.933,10.67,16.41,24.054-2.79,24.054-2.79,17.253,15.7,22.836-6.083,22.836-6.083,8.235,7.839,13.38,3.244,16.005-1.03,3.366-.183,7.1-2.588,9.865-10.491,0,0,13.124,7.594,18.379-6.854,0,0,22.4-7.255,10.605-24.561C457.966,364.064,464,340.426,442.526,346.517Z" transform="translate(-350.612 -334.284)" fill="#609c30"/>
              <g id="Grupo_1162418" data-name="Grupo 1162418" transform="translate(10.146 28.236)">
                <g id="Grupo_1162413" data-name="Grupo 1162413" transform="translate(38.853 8.674)">
                  <path id="Trazado_998135" data-name="Trazado 998135" d="M370.078,347.872c-3.5,2.98-5.56,7.93-.8,10.727l.546.416-.553.408c-5.438,3.786-6.159,10.533-1.836,15.475.24.386.366.259-.053.6-2.816,2.195-3.77,5.965-.431,8.182-1.466-.885-2.843-2.374-2.668-4.236a7.621,7.621,0,0,1,2.553-4.6l-.053.6c-2.1-2.419-3.675-5.579-3.263-8.884.374-3.316,2.568-6.068,5.209-7.961l0,.824c-5.125-3.294-2.881-8.755,1.355-11.552Z" transform="translate(-363.452 -347.872)" fill="#4b7724"/>
                </g>
                <g id="Grupo_1162414" data-name="Grupo 1162414" transform="translate(55.022)">
                  <path id="Trazado_998136" data-name="Trazado 998136" d="M367.957,370.244c-1.366-5.1,2.679-8.2,7.537-7.858l-.431.736a12.892,12.892,0,0,1-1.607-4.224c-1.179-5.331,3.328-8.472,8.056-9.186l-.351.267a7.912,7.912,0,0,1,5.4-4.324c2.416-.37,4.526,1.141,6.125,2.748-1.671-1.382-3.82-2.58-6.014-2.118-2.191.443-3.755,2.412-4.736,4.328l-.24.065c-6.617,1.13-9.235,5.919-5.812,11.934l.427.775c-4.782-.63-9.132,1.335-8.358,6.858Z" transform="translate(-367.689 -345.599)" fill="#4b7724"/>
                </g>
                <g id="Grupo_1162415" data-name="Grupo 1162415" transform="translate(0 22.902)">
                  <path id="Trazado_998137" data-name="Trazado 998137" d="M353.443,375.878c-1.175-6.541,3.839-9.3,9.659-7.625l-.6.645c-1.977-5.385-.2-11.884,6.308-12.407l-.385.286c1.591-3.427,5.755-6.541,9.548-4.557a11.868,11.868,0,0,1,3.087,2.164c-1.9-1.469-4.343-2.683-6.743-1.992-2.385.668-4.034,2.885-5.1,5.034-5.908.511-7.43,6.129-5.77,11.143l.248.843-.843-.195c-5.419-1.695-9.865.435-9.411,6.659Z" transform="translate(-353.271 -351.6)" fill="#4b7724"/>
                </g>
                <g id="Grupo_1162416" data-name="Grupo 1162416" transform="translate(76.987 8.197)">
                  <path id="Trazado_998138" data-name="Trazado 998138" d="M373.5,359.634c-.5-4.576,2.557-8.876,7.556-7.243l-.691.4a7.571,7.571,0,0,1,3.091-4.515c1.671-1.046,3.717-.4,5.167.637-1.58-.695-3.454-.908-4.721.065a7.816,7.816,0,0,0-2.584,4.58c-4.8-1.565-7.156,1.546-7.82,6.072Z" transform="translate(-373.444 -347.747)" fill="#4b7724"/>
                </g>
                <g id="Grupo_1162417" data-name="Grupo 1162417" transform="translate(17.544 34.074)">
                  <path id="Trazado_998139" data-name="Trazado 998139" d="M357.868,363.221a5.972,5.972,0,0,1,3.229-3.816c1.7-.748,3.622-.088,5.1.84l-.8.282c1.557-5.129,6.709-8.331,11.048-3.9-4.572-3.114-8.346-.466-10.029,4.236l-.267.645c-2.969-2.492-6.473-1.71-8.278,1.717Z" transform="translate(-357.868 -354.528)" fill="#4b7724"/>
                </g>
              </g>
              <g id="Grupo_1162422" data-name="Grupo 1162422" transform="translate(60.158 74.53)">
                <g id="Grupo_1162419" data-name="Grupo 1162419" transform="translate(0 18.074)">
                  <path id="Trazado_998140" data-name="Trazado 998140" d="M366.376,362.466a58.279,58.279,0,0,1,14.612,15.372c-4.938-4.946-10.022-10.109-14.612-15.372Z" transform="translate(-366.376 -362.466)" fill="#0c0c0c"/>
                </g>
                <g id="Grupo_1162420" data-name="Grupo 1162420" transform="translate(6.877 7.613)">
                  <path id="Trazado_998141" data-name="Trazado 998141" d="M368.178,359.725a153.856,153.856,0,0,1,12.559,23.455,154.181,154.181,0,0,1-12.559-23.455Z" transform="translate(-368.178 -359.725)" fill="#0c0c0c"/>
                </g>
                <g id="Grupo_1162421" data-name="Grupo 1162421" transform="translate(21.892)">
                  <path id="Trazado_998142" data-name="Trazado 998142" d="M372.553,357.73c.695,9.365.748,19.165,2.561,28.382-3.335-8.991-3.377-18.933-2.561-28.382Z" transform="translate(-372.113 -357.73)" fill="#0c0c0c"/>
                </g>
              </g>
            </g>
            <g id="Grupo_1162434" data-name="Grupo 1162434" transform="translate(228.179 147.671)">
              <path id="Trazado_998143" data-name="Trazado 998143" d="M400.963,383.092l-1.145,11.464a.61.61,0,0,0,1.038.492l8.167-8.148L413,389.71l-5.2,10.621a.609.609,0,0,0,.557.882c1.66-.038,6.083-1.1,17.112-7.766l2.236,6.667s-23.848,12.93-25.912,18.15L387.873,409s2.816-1.931,5.759-15.544,4.564-20.02,4.564-20.02Z" transform="translate(-385.313 -348.648)" fill="#bbc957"/>
              <path id="Trazado_998144" data-name="Trazado 998144" d="M397.768,371.926s5.908-8.419,14.1-1.652c0,0,9.686-2.74,9.189,8.239,0,0,12.136-.427,7.438,12.235,0,0,8.533,2.446,3.744,10.59l-25.431-5-11.594-16.624Z" transform="translate(-364.625 -364.978)" fill="#4b7724"/>
              <path id="Trazado_998145" data-name="Trazado 998145" d="M454.868,407.212s5.579-10.953-7.4-13.54a5.513,5.513,0,0,0-4.5.984,4.285,4.285,0,0,0-1.687,3.141s-6.186-6.545-11.7-3.625c1.351-6.144-5.667-9.625-5.667-9.625,6.14-7.865-2.614-11.922-2.614-11.922-10.415-12.4-16.792-.637-16.792-.637-6.438-3.774-7.575,2.492-7.575,2.492-8.232-3.98-8.3,5.018-8.3,5.018-6.049,11.159,9.037,12.842,9.037,12.842-3.606,14.693,10.537,11.132,10.537,11.132-1.916,7.121,2.294,8.629,5.541,8.8,1.145,1.862,3.671,3.244,9.033,2.374,0,0-.263,9.827,9.594,8.354,0,0,11.067,10.518,17.28-1.557C449.651,421.443,464.988,417.562,454.868,407.212Z" transform="translate(-387.202 -366.944)" fill="#609c30"/>
              <g id="Grupo_1162429" data-name="Grupo 1162429" transform="translate(6.407 12.099)">
                <g id="Grupo_1162424" data-name="Grupo 1162424" transform="translate(14.597 14.297)">
                  <path id="Trazado_998146" data-name="Trazado 998146" d="M414.077,374.693c-3.213-1.16-6.3-.622-6.426,3.3a7.483,7.483,0,0,0-5.988-.588c-1.954.706-3.095,2.565-3.923,4.393a4.8,4.8,0,0,0-3.313-.317A2.888,2.888,0,0,0,392.706,384a3.065,3.065,0,0,1,1.588-2.832,4.948,4.948,0,0,1,3.412.03l-.359.153a6.967,6.967,0,0,1,10.2-4.106l-.469.252c.233-3.893,4.16-4.358,7-2.8Z" transform="translate(-392.706 -373.861)" fill="#4b7724"/>
                </g>
                <g id="Grupo_1162425" data-name="Grupo 1162425" transform="translate(29.9 24.221)">
                  <path id="Trazado_998147" data-name="Trazado 998147" d="M396.716,377.906a4.068,4.068,0,0,1,3.866-1.08,5.674,5.674,0,0,1,2.946,2.942l-.553-.019c2.335-4.19,6.835-4.4,9.636-.477l-.263-.118a5.15,5.15,0,0,1,4.137,1.74,4.827,4.827,0,0,1,.332,4.339,4.828,4.828,0,0,0-.656-4.083,4.919,4.919,0,0,0-3.938-1.359c-2.572-3.469-6.4-3.6-8.7.263l-.321.5c-.977-2.912-3.713-4.8-6.48-2.652Z" transform="translate(-396.716 -376.462)" fill="#4b7724"/>
                </g>
                <g id="Grupo_1162426" data-name="Grupo 1162426">
                  <path id="Trazado_998148" data-name="Trazado 998148" d="M388.881,371.345c3.248-2.679,6.541-.687,7.335,3.141l-.553-.137c2.381-2.782,6.793-3.767,9.022-.244l-.282-.13c2.446-.153,5.507,1.256,5.553,4.03a7.757,7.757,0,0,1-.279,2.431,5.092,5.092,0,0,0-.95-4.457,5.861,5.861,0,0,0-4.461-1.351c-1.981-3.21-5.93-2.29-8.121.16-.5.458-.366.6-.553-.137-.657-3.61-3.4-5.484-6.709-3.3Z" transform="translate(-388.881 -370.115)" fill="#4b7724"/>
                </g>
                <g id="Grupo_1162427" data-name="Grupo 1162427" transform="translate(39.235 35.673)">
                  <path id="Trazado_998149" data-name="Trazado 998149" d="M399.162,380.434c2.393-1.725,5.934-1.221,6.465,2.065l-.447-.267a4.912,4.912,0,0,1,3.53.362,3.034,3.034,0,0,1,1.236,3.141,3.082,3.082,0,0,0-1.5-2.668,5.066,5.066,0,0,0-3.408-.053c-.553-3.19-3.137-3.614-5.877-2.58Z" transform="translate(-399.162 -379.462)" fill="#4b7724"/>
                </g>
                <g id="Grupo_1162428" data-name="Grupo 1162428" transform="translate(7.892 9.648)">
                  <path id="Trazado_998150" data-name="Trazado 998150" d="M390.949,372.758a3.4,3.4,0,0,1,4.274,3.824l-.408-.37a6.179,6.179,0,0,1,4.564.79c1.378.981,1.469,2.832,1.08,4.3.385-3.591-2.4-4.9-5.518-4.4-.5.027-.473.2-.408-.37.382-2.256-1.382-3.828-3.583-3.767Z" transform="translate(-390.949 -372.643)" fill="#4b7724"/>
                </g>
              </g>
              <g id="Grupo_1162433" data-name="Grupo 1162433" transform="translate(7.804 47.053)">
                <g id="Grupo_1162430" data-name="Grupo 1162430">
                  <path id="Trazado_998151" data-name="Trazado 998151" d="M393.483,379.274a37.7,37.7,0,0,1-4.236,13.086c1.32-4.415,2.618-8.762,4.236-13.086Z" transform="translate(-389.247 -379.274)" fill="#0c0c0c"/>
                </g>
                <g id="Grupo_1162431" data-name="Grupo 1162431" transform="translate(2.851 0.683)">
                  <path id="Trazado_998152" data-name="Trazado 998152" d="M399.47,379.453a100.133,100.133,0,0,1-9.476,14.418,99.71,99.71,0,0,1,9.476-14.418Z" transform="translate(-389.994 -379.453)" fill="#0c0c0c"/>
                </g>
                <g id="Grupo_1162432" data-name="Grupo 1162432" transform="translate(6.068 7.129)">
                  <path id="Trazado_998153" data-name="Trazado 998153" d="M406.217,381.142c-4.591,2.95-11.246,6.759-15.379,10.247,4.091-4.686,9.743-7.785,15.379-10.247Z" transform="translate(-390.837 -381.142)" fill="#0c0c0c"/>
                </g>
              </g>
            </g>
            <g id="Grupo_1162444" data-name="Grupo 1162444" transform="translate(130.674)">
              <path id="Trazado_998154" data-name="Trazado 998154" d="M481.82,329.792,385.792,451.439l22.852.584L497.082,341.63Z" transform="translate(-293.669 -323.903)" fill="#4b7724"/>
              <path id="Trazado_998155" data-name="Trazado 998155" d="M439.4,328.249l-54.569,138.82,22.291-5.217,49.558-127.97Z" transform="translate(-296.384 -328.249)" fill="#609c30"/>
              <path id="Trazado_998156" data-name="Trazado 998156" d="M421.2,329.739l18.749,4.141L407.578,452.744l-28.263,28.862Z" transform="translate(-311.91 -324.053)" fill="#4b7724"/>
              <path id="Trazado_998157" data-name="Trazado 998157" d="M585.112,366.514,465.133,426.628a9.689,9.689,0,0,0-4.461,4.705l-25.244,57.412L392.2,587a15.042,15.042,0,0,1-8.724,8.228c-10.01,3.477-16.223-2.908-19.375-7.842a15.793,15.793,0,0,1-2.149-11.559c4.049-20,29.694-67.613,48.444-100.7,11.384-20.051,20.237-34.762,20.237-34.762,16.578-29.8,24.523-33.034,24.523-33.034L581.83,343.445Z" transform="translate(-361.652 -285.453)" fill="#609c30"/>
              <path id="Trazado_998158" data-name="Trazado 998158" d="M435.427,391.574,392.54,489.079l-.336.744a15.043,15.043,0,0,1-8.724,8.228c-10.01,3.477-16.223-2.908-19.375-7.842a15.792,15.792,0,0,1-2.148-11.559c.3-1.4.679-2.919,1.179-4.557,6.411-22.008,29.813-65.349,47.26-96.143C414.415,384.266,421.86,389.864,435.427,391.574Z" transform="translate(-361.652 -188.278)" fill="#bbc957"/>
              <path id="Trazado_998159" data-name="Trazado 998159" d="M392.54,418.129l-.336.744a15.043,15.043,0,0,1-8.724,8.228c-10.01,3.477-16.223-2.908-19.375-7.842a15.792,15.792,0,0,1-2.148-11.559c.3-1.4.679-2.919,1.179-4.557C370.684,409.757,380.53,415.771,392.54,418.129Z" transform="translate(-361.652 -117.329)" fill="#e7eda2"/>
              <g id="Grupo_1162443" data-name="Grupo 1162443" transform="translate(97.478 2.023)" opacity="0.5">
                <g id="Grupo_1162435" data-name="Grupo 1162435" transform="translate(0 106.218)">
                  <path id="Trazado_998160" data-name="Trazado 998160" d="M387.2,368.252a56.613,56.613,0,0,1,23.081-11.639A56.613,56.613,0,0,1,387.2,368.252Z" transform="translate(-387.195 -356.612)" fill="#0c0c0c"/>
                </g>
                <g id="Grupo_1162436" data-name="Grupo 1162436" transform="translate(67.158 62.583)">
                  <path id="Trazado_998161" data-name="Trazado 998161" d="M461.277,345.178a344.858,344.858,0,0,1-56.484,29.973,344.561,344.561,0,0,1,56.484-29.973Z" transform="translate(-404.793 -345.178)" fill="#0c0c0c"/>
                </g>
                <g id="Grupo_1162437" data-name="Grupo 1162437" transform="translate(96.822 70.734)">
                  <path id="Trazado_998162" data-name="Trazado 998162" d="M440.547,347.314a85.164,85.164,0,0,1-27.981,15.044,85.016,85.016,0,0,1,27.981-15.044Z" transform="translate(-412.566 -347.314)" fill="#0c0c0c"/>
                </g>
                <g id="Grupo_1162438" data-name="Grupo 1162438" transform="translate(65.22 11.727)">
                  <path id="Trazado_998163" data-name="Trazado 998163" d="M439.872,331.852a262.487,262.487,0,0,1-35.587,43.162,262.346,262.346,0,0,1,35.587-43.162Z" transform="translate(-404.285 -331.852)" fill="#0c0c0c"/>
                </g>
                <g id="Grupo_1162439" data-name="Grupo 1162439" transform="translate(51.004 59.637)">
                  <path id="Trazado_998164" data-name="Trazado 998164" d="M409.8,344.406a18.384,18.384,0,0,1-9.235,11.2,18.394,18.394,0,0,1,9.235-11.2Z" transform="translate(-400.56 -344.406)" fill="#0c0c0c"/>
                </g>
                <g id="Grupo_1162440" data-name="Grupo 1162440" transform="translate(36.14)">
                  <path id="Trazado_998165" data-name="Trazado 998165" d="M412.262,328.779a167.382,167.382,0,0,1-15.6,41.834,167.326,167.326,0,0,1,15.6-41.834Z" transform="translate(-396.665 -328.779)" fill="#0c0c0c"/>
                </g>
                <g id="Grupo_1162441" data-name="Grupo 1162441" transform="translate(11.563 5.484)">
                  <path id="Trazado_998166" data-name="Trazado 998166" d="M396.064,330.216a60.251,60.251,0,0,1-5.839,26.027,60.262,60.262,0,0,1,5.839-26.027Z" transform="translate(-390.225 -330.216)" fill="#0c0c0c"/>
                </g>
                <g id="Grupo_1162442" data-name="Grupo 1162442" transform="translate(4.713 28.74)">
                  <path id="Trazado_998167" data-name="Trazado 998167" d="M403.535,336.31a262.394,262.394,0,0,1-15.1,53.859,262.508,262.508,0,0,1,15.1-53.859Z" transform="translate(-388.43 -336.31)" fill="#0c0c0c"/>
                </g>
              </g>
            </g>
            <g id="Grupo_1162448" data-name="Grupo 1162448" transform="translate(161.291 159.181)">
              <path id="Trazado_998168" data-name="Trazado 998168" d="M392.42,422.356s-31.976-20.405-20.1-37.373a7.348,7.348,0,0,1,10.571-1.435s-.782-14.1,8.743-13.574,12.269,19.97,12.269,19.97,11.224-8.483,17.1,1.305S412.52,420.315,392.42,422.356Z" transform="translate(-369.675 -369.96)" fill="#bfb464"/>
              <g id="Grupo_1162445" data-name="Grupo 1162445" transform="translate(21.703 11.501)">
                <path id="Trazado_998169" data-name="Trazado 998169" d="M375.362,372.974c3.175,15.4,4.343,31.873,0,47.161,2.82-15.6,1.649-31.5,0-47.161Z" transform="translate(-375.362 -372.974)" fill="#2b0301"/>
              </g>
              <g id="Grupo_1162446" data-name="Grupo 1162446" transform="translate(11.086 21.855)">
                <path id="Trazado_998170" data-name="Trazado 998170" d="M372.58,375.687c2.755,5.659,6.808,10.9,12.834,13.227-6.617-.782-11.605-6.968-12.834-13.227Z" transform="translate(-372.58 -375.687)" fill="#2b0301"/>
              </g>
              <g id="Grupo_1162447" data-name="Grupo 1162447" transform="translate(23.844 27.774)">
                <path id="Trazado_998171" data-name="Trazado 998171" d="M395.706,377.238c-3.072,8.01-10.876,14.975-19.783,14.883,8.571-1.53,15.288-7.686,19.783-14.883Z" transform="translate(-375.923 -377.238)" fill="#2b0301"/>
              </g>
            </g>
            <g id="Grupo_1162452" data-name="Grupo 1162452" transform="translate(68.242 233.381)">
              <path id="Trazado_998172" data-name="Trazado 998172" d="M390.761,430.491s-34.766,15.177-42.231-4.144a7.35,7.35,0,0,1,4.7-9.579s-12.139-7.209-6.4-14.826,23.42.946,23.42.946-.786-14.048,10.613-13.467S400.267,412.666,390.761,430.491Z" transform="translate(-345.293 -389.403)" fill="#bfb464"/>
              <g id="Grupo_1162449" data-name="Grupo 1162449" transform="translate(10.931 19.16)">
                <path id="Trazado_998173" data-name="Trazado 998173" d="M348.157,394.424c14.555,5.949,28.885,14.162,39.155,26.286-11.384-11.04-25.229-18.925-39.155-26.286Z" transform="translate(-348.157 -394.424)" fill="#2b0301"/>
              </g>
              <g id="Grupo_1162450" data-name="Grupo 1162450" transform="translate(13.614 30.464)">
                <path id="Trazado_998174" data-name="Trazado 998174" d="M348.86,400.668c6.232.866,12.845.424,18.135-3.282-4.339,5.053-12.258,5.747-18.135,3.282Z" transform="translate(-348.86 -397.386)" fill="#2b0301"/>
              </g>
              <g id="Grupo_1162451" data-name="Grupo 1162451" transform="translate(36.664 10.024)">
                <path id="Trazado_998175" data-name="Trazado 998175" d="M354.9,392.03c4.938,7.014,6.369,17.379,1.328,24.722,3.507-7.968,2.141-16.975-1.328-24.722Z" transform="translate(-354.9 -392.03)" fill="#2b0301"/>
              </g>
            </g>
            <g id="Grupo_1162461" data-name="Grupo 1162461" transform="translate(141.378 225.567)">
              <path id="Trazado_998176" data-name="Trazado 998176" d="M461.844,387.356a50.232,50.232,0,1,1-97.387,24.676Z" transform="translate(-364.457 -387.356)" fill="#ff9339"/>
              <path id="Trazado_998177" data-name="Trazado 998177" d="M457.573,387.519A47.78,47.78,0,0,1,365.1,410.947Z" transform="translate(-362.643 -386.897)" fill="#ffd599"/>
              <path id="Trazado_998178" data-name="Trazado 998178" d="M383.822,392.055l-7.751,27.172c-.195.679-.431,1.351-.653,2.023-.4,1.206-.626,4.217,6.289,5.4,7.411,1.267,16.765.061,23.291-5.938a4.674,4.674,0,0,0,.225-6.713Z" transform="translate(-334.047 -374.122)" fill="#ff9339"/>
              <g id="Grupo_1162453" data-name="Grupo 1162453" transform="translate(12.378 6.378)">
                <path id="Trazado_998179" data-name="Trazado 998179" d="M378.54,398.556l20.825,19.1c.523.481,1.015.988,1.515,1.488.9.893,3.492,2.45,7.648-3.2,4.454-6.06,7.564-14.964,5.122-23.485a4.671,4.671,0,0,0-5.9-3.209Z" transform="translate(-337.174 -389.027)" fill="#ff9339"/>
                <path id="Trazado_998180" data-name="Trazado 998180" d="M401.724,391.88l-9.567,26.588c-.24.668-.439,1.347-.653,2.023-.382,1.21-1.954,3.79-8.258.717-6.759-3.3-13.647-9.735-15.444-18.417a4.672,4.672,0,0,1,3.736-5.583Z" transform="translate(-367.701 -380.993)" fill="#ff9339"/>
              </g>
              <g id="Grupo_1162460" data-name="Grupo 1162460" transform="translate(17.547 21.781)" opacity="0.5">
                <g id="Grupo_1162454" data-name="Grupo 1162454" transform="translate(30.008 14.287)">
                  <path id="Trazado_998181" data-name="Trazado 998181" d="M378.3,396.807a10.049,10.049,0,0,1-.863,8.285,10.082,10.082,0,0,1,.863-8.285Z" transform="translate(-376.918 -396.807)" fill="#fff"/>
                </g>
                <g id="Grupo_1162455" data-name="Grupo 1162455" transform="translate(29.155 24.602)">
                  <path id="Trazado_998182" data-name="Trazado 998182" d="M377.547,399.51a1.915,1.915,0,0,1,.08,3.236,1.915,1.915,0,0,1-.08-3.236Z" transform="translate(-376.695 -399.51)" fill="#fff"/>
                </g>
                <g id="Grupo_1162456" data-name="Grupo 1162456" transform="translate(52.111 4.941)">
                  <path id="Trazado_998183" data-name="Trazado 998183" d="M382.71,394.358a11.634,11.634,0,0,1,7.152,5.442,11.655,11.655,0,0,1-7.152-5.442Z" transform="translate(-382.71 -394.358)" fill="#fff"/>
                </g>
                <g id="Grupo_1162457" data-name="Grupo 1162457" transform="translate(47.44 1.603)">
                  <path id="Trazado_998184" data-name="Trazado 998184" d="M381.486,393.566a1.771,1.771,0,0,1,2.408,1.912,1.771,1.771,0,0,1-2.408-1.912Z" transform="translate(-381.486 -393.484)" fill="#fff"/>
                </g>
                <g id="Grupo_1162458" data-name="Grupo 1162458" transform="translate(0 2.347)">
                  <path id="Trazado_998185" data-name="Trazado 998185" d="M369.055,395.646a16.361,16.361,0,0,1,10.583-1.729,16.359,16.359,0,0,1-10.583,1.729Z" transform="translate(-369.055 -393.678)" fill="#fff"/>
                </g>
                <g id="Grupo_1162459" data-name="Grupo 1162459" transform="translate(13.449)">
                  <path id="Trazado_998186" data-name="Trazado 998186" d="M372.579,394.447a2.34,2.34,0,0,1,3.572-.9,2.34,2.34,0,0,1-3.572.9Z" transform="translate(-372.579 -393.063)" fill="#fff"/>
                </g>
              </g>
            </g>
          </g>
        </g>
        <g id="Grupo_1162466" data-name="Grupo 1162466" transform="translate(292.957 287.984)" clip-path="url(#clip-path-2)">
          <g id="Grupo_1162464" data-name="Grupo 1162464" transform="translate(33.52 211.191)">
            <path id="Trazado_998188" data-name="Trazado 998188" d="M393.858,338.553c2.267,8.43-15.441,20.516-39.548,27s-45.486,4.9-47.753-3.534,15.441-20.516,39.548-27S391.591,330.123,393.858,338.553Z" transform="translate(-306.362 -326.013)" fill="none" stroke="#bc486f" stroke-miterlimit="10" stroke-width="0.278"/>
            <path id="Trazado_998189" data-name="Trazado 998189" d="M389.885,335.987c3.08,8.808-12.964,23.627-35.838,33.1s-43.914,10.01-47,1.2,12.964-23.627,35.838-33.1S386.8,327.179,389.885,335.987Z" transform="translate(-305.491 -329.717)" fill="none" stroke="#bc486f" stroke-miterlimit="10" stroke-width="0.278"/>
          </g>
          <g id="Grupo_1162465" data-name="Grupo 1162465" transform="translate(483.274 259.178)">
            <path id="Trazado_998190" data-name="Trazado 998190" d="M475.674,387c-2.713,5.339-17.291,3.377-32.564-4.381S417.66,364.243,420.373,358.9s17.291-3.377,32.564,4.381S478.388,381.665,475.674,387Z" transform="translate(-418.629 -355.898)" fill="none" stroke="#bc486f" stroke-miterlimit="10" stroke-width="0.191"/>
            <path id="Trazado_998191" data-name="Trazado 998191" d="M477.936,381.347c-2.469,5.908-17.456,6.1-33.472.435s-27-15.047-24.523-20.955,17.456-6.1,33.472-.435S480.409,375.439,477.936,381.347Z" transform="translate(-419.593 -354.863)" fill="none" stroke="#bc486f" stroke-miterlimit="10" stroke-width="0.191"/>
          </g>
        </g>
      </g>
      <g id="Grupo_1162571" data-name="Grupo 1162571" transform="translate(-2214 3708.206)">
        <path id="Trazado_998300" data-name="Trazado 998300" d="M56.171,193.71l-11.822-4.893-3.727-10.657-3.732,11.2L25.072,193.71,35.8,197.916l4.824,11.344,3.727-10.435Z" transform="translate(490.028 -27.927)" fill="#568743"/>
        <path id="Trazado_998301" data-name="Trazado 998301" d="M350.114,86.2l-13.623-5.638L332.2,68.283l-4.3,12.909L314.279,86.2l12.358,4.845,5.56,13.072,4.294-12.024Z" transform="translate(-154.701 -75.283)" fill="#568743"/>
        <path id="Trazado_998302" data-name="Trazado 998302" d="M115.487,436.283l-15.974-6.612-5.037-14.4-5.044,15.137-15.966,5.874,14.491,5.681,6.519,15.329,5.037-14.1Z" transform="translate(310.903 -63.081)" fill="#568743"/>
        <g id="Grupo_1162567" data-name="Grupo 1162567" transform="translate(453.073 36.957)">
          <path id="Trazado_998303" data-name="Trazado 998303" d="M89.288,123.775a47.61,47.61,0,0,1-9.832,2.2,79.415,79.415,0,0,1-9.833.607,77.649,77.649,0,0,1-9.832-.6,47.112,47.112,0,0,1-9.832-2.209,47.175,47.175,0,0,1,9.832-2.209,77.837,77.837,0,0,1,9.832-.6,79.417,79.417,0,0,1,9.833.607A47.831,47.831,0,0,1,89.288,123.775Z" transform="translate(-49.957 -104.11)" fill="#e4aca5"/>
          <path id="Trazado_998304" data-name="Trazado 998304" d="M69.269,104.464a47.679,47.679,0,0,1,2.2,9.832,79.4,79.4,0,0,1,.607,9.832,77.835,77.835,0,0,1-.6,9.832,47.1,47.1,0,0,1-2.209,9.832,47.161,47.161,0,0,1-2.209-9.832,78.038,78.038,0,0,1-.6-9.832,79.4,79.4,0,0,1,.607-9.832A47.744,47.744,0,0,1,69.269,104.464Z" transform="translate(-49.604 -104.464)" fill="#e4aca5"/>
          <path id="Trazado_998305" data-name="Trazado 998305" d="M83.407,137.914a47.612,47.612,0,0,1-8.51-5.4,79.5,79.5,0,0,1-7.382-6.523,77.977,77.977,0,0,1-6.529-7.377A47.167,47.167,0,0,1,55.6,110.1a47.08,47.08,0,0,1,8.515,5.391,77.838,77.838,0,0,1,7.377,6.529,79.364,79.364,0,0,1,6.524,7.382A47.583,47.583,0,0,1,83.407,137.914Z" transform="translate(-49.836 -104.343)" fill="#e4aca5"/>
          <path id="Trazado_998306" data-name="Trazado 998306" d="M83.408,110.1a47.727,47.727,0,0,1-5.4,8.51,79.365,79.365,0,0,1-6.524,7.382,77.977,77.977,0,0,1-7.377,6.529,47.133,47.133,0,0,1-8.515,5.39,47.131,47.131,0,0,1,5.39-8.515,77.98,77.98,0,0,1,6.529-7.377A79.209,79.209,0,0,1,74.9,115.5,47.7,47.7,0,0,1,83.408,110.1Z" transform="translate(-49.837 -104.343)" fill="#e4aca5"/>
        </g>
        <g id="Grupo_1162568" data-name="Grupo 1162568" transform="translate(487.059 303.979)">
          <path id="Trazado_998307" data-name="Trazado 998307" d="M55.778,379.647a34,34,0,0,1-7.01,1.57,56.66,56.66,0,0,1-7.01.433,55.677,55.677,0,0,1-7.01-.427,33.621,33.621,0,0,1-7.01-1.575,33.619,33.619,0,0,1,7.01-1.575,55.483,55.483,0,0,1,7.01-.427,56.453,56.453,0,0,1,7.01.433A33.937,33.937,0,0,1,55.778,379.647Z" transform="translate(-27.737 -365.628)" fill="#e4aca5"/>
          <path id="Trazado_998308" data-name="Trazado 998308" d="M41.5,365.88a34,34,0,0,1,1.57,7.01,56.844,56.844,0,0,1,.433,7.01,55.663,55.663,0,0,1-.427,7.01,33.552,33.552,0,0,1-1.575,7.01,33.6,33.6,0,0,1-1.575-7.01,55.663,55.663,0,0,1-.427-7.01,56.45,56.45,0,0,1,.433-7.01A33.777,33.777,0,0,1,41.5,365.88Z" transform="translate(-27.483 -365.88)" fill="#e4aca5"/>
          <path id="Trazado_998309" data-name="Trazado 998309" d="M51.584,389.726a34.029,34.029,0,0,1-6.067-3.847,56.5,56.5,0,0,1-5.262-4.651,55.563,55.563,0,0,1-4.655-5.259,33.574,33.574,0,0,1-3.843-6.07,33.58,33.58,0,0,1,6.07,3.844,55.539,55.539,0,0,1,5.259,4.655,56.508,56.508,0,0,1,4.651,5.262A34.134,34.134,0,0,1,51.584,389.726Z" transform="translate(-27.65 -365.794)" fill="#e4aca5"/>
          <path id="Trazado_998310" data-name="Trazado 998310" d="M51.584,369.9a33.946,33.946,0,0,1-3.847,6.066,56.505,56.505,0,0,1-4.651,5.263,55.567,55.567,0,0,1-5.259,4.655,33.574,33.574,0,0,1-6.07,3.843,33.627,33.627,0,0,1,3.843-6.07,55.689,55.689,0,0,1,4.655-5.259,56.508,56.508,0,0,1,5.262-4.651A34.045,34.045,0,0,1,51.584,369.9Z" transform="translate(-27.65 -365.794)" fill="#e4aca5"/>
        </g>
        <g id="Grupo_1162569" data-name="Grupo 1162569" transform="translate(65.51 114.088)">
          <path id="Trazado_998311" data-name="Trazado 998311" d="M395.995,120.458a31.925,31.925,0,0,1-6.583,1.474,53.126,53.126,0,0,1-6.583.407,52.161,52.161,0,0,1-6.583-.4,31.561,31.561,0,0,1-6.583-1.479,31.6,31.6,0,0,1,6.583-1.479,52.147,52.147,0,0,1,6.583-.4,53.124,53.124,0,0,1,6.583.407A31.859,31.859,0,0,1,395.995,120.458Z" transform="translate(-369.662 -107.292)" fill="#e4aca5"/>
          <path id="Trazado_998312" data-name="Trazado 998312" d="M382.591,107.529a31.914,31.914,0,0,1,1.474,6.583,53.138,53.138,0,0,1,.406,6.583,52.132,52.132,0,0,1-.4,6.583,31.531,31.531,0,0,1-1.479,6.583,31.6,31.6,0,0,1-1.479-6.583,52.15,52.15,0,0,1-.4-6.583,53.114,53.114,0,0,1,.407-6.583A31.846,31.846,0,0,1,382.591,107.529Z" transform="translate(-369.425 -107.529)" fill="#e4aca5"/>
          <path id="Trazado_998313" data-name="Trazado 998313" d="M392.058,129.924a31.894,31.894,0,0,1-5.7-3.613,53.128,53.128,0,0,1-4.943-4.368A52.3,52.3,0,0,1,377.046,117a31.509,31.509,0,0,1-3.609-5.7,31.534,31.534,0,0,1,5.7,3.61,52.156,52.156,0,0,1,4.939,4.371,53.125,53.125,0,0,1,4.368,4.943A31.925,31.925,0,0,1,392.058,129.924Z" transform="translate(-369.581 -107.448)" fill="#e4aca5"/>
          <path id="Trazado_998314" data-name="Trazado 998314" d="M392.057,111.3a31.927,31.927,0,0,1-3.613,5.7,53.116,53.116,0,0,1-4.368,4.943,52.314,52.314,0,0,1-4.939,4.372,31.513,31.513,0,0,1-5.7,3.609,31.619,31.619,0,0,1,3.609-5.7,52.009,52.009,0,0,1,4.372-4.939,52.992,52.992,0,0,1,4.943-4.368A31.794,31.794,0,0,1,392.057,111.3Z" transform="translate(-369.58 -107.448)" fill="#e4aca5"/>
        </g>
        <path id="Trazado_998315" data-name="Trazado 998315" d="M496.372,361.028l13.844-5.728,4.365-12.479,4.371,13.117,13.836,5.09-12.559,4.923-5.649,13.284-4.365-12.219Z" transform="translate(-496.372 -62.396)" fill="#568743"/>
        <g id="Grupo_1162570" data-name="Grupo 1162570" transform="translate(33.469 346.444)">
          <path id="Trazado_998316" data-name="Trazado 998316" d="M473.06,420.593a32.425,32.425,0,0,0,6.689,1.5,54.069,54.069,0,0,0,6.69.413,53.078,53.078,0,0,0,6.689-.408,32.109,32.109,0,0,0,6.689-1.5,32.039,32.039,0,0,0-6.689-1.5,52.868,52.868,0,0,0-6.689-.408,54.068,54.068,0,0,0-6.69.413A32.444,32.444,0,0,0,473.06,420.593Z" transform="translate(-473.06 -407.213)" fill="#e4aca5"/>
          <path id="Trazado_998317" data-name="Trazado 998317" d="M486.2,407.454a32.419,32.419,0,0,0-1.5,6.689,54.06,54.06,0,0,0-.413,6.689,53.079,53.079,0,0,0,.408,6.689,31.986,31.986,0,0,0,1.5,6.689,32.046,32.046,0,0,0,1.5-6.689,53.068,53.068,0,0,0,.408-6.689,54.054,54.054,0,0,0-.413-6.689A32.5,32.5,0,0,0,486.2,407.454Z" transform="translate(-472.817 -407.454)" fill="#e4aca5"/>
          <path id="Trazado_998318" data-name="Trazado 998318" d="M476.9,430.212a32.452,32.452,0,0,0,5.79-3.671,54.156,54.156,0,0,0,5.022-4.438,53.035,53.035,0,0,0,4.442-5.018,32.07,32.07,0,0,0,3.668-5.794,32.072,32.072,0,0,0-5.794,3.668,52.91,52.91,0,0,0-5.018,4.442,53.859,53.859,0,0,0-4.438,5.022A32.293,32.293,0,0,0,476.9,430.212Z" transform="translate(-472.976 -407.372)" fill="#e4aca5"/>
          <path id="Trazado_998319" data-name="Trazado 998319" d="M476.9,411.291a32.445,32.445,0,0,0,3.671,5.79,54.006,54.006,0,0,0,4.438,5.022,53.165,53.165,0,0,0,5.018,4.442,32.046,32.046,0,0,0,5.794,3.667,32.031,32.031,0,0,0-3.668-5.793,52.9,52.9,0,0,0-4.442-5.018,54,54,0,0,0-5.022-4.438A32.3,32.3,0,0,0,476.9,411.291Z" transform="translate(-472.977 -407.372)" fill="#e4aca5"/>
        </g>
      </g>
    </g>
  </g>
</svg>
