<svg xmlns="http://www.w3.org/2000/svg" xmlns:xlink="http://www.w3.org/1999/xlink" width="108" height="108" viewBox="0 0 108 108">
  <defs>
    <filter id="Fondo" x="0" y="0" width="108" height="108" filterUnits="userSpaceOnUse">
      <feOffset dy="3" input="SourceAlpha"/>
      <feGaussianBlur stdDeviation="3" result="blur"/>
      <feFlood flood-opacity="0.161"/>
      <feComposite operator="in" in2="blur"/>
      <feComposite in="SourceGraphic"/>
    </filter>
  </defs>
  <g id="Grupo_1162579" data-name="Grupo 1162579" transform="translate(-618.228 -7615)">
    <g id="Grupo_1158108" data-name="Grupo 1158108" transform="translate(421.542 6429)">
      <g transform="matrix(1, 0, 0, 1, 196.69, 1186)" filter="url(#Fondo)">
        <g id="Fondo-2" data-name="Fondo" transform="translate(9 6)" fill="#ebe9f0">
          <path d="M 45 88.5 C 39.12687683105469 88.5 33.43022537231445 87.35007476806641 28.06830024719238 85.08217620849609 C 22.88852500915527 82.89131164550781 18.23629951477051 79.75458526611328 14.2408504486084 75.75914764404297 C 10.24541282653809 71.76370239257812 7.108687400817871 67.11147308349609 4.917825222015381 61.93170166015625 C 2.649924993515015 56.56977462768555 1.5 50.87312316894531 1.5 45 C 1.5 39.12687683105469 2.649924993515015 33.43022537231445 4.917825222015381 28.06830024719238 C 7.108687400817871 22.88852500915527 10.24541282653809 18.23629951477051 14.2408504486084 14.2408504486084 C 18.23629951477051 10.24541282653809 22.88852500915527 7.108687400817871 28.06830024719238 4.917825222015381 C 33.43022537231445 2.649924993515015 39.12687683105469 1.5 45 1.5 C 50.87312316894531 1.5 56.56977462768555 2.649924993515015 61.93170166015625 4.917825222015381 C 67.11147308349609 7.108687400817871 71.76370239257812 10.24541282653809 75.75914764404297 14.2408504486084 C 79.75458526611328 18.23629951477051 82.89131164550781 22.88852500915527 85.08217620849609 28.06830024719238 C 87.35007476806641 33.43022537231445 88.5 39.12687683105469 88.5 45 C 88.5 50.87312316894531 87.35007476806641 56.56977462768555 85.08217620849609 61.93170166015625 C 82.89131164550781 67.11147308349609 79.75458526611328 71.76370239257812 75.75914764404297 75.75914764404297 C 71.76370239257812 79.75458526611328 67.11147308349609 82.89131164550781 61.93170166015625 85.08217620849609 C 56.56977462768555 87.35007476806641 50.87312316894531 88.5 45 88.5 Z" stroke="none"/>
          <path d="M 45 3 C 39.32871246337891 3 33.82865524291992 4.110054016113281 28.65262985229492 6.299339294433594 C 23.65165710449219 8.414573669433594 19.15968322753906 11.44334411621094 15.301513671875 15.301513671875 C 11.44334411621094 19.15968322753906 8.414573669433594 23.65165710449219 6.299339294433594 28.65262985229492 C 4.110054016113281 33.82865524291992 3 39.32871246337891 3 45 C 3 50.67128753662109 4.110054016113281 56.17134475708008 6.299339294433594 61.34737396240234 C 8.414573669433594 66.34834289550781 11.44334411621094 70.84031677246094 15.301513671875 74.698486328125 C 19.15968322753906 78.55665588378906 23.65165710449219 81.58542633056641 28.65262985229492 83.70066070556641 C 33.82865524291992 85.88994598388672 39.32871246337891 87 45 87 C 50.67128753662109 87 56.17134475708008 85.88994598388672 61.34737396240234 83.70066070556641 C 66.34834289550781 81.58542633056641 70.84031677246094 78.55665588378906 74.698486328125 74.698486328125 C 78.55665588378906 70.84031677246094 81.58542633056641 66.34834289550781 83.70066070556641 61.34737396240234 C 85.88994598388672 56.17134475708008 87 50.67128753662109 87 45 C 87 39.32871246337891 85.88994598388672 33.82865524291992 83.70066070556641 28.65262985229492 C 81.58542633056641 23.65165710449219 78.55665588378906 19.15968322753906 74.698486328125 15.301513671875 C 70.84031677246094 11.44334411621094 66.34834289550781 8.414573669433594 61.34737396240234 6.299339294433594 C 56.17134475708008 4.110054016113281 50.67128753662109 3 45 3 M 45 0 C 69.85281372070312 0 90 20.14718627929688 90 45 C 90 69.85281372070312 69.85281372070312 90 45 90 C 20.14718627929688 90 0 69.85281372070312 0 45 C 0 20.14718627929688 20.14718627929688 0 45 0 Z" stroke="none" fill="#453179"/>
        </g>
      </g>
    </g>
    <g id="corazon" transform="translate(642.129 7637)">
      <g id="Grupo_1162575" data-name="Grupo 1162575" transform="translate(6.951 1.149)">
        <path id="Trazado_998394" data-name="Trazado 998394" d="M106.014,14.53A15.468,15.468,0,0,0,85.16,13.6,15.468,15.468,0,0,0,64.306,36.407L82.2,54.3a4.188,4.188,0,0,0,5.923,0l17.893-17.893a15.469,15.469,0,0,0,0-21.877Z" transform="translate(-59.775 -10.001)" fill="#ff7d99"/>
      </g>
      <g id="Grupo_1162576" data-name="Grupo 1162576" transform="translate(17.997 8.968)">
        <path id="Trazado_998395" data-name="Trazado 998395" d="M170.2,100.964a2.3,2.3,0,0,1-2.085-1.336l-3.858-8.381h-5.981a2.3,2.3,0,0,1,0-4.593h7.452a2.3,2.3,0,0,1,2.086,1.336l1.581,3.433,2.447-11.5a2.3,2.3,0,0,1,4.452-.162l2.838,9.777.961-1.711a2.3,2.3,0,0,1,2-1.172h13.613l-1.192,4.593H183.439l-2.984,5.314a2.3,2.3,0,0,1-2.592,1.1,2.347,2.347,0,0,1-1.631-1.632l-1.8-6.2-1.984,9.324a2.3,2.3,0,0,1-1.992,1.8A2.356,2.356,0,0,1,170.2,100.964Z" transform="translate(-155.98 -78.104)" fill="#fff"/>
      </g>
      <g id="Grupo_1162577" data-name="Grupo 1162577" transform="translate(1.233 13.854)">
        <path id="Trazado_998396" data-name="Trazado 998396" d="M25.016,209.126q-.057-.107-.118-.212A7.993,7.993,0,1,0,11.052,216.9q.056.1.114.192a9,9,0,0,1,1.243,6.335,13.231,13.231,0,1,0,17.523-10.058,9.076,9.076,0,0,1-4.916-4.244Z" transform="translate(-9.98 -195.244)" fill="#cdeb6d"/>
        <circle id="Elipse_11731" data-name="Elipse 11731" cx="6.868" cy="6.868" r="6.868" transform="translate(8.475 23.755)" fill="#ffe7ae"/>
        <path id="Trazado_998397" data-name="Trazado 998397" d="M31.008,120.658l-2.284,1.319a5.277,5.277,0,0,0-1.931,7.208l1.319,2.284L30.4,130.15a5.277,5.277,0,0,0,1.931-7.208Z" transform="translate(-24.235 -120.658)" fill="#6ae6a3"/>
      </g>
      <g id="Grupo_1162578" data-name="Grupo 1162578" transform="translate(0.099 0)">
        <path id="Trazado_998398" data-name="Trazado 998398" d="M11.126,315.072C11.081,315,11.168,315.145,11.126,315.072Z" transform="translate(-9.848 -278.876)"/>
        <path id="Trazado_998399" data-name="Trazado 998399" d="M149.258,235.939C149.3,236.02,149.215,235.858,149.258,235.939Z" transform="translate(-132.121 -208.828)"/>
        <path id="Trazado_998400" data-name="Trazado 998400" d="M54,4.866A16.618,16.618,0,0,0,32.336,3.283,16.614,16.614,0,0,0,6.071,13.646l-.924.533A6.425,6.425,0,0,0,2.8,22.955l.789,1.367A9.067,9.067,0,0,0,.414,29.091a9.366,9.366,0,0,0,.962,7.1,8.187,8.187,0,0,1,1.157,5.635A14.353,14.353,0,0,0,13.1,58.333a14.531,14.531,0,0,0,3.62.461,14.362,14.362,0,0,0,13.835-10.6c.057-.208.108-.417.155-.626a5.387,5.387,0,0,0,5.4-1.305l5.47-5.47a1.148,1.148,0,0,0-1.624-1.624l-5.47,5.47a3.063,3.063,0,0,1-3.448.6A14.388,14.388,0,0,0,21.576,30.9a8.167,8.167,0,0,1-4.34-3.789,9.5,9.5,0,0,0-7.194-4.688,6.433,6.433,0,0,0,.276-6.86L9,13.281a1.143,1.143,0,0,0-.4-.411,14.321,14.321,0,0,1,23-7.243,1.148,1.148,0,0,0,1.474,0,14.318,14.318,0,0,1,23.5,10.744H44.112a3.45,3.45,0,0,0-2.6,1.18l-2.1-7.246a3.445,3.445,0,0,0-6.677.243l-1.727,8.118-.134-.291a3.454,3.454,0,0,0-3.129-2H20.294a3.445,3.445,0,1,0,0,6.889H25.54l3.551,7.713a3.445,3.445,0,0,0,6.5-.723L36.621,25.4l.526,1.813a3.506,3.506,0,0,0,2.442,2.422,3.449,3.449,0,0,0,3.885-1.644l2.655-4.728h8.817a14.366,14.366,0,0,1-2.567,3.483l-5.115,5.116a1.148,1.148,0,1,0,1.624,1.624L54,28.367a16.618,16.618,0,0,0,0-23.5ZM9.2,24.677a7.038,7.038,0,0,1,6,3.511A10.49,10.49,0,0,0,20.8,33.06a12.083,12.083,0,1,1-16,9.186A10.4,10.4,0,0,0,3.349,35.02a7.016,7.016,0,0,1-.721-5.32,6.8,6.8,0,0,1,3.239-4.146l.027-.016a6.775,6.775,0,0,1,3.31-.86ZM6.819,22.352l-1.29.745-.745-1.29A4.128,4.128,0,0,1,6.3,16.168l1.29-.745.745,1.29a4.133,4.133,0,0,1-1.511,5.639ZM55.9,20.963H45.456a1.149,1.149,0,0,0-1,.586l-2.984,5.314a1.152,1.152,0,0,1-1.3.547,1.2,1.2,0,0,1-.821-.842l-1.8-6.2a1.148,1.148,0,0,0-2.226.081l-1.984,9.324a1.23,1.23,0,0,1-1.06.909,1.246,1.246,0,0,1-1.106-.668l-3.858-8.381a1.148,1.148,0,0,0-1.043-.668H20.294a1.148,1.148,0,0,1,0-2.3h7.452a1.151,1.151,0,0,1,1.043.668l1.581,3.433a1.148,1.148,0,0,0,2.166-.241l2.447-11.5a1.148,1.148,0,0,1,2.226-.081l2.838,9.777a1.148,1.148,0,0,0,2.1.242l.961-1.711a1.15,1.15,0,0,1,1-.586H56.427a14.236,14.236,0,0,1-.524,2.3Z" transform="translate(-0.099 0)"/>
        <path id="Trazado_998401" data-name="Trazado 998401" d="M81.831,333.55a8.015,8.015,0,1,0-6.956-4.007A7.967,7.967,0,0,0,81.831,333.55Zm-2.873-12.968a5.686,5.686,0,0,1,2.851-.769,5.752,5.752,0,0,1,1.49.2,5.72,5.72,0,1,1-4.34.571Z" transform="translate(-65.34 -281.058)"/>
        <circle id="Elipse_11732" data-name="Elipse 11732" cx="1.148" cy="1.148" r="1.148" transform="translate(43.174 35.175)"/>
      </g>
    </g>
  </g>
</svg>
