<svg xmlns="http://www.w3.org/2000/svg" xmlns:xlink="http://www.w3.org/1999/xlink" width="190" height="210" viewBox="0 0 190 210">
  <defs>
    <clipPath id="clip-path">
      <rect id="Rectángulo_409908" data-name="Rectángulo 409908" width="190" height="210" transform="translate(1230.228 7785)" fill="#fff" stroke="#707070" stroke-width="1"/>
    </clipPath>
    <filter id="Trazado_991558" x="-51.273" y="-31.392" width="272.349" height="268.633" filterUnits="userSpaceOnUse">
      <feOffset dy="3" input="SourceAlpha"/>
      <feGaussianBlur stdDeviation="3" result="blur"/>
      <feFlood flood-opacity="0.161"/>
      <feComposite operator="in" in2="blur"/>
      <feComposite in="SourceGraphic"/>
    </filter>
  </defs>
  <g id="Enmascarar_grupo_1098690" data-name="Enmascarar grupo 1098690" transform="translate(-1230.228 -7785)" clip-path="url(#clip-path)">
    <g id="Grupo_1162574" data-name="Grupo 1162574" transform="translate(1001.029 -113.255)">
      <g transform="matrix(1, 0, 0, 1, 229.2, 7898.25)" filter="url(#Trazado_991558)">
        <path id="Trazado_991558-2" data-name="Trazado 991558" d="M25.794,154.1c19.652,14.428,45.519,10.639,81.121,5.142,13.9-2.146,14.1-4.683,48.992-13.243,21.761-5.338,25.318-5.475,29.526-9.457,15.854-15,8.376-53.783-6.327-79.26C155.189,15.837,100.846-10,62.633,3.694c-2.6.929-30.6,14.04-32.375,30.515a22.782,22.782,0,0,1-2.73,10.048c-4.335,7.534-12.259,9.39-15.506,11.164C-4.5,64.451-7.518,129.641,25.794,154.1Z" transform="translate(-42.27 99.5) rotate(-40)" fill="#9ef0fd"/>
      </g>
      <g id="_03-grapefruit" data-name="03-grapefruit" transform="translate(231.562 7905.512)">
        <circle id="Elipse_11715" data-name="Elipse 11715" cx="58.048" cy="58.048" r="58.048" transform="translate(3.654 25.396)" fill="#fc6b00"/>
        <path id="Trazado_998320" data-name="Trazado 998320" d="M21,30.024C21,13.981,25.618,1,57.28,1,57.28,22.768,45.064,30.024,21,30.024Z" transform="translate(55.214 2.628)" fill="#527710"/>
        <path id="Trazado_998321" data-name="Trazado 998321" d="M33.155,44.538a3.628,3.628,0,0,1-3.628-3.628c0-.406.036-1.059.087-1.908.4-6.295,1.585-25.443-12.335-31a3.629,3.629,0,1,1,2.692-6.741c12.462,4.985,18.14,17.835,16.87,38.192-.04.649-.076,1.146-.076,1.451a3.628,3.628,0,0,1-3.61,3.635Z" transform="translate(39.432 2.626)" fill="#2f4700"/>
        <circle id="Elipse_11716" data-name="Elipse 11716" cx="58.048" cy="58.048" r="58.048" transform="translate(54.446 54.42)" fill="#fdf48b"/>
        <path id="Trazado_998322" data-name="Trazado 998322" d="M38.7,54.325,56.131,36.889A7.3,7.3,0,0,0,54.876,25.61a43.3,43.3,0,0,0-15.4-6.3A7.212,7.212,0,0,0,31,26.466v24.67A10.851,10.851,0,0,1,38.7,54.325Z" transform="translate(81.494 50.448)" fill="#f8695b"/>
        <path id="Trazado_998323" data-name="Trazado 998323" d="M50.73,51.139V26.468a7.212,7.212,0,0,0-8.475-7.162,43.3,43.3,0,0,0-15.4,6.3A7.3,7.3,0,0,0,25.6,36.888L43.035,54.324a10.851,10.851,0,0,1,7.695-3.185Z" transform="translate(61.764 50.445)" fill="#de3f2e"/>
        <path id="Trazado_998324" data-name="Trazado 998324" d="M54.325,43.035,36.889,25.6A7.3,7.3,0,0,0,25.61,26.854a43.3,43.3,0,0,0-6.3,15.4,7.212,7.212,0,0,0,7.158,8.475h24.67a10.851,10.851,0,0,1,3.189-7.695Z" transform="translate(50.474 61.738)" fill="#f8695b"/>
        <path id="Trazado_998325" data-name="Trazado 998325" d="M36.307,50.73h24.67a7.212,7.212,0,0,0,7.162-8.475,43.3,43.3,0,0,0-6.3-15.4A7.3,7.3,0,0,0,50.558,25.6L33.122,43.035a10.851,10.851,0,0,1,3.185,7.695Z" transform="translate(87.071 61.738)" fill="#de3f2e"/>
        <path id="Trazado_998326" data-name="Trazado 998326" d="M36.31,31A10.851,10.851,0,0,1,33.121,38.7L50.557,56.131a7.3,7.3,0,0,0,11.279-1.259,43.261,43.261,0,0,0,6.3-15.4A7.212,7.212,0,0,0,60.98,31Z" transform="translate(87.068 81.468)" fill="#f8695b"/>
        <path id="Trazado_998327" data-name="Trazado 998327" d="M31,36.307v24.67a7.212,7.212,0,0,0,8.475,7.162,43.3,43.3,0,0,0,15.4-6.3,7.3,7.3,0,0,0,1.255-11.279L38.7,33.122A10.851,10.851,0,0,1,31,36.307Z" transform="translate(81.494 87.044)" fill="#de3f2e"/>
        <path id="Trazado_998328" data-name="Trazado 998328" d="M51.139,31H26.468a7.212,7.212,0,0,0-7.162,8.475,43.26,43.26,0,0,0,6.3,15.4,7.3,7.3,0,0,0,11.279,1.259L54.324,38.7A10.851,10.851,0,0,1,51.139,31Z" transform="translate(50.471 81.468)" fill="#de3f2e"/>
        <path id="Trazado_998329" data-name="Trazado 998329" d="M43.035,33.121,25.6,50.557a7.3,7.3,0,0,0,1.255,11.279,43.3,43.3,0,0,0,15.4,6.3A7.212,7.212,0,0,0,50.73,60.98V36.31a10.851,10.851,0,0,1-7.695-3.189Z" transform="translate(61.764 87.042)" fill="#f8695b"/>
        <circle id="Elipse_11717" data-name="Elipse 11717" cx="10.884" cy="10.884" r="10.884" transform="translate(101.61 101.584)" fill="#f84634"/>
        <circle id="Elipse_11718" data-name="Elipse 11718" cx="58.048" cy="58.048" r="58.048" transform="translate(3.654 25.396)" fill="#fc6b00"/>
        <path id="Trazado_998330" data-name="Trazado 998330" d="M15.53,49.292A57.819,57.819,0,0,1,31.979,8.854a58.03,58.03,0,1,0,68.685,91.759A58.019,58.019,0,0,1,15.53,49.292Z" transform="translate(2.637 23.268)" fill="#de3f2e"/>
        <path id="Trazado_998331" data-name="Trazado 998331" d="M21,30.024C21,13.981,25.618,1,57.28,1,57.28,22.768,45.064,30.024,21,30.024Z" transform="translate(55.214 2.628)" fill="#527710"/>
        <ellipse id="Elipse_11719" data-name="Elipse 11719" cx="19.606" cy="6.051" rx="19.606" ry="6.051" transform="translate(43.552 64.003) rotate(-45)" fill="#de3f2e"/>
        <path id="Trazado_998332" data-name="Trazado 998332" d="M33.155,44.538a3.628,3.628,0,0,1-3.628-3.628c0-.406.036-1.059.087-1.908.4-6.295,1.585-25.443-12.335-31a3.629,3.629,0,1,1,2.692-6.741c12.462,4.985,18.14,17.835,16.87,38.192-.04.649-.076,1.146-.076,1.451a3.628,3.628,0,0,1-3.61,3.635Z" transform="translate(39.432 2.626)" fill="#2f4700"/>
        <path id="Trazado_998333" data-name="Trazado 998333" d="M19.419,1.246A3.588,3.588,0,0,0,15.211,2.5C27.43,7.73,35.851,21.244,32.662,39.446a7.256,7.256,0,0,0-.076,1.451,3.574,3.574,0,0,1-1.814,3.073,3.545,3.545,0,0,0,1.814.555A3.628,3.628,0,0,0,36.213,40.9c0-.312.036-.809.076-1.451,1.266-20.364-4.408-33.214-16.87-38.2Z" transform="translate(40.001 2.639)" fill="#3f7000"/>
        <path id="Trazado_998334" data-name="Trazado 998334" d="M35.95,104.689A57.957,57.957,0,0,1,85.632,17.675c-.225-.388-.464-.762-.7-1.143A57.975,57.975,0,0,0,18.507,102.2,57.94,57.94,0,0,0,35.4,104.718c.189,0,.363-.025.555-.029Z" transform="translate(26.307 36.774)" fill="#de3f2e"/>
        <path id="Trazado_998335" data-name="Trazado 998335" d="M21,30.024,57.28,1C25.618,1,21,13.981,21,30.024Z" transform="translate(55.214 2.628)" fill="#589e00"/>
        <circle id="Elipse_11720" data-name="Elipse 11720" cx="58.048" cy="58.048" r="58.048" transform="translate(54.446 54.42)" fill="#fc6b00"/>
        <circle id="Elipse_11721" data-name="Elipse 11721" cx="54.42" cy="54.42" r="54.42" transform="translate(58.074 58.048)" fill="#ff9c26"/>
        <circle id="Elipse_11722" data-name="Elipse 11722" cx="50.792" cy="50.792" r="50.792" transform="translate(61.702 61.676)" fill="#fdf48b"/>
        <path id="Trazado_998336" data-name="Trazado 998336" d="M38.7,54.325,56.131,36.889A7.3,7.3,0,0,0,54.876,25.61a43.3,43.3,0,0,0-15.4-6.3A7.212,7.212,0,0,0,31,26.466v24.67A10.851,10.851,0,0,1,38.7,54.325Z" transform="translate(81.494 50.448)" fill="#f8695b"/>
        <path id="Trazado_998337" data-name="Trazado 998337" d="M50.73,51.139V26.468a7.212,7.212,0,0,0-8.475-7.162,43.3,43.3,0,0,0-15.4,6.3A7.3,7.3,0,0,0,25.6,36.888L43.035,54.324a10.851,10.851,0,0,1,7.695-3.185Z" transform="translate(61.764 50.445)" fill="#de3f2e"/>
        <path id="Trazado_998338" data-name="Trazado 998338" d="M54.325,43.035,36.889,25.6A7.3,7.3,0,0,0,25.61,26.854a43.3,43.3,0,0,0-6.3,15.4,7.212,7.212,0,0,0,7.158,8.475h24.67a10.851,10.851,0,0,1,3.189-7.695Z" transform="translate(50.474 61.738)" fill="#f8695b"/>
        <path id="Trazado_998339" data-name="Trazado 998339" d="M36.307,50.73h24.67a7.212,7.212,0,0,0,7.162-8.475,43.3,43.3,0,0,0-6.3-15.4A7.3,7.3,0,0,0,50.558,25.6L33.122,43.035a10.851,10.851,0,0,1,3.185,7.695Z" transform="translate(87.071 61.738)" fill="#de3f2e"/>
        <path id="Trazado_998340" data-name="Trazado 998340" d="M36.31,31A10.851,10.851,0,0,1,33.121,38.7L50.557,56.131a7.3,7.3,0,0,0,11.279-1.259,43.261,43.261,0,0,0,6.3-15.4A7.212,7.212,0,0,0,60.98,31Z" transform="translate(87.068 81.468)" fill="#f8695b"/>
        <path id="Trazado_998341" data-name="Trazado 998341" d="M31,36.307v24.67a7.212,7.212,0,0,0,8.475,7.162,43.3,43.3,0,0,0,15.4-6.3,7.3,7.3,0,0,0,1.255-11.279L38.7,33.122A10.851,10.851,0,0,1,31,36.307Z" transform="translate(81.494 87.044)" fill="#de3f2e"/>
        <path id="Trazado_998342" data-name="Trazado 998342" d="M51.139,31H26.468a7.212,7.212,0,0,0-7.162,8.475,43.26,43.26,0,0,0,6.3,15.4,7.3,7.3,0,0,0,11.279,1.259L54.324,38.7A10.851,10.851,0,0,1,51.139,31Z" transform="translate(50.471 81.468)" fill="#de3f2e"/>
        <path id="Trazado_998343" data-name="Trazado 998343" d="M43.035,33.121,25.6,50.557a7.3,7.3,0,0,0,1.255,11.279,43.3,43.3,0,0,0,15.4,6.3A7.212,7.212,0,0,0,50.73,60.98V36.31a10.851,10.851,0,0,1-7.695-3.189Z" transform="translate(61.764 87.042)" fill="#f8695b"/>
        <circle id="Elipse_11723" data-name="Elipse 11723" cx="10.884" cy="10.884" r="10.884" transform="translate(101.61 101.584)" fill="#f84634"/>
        <circle id="Elipse_11724" data-name="Elipse 11724" cx="7.256" cy="7.256" r="7.256" transform="translate(105.238 105.212)" fill="#fdf1c1"/>
        <path id="Trazado_998344" data-name="Trazado 998344" d="M17.542,23.092c.207-.327.388-.675.606-1C17.93,22.417,17.752,22.765,17.542,23.092Z" transform="translate(46.127 58.063)" fill="#fc6b00"/>
        <path id="Trazado_998345" data-name="Trazado 998345" d="M18.509,21.4c.138-.171.258-.363.4-.53C18.767,21.04,18.647,21.228,18.509,21.4Z" transform="translate(48.668 54.844)" fill="#fc6b00"/>
        <path id="Trazado_998346" data-name="Trazado 998346" d="M19.6,19.888c.047-.047.087-.1.134-.149C19.691,19.786,19.651,19.841,19.6,19.888Z" transform="translate(51.535 51.874)" fill="#fc6b00"/>
        <path id="Trazado_998347" data-name="Trazado 998347" d="M27.788,18.969c-.04.649-.076,1.146-.076,1.451a3.563,3.563,0,0,1-.813,2.195,41.769,41.769,0,0,1-8.453,11.94A58.012,58.012,0,0,1,62.74,30.2l.21.363A58.226,58.226,0,0,0,39.76,8.8a83.353,83.353,0,0,1-11.972.784,78.334,78.334,0,0,1,0,9.389Z" transform="translate(48.502 23.116)" fill="#ff9202"/>
        <path id="Trazado_998348" data-name="Trazado 998348" d="M21.568,7.669l-.7-.178c.236,1.527.363,3.16.493,4.825.011-1.582.076-3.135.207-4.647Z" transform="translate(54.867 19.686)" fill="#ff9202"/>
        <path id="Trazado_998349" data-name="Trazado 998349" d="M28.75,31.744a47.229,47.229,0,0,1,11.642-8.816,56.118,56.118,0,0,0-.831-15.535A57.192,57.192,0,0,0,10.9,11.384,136.9,136.9,0,0,0,21.145,41.213,52.244,52.244,0,0,1,28.75,31.744Z" transform="translate(28.672 18.395)" fill="#ff9202"/>
        <path id="Trazado_998350" data-name="Trazado 998350" d="M25.8,26.146l-4.789,3.831v.047a83.354,83.354,0,0,0,11.972-.784c16.1-2.376,24.25-10.463,24.25-28.24Z" transform="translate(55.256 2.628)" fill="#527710"/>
        <path id="Trazado_998351" data-name="Trazado 998351" d="M15.465,1.485a3.628,3.628,0,0,1,.849-.424,3.628,3.628,0,0,0-.849.424Z" transform="translate(40.668 2.788)" fill="#2f4700"/>
        <path id="Trazado_998352" data-name="Trazado 998352" d="M15.211,1.981a3.7,3.7,0,0,1,.8-.78,3.392,3.392,0,0,0-.8.78Z" transform="translate(40.001 3.156)" fill="#2f4700"/>
        <path id="Trazado_998353" data-name="Trazado 998353" d="M15.839,1.094a3.541,3.541,0,0,1,.649-.087A3.541,3.541,0,0,0,15.839,1.094Z" transform="translate(41.651 2.646)" fill="#2f4700"/>
        <path id="Trazado_998354" data-name="Trazado 998354" d="M20.226,13.181a4.778,4.778,0,0,1-.726-.334,3.494,3.494,0,0,0,.726.334Z" transform="translate(51.272 33.762)" fill="#2f4700"/>
        <path id="Trazado_998355" data-name="Trazado 998355" d="M33.022,22.712a29.75,29.75,0,0,0-17.255-21.3,3.45,3.45,0,0,0-.508.769A3.628,3.628,0,0,0,17.284,6.9a19.773,19.773,0,0,1,11.5,15.165A56.118,56.118,0,0,1,29.619,37.6v.3c-.051.849-.087,1.5-.087,1.908a3.574,3.574,0,0,0,1.814,3.073,3.574,3.574,0,0,0,1.8-3.073,7.256,7.256,0,0,1,.076-1.451c.123-.726.2-1.4.287-2.1A39.074,39.074,0,0,0,33.022,22.712Z" transform="translate(39.444 3.721)" fill="#3f7000"/>
        <path id="Trazado_998356" data-name="Trazado 998356" d="M16.018,1.007a3.581,3.581,0,0,1,1.281.232A3.443,3.443,0,0,0,16.018,1.007Z" transform="translate(42.122 2.646)" fill="#3f7000"/>
        <path id="Trazado_998357" data-name="Trazado 998357" d="M15.7,1.14a3.947,3.947,0,0,1,.508-.109,3.947,3.947,0,0,0-.508.109Z" transform="translate(41.286 2.709)" fill="#3f7000"/>
        <path id="Trazado_998358" data-name="Trazado 998358" d="M15.431,1.26l.123-.083a1.23,1.23,0,0,0-.123.083Z" transform="translate(40.579 3.093)" fill="#3f7000"/>
        <path id="Trazado_998359" data-name="Trazado 998359" d="M20.788,13.16a3.57,3.57,0,0,1-1.088-.221A3.058,3.058,0,0,0,20.788,13.16Z" transform="translate(51.798 34.004)" fill="#3f7000"/>
        <path id="Trazado_998360" data-name="Trazado 998360" transform="translate(0.026)" fill="#3f7000"/>
        <path id="Trazado_998361" data-name="Trazado 998361" d="M21,9.034h.062V8.987Z" transform="translate(55.214 23.618)" fill="#3f7000"/>
        <path id="Trazado_998362" data-name="Trazado 998362" d="M36.294,30.006h-.062v-.649c-.116-1.665-.258-3.3-.493-4.825C33.924,12.711,28.482,4.867,19.412,1.239a3.581,3.581,0,0,0-1.281-.232,3.541,3.541,0,0,0-.649.087,3.947,3.947,0,0,0-.508.109,3.628,3.628,0,0,0-.849.424L16,1.711a3.7,3.7,0,0,0-.8.78,29.75,29.75,0,0,1,17.255,21.3,39.074,39.074,0,0,1,.508,13.547c-.087.7-.163,1.386-.287,2.1A7.256,7.256,0,0,0,32.6,40.89a3.574,3.574,0,0,1-1.814,3.073,4.778,4.778,0,0,0,.726.334,3.672,3.672,0,0,0,4.716-3.407c0-.312.036-.809.076-1.451a78.338,78.338,0,0,0-.014-9.433Z" transform="translate(39.982 2.646)" fill="#589e00"/>
        <path id="Trazado_998363" data-name="Trazado 998363" d="M31.2,15.586c-.156-.272-.323-.533-.486-.8C30.873,15.053,31.043,15.314,31.2,15.586Z" transform="translate(80.74 38.863)" fill="#de3f2e"/>
        <path id="Trazado_998364" data-name="Trazado 998364" d="M75.384,23.718l-.21-.363a58.012,58.012,0,0,0-44.294,4.354,41.769,41.769,0,0,0,8.453-11.94,3.566,3.566,0,0,1-2.815,1.462,3.058,3.058,0,0,1-1.088-.221,3.494,3.494,0,0,1-.726-.334A3.574,3.574,0,0,1,32.889,13.6c0-.406.036-1.059.087-1.908v-.3a47.229,47.229,0,0,0-11.642,8.816,52.243,52.243,0,0,0-7.619,9.48c1.255,2.616,2.616,5.174,4.027,7.695l.2.341a138.33,138.33,0,0,0,9.193,14.225c.149-.243.287-.49.443-.726.207-.327.388-.675.606-1,.907-1.353,1.89-2.645,2.9-3.915.138-.171.258-.363.4-.53,1.125-1.371,2.318-2.688,3.563-3.951.047-.047.087-.1.134-.149A57.841,57.841,0,0,1,75.844,24.516c-.145-.272-.3-.533-.461-.8Z" transform="translate(36.069 29.933)" fill="#f84634"/>
        <path id="Trazado_998365" data-name="Trazado 998365" d="M21.211,24.727c-.131,1.513-.2,3.066-.207,4.647,0,.2.033.4.044.6l4.789-3.831L57.269,1C29.181,1,22.39,11.224,21.211,24.727Z" transform="translate(55.225 2.628)" fill="#589e00"/>
        <path id="Trazado_998366" data-name="Trazado 998366" d="M21,8.821V9.47l.058-.047C21.047,9.22,21.025,9.024,21,8.821Z" transform="translate(55.214 23.182)" fill="#589e00"/>
        <path id="Trazado_998367" data-name="Trazado 998367" d="M66.688,15c-.189,0-.363.025-.555.029A57.892,57.892,0,0,0,25.467,32.193c-.047.047-.087.1-.134.149-1.244,1.263-2.438,2.58-3.563,3.951-.141.171-.261.363-.4.53-1.012,1.27-2,2.561-2.9,3.915-.218.323-.4.671-.606,1-.156.236-.29.486-.443.726.773,1.041,1.575,2.057,2.369,3.077a54.351,54.351,0,0,1,46.9-26.909c.464,0,.914.058,1.379.069a54.315,54.315,0,0,1,47.048,79.09c1.284.123,2.583.207,3.878.294A57.943,57.943,0,0,0,66.688,15Z" transform="translate(45.806 39.42)" fill="#ff9202"/>
        <path id="Trazado_998368" data-name="Trazado 998368" d="M17.863,22.369c-.156.236-.294.483-.443.726C17.572,22.844,17.71,22.6,17.863,22.369Z" transform="translate(45.806 58.786)" fill="#fc6b00"/>
        <path id="Trazado_998369" data-name="Trazado 998369" d="M18.619,23.731c1.125-1.371,2.318-2.688,3.563-3.951C20.937,21.043,19.744,22.36,18.619,23.731Z" transform="translate(48.957 51.982)" fill="#fc6b00"/>
        <path id="Trazado_998370" data-name="Trazado 998370" d="M17.709,24.93c.907-1.353,1.89-2.645,2.9-3.915C19.6,22.285,18.616,23.576,17.709,24.93Z" transform="translate(46.566 55.227)" fill="#fc6b00"/>
        <path id="Trazado_998371" data-name="Trazado 998371" d="M60.3,15.008A57.841,57.841,0,0,0,19.638,32.172,57.892,57.892,0,0,1,60.3,15.008Z" transform="translate(51.635 39.441)" fill="#fc6b00"/>
        <path id="Trazado_998372" data-name="Trazado 998372" d="M66.351,16.069c-.464,0-.914-.069-1.379-.069a54.351,54.351,0,0,0-46.9,26.909c.795,1.016,1.582,2.039,2.4,3.029a50.77,50.77,0,0,1,44.5-26.31c1.03,0,2.039.094,3.055.152a50.748,50.748,0,0,1,41.548,74.947c1.27.156,2.54.319,3.824.443A54.315,54.315,0,0,0,66.351,16.08Z" transform="translate(47.522 42.048)" fill="#faba01"/>
        <g id="Grupo_1162573" data-name="Grupo 1162573" transform="translate(67.993 61.676)">
          <path id="Trazado_998373" data-name="Trazado 998373" d="M37.105,33.121a10.847,10.847,0,0,1-5.5,2.968,10.848,10.848,0,0,0,5.5-2.968Z" transform="translate(15.091 25.366)" fill="#fdf1c1"/>
          <path id="Trazado_998374" data-name="Trazado 998374" d="M36.089,31.605a10.848,10.848,0,0,1-2.968,5.5,10.848,10.848,0,0,0,2.968-5.5Z" transform="translate(19.075 21.382)" fill="#fdf1c1"/>
          <path id="Trazado_998375" data-name="Trazado 998375" d="M33.121,28.879a10.848,10.848,0,0,1,2.968,5.5A10.848,10.848,0,0,0,33.121,28.879Z" transform="translate(19.075 14.218)" fill="#fdf1c1"/>
          <path id="Trazado_998376" data-name="Trazado 998376" d="M35.773,30.616a10.938,10.938,0,0,0-3.661-2.4A10.884,10.884,0,0,1,35.773,30.616Z" transform="translate(16.423 12.481)" fill="#fdf1c1"/>
          <path id="Trazado_998377" data-name="Trazado 998377" d="M28.061,31.605a10.837,10.837,0,0,0,1.506,3.65,10.837,10.837,0,0,1-1.506-3.65Z" transform="translate(5.777 21.382)" fill="#fdf1c1"/>
          <path id="Trazado_998378" data-name="Trazado 998378" d="M33.444,28.631a10.82,10.82,0,0,0-1.839-.57,10.521,10.521,0,0,1,1.839.573Z" transform="translate(15.091 12.068)" fill="#fdf1c1"/>
          <path id="Trazado_998379" data-name="Trazado 998379" d="M28.879,31.029a10.848,10.848,0,0,1,5.5-2.968A10.848,10.848,0,0,0,28.879,31.029Z" transform="translate(7.927 12.068)" fill="#fdf1c1"/>
          <path id="Trazado_998380" data-name="Trazado 998380" d="M66.29,17.152C65.274,17.094,64.265,17,63.235,17a50.773,50.773,0,0,0-44.5,26.317c1.673,2,3.41,3.951,5.188,5.863a43.6,43.6,0,0,1,2.9-5.264A7.3,7.3,0,0,1,38.1,42.661a7.3,7.3,0,0,1,1.255-11.279,43.239,43.239,0,0,1,15.4-6.3,7.212,7.212,0,0,1,8.475,7.158,7.292,7.292,0,0,1,5.583-7.085,6.788,6.788,0,0,1,2.9-.076,43.264,43.264,0,0,1,15.4,6.3,7.3,7.3,0,0,1,1.255,11.279,7.3,7.3,0,0,1,11.279,1.255,43.3,43.3,0,0,1,6.3,15.4,7.212,7.212,0,0,1-7.169,8.479,7.212,7.212,0,0,1,7.162,8.475,43.206,43.206,0,0,1-5.859,14.653q3.835.7,7.749,1.179A50.748,50.748,0,0,0,66.29,17.152Z" transform="translate(-18.734 -17)" fill="#fdf1c1"/>
          <path id="Trazado_998381" data-name="Trazado 998381" d="M28.061,34.384a10.848,10.848,0,0,1,2.968-5.5A10.848,10.848,0,0,0,28.061,34.384Z" transform="translate(5.777 14.231)" fill="#fdf1c1"/>
        </g>
        <path id="Trazado_998382" data-name="Trazado 998382" d="M54.876,25.617a43.264,43.264,0,0,0-15.4-6.3,6.788,6.788,0,0,0-2.9.076A7.292,7.292,0,0,0,31,26.473v24.67a10.962,10.962,0,0,1,2.195.221,10.819,10.819,0,0,1,1.839.57,10.938,10.938,0,0,1,3.661,2.4L56.131,36.9a7.3,7.3,0,0,0-1.255-11.279Z" transform="translate(81.494 50.441)" fill="#fe9a82"/>
        <path id="Trazado_998383" data-name="Trazado 998383" d="M48.553,51.36a10.962,10.962,0,0,1,2.177-.221V26.468a7.212,7.212,0,0,0-8.475-7.162,43.238,43.238,0,0,0-15.4,6.3A7.3,7.3,0,0,0,25.6,36.888L43.035,54.324A10.848,10.848,0,0,1,48.553,51.36Z" transform="translate(61.764 50.445)" fill="#f84634"/>
        <path id="Trazado_998384" data-name="Trazado 998384" d="M41.417,50.73h7.176a10.962,10.962,0,0,1,.221-2.195,10.848,10.848,0,0,1,2.968-5.5L34.346,25.6a7.3,7.3,0,0,0-11.279,1.255,43.6,43.6,0,0,0-2.9,5.264A138.442,138.442,0,0,0,41.417,50.73Z" transform="translate(53.017 61.738)" fill="#fe9a82"/>
        <path id="Trazado_998385" data-name="Trazado 998385" d="M36.086,48.553a10.96,10.96,0,0,1,.221,2.177h24.67a7.212,7.212,0,0,0,7.162-8.475,43.3,43.3,0,0,0-6.3-15.4A7.3,7.3,0,0,0,50.558,25.6L33.122,43.035a10.848,10.848,0,0,1,2.964,5.518Z" transform="translate(87.071 61.738)" fill="#f84634"/>
        <path id="Trazado_998386" data-name="Trazado 998386" d="M36.089,33.2a10.848,10.848,0,0,1-2.968,5.5L43.889,49.463a137.133,137.133,0,0,0,18.39,4.666,43.206,43.206,0,0,0,5.859-14.653A7.212,7.212,0,0,0,60.98,31H36.31a10.96,10.96,0,0,1-.221,2.195Z" transform="translate(87.068 81.468)" fill="#fe9a82"/>
        <path id="Trazado_998387" data-name="Trazado 998387" d="M31.015,36.3a136.917,136.917,0,0,0,18.408,7.586L38.656,33.123A10.75,10.75,0,0,1,31.015,36.3Z" transform="translate(81.534 87.047)" fill="#f84634"/>
        <path id="Trazado_998388" data-name="Trazado 998388" d="M33.419,33.195A10.961,10.961,0,0,1,33.2,31H26.022c2.9,2.053,5.852,4.013,8.9,5.845a10.836,10.836,0,0,1-1.506-3.65Z" transform="translate(68.412 81.468)" fill="#f84634"/>
        <path id="Trazado_998389" data-name="Trazado 998389" d="M49.547,36.694A10.815,10.815,0,0,0,42.918,28.8a10.52,10.52,0,0,0-1.839-.573A10.886,10.886,0,0,0,28.221,41.084a10.837,10.837,0,0,0,1.506,3.65C30.815,45.379,31.9,46,33.01,46.62q2.921,1.643,5.928,3.145A10.884,10.884,0,0,0,49.547,36.7ZM38.884,46.127a7.332,7.332,0,0,1-7.256-7.256,7.256,7.256,0,1,1,7.256,7.256Z" transform="translate(73.61 73.597)" fill="#f8695b"/>
        <path id="Trazado_998390" data-name="Trazado 998390" d="M39.05,29.559a7.256,7.256,0,1,0,4.462,6.7,7.256,7.256,0,0,0-4.462-6.7Z" transform="translate(76.238 76.211)" fill="#fdfdd7"/>
        <ellipse id="Elipse_11725" data-name="Elipse 11725" cx="5.986" cy="8.334" rx="5.986" ry="8.334" transform="translate(116.871 81.839) rotate(-45)" fill="#f6fafd"/>
        <ellipse id="Elipse_11726" data-name="Elipse 11726" cx="2.993" cy="4.165" rx="2.993" ry="4.165" transform="translate(132.815 97.189) rotate(-45)" fill="#f6fafd"/>
        <ellipse id="Elipse_11727" data-name="Elipse 11727" cx="1.498" cy="2.082" rx="1.498" ry="2.082" transform="translate(127.163 99.415) rotate(-45)" fill="#f6fafd"/>
        <ellipse id="Elipse_11728" data-name="Elipse 11728" cx="2.993" cy="4.165" rx="2.993" ry="4.165" transform="translate(92.918 46.375) rotate(-45)" fill="#f8ef00"/>
        <ellipse id="Elipse_11729" data-name="Elipse 11729" cx="1.498" cy="2.082" rx="1.498" ry="2.082" transform="translate(87.269 44.974) rotate(-45)" fill="#f8ef00"/>
        <ellipse id="Elipse_11730" data-name="Elipse 11730" cx="2.082" cy="1.498" rx="2.082" ry="1.498" transform="translate(94.496 9.465) rotate(-45)" fill="#f6fafd"/>
        <path id="Trazado_998391" data-name="Trazado 998391" d="M130.145,75.726a54.362,54.362,0,1,1-.421-6.81l7.2-.9a61.709,61.709,0,1,0,.479,7.706Z" transform="translate(36.77 36.742)" fill="#001a1f"/>
        <path id="Trazado_998392" data-name="Trazado 998392" d="M110.945,55.487A46.732,46.732,0,0,0,104.117,38.8,11.033,11.033,0,0,0,96,33.85h-.519a3.538,3.538,0,0,0,0-.519,11.04,11.04,0,0,0-4.952-8.119,46.747,46.747,0,0,0-16.689-6.824,10.59,10.59,0,0,0-8.794,2.238c-.145.12-.247.272-.385.4-.138-.123-.239-.276-.385-.4a10.59,10.59,0,0,0-8.794-2.238A46.732,46.732,0,0,0,38.8,25.215a11.033,11.033,0,0,0-4.949,8.116v.519a3.538,3.538,0,0,0-.519,0A11.04,11.04,0,0,0,25.209,38.8a46.747,46.747,0,0,0-6.824,16.689,10.59,10.59,0,0,0,2.238,8.794c.12.145.272.247.4.385-.123.138-.276.239-.4.385a10.59,10.59,0,0,0-2.238,8.794,46.732,46.732,0,0,0,6.828,16.689,11.04,11.04,0,0,0,8.116,4.949,3.428,3.428,0,0,1,.519.025,3.623,3.623,0,0,0,0,.486,11.04,11.04,0,0,0,4.952,8.119,46.747,46.747,0,0,0,16.689,6.824,10.5,10.5,0,0,0,2.039.2,10.626,10.626,0,0,0,6.755-2.438c.145-.12.247-.272.385-.4.138.123.239.276.385.4a10.626,10.626,0,0,0,6.755,2.438,10.5,10.5,0,0,0,2.041-.2,46.732,46.732,0,0,0,16.687-6.828A11.033,11.033,0,0,0,95.483,96v-.486A3.428,3.428,0,0,0,96,95.486a11.044,11.044,0,0,0,8.119-4.952,46.747,46.747,0,0,0,6.824-16.689,10.59,10.59,0,0,0-2.238-8.794c-.12-.145-.272-.247-.4-.385.123-.138.276-.239.4-.385a10.59,10.59,0,0,0,2.238-8.794ZM69.666,26.242a3.32,3.32,0,0,1,2.779-.726,39.545,39.545,0,0,1,14.109,5.772,3.8,3.8,0,0,1,1.716,2.79,3.534,3.534,0,0,1-1.03,2.9L72.05,52.171A14.356,14.356,0,0,0,68.3,50.608v-21.5a3.708,3.708,0,0,1,1.364-2.87ZM69.8,69.8a7.255,7.255,0,1,1,0-10.26A7.256,7.256,0,0,1,69.8,69.8ZM41.092,34.075a3.809,3.809,0,0,1,1.712-2.79,39.578,39.578,0,0,1,14.113-5.772,3.265,3.265,0,0,1,2.779.726,3.708,3.708,0,0,1,1.35,2.873V50.6A14.356,14.356,0,0,0,57.3,52.157L42.108,36.97a3.534,3.534,0,0,1-1.016-2.9Zm-14.828,25.6a3.327,3.327,0,0,1-.726-2.779A39.545,39.545,0,0,1,31.3,42.786a3.8,3.8,0,0,1,2.79-1.716q.181-.009.363,0a3.5,3.5,0,0,1,2.54,1.048l15.19,15.19a14.356,14.356,0,0,0-1.564,3.73H29.12a3.708,3.708,0,0,1-2.87-1.364ZM34.1,88.262a3.809,3.809,0,0,1-2.79-1.712,39.545,39.545,0,0,1-5.772-14.113,3.327,3.327,0,0,1,.726-2.779,3.708,3.708,0,0,1,2.859-1.364H50.612a14.356,14.356,0,0,0,1.553,3.748L36.978,87.232a3.563,3.563,0,0,1-2.9,1.016ZM59.7,103.09a3.291,3.291,0,0,1-2.779.726,39.545,39.545,0,0,1-14.124-5.772,3.8,3.8,0,0,1-1.716-2.79,3.534,3.534,0,0,1,1.03-2.9L57.3,77.161a14.356,14.356,0,0,0,3.748,1.564v21.5a3.708,3.708,0,0,1-1.364,2.87Zm28.589-7.833a3.809,3.809,0,0,1-1.712,2.79,39.578,39.578,0,0,1-14.113,5.772,3.294,3.294,0,0,1-2.779-.726A3.708,3.708,0,0,1,68.3,100.22v-21.5a14.356,14.356,0,0,0,3.748-1.553l15.19,15.19a3.534,3.534,0,0,1,1.016,2.9Zm14.828-25.6a3.327,3.327,0,0,1,.726,2.779,39.509,39.509,0,0,1-5.787,14.109,3.8,3.8,0,0,1-2.79,1.716,3.552,3.552,0,0,1-2.9-1.03l-15.19-15.19a14.357,14.357,0,0,0,1.564-3.748h21.5a3.708,3.708,0,0,1,2.87,1.364Zm-24.38-8.62A14.356,14.356,0,0,0,77.18,57.29L92.37,42.1a3.526,3.526,0,0,1,2.9-1.03,3.809,3.809,0,0,1,2.79,1.712,39.578,39.578,0,0,1,5.772,14.113,3.327,3.327,0,0,1-.726,2.779,3.708,3.708,0,0,1-2.881,1.364Z" transform="translate(47.82 47.802)" fill="#001a1f"/>
        <path id="Trazado_998393" data-name="Trazado 998393" d="M7.275,83.444A54.057,54.057,0,0,1,68.857,29.55a65.007,65.007,0,0,1,.181,12.078c-.051.849-.087,1.5-.087,1.908h7.256c0-.312.036-.809.076-1.451.127-2.028.131-3.922.12-5.8A90,90,0,0,0,87.6,35.634a54.358,54.358,0,0,1,13.619,10.4l5.268-4.992a61.927,61.927,0,0,0-8.87-7.709c10.485-3.737,18.5-11.976,18.5-29.706A3.628,3.628,0,0,0,112.487,0C86.529,0,77.168,9,74.03,20.208A25.033,25.033,0,0,0,59.409,3.882l-2.7,6.741a18.26,18.26,0,0,1,10.4,11.4c-1.789-.156-3.6-.254-5.417-.254A61.676,61.676,0,0,0,50.136,144.031l1.353-7.129A54.42,54.42,0,0,1,7.275,83.444ZM108.728,7.325c-.914,12.288-6.748,18.6-19.791,20.785-.091-.044-.174-.1-.265-.145l-.1.2a69.026,69.026,0,0,1-8.656.795C80.51,17.7,84.7,8.2,108.728,7.325Z" transform="translate(0.007 0)" fill="#001a1f"/>
      </g>
    </g>
  </g>
</svg>
