<svg xmlns="http://www.w3.org/2000/svg" xmlns:xlink="http://www.w3.org/1999/xlink" width="610" height="339" viewBox="0 0 610 339">
  <defs>
    <clipPath id="clip-path">
      <rect id="Rectángulo_409921" data-name="Rectángulo 409921" width="610" height="339" transform="translate(180.228 8259)" fill="#fff" stroke="#707070" stroke-width="1" opacity="0.69"/>
    </clipPath>
    <clipPath id="clip-path-2">
      <rect id="Rectángulo_409896" data-name="Rectángulo 409896" width="551.495" height="427.793" fill="#9ef0fd"/>
    </clipPath>
    <filter id="Trazado_997832" x="20" y="-1.631" width="559.419" height="437.976" filterUnits="userSpaceOnUse">
      <feOffset dy="3" input="SourceAlpha"/>
      <feGaussianBlur stdDeviation="3" result="blur"/>
      <feFlood flood-opacity="0.161"/>
      <feComposite operator="in" in2="blur"/>
      <feComposite in="SourceGraphic"/>
    </filter>
    <clipPath id="clip-path-3">
      <rect id="Rectángulo_409919" data-name="Rectángulo 409919" width="280.255" height="465.641"/>
    </clipPath>
  </defs>
  <g id="Enmascarar_grupo_1098696" data-name="Enmascarar grupo 1098696" transform="translate(-180.228 -8259)" clip-path="url(#clip-path)">
    <g id="Grupo_1162972" data-name="Grupo 1162972" transform="translate(209.228 8236.628)">
      <g id="Grupo_1162141" data-name="Grupo 1162141" transform="translate(0 18.924)">
        <g id="Grupo_1162140" data-name="Grupo 1162140">
          <g id="Grupo_1162139" data-name="Grupo 1162139" clip-path="url(#clip-path-2)">
            <g transform="matrix(1, 0, 0, 1, -29, 3.45)" filter="url(#Trazado_997832)">
              <path id="Trazado_997832-2" data-name="Trazado 997832" d="M575.076,376.356c2.991-66.776-30.068-124.128-79.968-156.448A37.174,37.174,0,0,1,478.449,192.8q-.1-.9-.213-1.8c-9.15-73.319-77.675-124.824-150.662-114.893C257.757,85.607,207.5,122.5,214.922,193.547c.033.334.072.82.114,1.436a33.928,33.928,0,0,1-33.24,36.1q-6.081.143-12.245.785c-83.293,8.7-143.713,83.556-134.843,167.122a151.5,151.5,0,0,0,48.446,95.871H517.329c33-31.585,55.816-75.4,57.747-118.5" transform="translate(-4.84 -70.51)" fill="#9ef0fd"/>
            </g>
          </g>
        </g>
      </g>
      <g id="Grupo_1162879" data-name="Grupo 1162879">
        <g id="Grupo_1162690" data-name="Grupo 1162690" transform="translate(16.817 60.986)">
          <g id="Grupo_1162688" data-name="Grupo 1162688" transform="translate(349.913 0)">
            <path id="Trazado_998773" data-name="Trazado 998773" d="M514.126,335.823c1.259,4.682-8.575,11.393-21.961,14.991s-25.259,2.719-26.518-1.962,8.575-11.393,21.961-14.991S512.867,331.141,514.126,335.823Z" transform="translate(-462.83 -323.476)" fill="none" stroke="#bc486f" stroke-miterlimit="10" stroke-width="0.687"/>
            <ellipse id="Elipse_11771" data-name="Elipse 11771" cx="24.899" cy="9.365" rx="24.899" ry="9.365" transform="matrix(0.92, -0.391, 0.391, 0.92, 0, 19.481)" fill="none" stroke="#bc486f" stroke-miterlimit="10" stroke-width="0.687"/>
          </g>
          <g id="Grupo_1162689" data-name="Grupo 1162689" transform="translate(0 142.024)">
            <ellipse id="Elipse_11772" data-name="Elipse 11772" cx="11.535" cy="32.983" rx="11.535" ry="32.983" transform="translate(0 21.992) rotate(-72.422)" fill="none" stroke="#bc486f" stroke-miterlimit="10" stroke-width="0.902"/>
            <ellipse id="Elipse_11773" data-name="Elipse 11773" cx="12.306" cy="32.72" rx="12.306" ry="32.72" transform="translate(0.418 26.779) rotate(-80.404)" fill="none" stroke="#bc486f" stroke-miterlimit="10" stroke-width="0.902"/>
          </g>
        </g>
        <g id="Grupo_1162723" data-name="Grupo 1162723" transform="translate(117.844 96.302)">
          <g id="Grupo_1162706" data-name="Grupo 1162706" transform="translate(0 63.908)">
            <path id="Trazado_998774" data-name="Trazado 998774" d="M229.667,614.809c19.759,66.241,15.489,125.992-9.545,133.459-18.066,5.389-42.024-17.94-61.386-56.263a307.833,307.833,0,0,1-19.713-50.158c-19.759-66.241-15.489-125.992,9.545-133.459S209.908,548.568,229.667,614.809Z" transform="translate(-102.672 -496.046)" fill="#ffad25"/>
            <g id="Grupo_1162701" data-name="Grupo 1162701" transform="translate(24.013 11.874)">
              <g id="Grupo_1162691" data-name="Grupo 1162691" transform="translate(30.754)">
                <path id="Trazado_998775" data-name="Trazado 998775" d="M162.572,507.971a1128.234,1128.234,0,0,1,46,114.948c10.42,31.811,19.986,64.339,23.657,97.717l.609,7.726c.285,5.159.3,10.323.09,15.483.281-20.663-3.848-41.051-8.579-61.066-4.881-20.021-10.827-39.778-17.416-59.312-13.06-39.123-28.2-77.55-44.365-115.495Z" transform="translate(-162.572 -507.971)" fill="#ff9339"/>
              </g>
              <g id="Grupo_1162692" data-name="Grupo 1162692" transform="translate(11.465 7.904)">
                <path id="Trazado_998776" data-name="Trazado 998776" d="M140.072,517.191c16.551,80.7,45.413,158.726,81.971,232.439l-7.154-13.7c-2.362-4.581-4.809-9.122-6.988-13.795a829.194,829.194,0,0,1-45.7-114.888c-9.206-29.5-17.138-59.538-22.127-90.051Z" transform="translate(-140.072 -517.191)" fill="#ff9339"/>
              </g>
              <g id="Grupo_1162693" data-name="Grupo 1162693" transform="translate(1.068 22.386)">
                <path id="Trazado_998777" data-name="Trazado 998777" d="M127.945,549.3c4.575,4.833,11.939,8.673,17.211,2.639l.451.165c11.3,4.05,21.487,1.412,23.838-11.517l.255-1.3c8.408,7.616,15.394,5.611,18.708-5.211-2.087,10.993-9.815,14.314-18.719,7.216l1.263-.433c-2.145,13.974-13.843,17.451-25.888,12.508l.757-.143c-5.894,5.89-13.654,1.707-17.875-3.928Z" transform="translate(-127.945 -534.084)" fill="#ff9339"/>
              </g>
              <g id="Grupo_1162694" data-name="Grupo 1162694" transform="translate(0 47.852)">
                <path id="Trazado_998778" data-name="Trazado 998778" d="M126.7,578.333c6.739,6.995,17.06,11.964,24.2,2.658l.38-.46.562.278c12.045,5.676,23.121,2.742,27.981-10.263l.325-.839.786.457c9.575,5.494,19.795,4.935,24.314-6.373-2.526,8.359-9.344,12.46-17.89,10.425a26.585,26.585,0,0,1-7.218-2.749l1.11-.382c-4.875,14.027-17.38,17.5-30.129,11.043l.941-.183c-7.917,9.673-18.736,4.6-25.36-3.609Z" transform="translate(-126.699 -563.789)" fill="#ff9339"/>
              </g>
              <g id="Grupo_1162695" data-name="Grupo 1162695" transform="translate(2.644 70.381)">
                <path id="Trazado_998779" data-name="Trazado 998779" d="M129.783,610.62c9.968,6.621,20.705,4.646,27.487-5.215l.427-.589.625.435c14.221,9.42,26.045,6.882,30.432-10.531,10.088,6.676,22.54,8.448,28.064-4.652-4.527,13.5-17.58,12.846-28.029,6.471l1.15-.432a29.57,29.57,0,0,1-4.181,9.556c-5.636,8.459-15.795,7.918-23.881,3.523a33.817,33.817,0,0,1-4.454-2.742l1.051-.154c-7.3,10.078-18.794,12.017-28.692,4.33Z" transform="translate(-129.783 -590.068)" fill="#ff9339"/>
              </g>
              <g id="Grupo_1162696" data-name="Grupo 1162696" transform="translate(8.436 95.848)">
                <path id="Trazado_998780" data-name="Trazado 998780" d="M136.539,643.639c10.814,6.279,23.347,5.885,31.029-4.865l.337-.453.572.195c12.7,4.161,25.52,1,31.272-11.892,10.077,4.425,21.74,3.206,27.837-6.85-5.358,10.616-17.4,12.566-27.779,8.491l.976-.362a26.714,26.714,0,0,1-5.51,7.906c-7.189,6.954-18.339,7.414-27.364,4.167l.908-.258c-8.193,11.032-21.482,11.369-32.279,3.92Z" transform="translate(-136.539 -619.774)" fill="#ff9339"/>
              </g>
              <g id="Grupo_1162697" data-name="Grupo 1162697" transform="translate(17.396 125.662)">
                <path id="Trazado_998781" data-name="Trazado 998781" d="M146.991,678.643c11.082,2.29,25.262,1.229,31.683-9.387,6.877,3.031,15.261,3.932,22.2.616a24.173,24.173,0,0,0,9.941-9.577,21.56,21.56,0,0,0,14.685,2.194c4.875-1,8.935-4.182,12.085-7.936l-1.144,1.476a20.3,20.3,0,0,1-10.714,7.382,21.153,21.153,0,0,1-11.36-.154,20.021,20.021,0,0,1-3.637-1.347l.984-.267a24.677,24.677,0,0,1-10.1,9.744c-7.214,3.508-15.788,2.737-22.985-.435l1-.274c-7.007,10.507-21.543,11.248-32.635,7.966Z" transform="translate(-146.991 -654.552)" fill="#ff9339"/>
              </g>
              <g id="Grupo_1162698" data-name="Grupo 1162698" transform="translate(27.728 153.109)">
                <path id="Trazado_998782" data-name="Trazado 998782" d="M159.043,708.545c11.714,4.1,24.756,2.191,31.339-9.238,5.221,2.544,11.35,4.123,17.151,3.154,5.983-.9,10.465-5.514,12.744-10.946l.7.433a16.613,16.613,0,0,0,14.877,1.151,25.248,25.248,0,0,0,8.6-6.531,24,24,0,0,1-7.532,6.809,17.027,17.027,0,0,1-16.737-.229l1.051-.306c-2.3,5.592-7.26,10.364-13.4,11.3a27.029,27.029,0,0,1-13.361-1.353,29.935,29.935,0,0,1-4.166-1.728l1.054-.279c-7.116,11.3-20.8,12.942-32.32,7.768Z" transform="translate(-159.043 -686.568)" fill="#ff9339"/>
              </g>
              <g id="Grupo_1162699" data-name="Grupo 1162699" transform="translate(41.36 183.515)">
                <path id="Trazado_998783" data-name="Trazado 998783" d="M174.944,739.3c10.05,1.942,22.1-.052,28.146-9.066l.448-.635.685.436c10.1,6.244,19.665,4.522,24.153-7.112l.364-.89a17.878,17.878,0,0,0,11.7,4.836,13.444,13.444,0,0,0,8.545-3.673l-1,.959a12.737,12.737,0,0,1-6.1,3.277c-4.736.928-9.553-.871-13.321-3.739l1.093-.276a22.708,22.708,0,0,1-3.939,7.02c-5.667,7.044-15.686,5.524-22.434.938l1.133-.2c-6.442,9.294-19.232,11.2-29.48,8.125Z" transform="translate(-174.944 -722.035)" fill="#ff9339"/>
              </g>
              <g id="Grupo_1162700" data-name="Grupo 1162700" transform="translate(58.546 209.043)">
                <path id="Trazado_998784" data-name="Trazado 998784" d="M194.991,766.66c8.508,1.717,17.728-.927,21.37-9.375l.43-.905.838.6c7.033,4.915,14,3.121,18.019-4.424l.422-.748.61.58c4.016,3.738,9.134,4.015,13.008-.108a8.887,8.887,0,0,1-6.551,3.832,10.864,10.864,0,0,1-7.363-2.779l1.032-.167c-1.74,3.551-4.621,6.981-8.671,7.956-4.08.991-8.223-.431-11.535-2.829l1.269-.3c-4.04,8.9-14.065,11.647-22.878,8.662Z" transform="translate(-194.991 -751.813)" fill="#ff9339"/>
              </g>
            </g>
            <path id="Trazado_998785" data-name="Trazado 998785" d="M233.324,614.809c19.759,66.241,15.489,125.992-9.545,133.459-18.066,5.389-42.024-17.94-61.386-56.263l5.137-31.774c102.865-38.09-15.305-151.844-15.305-151.844C177.259,500.921,213.565,548.568,233.324,614.809Z" transform="translate(-106.329 -496.046)" fill="#0c0c0c" opacity="0.3"/>
            <g id="Grupo_1162703" data-name="Grupo 1162703" transform="translate(0 74.17)">
              <path id="Trazado_998786" data-name="Trazado 998786" d="M217.486,758a33.689,33.689,0,0,1-30.192-1.652c-7.167-4.04-14.61-11.431-21.117-24.34,0,0-5.962-13.5-25.033-17.12-19.083-3.594-20.033-30.155-14.64-41.266,5.388-11.128-16.65-20.812-22.871-35.794-6.2-14.986-7.3-36.157.952-57.19,0,0,5.031,24.314,27.917,32.482,15.347,5.484,27.93,16.78,34.142,31.853.376.9.752,1.853,1.11,2.812a34.916,34.916,0,0,0,13.88,16.978c1.047.664,2.2,1.368,3.444,2.1,3.587,2.092,7.966,4.417,13.321,6.866C220.269,683.751,217.486,758,217.486,758Z" transform="translate(-98.689 -580.637)" fill="#bbc957"/>
              <g id="Grupo_1162702" data-name="Grupo 1162702" transform="translate(19.361 47.1)">
                <path id="Trazado_998787" data-name="Trazado 998787" d="M121.273,635.578c14.8,23.412,29.9,46.667,46.146,69.1,8.059,11.251,16.473,22.254,25.5,32.73,6.81,7.777,13.891,15.478,22.344,21.493a30.951,30.951,0,0,0,9.214,4.626,29.523,29.523,0,0,1-9.469-4.244c-8.774-5.691-16.063-13.334-23.089-20.994a415.85,415.85,0,0,1-25.9-32.6,781.878,781.878,0,0,1-44.744-70.114Z" transform="translate(-121.273 -635.578)" fill="#674d14"/>
              </g>
            </g>
            <path id="Trazado_998788" data-name="Trazado 998788" d="M231.867,772.352a33.689,33.689,0,0,1-30.192-1.652c20.939-16.832,9.384-59.687-2.214-89.486,3.587,2.092,7.966,4.417,13.321,6.866C234.65,698.1,231.867,772.352,231.867,772.352Z" transform="translate(-113.07 -520.82)" fill="#0c0c0c" opacity="0.3"/>
            <g id="Grupo_1162705" data-name="Grupo 1162705" transform="translate(105.397 1.687)">
              <path id="Trazado_998789" data-name="Trazado 998789" d="M269.482,608.151a30.313,30.313,0,0,1,4.9,17.163,70.754,70.754,0,0,1-3.328,18.823,54.542,54.542,0,0,0-.238,31.36c1.407,4.657,3.3,10.161,5.892,16.542,10.233,25.22-36.6,59.006-44.285,53.333,0,0-21.973-28.908,1.547-74.637,0,0,4.283-6.173-5.053-23.784a32.694,32.694,0,0,1-2.278-25.8,67.125,67.125,0,0,1,6.9-14.163c12.6-20.017-25.137-40.122-6.779-74.629,10.692-20.116,12.043-29.7,11.309-34.156l-.066-.342-.31-1.769c6.923,7.04,31.28,35.218,17.18,70.858C254.878,566.946,248.761,576.233,269.482,608.151Z" transform="translate(-221.631 -496.088)" fill="#bbc957"/>
              <g id="Grupo_1162704" data-name="Grupo 1162704" transform="translate(10.797 79.324)">
                <path id="Trazado_998790" data-name="Trazado 998790" d="M234.225,758.57c18.452-18.045,21.847-58.107,21.4-82.867-.279-29.283-4.868-58.371-10.353-87.085,1.706,7.132,3.3,14.288,4.734,21.481a390.79,390.79,0,0,1,6.638,49.067c1.368,20.132,1.007,40.582-3.266,60.386-3.129,13.589-8.4,29.6-19.154,39.019Z" transform="translate(-234.225 -588.617)" fill="#674d14"/>
              </g>
            </g>
            <path id="Trazado_998791" data-name="Trazado 998791" d="M238.4,494.143c-.021-.012-.038-.007-.043-.023" transform="translate(-118.621 -494.12)" fill="none"/>
            <path id="Trazado_998792" data-name="Trazado 998792" d="M229.025,499.531c-.021-.012-.038-.007-.043-.023" transform="translate(-117.283 -494.889)" fill="none"/>
            <path id="Trazado_998793" data-name="Trazado 998793" d="M257.5,567.229c14.242-35.979-10.713-64.351-17.361-71.044l.284,1.144c.068.227.129.476.184.742l.013.051,0,0c.436,2.175.372,5.669-1.2,11.257,9.183,12.436,20.823,35.285,10.053,62.47,0,0-6.118,9.286,14.587,41.21a30.305,30.305,0,0,1,4.919,17.158,71.783,71.783,0,0,1-3.323,18.84,54.179,54.179,0,0,0-.238,31.361c1.385,4.645,3.3,10.144,5.892,16.543,6.739,16.6-11.277,36.93-26.558,47.232,15.8-7.279,42.576-32.174,34.587-51.867-2.59-6.382-4.484-11.886-5.892-16.542a54.542,54.542,0,0,1,.238-31.36,70.8,70.8,0,0,0,3.328-18.823,30.307,30.307,0,0,0-4.9-17.163C251.383,576.514,257.5,567.229,257.5,567.229Z" transform="translate(-118.772 -494.415)" fill="#0c0c0c" opacity="0.3"/>
          </g>
          <g id="Grupo_1162722" data-name="Grupo 1162722" transform="translate(197.878 0)">
            <path id="Trazado_998794" data-name="Trazado 998794" d="M367.534,519.559c-20.815,53.389-21.337,103.046-1.16,110.913,14.561,5.677,35.937-11.975,54.531-42.324a255.154,255.154,0,0,0,19.687-40.1C461.408,494.653,461.93,445,441.753,437.13S388.349,466.169,367.534,519.559Z" transform="translate(-332.656 -421.928)" fill="#ffad25"/>
            <g id="Grupo_1162717" data-name="Grupo 1162717" transform="translate(19.345 14.215)">
              <g id="Grupo_1162707" data-name="Grupo 1162707" transform="translate(8.335)">
                <path id="Trazado_998795" data-name="Trazado 998795" d="M435.914,436.154c-15.926,30.255-31.042,60.977-44.483,92.418-6.768,15.693-13.02,31.613-18.409,47.824-5.265,16.217-10.059,32.781-11.228,49.872.175-4.277.538-8.542,1.124-12.786l1.026-6.342c5.3-27.359,15.4-53.529,26.169-79.132a935.245,935.245,0,0,1,45.8-91.854Z" transform="translate(-361.794 -436.154)" fill="#ff9339"/>
              </g>
              <g id="Grupo_1162708" data-name="Grupo 1162708" transform="translate(14.374 7.838)">
                <path id="Trazado_998796" data-name="Trazado 998796" d="M452.321,445.3c-5.656,22.8-13.4,45.1-22,66.95a689.353,689.353,0,0,1-41.492,86.69c-3.707,6.4-9.147,15.857-13.152,22.008l-6.84,10.838c35.222-58.455,64.325-120.9,83.482-186.486Z" transform="translate(-368.839 -445.297)" fill="#ff9339"/>
              </g>
              <g id="Grupo_1162709" data-name="Grupo 1162709" transform="translate(55.509 16.409)">
                <path id="Trazado_998797" data-name="Trazado 998797" d="M465.745,471.968c-3.852,4.375-10.57,7.267-15.03,2.028l.609.169c-10.247,3.3-19.752-.442-20.539-12.083l1.013.444c-7.812,5.241-14.022,1.974-14.977-7.23,2.007,9.18,7.656,11.309,15.1,5.575l.123,1.085c1.012,10.8,9.377,13.724,18.916,11.137l.382-.1.227.271c3.8,5.036,10.333,2.223,14.172-1.293Z" transform="translate(-416.821 -455.295)" fill="#ff9339"/>
              </g>
              <g id="Grupo_1162710" data-name="Grupo 1162710" transform="translate(39.723 36.297)">
                <path id="Trazado_998798" data-name="Trazado 998798" d="M462.319,495.833c-5.962,6.326-15.383,9.743-21.2,1.263l.765.215c-10.909,4.492-21.13.7-24.145-11.166l.892.391a21.7,21.7,0,0,1-6.152,1.772c-7.163,1.1-12.586-2.754-14.073-9.815,2.966,9.651,11.39,10.827,19.658,6.913l.681-.323.211.715c3.083,11.043,12.158,14.264,22.422,10.377l.482-.191.284.406c5.25,8.2,14.139,4.756,20.174-.556Z" transform="translate(-398.408 -478.493)" fill="#ff9339"/>
              </g>
              <g id="Grupo_1162711" data-name="Grupo 1162711" transform="translate(29 54.154)">
                <path id="Trazado_998799" data-name="Trazado 998799" d="M456.416,522.2c-8.614,5.7-18.138,3.231-23.412-5.523l.858.2c-7.419,4.617-18.42,6.38-23.358-2.567a24.49,24.49,0,0,1-2.807-8.179l.922.435c-9.044,4.539-19.923,4.2-22.719-7.247,3.631,11.171,14.138,10.6,22.872,5.746,2.4,14.665,12.113,17.583,24.429,10.762l.545-.316.313.515c4.87,8.618,13.735,10.961,22.356,6.173Z" transform="translate(-385.9 -499.323)" fill="#ff9339"/>
              </g>
              <g id="Grupo_1162712" data-name="Grupo 1162712" transform="translate(19.173 74.531)">
                <path id="Trazado_998800" data-name="Trazado 998800" d="M448.043,548.981c-9.31,5.433-20.491,4.173-26.4-5.427l.732.275c-7.674,2.071-16.859.935-22.326-5.3a22.155,22.155,0,0,1-4.016-6.905l.783.365c-8.761,2.658-18.755.189-22.375-8.9,4.283,8.675,13.991,10.563,22.536,7.547C400.8,541.648,411.3,545.179,422,542.583l.485-.122.247.4c5.583,9.414,15.982,10.578,25.307,6.123Z" transform="translate(-374.437 -523.092)" fill="#ff9339"/>
              </g>
              <g id="Grupo_1162713" data-name="Grupo 1162713" transform="translate(10.12 98.587)">
                <path id="Trazado_998801" data-name="Trazado 998801" d="M437.1,577.2c-9.377,1.961-21.346.343-26.425-8.794l.807.295c-6.16,2.134-13.3,2.189-19.02-1.2a20.461,20.461,0,0,1-7.688-8.736l.8.287a19.353,19.353,0,0,1-6.254,1.2c-6.5.33-12.35-3.536-15.435-9.1,4.8,7.211,13.108,10.072,21.194,6.776l.535-.218.261.5c4.77,9.818,15.257,12.524,25.143,9.26l.546-.182.261.477c4.758,8.868,16.133,10.521,25.28,9.428Z" transform="translate(-363.877 -551.153)" fill="#ff9339"/>
              </g>
              <g id="Grupo_1162714" data-name="Grupo 1162714" transform="translate(4.006 120.916)">
                <path id="Trazado_998802" data-name="Trazado 998802" d="M425.825,601.146c-9.753,3.514-21.166,1.141-26.176-8.61l.852.3c-4.664,1.8-9.78,2.619-14.691,1.358-5.012-1.186-8.792-5.464-10.306-10.242l.845.323a14.371,14.371,0,0,1-13.25-.543,18.7,18.7,0,0,1-2.822-2.165,24.267,24.267,0,0,1-1.925-2.067c-.56-.754-1.073-1.542-1.608-2.306.6.72,1.179,1.452,1.787,2.153a17.035,17.035,0,0,0,6.762,4.624,13.6,13.6,0,0,0,10.484-.739l.606-.31c1.519,4.641,4.906,8.759,9.789,9.907,4.728,1.194,9.9.305,14.384-1.443,4.635,9.892,15.339,12.357,25.267,9.757Z" transform="translate(-356.745 -577.198)" fill="#ff9339"/>
              </g>
              <g id="Grupo_1162715" data-name="Grupo 1162715" transform="translate(0 146.845)">
                <path id="Trazado_998803" data-name="Trazado 998803" d="M412.153,625.769c-8.089,1.662-17.809-.225-22.821-7.3l-.984-1.405.922.242a20.719,20.719,0,0,1-6.32,2.24,13.318,13.318,0,0,1-6.759-.408,11.153,11.153,0,0,1-5.391-4.128,18.627,18.627,0,0,1-2.773-6.07l.875.3c-4.977,3.256-11.914,3.936-16.073-.93l-.757-.86c4.647,5.174,11.668,4.383,16.8.421,2.919,10.712,10.934,12.987,20.284,7.968.255.37.986,1.48,1.247,1.864,4.691,6.919,13.843,8.879,21.751,8.073Z" transform="translate(-352.072 -607.444)" fill="#ff9339"/>
              </g>
              <g id="Grupo_1162716" data-name="Grupo 1162716" transform="translate(0.099 167.514)">
                <path id="Trazado_998804" data-name="Trazado 998804" d="M396.4,647.137c-7.635,1.822-15.423-1.04-18.316-8.707l1.027.334a14.27,14.27,0,0,1-4.664,1.832c-4.647.89-8.305-1.223-10.624-5.221-.375-.73-.706-1.481-1.058-2.217l.842.207a9.014,9.014,0,0,1-6.272,1.8,6.843,6.843,0,0,1-4.2-2.333c-.35-.4-.636-.857-.952-1.277.371.379.709.785,1.1,1.132,2.926,2.894,7.335,1.979,10.147-.569a27.738,27.738,0,0,0,2.09,3.57,11.639,11.639,0,0,0,1.485,1.678,10.455,10.455,0,0,0,2.316,1.448c3.206,1.277,6.943.194,9.732-1.625l.327.756c2.621,7.307,9.713,9.969,17.02,9.194Z" transform="translate(-352.188 -631.553)" fill="#ff9339"/>
              </g>
            </g>
            <path id="Trazado_998805" data-name="Trazado 998805" d="M367.534,519.559c-20.815,53.389-21.337,103.046-1.16,110.913,14.561,5.677,35.937-11.975,54.531-42.324l-2.091-26.6c-82.406-38.443,22.938-124.419,22.938-124.419C421.576,429.263,388.349,466.169,367.534,519.559Z" transform="translate(-332.656 -421.928)" fill="#0c0c0c" opacity="0.3"/>
            <g id="Grupo_1162719" data-name="Grupo 1162719" transform="translate(29.697 68.996)">
              <path id="Trazado_998806" data-name="Trazado 998806" d="M367.593,638.94a27.927,27.927,0,0,0,25.057.681c6.2-2.852,12.846-8.454,19.1-18.679,0,0,5.841-10.754,21.843-12.448,16.01-1.675,18.6-23.557,14.893-33.1s15.167-16.067,21.323-28.023,8.481-29.379,3.09-47.316c0,0-5.8,19.748-25.267,24.945a47.554,47.554,0,0,0-30.369,24c-.372.718-.747,1.481-1.108,2.249a28.946,28.946,0,0,1-12.618,13.087c-.91.477-1.907.982-2.988,1.5-3.105,1.485-6.881,3.109-11.471,4.77C370.327,577.407,367.593,638.94,367.593,638.94Z" transform="translate(-364.639 -500.054)" fill="#bbc957"/>
              <g id="Grupo_1162718" data-name="Grupo 1162718" transform="translate(0 38.004)">
                <path id="Trazado_998807" data-name="Trazado 998807" d="M458.086,544.384c-17.5,25.72-62.389,86.536-89.76,97.656a20.915,20.915,0,0,1-4.179,1.063,25.638,25.638,0,0,0,7.926-3.2c7.392-4.4,13.765-10.279,19.918-16.243,8.166-8.044,15.862-16.565,23.284-25.314,14.941-17.435,29-35.625,42.81-53.965Z" transform="translate(-364.147 -544.384)" fill="#674d14"/>
              </g>
            </g>
            <path id="Trazado_998808" data-name="Trazado 998808" d="M367.593,649.891a27.927,27.927,0,0,0,25.057.682c-16.159-15.327-3.708-49.95,7.895-73.784-3.105,1.485-6.881,3.109-11.471,4.77C370.327,588.358,367.593,649.891,367.593,649.891Z" transform="translate(-334.942 -442.009)" fill="#0c0c0c" opacity="0.3"/>
            <g id="Grupo_1162721" data-name="Grupo 1162721" transform="translate(0.09 1.276)">
              <path id="Trazado_998809" data-name="Trazado 998809" d="M343.049,511.5a25.121,25.121,0,0,0-5.214,13.848,58.665,58.665,0,0,0,1.474,15.778,45.21,45.21,0,0,1-1.929,25.926c-1.478,3.752-3.417,8.172-5.989,13.268-10.164,20.144,26.236,51.232,32.974,47.066,0,0,20.114-22.395,3.782-61.771,0,0-3.12-5.391,5.787-19.308a27.1,27.1,0,0,0,3.631-21.166,55.644,55.644,0,0,0-4.743-12.169c-9.054-17.393,23.489-31.445,10.66-61.2-7.47-17.346-7.938-25.353-7.029-28.988l.078-.278.376-1.44c-6.2,5.347-28.231,26.978-19,57.379C357.907,478.441,362.333,486.528,343.049,511.5Z" transform="translate(-329.611 -421.062)" fill="#bbc957"/>
              <g id="Grupo_1162720" data-name="Grupo 1162720" transform="translate(20.459 65.147)">
                <path id="Trazado_998810" data-name="Trazado 998810" d="M367.769,638.22c-3.825-3.723-6.218-8.71-8.221-13.592a19.2,19.2,0,0,1-.81-2.14l-1.386-4.364c-.422-1.2-.758-3.18-1.083-4.445a124.488,124.488,0,0,1-2.113-12.4c-.324-4.672-.795-10.154-.652-14.846.03-1.6-.015-5.307.034-6.86.1-1.5.649-9.726.76-11.4.346-4.215,1.215-9.375,1.721-13.595.659-5.144,2.342-12.856,3.245-17.967,1.626-6.9,3.617-15.317,5.559-22.117,1.782-5.815,3.517-11.64,5.337-17.435-2.217,8.845-4.865,17.56-6.778,26.469-2,8.255-3.929,18.388-5.371,26.751-.5,2.494-.886,6.44-1.235,9-.773,5.1-1.381,12.865-1.719,18.081-.353,4.161-.2,9.419-.3,13.611.348,7.474.776,15.185,2.39,22.517.281,1.225.6,3.223.977,4.426l1.272,4.352a17.68,17.68,0,0,0,.727,2.146c1.816,4.928,4.034,9.91,7.642,13.811Z" transform="translate(-353.477 -497.054)" fill="#674d14"/>
              </g>
            </g>
            <path id="Trazado_998811" data-name="Trazado 998811" d="M386.536,419.589c.019-.008.032,0,.037-.016" transform="translate(-337.645 -419.573)" fill="none"/>
            <path id="Trazado_998812" data-name="Trazado 998812" d="M393.914,424.675c.019-.009.032,0,.037-.016" transform="translate(-338.698 -420.299)" fill="none"/>
            <path id="Trazado_998813" data-name="Trazado 998813" d="M357.8,478.67c-9.328-30.692,13.213-52.441,19.16-57.52l-.312.927c-.072.183-.139.384-.2.6l-.014.041h0c-.508,1.768-.692,4.659.231,9.382-8.43,9.652-19.6,27.741-12.54,50.932,0,0,4.425,8.087-14.845,33.059a25.127,25.127,0,0,0-5.228,13.843,59.52,59.52,0,0,0,1.469,15.79A44.917,44.917,0,0,1,343.6,571.65c-1.46,3.744-3.412,8.158-5.989,13.268-6.693,13.256,6.814,31.276,18.741,40.824-12.564-7.086-33-29.469-25.061-45.2,2.573-5.1,4.511-9.517,5.989-13.268A45.21,45.21,0,0,0,339.2,541.35a58.7,58.7,0,0,1-1.474-15.778,25.12,25.12,0,0,1,5.214-13.848C362.23,486.757,357.8,478.67,357.8,478.67Z" transform="translate(-329.507 -419.798)" fill="#0c0c0c" opacity="0.3"/>
          </g>
        </g>
        <g id="Grupo_1162825" data-name="Grupo 1162825" transform="translate(148.274)">
          <g id="Grupo_1162824" data-name="Grupo 1162824" transform="translate(0 0)" clip-path="url(#clip-path-3)">
            <g id="Grupo_1162729" data-name="Grupo 1162729" transform="translate(60.431 327.122)">
              <g id="Grupo_1162724" data-name="Grupo 1162724" transform="translate(4.659 353.635)">
                <rect id="Rectángulo_409914" data-name="Rectángulo 409914" width="41.176" height="45.866" transform="translate(10.945)" fill="#ffa18a"/>
                <rect id="Rectángulo_409915" data-name="Rectángulo 409915" width="41.176" height="14.985" transform="translate(10.945)" fill="#0c0c0c"/>
                <path id="Trazado_998814" data-name="Trazado 998814" d="M270.579,1155.05H210.11c0-17.406,13.536-31.538,30.225-31.538C257.042,1123.51,270.579,1137.638,270.579,1155.05Z" transform="translate(-210.11 -1104.487)" fill="#2b0301"/>
              </g>
              <g id="Grupo_1162725" data-name="Grupo 1162725" transform="translate(86.309 353.635)">
                <rect id="Rectángulo_409916" data-name="Rectángulo 409916" width="41.176" height="45.866" transform="translate(10.945)" fill="#ffa18a"/>
                <rect id="Rectángulo_409917" data-name="Rectángulo 409917" width="41.176" height="14.985" transform="translate(10.945)" fill="#0c0c0c"/>
                <path id="Trazado_998815" data-name="Trazado 998815" d="M365.82,1155.05H305.352c0-17.406,13.536-31.538,30.225-31.538C352.284,1123.51,365.82,1137.638,365.82,1155.05Z" transform="translate(-305.352 -1104.487)" fill="#2b0301"/>
              </g>
              <g id="Grupo_1162728" data-name="Grupo 1162728">
                <path id="Trazado_998816" data-name="Trazado 998816" d="M215.964,701l-11.289,348.946h72.343L286.286,701l-36.742-12.182Z" transform="translate(-204.675 -688.816)" fill="#ff9339"/>
                <path id="Trazado_998817" data-name="Trazado 998817" d="M358.1,701l13.877,348.946H299.63L287.123,701l36.743-12.182Z" transform="translate(-216.441 -688.816)" fill="#ff9339"/>
                <g id="Grupo_1162726" data-name="Grupo 1162726" transform="translate(70.551 8.515)">
                  <path id="Trazado_998818" data-name="Trazado 998818" d="M293.445,879.4c-2.905-57.835-5.24-122.76-6.475-180.654,2.912,57.834,5.233,122.76,6.475,180.654Z" transform="translate(-286.97 -698.749)" fill="#0c0c0c"/>
                </g>
                <g id="Grupo_1162727" data-name="Grupo 1162727" transform="translate(61.535 8.515)">
                  <path id="Trazado_998819" data-name="Trazado 998819" d="M277.025,698.749c.389,5.375.521,10.757.94,16.115.249,2.5.33,5.41,1.354,7.652a4.581,4.581,0,0,0,3.1,1.756,10.6,10.6,0,0,0,3.955-.165,9.506,9.506,0,0,1-4.019.788c-3.656-.171-4.673-2.616-5.18-5.87a79.616,79.616,0,0,1-.154-20.276Z" transform="translate(-276.454 -698.749)" fill="#0c0c0c"/>
                </g>
              </g>
            </g>
            <g id="Grupo_1162747" data-name="Grupo 1162747" transform="translate(89.418 34.594)">
              <g id="Grupo_1162730" data-name="Grupo 1162730" transform="translate(34.399 93.524)">
                <path id="Trazado_998820" data-name="Trazado 998820" d="M278.612,464.5v12.313h21.695V456.684Z" transform="translate(-278.612 -456.684)" fill="#ffa18a"/>
                <path id="Trazado_998821" data-name="Trazado 998821" d="M278.612,469.779s12.55,4.74,21.7-2.248V456.684l-21.7,7.818Z" transform="translate(-278.612 -456.684)" fill="#0c0c0c"/>
              </g>
              <g id="Grupo_1162745" data-name="Grupo 1162745">
                <path id="Trazado_998822" data-name="Trazado 998822" d="M248.332,405.034s-9.652-12.113-8.32-26.768c0,0,2.077,4.621,5.036,4.975,0,0-8.791-13.939,1.142-27.746,0,0-.848,8.115,6.238,6.3s45.118-32.946,66.8,3.149c0,0,5.92-1.211,7.442,7.51s.429,26.7-5.756,33.794Z" transform="translate(-238.686 -347.591)" fill="#2b0301"/>
                <g id="Grupo_1162744" data-name="Grupo 1162744" transform="translate(0 15.535)">
                  <path id="Trazado_998823" data-name="Trazado 998823" d="M256.15,415.511s-.182,39.243,29.8,39.243,27.616-42.7,27.616-42.7l1.453-32.521-29.432-6.9-31.068,15.807Z" transform="translate(-240.774 -366.7)" fill="#ffa18a"/>
                  <path id="Trazado_998824" data-name="Trazado 998824" d="M256.041,409.653s-.711-14.091,4.2-20.807c4.6-6.3,26.964-14.174,45.434-8.834a7.513,7.513,0,0,1,5.3,6.472c.631,5.973,1.7,16.279,2.244,22.363l7.093-1.227-3.028-33.672-34.762-8.236-31.613,18.774L254,409.653Z" transform="translate(-240.26 -365.712)" fill="#2b0301"/>
                  <g id="Grupo_1162734" data-name="Grupo 1162734" transform="translate(70.221 37.995)">
                    <path id="Trazado_998825" data-name="Trazado 998825" d="M322.376,415.978s9.032-10.378,14.063-3.713c6.246,8.276-5.787,26.82-16.042,20.315Z" transform="translate(-320.397 -410.032)" fill="#ffa18a"/>
                    <g id="Grupo_1162733" data-name="Grupo 1162733" transform="translate(2.741 7.029)">
                      <g id="Grupo_1162731" data-name="Grupo 1162731">
                        <path id="Trazado_998826" data-name="Trazado 998826" d="M323.594,428.671c.982-4.609,5.137-11.878,10.749-10.191-5.43.225-8.057,6.243-10.749,10.191Z" transform="translate(-323.594 -418.231)" fill="#0c0c0c"/>
                      </g>
                      <g id="Grupo_1162732" data-name="Grupo 1162732" transform="translate(3.146 3.082)">
                        <path id="Trazado_998827" data-name="Trazado 998827" d="M332.776,423.281a12.785,12.785,0,0,0-5.512.069c1.07-1.956,4.411-2.082,5.512-.069Z" transform="translate(-327.264 -421.826)" fill="#0c0c0c"/>
                      </g>
                    </g>
                  </g>
                  <g id="Grupo_1162738" data-name="Grupo 1162738" transform="translate(0 37.995)">
                    <path id="Trazado_998828" data-name="Trazado 998828" d="M254.268,415.978s-9.032-10.378-14.063-3.713c-6.246,8.276,5.787,26.82,16.042,20.315Z" transform="translate(-238.487 -410.032)" fill="#ffa18a"/>
                    <g id="Grupo_1162737" data-name="Grupo 1162737" transform="translate(4.271 7.03)">
                      <g id="Grupo_1162735" data-name="Grupo 1162735">
                        <path id="Trazado_998829" data-name="Trazado 998829" d="M254.218,428.671c-2.69-3.946-5.318-9.967-10.749-10.191,5.613-1.685,9.764,5.578,10.749,10.191Z" transform="translate(-243.469 -418.232)" fill="#0c0c0c"/>
                      </g>
                      <g id="Grupo_1162736" data-name="Grupo 1162736" transform="translate(2.09 3.081)">
                        <path id="Trazado_998830" data-name="Trazado 998830" d="M245.907,423.281c1.1-2.013,4.443-1.887,5.512.069a12.782,12.782,0,0,0-5.512-.069Z" transform="translate(-245.907 -421.826)" fill="#0c0c0c"/>
                      </g>
                    </g>
                  </g>
                  <g id="Grupo_1162743" data-name="Grupo 1162743" transform="translate(20.793 30.032)">
                    <ellipse id="Elipse_11774" data-name="Elipse 11774" cx="2.85" cy="3.619" rx="2.85" ry="3.619" transform="translate(7.134 7.442)" fill="#0c0c0c"/>
                    <ellipse id="Elipse_11775" data-name="Elipse 11775" cx="2.85" cy="3.619" rx="2.85" ry="3.619" transform="translate(34.813 7.442)" fill="#0c0c0c"/>
                    <g id="Grupo_1162739" data-name="Grupo 1162739" transform="translate(16.364 10.337)">
                      <path id="Trazado_998831" data-name="Trazado 998831" d="M286.26,412.8a146.794,146.794,0,0,1-3.342,17.079l-.119-.479a6.792,6.792,0,0,0,5.955,2.383,8.183,8.183,0,0,0,2.229-.694,6.7,6.7,0,0,1-2.133,1.122,6.913,6.913,0,0,1-6.882-2.1.493.493,0,0,1-.119-.48A147.038,147.038,0,0,1,286.26,412.8Z" transform="translate(-281.829 -412.801)" fill="#0c0c0c"/>
                    </g>
                    <g id="Grupo_1162740" data-name="Grupo 1162740" transform="translate(31.862)">
                      <path id="Trazado_998832" data-name="Trazado 998832" d="M299.907,403.668c3.155-3.856,9.248-3.656,13.017-.821.529.415,1.039.848,1.517,1.306-.63-.242-1.212-.534-1.8-.8-4.059-1.843-8.814-2.093-12.731.313Z" transform="translate(-299.907 -400.743)" fill="#0c0c0c"/>
                    </g>
                    <g id="Grupo_1162741" data-name="Grupo 1162741" transform="translate(2.535 0.006)">
                      <path id="Trazado_998833" data-name="Trazado 998833" d="M280.6,403.774a12.384,12.384,0,0,0-12.207-.476c-.914.4-1.8.98-2.691,1.445,3.572-4.593,10.942-5.625,14.9-.97Z" transform="translate(-265.698 -400.75)" fill="#0c0c0c"/>
                    </g>
                    <g id="Grupo_1162742" data-name="Grupo 1162742" transform="translate(0 21.809)">
                      <ellipse id="Elipse_11776" data-name="Elipse 11776" cx="5.088" cy="2.736" rx="5.088" ry="2.736" transform="translate(34.095 0)" fill="#d64338"/>
                      <path id="Trazado_998834" data-name="Trazado 998834" d="M272.917,428.918c0,1.511-2.278,2.736-5.088,2.736s-5.088-1.225-5.088-2.736,2.278-2.736,5.088-2.736S272.917,427.406,272.917,428.918Z" transform="translate(-262.741 -426.182)" fill="#d64338"/>
                    </g>
                  </g>
                </g>
              </g>
              <g id="Grupo_1162746" data-name="Grupo 1162746" transform="translate(47.261 78.227)">
                <path id="Trazado_998835" data-name="Trazado 998835" d="M293.615,447.055c4.593-.219,7.331-2.58,8.932-6.736.72-2.016.787-1.983.758.178-.233,4.857-5,8.708-9.69,6.557Z" transform="translate(-293.615 -438.841)" fill="#0c0c0c"/>
              </g>
            </g>
            <g id="Grupo_1162755" data-name="Grupo 1162755" transform="translate(25.917 143.852)">
              <g id="Grupo_1162748" data-name="Grupo 1162748" transform="translate(0 8.796)">
                <path id="Trazado_998836" data-name="Trazado 998836" d="M176.014,565.1l-11.4,67.23s-3.258,22.477,16.679,27.949,32.25-16.613,32.25-16.613l1.368-78.565Z" transform="translate(-164.415 -496.686)" fill="#ffa18a"/>
                <path id="Trazado_998837" data-name="Trazado 998837" d="M177.191,568.911l34.851,10.059v-9.245l-34.2-4.626Z" transform="translate(-166.239 -496.686)" fill="#0c0c0c"/>
                <path id="Trazado_998838" data-name="Trazado 998838" d="M212.149,485.3s-17.2.507-24.236,26.835-9.968,41.579-9.968,41.579l37.527,5.076Z" transform="translate(-166.346 -485.297)" fill="#fff"/>
              </g>
              <g id="Grupo_1162749" data-name="Grupo 1162749" transform="translate(170.111 10.165)">
                <path id="Trazado_998839" data-name="Trazado 998839" d="M414.848,554.9s20.085,50.6,23.666,62.471c4.176,13.844,3.909,25.018-11.857,30.49-19.967,6.93-34.35-24.84-34.35-24.84l-22.4-49.078,25.214-20.553Z" transform="translate(-363.853 -496.383)" fill="#ffa18a"/>
                <path id="Trazado_998840" data-name="Trazado 998840" d="M372.987,580.929,416.4,559.122l-1.552-3.974-26.271.347-18.666,18.7Z" transform="translate(-363.853 -496.635)" fill="#0c0c0c"/>
                <path id="Trazado_998841" data-name="Trazado 998841" d="M368.9,487.675s17.693.367,27.949,18.817c8.651,15.561,16.987,38.916,16.987,38.916l-46.119,19.043-4.877-27.965,6.059-49.592" transform="translate(-362.844 -486.894)" fill="#fff"/>
              </g>
              <g id="Grupo_1162754" data-name="Grupo 1162754" transform="translate(45.144)">
                <path id="Trazado_998842" data-name="Trazado 998842" d="M291.634,475.037s41.916,8.014,56.575,10.945V670.49H217.843V483.833s42.69-7.1,52.1-8.8A24.661,24.661,0,0,0,291.634,475.037Z" transform="translate(-217.184 -475.037)" fill="#fff"/>
                <g id="Grupo_1162750" data-name="Grupo 1162750" transform="translate(39.1 126.329)">
                  <path id="Trazado_998843" data-name="Trazado 998843" d="M262.683,656.62c20.637-6.768,42.095-16.766,55.768-34.225a57.249,57.249,0,0,1-5.012,6.684c-13.152,14.4-31.988,23.156-50.756,27.541Z" transform="translate(-262.683 -622.395)" fill="#0c0c0c"/>
                </g>
                <g id="Grupo_1162751" data-name="Grupo 1162751" transform="translate(54.018 120.009)">
                  <path id="Trazado_998844" data-name="Trazado 998844" d="M280.084,641.018c10.625-6.78,21.359-14.553,27.28-25.995-4.1,12.066-16,20.984-27.28,25.995Z" transform="translate(-280.084 -615.023)" fill="#0c0c0c"/>
                </g>
                <g id="Grupo_1162752" data-name="Grupo 1162752" transform="translate(0 46.652)">
                  <path id="Trazado_998845" data-name="Trazado 998845" d="M217.733,564.639a235.126,235.126,0,0,1,0-35.184,235.006,235.006,0,0,1,0,35.184Z" transform="translate(-217.074 -529.455)" fill="#0c0c0c"/>
                </g>
                <g id="Grupo_1162753" data-name="Grupo 1162753" transform="translate(130.367 45.676)">
                  <path id="Trazado_998846" data-name="Trazado 998846" d="M369.8,570.362a335.616,335.616,0,0,1,0-42.045,335.616,335.616,0,0,1,0,42.045Z" transform="translate(-369.143 -528.317)" fill="#0c0c0c"/>
                </g>
              </g>
            </g>
            <path id="Trazado_998847" data-name="Trazado 998847" d="M399.452,495.1l-67.876,22.113s-12.246,14.456-25.735,11.266a.784.784,0,0,0-.628,1.4c5.925,4.423,18.782,10.66,28.516-8.448l66.959-21.4Z" transform="translate(-158.546 -334.049)" fill="#2b0301"/>
            <g id="Grupo_1162762" data-name="Grupo 1162762" transform="translate(186.449 164.988)">
              <g id="Grupo_1162758" data-name="Grupo 1162758">
                <path id="Trazado_998848" data-name="Trazado 998848" d="M355.722,540.74c2.933,1.331,8.336,1.461,10.14,4.313s1.645,10.239,8.919,14.307l25.592-7.935s-2.057-20.66-4.706-30.256c-2.628-9.592-5.015-10.855-7.757-14.146a17.8,17.8,0,0,0-9.6-6.426c-3.506-.823-10.527-2-14.344,1.234s-7.867,6.121-4.5,9.128l5.339-1.739s4.435-1.765,7.934.23c.83.472,1.865,1.145,2.985,1.889l.009.013a6.158,6.158,0,0,1,1.589,3.568c-4.7-1.405-10.762-3.033-12.9-2.771-3.7.455-10.216,5.873-10.572,8.09s-.48,3.577.133,5.157c0,0-2.04,3.882-2.273,6.314-.255,2.428.938,4.126,2.442,4.47C354.147,536.181,352.81,539.414,355.722,540.74Zm1.836-6.583c2.264-3.343,3.561-3.457,3.561-3.457l10.407,3.451c-.69-.12-6.235-1.084-8.787-1.386A8.344,8.344,0,0,0,357.558,534.157Z" transform="translate(-351.671 -499.692)" fill="#ffa18a"/>
                <g id="Grupo_1162756" data-name="Grupo 1162756" transform="translate(25.65 15.228)">
                  <path id="Trazado_998849" data-name="Trazado 998849" d="M387.76,519.937a9.569,9.569,0,0,1-6.169-2.482,9.569,9.569,0,0,1,6.169,2.482Z" transform="translate(-381.591 -517.455)" fill="#0c0c0c"/>
                </g>
                <g id="Grupo_1162757" data-name="Grupo 1162757" transform="translate(2.307 20.875)">
                  <path id="Trazado_998850" data-name="Trazado 998850" d="M378.661,528.77c-4.4-1.174-8.742-2.766-13.207-3.554a11.348,11.348,0,0,0-5.257.915,62.515,62.515,0,0,0-5.835,2.74c3.16-2.476,7.007-5.175,11.242-4.793a46.27,46.27,0,0,1,13.057,4.692Z" transform="translate(-354.362 -524.042)" fill="#0c0c0c"/>
                </g>
              </g>
              <g id="Grupo_1162761" data-name="Grupo 1162761" transform="translate(23.109 50.03)">
                <path id="Trazado_998851" data-name="Trazado 998851" d="M436.884,618.71l-32.666-58.948-15.148-1.712-10.44,9.635,24.21,68.764Z" transform="translate(-378.627 -558.05)" fill="#ffa18a"/>
                <g id="Grupo_1162759" data-name="Grupo 1162759" transform="translate(0 9.639)">
                  <path id="Trazado_998852" data-name="Trazado 998852" d="M378.627,569.293c7.447,19.68,14.163,39.888,19.957,60.117-7.454-19.678-14.156-39.891-19.957-60.117Z" transform="translate(-378.627 -569.293)" fill="#0c0c0c"/>
                </g>
                <g id="Grupo_1162760" data-name="Grupo 1162760" transform="translate(25.592 1.703)">
                  <path id="Trazado_998853" data-name="Trazado 998853" d="M408.479,560.037c10.314,16.826,20,34.3,28.79,51.966-10.32-16.823-19.995-34.3-28.79-51.966Z" transform="translate(-408.479 -560.037)" fill="#0c0c0c"/>
                </g>
              </g>
            </g>
            <g id="Grupo_1162823" data-name="Grupo 1162823" transform="translate(42.989 166.052)">
              <g id="Grupo_1162764" data-name="Grupo 1162764" transform="translate(0 66.917)">
                <path id="Trazado_998854" data-name="Trazado 998854" d="M188.432,617.307l59.5-38.317,18.207,2.94,7.126,8.443-59.621,60.051L193.09,635.485Z" transform="translate(-184.915 -578.99)" fill="#ffa18a"/>
                <g id="Grupo_1162763" data-name="Grupo 1162763" transform="translate(0 22.08)">
                  <path id="Trazado_998855" data-name="Trazado 998855" d="M184.329,624.7a185.673,185.673,0,0,1,28.731-19.951A311.072,311.072,0,0,1,184.329,624.7Z" transform="translate(-184.329 -604.746)" fill="#0c0c0c"/>
                </g>
              </g>
              <g id="Grupo_1162822" data-name="Grupo 1162822" transform="translate(37.985)">
                <g id="Grupo_1162817" data-name="Grupo 1162817">
                  <g id="Grupo_1162813" data-name="Grupo 1162813">
                    <g id="Grupo_1162772" data-name="Grupo 1162772" transform="translate(52.732)">
                      <path id="Trazado_998856" data-name="Trazado 998856" d="M311.962,501.02c-5.8.728-13.693,4.541-12.484,20.184a6.734,6.734,0,0,1-.413,2.857,32.389,32.389,0,0,0-1.769,11.683,11.023,11.023,0,0,1-.973,4.64,12.632,12.632,0,0,0,1.354,12.882c5.523,7.78,14.46-6.357,15-12.268.475-5.185,3.173-13.595,7.392-18.03a12.862,12.862,0,0,0,3.279-6.115,19.01,19.01,0,0,0,.179-7.976A10.372,10.372,0,0,0,311.962,501.02Z" transform="translate(-290.862 -500.934)" fill="#609c30"/>
                      <path id="Trazado_998857" data-name="Trazado 998857" d="M306.2,538.19s-19.892,23.053-15.386,34.719a5.4,5.4,0,0,0,7.584,2.929C302.918,573.456,308.751,565.276,306.2,538.19Z" transform="translate(-290.147 -506.25)" fill="#bbc957"/>
                      <g id="Grupo_1162771" data-name="Grupo 1162771" transform="translate(12.059 6.26)">
                        <g id="Grupo_1162765" data-name="Grupo 1162765" transform="translate(3.119)">
                          <path id="Trazado_998858" data-name="Trazado 998858" d="M316.9,508.236c-.309.082-.424.467-.581.716a54.273,54.273,0,0,0-2.353,6.281c-2.378,7.307-4.444,14.707-6.112,22.211a99.538,99.538,0,0,1,5.6-22.393,31.828,31.828,0,0,1,3.064-6.545c.106-.111.215-.272.387-.27Z" transform="translate(-307.851 -508.236)" fill="#bbc957"/>
                        </g>
                        <g id="Grupo_1162766" data-name="Grupo 1162766" transform="translate(3.601 1.067)">
                          <path id="Trazado_998859" data-name="Trazado 998859" d="M308.413,509.48a59.792,59.792,0,0,1,3.129,12.834,59.725,59.725,0,0,1-3.129-12.834Z" transform="translate(-308.413 -509.48)" fill="#bbc957"/>
                        </g>
                        <g id="Grupo_1162767" data-name="Grupo 1162767" transform="translate(5.606 9.244)">
                          <path id="Trazado_998860" data-name="Trazado 998860" d="M320.643,519.019a59.224,59.224,0,0,1-9.891,8.659,59.08,59.08,0,0,1,9.891-8.659Z" transform="translate(-310.752 -519.019)" fill="#bbc957"/>
                        </g>
                        <g id="Grupo_1162768" data-name="Grupo 1162768" transform="translate(9.615 14.141)">
                          <path id="Trazado_998861" data-name="Trazado 998861" d="M319.457,525.239a5.713,5.713,0,0,1-4.028-.256,5.709,5.709,0,0,1,4.028.256Z" transform="translate(-315.429 -524.731)" fill="#bbc957"/>
                        </g>
                        <g id="Grupo_1162769" data-name="Grupo 1162769" transform="translate(0 18.094)">
                          <path id="Trazado_998862" data-name="Trazado 998862" d="M304.213,529.342a33.07,33.07,0,0,1,3.449,9.218,33,33,0,0,1-3.449-9.218Z" transform="translate(-304.213 -529.342)" fill="#bbc957"/>
                        </g>
                        <g id="Grupo_1162770" data-name="Grupo 1162770" transform="translate(3.992 21.793)">
                          <path id="Trazado_998863" data-name="Trazado 998863" d="M314.027,533.657a14.333,14.333,0,0,1-5.158,3.886,14.344,14.344,0,0,1,5.158-3.886Z" transform="translate(-308.869 -533.657)" fill="#bbc957"/>
                        </g>
                      </g>
                    </g>
                    <g id="Grupo_1162780" data-name="Grupo 1162780" transform="translate(0 2.571)">
                      <path id="Trazado_998864" data-name="Trazado 998864" d="M232.14,507.756c-3.779,4.455-7.02,12.6,4.445,23.312a6.731,6.731,0,0,1,1.626,2.384,32.414,32.414,0,0,0,6.593,9.8,11.02,11.02,0,0,1,2.419,4.077,12.632,12.632,0,0,0,9.706,8.578c9.33,2,6.359-14.459,2.761-19.181-3.156-4.142-6.851-12.162-6.741-18.283a12.862,12.862,0,0,0-1.717-6.723,19.009,19.009,0,0,0-5.259-6A10.373,10.373,0,0,0,232.14,507.756Z" transform="translate(-228.637 -503.933)" fill="#609c30"/>
                      <path id="Trazado_998865" data-name="Trazado 998865" d="M253.5,539.755s.925,30.435,12.131,35.986a5.4,5.4,0,0,0,7.568-2.969C274.923,567.96,273.691,557.989,253.5,539.755Z" transform="translate(-232.185 -509.045)" fill="#bbc957"/>
                      <g id="Grupo_1162779" data-name="Grupo 1162779" transform="translate(4.388 6.261)">
                        <g id="Grupo_1162773" data-name="Grupo 1162773" transform="translate(5.487)">
                          <path id="Trazado_998866" data-name="Trazado 998866" d="M240.26,511.236c-.172.27,0,.631.055.92a54.356,54.356,0,0,0,2.512,6.22c3.187,6.992,6.667,13.842,10.51,20.5a99.526,99.526,0,0,1-11.014-20.284,31.834,31.834,0,0,1-2.167-6.9c0-.153-.024-.345.1-.459Z" transform="translate(-240.156 -511.236)" fill="#bbc957"/>
                        </g>
                        <g id="Grupo_1162774" data-name="Grupo 1162774" transform="translate(0 6.576)">
                          <path id="Trazado_998867" data-name="Trazado 998867" d="M233.755,518.907a59.723,59.723,0,0,1,10.981,7.343,59.746,59.746,0,0,1-10.981-7.343Z" transform="translate(-233.755 -518.907)" fill="#bbc957"/>
                        </g>
                        <g id="Grupo_1162775" data-name="Grupo 1162775" transform="translate(12.858 4.561)">
                          <path id="Trazado_998868" data-name="Trazado 998868" d="M250.189,516.556a59.179,59.179,0,0,1-1.435,13.067,59.236,59.236,0,0,1,1.435-13.067Z" transform="translate(-248.754 -516.556)" fill="#bbc957"/>
                        </g>
                        <g id="Grupo_1162776" data-name="Grupo 1162776" transform="translate(13.441 9.796)">
                          <path id="Trazado_998869" data-name="Trazado 998869" d="M252.574,522.663a5.712,5.712,0,0,1-3.141,2.534,5.713,5.713,0,0,1,3.141-2.534Z" transform="translate(-249.433 -522.663)" fill="#bbc957"/>
                        </g>
                        <g id="Grupo_1162777" data-name="Grupo 1162777" transform="translate(8.858 21.558)">
                          <path id="Trazado_998870" data-name="Trazado 998870" d="M244.087,536.383a33.029,33.029,0,0,1,8.773,4.462,33.031,33.031,0,0,1-8.773-4.462Z" transform="translate(-244.087 -536.383)" fill="#bbc957"/>
                        </g>
                        <g id="Grupo_1162778" data-name="Grupo 1162778" transform="translate(16.913 18.098)">
                          <path id="Trazado_998871" data-name="Trazado 998871" d="M254.671,532.347A14.321,14.321,0,0,1,253.5,538.7a14.336,14.336,0,0,1,1.174-6.351Z" transform="translate(-253.483 -532.347)" fill="#bbc957"/>
                        </g>
                      </g>
                    </g>
                    <g id="Grupo_1162786" data-name="Grupo 1162786" transform="translate(16.49 6.659)">
                      <path id="Trazado_998872" data-name="Trazado 998872" d="M273.742,520.9,268.4,513l2.926-2.388a23.938,23.938,0,0,1,2.87,10.309Z" transform="translate(-250.801 -508.973)" fill="#609c30"/>
                      <path id="Trazado_998873" data-name="Trazado 998873" d="M275.93,520.677s5.57-7.687,9.1-10.2l-3.379-1.777s-5.974,6.4-6.491,11.944Z" transform="translate(-251.766 -508.701)" fill="#4b7724"/>
                      <path id="Trazado_998874" data-name="Trazado 998874" d="M273.559,521.212a25.706,25.706,0,0,1-11-2.4c-5.883-2.69-15.7,2.122-14.6,13.95s12.8,21.331,28.845,17.849c8.978-1.949,13.062-7.536,14.917-12.08a16.674,16.674,0,0,0-.173-13.179c-1.426-3.137-4.017-6.258-8.707-6.545a9.049,9.049,0,0,0-4.009.716C277.182,520.2,274.542,521.226,273.559,521.212Z" transform="translate(-247.872 -510.04)" fill="#ff312b"/>
                      <path id="Trazado_998875" data-name="Trazado 998875" d="M273.586,522.987a23.474,23.474,0,0,1-10.047-2.2c-5.373-2.457-14.338,1.938-13.335,12.74s11.687,19.481,26.344,16.3c8.2-1.78,11.929-6.882,13.623-11.032a15.228,15.228,0,0,0-.158-12.036c-1.3-2.865-3.669-5.716-7.951-5.978a8.274,8.274,0,0,0-3.661.653A20.028,20.028,0,0,1,273.586,522.987Z" transform="translate(-248.194 -510.332)" fill="#f45656"/>
                      <g id="Grupo_1162785" data-name="Grupo 1162785" transform="translate(3.394 11.579)">
                        <g id="Grupo_1162782" data-name="Grupo 1162782">
                          <path id="Trazado_998876" data-name="Trazado 998876" d="M268.362,530.8a4.356,4.356,0,0,0,1.277-.939c.942-1.05,1.792-3.138-2.044-5.969-5.652-4.172-12.973.261-14.676,4.159-1.177,2.694-2.719,10.8,3.336,16.092a10.5,10.5,0,0,0,4.607,2.39c1.875.415,4.245.366,5.1-2.125C267.439,540.118,261.5,534.3,268.362,530.8Z" transform="translate(-251.831 -522.208)" fill="#c12d2d"/>
                          <g id="Grupo_1162781" data-name="Grupo 1162781" transform="translate(3.721 4.284)">
                            <path id="Trazado_998877" data-name="Trazado 998877" d="M266.343,530.051c-.093-.89-.415-2.4-1.534-2.8a.783.783,0,0,0-1.017.873,3.009,3.009,0,0,0,1.931,2.383A.445.445,0,0,0,266.343,530.051Z" transform="translate(-257.257 -527.204)" fill="#ff9339"/>
                            <path id="Trazado_998878" data-name="Trazado 998878" d="M261.838,533.6c-.675-1.089-2.051-2.86-3.8-2.7a1.171,1.171,0,0,0-.916,1.663c.487,1.057,1.623,2.373,4.236,2.036A.658.658,0,0,0,261.838,533.6Z" transform="translate(-256.291 -527.73)" fill="#ff9339"/>
                            <path id="Trazado_998879" data-name="Trazado 998879" d="M259.514,539.31a2.989,2.989,0,0,0-2.99-.1.792.792,0,0,0,.118,1.384,2.772,2.772,0,0,0,2.951-.522A.456.456,0,0,0,259.514,539.31Z" transform="translate(-256.171 -528.865)" fill="#ff9339"/>
                            <path id="Trazado_998880" data-name="Trazado 998880" d="M262.83,543.628a2.774,2.774,0,0,0-1.975,1.057.765.765,0,0,0,.627,1.166,1.881,1.881,0,0,0,1.981-1.5A.575.575,0,0,0,262.83,543.628Z" transform="translate(-256.823 -529.547)" fill="#ff9339"/>
                          </g>
                        </g>
                        <g id="Grupo_1162784" data-name="Grupo 1162784" transform="translate(20.046 0.68)">
                          <path id="Trazado_998881" data-name="Trazado 998881" d="M277.062,531.124a4.348,4.348,0,0,1-1.2-1.038c-.856-1.121-1.535-3.271,2.514-5.786,5.967-3.707,12.911,1.3,14.3,5.318.958,2.779,1.847,10.984-4.611,15.775a10.5,10.5,0,0,1-4.783,2.015c-1.9.264-4.262.026-4.917-2.526C277.238,540.491,283.623,535.166,277.062,531.124Z" transform="translate(-275.214 -523.001)" fill="#c12d2d"/>
                          <g id="Grupo_1162783" data-name="Grupo 1162783" transform="translate(5.67 4.269)">
                            <path id="Trazado_998882" data-name="Trazado 998882" d="M281.836,530.679c.163-.88.605-2.358,1.752-2.671a.784.784,0,0,1,.944.952,3.011,3.011,0,0,1-2.115,2.22A.445.445,0,0,1,281.836,530.679Z" transform="translate(-281.828 -527.981)" fill="#ff9339"/>
                            <path id="Trazado_998883" data-name="Trazado 998883" d="M285.65,534.569c.759-1.031,2.273-2.688,4-2.39a1.172,1.172,0,0,1,.78,1.731c-.57,1.014-1.807,2.236-4.385,1.691A.657.657,0,0,1,285.65,534.569Z" transform="translate(-282.355 -528.575)" fill="#ff9339"/>
                            <path id="Trazado_998884" data-name="Trazado 998884" d="M287.758,540.441a2.99,2.99,0,0,1,2.989.144.791.791,0,0,1-.228,1.369,2.771,2.771,0,0,1-2.9-.756A.455.455,0,0,1,287.758,540.441Z" transform="translate(-282.633 -529.711)" fill="#ff9339"/>
                            <path id="Trazado_998885" data-name="Trazado 998885" d="M284.252,544.474a2.775,2.775,0,0,1,1.884,1.211.765.765,0,0,1-.718,1.112,1.881,1.881,0,0,1-1.855-1.652A.576.576,0,0,1,284.252,544.474Z" transform="translate(-282.074 -530.333)" fill="#ff9339"/>
                          </g>
                        </g>
                      </g>
                    </g>
                    <g id="Grupo_1162797" data-name="Grupo 1162797" transform="translate(57.807 8.295)">
                      <path id="Trazado_998886" data-name="Trazado 998886" d="M303.628,545.774a4.476,4.476,0,0,0-.808,3.162s1.62-1.883,2.929-2.016a.854.854,0,0,1,.88.553c.125.345.451.79,1.294.514,1.3-.424,1.325-1.175,2.611-.1s.888-1.519,3.319,1.011a4.92,4.92,0,0,0-5.375-4.3l-1.779-.207A3.271,3.271,0,0,0,303.628,545.774Z" transform="translate(-297.025 -515.428)" fill="#bc486f"/>
                      <path id="Trazado_998887" data-name="Trazado 998887" d="M317.541,533.693a10.324,10.324,0,0,1-6.217,6.447,11.379,11.379,0,0,1-12.972-3.542,10.651,10.651,0,0,1-1.823-3.424c-1.7-5.406,1.635-9.507,4.114-11.679A12.3,12.3,0,0,1,304,519.476c3.466-1.471,4.376-7.391,4.376-7.391l.083,4.618a14.534,14.534,0,0,1,3.117-6.094c-2.076,6.8-.207,8.924.428,9.424.2.158.409.316.6.489.024.023.048.045.072.065C318.35,525.72,318.567,530.427,317.541,533.693Z" transform="translate(-296.066 -510.61)" fill="#bc486f"/>
                      <g id="Grupo_1162796" data-name="Grupo 1162796" transform="translate(3.412 9.576)">
                        <g id="Grupo_1162787" data-name="Grupo 1162787">
                          <path id="Trazado_998888" data-name="Trazado 998888" d="M305.844,521.78a15.149,15.149,0,0,0-5.575,9.252,16.435,16.435,0,0,0-.063,2.556c-.861-4.623,1.861-9.282,5.638-11.808Z" transform="translate(-300.047 -521.78)" fill="#fff"/>
                        </g>
                        <g id="Grupo_1162788" data-name="Grupo 1162788" transform="translate(12.468 2.473)">
                          <path id="Trazado_998889" data-name="Trazado 998889" d="M314.59,524.665c3.08,3.121,4.539,8.411,1.818,12.208a13.3,13.3,0,0,0,.91-2.291c.868-3.519-.581-7.138-2.728-9.917Z" transform="translate(-314.59 -524.665)" fill="#fff"/>
                        </g>
                        <g id="Grupo_1162789" data-name="Grupo 1162789" transform="translate(8.983 1.832)">
                          <path id="Trazado_998890" data-name="Trazado 998890" d="M310.525,523.917c2,3.027,1.88,7.057.639,10.355.817-3.409.955-7.146-.639-10.355Z" transform="translate(-310.525 -523.917)" fill="#fff"/>
                        </g>
                        <g id="Grupo_1162790" data-name="Grupo 1162790" transform="translate(4.025 4.336)">
                          <path id="Trazado_998891" data-name="Trazado 998891" d="M307.093,526.838a12.055,12.055,0,0,0-1.472,10.471,9.9,9.9,0,0,1,1.472-10.471Z" transform="translate(-304.742 -526.838)" fill="#fff"/>
                        </g>
                        <g id="Grupo_1162791" data-name="Grupo 1162791" transform="translate(12.375 8.551)">
                          <path id="Trazado_998892" data-name="Trazado 998892" d="M314.833,531.755a3.671,3.671,0,0,1-.351,3.747,8.637,8.637,0,0,0,.351-3.747Z" transform="translate(-314.482 -531.755)" fill="#fff"/>
                        </g>
                        <g id="Grupo_1162792" data-name="Grupo 1162792" transform="translate(11.142 13.699)">
                          <path id="Trazado_998893" data-name="Trazado 998893" d="M314.221,537.76a2.9,2.9,0,0,1-1.178,3.112,6.534,6.534,0,0,0,1.178-3.112Z" transform="translate(-313.043 -537.76)" fill="#fff"/>
                        </g>
                        <g id="Grupo_1162793" data-name="Grupo 1162793" transform="translate(7.766 14.018)">
                          <path id="Trazado_998894" data-name="Trazado 998894" d="M310.337,538.132a4.5,4.5,0,0,1-1.231,3.211c.389-1.1.916-2.09,1.231-3.211Z" transform="translate(-309.106 -538.132)" fill="#fff"/>
                        </g>
                        <g id="Grupo_1162794" data-name="Grupo 1162794" transform="translate(1.608 13.726)">
                          <path id="Trazado_998895" data-name="Trazado 998895" d="M302,537.791c.114.872.779,1.411,1.27,2.106-.761-.325-1.618-1.229-1.27-2.106Z" transform="translate(-301.923 -537.791)" fill="#fff"/>
                        </g>
                        <g id="Grupo_1162795" data-name="Grupo 1162795" transform="translate(2.838 2.444)">
                          <path id="Trazado_998896" data-name="Trazado 998896" d="M305.986,524.631a9.64,9.64,0,0,0-2.629,4.959,5.768,5.768,0,0,1,2.629-4.959Z" transform="translate(-303.357 -524.631)" fill="#fff"/>
                        </g>
                      </g>
                      <path id="Trazado_998897" data-name="Trazado 998897" d="M317.922,535.354A10.324,10.324,0,0,1,311.7,541.8a11.379,11.379,0,0,1-12.973-3.542c18.944,5.194,16.474-9.122,14.325-16.01C318.73,527.381,318.948,532.088,317.922,535.354Z" transform="translate(-296.447 -512.271)" fill="#0c0c0c" opacity="0.3"/>
                    </g>
                    <g id="Grupo_1162801" data-name="Grupo 1162801" transform="translate(75.342 5.639)">
                      <g id="Grupo_1162798" data-name="Grupo 1162798" transform="translate(12.728)">
                        <path id="Trazado_998898" data-name="Trazado 998898" d="M332.816,520.647l8.287-13.136,2.045,1.484-8.876,13.042Z" transform="translate(-331.574 -507.511)" fill="#4b7724"/>
                        <path id="Trazado_998899" data-name="Trazado 998899" d="M345.566,513.51l-12.261,8.8,1.632,1.514,12.3-8.345Z" transform="translate(-331.644 -508.367)" fill="#609c30"/>
                        <path id="Trazado_998900" data-name="Trazado 998900" d="M337.095,508.036l-3.3,12.871-2.431-.386,3.3-12.962Z" transform="translate(-331.367 -507.518)" fill="#609c30"/>
                      </g>
                      <path id="Trazado_998901" data-name="Trazado 998901" d="M336.995,531.6c-1.066,1.3-2.417,2.925-3.909,4.65-.657.76-1.342,1.54-2.045,2.317-4.818,5.345-10.377,10.62-12.742,9.27l-.6-.341c-.737-.41-1.087-1.413-1.16-2.8a29.82,29.82,0,0,1,1.095-7.763q.256-1.051.547-2.13c.984-3.623,2.233-7.351,3.23-10.214.183-.526.361-1.026.523-1.488a8,8,0,0,1,.484-1.108c2.328-4.355,7.244-2.175,9.466-.878.553.321,1.111.636,1.669.942,1.768.964,4.854,3.062,4.9,5.963A5.508,5.508,0,0,1,336.995,531.6Z" transform="translate(-316.521 -509.209)" fill="#ff9339"/>
                      <g id="Grupo_1162800" data-name="Grupo 1162800" transform="translate(1.108 12.784)" opacity="0.3">
                        <g id="Grupo_1162799" data-name="Grupo 1162799">
                          <path id="Trazado_998902" data-name="Trazado 998902" d="M333.19,528.71l-10.971-3.691c.183-.526.361-1.026.523-1.488a8,8,0,0,1,.483-1.108l10.087,6.009A.152.152,0,1,1,333.19,528.71Z" transform="translate(-318.442 -522.423)" fill="#0c0c0c"/>
                          <path id="Trazado_998903" data-name="Trazado 998903" d="M334.053,538.471c-.657.76-1.342,1.54-2.045,2.317l-8.578-5.4a.229.229,0,0,1,.186-.417Z" transform="translate(-318.596 -524.211)" fill="#0c0c0c"/>
                          <path id="Trazado_998904" data-name="Trazado 998904" d="M325.029,542.222l-7.216-2.729q.256-1.051.547-2.13c2.357,1.588,5.223,3.5,6.818,4.561C325.372,542.057,325.248,542.3,325.029,542.222Z" transform="translate(-317.813 -524.555)" fill="#0c0c0c"/>
                          <path id="Trazado_998905" data-name="Trazado 998905" d="M318.594,544.949a11.345,11.345,0,0,1,4.223,2.337.228.228,0,0,1-.225.391,10.032,10.032,0,0,1-4.233-2.339A.229.229,0,0,1,318.594,544.949Z" transform="translate(-317.879 -525.636)" fill="#0c0c0c"/>
                          <path id="Trazado_998906" data-name="Trazado 998906" d="M326.045,529.406c1.687.573,5.664,2.063,8.023,4.064a.218.218,0,0,1-.195.378c-1.676-.436-5.59-1.66-8.047-4.078A.218.218,0,0,1,326.045,529.406Z" transform="translate(-318.947 -523.418)" fill="#0c0c0c"/>
                        </g>
                      </g>
                      <path id="Trazado_998907" data-name="Trazado 998907" d="M337,533.037c-1.066,1.3-2.417,2.925-3.909,4.65-.657.76-1.342,1.54-2.046,2.317-4.818,5.345-10.377,10.62-12.742,9.27l-.6-.341c-.737-.41-1.087-1.413-1.16-2.8,7.155.075,17.306-11.1,21.916-16.673A5.507,5.507,0,0,1,337,533.037Z" transform="translate(-316.523 -510.643)" fill="#0c0c0c" opacity="0.3"/>
                    </g>
                    <g id="Grupo_1162812" data-name="Grupo 1162812" transform="translate(42.533 13.458)">
                      <path id="Trazado_998908" data-name="Trazado 998908" d="M286.771,532.065l1.6,3.11a.185.185,0,0,0,.346-.046l.734-3.426,1.476.059.431,3.565a.185.185,0,0,0,.287.132c.417-.285,1.368-1.286,3.076-4.807l1.673,1.329s-3.939,7.235-3.6,8.907l-5.076-.059s.4-.958-1.1-4.912-2.146-5.855-2.146-5.855Z" transform="translate(-279.138 -518.549)" fill="#bbc957"/>
                      <path id="Trazado_998909" data-name="Trazado 998909" d="M287.053,520.253a2.823,2.823,0,0,1,3.32-2.752s2.016-2.3,3.7.581c0,0,3.021-2.114,3.917,1.888a2.01,2.01,0,0,1,2.7,2.079l-7.3,2.929-5.7-2.32Z" transform="translate(-279.506 -516.632)" fill="#4b7724"/>
                      <path id="Trazado_998910" data-name="Trazado 998910" d="M300.1,523.508s-.388-3.713-4.123-2.227a1.674,1.674,0,0,0-.985,1,1.312,1.312,0,0,0,.088,1.079s-2.657-.645-3.581,1.011c-.671-1.789-3.034-1.516-3.034-1.516a2.221,2.221,0,0,0-2.636-2.605c-4.7-1.439-4.384,2.613-4.384,2.613-2.264.1-1.518,1.887-1.518,1.887-2.754.346-1.284,2.65-1.284,2.65.3,3.843,4.424,1.78,4.424,1.78,1.509,4.34,4.524,1.095,4.524,1.095.688,2.131,2.01,1.819,2.867,1.326.6.285,1.472.22,2.694-.887a2.393,2.393,0,0,0,3.824.543s4.557.851,4.145-3.253C301.122,528,304.388,524.473,300.1,523.508Z" transform="translate(-278.25 -517.104)" fill="#609c30"/>
                      <g id="Grupo_1162807" data-name="Grupo 1162807" transform="translate(1.789 7.262)">
                        <g id="Grupo_1162802" data-name="Grupo 1162802" transform="translate(7.375)">
                          <path id="Trazado_998911" data-name="Trazado 998911" d="M293.026,525.1c-1.012.236-1.709.883-1.091,1.9a2,2,0,0,0-1.9,2.606,1.461,1.461,0,0,0-.9.467.879.879,0,0,0-.024.924.934.934,0,0,1-.063-.984,1.5,1.5,0,0,1,.874-.555l-.066.1a2.081,2.081,0,0,1,1.921-2.732l-.078.141c-.578-1.05.324-1.784,1.32-1.87Z" transform="translate(-288.938 -525.103)" fill="#4b7724"/>
                        </g>
                        <g id="Grupo_1162803" data-name="Grupo 1162803" transform="translate(11.657 1.121)">
                          <path id="Trazado_998912" data-name="Trazado 998912" d="M293.934,528.976a1.25,1.25,0,0,1,2.043-.651l-.144.087a2.539,2.539,0,0,1,.119-.882,1.369,1.369,0,0,1,1.388-.994,3.21,3.21,0,0,1,.869.161l-.086.014a1.3,1.3,0,0,1,1.871.2,2.247,2.247,0,0,1,.272.615,1.463,1.463,0,0,0-.842-.932,1.493,1.493,0,0,0-1.228.3c-1.249-.452-2.213.125-2.174,1.505v.174c-.754-.558-1.718-.619-2.09.4Z" transform="translate(-293.934 -526.41)" fill="#4b7724"/>
                        </g>
                        <g id="Grupo_1162804" data-name="Grupo 1162804" transform="translate(0 0.133)">
                          <path id="Trazado_998913" data-name="Trazado 998913" d="M280.336,527.528c.393-1.233,1.558-1.248,2.388-.411l-.164.056c.164-1.117,1.084-2.075,2.258-1.553l-.094.014a1.475,1.475,0,0,1,2.081.109,2.327,2.327,0,0,1,.331.664,1.546,1.546,0,0,0-.979-.978,1.777,1.777,0,0,0-1.356.391c-1.07-.467-1.862.362-2.046,1.385l-.036.169-.127-.113c-.76-.8-1.766-.844-2.256.268Z" transform="translate(-280.336 -525.258)" fill="#4b7724"/>
                        </g>
                        <g id="Grupo_1162805" data-name="Grupo 1162805" transform="translate(15.85 3.913)">
                          <path id="Trazado_998914" data-name="Trazado 998914" d="M298.824,530.7a1.176,1.176,0,0,1,1.988-.543l-.158.005a1.491,1.491,0,0,1,.959-.49.925.925,0,0,1,.834.6.935.935,0,0,0-.823-.432,1.545,1.545,0,0,0-.878.55c-.683-.723-1.383-.405-1.923.315Z" transform="translate(-298.824 -529.667)" fill="#4b7724"/>
                        </g>
                        <g id="Grupo_1162806" data-name="Grupo 1162806" transform="translate(3.421 2.91)">
                          <path id="Trazado_998915" data-name="Trazado 998915" d="M284.327,528.861a1.174,1.174,0,0,1,.917-.357,1.1,1.1,0,0,1,.8.625l-.165-.027c.752-.742,1.944-.81,2.279.364-.5-.969-1.4-.865-2.134-.21l-.107.087a1,1,0,0,0-1.593-.482Z" transform="translate(-284.327 -528.497)" fill="#4b7724"/>
                        </g>
                      </g>
                      <g id="Grupo_1162811" data-name="Grupo 1162811" transform="translate(8.797 16.162)">
                        <g id="Grupo_1162808" data-name="Grupo 1162808" transform="translate(0 1.163)">
                          <path id="Trazado_998916" data-name="Trazado 998916" d="M288.511,536.842a11.449,11.449,0,0,1,1.083,4.034c-.393-1.345-.779-2.665-1.083-4.034Z" transform="translate(-288.511 -536.842)" fill="#0c0c0c"/>
                        </g>
                        <g id="Grupo_1162809" data-name="Grupo 1162809" transform="translate(2.044)">
                          <path id="Trazado_998917" data-name="Trazado 998917" d="M291.025,535.485a30.388,30.388,0,0,1-.032,5.24,30.3,30.3,0,0,1,.032-5.24Z" transform="translate(-290.895 -535.485)" fill="#0c0c0c"/>
                        </g>
                        <g id="Grupo_1162810" data-name="Grupo 1162810" transform="translate(3.339 0.136)">
                          <path id="Trazado_998918" data-name="Trazado 998918" d="M294.632,535.644a47.385,47.385,0,0,0-2.226,5.151,12.92,12.92,0,0,1,2.226-5.151Z" transform="translate(-292.406 -535.644)" fill="#0c0c0c"/>
                        </g>
                      </g>
                    </g>
                  </g>
                  <g id="Grupo_1162816" data-name="Grupo 1162816" transform="translate(6.031 33.132)">
                    <g id="Grupo_1162814" data-name="Grupo 1162814">
                      <path id="Trazado_998919" data-name="Trazado 998919" d="M329.56,539.581s-.038,1.375-.31,3.641c-1.1,9.027-6.058,32.15-28.04,38.366H264.022c-21.989-6.217-26.938-29.34-28.04-38.366-.272-2.266-.309-3.641-.309-3.641Z" transform="translate(-235.672 -539.581)" fill="#bc486f"/>
                      <rect id="Rectángulo_409918" data-name="Rectángulo 409918" width="37.452" height="4.29" transform="translate(28.216 42.006)" fill="#8c3758"/>
                    </g>
                    <g id="Grupo_1162815" data-name="Grupo 1162815" transform="translate(1.836 7.387)">
                      <path id="Trazado_998920" data-name="Trazado 998920" d="M328.483,550.638c0-.008-.008-.015-.015-.022-.846-1.133-1.813-2.418-3.694-2.418s-2.84,1.284-3.686,2.418c-.816,1.088-1.579,2.115-3.082,2.115s-2.274-1.027-3.082-2.115c-.846-1.133-1.805-2.418-3.694-2.418s-2.84,1.284-3.686,2.418c-.808,1.088-1.579,2.115-3.082,2.115s-2.266-1.027-3.082-2.115c-.846-1.133-1.805-2.418-3.686-2.418s-2.84,1.284-3.686,2.418c-.816,1.088-1.579,2.115-3.082,2.115s-2.274-1.027-3.09-2.115c-.846-1.133-1.805-2.418-3.686-2.418s-2.84,1.284-3.686,2.418c-.816,1.088-1.579,2.115-3.082,2.115s-2.273-1.027-3.082-2.115c-.854-1.133-1.813-2.418-3.694-2.418s-2.84,1.284-3.686,2.418c-.808,1.088-1.579,2.115-3.082,2.115s-2.274-1.027-3.082-2.115c-.846-1.133-1.805-2.418-3.686-2.418s-2.84,1.284-3.694,2.418c-.808,1.088-1.579,2.115-3.082,2.115s-2.266-1.027-3.082-2.115c-.846-1.133-1.805-2.418-3.686-2.418s-2.84,1.284-3.686,2.418a5.145,5.145,0,0,1-2.024,1.911l.2.741a5.776,5.776,0,0,0,2.432-2.2c.816-1.088,1.579-2.115,3.082-2.115s2.274,1.027,3.082,2.115c.846,1.133,1.805,2.418,3.686,2.418s2.84-1.284,3.694-2.418c.808-1.088,1.579-2.115,3.082-2.115s2.266,1.027,3.082,2.115c.846,1.133,1.805,2.418,3.686,2.418s2.84-1.284,3.686-2.418c.816-1.088,1.579-2.115,3.082-2.115s2.274,1.027,3.082,2.115c.846,1.133,1.805,2.418,3.694,2.418s2.84-1.284,3.686-2.418c.808-1.088,1.579-2.115,3.082-2.115s2.273,1.027,3.082,2.115c.846,1.133,1.805,2.418,3.694,2.418s2.84-1.284,3.686-2.418c.808-1.088,1.579-2.115,3.082-2.115s2.273,1.027,3.082,2.115c.846,1.133,1.805,2.418,3.686,2.418s2.84-1.284,3.686-2.418c.816-1.088,1.579-2.115,3.082-2.115s2.274,1.027,3.09,2.115c.846,1.133,1.805,2.418,3.686,2.418s2.84-1.284,3.686-2.418c.808-1.088,1.579-2.115,3.082-2.115s2.274,1.027,3.09,2.115c.129.174.257.347.4.521Z" transform="translate(-237.813 -548.198)" fill="#8c3758"/>
                    </g>
                    <path id="Trazado_998921" data-name="Trazado 998921" d="M329.56,539.581s-.038,1.375-.31,3.641H235.981c-.272-2.266-.309-3.641-.309-3.641Z" transform="translate(-235.672 -539.581)" fill="#8c3758"/>
                  </g>
                </g>
                <g id="Grupo_1162821" data-name="Grupo 1162821" transform="translate(13.61 62.501)">
                  <path id="Trazado_998922" data-name="Trazado 998922" d="M299.467,584.589s4.43-4.486,6.841-3.7,1.889,5.722-8.014,12.341-18.758,8.508-21.172,3.1Z" transform="translate(-249.166 -574.831)" fill="#ffa18a"/>
                  <path id="Trazado_998923" data-name="Trazado 998923" d="M268.806,589.73s20.05-8.773,24.426-12.3,7.178-4.664,9.263-2.468-4.061,17.168-24.963,21.67C277.531,596.63,265.412,597.548,268.806,589.73Z" transform="translate(-247.894 -573.838)" fill="#ffa18a"/>
                  <path id="Trazado_998924" data-name="Trazado 998924" d="M261.026,583.825s8.256,1.06,15.488-3.037c5.627-3.187,9.722-5.788,12.732-5.635a2.666,2.666,0,0,1,2.38,3.246c-.729,3.131-4.792,8.822-23.029,13.928,0,0-11.461,1.368-10.763-6.45Z" transform="translate(-246.409 -574.025)" fill="#ffa18a"/>
                  <path id="Trazado_998925" data-name="Trazado 998925" d="M244.856,575.9s1.177-2.932,4.719-.586,8.581,1.788,11.286,3.02,1.535,9-5.645,8.609S243.142,581.667,244.856,575.9Z" transform="translate(-244.512 -573.919)" fill="#ffa18a"/>
                  <g id="Grupo_1162818" data-name="Grupo 1162818" transform="translate(2.722 9.757)">
                    <path id="Trazado_998926" data-name="Trazado 998926" d="M247.688,585.482c4.061,1.966,8.464,2.406,12.539.543.59-.233,1.135-.561,1.757-.8a12.5,12.5,0,0,1-1.44,1.348,9.774,9.774,0,0,1-12.855-1.085Z" transform="translate(-247.688 -585.22)" fill="#0c0c0c"/>
                  </g>
                  <g id="Grupo_1162819" data-name="Grupo 1162819" transform="translate(10.703 3.589)">
                    <path id="Trazado_998927" data-name="Trazado 998927" d="M291.632,578.025c-1,6.857-9.593,10.736-15.381,13.007-4.873,1.662-10.732,2.668-15.481.028a10.982,10.982,0,0,1-3.774-3.6,11.738,11.738,0,0,0,4.058,3.041c4.712,2.071,10.085.928,14.775-.676,5.589-2.2,13.989-5.521,15.8-11.8Z" transform="translate(-256.997 -578.025)" fill="#0c0c0c"/>
                  </g>
                  <g id="Grupo_1162820" data-name="Grupo 1162820" transform="translate(20.312 7.173)">
                    <path id="Trazado_998928" data-name="Trazado 998928" d="M301.351,582.206c-5.871,8-19.125,20.68-29.633,14.176a14.189,14.189,0,0,1-3.512-3.64,15.935,15.935,0,0,0,3.837,3.1c10.092,5.236,22.536-7.044,29.308-13.64Z" transform="translate(-268.206 -582.206)" fill="#0c0c0c"/>
                  </g>
                </g>
              </g>
            </g>
          </g>
        </g>
        <g id="Grupo_1162858" data-name="Grupo 1162858" transform="translate(0 60.081)">
          <g id="Grupo_1162827" data-name="Grupo 1162827" transform="translate(327.881 214.732)">
            <g id="Grupo_1162826" data-name="Grupo 1162826" transform="translate(0 0.001)">
              <path id="Trazado_998929" data-name="Trazado 998929" d="M43.728,656.869c4.179,10.581,10.024,20.478,15.841,30.318,5.7,9.641,11.422,19.317,18.319,28.171a29.382,29.382,0,0,0,7.338,7.232c2.927,1.813,6.628,2.629,9.68,1.363,4.01-1.664,5.848-6.505,5.415-10.935s-2.665-8.544-4.924-12.466c-6.01-10.436-12.555-20.568-19.1-30.7-4.568-7.072-9.209-14.232-15.383-19.974-2.731-2.54-5.911-4.853-9.523-5.435s-7.675,1.068-8.78,4.479C41.792,651.468,42.715,654.3,43.728,656.869Z" transform="translate(-42.285 -644.124)" fill="#4b7724"/>
              <path id="Trazado_998930" data-name="Trazado 998930" d="M98.281,719.851a2.306,2.306,0,0,0,.76-1.576A13.64,13.64,0,0,0,98,711.163c-.842-2.1-2.178-4.132-3.223-6.172q-1.768-3.442-3.643-6.832-3.693-6.692-7.794-13.133-5.7-8.978-12.167-17.448c-4.065-5.323-8.23-11.071-13.073-15.674a13.431,13.431,0,0,1-2.658-3.088c-.135-.245-.231-.605,0-.76a.553.553,0,0,1,.448-.014c2.129.578,3.678,2.963,5.137,4.521,1.94,2.063,3.818,4.184,5.654,6.345,2.408,2.834,4.749,5.733,7.059,8.651,4.323,5.45,7.868,11.807,11.567,17.7,4.969,7.938,9.977,15.9,14.038,24.334-.85-1.753-1.181-3.764-2.072-5.538-.115-.234-.24-.469-.359-.7-.308-.562-.616-1.123-.933-1.685-.048-.081-.092-.159-.14-.24-.12-.22-.241-.429-.366-.644l-.13-.23c0-.015-.02-.031-.024-.045-.318-.542-.631-1.1-.934-1.655-1.119-2.077-2.366-4.082-3.643-6.067a.071.071,0,0,0-.02-.031c-1.1-1.719-2.232-3.434-3.314-5.163-5.607-8.95-11.242-17.982-17.153-26.693a1.784,1.784,0,0,0-.107-.153,83.451,83.451,0,0,0-5.214-6.635c-.417-.408-.834-.826-1.231-1.254-.519-.567-1.027-1.144-1.531-1.705-.427-.429-.868-.853-1.311-1.266-2.683-2.495-5.989-4.869-9.648-5.613a9.923,9.923,0,0,0-1.349-.181,3.888,3.888,0,0,0-.488-.008,9.381,9.381,0,0,0-1.2.1,2.475,2.475,0,0,0-.389.065,6.905,6.905,0,0,0-2.528,1.047,6.2,6.2,0,0,0-.627.487c-.118.093-.226.185-.334.288a4.409,4.409,0,0,0-.362.383,3.121,3.121,0,0,0-.285.35,1.154,1.154,0,0,0-.135.188,8.3,8.3,0,0,0-.962,6.673,35.007,35.007,0,0,0,2.88,7.4c1.2,2.532,2.493,5.021,3.767,7.519a105.684,105.684,0,0,0,6.371,11.5c-.632-1.275-1.258-2.554-1.889-3.828-3.1-6.325-6.221-12.665-8.713-19.256a2.306,2.306,0,0,1-.225-1.248.456.456,0,0,1,.21-.337.534.534,0,0,1,.485.108,6.047,6.047,0,0,1,1.51,1.569c1.721,2.349,2.6,4.953,3.812,7.555,4.064,8.689,8.469,17.231,13.38,25.479a252.844,252.844,0,0,0,17.027,24.7,40.639,40.639,0,0,0,6.5,7.081c.4.322.819.635,1.244.927a7.184,7.184,0,0,0,3.345,1.415c-.617-.061-2.093-2.183-2.688-2.912-.049-.062-.087-.113-.122-.149-.92-1.03-1.829-2.07-2.728-3.13q-2.681-3.163-5.193-6.469c-2.853-3.737-5.384-7.662-8.155-11.426a129.3,129.3,0,0,1-7.973-12.247c-2.958-5.148-5.824-10.315-8.6-15.554-2.937-5.541-6.148-11.234-8.041-17.226-.135-.421-.18-1.026.242-1.171.356-.122.684.224.892.537a178.6,178.6,0,0,1,10.587,18.025c3.091,5.826,5.842,11.719,9.139,17.419a176.782,176.782,0,0,0,11.461,17.706c1.926,2.575,4.038,5.025,6.087,7.534a53.36,53.36,0,0,0,3.983,4.41,33.237,33.237,0,0,0,3.5,3.018,41.3,41.3,0,0,0-3.063-5.332c-.7-1.08-1.424-2.14-2.146-3.23-1.952-2.964-3.836-5.981-5.691-9.018-3.7-6.069-7.259-12.228-10.834-18.379-3.286-5.66-6.588-11.315-10.037-16.889-3.353-5.41-7.065-10.568-10.392-16.012a1.159,1.159,0,0,1-.222-.554.415.415,0,0,1,.333-.444.61.61,0,0,1,.446.283c3.17,3.73,5.88,7.74,8.665,11.736,2.961,4.232,5.844,8.529,8.743,12.8A250.789,250.789,0,0,1,83.53,699.093c2.113,3.909,4.1,7.9,6.28,11.765.582,1.036,1.122,2.162,1.672,3.3,1.281,2.64,2.635,5.337,4.787,7.178a8.185,8.185,0,0,1-.613-2.195c-.246-.807-.5-1.613-.773-2.4q-.841-2.5-1.856-4.919c-.569-1.363-1.4-2.491-2.015-3.826-.772-1.661-1.576-3.312-2.374-4.957a187.3,187.3,0,0,0-9.876-17.69c-3.4-5.406-7.027-10.672-10.8-15.822-3.7-5.057-7.385-10.284-11.515-14.995a20.955,20.955,0,0,1-2.553-3.256c.151-.2.484-.038.67.138,2.2,1.989,4.318,4.082,6.335,6.256,1.782,1.928,3.332,4.087,5.021,6.1q5.522,6.619,10.416,13.7c.8,1.163,1.6,2.336,2.39,3.529a198.018,198.018,0,0,1,10.751,18.085c3.108,5.957,6.248,12.217,7.982,18.723.055.2.105.4.151.6A2.818,2.818,0,0,0,98.281,719.851Z" transform="translate(-42.283 -644.089)" fill="#609c30"/>
            </g>
            <path id="Trazado_998931" data-name="Trazado 998931" d="M100.316,713.029a25.078,25.078,0,0,0-2.995-8.969c-.115-.234-.24-.469-.359-.7-.308-.562-.616-1.123-.933-1.685-.048-.081-.092-.159-.14-.24-.12-.219-.241-.429-.366-.644l-.13-.23c0-.016-.02-.031-.024-.045q-2.248-3.885-4.577-7.722a.07.07,0,0,0-.02-.031c-4.672-7.718-9.575-15.307-14.477-22.9-1.945-3.009-3.9-6.038-5.989-8.96a1.766,1.766,0,0,0-.107-.154,83.461,83.461,0,0,0-5.214-6.635q-1.327-1.537-2.762-2.959c-.427-.429-.868-.853-1.311-1.266-2.683-2.495-5.989-4.869-9.648-5.613a9.923,9.923,0,0,0-1.349-.181,3.9,3.9,0,0,0-.488-.008,5.876,5.876,0,0,0-1.2.1,2.475,2.475,0,0,0-.389.065,7.181,7.181,0,0,0-1.865.7,8.866,8.866,0,0,0-1.289.832c-.118.093-.226.185-.334.288a4.417,4.417,0,0,0-.362.383,3.127,3.127,0,0,0-.285.35.533.533,0,0,0-.068.084.8.8,0,0,0-.069.1c-.524.8-.508,1.758-.951,2.522a3.287,3.287,0,0,1,.6-.709,9.725,9.725,0,0,1,2.687-1.757s3.926-3.139,8.347,6.515l-.005.005a240.855,240.855,0,0,1,16.518,22.793c7.081,10.906,14.025,21.687,19.478,33.532a14.118,14.118,0,0,1,1.279,4.26,18.306,18.306,0,0,1,.114,3.012c0,.04-.007.086-.009.126a6.8,6.8,0,0,1-.432,2.314,3.283,3.283,0,0,1-.4.724,3.468,3.468,0,0,1-1.174,1.017,4.916,4.916,0,0,1-1.9.57,4.136,4.136,0,0,1-.61.03,13.154,13.154,0,0,1-4.063-.92,12.887,12.887,0,0,0,7.212,3.492,8.982,8.982,0,0,0,4.639-.55C98.91,722.3,100.75,717.463,100.316,713.029Z" transform="translate(-42.331 -644.088)" fill="#0c0c0c" opacity="0.3"/>
          </g>
          <g id="Grupo_1162834" data-name="Grupo 1162834" transform="translate(51.272 73.09)">
            <g id="Grupo_1162828" data-name="Grupo 1162828">
              <path id="Trazado_998932" data-name="Trazado 998932" d="M55.259,519.157s-1.661-5.462-5.133-4.007a3.7,3.7,0,0,0-2.177,3.141,5.507,5.507,0,0,0,3.866,6.154l-3.557,5.934s-10.6,2.4-13.815-10.27,3.713-21.57,15.757-24.472,29.347-.161,38.992,12.3,3.563,25.936-.688,29.756-12.9,7.637-19.761-.286l1.871-5.972s2.833,3.37,6.6-1.163a3.942,3.942,0,0,0,.685-4.008c-.593-1.4-2.067-2.406-5.686.057Z" transform="translate(-33.66 -494.579)" fill="#eacaad"/>
              <path id="Trazado_998933" data-name="Trazado 998933" d="M61.752,554.16l-15.384-6a3.948,3.948,0,0,1-1.888-5.806l2.09-3.268,0-.008L56.715,523.25l16.959,7.162-6.442,20.557-.206.659A4.009,4.009,0,0,1,61.752,554.16Z" transform="translate(-35.115 -498.67)" fill="#eacaad"/>
            </g>
            <path id="Trazado_998934" data-name="Trazado 998934" d="M61.752,556.8l-15.384-6a3.948,3.948,0,0,1-1.888-5.806l2.09-3.268c-.091.343-2.242,9.036,11.255,11.255a43.278,43.278,0,0,0,9.408.626l-.206.659A4.009,4.009,0,0,1,61.752,556.8Z" transform="translate(-35.115 -501.307)" fill="#0c0c0c" opacity="0.5"/>
            <g id="Grupo_1162829" data-name="Grupo 1162829" transform="translate(3.427 3.704)" opacity="0.5">
              <path id="Trazado_998935" data-name="Trazado 998935" d="M59.612,499.562s-16.436.74-19.876,14.9a1.031,1.031,0,0,1-1.976.063c-.231-.728-.118-2.012.824-4.253C41.123,504.233,47.971,496.589,59.612,499.562Z" transform="translate(-37.657 -498.899)" fill="#fff"/>
              <path id="Trazado_998936" data-name="Trazado 998936" d="M71.181,501.619c-.232.6-1.28.744-2.34.331s-1.73-1.231-1.5-1.827,1.28-.744,2.34-.331S71.413,501.023,71.181,501.619Z" transform="translate(-41.887 -498.993)" fill="#fff"/>
            </g>
            <g id="Grupo_1162833" data-name="Grupo 1162833" transform="translate(13.495 20.336)">
              <g id="Grupo_1162832" data-name="Grupo 1162832">
                <g id="Grupo_1162830" data-name="Grupo 1162830" transform="translate(20.804 10.035)">
                  <path id="Trazado_998937" data-name="Trazado 998937" d="M82.792,530.239a6.692,6.692,0,0,0-2.511.244,5.718,5.718,0,0,0-2.149,1.144l.106-.155c-.634,2.291-1.335,4.56-2.08,6.815s-1.563,4.489-2.49,6.688c.494-2.334,1.1-4.634,1.772-6.912.685-2.313,1.418-4.611,2.218-6.888a5.826,5.826,0,0,1,5.133-.935Z" transform="translate(-73.669 -530.006)" fill="#af8158"/>
                </g>
                <g id="Grupo_1162831" data-name="Grupo 1162831">
                  <path id="Trazado_998938" data-name="Trazado 998938" d="M53.742,518.3c2.227.1,3.517,2.384,4.137,4.281-1.319,2.2-2.7,4.354-4.112,6.488-1.386,2.086-2.828,4.136-4.365,6.125,1.165-2.228,2.425-4.394,3.74-6.526s2.672-4.237,4.081-6.308l-.039.279c-.49-1.8-1.448-3.894-3.442-4.34Z" transform="translate(-49.402 -518.3)" fill="#af8158"/>
                </g>
              </g>
            </g>
          </g>
          <g id="Grupo_1162841" data-name="Grupo 1162841" transform="translate(452.733 0)">
            <g id="Grupo_1162835" data-name="Grupo 1162835">
              <path id="Trazado_998939" data-name="Trazado 998939" d="M521.225,434.39s-3.86-2.475-5.226.224a2.977,2.977,0,0,0,.305,3.055,4.424,4.424,0,0,0,5.57,1.749l.916,5.482s-5.235,6.989-13.8.916-8.966-15.123-3.113-23.172,17.861-15.386,30.25-12.79,15.689,14,15.079,18.553S547.3,439.8,538.978,438.525l-1.967-4.626s3.488.585,3.432-4.152a3.166,3.166,0,0,0-1.669-2.808c-1.093-.549-2.517-.394-3.447,3Z" transform="translate(-501.951 -409.322)" fill="#eacaad"/>
              <path id="Trazado_998940" data-name="Trazado 998940" d="M543.616,454.1l-12.531,4.346a3.172,3.172,0,0,1-4.179-2.568l-.423-3.087,0-.006-2.045-14.964,14.1-4.454,6.769,15.926.218.51A3.221,3.221,0,0,1,543.616,454.1Z" transform="translate(-505.16 -412.753)" fill="#eacaad"/>
            </g>
            <path id="Trazado_998941" data-name="Trazado 998941" d="M543.957,456.749,531.426,461.1a3.172,3.172,0,0,1-4.179-2.568l-.423-3.087c.123.257,3.336,6.693,12.745,1.019a34.768,34.768,0,0,0,6.079-4.519l.218.51A3.223,3.223,0,0,1,543.957,456.749Z" transform="translate(-505.5 -415.404)" fill="#0c0c0c" opacity="0.5"/>
            <g id="Grupo_1162836" data-name="Grupo 1162836" transform="translate(3.01 7.625)" opacity="0.5">
              <path id="Trazado_998942" data-name="Trazado 998942" d="M513.51,421.848s-9.665,9.014-4.39,19.466a.828.828,0,0,1-1.175,1.068c-.52-.325-1.12-1.169-1.712-3.03C504.638,434.335,504.843,426.094,513.51,421.848Z" transform="translate(-505.462 -418.735)" fill="#fff"/>
              <path id="Trazado_998943" data-name="Trazado 998943" d="M520.752,418.707c.168.485-.4,1.122-1.258,1.421s-1.7.148-1.867-.337.394-1.121,1.258-1.421S520.584,418.222,520.752,418.707Z" transform="translate(-507.194 -418.217)" fill="#fff"/>
            </g>
            <g id="Grupo_1162840" data-name="Grupo 1162840" transform="translate(14.763 17.385)">
              <g id="Grupo_1162839" data-name="Grupo 1162839">
                <g id="Grupo_1162837" data-name="Grupo 1162837" transform="translate(18.344)">
                  <path id="Trazado_998944" data-name="Trazado 998944" d="M543.219,429.6a5.4,5.4,0,0,0-1.408,1.457,4.342,4.342,0,0,0-.72,1.818l-.015-.149c.809,1.729,1.56,3.483,2.28,5.25s1.379,3.56,1.962,5.386c-.911-1.686-1.734-3.409-2.517-5.15-.785-1.772-1.538-3.558-2.231-5.369a4.705,4.705,0,0,1,2.65-3.244Z" transform="translate(-540.569 -429.601)" fill="#af8158"/>
                </g>
                <g id="Grupo_1162838" data-name="Grupo 1162838" transform="translate(0 6.494)">
                  <path id="Trazado_998945" data-name="Trazado 998945" d="M519.171,437.732c1.406-1.1,3.389-.362,4.76.462.337,2.03.62,4.067.866,6.109.23,2,.428,4,.521,6.019-.45-1.966-.8-3.95-1.112-5.938s-.574-3.982-.79-5.983l.121.19c-1.237-.857-2.9-1.619-4.365-.859Z" transform="translate(-519.171 -437.176)" fill="#af8158"/>
                </g>
              </g>
            </g>
          </g>
          <g id="Grupo_1162851" data-name="Grupo 1162851" transform="translate(439.829 133.038)">
            <path id="Trazado_998946" data-name="Trazado 998946" d="M552.707,564.506l-33.7,67.9L530,630.384l31.2-61.752Z" transform="translate(-491.482 -564.506)" fill="#4b7724"/>
            <path id="Trazado_998947" data-name="Trazado 998947" d="M530.4,566.526l-12.12,71.941,10.142-4.744,10.818-66.243Z" transform="translate(-491.378 -564.794)" fill="#609c30"/>
            <path id="Trazado_998948" data-name="Trazado 998948" d="M513.478,573.666l9.391.092-3.511,60.152L508.74,650.573Z" transform="translate(-490.016 -565.813)" fill="#4b7724"/>
            <path id="Trazado_998949" data-name="Trazado 998949" d="M572.6,600.538,521.238,641.4a4.739,4.739,0,0,0-1.661,2.7l-6.293,30.023L502.5,725.512a7.357,7.357,0,0,1-3.345,4.818c-4.44,2.674-8.059.243-10.064-1.8a7.726,7.726,0,0,1-2.194-5.316c-.079-9.981,7.4-35.354,13.033-53.078,3.428-10.744,6.182-18.679,6.182-18.679,4.929-15.932,8.407-18.282,8.407-18.282l54.183-43.345Z" transform="translate(-486.899 -568.12)" fill="#609c30"/>
            <path id="Trazado_998950" data-name="Trazado 998950" d="M513.283,687.5l-10.7,50.991-.085.39a7.357,7.357,0,0,1-3.345,4.818c-4.44,2.674-8.059.243-10.064-1.8a7.726,7.726,0,0,1-2.194-5.316c0-.7.03-1.466.105-2.3.85-11.179,7.68-34.282,12.927-50.779C502.49,686.119,506.618,688.048,513.283,687.5Z" transform="translate(-486.899 -581.488)" fill="#bbc957"/>
            <path id="Trazado_998951" data-name="Trazado 998951" d="M502.587,746.943l-.085.39a7.357,7.357,0,0,1-3.345,4.818c-4.44,2.674-8.059.243-10.064-1.8a7.726,7.726,0,0,1-2.194-5.316c0-.7.03-1.466.105-2.3A31.013,31.013,0,0,0,502.587,746.943Z" transform="translate(-486.899 -589.941)" fill="#e7eda2"/>
            <g id="Grupo_1162850" data-name="Grupo 1162850" transform="translate(25.501 2.074)" opacity="0.5">
              <g id="Grupo_1162842" data-name="Grupo 1162842" transform="translate(3.818 53.726)">
                <path id="Trazado_998952" data-name="Trazado 998952" d="M521.1,637.493a27.657,27.657,0,0,1,9.872-7.9,27.623,27.623,0,0,1-9.872,7.9Z" transform="translate(-521.098 -629.595)" fill="#0c0c0c"/>
              </g>
              <g id="Grupo_1162843" data-name="Grupo 1162843" transform="translate(33.409 22.705)">
                <path id="Trazado_998953" data-name="Trazado 998953" d="M579.628,593.41a167.466,167.466,0,0,1-24.013,20.039,167.455,167.455,0,0,1,24.013-20.039Z" transform="translate(-555.615 -593.41)" fill="#0c0c0c"/>
              </g>
              <g id="Grupo_1162844" data-name="Grupo 1162844" transform="translate(46.922 26.489)">
                <path id="Trazado_998954" data-name="Trazado 998954" d="M583.254,597.823a41.657,41.657,0,0,1-11.876,10.021,41.655,41.655,0,0,1,11.876-10.021Z" transform="translate(-571.378 -597.823)" fill="#0c0c0c"/>
              </g>
              <g id="Grupo_1162845" data-name="Grupo 1162845" transform="translate(28.684 0.667)">
                <path id="Trazado_998955" data-name="Trazado 998955" d="M562.785,567.7A128.24,128.24,0,0,1,550.1,591.947,128.269,128.269,0,0,1,562.785,567.7Z" transform="translate(-550.104 -567.703)" fill="#0c0c0c"/>
              </g>
              <g id="Grupo_1162846" data-name="Grupo 1162846" transform="translate(23.489 27.686)">
                <path id="Trazado_998956" data-name="Trazado 998956" d="M547.335,599.22a9.019,9.019,0,0,1-3.291,6.294,9.021,9.021,0,0,1,3.291-6.294Z" transform="translate(-544.044 -599.22)" fill="#0c0c0c"/>
              </g>
              <g id="Grupo_1162847" data-name="Grupo 1162847" transform="translate(13.451)">
                <path id="Trazado_998957" data-name="Trazado 998957" d="M535.582,566.925a81.85,81.85,0,0,1-3.247,21.594,81.865,81.865,0,0,1,3.247-21.594Z" transform="translate(-532.335 -566.925)" fill="#0c0c0c"/>
              </g>
              <g id="Grupo_1162848" data-name="Grupo 1162848" transform="translate(0 6.088)">
                <path id="Trazado_998958" data-name="Trazado 998958" d="M517.464,574.026a29.509,29.509,0,0,1-.171,13.046,29.5,29.5,0,0,1,.171-13.046Z" transform="translate(-516.645 -574.026)" fill="#0c0c0c"/>
              </g>
              <g id="Grupo_1162849" data-name="Grupo 1162849" transform="translate(2.41 16.974)">
                <path id="Trazado_998959" data-name="Trazado 998959" d="M521.365,586.725a128.229,128.229,0,0,1-1.8,27.3,128.228,128.228,0,0,1,1.8-27.3Z" transform="translate(-519.456 -586.725)" fill="#0c0c0c"/>
              </g>
            </g>
          </g>
          <g id="Grupo_1162857" data-name="Grupo 1162857" transform="translate(0 195.261)">
            <path id="Trazado_998960" data-name="Trazado 998960" d="M410.982,696.1l-9.917-19.4,7.295-4.6s5.016,11.851,3.638,24.159Z" transform="translate(-356.167 -670.999)" fill="#609c30"/>
            <path id="Trazado_998961" data-name="Trazado 998961" d="M415.56,696.362s14.76-15.873,23.45-20.581l-7.163-4.966s-15.316,12.835-18.029,25.263Z" transform="translate(-357.987 -670.815)" fill="#4b7724"/>
            <path id="Trazado_998962" data-name="Trazado 998962" d="M409.94,697.107a58.69,58.69,0,0,1-24.261-8.506c-12.583-7.733-36.167.444-36.966,27.554s23.071,51.9,60.406,48.467c20.889-1.919,31.695-13.446,37.162-23.228a38.073,38.073,0,0,0,3.271-29.914c-2.359-7.5-7.365-15.3-17.91-17.253a20.663,20.663,0,0,0-9.283.508C418.433,695.825,412.166,697.414,409.94,697.107Z" transform="translate(-348.693 -672.957)" fill="#ff312b"/>
            <path id="Trazado_998963" data-name="Trazado 998963" d="M409.564,701.095a53.6,53.6,0,0,1-22.157-7.769c-11.492-7.061-33.031.406-33.761,25.165s21.07,47.4,55.168,44.264c19.077-1.753,28.946-12.28,33.938-21.214a34.771,34.771,0,0,0,2.988-27.319c-2.154-6.854-6.726-13.972-16.357-15.756a18.872,18.872,0,0,0-8.478.463C417.32,699.924,411.6,701.375,409.564,701.095Z" transform="translate(-349.397 -673.666)" fill="#f45656"/>
            <g id="Grupo_1162856" data-name="Grupo 1162856" transform="translate(7.084 21.686)">
              <g id="Grupo_1162853" data-name="Grupo 1162853">
                <path id="Trazado_998964" data-name="Trazado 998964" d="M395.563,717.36a9.932,9.932,0,0,0,3.153-1.774c2.427-2.117,4.932-6.613-2.972-14.094-11.648-11.024-29.473-3.014-34.414,5.344-3.416,5.777-9.165,23.723,3.085,37.4a23.969,23.969,0,0,0,9.775,6.7c4.133,1.462,9.519,2.009,12.155-3.4C390.879,738.229,379.036,723.394,395.563,717.36Z" transform="translate(-356.957 -696.111)" fill="#c12d2d"/>
                <g id="Grupo_1162852" data-name="Grupo 1162852" transform="translate(7.697 9.949)">
                  <path id="Trazado_998965" data-name="Trazado 998965" d="M391.743,714.675c.038-2.041-.273-5.551-2.7-6.777a1.789,1.789,0,0,0-2.547,1.7,6.871,6.871,0,0,0,3.714,5.935A1.016,1.016,0,0,0,391.743,714.675Z" transform="translate(-368.87 -707.715)" fill="#ff9339"/>
                  <path id="Trazado_998966" data-name="Trazado 998966" d="M380.528,721.482c-1.225-2.655-3.853-7.052-7.86-7.181a2.676,2.676,0,0,0-2.538,3.515c.81,2.53,3.018,5.828,9.033,5.791A1.5,1.5,0,0,0,380.528,721.482Z" transform="translate(-366.515 -708.655)" fill="#ff9339"/>
                  <path id="Trazado_998967" data-name="Trazado 998967" d="M373.684,733.792c-1.538-1.017-4.283-2.349-6.75-1.047a1.807,1.807,0,0,0-.117,3.168c1.436.867,3.742,1.445,6.833-.363A1.041,1.041,0,0,0,373.684,733.792Z" transform="translate(-365.935 -711.21)" fill="#ff9339"/>
                  <path id="Trazado_998968" data-name="Trazado 998968" d="M379.979,744.531a6.338,6.338,0,0,0-4.77,1.847,1.746,1.746,0,0,0,1.1,2.816,4.3,4.3,0,0,0,4.907-2.846A1.315,1.315,0,0,0,379.979,744.531Z" transform="translate(-367.203 -712.969)" fill="#ff9339"/>
                </g>
              </g>
              <g id="Grupo_1162855" data-name="Grupo 1162855" transform="translate(47.253 6.289)">
                <path id="Trazado_998969" data-name="Trazado 998969" d="M415.523,720.384A9.93,9.93,0,0,1,413.1,717.7c-1.626-2.78-2.569-7.839,7.3-12.414,14.552-6.741,28.9,6.528,30.921,16.025,1.4,6.565,1.133,25.407-14.833,34.466a23.959,23.959,0,0,1-11.4,3.235c-4.383.069-9.663-1.127-10.44-7.091C413.317,741.658,429.268,731.367,415.523,720.384Z" transform="translate(-412.075 -703.447)" fill="#c12d2d"/>
                <g id="Grupo_1162854" data-name="Grupo 1162854" transform="translate(12.398 9.797)">
                  <path id="Trazado_998970" data-name="Trazado 998970" d="M426.586,720.458c.615-1.947,2.027-5.175,4.714-5.566a1.789,1.789,0,0,1,1.875,2.418,6.87,6.87,0,0,1-5.41,4.443A1.016,1.016,0,0,1,426.586,720.458Z" transform="translate(-426.537 -714.875)" fill="#ff9339"/>
                  <path id="Trazado_998971" data-name="Trazado 998971" d="M434.145,730.412c2.007-2.127,5.9-5.458,9.737-4.3a2.675,2.675,0,0,1,1.287,4.14c-1.573,2.141-4.718,4.563-10.407,2.613A1.5,1.5,0,0,1,434.145,730.412Z" transform="translate(-427.565 -716.444)" fill="#ff9339"/>
                  <path id="Trazado_998972" data-name="Trazado 998972" d="M437.387,744.217c1.781-.474,4.809-.862,6.732,1.157a1.807,1.807,0,0,1-.9,3.04c-1.637.363-4.008.178-6.36-2.52A1.04,1.04,0,0,1,437.387,744.217Z" transform="translate(-427.975 -719.008)" fill="#ff9339"/>
                  <path id="Trazado_998973" data-name="Trazado 998973" d="M428.33,752.329a6.334,6.334,0,0,1,3.933,3.27,1.746,1.746,0,0,1-1.937,2.32,4.3,4.3,0,0,1-3.745-4.261A1.315,1.315,0,0,1,428.33,752.329Z" transform="translate(-426.543 -720.209)" fill="#ff9339"/>
                </g>
              </g>
            </g>
          </g>
        </g>
        <g id="Grupo_1162877" data-name="Grupo 1162877" transform="translate(151.799 80.696)">
          <g id="Grupo_1162876" data-name="Grupo 1162876" transform="translate(0 0)">
            <path id="Trazado_998983" data-name="Trazado 998983" d="M94.161,146.2s31.225-4.525,28.027-21.453a6.114,6.114,0,0,0-7.524-4.707s5.418-10.418-1.984-13.283S96.546,117.7,96.546,117.7s-5.606-10.273-13.409-4.863S79.623,137.772,94.161,146.2Z" transform="translate(-79.296 -106.367)" fill="#bfb464"/>
            <g id="Grupo_1162873" data-name="Grupo 1162873" transform="translate(13.512 9.188)">
              <path id="Trazado_998984" data-name="Trazado 998984" d="M111.2,117.085c-6.593,11.3-12.94,22.993-16.14,35.752,1.931-13.087,8.452-25.156,16.14-35.752Z" transform="translate(-95.057 -117.085)" fill="#2b0301"/>
            </g>
            <g id="Grupo_1162874" data-name="Grupo 1162874" transform="translate(19.901 20.671)">
              <path id="Trazado_998985" data-name="Trazado 998985" d="M116.765,130.479c-3.068,4.327-8.967,7.326-14.255,5.635a24.159,24.159,0,0,0,2.967-.123c4.25-.576,8-2.833,11.288-5.512Z" transform="translate(-102.51 -130.479)" fill="#2b0301"/>
            </g>
            <g id="Grupo_1162875" data-name="Grupo 1162875" transform="translate(7.427 14.019)">
              <path id="Trazado_998986" data-name="Trazado 998986" d="M87.992,122.72c.886,6.067,3.135,12.232,7.824,16.366.617.634,1.4,1.114,2.081,1.686-6.8-2.977-10.322-10.9-9.906-18.052Z" transform="translate(-87.959 -122.72)" fill="#2b0301"/>
            </g>
          </g>
        </g>
        <g id="Grupo_1162878" data-name="Grupo 1162878" transform="translate(40.716 26.372)">
          <path id="Trazado_998987" data-name="Trazado 998987" d="M63.38,370.095a4.7,4.7,0,1,1-4.7-4.7A4.7,4.7,0,0,1,63.38,370.095Z" transform="translate(16.112 -67.265)" fill="#bc486f"/>
          <circle id="Elipse_11778" data-name="Elipse 11778" cx="6.86" cy="6.86" r="6.86" transform="translate(409.84 4.152) rotate(-17.614)" fill="#fff"/>
          <circle id="Elipse_11779" data-name="Elipse 11779" cx="6.86" cy="6.86" r="6.86" transform="translate(0 242.207)" fill="#fff"/>
          <circle id="Elipse_11780" data-name="Elipse 11780" cx="6.86" cy="6.86" r="6.86" transform="translate(46.942 141.849) rotate(-45)" fill="#fff"/>
          <circle id="Elipse_11781" data-name="Elipse 11781" cx="4.427" cy="4.427" r="4.427" transform="translate(410.931 354.992)" fill="#fff"/>
          <circle id="Elipse_11782" data-name="Elipse 11782" cx="3.43" cy="3.43" r="3.43" transform="translate(319.157 20.385)" fill="#4b7724"/>
          <path id="Trazado_998988" data-name="Trazado 998988" d="M155.084,154.133a3.43,3.43,0,1,1-3.43-3.43A3.43,3.43,0,0,1,155.084,154.133Z" transform="translate(-61.881 -15.715)" fill="#bc486f"/>
          <path id="Trazado_998989" data-name="Trazado 998989" d="M527.964,522.678a3.43,3.43,0,1,1-3.43-3.43A3.43,3.43,0,0,1,527.964,522.678Z" transform="translate(-130.809 -250.101)" fill="#bc486f"/>
          <circle id="Elipse_11783" data-name="Elipse 11783" cx="3.43" cy="3.43" r="3.43" transform="translate(118.177 35.275)" fill="#f45656"/>
          <circle id="Elipse_11784" data-name="Elipse 11784" cx="3.788" cy="3.788" r="3.788" transform="translate(42.096 76.251)" fill="#fff"/>
        </g>
      </g>
    </g>
  </g>
</svg>
