<svg xmlns="http://www.w3.org/2000/svg" xmlns:xlink="http://www.w3.org/1999/xlink" width="108" height="108" viewBox="0 0 108 108">
  <defs>
    <filter id="Fondo" x="0" y="0" width="108" height="108" filterUnits="userSpaceOnUse">
      <feOffset dy="3" input="SourceAlpha"/>
      <feGaussianBlur stdDeviation="3" result="blur"/>
      <feFlood flood-opacity="0.161"/>
      <feComposite operator="in" in2="blur"/>
      <feComposite in="SourceGraphic"/>
    </filter>
  </defs>
  <g id="Grupo_1162682" data-name="Grupo 1162682" transform="translate(-198.228 -8819)">
    <g id="Grupo_1158111" data-name="Grupo 1158111" transform="translate(1.542 7633)">
      <g transform="matrix(1, 0, 0, 1, 196.69, 1186)" filter="url(#Fondo)">
        <g id="Fondo-2" data-name="Fondo" transform="translate(9 6)" fill="#edf3fc">
          <path d="M 45 88.5 C 39.12687683105469 88.5 33.43022537231445 87.35007476806641 28.06830024719238 85.08217620849609 C 22.88852500915527 82.89131164550781 18.23629951477051 79.75458526611328 14.2408504486084 75.75914764404297 C 10.24541282653809 71.76370239257812 7.108687400817871 67.11147308349609 4.917825222015381 61.93170166015625 C 2.649924993515015 56.56977462768555 1.5 50.87312316894531 1.5 45 C 1.5 39.12687683105469 2.649924993515015 33.43022537231445 4.917825222015381 28.06830024719238 C 7.108687400817871 22.88852500915527 10.24541282653809 18.23629951477051 14.2408504486084 14.2408504486084 C 18.23629951477051 10.24541282653809 22.88852500915527 7.108687400817871 28.06830024719238 4.917825222015381 C 33.43022537231445 2.649924993515015 39.12687683105469 1.5 45 1.5 C 50.87312316894531 1.5 56.56977462768555 2.649924993515015 61.93170166015625 4.917825222015381 C 67.11147308349609 7.108687400817871 71.76370239257812 10.24541282653809 75.75914764404297 14.2408504486084 C 79.75458526611328 18.23629951477051 82.89131164550781 22.88852500915527 85.08217620849609 28.06830024719238 C 87.35007476806641 33.43022537231445 88.5 39.12687683105469 88.5 45 C 88.5 50.87312316894531 87.35007476806641 56.56977462768555 85.08217620849609 61.93170166015625 C 82.89131164550781 67.11147308349609 79.75458526611328 71.76370239257812 75.75914764404297 75.75914764404297 C 71.76370239257812 79.75458526611328 67.11147308349609 82.89131164550781 61.93170166015625 85.08217620849609 C 56.56977462768555 87.35007476806641 50.87312316894531 88.5 45 88.5 Z" stroke="none"/>
          <path d="M 45 3 C 39.32871246337891 3 33.82865524291992 4.110054016113281 28.65262985229492 6.299339294433594 C 23.65165710449219 8.414573669433594 19.15968322753906 11.44334411621094 15.301513671875 15.301513671875 C 11.44334411621094 19.15968322753906 8.414573669433594 23.65165710449219 6.299339294433594 28.65262985229492 C 4.110054016113281 33.82865524291992 3 39.32871246337891 3 45 C 3 50.67128753662109 4.110054016113281 56.17134475708008 6.299339294433594 61.34737396240234 C 8.414573669433594 66.34834289550781 11.44334411621094 70.84031677246094 15.301513671875 74.698486328125 C 19.15968322753906 78.55665588378906 23.65165710449219 81.58542633056641 28.65262985229492 83.70066070556641 C 33.82865524291992 85.88994598388672 39.32871246337891 87 45 87 C 50.67128753662109 87 56.17134475708008 85.88994598388672 61.34737396240234 83.70066070556641 C 66.34834289550781 81.58542633056641 70.84031677246094 78.55665588378906 74.698486328125 74.698486328125 C 78.55665588378906 70.84031677246094 81.58542633056641 66.34834289550781 83.70066070556641 61.34737396240234 C 85.88994598388672 56.17134475708008 87 50.67128753662109 87 45 C 87 39.32871246337891 85.88994598388672 33.82865524291992 83.70066070556641 28.65262985229492 C 81.58542633056641 23.65165710449219 78.55665588378906 19.15968322753906 74.698486328125 15.301513671875 C 70.84031677246094 11.44334411621094 66.34834289550781 8.414573669433594 61.34737396240234 6.299339294433594 C 56.17134475708008 4.110054016113281 50.67128753662109 3 45 3 M 45 0 C 69.85281372070312 0 90 20.14718627929688 90 45 C 90 69.85281372070312 69.85281372070312 90 45 90 C 20.14718627929688 90 0 69.85281372070312 0 45 C 0 20.14718627929688 20.14718627929688 0 45 0 Z" stroke="none" fill="#5692e8"/>
        </g>
      </g>
    </g>
    <g id="codigo-de-barras_1_" data-name="codigo-de-barras (1)" transform="translate(227.228 8835)">
      <path id="Trazado_998642" data-name="Trazado 998642" d="M24.286,2.949v1.9a.952.952,0,0,1-.949.949H11.949A.952.952,0,0,1,11,4.847v-1.9A.952.952,0,0,1,11.949,2H23.337A.952.952,0,0,1,24.286,2.949Z" transform="translate(-0.51 -0.051)" fill="#cf9e76"/>
      <path id="Trazado_998643" data-name="Trazado 998643" d="M28.411,20.928a7.609,7.609,0,0,1,2.942,2.885,15.022,15.022,0,0,0-2.619,6.5,12.244,12.244,0,0,0-.133,1.31H26.238a9.491,9.491,0,0,0-18.107,0H2V27.59a7.584,7.584,0,0,1,3.957-6.662l6.482-3.54V6h9.49V17.388Z" transform="translate(-0.051 -0.255)" fill="#69d6f4"/>
      <path id="Trazado_998644" data-name="Trazado 998644" d="M32.369,54v3.8a3.8,3.8,0,0,1-3.8,3.8H5.8A3.8,3.8,0,0,1,2,57.8V54Z" transform="translate(-0.051 -2.702)" fill="#69d6f4"/>
      <path id="Trazado_998645" data-name="Trazado 998645" d="M26.238,32.643H28.6a15.071,15.071,0,0,0,1.927,8.38l-1.87,5.609a1.528,1.528,0,0,0-.085.512A1.632,1.632,0,0,0,30.2,48.776a1.528,1.528,0,0,0,.512-.085l1.651-.55v4.432H2V32.643H8.131a9.491,9.491,0,0,1,18.107,0Z" transform="translate(-0.051 -1.275)" fill="#e6e9ed"/>
      <circle id="Elipse_11733" data-name="Elipse 11733" cx="5.694" cy="5.694" r="5.694" transform="translate(11.439 28.522)" fill="#ff826e"/>
      <path id="Trazado_998646" data-name="Trazado 998646" d="M43.258,18.114a15.192,15.192,0,1,1-5.5,28.3L33.8,47.732l-1.651.55a1.528,1.528,0,0,1-.512.085A1.632,1.632,0,0,1,30,46.736a1.528,1.528,0,0,1,.085-.512l1.87-5.609a15.071,15.071,0,0,1-1.927-8.38,12.244,12.244,0,0,1,.133-1.31,15.022,15.022,0,0,1,2.619-6.5,15.2,15.2,0,0,1,10.477-6.311Z" transform="translate(-1.478 -0.866)" fill="#fcd770"/>
      <path id="Trazado_998647" data-name="Trazado 998647" d="M35,25h1.9V42.082H35Z" transform="translate(-1.733 -1.224)"/>
      <path id="Trazado_998648" data-name="Trazado 998648" d="M39,25h1.9V42.082H39Z" transform="translate(-1.937 -1.224)"/>
      <path id="Trazado_998649" data-name="Trazado 998649" d="M43,25h1.9V38.286H43Z" transform="translate(-2.141 -1.224)"/>
      <path id="Trazado_998650" data-name="Trazado 998650" d="M47,25h1.9V38.286H47Z" transform="translate(-2.345 -1.224)"/>
      <path id="Trazado_998651" data-name="Trazado 998651" d="M51,25h1.9V42.082H51Z" transform="translate(-2.549 -1.224)"/>
      <path id="Trazado_998652" data-name="Trazado 998652" d="M55,25h1.9V38.286H55Z" transform="translate(-2.753 -1.224)"/>
      <path id="Trazado_998653" data-name="Trazado 998653" d="M55,41h1.9v1.9H55Z" transform="translate(-2.753 -2.039)"/>
      <path id="Trazado_998654" data-name="Trazado 998654" d="M43,41h1.9v1.9H43Z" transform="translate(-2.141 -2.039)"/>
      <path id="Trazado_998655" data-name="Trazado 998655" d="M47,41h1.9v1.9H47Z" transform="translate(-2.345 -2.039)"/>
      <path id="Trazado_998656" data-name="Trazado 998656" d="M9,45H26.082v1.9H9Z" transform="translate(-0.408 -2.243)"/>
      <path id="Trazado_998657" data-name="Trazado 998657" d="M25,49h1.9v1.9H25Z" transform="translate(-1.224 -2.447)"/>
      <path id="Trazado_998658" data-name="Trazado 998658" d="M13,49h9.49v1.9H13Z" transform="translate(-0.612 -2.447)"/>
      <path id="Trazado_998659" data-name="Trazado 998659" d="M9,49h1.9v1.9H9Z" transform="translate(-0.408 -2.447)"/>
      <path id="Trazado_998660" data-name="Trazado 998660" d="M17.643,42.286A6.643,6.643,0,1,0,11,35.643,6.652,6.652,0,0,0,17.643,42.286Zm0-11.388A4.745,4.745,0,1,1,12.9,35.643,4.75,4.75,0,0,1,17.643,30.9Z" transform="translate(-0.51 -1.428)"/>
      <path id="Trazado_998661" data-name="Trazado 998661" d="M55.114,20.909a16.14,16.14,0,0,0-23.78,1.04,8.5,8.5,0,0,0-2.518-2.114L22.827,16.57V6.694a1.9,1.9,0,0,0,1.9-1.9V2.9a1.9,1.9,0,0,0-1.9-1.9H11.439a1.9,1.9,0,0,0-1.9,1.9V4.8a1.9,1.9,0,0,0,1.9,1.9V16.57L5.45,19.835A8.542,8.542,0,0,0,1,27.334v27.76a4.75,4.75,0,0,0,4.745,4.745H28.522a4.75,4.75,0,0,0,4.745-4.745V47.553l2.914-.972A15.983,15.983,0,0,0,43.7,48.452a16.6,16.6,0,0,0,2.4-.177,16.134,16.134,0,0,0,9.01-27.366ZM11.439,2.9H22.827l0,1.9H11.439ZM6.359,21.5,13.337,17.7v-11h7.592v11L27.907,21.5a6.616,6.616,0,0,1,2.249,2.042,15.957,15.957,0,0,0-2.408,6.375c-.025.167-.034.333-.053.5h-.834a10.442,10.442,0,0,0-19.453,0H2.9V27.334A6.64,6.64,0,0,1,6.359,21.5ZM28.522,57.941H5.745A2.851,2.851,0,0,1,2.9,55.094V52.247H31.369v2.847A2.851,2.851,0,0,1,28.522,57.941Zm2.847-7.592H2.9V32.318H8.775l.209-.664a8.543,8.543,0,0,1,16.3,0l.209.664h2.087a15.979,15.979,0,0,0,1.864,7.525L27.7,45.055a2.582,2.582,0,0,0,3.267,3.263l.4-.132ZM57.83,34.125a14.224,14.224,0,0,1-21.092,10.6l-.366-.207-6,2a.693.693,0,0,1-.9-.647.726.726,0,0,1,.034-.216l2-6-.207-.366a14.233,14.233,0,1,1,26.532-5.16Z"/>
    </g>
  </g>
</svg>
