<svg xmlns="http://www.w3.org/2000/svg" xmlns:xlink="http://www.w3.org/1999/xlink" width="220.479" height="172.438" viewBox="0 0 220.479 172.438">
  <defs>
    <filter id="Trazado_991558" x="0" y="0" width="220.479" height="172.438" filterUnits="userSpaceOnUse">
      <feOffset dy="3" input="SourceAlpha"/>
      <feGaussianBlur stdDeviation="3" result="blur"/>
      <feFlood flood-opacity="0.161"/>
      <feComposite operator="in" in2="blur"/>
      <feComposite in="SourceGraphic"/>
    </filter>
  </defs>
  <g id="Grupo_1162994" data-name="Grupo 1162994" transform="translate(-167.662 -9300.35)">
    <g transform="matrix(1, 0, 0, 1, 167.66, 9300.35)" filter="url(#Trazado_991558)">
      <path id="Trazado_991558-2" data-name="Trazado 991558" d="M24.723,121.836c18.836,11.407,43.63,8.412,77.755,4.066,13.324-1.7,13.512-3.7,46.959-10.47,20.858-4.221,24.267-4.329,28.3-7.477,15.2-11.863,8.029-42.524-6.065-62.667C148.749,12.521,96.662-7.909,60.034,2.921,57.546,3.656,30.707,14.022,29,27.047a15.58,15.58,0,0,1-2.617,7.945c-4.155,5.957-11.75,7.424-14.862,8.826C-4.311,50.958-7.206,102.5,24.723,121.836Z" transform="translate(27.06 6) rotate(8)" fill="#9ef0fd"/>
    </g>
    <g id="_08-orange" data-name="08-orange" transform="translate(214.451 9316.006)">
      <path id="Trazado_997515" data-name="Trazado 997515" d="M30.889,20.7C22.591,20.7,14,15.331,14,1,25.26,1,30.889,9.813,30.889,20.7Z" transform="translate(25.448 1.843)" fill="#63b300"/>
      <path id="Trazado_997516" data-name="Trazado 997516" d="M21,9.611a20.4,20.4,0,0,0,28.149,0A20.461,20.461,0,0,0,21,9.611Z" transform="translate(38.152 7.29)" fill="#63b300"/>
      <circle id="Elipse_11664" data-name="Elipse 11664" cx="47.853" cy="47.853" r="47.853" transform="translate(2.854 25.362)" fill="#ff7f00"/>
      <path id="Trazado_997517" data-name="Trazado 997517" d="M103.076,29H18.63A5.371,5.371,0,0,0,13,34.071v5.067c0,22.387,21.424,40.534,47.853,40.534s47.853-18.148,47.853-40.534V34.071A5.371,5.371,0,0,0,103.076,29Z" transform="translate(23.633 52.655)" fill="#f8ef00"/>
      <path id="Trazado_997518" data-name="Trazado 997518" d="M21.339,60.009A39.225,39.225,0,0,0,42.209,70.66a5.655,5.655,0,0,0,6.6-5.559V29L21.663,51.623a5.655,5.655,0,0,0-.324,8.386Z" transform="translate(35.673 52.66)" fill="#ffc501"/>
      <path id="Trazado_997519" data-name="Trazado 997519" d="M16,29v2.815a38.983,38.983,0,0,0,4.222,17.666,5.613,5.613,0,0,0,8.591,1.689L55.408,29Z" transform="translate(29.077 52.66)" fill="#ffc501"/>
      <path id="Trazado_997520" data-name="Trazado 997520" d="M36.6,70.66A39.225,39.225,0,0,0,57.473,60a5.655,5.655,0,0,0-.324-8.386L30,29V65.1a5.655,5.655,0,0,0,6.6,5.559Z" transform="translate(54.486 52.66)" fill="#ffc501"/>
      <path id="Trazado_997521" data-name="Trazado 997521" d="M69.408,29H30L56.6,51.17a5.613,5.613,0,0,0,8.591-1.689,38.984,38.984,0,0,0,4.214-17.666Z" transform="translate(54.486 52.66)" fill="#ffc501"/>
      <circle id="Elipse_11665" data-name="Elipse 11665" cx="47.853" cy="47.853" r="47.853" transform="translate(2.854 25.362)" fill="#ff7f00"/>
      <path id="Trazado_997522" data-name="Trazado 997522" d="M54.468,75.568A47.757,47.757,0,0,1,7.788,17.3,47.822,47.822,0,1,0,95.517,52.2,47.78,47.78,0,0,1,54.468,75.568Z" transform="translate(1.869 31.426)" fill="#e86300"/>
      <ellipse id="Elipse_11666" data-name="Elipse 11666" cx="11.26" cy="4.222" rx="11.26" ry="4.222" transform="translate(42.263 36.622)" fill="#e86300"/>
      <path id="Trazado_997523" data-name="Trazado 997523" d="M53.263,12.5a2.922,2.922,0,0,1,.631,1.748c0,9.055-11.513,9.055-15.3,9.055-3.462,0-13.359-.023-15.031-6.947A29.3,29.3,0,0,0,8,41.42C8,58.1,23.763,71.612,43.186,71.612S78.372,58.1,78.372,41.42C78.372,27.754,67.782,16.221,53.263,12.5Z" transform="translate(14.558 22.714)" fill="#ffa008"/>
      <path id="Trazado_997524" data-name="Trazado 997524" d="M30.889,20.7C22.591,20.7,14,15.331,14,1,25.26,1,30.889,9.813,30.889,20.7Z" transform="translate(25.448 1.843)" fill="#63b300"/>
      <path id="Trazado_997525" data-name="Trazado 997525" d="M21,9.611a20.4,20.4,0,0,0,28.149,0A20.461,20.461,0,0,0,21,9.611Z" transform="translate(38.152 7.29)" fill="#63b300"/>
      <path id="Trazado_997526" data-name="Trazado 997526" d="M49.149,9.611A20.461,20.461,0,0,0,21,9.611l.023.017h28.1Z" transform="translate(38.152 7.29)" fill="#8bc808"/>
      <path id="Trazado_997527" data-name="Trazado 997527" d="M14,1,30.889,20.7C30.889,9.813,25.26,1,14,1Z" transform="translate(25.448 1.843)" fill="#8bc808"/>
      <path id="Trazado_997528" data-name="Trazado 997528" d="M103.076,29H18.63A5.371,5.371,0,0,0,13,34.071v5.067c0,22.387,21.424,40.534,47.853,40.534s47.853-18.148,47.853-40.534V34.071A5.371,5.371,0,0,0,103.076,29Z" transform="translate(23.633 52.655)" fill="#fdf48b"/>
      <path id="Trazado_997529" data-name="Trazado 997529" d="M34.872,59.253A40.118,40.118,0,0,1,22.18,41.818,47.853,47.853,0,0,1,9.085,34.026,37.891,37.891,0,0,0,21.69,57.6a47.853,47.853,0,0,0,12.49,1.689c.234,0,.459-.031.692-.034Z" transform="translate(16.528 61.781)" fill="#cc5700"/>
      <path id="Trazado_997530" data-name="Trazado 997530" d="M20.26,35.591v-1.52A5.371,5.371,0,0,1,25.889,29H14.63a6.193,6.193,0,0,0-1.658.248A5.154,5.154,0,0,0,9,34.071v5.067a35.084,35.084,0,0,0,.239,4.014,47.854,47.854,0,0,0,13.095,7.792A34.874,34.874,0,0,1,20.26,39.138Z" transform="translate(16.373 52.655)" fill="#e86300"/>
      <path id="Trazado_997531" data-name="Trazado 997531" d="M105.559,29.192a4.833,4.833,0,0,1,.332,1.711V35.97c0,22.387-20.163,40.534-45.038,40.534S15.815,58.357,15.815,35.97V30.9a4.833,4.833,0,0,1,.332-1.711A5.036,5.036,0,0,0,13,33.718v5.067c0,22.387,21.424,40.534,47.853,40.534s47.853-18.147,47.853-40.534V33.718a5.036,5.036,0,0,0-3.147-4.526Z" transform="translate(23.633 53.008)" fill="#ffc501"/>
      <path id="Trazado_997532" data-name="Trazado 997532" d="M21.339,60.009A39.225,39.225,0,0,0,42.209,70.66a5.655,5.655,0,0,0,6.6-5.559V29L21.663,51.623a5.655,5.655,0,0,0-.324,8.386Z" transform="translate(35.673 52.66)" fill="#faba01"/>
      <path id="Trazado_997533" data-name="Trazado 997533" d="M16,29v2.815a38.983,38.983,0,0,0,4.222,17.666,5.613,5.613,0,0,0,8.591,1.689L55.408,29Z" transform="translate(29.077 52.66)" fill="#faba01"/>
      <path id="Trazado_997534" data-name="Trazado 997534" d="M36.6,70.66A39.225,39.225,0,0,0,57.473,60a5.655,5.655,0,0,0-.324-8.386L30,29V65.1a5.655,5.655,0,0,0,6.6,5.559Z" transform="translate(54.486 52.66)" fill="#faba01"/>
      <path id="Trazado_997535" data-name="Trazado 997535" d="M69.408,29H30L56.6,51.17a5.613,5.613,0,0,0,8.591-1.689,38.984,38.984,0,0,0,4.214-17.666Z" transform="translate(54.486 52.66)" fill="#faba01"/>
      <path id="Trazado_997536" data-name="Trazado 997536" d="M96.631,29v2.815a38.992,38.992,0,0,1-4.222,17.666,5.613,5.613,0,0,1-8.591,1.689l.546.453a5.655,5.655,0,0,1,.324,8.386A39.225,39.225,0,0,1,63.827,70.66a5.655,5.655,0,0,1-6.6-5.559,5.655,5.655,0,0,1-6.6,5.559A39.225,39.225,0,0,1,29.75,60a5.655,5.655,0,0,1,.324-8.386l.546-.453a5.613,5.613,0,0,1-8.591-1.689,38.992,38.992,0,0,1-4.214-17.658V29H15v3.037a42.293,42.293,0,0,0,4.5,19.057,5.99,5.99,0,0,0,9.2,1.821l-.585.49a6.131,6.131,0,0,0-.346,9.047,41.942,41.942,0,0,0,22.361,11.5,6.074,6.074,0,0,0,7.085-6.007A6.074,6.074,0,0,0,64.3,73.951a41.942,41.942,0,0,0,22.361-11.5,6.131,6.131,0,0,0-.346-9.047l-.585-.49a5.99,5.99,0,0,0,9.2-1.821,42.294,42.294,0,0,0,4.5-19.057V29Z" transform="translate(27.262 52.66)" fill="#f8ef00"/>
      <path id="Trazado_997537" data-name="Trazado 997537" d="M43.08,51.779a33.964,33.964,0,0,1-18.119-9.345,4.974,4.974,0,0,1-1.126-5.348c-.2-.175-.414-.335-.611-.512l-1.016.844-.546.453a5.655,5.655,0,0,0-.324,8.386A39.225,39.225,0,0,0,42.21,56.916a5.655,5.655,0,0,0,6.6-5.559V46.9a4.929,4.929,0,0,1-5.734,4.881Z" transform="translate(35.672 66.404)" fill="#ffd417"/>
      <path id="Trazado_997538" data-name="Trazado 997538" d="M28.1,48.625a5.292,5.292,0,0,1-5.376-2.455,30.178,30.178,0,0,1-3.913-14.809V29H16v2.815a38.992,38.992,0,0,0,4.222,17.666,5.613,5.613,0,0,0,8.591,1.689l1.016-.844c-.6-.546-1.163-1.12-1.726-1.7Z" transform="translate(29.077 52.66)" fill="#ffd417"/>
      <path id="Trazado_997539" data-name="Trazado 997539" d="M55.587,36.575c-.2.177-.411.338-.611.512a4.974,4.974,0,0,1-1.126,5.348,33.964,33.964,0,0,1-18.119,9.345A4.929,4.929,0,0,1,30,46.894v4.459a5.655,5.655,0,0,0,6.6,5.559,39.225,39.225,0,0,0,20.87-10.66,5.655,5.655,0,0,0-.324-8.386l-.546-.453Z" transform="translate(54.486 66.407)" fill="#ffd417"/>
      <path id="Trazado_997540" data-name="Trazado 997540" d="M50.1,29v2.362a30.178,30.178,0,0,1-3.913,14.809,5.292,5.292,0,0,1-5.371,2.441c-.563.58-1.126,1.154-1.723,1.689l1.016.844A5.613,5.613,0,0,0,48.7,49.456a38.992,38.992,0,0,0,4.214-17.641V29Z" transform="translate(70.983 52.66)" fill="#ffd417"/>
      <path id="Trazado_997541" data-name="Trazado 997541" d="M76.17,51.17a5.63,5.63,0,0,0,3.752,1.292L51.765,29h-4.4L19.219,52.462a5.63,5.63,0,0,0,3.752-1.292l-.546.453A5.568,5.568,0,0,0,20.5,55.066l27.67-23.059V68.788A5.562,5.562,0,0,0,49.575,65.1a5.562,5.562,0,0,0,1.407,3.687V32.006l27.67,23.059a5.568,5.568,0,0,0-1.928-3.443Z" transform="translate(34.919 52.66)" fill="#fdf48b"/>
      <g id="Grupo_1161911" data-name="Grupo 1161911" transform="translate(32.205 25.36)">
        <ellipse id="Elipse_11667" data-name="Elipse 11667" cx="2.322" cy="3.231" rx="2.322" ry="3.231" transform="translate(76.486 66.967) rotate(-45)" fill="#ffa008"/>
        <ellipse id="Elipse_11668" data-name="Elipse 11668" cx="2.322" cy="3.231" rx="2.322" ry="3.231" transform="translate(68.036 78.226) rotate(-45)" fill="#ffa008"/>
        <ellipse id="Elipse_11669" data-name="Elipse 11669" cx="2.322" cy="3.231" rx="2.322" ry="3.231" transform="translate(65.218 83.856) rotate(-45)" fill="#ffa008"/>
        <ellipse id="Elipse_11670" data-name="Elipse 11670" cx="2.322" cy="3.231" rx="2.322" ry="3.231" transform="translate(53.959 81.035) rotate(-45)" fill="#ffa008"/>
        <ellipse id="Elipse_11671" data-name="Elipse 11671" cx="2.322" cy="3.231" rx="2.322" ry="3.231" transform="translate(68.041 61.334) rotate(-45)" fill="#ffa008"/>
        <ellipse id="Elipse_11672" data-name="Elipse 11672" cx="1.163" cy="1.616" rx="1.163" ry="1.616" transform="translate(72.101 68.697) rotate(-45)" fill="#ffa008"/>
        <ellipse id="Elipse_11673" data-name="Elipse 11673" cx="1.163" cy="1.616" rx="1.163" ry="1.616" transform="translate(60.833 88.398) rotate(-45)" fill="#ffa008"/>
        <ellipse id="Elipse_11674" data-name="Elipse 11674" cx="1.163" cy="1.616" rx="1.163" ry="1.616" transform="translate(60.835 82.768) rotate(-45)" fill="#ffa008"/>
        <ellipse id="Elipse_11675" data-name="Elipse 11675" cx="1.163" cy="1.616" rx="1.163" ry="1.616" transform="translate(63.653 74.324) rotate(-45)" fill="#ffa008"/>
        <ellipse id="Elipse_11676" data-name="Elipse 11676" cx="1.163" cy="1.616" rx="1.163" ry="1.616" transform="translate(60.838 77.139) rotate(-45)" fill="#ffa008"/>
        <ellipse id="Elipse_11677" data-name="Elipse 11677" cx="1.163" cy="1.616" rx="1.163" ry="1.616" transform="translate(55.203 88.398) rotate(-45)" fill="#ffa008"/>
        <ellipse id="Elipse_11678" data-name="Elipse 11678" cx="1.163" cy="1.616" rx="1.163" ry="1.616" transform="translate(58.023 71.506) rotate(-45)" fill="#ffa008"/>
        <ellipse id="Elipse_11679" data-name="Elipse 11679" cx="1.163" cy="1.616" rx="1.163" ry="1.616" transform="translate(83.366 63.07) rotate(-45)" fill="#ffa008"/>
        <ellipse id="Elipse_11680" data-name="Elipse 11680" cx="1.163" cy="1.616" rx="1.163" ry="1.616" transform="translate(77.736 60.252) rotate(-45)" fill="#ffa008"/>
        <ellipse id="Elipse_11681" data-name="Elipse 11681" cx="3.231" cy="2.322" rx="3.231" ry="2.322" transform="translate(20.889 68.162) rotate(-45)" fill="#ffa008"/>
        <ellipse id="Elipse_11682" data-name="Elipse 11682" cx="3.231" cy="2.322" rx="3.231" ry="2.322" transform="translate(29.334 79.416) rotate(-45)" fill="#ffa008"/>
        <ellipse id="Elipse_11683" data-name="Elipse 11683" cx="3.231" cy="2.322" rx="3.231" ry="2.322" transform="translate(32.149 85.043) rotate(-45)" fill="#ffa008"/>
        <ellipse id="Elipse_11684" data-name="Elipse 11684" cx="3.231" cy="2.322" rx="3.231" ry="2.322" transform="translate(43.403 82.228) rotate(-45)" fill="#ffa008"/>
        <ellipse id="Elipse_11685" data-name="Elipse 11685" cx="3.231" cy="2.322" rx="3.231" ry="2.322" transform="translate(29.331 62.533) rotate(-45)" fill="#ffa008"/>
        <ellipse id="Elipse_11686" data-name="Elipse 11686" cx="1.616" cy="1.163" rx="1.616" ry="1.163" transform="translate(29.196 69.244) rotate(-45)" fill="#ffa008"/>
        <ellipse id="Elipse_11687" data-name="Elipse 11687" cx="1.616" cy="1.163" rx="1.616" ry="1.163" transform="translate(40.453 88.94) rotate(-45)" fill="#ffa008"/>
        <ellipse id="Elipse_11688" data-name="Elipse 11688" cx="1.616" cy="1.163" rx="1.616" ry="1.163" transform="translate(40.453 83.313) rotate(-45)" fill="#ffa008"/>
        <ellipse id="Elipse_11689" data-name="Elipse 11689" cx="1.616" cy="1.163" rx="1.616" ry="1.163" transform="translate(37.638 74.871) rotate(-45)" fill="#ffa008"/>
        <ellipse id="Elipse_11690" data-name="Elipse 11690" cx="1.616" cy="1.163" rx="1.616" ry="1.163" transform="translate(40.453 77.686) rotate(-45)" fill="#ffa008"/>
        <ellipse id="Elipse_11691" data-name="Elipse 11691" cx="1.616" cy="1.163" rx="1.616" ry="1.163" transform="translate(46.08 88.94) rotate(-45)" fill="#ffa008"/>
        <ellipse id="Elipse_11692" data-name="Elipse 11692" cx="1.616" cy="1.163" rx="1.616" ry="1.163" transform="translate(43.265 72.056) rotate(-45)" fill="#ffa008"/>
        <ellipse id="Elipse_11693" data-name="Elipse 11693" cx="1.616" cy="1.163" rx="1.616" ry="1.163" transform="translate(17.94 63.62) rotate(-45)" fill="#ffa008"/>
        <ellipse id="Elipse_11694" data-name="Elipse 11694" cx="1.616" cy="1.163" rx="1.616" ry="1.163" transform="translate(23.567 60.805) rotate(-45)" fill="#ffa008"/>
        <path id="Trazado_997542" data-name="Trazado 997542" d="M17.347,22.71c1.672,6.927,11.569,6.947,15.031,6.947,3.783,0,15.3,0,15.3-9.055a2.922,2.922,0,0,0-.631-1.748c14.519,3.721,25.109,15.254,25.109,28.92a29.438,29.438,0,0,1-16.3,25.444,106.816,106.816,0,0,0,15.079,8.211A47.833,47.833,0,0,0,11.427,12.717a106.749,106.749,0,0,0,3.879,11.33c.673-.453,1.329-.926,2.041-1.337Z" transform="translate(-11.427 -8.999)" fill="#ffa008"/>
      </g>
      <path id="Trazado_997543" data-name="Trazado 997543" d="M69.651,41.42c0-13.666-10.59-25.2-25.109-28.92a2.922,2.922,0,0,1,.631,1.748c0,9.055-11.513,9.055-15.3,9.055-3.462,0-13.359-.02-15.031-6.947-.712.411-1.368.884-2.041,1.337a107.2,107.2,0,0,0,40.551,49.17A29.438,29.438,0,0,0,69.651,41.42Z" transform="translate(23.279 22.714)" fill="#ffc501"/>
      <path id="Trazado_997544" data-name="Trazado 997544" d="M45.882,29.192a5.934,5.934,0,0,1,1.261.766,5.754,5.754,0,0,0-1.261-.766Z" transform="translate(83.31 53.008)" fill="#fdf48b"/>
      <path id="Trazado_997545" data-name="Trazado 997545" d="M46.338,29.47a5.435,5.435,0,0,1,.974,1.03,5.267,5.267,0,0,0-.974-1.03Z" transform="translate(84.137 53.513)" fill="#fdf48b"/>
      <path id="Trazado_997546" data-name="Trazado 997546" d="M44.645,51.094a5.748,5.748,0,0,1-1.931,2.187c1.585.22,3.178.414,4.785.563a37,37,0,0,0,4.464-17.525V31.252a4.833,4.833,0,0,0-.332-1.711A6.077,6.077,0,0,0,49.149,29v3.037a42.294,42.294,0,0,1-4.5,19.057Z" transform="translate(77.56 52.66)" fill="#fdf1c1"/>
      <path id="Trazado_997547" data-name="Trazado 997547" d="M46.926,30.341a4.481,4.481,0,0,1,.208,1.292,4.579,4.579,0,0,0-.208-1.292Z" transform="translate(85.204 55.093)" fill="#fdf48b"/>
      <path id="Trazado_997548" data-name="Trazado 997548" d="M46.7,29.858a4.7,4.7,0,0,1,.543,1.067,4.7,4.7,0,0,0-.543-1.067Z" transform="translate(84.794 54.217)" fill="#fdf48b"/>
      <path id="Trazado_997549" data-name="Trazado 997549" d="M46.684,29.836l.037.062Z" transform="translate(84.765 54.177)" fill="#ffc501"/>
      <path id="Trazado_997550" data-name="Trazado 997550" d="M46.89,30.237c.037.1.073.191.1.281C46.963,30.428,46.918,30.333,46.89,30.237Z" transform="translate(85.139 54.905)" fill="#ffc501"/>
      <path id="Trazado_997551" data-name="Trazado 997551" d="M46.33,29.464l.023.017Z" transform="translate(84.123 53.502)" fill="#ffc501"/>
      <path id="Trazado_997552" data-name="Trazado 997552" transform="translate(0.039 0.028)" fill="#ffc501"/>
      <path id="Trazado_997553" data-name="Trazado 997553" d="M48.886,35.963A37,37,0,0,1,44.41,53.491q1.923.177,3.865.281A35.071,35.071,0,0,0,51.7,38.778V33.711a4.481,4.481,0,0,0-.208-1.292,2.184,2.184,0,0,0-.1-.281,4.7,4.7,0,0,0-.543-1.067l-.037-.062a5.436,5.436,0,0,0-.974-1.03l-.023-.017a5.935,5.935,0,0,0-1.261-.766,4.833,4.833,0,0,1,.332,1.7Z" transform="translate(80.638 53.015)" fill="#f8ef00"/>
      <path id="Trazado_997554" data-name="Trazado 997554" d="M33.453,30.068l-6.131,5.109q3,1.951,6.131,3.7Z" transform="translate(49.625 54.598)" fill="#ffd417"/>
      <path id="Trazado_997555" data-name="Trazado 997555" d="M39.7,29H23.442a106.569,106.569,0,0,0,8.473,6.474Z" transform="translate(42.584 52.66)" fill="#ffd417"/>
      <path id="Trazado_997556" data-name="Trazado 997556" d="M35.969,41.212a1.785,1.785,0,0,1,1.97.881c.453.7.349,1.455-.2,1.737,1.1.473,2.224.906,3.347,1.34a.954.954,0,0,1,.515-1.143,1.785,1.785,0,0,1,1.97.881,1.424,1.424,0,0,1,.2,1.275q1.472.524,2.97,1a1.534,1.534,0,0,1,.355-.281,3.462,3.462,0,0,1,3.7,1.486c.844.239,1.689.49,2.553.707L30.5,30.068V40.39q2.533,1.317,5.157,2.5c-.4-.7-.276-1.441.312-1.678Z" transform="translate(55.393 54.598)" fill="#ffd417"/>
      <path id="Trazado_997557" data-name="Trazado 997557" d="M55.887,48.625a5.292,5.292,0,0,0,5.376-2.455,30.178,30.178,0,0,0,3.913-14.809V29H30.781l24.4,20.329c.236-.236.484-.464.709-.7Zm4.9-13.92a1.785,1.785,0,0,1,1.97.881c.473.735.355,1.534-.265,1.785a1.8,1.8,0,0,1-1.97-.881c-.467-.735-.349-1.537.27-1.785Zm-5.63-2.815a1.785,1.785,0,0,1,1.97.881c.473.735.355,1.534-.265,1.785a1.8,1.8,0,0,1-1.97-.881c-.467-.735-.349-1.537.27-1.785Zm-9.115,3.642c-.943-1.472-.707-3.071.532-3.569a3.578,3.578,0,0,1,3.941,1.762c.943,1.472.707,3.071-.532,3.569a3.578,3.578,0,0,1-3.935-1.762ZM51.234,43a1.8,1.8,0,0,1-1.97-.881c-.47-.737-.352-1.537.267-1.785a1.785,1.785,0,0,1,1.97.881c.476.732.357,1.534-.262,1.785Zm3.786-5.407a3.578,3.578,0,0,1,3.941,1.762c.943,1.472.707,3.071-.532,3.569a3.578,3.578,0,0,1-3.941-1.762c-.937-1.467-.7-3.071.538-3.569Z" transform="translate(55.903 52.66)" fill="#ffd417"/>
      <path id="Trazado_997558" data-name="Trazado 997558" d="M45.435,49.481A5.4,5.4,0,0,1,43.8,51.415a5.585,5.585,0,0,1-2.235.968,6.059,6.059,0,0,1-.681.056q2.55.481,5.134.844A5.748,5.748,0,0,0,47.948,51.1a42.294,42.294,0,0,0,4.5-19.057V29h-2.8v2.815a38.992,38.992,0,0,1-4.222,17.666Z" transform="translate(74.237 52.66)" fill="#fdf48b"/>
      <path id="Trazado_997559" data-name="Trazado 997559" d="M39.451,36.876h0Z" transform="translate(71.638 66.954)" fill="#f8ef00"/>
      <path id="Trazado_997560" data-name="Trazado 997560" d="M39.8,37.1h0Z" transform="translate(72.271 67.369)" fill="#ffd417"/>
      <path id="Trazado_997561" data-name="Trazado 997561" d="M40.886,37.363a6.061,6.061,0,0,0,.681-.056A6.061,6.061,0,0,1,40.886,37.363Z" transform="translate(74.242 67.736)" fill="#ffd417"/>
      <path id="Trazado_997562" data-name="Trazado 997562" d="M41.128,37.931a5.585,5.585,0,0,0,2.235-.968,5.585,5.585,0,0,1-2.235.968Z" transform="translate(74.682 67.112)" fill="#ffd417"/>
      <path id="Trazado_997563" data-name="Trazado 997563" d="M39.8,37.1h0Z" transform="translate(72.271 67.369)" fill="#ffd417"/>
      <path id="Trazado_997564" data-name="Trazado 997564" d="M45.534,46.171a5.292,5.292,0,0,1-5.371,2.44c-.231.239-.479.467-.715.7l3.659,3.037.4.073a6.059,6.059,0,0,0,.681-.056,5.585,5.585,0,0,0,2.235-.968,5.4,5.4,0,0,0,1.635-1.934,38.992,38.992,0,0,0,4.2-17.652V29H49.446v2.362A30.178,30.178,0,0,1,45.534,46.171Z" transform="translate(71.633 52.66)" fill="#f8ef00"/>
      <path id="Trazado_997565" data-name="Trazado 997565" d="M26.88,36.319,35.662,29Z" transform="translate(48.823 52.66)" fill="#fdf48b"/>
      <path id="Trazado_997566" data-name="Trazado 997566" d="M40.106,37.422l-1.016-.847.028.023Z" transform="translate(70.983 66.407)" fill="#fdf48b"/>
      <path id="Trazado_997567" data-name="Trazado 997567" d="M55.587,50.323,30,29Z" transform="translate(54.486 52.66)" fill="#fdf48b"/>
      <path id="Trazado_997568" data-name="Trazado 997568" d="M39.1,36.583l.988.825Z" transform="translate(71.001 66.422)" fill="#fdf48b"/>
      <path id="Trazado_997569" data-name="Trazado 997569" d="M39.758,37.154c-.042-.037-.073-.082-.115-.118C39.691,37.075,39.719,37.118,39.758,37.154Z" transform="translate(71.987 67.244)" fill="#fdf48b"/>
      <path id="Trazado_997570" data-name="Trazado 997570" d="M39.451,36.876a5.63,5.63,0,0,0,.515.341,6.075,6.075,0,0,1-.515-.341Z" transform="translate(71.638 66.954)" fill="#fdf48b"/>
      <path id="Trazado_997571" data-name="Trazado 997571" d="M40,37.329l-.546-.453Z" transform="translate(71.638 66.954)" fill="#fdf48b"/>
      <path id="Trazado_997572" data-name="Trazado 997572" transform="translate(0.039 0.028)" fill="#fdf48b"/>
      <path id="Trazado_997573" data-name="Trazado 997573" d="M39.09,36.575l.028.023Z" transform="translate(70.983 66.407)" fill="#fdf48b"/>
      <path id="Trazado_997574" data-name="Trazado 997574" transform="translate(0.039 0.028)" fill="#fdf48b"/>
      <path id="Trazado_997575" data-name="Trazado 997575" d="M39.118,36.6l-.028-.023,1.016.847Z" transform="translate(70.983 66.407)" fill="#fdf48b"/>
      <path id="Trazado_997576" data-name="Trazado 997576" d="M40.1,37.3c-.16-.087-.31-.2-.464-.3A2.679,2.679,0,0,0,40.1,37.3Z" transform="translate(71.972 67.164)" fill="#fdf48b"/>
      <path id="Trazado_997577" data-name="Trazado 997577" d="M63.034,49.329,38.638,29h-4.4l-7.789,6.474c.4.281.8.563,1.2.844s.844.529,1.244.8l6.131-5.109v8.816c.47.262.935.532,1.407.788s.94.476,1.407.721V32.006l22.848,19.04c.281.07.543.121.814.189.726.177,1.458.341,2.19.5-.039-.037-.068-.079-.11-.115l-.546-.453a6.073,6.073,0,0,0,.518.341c.155.1.3.217.464.3.881.194,1.762.38,2.652.563Z" transform="translate(48.046 52.66)" fill="#fdf1c1"/>
      <path id="Trazado_997578" data-name="Trazado 997578" d="M43.519,37.444c1.239-.5,1.475-2.1.532-3.569a3.578,3.578,0,0,0-3.941-1.762c-1.239.5-1.475,2.1-.532,3.569a3.578,3.578,0,0,0,3.941,1.762Z" transform="translate(70.821 58.141)" fill="#f8ef00"/>
      <path id="Trazado_997579" data-name="Trazado 997579" d="M36.623,36.112a1.534,1.534,0,0,0-.355.281c1.34.433,2.7.844,4.059,1.216a3.462,3.462,0,0,0-3.7-1.5Z" transform="translate(65.861 65.401)" fill="#f8ef00"/>
      <path id="Trazado_997580" data-name="Trazado 997580" d="M41.056,31.875a3.578,3.578,0,0,0-3.941-1.762c-1.239.5-1.475,2.1-.532,3.569a3.578,3.578,0,0,0,3.941,1.762C41.749,34.946,41.985,33.341,41.056,31.875Z" transform="translate(65.386 54.511)" fill="#f8ef00"/>
      <path id="Trazado_997581" data-name="Trazado 997581" d="M37.8,33.057c-.619.248-.738,1.047-.267,1.785a1.8,1.8,0,0,0,1.97.881c.619-.251.737-1.05.265-1.785A1.785,1.785,0,0,0,37.8,33.057Z" transform="translate(67.636 59.938)" fill="#f8ef00"/>
      <path id="Trazado_997582" data-name="Trazado 997582" d="M36.772,35.938a1.785,1.785,0,0,0-1.97-.881.954.954,0,0,0-.515,1.143c.89.346,1.779.69,2.683,1.013a1.424,1.424,0,0,0-.2-1.275Z" transform="translate(62.191 63.568)" fill="#f8ef00"/>
      <path id="Trazado_997583" data-name="Trazado 997583" d="M34.764,34.938a1.785,1.785,0,0,0-1.97-.881c-.588.236-.709.974-.312,1.689.692.315,1.379.642,2.08.94.552-.293.645-1.044.2-1.748Z" transform="translate(58.569 61.753)" fill="#f8ef00"/>
      <path id="Trazado_997584" data-name="Trazado 997584" d="M43.507,33.723c.619-.251.738-1.05.265-1.785a1.785,1.785,0,0,0-1.97-.881c-.619.248-.737,1.047-.267,1.785A1.8,1.8,0,0,0,43.507,33.723Z" transform="translate(74.896 56.308)" fill="#f8ef00"/>
      <path id="Trazado_997585" data-name="Trazado 997585" d="M41.507,32.723c.619-.251.737-1.05.265-1.785a1.785,1.785,0,0,0-1.97-.881c-.619.248-.737,1.047-.267,1.785a1.8,1.8,0,0,0,1.973.881Z" transform="translate(71.266 54.493)" fill="#f8ef00"/>
      <ellipse id="Elipse_11695" data-name="Elipse 11695" cx="4.645" cy="6.466" rx="4.645" ry="6.466" transform="translate(68.18 43.812) rotate(-45)" fill="#f6fafd"/>
      <ellipse id="Elipse_11696" data-name="Elipse 11696" cx="2.322" cy="3.231" rx="2.322" ry="3.231" transform="translate(80.551 52.905) rotate(-45)" fill="#f6fafd"/>
      <ellipse id="Elipse_11697" data-name="Elipse 11697" cx="2.322" cy="3.231" rx="2.322" ry="3.231" transform="translate(108.691 95.145) rotate(-45)" fill="#f6fafd"/>
      <ellipse id="Elipse_11698" data-name="Elipse 11698" cx="2.322" cy="3.231" rx="2.322" ry="3.231" transform="translate(60.838 72.606) rotate(-45)" fill="#f6fafd"/>
      <ellipse id="Elipse_11699" data-name="Elipse 11699" cx="1.163" cy="1.616" rx="1.163" ry="1.616" transform="translate(76.168 54.632) rotate(-45)" fill="#f6fafd"/>
      <ellipse id="Elipse_11700" data-name="Elipse 11700" cx="1.163" cy="1.616" rx="1.163" ry="1.616" transform="translate(104.308 91.242) rotate(-45)" fill="#f6fafd"/>
      <path id="Trazado_997586" data-name="Trazado 997586" d="M5.669,58.443A45.007,45.007,0,0,1,45.4,13.714l-.656-5.59A50.668,50.668,0,0,0,38.769,107.7l1.323-5.475A44.892,44.892,0,0,1,5.669,58.443Z" transform="translate(0 14.772)" fill="#001a1f"/>
      <path id="Trazado_997587" data-name="Trazado 997587" d="M28.563,24.932a51.6,51.6,0,0,0-1.543,11.6c-5.576-.4-5.576-1.987-5.576-2.722h-5.63c0,8.445,10.592,8.445,14.074,8.445s14.074,0,14.074-8.445h-5.63c0,.737,0,2.342-5.678,2.73a47.312,47.312,0,0,1,.844-7.882c1.407.2,2.815.459,4.186.791A44.892,44.892,0,0,1,72.112,73.215h5.63a50.51,50.51,0,0,0-38.73-49.26c-1.2-.281-2.415-.5-3.637-.7a2.739,2.739,0,0,0,.144-.7c0-.281-.023-.524-.028-.791.135-.335.281-.667.433-1a24.489,24.489,0,0,0,13.894,4.583,23.614,23.614,0,0,0,15.7-6.314,2.815,2.815,0,0,0,0-4.248,23.693,23.693,0,0,0-18.6-6.128A30.4,30.4,0,0,1,60.853,5.658V.028A31.656,31.656,0,0,0,36.521,9.543,29.944,29.944,0,0,0,33.948,12.8,18.328,18.328,0,0,0,15.815.028,2.815,2.815,0,0,0,13,2.843c0,14.133,7.676,20.5,15.563,22.088ZM58.981,16.9a17.075,17.075,0,0,1-18.722,0,17.075,17.075,0,0,1,18.722,0ZM29.706,19.434c-4.053-.816-9.911-3.71-10.922-13.511C25.757,7.217,28.943,13.137,29.7,19.428Z" transform="translate(23.633 0)" fill="#001a1f"/>
      <path id="Trazado_997588" data-name="Trazado 997588" d="M104.891,28H93.631v5.63h5.63a35.988,35.988,0,0,1-3.91,16.4A2.643,2.643,0,0,1,93.5,51.437a2.866,2.866,0,0,1-2.421-.6l-20.633-17.2H88V28H20.445A8.188,8.188,0,0,0,12,35.884v5.067C12,64.855,34.73,84.3,62.668,84.3s50.668-19.445,50.668-43.349V35.884A8.188,8.188,0,0,0,104.891,28Zm-16.875,27.6a2.84,2.84,0,0,1,.16,4.222,36.312,36.312,0,0,1-19.375,9.9,2.838,2.838,0,0,1-2.314-.633,2.8,2.8,0,0,1-1-2.173V36.827l5.23,4.357L87.47,55.152h.014ZM59.853,66.918a2.8,2.8,0,0,1-1,2.159,2.835,2.835,0,0,1-2.314.633,36.312,36.312,0,0,1-19.375-9.9,2.84,2.84,0,0,1,.16-4.222l.54-.45,13.092-10.91-3.6-4.324L34.257,50.812a2.849,2.849,0,0,1-2.424.605,2.643,2.643,0,0,1-1.855-1.407,35.988,35.988,0,0,1-3.9-16.377H54.893L50.733,37.1l3.6,4.326,5.517-4.6Zm47.853-25.967c0,20.8-20.205,37.719-45.038,37.719S17.63,61.75,17.63,40.951V35.884a2.615,2.615,0,0,1,2.815-2.252,41.593,41.593,0,0,0,4.5,18.939,8.248,8.248,0,0,0,5.74,4.369h.056c-.017.169-.068.329-.073.5a8.492,8.492,0,0,0,2.533,6.4A41.9,41.9,0,0,0,55.571,75.256a8.359,8.359,0,0,0,1.422.121,8.476,8.476,0,0,0,5.466-2c.068-.059.118-.135.186-.2.068.062.118.138.186.2a8.476,8.476,0,0,0,5.466,2,8.358,8.358,0,0,0,1.407-.121A41.9,41.9,0,0,0,92.072,63.833a8.493,8.493,0,0,0,2.533-6.4c0-.169-.056-.329-.073-.5h.056a8.248,8.248,0,0,0,5.8-4.369,41.593,41.593,0,0,0,4.5-18.938,2.615,2.615,0,0,1,2.815,2.252Z" transform="translate(21.818 50.842)" fill="#001a1f"/>
      <path id="Trazado_997589" data-name="Trazado 997589" d="M28.268,21.377a33.427,33.427,0,0,1,2.516,5.2l5.258-2.007a38.745,38.745,0,0,0-2.947-6.08Z" transform="translate(51.342 33.578)" fill="#001a1f"/>
      <path id="Trazado_997590" data-name="Trazado 997590" d="M36.588,33.779a42.786,42.786,0,0,0-1.714-12.065l-5.4,1.588a37.156,37.156,0,0,1,1.486,10.477Z" transform="translate(53.527 39.437)" fill="#001a1f"/>
    </g>
  </g>
</svg>
