<svg xmlns="http://www.w3.org/2000/svg" xmlns:xlink="http://www.w3.org/1999/xlink" width="113" height="113" viewBox="0 0 113 113">
  <defs>
    <filter id="Trazado_982547" x="0" y="0" width="113" height="113" filterUnits="userSpaceOnUse">
      <feOffset dy="3" input="SourceAlpha"/>
      <feGaussianBlur stdDeviation="3" result="blur"/>
      <feFlood flood-opacity="0.161"/>
      <feComposite operator="in" in2="blur"/>
      <feComposite in="SourceGraphic"/>
    </filter>
  </defs>
  <g id="Grupo_1168169" data-name="Grupo 1168169" transform="translate(-606.228 -10807)">
    <g id="Grupo_1167412" data-name="Grupo 1167412" transform="translate(410.583 9335)">
      <g id="Grupo_1164308" data-name="Grupo 1164308" transform="translate(204.645 1478)">
        <g id="Grupo_1163948" data-name="Grupo 1163948" transform="translate(0)">
          <g id="Grupo_1158168" data-name="Grupo 1158168" transform="translate(0)">
            <g id="Grupo_1152576" data-name="Grupo 1152576">
              <g id="Grupo_1148633" data-name="Grupo 1148633">
                <g id="Grupo_1148525" data-name="Grupo 1148525">
                  <g transform="matrix(1, 0, 0, 1, -9, -6)" filter="url(#Trazado_982547)">
                    <g id="Trazado_982547-2" data-name="Trazado 982547" transform="translate(9 6)" fill="#f4fdfe">
                      <path d="M 47.5 93.5 C 41.28937149047852 93.5 35.26533508300781 92.28397369384766 29.59518623352051 89.88570404052734 C 24.11771965026855 87.56893157958984 19.19813346862793 84.25196075439453 14.97309303283691 80.02691650390625 C 10.74804019927979 75.80186462402344 7.431066513061523 70.88229370117188 5.114293098449707 65.40481567382812 C 2.716026782989502 59.73468017578125 1.5 53.71062850952148 1.5 47.5 C 1.5 41.28937149047852 2.716026782989502 35.26533508300781 5.114293098449707 29.59518623352051 C 7.431066513061523 24.11771965026855 10.74804019927979 19.19813346862793 14.97309303283691 14.97309303283691 C 19.19813346862793 10.74804019927979 24.11771965026855 7.431066513061523 29.59518623352051 5.114293098449707 C 35.26533508300781 2.716026782989502 41.28937149047852 1.5 47.5 1.5 C 53.71062850952148 1.5 59.73468017578125 2.716026782989502 65.40481567382812 5.114293098449707 C 70.88229370117188 7.431066513061523 75.80186462402344 10.74804019927979 80.02691650390625 14.97309303283691 C 84.25196075439453 19.19813346862793 87.56893157958984 24.11771965026855 89.88570404052734 29.59518623352051 C 92.28397369384766 35.26533508300781 93.5 41.28937149047852 93.5 47.5 C 93.5 53.71062850952148 92.28397369384766 59.73468017578125 89.88570404052734 65.40481567382812 C 87.56893157958984 70.88229370117188 84.25196075439453 75.80186462402344 80.02691650390625 80.02691650390625 C 75.80186462402344 84.25196075439453 70.88229370117188 87.56893157958984 65.40481567382812 89.88570404052734 C 59.73468017578125 92.28397369384766 53.71062850952148 93.5 47.5 93.5 Z" stroke="none"/>
                      <path d="M 47.5 3 C 41.49121475219727 3 35.66376876831055 4.176155090332031 30.17950439453125 6.495796203613281 C 24.88084411621094 8.736953735351562 20.12152099609375 11.94598388671875 16.03375244140625 16.03375244140625 C 11.94598388671875 20.12152099609375 8.736953735351562 24.88084411621094 6.495796203613281 30.17950439453125 C 4.176155090332031 35.66376876831055 3 41.49121475219727 3 47.5 C 3 53.50878524780273 4.176155090332031 59.33623123168945 6.495796203613281 64.82049560546875 C 8.736953735351562 70.11915588378906 11.94598388671875 74.87847900390625 16.03375244140625 78.96624755859375 C 20.12152099609375 83.05401611328125 24.88084411621094 86.26304626464844 30.17950439453125 88.50419616699219 C 35.66376876831055 90.82384490966797 41.49121475219727 92 47.5 92 C 53.50878524780273 92 59.33623123168945 90.82384490966797 64.82049560546875 88.50419616699219 C 70.11915588378906 86.26304626464844 74.87847900390625 83.05401611328125 78.96624755859375 78.96624755859375 C 83.05401611328125 74.87847900390625 86.26304626464844 70.11915588378906 88.50419616699219 64.82049560546875 C 90.82384490966797 59.33623123168945 92 53.50878524780273 92 47.5 C 92 41.49121475219727 90.82384490966797 35.66376876831055 88.50419616699219 30.17950439453125 C 86.26304626464844 24.88084411621094 83.05401611328125 20.12152099609375 78.96624755859375 16.03375244140625 C 74.87847900390625 11.94598388671875 70.11915588378906 8.736953735351562 64.82049560546875 6.495796203613281 C 59.33623123168945 4.176155090332031 53.50878524780273 3 47.5 3 M 47.5 0 C 73.7335205078125 0 95 21.2664794921875 95 47.5 C 95 73.7335205078125 73.7335205078125 95 47.5 95 C 21.2664794921875 95 0 73.7335205078125 0 47.5 C 0 21.2664794921875 21.2664794921875 0 47.5 0 Z" stroke="none" fill="#56838a"/>
                    </g>
                  </g>
                </g>
              </g>
            </g>
          </g>
        </g>
      </g>
    </g>
    <g id="filled_outline" data-name="filled outline" transform="translate(629.041 10793.768)">
      <path id="Trazado_1015757" data-name="Trazado 1015757" d="M33.25,296l-.08,1.917L32.292,319H16.958l-.878-21.084L16,296Z" transform="translate(-10.398 -226.009)" fill="#678b3d"/>
      <path id="Trazado_1015758" data-name="Trazado 1015758" d="M201.25,296l-.08,1.917L200.292,319H184.958l-.878-21.084L184,296Z" transform="translate(-158.273 -226.009)" fill="#f75553"/>
      <path id="Trazado_1015759" data-name="Trazado 1015759" d="M369.25,296l-.08,1.917L368.292,319H352.958l-.878-21.084L352,296Z" transform="translate(-306.148 -226.009)" fill="#f0a050"/>
      <path id="Trazado_1015760" data-name="Trazado 1015760" d="M27.167,197.417H8L8.958,184h17.25Z" transform="translate(-3.356 -127.426)" fill="#678b3d"/>
      <path id="Trazado_1015761" data-name="Trazado 1015761" d="M195.167,197.417H176L176.958,184h17.25Z" transform="translate(-151.231 -127.426)" fill="#f75553"/>
      <path id="Trazado_1015762" data-name="Trazado 1015762" d="M363.167,197.417H344L344.958,184h17.25Z" transform="translate(-299.106 -127.426)" fill="#f0a050"/>
      <path id="Trazado_1015763" data-name="Trazado 1015763" d="M32,208H45.417v8.625H32Z" transform="translate(-24.481 -148.55)" fill="#435b2c"/>
      <path id="Trazado_1015764" data-name="Trazado 1015764" d="M200,208h13.417v8.625H200Z" transform="translate(-172.356 -148.55)" fill="#e63b39"/>
      <path id="Trazado_1015765" data-name="Trazado 1015765" d="M368,208h13.417v8.625H368Z" transform="translate(-320.231 -148.55)" fill="#d68233"/>
      <path id="Trazado_1015766" data-name="Trazado 1015766" d="M0,0H18.209V13.417H0Z" transform="translate(26.597 54.585) rotate(-54.769)" fill="#718999"/>
      <path id="Trazado_1015767" data-name="Trazado 1015767" d="M55.729,83.807l1.266-1.942-1.605-1.047L54.123,82.76a2.1,2.1,0,0,1-2.293.886,2.1,2.1,0,0,0-2.293.886l-6.5,9.97,6.423,4.186,6.5-9.971a2.1,2.1,0,0,0-.115-2.456A2.1,2.1,0,0,1,55.729,83.807Z" transform="translate(-34.197 -36.604)" fill="#f0a050"/>
      <path id="Trazado_1015768" data-name="Trazado 1015768" d="M0,0H2.875V2.875H0Z" transform="translate(22.364 41.545) rotate(33.086)" fill="#d68233"/>
      <path id="Trazado_1015769" data-name="Trazado 1015769" d="M0,0H7.667V4.792H0Z" transform="translate(13.875 50.182) rotate(33.086)" fill="#d68233"/>
      <path id="Trazado_1015770" data-name="Trazado 1015770" d="M390.674,90.711c0,.047,0,.093,0,.141A4.242,4.242,0,0,1,390,93.158a7.034,7.034,0,0,1-1.039,1.257.416.416,0,0,1-.034.031,7.058,7.058,0,0,1-1.266.954,2.027,2.027,0,0,0-.986,1.524,11.6,11.6,0,0,1-1.79,5.015l-.45.7a2.185,2.185,0,0,1-3.024.647l-1.961-1.27a2.188,2.188,0,0,1-.88-2.543,2.229,2.229,0,0,1,.234-.48l.45-.7a11.612,11.612,0,0,1,3.843-3.685,2.027,2.027,0,0,0,.987-1.524,7.008,7.008,0,0,1,.352-1.544l.014-.043a6.951,6.951,0,0,1,.722-1.463,4.265,4.265,0,0,1,1.955-1.621L389,87.644l.521-.8,1.609,1.042-.521.8Z" transform="translate(-329.427 -41.905)" fill="#80b5d1"/>
      <rect id="Rectángulo_413611" data-name="Rectángulo 413611" width="2.875" height="1.917" rx="0.958" transform="matrix(0.839, 0.544, -0.544, 0.839, 60.704, 43.09)" fill="#4492b9"/>
      <path id="Trazado_1015771" data-name="Trazado 1015771" d="M434.474,108.743a4.254,4.254,0,0,1-.51,1.113,7.033,7.033,0,0,1-1.039,1.257.418.418,0,0,1-.034.031l-4.491-2.907.014-.043a6.952,6.952,0,0,1,.722-1.463,4.238,4.238,0,0,1,.807-.92Z" transform="translate(-373.395 -58.602)" fill="#4492b9"/>
      <path id="Trazado_1015772" data-name="Trazado 1015772" d="M33.25,296l-.08,1.917H16.08L16,296Z" transform="translate(-10.398 -226.009)" fill="#435b2c"/>
      <path id="Trazado_1015773" data-name="Trazado 1015773" d="M201.25,296l-.08,1.917H184.08L184,296Z" transform="translate(-158.273 -226.009)" fill="#e63b39"/>
      <path id="Trazado_1015774" data-name="Trazado 1015774" d="M369.25,296l-.08,1.917H352.08L352,296Z" transform="translate(-306.148 -226.009)" fill="#d68233"/>
      <path id="Trazado_1015775" data-name="Trazado 1015775" d="M22.875,69.557H19.762l2.424-3.719a2.578,2.578,0,0,0-.141-3.016,1.621,1.621,0,0,1-.089-1.9l1-1.541a.479.479,0,0,0,.663-.14l1.569-2.409a.479.479,0,0,0-.14-.663L22.644,54.6a.479.479,0,0,0-.663.14l-1.569,2.409a.479.479,0,0,0,.14.663l-1,1.541a1.621,1.621,0,0,1-1.771.684,2.577,2.577,0,0,0-2.816,1.088L9.467,69.557H5.624A.479.479,0,0,0,5.146,70L4.188,83.419a.479.479,0,0,0,.478.513h.5L6.1,106.473a.479.479,0,0,0,.479.459H21.917a.479.479,0,0,0,.479-.459l.938-22.541h.5a.479.479,0,0,0,.478-.513L23.353,70a.479.479,0,0,0-.478-.445Zm-11.456-1.24,5.62,3.663-1.893,2.9L9.527,71.22Zm3.606,7.631a.479.479,0,0,0,.663-.14l1.576-2.418h3.215v7.667H8.02V73.39H11.1Zm2.538-4.771-5.62-3.663L14.035,64.3l5.62,3.663Zm4.96-15.509,1.605,1.047L23.081,58.32l-1.605-1.047Zm-6.759,5.983a1.621,1.621,0,0,1,1.771-.684,2.579,2.579,0,0,0,2.816-1.088l1-1.541.8.523-1,1.541a2.578,2.578,0,0,0,.142,3.016,1.621,1.621,0,0,1,.089,1.9l-1.2,1.849L14.559,63.5ZM6.071,70.515H8.842l-.38.584a.479.479,0,0,0,.14.663l1.028.67H7.541a.479.479,0,0,0-.479.479v8.625a.479.479,0,0,0,.479.479H20.958a.479.479,0,0,0,.479-.479V72.911a.479.479,0,0,0-.479-.479h-3.07l1.249-1.917h3.291l.89,12.458H5.181Zm15.386,35.459H7.042L6.124,83.932H22.375Z" transform="translate(0 -13.461)"/>
      <path id="Trazado_1015776" data-name="Trazado 1015776" d="M190.875,56.1h-.442l5.909-8.369a.479.479,0,0,0-.115-.668l-10.96-7.739a.479.479,0,0,0-.668.115L174.1,54.309a.479.479,0,0,0,.115.668l1.584,1.118h-2.171a.479.479,0,0,0-.478.445l-.958,13.417a.479.479,0,0,0,.478.513h.5l.939,22.541a.479.479,0,0,0,.479.459h15.333a.479.479,0,0,0,.479-.459l.938-22.541h.5a.479.479,0,0,0,.478-.513l-.958-13.417A.479.479,0,0,0,190.875,56.1Zm-5.769-15.716,10.177,7.186-9.95,14.091-10.177-7.186Zm.066,22.337a.479.479,0,0,0,.668-.115l1.886-2.672h.753V67.6H176.02V59.929h5.2Zm-11.1-5.662h3.082l2.715,1.917h-4.326a.479.479,0,0,0-.479.479v8.625a.479.479,0,0,0,.479.479h13.417a.479.479,0,0,0,.479-.479V59.449a.479.479,0,0,0-.479-.479H188.4l1.354-1.917h.672l.89,12.458H173.181Zm15.386,35.459H175.042l-.918-22.042h16.251Z" transform="translate(-147.875 0)"/>
      <path id="Trazado_1015777" data-name="Trazado 1015777" d="M359.353,81.861a.479.479,0,0,0-.478-.445h-5.543q.1-.508.16-1.024a1.551,1.551,0,0,1,.754-1.164,7.566,7.566,0,0,0,2.5-2.394,4.7,4.7,0,0,0,.756-2.724l-.062-1.874.2-.311a.708.708,0,0,0,.165.021.736.736,0,0,0,.152-.016.714.714,0,0,0,.453-.312l.781-1.207a.72.72,0,0,0-.213-.994l-2.011-1.3a.719.719,0,0,0-.994.213l-.781,1.207a.719.719,0,0,0,.034.828l-.2.311-1.735.71a4.7,4.7,0,0,0-2.176,1.8,7.566,7.566,0,0,0-1.162,3.257,1.55,1.55,0,0,1-.754,1.164,12.127,12.127,0,0,0-3.981,3.806h-3.589a.479.479,0,0,0-.478.445l-.958,13.417a.479.479,0,0,0,.478.513h.5l.939,22.541a.479.479,0,0,0,.479.459h15.333a.479.479,0,0,0,.479-.459l.938-22.541h.5a.479.479,0,0,0,.478-.513ZM356.645,69.05l1.609,1.042-.521.8-1.609-1.042Zm-2.995,3.222,1.875-.767a.479.479,0,0,0,.221-.183l.26-.4.8.521-.26.4a.479.479,0,0,0-.077.276l.067,2.025a3.8,3.8,0,0,1-.021.534l-3.348-2.168a3.787,3.787,0,0,1,.478-.238Zm-1.735,1.438a3.776,3.776,0,0,1,.46-.575l3.9,2.524a3.766,3.766,0,0,1-.335.655,6.549,6.549,0,0,1-.736.934l-3.838-2.485a6.556,6.556,0,0,1,.551-1.053ZM346,81.968a11.165,11.165,0,0,1,3.684-3.532,2.509,2.509,0,0,0,1.219-1.883,6.522,6.522,0,0,1,.154-.847l3.414,2.211a6.511,6.511,0,0,1-.71.487,2.509,2.509,0,0,0-1.22,1.884,11.164,11.164,0,0,1-1.716,4.807l-.451.7a1.707,1.707,0,0,1-2.36.5l-1.962-1.27a1.707,1.707,0,0,1-.505-2.36Zm-.466,3.861,1.962,1.27a2.665,2.665,0,0,0,3.685-.788l.451-.7c.078-.12.152-.242.226-.365h4.625v7.667H344.022V85.25h.873a2.668,2.668,0,0,0,.636.579Zm-3.461-3.454h2.538a2.646,2.646,0,0,0-.2,1.917h-.866a.479.479,0,0,0-.479.479V93.4a.479.479,0,0,0,.479.479h13.417a.479.479,0,0,0,.479-.479V84.771a.479.479,0,0,0-.479-.479h-4.589a12.171,12.171,0,0,0,.73-1.917h5.331l.89,12.458H341.181Zm15.386,35.459H343.042l-.918-22.042h16.251Z" transform="translate(-295.75 -25.321)"/>
      <path id="Trazado_1015778" data-name="Trazado 1015778" d="M372.668,370.929h2.855a.479.479,0,1,0,0-.958h-2.029l2.263-3.961.2.809a.479.479,0,0,0,.931-.228l-.483-1.975a.479.479,0,0,0-.588-.349l-2,.529a.479.479,0,1,0,.245.927l.9-.237-2.7,4.727a.479.479,0,0,0,.416.717Z" transform="translate(-323.918 -286.083)"/>
      <path id="Trazado_1015779" data-name="Trazado 1015779" d="M417.78,392.245a.479.479,0,0,0-.178.654l.948,1.657h-4.727l.62-.619a.479.479,0,0,0-.678-.678l-1.438,1.438a.479.479,0,0,0,0,.678l1.438,1.438a.479.479,0,0,0,.678-.678l-.62-.619h5.552a.479.479,0,0,0,.416-.717l-1.357-2.374A.479.479,0,0,0,417.78,392.245Z" transform="translate(-359.124 -310.668)"/>
      <path id="Trazado_1015780" data-name="Trazado 1015780" d="M406.963,331.722a.479.479,0,0,0,.654-.178l1.2-2.1,2.591,4.535-.9-.22a.479.479,0,0,0-.228.931l1.975.483a.479.479,0,0,0,.579-.351l.483-1.975a.479.479,0,0,0-.931-.228l-.2.8-2.959-5.178a.479.479,0,0,0-.832,0l-1.613,2.824A.479.479,0,0,0,406.963,331.722Z" transform="translate(-354.315 -254.178)"/>
      <path id="Trazado_1015781" data-name="Trazado 1015781" d="M204.671,371.438h2.855a.479.479,0,0,0,0-.958H205.5l2.263-3.961.2.809a.479.479,0,0,0,.931-.228l-.483-1.975a.479.479,0,0,0-.588-.349l-2,.529a.479.479,0,1,0,.245.927l.9-.237-2.7,4.727a.479.479,0,0,0,.416.717Z" transform="translate(-176.046 -286.532)"/>
      <path id="Trazado_1015782" data-name="Trazado 1015782" d="M249.785,392.749a.479.479,0,0,0-.178.654l.946,1.657h-4.725l.62-.619a.479.479,0,1,0-.678-.678l-1.438,1.438a.479.479,0,0,0,0,.678l1.438,1.438a.479.479,0,0,0,.678-.678l-.62-.62h5.552a.479.479,0,0,0,.416-.717l-1.357-2.375a.479.479,0,0,0-.654-.178Z" transform="translate(-211.254 -311.112)"/>
      <path id="Trazado_1015783" data-name="Trazado 1015783" d="M238.964,332.227a.479.479,0,0,0,.654-.178l1.2-2.1,2.591,4.535-.9-.22a.479.479,0,1,0-.228.931l1.975.483a.479.479,0,0,0,.579-.352l.483-1.975a.479.479,0,1,0-.931-.228l-.2.8-2.959-5.178a.479.479,0,0,0-.832,0l-1.614,2.823a.479.479,0,0,0,.178.654Z" transform="translate(-206.44 -254.623)"/>
      <path id="Trazado_1015784" data-name="Trazado 1015784" d="M36.667,371.438h2.855a.479.479,0,0,0,0-.958H37.493l2.263-3.961.2.809a.479.479,0,0,0,.931-.228l-.483-1.975a.479.479,0,0,0-.588-.349l-2,.529a.479.479,0,0,0,.245.927l.9-.237-2.7,4.727a.479.479,0,0,0,.416.717Z" transform="translate(-28.168 -286.532)"/>
      <path id="Trazado_1015785" data-name="Trazado 1015785" d="M81.781,392.749a.479.479,0,0,0-.178.654l.946,1.657H77.823l.62-.619a.479.479,0,0,0-.678-.678L76.328,395.2a.479.479,0,0,0,0,.678l1.438,1.438a.479.479,0,0,0,.678-.678l-.62-.62h5.552a.479.479,0,0,0,.416-.717l-1.357-2.375A.479.479,0,0,0,81.781,392.749Z" transform="translate(-63.375 -311.112)"/>
      <path id="Trazado_1015786" data-name="Trazado 1015786" d="M70.959,332.227a.479.479,0,0,0,.654-.178l1.2-2.1,2.591,4.535-.9-.22a.479.479,0,1,0-.228.931l1.975.483a.479.479,0,0,0,.579-.352l.483-1.975a.479.479,0,1,0-.931-.228l-.2.8-2.959-5.178a.479.479,0,0,0-.832,0l-1.614,2.823a.479.479,0,0,0,.178.654Z" transform="translate(-58.561 -254.623)"/>
      <path id="Trazado_1015787" data-name="Trazado 1015787" d="M298.717,76.244l3.131,2.211a.479.479,0,1,0,.553-.783l-3.131-2.211a.479.479,0,1,0-.553.783Z" transform="translate(-259.069 -31.811)"/>
      <path id="Trazado_1015788" data-name="Trazado 1015788" d="M246.81,108.147l7.828,5.528a.479.479,0,0,0,.553-.783l-7.829-5.528a.479.479,0,0,0-.553.783Z" transform="translate(-213.38 -59.893)"/>
      <path id="Trazado_1015789" data-name="Trazado 1015789" d="M256.04,95.076l7.829,5.528a.479.479,0,1,0,.553-.783l-7.829-5.528a.479.479,0,1,0-.553.783Z" transform="translate(-221.504 -48.387)"/>
      <path id="Trazado_1015790" data-name="Trazado 1015790" d="M265.269,82.006l7.829,5.528a.479.479,0,1,0,.553-.783l-7.829-5.527a.479.479,0,0,0-.553.783Z" transform="translate(-229.628 -36.884)"/>
      <path id="Trazado_1015791" data-name="Trazado 1015791" d="M237.583,121.217l7.829,5.528a.479.479,0,1,0,.553-.783l-7.829-5.528a.479.479,0,0,0-.553.783Z" transform="translate(-205.258 -71.397)"/>
      <path id="Trazado_1015792" data-name="Trazado 1015792" d="M228.358,134.287l7.829,5.528a.479.479,0,1,0,.553-.783l-7.829-5.528a.479.479,0,1,0-.553.783Z" transform="translate(-197.139 -82.901)"/>
      <path id="Trazado_1015793" data-name="Trazado 1015793" d="M219.125,147.357l7.829,5.528a.479.479,0,1,0,.553-.783l-7.829-5.528a.479.479,0,0,0-.553.783Z" transform="translate(-189.011 -94.405)"/>
      <path id="Trazado_1015794" data-name="Trazado 1015794" d="M218.277,165.173l-7.829-5.528a.479.479,0,1,0-.553.783l7.828,5.528a.479.479,0,1,0,.553-.783Z" transform="translate(-180.887 -105.911)"/>
    </g>
  </g>
</svg>
