<svg xmlns="http://www.w3.org/2000/svg" xmlns:xlink="http://www.w3.org/1999/xlink" width="200.527" height="167.068" viewBox="0 0 200.527 167.068">
  <defs>
    <filter id="Trazado_998662" x="0" y="0" width="200.527" height="167.068" filterUnits="userSpaceOnUse">
      <feOffset dy="3" input="SourceAlpha"/>
      <feGaussianBlur stdDeviation="3" result="blur"/>
      <feFlood flood-opacity="0.161"/>
      <feComposite operator="in" in2="blur"/>
      <feComposite in="SourceGraphic"/>
    </filter>
  </defs>
  <g id="Grupo_1162686" data-name="Grupo 1162686" transform="translate(-178.473 -9793.466)">
    <g transform="matrix(1, 0, 0, 1, 178.47, 9793.47)" filter="url(#Trazado_998662)">
      <path id="Trazado_998662-2" data-name="Trazado 998662" d="M22.761,126.393c17.341,11.834,40.166,8.727,71.582,4.218,12.266-1.76,12.44-3.841,43.231-10.862,19.2-4.379,22.341-4.491,26.054-7.757,13.989-12.307,7.391-44.114-5.583-65.011C136.94,12.99,88.988-8.2,55.268,3.03c-2.291.762-27,11.516-28.568,25.029A17.652,17.652,0,0,1,24.291,36.3c-3.825,6.18-10.817,7.7-13.682,9.157C-3.969,52.864-6.634,106.334,22.761,126.393Z" transform="matrix(1, -0.09, 0.09, 1, 9, 20.94)" fill="#9ef0fd"/>
    </g>
    <g id="_24-blueberry" data-name="24-blueberry" transform="translate(215.611 9803.999)">
      <ellipse id="Elipse_11750" data-name="Elipse 11750" cx="9.593" cy="6.771" rx="9.593" ry="6.771" transform="translate(29.087 36.715)" fill="#39285e"/>
      <path id="Trazado_998737" data-name="Trazado 998737" d="M71.551,42.275A34.257,34.257,0,1,1,61.517,18.034,34.275,34.275,0,0,1,71.551,42.275ZM46.623,26.7c0-3.428-4.175-6.232-9.348-6.232s-9.348,2.8-9.348,6.232,4.175,6.232,9.348,6.232S46.623,30.123,46.623,26.7Z" transform="translate(2.112 16.931)" fill="#6f60ba"/>
      <ellipse id="Elipse_11751" data-name="Elipse 11751" cx="9.593" cy="5.643" rx="9.593" ry="5.643" transform="translate(92.285 59.286)" fill="#39285e"/>
      <path id="Trazado_998738" data-name="Trazado 998738" d="M57.275,15A34.257,34.257,0,1,1,33.034,25.034,34.275,34.275,0,0,1,57.275,15Zm9.348,18.7c0-3.428-4.175-6.232-9.348-6.232s-9.348,2.8-9.348,6.232,4.175,6.232,9.348,6.232S66.623,37.123,66.623,33.7Z" transform="translate(44.431 31.742)" fill="#7e6dd4"/>
      <ellipse id="Elipse_11752" data-name="Elipse 11752" cx="6.771" cy="9.593" rx="6.771" ry="9.593" transform="translate(14.416 103.299)" fill="#39285e"/>
      <path id="Trazado_998739" data-name="Trazado 998739" d="M37.275,25A34.257,34.257,0,1,1,13.034,35.034,34.275,34.275,0,0,1,37.275,25ZM24.812,59.275c0-5.172-2.8-9.348-6.232-9.348s-6.232,4.175-6.232,9.348,2.8,9.348,6.232,9.348S24.812,64.448,24.812,59.275Z" transform="translate(2.112 52.901)" fill="#7e6dd4"/>
      <path id="Trazado_998740" data-name="Trazado 998740" d="M45.948,56.794c.991.2,1.558.293,1.558.293l.084-.053c.53-.642,1.1-1.246,1.679-1.848a24.267,24.267,0,0,0,2.91-13.4S52.18,8.634,19.462,1A69.688,69.688,0,0,0,15.1,22.983,34.247,34.247,0,0,1,45.948,56.794Z" transform="translate(27.715 2.119)" fill="#4e8c00"/>
      <path id="Trazado_998741" data-name="Trazado 998741" d="M35.481,44.623A34.138,34.138,0,0,1,59.3,54.283a21.565,21.565,0,0,0,7.344-15.891C66.641,13.464,60.409,1,60.409,1A263.077,263.077,0,0,0,33.3,44.732C34.023,44.689,34.746,44.623,35.481,44.623Z" transform="translate(66.225 2.119)" fill="#63b300"/>
      <path id="Trazado_998742" data-name="Trazado 998742" d="M71.608,1c-40.339,8.644-43.374,43.907-43.6,49.173A34.063,34.063,0,0,1,44.5,44.732,263.084,263.084,0,0,1,71.608,1Z" transform="translate(55.025 2.119)" fill="#4e8c00"/>
      <ellipse id="Elipse_11753" data-name="Elipse 11753" cx="9.593" cy="5.643" rx="9.593" ry="5.643" transform="translate(92.285 59.286)" fill="#39285e"/>
      <path id="Trazado_998743" data-name="Trazado 998743" d="M57.275,15A34.257,34.257,0,1,1,33.034,25.034,34.275,34.275,0,0,1,57.275,15Zm9.348,18.7c0-3.428-4.175-6.232-9.348-6.232s-9.348,2.8-9.348,6.232,4.175,6.232,9.348,6.232S66.623,37.123,66.623,33.7Z" transform="translate(44.431 31.742)" fill="#7e6dd4"/>
      <path id="Trazado_998744" data-name="Trazado 998744" d="M57.275,15A34.257,34.257,0,1,0,81.517,25.034,34.275,34.275,0,0,0,57.275,15Zm0,52.971c-17.222,0-31.159-11.149-31.159-24.927S40.054,18.116,57.275,18.116,88.435,29.265,88.435,43.043,74.5,67.971,57.275,67.971Z" transform="translate(44.431 31.742)" fill="#5f4a9e"/>
      <ellipse id="Elipse_11754" data-name="Elipse 11754" cx="21.442" cy="13.543" rx="21.442" ry="13.543" transform="translate(81 50.257)" fill="#9883ff"/>
      <ellipse id="Elipse_11755" data-name="Elipse 11755" cx="12.978" cy="9.028" rx="12.978" ry="9.028" transform="translate(88.9 55.9)" fill="#5f4a9e"/>
      <ellipse id="Elipse_11756" data-name="Elipse 11756" cx="9.593" cy="5.643" rx="9.593" ry="5.643" transform="translate(92.285 59.286)" fill="#39285e"/>
      <path id="Trazado_998745" data-name="Trazado 998745" d="M40.348,22.116a9.419,9.419,0,0,1,9.014,4.674,4.259,4.259,0,0,0,.333-1.558C49.7,21.8,45.52,19,40.348,19S31,21.8,31,25.232a4.259,4.259,0,0,0,.333,1.558A9.419,9.419,0,0,1,40.348,22.116Z" transform="translate(61.358 40.206)" fill="#261647"/>
      <path id="Trazado_998746" data-name="Trazado 998746" d="M55.318,22.016a2.337,2.337,0,0,0-.648.193c-1.732.779-2.754,3.116-3.988,4.484a25.339,25.339,0,0,1-12.71,7.6A3.926,3.926,0,0,0,35.2,35.788a2.449,2.449,0,0,0,.738,2.867,6.447,6.447,0,0,0,2.9,1.206,22.435,22.435,0,0,0,11.971.025A14.586,14.586,0,0,0,59.288,32a7.31,7.31,0,0,0-.826-7.2c-.782-1.29-1.648-2.985-3.144-2.786Z" transform="translate(69.839 46.553)" fill="#9883ff"/>
      <ellipse id="Elipse_11757" data-name="Elipse 11757" cx="9.593" cy="6.771" rx="9.593" ry="6.771" transform="translate(29.087 36.715)" fill="#39285e"/>
      <path id="Trazado_998747" data-name="Trazado 998747" d="M71.551,42.275A34.257,34.257,0,1,1,61.517,18.034,34.275,34.275,0,0,1,71.551,42.275ZM46.623,26.7c0-3.428-4.175-6.232-9.348-6.232s-9.348,2.8-9.348,6.232,4.175,6.232,9.348,6.232S46.623,30.123,46.623,26.7Z" transform="translate(2.112 16.931)" fill="#6f60ba"/>
      <path id="Trazado_998748" data-name="Trazado 998748" d="M37.275,8A34.257,34.257,0,1,0,61.517,18.034,34.275,34.275,0,0,0,37.275,8Zm0,52.971c-17.222,0-31.159-11.149-31.159-24.927S20.054,11.116,37.275,11.116,68.435,22.265,68.435,36.043,54.5,60.971,37.275,60.971Z" transform="translate(2.112 16.931)" fill="#483584"/>
      <ellipse id="Elipse_11758" data-name="Elipse 11758" cx="22.007" cy="14.107" rx="22.007" ry="14.107" transform="translate(17.801 27.686)" fill="#9883ff"/>
      <ellipse id="Elipse_11759" data-name="Elipse 11759" cx="11.85" cy="9.593" rx="11.85" ry="9.593" transform="translate(27.958 34.458)" fill="#5f4a9e"/>
      <ellipse id="Elipse_11760" data-name="Elipse 11760" cx="9.593" cy="6.771" rx="9.593" ry="6.771" transform="translate(29.087 36.715)" fill="#39285e"/>
      <path id="Trazado_998749" data-name="Trazado 998749" d="M20.348,15.116a9.419,9.419,0,0,1,9.014,4.674,4.259,4.259,0,0,0,.333-1.558C29.7,14.8,25.52,12,20.348,12S11,14.8,11,18.232a4.259,4.259,0,0,0,.333,1.558,9.419,9.419,0,0,1,9.014-4.674Z" transform="translate(19.04 25.394)" fill="#261647"/>
      <path id="Trazado_998750" data-name="Trazado 998750" d="M35.318,15.016a2.337,2.337,0,0,0-.648.193c-1.732.779-2.754,3.116-3.988,4.484a25.339,25.339,0,0,1-12.71,7.6A3.926,3.926,0,0,0,15.2,28.788a2.449,2.449,0,0,0,.738,2.867,6.447,6.447,0,0,0,2.9,1.206,22.435,22.435,0,0,0,11.971.025A14.586,14.586,0,0,0,39.288,25a7.31,7.31,0,0,0-.826-7.2c-.782-1.29-1.648-2.985-3.144-2.786Z" transform="translate(27.52 31.742)" fill="#7e6dd4"/>
      <path id="Trazado_998751" data-name="Trazado 998751" d="M10.2,35.78a34.135,34.135,0,0,1,21.765-7.79,36.656,36.656,0,0,1-17.677-4.4,34.31,34.31,0,0,0-8.774,7.519A34.587,34.587,0,0,0,10.2,35.78Z" transform="translate(7.425 49.912)" fill="#39285e"/>
      <path id="Trazado_998752" data-name="Trazado 998752" d="M57.123,16.793a34.418,34.418,0,0,0-3.138,2.293,6.892,6.892,0,0,1-.548,2.122,14.645,14.645,0,0,1-7.375,7.363A34.085,34.085,0,0,0,42.6,37.3a34.166,34.166,0,0,0-34.275.657,37.7,37.7,0,0,0,33.936.717c.477-.234.96-.464,1.418-.717A23.965,23.965,0,0,0,57.163,17.438c0-.218-.034-.43-.041-.645Z" transform="translate(13.384 35.536)" fill="#483584"/>
      <path id="Trazado_998753" data-name="Trazado 998753" d="M47.256,16.376c-.732.405-1.443.844-2.138,1.3,0,.215.041.427.041.645A23.965,23.965,0,0,1,31.677,38.845c-.458.252-.935.483-1.418.717A36.921,36.921,0,0,1,14,43.248a34.687,34.687,0,0,1,21.765,7.79,34.587,34.587,0,0,0,4.674-4.674c.6-.732,1.165-1.5,1.708-2.284a34.07,34.07,0,0,1,6-17.244c.05-.757.115-1.514.115-2.284a34.343,34.343,0,0,0-1.006-8.176Z" transform="translate(25.387 34.654)" fill="#39285e"/>
      <path id="Trazado_998754" data-name="Trazado 998754" d="M27.808,19.651a6.892,6.892,0,0,0,.548-2.122,34.384,34.384,0,0,0-7.924,9.485,14.645,14.645,0,0,0,7.375-7.363Z" transform="translate(38.999 37.093)" fill="#5f4a9e"/>
      <ellipse id="Elipse_11761" data-name="Elipse 11761" cx="6.771" cy="9.593" rx="6.771" ry="9.593" transform="translate(14.416 103.299)" fill="#39285e"/>
      <path id="Trazado_998755" data-name="Trazado 998755" d="M37.275,25A34.257,34.257,0,1,1,13.034,35.034,34.275,34.275,0,0,1,37.275,25ZM24.812,59.275c0-5.172-2.8-9.348-6.232-9.348s-6.232,4.175-6.232,9.348,2.8,9.348,6.232,9.348S24.812,64.448,24.812,59.275Z" transform="translate(2.112 52.901)" fill="#7e6dd4"/>
      <path id="Trazado_998756" data-name="Trazado 998756" d="M3,59.275A34.257,34.257,0,1,0,13.034,35.034,34.275,34.275,0,0,0,3,59.275Zm52.971,0c0,17.222-11.149,31.159-24.927,31.159S6.116,76.5,6.116,59.275,17.265,28.116,31.043,28.116,55.971,42.054,55.971,59.275Z" transform="translate(2.112 52.901)" fill="#5f4a9e"/>
      <ellipse id="Elipse_11762" data-name="Elipse 11762" cx="13.543" cy="22.007" rx="13.543" ry="22.007" transform="translate(8.773 89.756)" fill="#9883ff"/>
      <ellipse id="Elipse_11763" data-name="Elipse 11763" cx="8.464" cy="11.85" rx="8.464" ry="11.85" transform="translate(12.159 99.913)" fill="#5f4a9e"/>
      <ellipse id="Elipse_11764" data-name="Elipse 11764" cx="6.771" cy="9.593" rx="6.771" ry="9.593" transform="translate(14.416 103.299)" fill="#39285e"/>
      <path id="Trazado_998757" data-name="Trazado 998757" d="M9.116,42.348a9.419,9.419,0,0,1,4.674-9.014A4.259,4.259,0,0,0,12.232,33C8.8,33,6,37.175,6,42.348S8.8,51.7,12.232,51.7a4.26,4.26,0,0,0,1.558-.333,9.42,9.42,0,0,1-4.674-9.014Z" transform="translate(8.46 69.829)" fill="#261647"/>
      <path id="Trazado_998758" data-name="Trazado 998758" d="M10.809,31.512A2.368,2.368,0,0,0,11,32.16c.782,1.732,3.135,2.754,4.487,3.985a25.364,25.364,0,0,1,7.6,12.713,3.923,3.923,0,0,0,1.5,2.773,2.446,2.446,0,0,0,2.864-.738A6.447,6.447,0,0,0,28.654,48a22.435,22.435,0,0,0,.025-11.975A14.579,14.579,0,0,0,20.8,27.53a7.31,7.31,0,0,0-7.2.826c-1.274.795-2.969,1.658-2.786,3.156Z" transform="translate(18.607 57.006)" fill="#9883ff"/>
      <path id="Trazado_998759" data-name="Trazado 998759" d="M45.948,56.794c.991.2,1.558.293,1.558.293l.084-.053c.53-.642,1.1-1.246,1.679-1.848a24.267,24.267,0,0,0,2.91-13.4S52.18,8.634,19.462,1A69.688,69.688,0,0,0,15.1,22.983,34.247,34.247,0,0,1,45.948,56.794Z" transform="translate(27.715 2.119)" fill="#4e8c00"/>
      <path id="Trazado_998760" data-name="Trazado 998760" d="M35.481,44.623A34.138,34.138,0,0,1,59.3,54.283a21.565,21.565,0,0,0,7.344-15.891C66.641,13.464,60.409,1,60.409,1A263.077,263.077,0,0,0,33.3,44.732C34.023,44.689,34.746,44.623,35.481,44.623Z" transform="translate(66.225 2.119)" fill="#63b300"/>
      <path id="Trazado_998761" data-name="Trazado 998761" d="M71.608,1c-40.339,8.644-43.374,43.907-43.6,49.173A34.063,34.063,0,0,1,44.5,44.732,263.084,263.084,0,0,1,71.608,1Z" transform="translate(55.025 2.119)" fill="#4e8c00"/>
      <path id="Trazado_998762" data-name="Trazado 998762" d="M39.766,11.1C37.584,14.958,35.4,19.055,33.3,23.377c.723-.044,1.446-.109,2.181-.109A34.138,34.138,0,0,1,59.3,32.927,25.6,25.6,0,0,0,64.251,26.5,34.241,34.241,0,0,0,39.766,11.1Z" transform="translate(66.225 23.49)" fill="#4e8c00"/>
      <path id="Trazado_998763" data-name="Trazado 998763" d="M44.5,23.573c2.119-4.322,4.3-8.413,6.466-12.277a34.707,34.707,0,0,0-4.284-.3,34.1,34.1,0,0,0-15.938,3.945,54.161,54.161,0,0,0-2.736,14.068A34.063,34.063,0,0,1,44.5,23.573Z" transform="translate(55.025 23.278)" fill="#3f7000"/>
      <path id="Trazado_998764" data-name="Trazado 998764" d="M16.658,4.212A96.905,96.905,0,0,0,15.1,16.187,34.247,34.247,0,0,1,45.948,50c.991.2,1.558.293,1.558.293l.084-.053c.53-.642,1.1-1.246,1.679-1.848a24.267,24.267,0,0,0,2.91-13.4,45.663,45.663,0,0,0-1.838-11.273A51.584,51.584,0,0,0,16.658,4.212Z" transform="translate(27.715 8.915)" fill="#3f7000"/>
      <ellipse id="Elipse_11765" data-name="Elipse 11765" cx="5.141" cy="7.157" rx="5.141" ry="7.157" transform="translate(111.7 60.949) rotate(-45)" fill="#f6fafd"/>
      <ellipse id="Elipse_11766" data-name="Elipse 11766" cx="5.141" cy="7.157" rx="5.141" ry="7.157" transform="translate(24.432 92.081) rotate(-45)" fill="#f6fafd"/>
      <ellipse id="Elipse_11767" data-name="Elipse 11767" cx="5.141" cy="7.157" rx="5.141" ry="7.157" transform="translate(71.184 79.633) rotate(-45)" fill="#c4b0ff"/>
      <ellipse id="Elipse_11768" data-name="Elipse 11768" cx="2.571" cy="3.577" rx="2.571" ry="3.577" transform="translate(116.046 74.127) rotate(-45)" fill="#f6fafd"/>
      <ellipse id="Elipse_11769" data-name="Elipse 11769" cx="2.571" cy="3.577" rx="2.571" ry="3.577" transform="translate(53.727 46.059) rotate(-45)" fill="#f6fafd"/>
      <ellipse id="Elipse_11770" data-name="Elipse 11770" cx="1.287" cy="1.789" rx="1.287" ry="1.789" transform="translate(55.111 38.626) rotate(-45)" fill="#f6fafd"/>
      <g id="Grupo_1162685" data-name="Grupo 1162685" transform="translate(2.002 -0.001)">
        <path id="Trazado_998765" data-name="Trazado 998765" d="M138.474,74.222l-6.129,1.128a31.617,31.617,0,0,1,.52,5.668,31.159,31.159,0,1,1-55.3-19.671A10.133,10.133,0,0,0,79.4,59.306a31.125,31.125,0,0,1,51.335,10.373l5.808-2.268a37.7,37.7,0,0,0-6.7-11.034,23.771,23.771,0,0,0,6.132-15.866c0-25.373-6.294-38.248-6.543-38.784A3.116,3.116,0,0,0,125.979.072C97.546,6.166,86.656,25.089,82.484,38.56,80.882,28.293,74.382,6.275,47.9.084A3.116,3.116,0,0,0,44.354,1.82a69.174,69.174,0,0,0-4.362,20.026c-.2,0-.389-.031-.586-.031A37.391,37.391,0,0,0,8.8,80.706l5.091-3.59a31.159,31.159,0,1,1,56.654-17.91c0,.433-.041.854-.059,1.281a37.157,37.157,0,0,0-6.173,20.531c0,1.193.069,2.368.178,3.53a37.335,37.335,0,1,0,12.286,27.629c0-1.193-.069-2.368-.178-3.53a37.356,37.356,0,0,0,61.873-34.425ZM129.75,40.51a17.406,17.406,0,0,1-4.384,11.5,37.161,37.161,0,0,0-20.789-8.279A271.343,271.343,0,0,1,125.7,9.563,105.9,105.9,0,0,1,129.75,40.51Zm-11.1-31.87A275,275,0,0,0,97.528,43.875a37.08,37.08,0,0,0-10.759,2.885A48.06,48.06,0,0,1,118.654,8.64ZM46.149,22.46a76.786,76.786,0,0,1,2.979-15.6C76.342,14.913,76.779,42.691,76.779,43.91a32.268,32.268,0,0,1-.791,7.653,37.466,37.466,0,0,0-29.838-29.1ZM39.387,143.336a31.159,31.159,0,1,1,31.159-31.159A31.159,31.159,0,0,1,39.387,143.336Z" transform="translate(-2.002 0.001)" fill="#001a1f"/>
        <path id="Trazado_998766" data-name="Trazado 998766" d="M14.348,32C9.1,32,5,37.475,5,44.464s4.1,12.464,9.348,12.464S23.7,51.453,23.7,44.464,19.592,32,14.348,32Zm0,18.7c-1.271,0-3.116-2.427-3.116-6.232s1.845-6.232,3.116-6.232,3.116,2.427,3.116,6.232S15.619,50.7,14.348,50.7Z" transform="translate(4.342 67.714)" fill="#001a1f"/>
        <path id="Trazado_998767" data-name="Trazado 998767" d="M34.927,20.348C34.927,15.1,29.453,11,22.464,11S10,15.1,10,20.348,15.475,29.7,22.464,29.7,34.927,25.592,34.927,20.348Zm-18.7,0c0-1.271,2.427-3.116,6.232-3.116S28.7,19.077,28.7,20.348s-2.427,3.116-6.232,3.116S16.232,21.619,16.232,20.348Z" transform="translate(14.922 23.28)" fill="#001a1f"/>
        <path id="Trazado_998768" data-name="Trazado 998768" d="M30,27.348c0,5.244,5.475,9.348,12.464,9.348s12.464-4.1,12.464-9.348S49.453,18,42.464,18,30,22.1,30,27.348Zm18.7,0c0,1.271-2.427,3.116-6.232,3.116s-6.232-1.845-6.232-3.116,2.427-3.116,6.232-3.116S48.7,26.077,48.7,27.348Z" transform="translate(57.241 38.091)" fill="#001a1f"/>
      </g>
    </g>
  </g>
</svg>
