<svg xmlns="http://www.w3.org/2000/svg" xmlns:xlink="http://www.w3.org/1999/xlink" width="108" height="108" viewBox="0 0 108 108">
  <defs>
    <filter id="Fondo" x="0" y="0" width="108" height="108" filterUnits="userSpaceOnUse">
      <feOffset dy="3" input="SourceAlpha"/>
      <feGaussianBlur stdDeviation="3" result="blur"/>
      <feFlood flood-opacity="0.161"/>
      <feComposite operator="in" in2="blur"/>
      <feComposite in="SourceGraphic"/>
    </filter>
  </defs>
  <g id="Grupo_1162379" data-name="Grupo 1162379" transform="translate(-611.228 -3716)">
    <g id="Grupo_1158049" data-name="Grupo 1158049" transform="translate(414.542 2530)">
      <g transform="matrix(1, 0, 0, 1, 196.69, 1186)" filter="url(#Fondo)">
        <g id="Fondo-2" data-name="Fondo" transform="translate(9 6)" fill="#f4fdfe">
          <path d="M 45 88.5 C 39.12687683105469 88.5 33.43022537231445 87.35007476806641 28.06830024719238 85.08217620849609 C 22.88852500915527 82.89131164550781 18.23629951477051 79.75458526611328 14.2408504486084 75.75914764404297 C 10.24541282653809 71.76370239257812 7.108687400817871 67.11147308349609 4.917825222015381 61.93170166015625 C 2.649924993515015 56.56977462768555 1.5 50.87312316894531 1.5 45 C 1.5 39.12687683105469 2.649924993515015 33.43022537231445 4.917825222015381 28.06830024719238 C 7.108687400817871 22.88852500915527 10.24541282653809 18.23629951477051 14.2408504486084 14.2408504486084 C 18.23629951477051 10.24541282653809 22.88852500915527 7.108687400817871 28.06830024719238 4.917825222015381 C 33.43022537231445 2.649924993515015 39.12687683105469 1.5 45 1.5 C 50.87312316894531 1.5 56.56977462768555 2.649924993515015 61.93170166015625 4.917825222015381 C 67.11147308349609 7.108687400817871 71.76370239257812 10.24541282653809 75.75914764404297 14.2408504486084 C 79.75458526611328 18.23629951477051 82.89131164550781 22.88852500915527 85.08217620849609 28.06830024719238 C 87.35007476806641 33.43022537231445 88.5 39.12687683105469 88.5 45 C 88.5 50.87312316894531 87.35007476806641 56.56977462768555 85.08217620849609 61.93170166015625 C 82.89131164550781 67.11147308349609 79.75458526611328 71.76370239257812 75.75914764404297 75.75914764404297 C 71.76370239257812 79.75458526611328 67.11147308349609 82.89131164550781 61.93170166015625 85.08217620849609 C 56.56977462768555 87.35007476806641 50.87312316894531 88.5 45 88.5 Z" stroke="none"/>
          <path d="M 45 3 C 39.32871246337891 3 33.82865524291992 4.110054016113281 28.65262985229492 6.299339294433594 C 23.65165710449219 8.414573669433594 19.15968322753906 11.44334411621094 15.301513671875 15.301513671875 C 11.44334411621094 19.15968322753906 8.414573669433594 23.65165710449219 6.299339294433594 28.65262985229492 C 4.110054016113281 33.82865524291992 3 39.32871246337891 3 45 C 3 50.67128753662109 4.110054016113281 56.17134475708008 6.299339294433594 61.34737396240234 C 8.414573669433594 66.34834289550781 11.44334411621094 70.84031677246094 15.301513671875 74.698486328125 C 19.15968322753906 78.55665588378906 23.65165710449219 81.58542633056641 28.65262985229492 83.70066070556641 C 33.82865524291992 85.88994598388672 39.32871246337891 87 45 87 C 50.67128753662109 87 56.17134475708008 85.88994598388672 61.34737396240234 83.70066070556641 C 66.34834289550781 81.58542633056641 70.84031677246094 78.55665588378906 74.698486328125 74.698486328125 C 78.55665588378906 70.84031677246094 81.58542633056641 66.34834289550781 83.70066070556641 61.34737396240234 C 85.88994598388672 56.17134475708008 87 50.67128753662109 87 45 C 87 39.32871246337891 85.88994598388672 33.82865524291992 83.70066070556641 28.65262985229492 C 81.58542633056641 23.65165710449219 78.55665588378906 19.15968322753906 74.698486328125 15.301513671875 C 70.84031677246094 11.44334411621094 66.34834289550781 8.414573669433594 61.34737396240234 6.299339294433594 C 56.17134475708008 4.110054016113281 50.67128753662109 3 45 3 M 45 0 C 69.85281372070312 0 90 20.14718627929688 90 45 C 90 69.85281372070312 69.85281372070312 90 45 90 C 20.14718627929688 90 0 69.85281372070312 0 45 C 0 20.14718627929688 20.14718627929688 0 45 0 Z" stroke="none" fill="#56838a"/>
        </g>
      </g>
    </g>
    <g id="nutricion_1_" data-name="nutricion (1)" transform="translate(626.225 3728.932)">
      <g id="Grupo_1162378" data-name="Grupo 1162378" transform="translate(9.836 9.894)">
        <g id="Grupo_1162374" data-name="Grupo 1162374" transform="translate(0 33.024)">
          <g id="Grupo_1162373" data-name="Grupo 1162373" transform="translate(4.024)">
            <path id="Trazado_998092" data-name="Trazado 998092" d="M61.367,295.113c-3.842,1.882-7.72,3.69-11.587,5.522l5.457,13.076,8.026-3.91a4.828,4.828,0,0,1,3.586-.308l8.515,2.466c2.7.781,6.04-.655,8.55-1.624l15.973-6.169c4.206-1.624,5.219-10.066-4.715-7.15l-11.4,3.346a3.631,3.631,0,0,0-2.557-2.546L73.5,295.752C68.237,292.026,65.56,293.059,61.367,295.113Z" transform="translate(-49.78 -293.262)" fill="#efc7a4" fill-rule="evenodd"/>
            <path id="Trazado_998093" data-name="Trazado 998093" d="M206.72,334.616l-17.261-4.611a3.633,3.633,0,0,0,2.565,4.435l10.261,2.741A3.634,3.634,0,0,0,206.72,334.616Z" transform="translate(-172.714 -325.629)" fill="#d5a889" fill-rule="evenodd"/>
          </g>
          <path id="Trazado_998094" data-name="Trazado 998094" d="M29.344,332.582l-4.1,1.677a1.75,1.75,0,0,1-2.277-.955l-6.837-16.682a1.739,1.739,0,0,1,.956-2.28l4.1-1.677a1.75,1.75,0,0,1,2.277.955L30.3,330.3A1.739,1.739,0,0,1,29.344,332.582Z" transform="translate(-15.995 -310.241)" fill="#e4e8eb" fill-rule="evenodd"/>
        </g>
        <g id="Grupo_1162376" data-name="Grupo 1162376" transform="translate(29.085 0)">
          <path id="Trazado_998095" data-name="Trazado 998095" d="M262.385,16h18.842a.6.6,0,0,1,.6.6V42.266l-21.636,2.114V18.114A2.121,2.121,0,0,1,262.3,16h.084Z" transform="translate(-260.187 -16)" fill="#66d4f1" fill-rule="evenodd"/>
          <path id="Trazado_998096" data-name="Trazado 998096" d="M262.3,236.528h19.521v3.633a.6.6,0,0,1-.6.6H262.3a2.114,2.114,0,0,1,0-4.229Z" transform="translate(-260.187 -210.262)" fill="#f4f6f8" fill-rule="evenodd"/>
          <g id="Grupo_1162375" data-name="Grupo 1162375" transform="translate(7.725 5.495)">
            <path id="Trazado_998097" data-name="Trazado 998097" d="M328.245,62.132a2.726,2.726,0,0,0,3.2,0c1.766,0,3.2,1.733,3.2,3.87s-1.432,3.87-3.2,3.87a2.726,2.726,0,0,0-3.2,0c-1.766,0-3.2-1.733-3.2-3.87S326.479,62.132,328.245,62.132Z" transform="translate(-325.048 -62.132)" fill="#f76c82" fill-rule="evenodd"/>
          </g>
        </g>
        <g id="Grupo_1162377" data-name="Grupo 1162377" transform="translate(13.715 6.341)">
          <circle id="Elipse_11712" data-name="Elipse 11712" cx="7.395" cy="7.395" r="7.395" transform="translate(0 3.402) rotate(-13.3)" fill="#c6ea94"/>
        </g>
      </g>
      <path id="Trazado_998098" data-name="Trazado 998098" d="M29.97,28.125,27.364,25.1a.833.833,0,0,1,1.261-1.089l2.029,2.346,4.579-4.527A.833.833,0,0,1,36.4,23.019l-5.218,5.155a.818.818,0,0,1-.583.241H30.57a.841.841,0,0,1-.6-.288ZM60.721,9.068H40.786A2.942,2.942,0,0,0,38.086,12v7.147a8.229,8.229,0,1,0,0,11.972v7.147a2.952,2.952,0,0,0,2.948,2.949H60.554a.835.835,0,0,0,.835-.834V9.885a.836.836,0,0,0-.668-.817Zm-28.274,9.5a6.562,6.562,0,1,0,6.563,6.561A6.569,6.569,0,0,0,32.447,18.571Zm8.67-7.852h.37v24.6h-.454a2.937,2.937,0,0,0-1.283.293v-6.7a8.19,8.19,0,0,0,0-7.561V12a1.284,1.284,0,0,1,1.367-1.28Zm18.6,24.6H43.158v-24.6H59.719ZM41.034,39.547a1.281,1.281,0,1,1,0-2.561H59.719v2.561Zm8.8-23.333a1.923,1.923,0,0,1,1.121.367s.006,0,.006,0c.034.022.067.041.1.059l.017.009a.812.812,0,0,0,.219.068l.022,0a1.02,1.02,0,0,0,.112.008h.006a1.02,1.02,0,0,0,.112-.008l.022,0a.814.814,0,0,0,.219-.068l.017-.009a.744.744,0,0,0,.1-.059s.006,0,.006,0a1.92,1.92,0,0,1,1.121-.367c1.3,0,2.359,1.362,2.359,3.037s-1.059,3.036-2.359,3.036a1.924,1.924,0,0,1-1.121-.367.837.837,0,0,0-.958,0,1.92,1.92,0,0,1-1.121.367c-1.3,0-2.359-1.362-2.359-3.036s1.059-3.037,2.36-3.037Zm0,7.74c-2.219,0-4.03-2.11-4.03-4.7s1.81-4.7,4.03-4.7a3.541,3.541,0,0,1,.768.086v-.785a.832.832,0,1,1,1.665,0v.786a3.511,3.511,0,0,1,.768-.086c2.219,0,4.03,2.11,4.03,4.7s-1.81,4.7-4.03,4.7a3.537,3.537,0,0,1-1.6-.383,3.578,3.578,0,0,1-1.6.383Zm-4.03,5.5a.835.835,0,0,1,.835-.833H50.8a.834.834,0,1,1,0,1.667H46.644A.836.836,0,0,1,45.809,29.456ZM55.8,32.244a.832.832,0,0,1-.835.834H46.644a.834.834,0,1,1,0-1.667h8.317A.832.832,0,0,1,55.8,32.244Zm7.841,20.717L47.512,59.173l-.527.2c-2.359.919-5.3,2.063-7.566,1.405l-8.592-2.495a5.728,5.728,0,0,0-4.215.359l-2.606,1.267L19.182,48.325c2-.946,4.125-1.955,6.26-3,4.108-2.009,6.484-2.9,11.394.586a.8.8,0,0,0,.263.126l7.79,2.087a2.822,2.822,0,0,1-1.463,5.45L33.075,50.8a.833.833,0,1,0-.426,1.611L43,55.184a4.493,4.493,0,0,0,5.638-4.7l10.783-3.164c3.564-1.046,6.042-.645,6.619,1.071a4.028,4.028,0,0,1-2.4,4.568ZM23.587,63.934a.949.949,0,0,0-.006-.712L16.587,46.43a.926.926,0,0,0-.858-.572.9.9,0,0,0-.353.071l-4.131,1.715a.9.9,0,0,0-.5.5.923.923,0,0,0,0,.712l6.994,16.792a.932.932,0,0,0,1.216.5l4.125-1.714a.928.928,0,0,0,.51-.5ZM67.616,47.858a5.663,5.663,0,0,1-3.38,6.659L48.112,60.729l-.521.2A19.387,19.387,0,0,1,40.9,62.647a6.973,6.973,0,0,1-1.95-.262L30.363,59.89a4.048,4.048,0,0,0-3.021.257l-2.69,1.309.471,1.125a2.59,2.59,0,0,1-1.4,3.4l-4.131,1.715a2.6,2.6,0,0,1-3.4-1.4L9.205,49.5a2.59,2.59,0,0,1,1.4-3.4l4.131-1.714a2.6,2.6,0,0,1,3.391,1.4l.415.995c1.973-.933,4.063-1.928,6.171-2.957,4.394-2.15,7.381-3.273,12.963.637l7.645,2.049a4.482,4.482,0,0,1,2.87,2.366l10.761-3.156a10.823,10.823,0,0,1,5.834-.4,3.978,3.978,0,0,1,2.83,2.539Z" fill-rule="evenodd"/>
    </g>
  </g>
</svg>
