<svg xmlns="http://www.w3.org/2000/svg" xmlns:xlink="http://www.w3.org/1999/xlink" width="108" height="108" viewBox="0 0 108 108">
  <defs>
    <filter id="Fondo" x="0" y="0" width="108" height="108" filterUnits="userSpaceOnUse">
      <feOffset dy="3" input="SourceAlpha"/>
      <feGaussianBlur stdDeviation="3" result="blur"/>
      <feFlood flood-opacity="0.161"/>
      <feComposite operator="in" in2="blur"/>
      <feComposite in="SourceGraphic"/>
    </filter>
  </defs>
  <g id="Grupo_1168200" data-name="Grupo 1168200" transform="translate(-197.229 -276)">
    <g id="Grupo_1167438" data-name="Grupo 1167438" transform="translate(206.229 282)">
      <g id="Grupo_1158163" data-name="Grupo 1158163">
        <g transform="matrix(1, 0, 0, 1, -9, -6)" filter="url(#Fondo)">
          <g id="Fondo-2" data-name="Fondo" transform="translate(9 6)" fill="#ebe9f0">
            <path d="M 45 88.5 C 39.12687683105469 88.5 33.43022537231445 87.35007476806641 28.06830024719238 85.08217620849609 C 22.88852500915527 82.89131164550781 18.23629951477051 79.75458526611328 14.2408504486084 75.75914764404297 C 10.24541282653809 71.76370239257812 7.108687400817871 67.11147308349609 4.917825222015381 61.93170166015625 C 2.649924993515015 56.56977462768555 1.5 50.87312316894531 1.5 45 C 1.5 39.12687683105469 2.649924993515015 33.43022537231445 4.917825222015381 28.06830024719238 C 7.108687400817871 22.88852500915527 10.24541282653809 18.23629951477051 14.2408504486084 14.2408504486084 C 18.23629951477051 10.24541282653809 22.88852500915527 7.108687400817871 28.06830024719238 4.917825222015381 C 33.43022537231445 2.649924993515015 39.12687683105469 1.5 45 1.5 C 50.87312316894531 1.5 56.56977462768555 2.649924993515015 61.93170166015625 4.917825222015381 C 67.11147308349609 7.108687400817871 71.76370239257812 10.24541282653809 75.75914764404297 14.2408504486084 C 79.75458526611328 18.23629951477051 82.89131164550781 22.88852500915527 85.08217620849609 28.06830024719238 C 87.35007476806641 33.43022537231445 88.5 39.12687683105469 88.5 45 C 88.5 50.87312316894531 87.35007476806641 56.56977462768555 85.08217620849609 61.93170166015625 C 82.89131164550781 67.11147308349609 79.75458526611328 71.76370239257812 75.75914764404297 75.75914764404297 C 71.76370239257812 79.75458526611328 67.11147308349609 82.89131164550781 61.93170166015625 85.08217620849609 C 56.56977462768555 87.35007476806641 50.87312316894531 88.5 45 88.5 Z" stroke="none"/>
            <path d="M 45 3 C 39.32871246337891 3 33.82865524291992 4.110054016113281 28.65262985229492 6.299339294433594 C 23.65165710449219 8.414573669433594 19.15968322753906 11.44334411621094 15.301513671875 15.301513671875 C 11.44334411621094 19.15968322753906 8.414573669433594 23.65165710449219 6.299339294433594 28.65262985229492 C 4.110054016113281 33.82865524291992 3 39.32871246337891 3 45 C 3 50.67128753662109 4.110054016113281 56.17134475708008 6.299339294433594 61.34737396240234 C 8.414573669433594 66.34834289550781 11.44334411621094 70.84031677246094 15.301513671875 74.698486328125 C 19.15968322753906 78.55665588378906 23.65165710449219 81.58542633056641 28.65262985229492 83.70066070556641 C 33.82865524291992 85.88994598388672 39.32871246337891 87 45 87 C 50.67128753662109 87 56.17134475708008 85.88994598388672 61.34737396240234 83.70066070556641 C 66.34834289550781 81.58542633056641 70.84031677246094 78.55665588378906 74.698486328125 74.698486328125 C 78.55665588378906 70.84031677246094 81.58542633056641 66.34834289550781 83.70066070556641 61.34737396240234 C 85.88994598388672 56.17134475708008 87 50.67128753662109 87 45 C 87 39.32871246337891 85.88994598388672 33.82865524291992 83.70066070556641 28.65262985229492 C 81.58542633056641 23.65165710449219 78.55665588378906 19.15968322753906 74.698486328125 15.301513671875 C 70.84031677246094 11.44334411621094 66.34834289550781 8.414573669433594 61.34737396240234 6.299339294433594 C 56.17134475708008 4.110054016113281 50.67128753662109 3 45 3 M 45 0 C 69.85281372070312 0 90 20.14718627929688 90 45 C 90 69.85281372070312 69.85281372070312 90 45 90 C 20.14718627929688 90 0 69.85281372070312 0 45 C 0 20.14718627929688 20.14718627929688 0 45 0 Z" stroke="none" fill="#453179"/>
          </g>
        </g>
      </g>
    </g>
    <g id="nutricion_5_" data-name="nutricion (5)" transform="translate(207.151 297)">
      <path id="Trazado_1015813" data-name="Trazado 1015813" d="M141.759,137.793a19.041,19.041,0,0,0-5.518.813v14.547a.592.592,0,0,1-.592.592H122.966a19.056,19.056,0,0,0,24.112,21.384v-12.38a.592.592,0,0,1,.592-.592h12.38a19.057,19.057,0,0,0-18.291-24.363Z" transform="translate(-94.899 -121.486)" fill="#fd4755"/>
      <g id="Grupo_1168186" data-name="Grupo 1168186" transform="translate(46.861 35.352)">
        <g id="Grupo_1168185" data-name="Grupo 1168185" transform="translate(0)">
          <path id="Trazado_1015814" data-name="Trazado 1015814" d="M283.636,298.715v19.044a19.119,19.119,0,0,0,3.962-.414v-18.63Z" transform="translate(-283.636 -298.715)" fill="#fb2b3a"/>
        </g>
      </g>
      <g id="Grupo_1168187" data-name="Grupo 1168187" transform="translate(46.861 16.307)">
        <path id="Trazado_1015815" data-name="Trazado 1015815" d="M283.636,156.837H302.68a19.044,19.044,0,0,0-19.044-19.044Z" transform="translate(-283.636 -137.793)" fill="#8bc727"/>
      </g>
      <g id="Grupo_1168188" data-name="Grupo 1168188" transform="translate(46.861 16.307)">
        <path id="Trazado_1015816" data-name="Trazado 1015816" d="M283.636,137.793v19.044H287.6v-18.63A19.118,19.118,0,0,0,283.636,137.793Z" transform="translate(-283.636 -137.793)" fill="#81b823"/>
      </g>
      <path id="Trazado_1015817" data-name="Trazado 1015817" d="M136.242,138.606v14.547a.592.592,0,0,1-.592.592H122.966a19.053,19.053,0,0,0,18.793,22.138V137.793A19.043,19.043,0,0,0,136.242,138.606Z" transform="translate(-94.899 -121.486)" fill="#fac600"/>
      <g id="Grupo_1168189" data-name="Grupo 1168189" transform="translate(27.816 32.258)">
        <path id="Trazado_1015818" data-name="Trazado 1015818" d="M126.668,275.67a19.173,19.173,0,0,1,.251-3.093h-3.953a19.053,19.053,0,0,0,18.793,22.138V294.3A19.051,19.051,0,0,1,126.668,275.67Z" transform="translate(-122.715 -272.577)" fill="#e8b800"/>
      </g>
      <g id="Grupo_1168190" data-name="Grupo 1168190" transform="translate(52.179 40.67)">
        <path id="Trazado_1015819" data-name="Trazado 1015819" d="M329.188,362.692a19.045,19.045,0,0,0,18.425-18.425.593.593,0,0,0-.592-.61H329.17a.592.592,0,0,0-.592.592V362.1A.593.593,0,0,0,329.188,362.692Z" transform="translate(-328.578 -343.657)" fill="#01d0fb"/>
      </g>
      <g id="Grupo_1168191" data-name="Grupo 1168191" transform="translate(52.179 40.67)">
        <path id="Trazado_1015820" data-name="Trazado 1015820" d="M332.3,362.1V344.249a.592.592,0,0,1,.592-.592h-3.723a.592.592,0,0,0-.592.592V362.1a.593.593,0,0,0,.61.592,19.088,19.088,0,0,0,3.16-.364A.591.591,0,0,1,332.3,362.1Z" transform="translate(-328.579 -343.657)" fill="#01c0fa"/>
      </g>
      <g id="Grupo_1168198" data-name="Grupo 1168198" transform="translate(15.966 0.888)">
        <g id="Grupo_1168192" data-name="Grupo 1168192" transform="translate(0)">
          <path id="Trazado_1015821" data-name="Trazado 1015821" d="M47.364,38.871H23.17a.592.592,0,0,1-.592-.592V8.092A.592.592,0,0,1,23.17,7.5H47.364a.592.592,0,0,1,.592.592V38.279A.592.592,0,0,1,47.364,38.871Z" transform="translate(-22.578 -7.5)" fill="#dff6fd"/>
        </g>
        <g id="Grupo_1168193" data-name="Grupo 1168193" transform="translate(0)">
          <path id="Trazado_1015822" data-name="Trazado 1015822" d="M26.538,38.279V8.092A.592.592,0,0,1,27.13,7.5H23.17a.592.592,0,0,0-.592.592V38.279a.592.592,0,0,0,.592.592h3.96A.592.592,0,0,1,26.538,38.279Z" transform="translate(-22.578 -7.5)" fill="#c8effe"/>
        </g>
        <g id="Grupo_1168197" data-name="Grupo 1168197" transform="translate(4.469 6.67)">
          <g id="Grupo_1168194" data-name="Grupo 1168194" transform="translate(0)">
            <path id="Trazado_1015823" data-name="Trazado 1015823" d="M73.7,63.94a5.619,5.619,0,0,0-5.138,2.209A5.619,5.619,0,0,0,63.42,63.94c-2.632.555-3.805,3.828-2.621,7.309s4.278,5.853,6.91,5.3a3.489,3.489,0,0,0,.849-.3,3.489,3.489,0,0,0,.849.3c2.632.555,5.726-1.816,6.91-5.3S76.327,64.5,73.7,63.94Z" transform="translate(-60.338 -63.86)" fill="#fd4755"/>
          </g>
          <g id="Grupo_1168196" data-name="Grupo 1168196" transform="translate(0 0)">
            <g id="Grupo_1168195" data-name="Grupo 1168195">
              <path id="Trazado_1015824" data-name="Trazado 1015824" d="M64.8,71.251c-1-2.944-.317-5.738,1.51-6.866a4.464,4.464,0,0,0-2.887-.443c-2.632.555-3.805,3.828-2.621,7.309s4.278,5.853,6.91,5.3a3.489,3.489,0,0,0,.849-.3,3.489,3.489,0,0,0,.849.3,3.877,3.877,0,0,0,1.151.062C68.23,76.4,65.812,74.234,64.8,71.251Z" transform="translate(-60.338 -63.861)" fill="#fb2b3a"/>
            </g>
          </g>
        </g>
      </g>
      <g id="Grupo_1168199" data-name="Grupo 1168199" transform="translate(15.078 0)">
        <path id="Trazado_1015825" data-name="Trazado 1015825" d="M71.685,40.233a1.489,1.489,0,0,0-1.063-.45H66.292A19.917,19.917,0,0,0,62.181,22.6a.888.888,0,0,0-1.364,1.136,18.177,18.177,0,0,1,4.178,10.726H47.748V17.217a17.956,17.956,0,0,1,10.227,3.778.888.888,0,0,0,1.088-1.4,19.922,19.922,0,0,0-16.832-3.625V12.689A23.126,23.126,0,0,1,69.993,35.351a.888.888,0,1,0,1.775,0A24.905,24.905,0,0,0,42.231,10.879V7.692a.888.888,0,1,0-1.775,0V31.371h-23.6V1.775h23.6V3.55a.888.888,0,1,0,1.775,0V1.479A1.481,1.481,0,0,0,40.751,0H16.557a1.481,1.481,0,0,0-1.479,1.479V31.667a1.481,1.481,0,0,0,1.479,1.479h5.495c-.064.727-.1,1.462-.1,2.206A24.936,24.936,0,0,0,46.861,60.259a.888.888,0,0,0,0-1.775A23.159,23.159,0,0,1,23.728,35.352c0-.744.038-1.479.107-2.206h3.216a19.927,19.927,0,0,0,24.24,21.637v4.329a1.48,1.48,0,0,0,1.48,1.48h.046a19.971,19.971,0,0,0,12.316-4.775.888.888,0,0,0-1.154-1.349,18.193,18.193,0,0,1-10.912,4.337V41.558H70.315A18.019,18.019,0,0,1,66.686,51.59.888.888,0,1,0,68.1,52.659a19.789,19.789,0,0,0,4-11.351,1.486,1.486,0,0,0-.416-1.075ZM45.973,35.352V53.486A18.158,18.158,0,0,1,28.838,33.146H40.751a1.481,1.481,0,0,0,1.479-1.479V17.8a18.047,18.047,0,0,1,3.742-.58V35.352Zm6.8,4.431a1.481,1.481,0,0,0-1.479,1.479v11.7a18.059,18.059,0,0,1-3.543.529V36.239H65a18.049,18.049,0,0,1-.529,3.544Z" transform="translate(-15.078 0)"/>
        <path id="Trazado_1015826" data-name="Trazado 1015826" d="M70.228,40.672a4.492,4.492,0,0,0-2.986-2.235,5.794,5.794,0,0,0-4.658,1.249,2.676,2.676,0,0,1,.992-2.171.888.888,0,0,0-1.065-1.42,4.353,4.353,0,0,0-1.687,3.287,5.618,5.618,0,0,0-4.224-.946,4.492,4.492,0,0,0-2.986,2.235,7.676,7.676,0,0,0-.292,6.228,9.753,9.753,0,0,0,3.212,4.581,6.224,6.224,0,0,0,3.749,1.4,4.7,4.7,0,0,0,.972-.1,4.371,4.371,0,0,0,.665-.2,4.36,4.36,0,0,0,.665.2,5.821,5.821,0,0,0,4.721-1.3A9.755,9.755,0,0,0,70.52,46.9,7.678,7.678,0,0,0,70.228,40.672Zm-1.389,5.656c-1.025,3.013-3.721,5.172-5.886,4.715a2.615,2.615,0,0,1-.633-.222.888.888,0,0,0-.8,0,2.616,2.616,0,0,1-.633.222c-2.165.457-4.861-1.7-5.886-4.715a6.006,6.006,0,0,1,.154-4.778,2.705,2.705,0,0,1,1.81-1.376,2.869,2.869,0,0,1,.594-.061A5.206,5.206,0,0,1,61.254,42.1a.888.888,0,0,0,1.335,0,4.777,4.777,0,0,1,4.287-1.926,2.705,2.705,0,0,1,1.81,1.376A6.007,6.007,0,0,1,68.839,46.328Z" transform="translate(-48.345 -31.667)"/>
        <path id="Trazado_1015827" data-name="Trazado 1015827" d="M126.947,199.174h-8.52a.888.888,0,1,0,0,1.775h8.52a.888.888,0,1,0,0-1.775Z" transform="translate(-105.413 -175.603)"/>
        <path id="Trazado_1015828" data-name="Trazado 1015828" d="M56.04,200.949h4.543a.888.888,0,1,0,0-1.775H56.04a.888.888,0,1,0,0,1.775Z" transform="translate(-50.409 -175.603)"/>
        <path id="Trazado_1015829" data-name="Trazado 1015829" d="M56.04,230.935h15.9a.888.888,0,1,0,0-1.775H56.04a.888.888,0,1,0,0,1.775Z" transform="translate(-50.409 -202.04)"/>
        <path id="Trazado_1015830" data-name="Trazado 1015830" d="M175.474,306.579h-8.047a.888.888,0,1,0,0,1.775h8.047a.888.888,0,1,0,0-1.775Z" transform="translate(-148.614 -270.297)"/>
        <path id="Trazado_1015831" data-name="Trazado 1015831" d="M175.474,333.579h-8.047a.888.888,0,1,0,0,1.775h8.047a.888.888,0,1,0,0-1.775Z" transform="translate(-148.614 -294.101)"/>
        <path id="Trazado_1015832" data-name="Trazado 1015832" d="M203.687,360.579h-4.26a.888.888,0,1,0,0,1.775h4.26a.888.888,0,0,0,0-1.775Z" transform="translate(-176.827 -317.906)"/>
      </g>
    </g>
  </g>
</svg>
