<svg xmlns="http://www.w3.org/2000/svg" xmlns:xlink="http://www.w3.org/1999/xlink" width="110" height="110" viewBox="0 0 110 110">
  <defs>
    <filter id="Trazado_982547" x="0" y="0" width="110" height="110" filterUnits="userSpaceOnUse">
      <feOffset dy="3" input="SourceAlpha"/>
      <feGaussianBlur stdDeviation="3" result="blur"/>
      <feFlood flood-opacity="0.161"/>
      <feComposite operator="in" in2="blur"/>
      <feComposite in="SourceGraphic"/>
    </filter>
  </defs>
  <g id="Grupo_1168591" data-name="Grupo 1168591" transform="translate(-960 -2137)">
    <g id="Grupo_1167441" data-name="Grupo 1167441" transform="translate(969 2143)">
      <g id="Grupo_1162412" data-name="Grupo 1162412" transform="translate(0 0)">
        <g id="Grupo_1158638" data-name="Grupo 1158638" transform="translate(0 0)">
          <g id="Grupo_1155734" data-name="Grupo 1155734">
            <g id="Grupo_1154704" data-name="Grupo 1154704">
              <g id="Grupo_1150790" data-name="Grupo 1150790" transform="translate(0 0)">
                <g id="Grupo_1154214" data-name="Grupo 1154214" transform="translate(0)">
                  <g id="Grupo_1152583" data-name="Grupo 1152583">
                    <g id="Grupo_1146973" data-name="Grupo 1146973">
                      <g id="Grupo_1146954" data-name="Grupo 1146954">
                        <g transform="matrix(1, 0, 0, 1, -9, -6)" filter="url(#Trazado_982547)">
                          <g id="Trazado_982547-2" data-name="Trazado 982547" transform="translate(9 6)" fill="#ebe9f0">
                            <path d="M 46.00000381469727 90.49986267089844 C 39.99188232421875 90.49986267089844 34.16427230834961 89.32350158691406 28.67905807495117 87.00344848632812 C 23.38020324707031 84.76223754882812 18.62104415893555 81.55341339111328 14.53375053405762 77.46613311767578 C 10.44647026062012 73.37885284423828 7.237643718719482 68.61968994140625 4.996417045593262 63.32085037231445 C 2.676363706588745 57.83565139770508 1.500003814697266 52.00805282592773 1.500003814697266 45.99993133544922 C 1.500003814697266 39.99182510375977 2.676363706588745 34.16422653198242 4.996417045593262 28.67901039123535 C 7.237643718719482 23.38017082214355 10.44647026062012 18.62101173400879 14.53375053405762 14.53373146057129 C 18.62104415893555 10.44645118713379 23.38020324707031 7.237624645233154 28.67905807495117 4.996411323547363 C 34.16427230834961 2.676357984542847 39.99188232421875 1.499997973442078 46.00000381469727 1.499997973442078 C 52.00812530517578 1.499997973442078 57.83573532104492 2.676357984542847 63.32094955444336 4.996411323547363 C 68.61980438232422 7.237624645233154 73.37896728515625 10.44645118713379 77.46625518798828 14.53373146057129 C 81.55353546142578 18.62101173400879 84.76236724853516 23.38017082214355 87.00359344482422 28.67901039123535 C 89.32364654541016 34.16422653198242 90.5 39.99182510375977 90.5 45.99993133544922 C 90.5 52.00805282592773 89.32364654541016 57.83565139770508 87.00359344482422 63.32085037231445 C 84.76236724853516 68.61968994140625 81.55353546142578 73.37885284423828 77.46625518798828 77.46613311767578 C 73.37896728515625 81.55341339111328 68.61980438232422 84.76223754882812 63.32094955444336 87.00344848632812 C 57.83573532104492 89.32350158691406 52.00812530517578 90.49986267089844 46.00000381469727 90.49986267089844 Z" stroke="none"/>
                            <path d="M 46.00000381469727 3 C 40.19371795654297 3 34.56270217895508 4.136505126953125 29.26337432861328 6.377914428710938 C 24.14333343505859 8.54351806640625 19.54441833496094 11.64438629150391 15.59440612792969 15.59439086914062 C 11.64440155029297 19.54440307617188 8.54351806640625 24.14330291748047 6.377914428710938 29.26334381103516 C 4.136505126953125 34.56266021728516 3.000007629394531 40.19366073608398 3.000007629394531 45.99993133544922 C 3.000007629394531 51.80620193481445 4.136505126953125 57.43720245361328 6.377914428710938 62.73651885986328 C 8.54351806640625 67.85655975341797 11.64440155029297 72.45545959472656 15.59440612792969 76.40547180175781 C 19.54441833496094 80.35547637939453 24.14333343505859 83.45634460449219 29.26337432861328 85.6219482421875 C 34.56270217895508 87.86335754394531 40.19371795654297 88.99986267089844 46.00000381469727 88.99986267089844 C 51.80628967285156 88.99986267089844 57.43730545043945 87.86335754394531 62.73661804199219 85.6219482421875 C 67.85667419433594 83.45634460449219 72.45557403564453 80.35547637939453 76.40558624267578 76.40547180175781 C 80.35560607910156 72.45545959472656 83.45647430419922 67.85655975341797 85.62207794189453 62.73651885986328 C 87.86350250244141 57.43720245361328 89 51.80620193481445 89 45.99993133544922 C 89 40.19366073608398 87.86350250244141 34.56266021728516 85.62207794189453 29.26334381103516 C 83.45647430419922 24.14330291748047 80.35560607910156 19.54440307617188 76.40558624267578 15.59439086914062 C 72.45557403564453 11.64438629150391 67.85667419433594 8.54351806640625 62.73661804199219 6.377914428710938 C 57.43730545043945 4.136505126953125 51.80628967285156 3 46.00000381469727 3 M 46.00000381469727 0 C 71.40509033203125 0 92 20.59487152099609 92 45.99993133544922 C 92 71.40499114990234 71.40509033203125 91.99986267089844 46.00000381469727 91.99986267089844 C 20.59490203857422 91.99986267089844 7.62939453125e-06 71.40499114990234 7.62939453125e-06 45.99993133544922 C 7.62939453125e-06 20.59487152099609 20.59490203857422 0 46.00000381469727 0 Z" stroke="none" fill="#453179"/>
                          </g>
                        </g>
                      </g>
                    </g>
                  </g>
                </g>
              </g>
            </g>
          </g>
        </g>
      </g>
    </g>
    <g id="proteina" transform="translate(968 2122)">
      <path id="Trazado_1016102" data-name="Trazado 1016102" d="M188.2,80.057v30.214a4.029,4.029,0,0,1-4.029,4.029H174.1a8.057,8.057,0,0,1-8.057-8.057V105.9a4.029,4.029,0,0,0-1.18-2.849l-3.683-3.683A4.029,4.029,0,0,1,160,96.517V84.086A12.086,12.086,0,0,1,172.086,72h8.057A8.057,8.057,0,0,1,188.2,80.057Z" transform="translate(-125.872 -27.972)" fill="#fc9495"/>
      <path id="Trazado_1016103" data-name="Trazado 1016103" d="M200.057,104h8.057a4.029,4.029,0,0,1,4.029,4.029v28.2a2.014,2.014,0,0,1-2.014,2.014h-8.057a4.029,4.029,0,0,1-4.029-4.029v-2.36a4.028,4.028,0,0,0-1.18-2.849l-3.683-3.683a4.028,4.028,0,0,1-1.18-2.849V112.057A8.057,8.057,0,0,1,200.057,104Z" transform="translate(-153.843 -55.943)" fill="#e74444"/>
      <ellipse id="Elipse_11899" data-name="Elipse 11899" cx="2.702" cy="3.153" rx="2.702" ry="3.153" transform="translate(48.429 51.71)" fill="#fae8d8"/>
      <path id="Trazado_1016104" data-name="Trazado 1016104" d="M84.086,354.071l-6.043-2.014L72,354.071l3.021-7.05V344h6.043v3.021Z" transform="translate(-48.95 -265.729)" fill="#606669"/>
      <path id="Trazado_1016105" data-name="Trazado 1016105" d="M36.086,48s12.086,4.029,12.086,14.1c0,9.35-2.6,16.1-7.813,21.044a4.023,4.023,0,0,0-1.251,2.917v2.225H33.064V86.061a4.023,4.023,0,0,0-1.251-2.917C26.6,78.2,24,71.45,24,62.1,24,52.029,36.086,48,36.086,48" transform="translate(-6.993 -6.993)" fill="#99a2a7"/>
      <path id="Trazado_1016106" data-name="Trazado 1016106" d="M128,160h6.043v3.021a3.021,3.021,0,0,1-3.021,3.021h0A3.021,3.021,0,0,1,128,163.021Z" transform="translate(-97.9 -104.893)" fill="#606669"/>
      <path id="Trazado_1016107" data-name="Trazado 1016107" d="M369.121,343.05c0-3.021-3.021-7.05-10.071-7.05s-7.05,7.05-7.05,7.05,0,7.05,7.05,7.05S369.121,346.071,369.121,343.05Z" transform="translate(-293.701 -258.736)" fill="#deb89a"/>
      <path id="Trazado_1016108" data-name="Trazado 1016108" d="M287.05,328c-3.021,0-7.05,3.021-7.05,10.071s7.05,7.05,7.05,7.05,7.05,0,7.05-7.05S290.071,328,287.05,328Z" transform="translate(-230.765 -251.744)" fill="#f5cbaa"/>
      <path id="Trazado_1016109" data-name="Trazado 1016109" d="M31.05,136v23.308c-4.7-4.872-7.05-11.4-7.05-20.286A11.855,11.855,0,0,1,24.384,136Z" transform="translate(-6.993 -83.915)" fill="#606669"/>
      <path id="Trazado_1016110" data-name="Trazado 1016110" d="M48.171,62.1H24C24,52.029,36.086,48,36.086,48S48.171,52.029,48.171,62.1Z" transform="translate(-6.993 -6.993)" fill="#757c80"/>
      <ellipse id="Elipse_11900" data-name="Elipse 11900" cx="2.252" cy="1.802" rx="2.252" ry="1.802" transform="translate(25.909 46.305)" fill="#606669"/>
      <path id="Trazado_1016111" data-name="Trazado 1016111" d="M268.029,136.057A4.029,4.029,0,1,0,264,132.029,4.028,4.028,0,0,0,268.029,136.057Zm0-6.043a2.014,2.014,0,1,1-2.014,2.014A2.014,2.014,0,0,1,268.029,130.014Z" transform="translate(-216.779 -76.922)"/>
      <path id="Trazado_1016112" data-name="Trazado 1016112" d="M73.679,78.887c-1.419-1.2-4.014-2.63-8.33-2.63a9.886,9.886,0,0,0-2.014.2V52.085a9.074,9.074,0,0,0-9.064-9.064H46.214a13.063,13.063,0,0,0-7.951,2.694,19.624,19.624,0,0,0-2.523-2.241,24.717,24.717,0,0,0-6.329-3.423,1.008,1.008,0,0,0-.637,0,24.717,24.717,0,0,0-6.329,3.423C18.229,46.637,16,50.659,16,55.107c0,9.457,2.658,16.58,8.126,21.774a3.028,3.028,0,0,1,.938,2.186v2.018l-2.94,6.86A1.007,1.007,0,0,0,23.368,89.3l5.724-1.908L34.817,89.3a1.007,1.007,0,0,0,1.244-1.352l-2.94-6.86V79.067a3.029,3.029,0,0,1,.938-2.186,24.577,24.577,0,0,0,2.521-2.791l1.7,1.7a3.042,3.042,0,0,1,.885,2.135v.346a9.074,9.074,0,0,0,9.064,9.064h.047A7.161,7.161,0,0,0,52.31,93.4a9.8,9.8,0,0,0,3.975.988,9.8,9.8,0,0,0,3.975-.988,7.5,7.5,0,0,0,2.066-1.505,9.172,9.172,0,0,0,3.023.478c4.316,0,6.911-1.43,8.33-2.63a6.732,6.732,0,0,0,0-10.854ZM46.214,45.035h8.057a7.058,7.058,0,0,1,7.05,7.05V77.167c-.087.046-.173.094-.258.143a7.96,7.96,0,0,0-1.756-1.275V52.085a5.041,5.041,0,0,0-5.036-5.036H46.214a9.1,9.1,0,0,0-5.582,1.925,14.513,14.513,0,0,0-1.08-1.71,11.052,11.052,0,0,1,6.662-2.228ZM43.732,72.35l-3.684-3.684a3,3,0,0,1-.208-.233,34.7,34.7,0,0,0,2.345-13.327,12.768,12.768,0,0,0-.708-4.211,7.075,7.075,0,0,1,4.737-1.832h8.057a3.025,3.025,0,0,1,3.021,3.021V75.337a5.975,5.975,0,0,0-1.007-.088A7.248,7.248,0,0,0,50.858,78a10.359,10.359,0,0,0-1.843,3.294h-.788a3.025,3.025,0,0,1-3.021-3.021V75.91a5,5,0,0,0-1.475-3.56ZM23.611,45.118a23.532,23.532,0,0,1,5.482-3.039,23.409,23.409,0,0,1,5.438,3.007c3.412,2.559,5.289,5.587,5.595,9.014H18.059C18.363,50.688,20.227,47.671,23.611,45.118Zm7.5,11h4.029v2.014a2.014,2.014,0,1,1-4.029,0Zm-13.081,0H23.05V72.675A22.423,22.423,0,0,1,19.9,66.926,32.406,32.406,0,0,1,18.026,56.114ZM29.411,85.372a1.008,1.008,0,0,0-.637,0l-3.915,1.305L26.736,82.3H31.45l1.876,4.378Zm3.261-9.952a5.051,5.051,0,0,0-1.565,3.647v1.218H27.078V79.067a5.051,5.051,0,0,0-1.565-3.647q-.228-.217-.449-.438V56.114h4.029v2.014a4.029,4.029,0,1,0,8.057,0V56.114h3.01a32.406,32.406,0,0,1-1.878,10.812,22.206,22.206,0,0,1-5.61,8.494Zm8.506,2.85v-.346a5,5,0,0,0-1.475-3.56l-1.943-1.943q.631-.978,1.171-2.024l3.377,3.377a3.042,3.042,0,0,1,.884,2.135v2.36a5.041,5.041,0,0,0,5.036,5.036h.261a16.091,16.091,0,0,0-.233,2.014h-.028A7.058,7.058,0,0,1,41.178,78.271Zm18.238,13.3a7.841,7.841,0,0,1-3.131.8c-.247,0-6.043-.069-6.043-6.043,0-6.6,3.706-9.064,6.043-9.064s6.043,2.461,6.043,9.064A5.4,5.4,0,0,1,59.416,91.567Zm5.933-1.211a7.671,7.671,0,0,1-1.811-.2,8.623,8.623,0,0,0,.8-3.824,13.221,13.221,0,0,0-1.964-7.438,6.659,6.659,0,0,1,2.971-.62c6.6,0,9.064,3.706,9.064,6.043S71.953,90.356,65.349,90.356Z"/>
      <path id="Trazado_1016113" data-name="Trazado 1016113" d="M91.021,86.043A3.021,3.021,0,1,0,88,83.021,3.021,3.021,0,0,0,91.021,86.043Zm0-4.029a1.007,1.007,0,1,1-1.007,1.007A1.007,1.007,0,0,1,91.021,82.014Z" transform="translate(-62.936 -34.965)"/>
    </g>
  </g>
</svg>
