<svg xmlns="http://www.w3.org/2000/svg" xmlns:xlink="http://www.w3.org/1999/xlink" width="108" height="108" viewBox="0 0 108 108">
  <defs>
    <filter id="Fondo" x="0" y="0" width="108" height="108" filterUnits="userSpaceOnUse">
      <feOffset dy="3" input="SourceAlpha"/>
      <feGaussianBlur stdDeviation="3" result="blur"/>
      <feFlood flood-opacity="0.161"/>
      <feComposite operator="in" in2="blur"/>
      <feComposite in="SourceGraphic"/>
    </filter>
  </defs>
  <g id="Grupo_1162975" data-name="Grupo 1162975" transform="translate(-154.228 -4887)">
    <g id="Grupo_1158161" data-name="Grupo 1158161" transform="translate(-42.458 3701)">
      <g transform="matrix(1, 0, 0, 1, 196.69, 1186)" filter="url(#Fondo)">
        <g id="Fondo-2" data-name="Fondo" transform="translate(9 6)" fill="#fefcf6">
          <path d="M 45 88.5 C 39.12687683105469 88.5 33.43022537231445 87.35007476806641 28.06830024719238 85.08217620849609 C 22.88852500915527 82.89131164550781 18.23629951477051 79.75458526611328 14.2408504486084 75.75914764404297 C 10.24541282653809 71.76370239257812 7.108687400817871 67.11147308349609 4.917825222015381 61.93170166015625 C 2.649924993515015 56.56977462768555 1.5 50.87312316894531 1.5 45 C 1.5 39.12687683105469 2.649924993515015 33.43022537231445 4.917825222015381 28.06830024719238 C 7.108687400817871 22.88852500915527 10.24541282653809 18.23629951477051 14.2408504486084 14.2408504486084 C 18.23629951477051 10.24541282653809 22.88852500915527 7.108687400817871 28.06830024719238 4.917825222015381 C 33.43022537231445 2.649924993515015 39.12687683105469 1.5 45 1.5 C 50.87312316894531 1.5 56.56977462768555 2.649924993515015 61.93170166015625 4.917825222015381 C 67.11147308349609 7.108687400817871 71.76370239257812 10.24541282653809 75.75914764404297 14.2408504486084 C 79.75458526611328 18.23629951477051 82.89131164550781 22.88852500915527 85.08217620849609 28.06830024719238 C 87.35007476806641 33.43022537231445 88.5 39.12687683105469 88.5 45 C 88.5 50.87312316894531 87.35007476806641 56.56977462768555 85.08217620849609 61.93170166015625 C 82.89131164550781 67.11147308349609 79.75458526611328 71.76370239257812 75.75914764404297 75.75914764404297 C 71.76370239257812 79.75458526611328 67.11147308349609 82.89131164550781 61.93170166015625 85.08217620849609 C 56.56977462768555 87.35007476806641 50.87312316894531 88.5 45 88.5 Z" stroke="none"/>
          <path d="M 45 3 C 39.32871246337891 3 33.82865524291992 4.110054016113281 28.65262985229492 6.299339294433594 C 23.65165710449219 8.414573669433594 19.15968322753906 11.44334411621094 15.301513671875 15.301513671875 C 11.44334411621094 19.15968322753906 8.414573669433594 23.65165710449219 6.299339294433594 28.65262985229492 C 4.110054016113281 33.82865524291992 3 39.32871246337891 3 45 C 3 50.67128753662109 4.110054016113281 56.17134475708008 6.299339294433594 61.34737396240234 C 8.414573669433594 66.34834289550781 11.44334411621094 70.84031677246094 15.301513671875 74.698486328125 C 19.15968322753906 78.55665588378906 23.65165710449219 81.58542633056641 28.65262985229492 83.70066070556641 C 33.82865524291992 85.88994598388672 39.32871246337891 87 45 87 C 50.67128753662109 87 56.17134475708008 85.88994598388672 61.34737396240234 83.70066070556641 C 66.34834289550781 81.58542633056641 70.84031677246094 78.55665588378906 74.698486328125 74.698486328125 C 78.55665588378906 70.84031677246094 81.58542633056641 66.34834289550781 83.70066070556641 61.34737396240234 C 85.88994598388672 56.17134475708008 87 50.67128753662109 87 45 C 87 39.32871246337891 85.88994598388672 33.82865524291992 83.70066070556641 28.65262985229492 C 81.58542633056641 23.65165710449219 78.55665588378906 19.15968322753906 74.698486328125 15.301513671875 C 70.84031677246094 11.44334411621094 66.34834289550781 8.414573669433594 61.34737396240234 6.299339294433594 C 56.17134475708008 4.110054016113281 50.67128753662109 3 45 3 M 45 0 C 69.85281372070312 0 90 20.14718627929688 90 45 C 90 69.85281372070312 69.85281372070312 90 45 90 C 20.14718627929688 90 0 69.85281372070312 0 45 C 0 20.14718627929688 20.14718627929688 0 45 0 Z" stroke="none" fill="#86815c"/>
        </g>
      </g>
    </g>
    <g id="nutricion_2_" data-name="nutricion (2)" transform="translate(163.228 4893)">
      <path id="Trazado_999001" data-name="Trazado 999001" d="M41.4,43.335s4.834-2.9,3.867-6.767-11.6-4.834-12.568-8.7V24H26.9V45.268H24v34.8H55.9S59.77,48.169,41.4,43.335Z" transform="translate(-7.033 -7.033)" fill="#f0c6a4"/>
      <path id="Trazado_999002" data-name="Trazado 999002" d="M55.9,122.271H24v-34.8h2.9V72h1.933s2.7,1.8,8.985,1.926c3.241,1.386,6.9,2.646,7.45,4.841.967,3.867-3.867,6.767-3.867,6.767C59.77,90.368,55.9,122.271,55.9,122.271Z" transform="translate(-7.033 -49.233)" fill="#ff9494"/>
      <path id="Trazado_999003" data-name="Trazado 999003" d="M26.9,56h0a2.9,2.9,0,0,1,2.9,2.9V70.5l10.634-1.933,7,2.334A1.933,1.933,0,0,1,48.7,73.2l-.063.254a1.933,1.933,0,0,1-2.344,1.407L40.435,73.4,29.154,77.383A3.867,3.867,0,0,1,24,73.736V58.9A2.9,2.9,0,0,1,26.9,56Z" transform="translate(-7.033 -35.166)" fill="#f7cca9"/>
      <rect id="Rect치ngulo_409922" data-name="Rect치ngulo 409922" width="19.471" height="3.894" transform="translate(44.557 69.22)" fill="#dadcde"/>
      <path id="Trazado_999004" data-name="Trazado 999004" d="M295.465,199.461v5.8H280v-5.8a11.625,11.625,0,0,1,1.94-6.535,2.9,2.9,0,0,1,3.178-4.782,2.9,2.9,0,1,1,5.233,0,2.9,2.9,0,0,1,3.178,4.782A11.625,11.625,0,0,1,295.465,199.461Z" transform="translate(-232.094 -147.692)" fill="#cfdb8c"/>
      <path id="Trazado_999005" data-name="Trazado 999005" d="M392,272.733l2.9-12.313a3.867,3.867,0,0,1,4.987-2.783l.567.189a3.867,3.867,0,0,1,2.281,5.3L397.8,273.7Z" transform="translate(-330.563 -212.262)" fill="#ffa857"/>
      <ellipse id="Elipse_11785" data-name="Elipse 11785" cx="7.139" cy="6.49" rx="7.139" ry="6.49" transform="translate(36.769 48.451)" fill="#db6765"/>
      <path id="Trazado_999006" data-name="Trazado 999006" d="M184,360h36.736v3.867A7.734,7.734,0,0,1,213,371.6H191.734A7.734,7.734,0,0,1,184,363.867Z" transform="translate(-147.698 -302.43)" fill="#e9eef2"/>
      <rect id="Rect치ngulo_409923" data-name="Rect치ngulo 409923" width="36.345" height="3.894" transform="translate(36.769 57.537)" fill="#dadcde"/>
      <path id="Trazado_999007" data-name="Trazado 999007" d="M73.038,56.6H70.561l2.486-5.327A4.831,4.831,0,0,0,71.17,45.1L73.9,39.634a.967.967,0,1,0-1.729-.865l-2.036,4.072V38.235a.967.967,0,0,0-1.934,0v5.978a4.824,4.824,0,0,0-4.632,3.139,12.5,12.5,0,0,0-.938-2.014A3.866,3.866,0,0,0,59.5,39.2a3.867,3.867,0,1,0-7.734,0,3.866,3.866,0,0,0-3.131,6.135,12.322,12.322,0,0,0-1.087,2.442q-.183-.094-.371-.177a22.667,22.667,0,0,0-5.164-8.07,3.018,3.018,0,0,0,.558-1.138,3.05,3.05,0,0,0-1.986-3.617l-2.4-.8a5.724,5.724,0,0,0,.98-4.68c-.6-2.4-3.636-3.669-6.85-5.008C29.872,23.27,27.1,22.116,26.634,20.7V16.967A.967.967,0,0,0,25.667,16h-5.8a.967.967,0,0,0-.967.967v3.023A3.874,3.874,0,0,0,16,23.734v49.3a.967.967,0,0,0,.967.967H64.337a.967.967,0,0,0,.967-.967v-2.9a8.711,8.711,0,0,0,8.7-8.7V57.57A.967.967,0,0,0,73.038,56.6Zm-.967,3.867h-34.8V58.537h34.8ZM39.92,50.583l.014-.015.01-.01A5.8,5.8,0,0,1,49.505,56.6H38.566A5.815,5.815,0,0,1,39.92,50.583Zm26.765-4.072a2.867,2.867,0,0,1,2.33-.219l.567.189a2.9,2.9,0,0,1,1.711,3.978L68.426,56.6H63.34l.568-2.417,1.036.414a.967.967,0,1,0,.718-1.8l-1.306-.522.342-1.455,2.18.872a.967.967,0,0,0,.718-1.8l-2.449-.98.128-.546A2.869,2.869,0,0,1,66.685,46.511Zm-16.2-2a1.932,1.932,0,0,1,1.285-3.376,1.9,1.9,0,0,1,.832.189.967.967,0,0,0,1.29-1.29A1.9,1.9,0,0,1,53.7,39.2a1.933,1.933,0,0,1,3.867,0,1.9,1.9,0,0,1-.189.832.967.967,0,0,0,1.29,1.29,1.9,1.9,0,0,1,.832-.189,1.932,1.932,0,0,1,1.285,3.376.967.967,0,0,0-.162,1.259,10.609,10.609,0,0,1,1.777,6v.371L61.354,56.6H56.6V54.221l2.47-1.646A.967.967,0,1,0,58,50.965l-1.4.931V44.036a.967.967,0,0,0-1.933,0v3.027l-1.4-.931A.967.967,0,0,0,52.2,47.74l2.47,1.646V56.6H51.525a7.756,7.756,0,0,0-2.02-7.4q-.136-.136-.278-.264a10.428,10.428,0,0,1,1.419-3.166A.967.967,0,0,0,50.484,44.512ZM30.229,25.666l.375,0q.483.2.976.409c2.509,1.045,5.352,2.23,5.718,3.692a4.061,4.061,0,0,1-1.028,3.569l-2.562-.854a.967.967,0,0,0-.479-.034l-9.5,1.726V24.535A16.636,16.636,0,0,0,30.229,25.666ZM24.7,17.933v2.9a.964.964,0,0,0,.029.234,4.294,4.294,0,0,0,1.532,2.244,7.519,7.519,0,0,1-2.88-1.188,3.883,3.883,0,0,0-2.548-2.135V17.933Zm-6.767,5.8a1.933,1.933,0,1,1,3.867,0v11.6a.967.967,0,0,0,1.14.951L33.331,34.4l6.648,2.216a1.1,1.1,0,0,1-.616,2.116L33.636,37.3a.965.965,0,0,0-.556.026L21.8,41.3a2.9,2.9,0,0,1-3.866-2.735Zm0,18.7c.036.027.071.055.109.082a4.788,4.788,0,0,0,2.776.894,4.874,4.874,0,0,0,1.625-.282l11.007-3.885,5.444,1.361a3.016,3.016,0,0,0,1.449,0,19.471,19.471,0,0,1,4.471,6.365,7.8,7.8,0,0,0-3,.285,3.672,3.672,0,0,0,.048-.544,3.28,3.28,0,0,0-1.005-2.4.967.967,0,0,0-1.367,1.367,1.337,1.337,0,0,1,.439,1,3.38,3.38,0,0,1-.729,1.773l-3.177-3.177a.967.967,0,0,0-1.367,1.367l3.176,3.176a3.4,3.4,0,0,1-1.768.729,1.341,1.341,0,0,1-1.007-.439.967.967,0,0,0-1.367,1.367,3.282,3.282,0,0,0,2.357,1.005h.04a3.7,3.7,0,0,0,.551-.049,7.76,7.76,0,0,0-.087,4.16H36.3a.967.967,0,0,0-.967.967v3.867a8.711,8.711,0,0,0,8.7,8.7v1.933h-26.1ZM63.371,72.071h-17.4V70.138h17.4ZM65.3,68.2H44.036a6.777,6.777,0,0,1-6.7-5.8H72A6.777,6.777,0,0,1,65.3,68.2Z"/>
    </g>
  </g>
</svg>
