<svg xmlns="http://www.w3.org/2000/svg" xmlns:xlink="http://www.w3.org/1999/xlink" width="554.685" height="527.927" viewBox="0 0 554.685 527.927">
  <defs>
    <clipPath id="clip-path">
      <path id="Trazado_993334" data-name="Trazado 993334" d="M331.635,425.1c0-35.5-.162-123.365-.162-123.365s90.654.53,123,.53A122.835,122.835,0,1,1,331.635,425.1Z" transform="translate(-331.473 -301.74)" fill="#bc2642" opacity="0.64"/>
    </clipPath>
    <clipPath id="clip-path-2">
      <path id="Trazado_993335" data-name="Trazado 993335" d="M.2,152.816C.2,108.844,0,0,0,0S112.3.656,152.361.656A152.16,152.16,0,1,1,.2,152.816Z" transform="translate(0 0)"/>
    </clipPath>
    <clipPath id="clip-path-3">
      <path id="Trazado_993336" data-name="Trazado 993336" d="M441.531,394.555c-31.7,0-110.167.143-110.167.143s.474-80.955.474-109.838A109.693,109.693,0,1,1,441.531,394.555Z" transform="translate(-331.364 -175.167)" fill="#f7931e"/>
    </clipPath>
    <clipPath id="clip-path-4">
      <path id="Trazado_993337" data-name="Trazado 993337" d="M201.135,400.543C143.259,400.543,0,400.8,0,400.8S.865,253,.865,200.27C.865,89.661,90.53,0,201.135,0S401.4,89.665,401.4,200.27,311.743,400.543,201.135,400.543Z" transform="translate(0 0)"/>
    </clipPath>
    <clipPath id="clip-path-5">
      <path id="Trazado_993332" data-name="Trazado 993332" d="M445.63,284.174c0,38.3.175,133.115.175,133.115s-97.818-.572-132.718-.572A132.543,132.543,0,1,1,445.63,284.174Z" transform="translate(-180.544 -151.631)" fill="#006837"/>
    </clipPath>
    <clipPath id="clip-path-6">
      <path id="Trazado_993333" data-name="Trazado 993333" d="M369.781,184.891c0,53.43.244,185.689.244,185.689s-136.452-.8-185.134-.8C82.779,369.781,0,287,0,184.891S82.779,0,184.891,0,369.781,82.779,369.781,184.891Z" transform="translate(0 0)"/>
    </clipPath>
    <clipPath id="clip-path-7">
      <path id="Trazado_993338" data-name="Trazado 993338" d="M315.553,301.963c28.95,0,100.61-.132,100.61-.132s-.433,73.932-.433,100.309A100.177,100.177,0,1,1,315.553,301.963Z" transform="translate(-215.376 -301.831)" fill="#0071bc"/>
    </clipPath>
    <clipPath id="clip-path-8">
      <path id="Trazado_993339" data-name="Trazado 993339" d="M205.174.27C264.467.27,411.236,0,411.236,0s-.887,151.421-.887,205.445c0,113.316-91.858,205.174-205.174,205.174S0,318.761,0,205.445,91.858.27,205.174.27Z" transform="translate(0)"/>
    </clipPath>
    <filter id="Contenido" x="115.281" y="121.734" width="42.219" height="75.266" filterUnits="userSpaceOnUse">
      <feOffset dy="3" input="SourceAlpha"/>
      <feGaussianBlur stdDeviation="3" result="blur"/>
      <feFlood flood-opacity="0.161"/>
      <feComposite operator="in" in2="blur"/>
      <feComposite in="SourceGraphic"/>
    </filter>
    <filter id="Contenido-2" x="376.242" y="122.047" width="55.344" height="74.953" filterUnits="userSpaceOnUse">
      <feOffset dy="3" input="SourceAlpha"/>
      <feGaussianBlur stdDeviation="3" result="blur-2"/>
      <feFlood flood-opacity="0.161"/>
      <feComposite operator="in" in2="blur-2"/>
      <feComposite in="SourceGraphic"/>
    </filter>
    <filter id="Contenido-3" x="377.57" y="348.047" width="53.703" height="75.93" filterUnits="userSpaceOnUse">
      <feOffset dy="3" input="SourceAlpha"/>
      <feGaussianBlur stdDeviation="3" result="blur-3"/>
      <feFlood flood-opacity="0.161"/>
      <feComposite operator="in" in2="blur-3"/>
      <feComposite in="SourceGraphic"/>
    </filter>
    <filter id="Contenido-4" x="138.523" y="348.984" width="60.383" height="74.016" filterUnits="userSpaceOnUse">
      <feOffset dy="3" input="SourceAlpha"/>
      <feGaussianBlur stdDeviation="3" result="blur-4"/>
      <feFlood flood-opacity="0.161"/>
      <feComposite operator="in" in2="blur-4"/>
      <feComposite in="SourceGraphic"/>
    </filter>
    <clipPath id="clip-path-9">
      <ellipse id="Elipse_11653" data-name="Elipse 11653" cx="87" cy="86" rx="87" ry="86" transform="translate(723.103 6430.913)" fill="#fff" stroke="#707070" stroke-width="1" opacity="0.66"/>
    </clipPath>
  </defs>
  <g id="Grupo_1163000" data-name="Grupo 1163000" transform="translate(-523.228 -6246)">
    <g id="Grupo_1158665" data-name="Grupo 1158665" transform="translate(-3922.329 -454.889)">
      <g id="Grupo_1158655" data-name="Grupo 1158655" transform="translate(4449.274 6702.08)">
        <g id="Grupo_1158654" data-name="Grupo 1158654" transform="translate(0 0)">
          <path id="Trazado_993332-2" data-name="Trazado 993332" d="M445.63,284.174c0,38.3.175,133.115.175,133.115s-97.818-.572-132.718-.572A132.543,132.543,0,1,1,445.63,284.174Z" transform="translate(-180.544 -151.631)" fill="#006837"/>
        </g>
      </g>
      <g id="Grupo_1158661" data-name="Grupo 1158661" transform="translate(4729.589 6745.824)">
        <g id="Grupo_1158660" data-name="Grupo 1158660" transform="translate(0 0)">
          <path id="Trazado_993336-2" data-name="Trazado 993336" d="M441.531,394.555c-31.7,0-110.167.143-110.167.143s.474-80.955.474-109.838A109.693,109.693,0,1,1,441.531,394.555Z" transform="translate(-331.364 -175.167)" fill="#f7931e"/>
        </g>
      </g>
      <g id="Grupo_1158664" data-name="Grupo 1158664" transform="translate(4514.014 6981.243)">
        <g id="Grupo_1158663" data-name="Grupo 1158663" transform="translate(0 0)">
          <path id="Trazado_993338-2" data-name="Trazado 993338" d="M315.553,301.963c28.95,0,100.61-.132,100.61-.132s-.433,73.932-.433,100.309A100.177,100.177,0,1,1,315.553,301.963Z" transform="translate(-215.376 -301.831)" fill="#0071bc"/>
        </g>
      </g>
      <path id="Trazado_993340" data-name="Trazado 993340" d="M456.781,323.283c-7-7-24.352-24.288-24.352-24.288s17.976-17.766,24.352-24.143a34.245,34.245,0,1,1,0,48.432Z" transform="translate(4485.001 6647.635)" fill="#fbb03b"/>
      <path id="Trazado_993341" data-name="Trazado 993341" d="M328.758,421.649c4.637-4.637,16.092-16.135,16.092-16.135s11.771,11.91,16,16.135a22.69,22.69,0,1,1-32.087,0Z" transform="translate(4390.282 6768.435)" fill="#d8354f"/>
      <path id="Trazado_993342" data-name="Trazado 993342" d="M350.155,199.41c-4.637,4.637-16.092,16.135-16.092,16.135s-11.771-11.91-16-16.135a22.69,22.69,0,1,1,32.087,0Z" transform="translate(4381.104 6558.214)" fill="#009245"/>
      <path id="Trazado_993343" data-name="Trazado 993343" d="M243.5,303.3c6.539,6.539,22.755,22.7,22.755,22.7s-16.8,16.6-22.755,22.56a32,32,0,1,1,0-45.255Z" transform="translate(4275.876 6672.624)" fill="#29abe2"/>
      <g id="Grupo_1158658" data-name="Grupo 1158658" transform="translate(4729.792 6981.073)">
        <g id="Grupo_1158657" data-name="Grupo 1158657" transform="translate(0 0)">
          <path id="Trazado_993334-2" data-name="Trazado 993334" d="M331.635,425.1c0-35.5-.162-123.365-.162-123.365s90.654.53,123,.53A122.835,122.835,0,1,1,331.635,425.1Z" transform="translate(-331.473 -301.74)" fill="#bc2642"/>
        </g>
      </g>
      <g id="Enmascarar_grupo_1098680" data-name="Enmascarar grupo 1098680" transform="translate(4729.792 6980.949)" clip-path="url(#clip-path)">
        <g id="Grupo_1158656" data-name="Grupo 1158656" transform="matrix(0.743, 0.669, -0.669, 0.743, 107.5, -119.949)" clip-path="url(#clip-path-2)">
          <rect id="Rectángulo_409880" data-name="Rectángulo 409880" width="381.575" height="244" transform="translate(-5.618 -81.566)" fill="#d8354f"/>
        </g>
      </g>
      <g id="Enmascarar_grupo_1098681" data-name="Enmascarar grupo 1098681" transform="translate(4728.922 6746.324)" clip-path="url(#clip-path-3)">
        <g id="Grupo_1158659" data-name="Grupo 1158659" transform="translate(397.173 206.232) rotate(135)" clip-path="url(#clip-path-4)">
          <rect id="Rectángulo_409881" data-name="Rectángulo 409881" width="502.22" height="321.15" transform="translate(-189.116 -48.08)" fill="#fbb03b"/>
        </g>
      </g>
      <g id="Enmascarar_grupo_1098682" data-name="Enmascarar grupo 1098682" transform="translate(4445.557 6700.889)" clip-path="url(#clip-path-5)">
        <g id="Grupo_1158653" data-name="Grupo 1158653" transform="translate(156.933 -77.181) rotate(45)" clip-path="url(#clip-path-6)">
          <rect id="Rectángulo_409879" data-name="Rectángulo 409879" width="463.651" height="296.484" transform="translate(-127.971 165.103)" fill="#009245"/>
        </g>
      </g>
      <g id="Enmascarar_grupo_1098683" data-name="Enmascarar grupo 1098683" transform="translate(4514.429 6980.949)" clip-path="url(#clip-path-7)">
        <g id="Grupo_1158662" data-name="Grupo 1158662" transform="translate(228.427 -160.474) rotate(45)" opacity="0.59" clip-path="url(#clip-path-8)">
          <rect id="Rectángulo_409882" data-name="Rectángulo 409882" width="514.518" height="329.012" transform="translate(90.461 130.869)" fill="#29abe2"/>
        </g>
      </g>
      <circle id="Elipse_11617" data-name="Elipse 11617" cx="72.222" cy="72.222" r="72.222" transform="translate(4626.787 6972.459) rotate(-45)" fill="#fff"/>
    </g>
    <g transform="matrix(1, 0, 0, 1, 523.23, 6246)" filter="url(#Contenido)">
      <path id="Contenido-5" data-name="Contenido" d="M32.5,28.734V86H20.2V42.641a14.736,14.736,0,0,1-2.4,1.7,24.8,24.8,0,0,1-2.949,1.445A26.334,26.334,0,0,1,11.6,46.879a23.681,23.681,0,0,1-3.32.645V37.133a51.328,51.328,0,0,0,9.063-3.594,51.574,51.574,0,0,0,7.7-4.8Z" transform="translate(116 99)" fill="#fff"/>
    </g>
    <g transform="matrix(1, 0, 0, 1, 523.23, 6246)" filter="url(#Contenido-2)">
      <path id="Contenido-6" data-name="Contenido" d="M16.758,75.766h23.75V86H3.242V81.781a19.636,19.636,0,0,1,1.445-7.715A25.6,25.6,0,0,1,8.32,67.934a31.511,31.511,0,0,1,4.785-4.8q2.6-2.09,4.941-3.77Q20.508,57.6,22.363,56a24.6,24.6,0,0,0,3.125-3.184,12.1,12.1,0,0,0,1.895-3.2,9.526,9.526,0,0,0,.625-3.457,6.948,6.948,0,0,0-2.031-5.43q-2.031-1.836-6.211-1.836-7.227,0-13.828,5.742V33.773a29.684,29.684,0,0,1,16.484-4.727,24.345,24.345,0,0,1,7.637,1.113,16.157,16.157,0,0,1,5.723,3.184,13.578,13.578,0,0,1,3.574,5.02,16.94,16.94,0,0,1,1.23,6.582,18.559,18.559,0,0,1-1.191,6.875,21.126,21.126,0,0,1-3.164,5.469A28.7,28.7,0,0,1,31.68,61.8q-2.578,2.051-5.352,3.965-1.875,1.328-3.613,2.637a34.255,34.255,0,0,0-3.066,2.578,14,14,0,0,0-2.109,2.48A4.282,4.282,0,0,0,16.758,75.766Z" transform="translate(382 99)" fill="#fff"/>
    </g>
    <g transform="matrix(1, 0, 0, 1, 523.23, 6246)" filter="url(#Contenido-3)">
      <path id="Contenido-7" data-name="Contenido" d="M4.57,84.164V73.422a21.682,21.682,0,0,0,13.125,4.1q4.727,0,7.363-2.031A6.744,6.744,0,0,0,27.7,69.828a6.438,6.438,0,0,0-3.262-5.781q-3.262-2.031-8.965-2.031h-5.2V52.563h4.8q10.937,0,10.938-7.266,0-6.836-8.4-6.836A19.147,19.147,0,0,0,6.68,42.094V32.016a30.208,30.208,0,0,1,13.75-2.969q8.594,0,13.379,3.867a12.307,12.307,0,0,1,4.785,10.039q0,10.977-11.133,13.75v.2a15.135,15.135,0,0,1,9.375,4.316,12.17,12.17,0,0,1,3.438,8.77,15.029,15.029,0,0,1-5.742,12.422q-5.742,4.57-15.859,4.57Q10,86.977,4.57,84.164Z" transform="translate(382 325)" fill="#fff"/>
    </g>
    <g transform="matrix(1, 0, 0, 1, 523.23, 6246)" filter="url(#Contenido-4)">
      <path id="Contenido-8" data-name="Contenido" d="M37.188,29.984V65.3h6.719v9.219H37.188V86H25.938V74.516H1.523V64.867q3.242-3.633,6.719-7.949t6.719-8.887q3.242-4.57,6.035-9.2a92.216,92.216,0,0,0,4.746-8.848ZM12.578,65.3H25.938V45.727q-1.367,2.539-2.969,5.137T19.609,55.98q-1.758,2.52-3.555,4.883T12.578,65.3Z" transform="translate(146 325)" fill="#fff"/>
    </g>
    <g id="Trazado_987435" data-name="Trazado 987435" transform="translate(541.228 6258.576)" fill="#fff">
      <path d="M 28.4150390625 56.330078125 C 24.64630889892578 56.330078125 20.99057960510254 55.59207916259766 17.54939842224121 54.13657760620117 C 14.2253589630127 52.73062896728516 11.23995876312256 50.71778869628906 8.676129341125488 48.15395736694336 C 6.112298965454102 45.59012985229492 4.099449157714844 42.60472869873047 2.693499088287354 39.28067779541016 C 1.237999081611633 35.83950042724609 0.499999076128006 32.18376922607422 0.499999076128006 28.4150390625 C 0.499999076128006 24.64630889892578 1.237999081611633 20.9905891418457 2.693499088287354 17.54939842224121 C 4.099449157714844 14.2253589630127 6.112298965454102 11.23995876312256 8.676129341125488 8.676129341125488 C 11.23995876312256 6.112298965454102 14.2253589630127 4.099449157714844 17.54939842224121 2.693499088287354 C 20.9905891418457 1.237999081611633 24.64630889892578 0.499999076128006 28.4150390625 0.499999076128006 C 32.18376922607422 0.499999076128006 35.8394889831543 1.237999081611633 39.28067779541016 2.693499088287354 C 42.60471725463867 4.099449157714844 45.59011840820312 6.112298965454102 48.15394973754883 8.676129341125488 C 50.71777725219727 11.23995876312256 52.73062896728516 14.2253589630127 54.13657760620117 17.54939842224121 C 55.59207916259766 20.9905891418457 56.330078125 24.64630889892578 56.330078125 28.4150390625 C 56.330078125 32.18376922607422 55.59207916259766 35.83950042724609 54.13657760620117 39.28067779541016 C 52.73062896728516 42.60472869873047 50.71777725219727 45.59012985229492 48.15394973754883 48.15395736694336 C 45.59011840820312 50.71778869628906 42.60471725463867 52.73062896728516 39.28067779541016 54.13657760620117 C 35.83950042724609 55.59207916259766 32.18376922607422 56.330078125 28.4150390625 56.330078125 Z" stroke="none"/>
      <path d="M 28.4150390625 1 C 24.71358871459961 1 21.12339019775391 1.724708557128906 17.74416732788086 3.153999328613281 C 14.47972869873047 4.534740447998047 11.54774856567383 6.511608123779297 9.029678344726562 9.029678344726562 C 6.511608123779297 11.54774856567383 4.534740447998047 14.47972869873047 3.153999328613281 17.74417877197266 C 1.724708557128906 21.12339782714844 1 24.71358871459961 1 28.4150390625 C 1 32.11648941040039 1.724708557128906 35.70668029785156 3.153999328613281 39.08589935302734 C 4.534740447998047 42.35034942626953 6.511608123779297 45.28232955932617 9.029678344726562 47.80039978027344 C 11.54774856567383 50.3184700012207 14.47972869873047 52.29533767700195 17.74416732788086 53.67607879638672 C 21.12339019775391 55.10536956787109 24.71358871459961 55.830078125 28.4150390625 55.830078125 C 32.11648941040039 55.830078125 35.70668029785156 55.10536956787109 39.08589935302734 53.67607879638672 C 42.35034942626953 52.29533767700195 45.28232955932617 50.3184700012207 47.80039978027344 47.80039978027344 C 50.3184700012207 45.28232955932617 52.29533767700195 42.35034942626953 53.67607879638672 39.08589935302734 C 55.10536956787109 35.70668029785156 55.830078125 32.11648941040039 55.830078125 28.4150390625 C 55.830078125 24.71358871459961 55.10536956787109 21.12339782714844 53.67607879638672 17.74417877197266 C 52.29533767700195 14.47972869873047 50.3184700012207 11.54774856567383 47.80039978027344 9.029678344726562 C 45.28232955932617 6.511608123779297 42.35034942626953 4.534740447998047 39.08589935302734 3.153999328613281 C 35.70668029785156 1.724708557128906 32.11648941040039 1 28.4150390625 1 M 28.4150390625 0 C 44.10823059082031 0 56.830078125 12.72184753417969 56.830078125 28.4150390625 C 56.830078125 44.10823059082031 44.10823059082031 56.830078125 28.4150390625 56.830078125 C 12.72183990478516 56.830078125 0 44.10823059082031 0 28.4150390625 C 0 12.72184753417969 12.72183990478516 0 28.4150390625 0 Z" stroke="none" fill="#6f6e88"/>
    </g>
    <g id="Trazado_994157" data-name="Trazado 994157" transform="translate(967.813 6301)" fill="#fff">
      <path d="M 28.4150390625 56.330078125 C 24.64630889892578 56.330078125 20.99057960510254 55.59207916259766 17.54939842224121 54.13657760620117 C 14.2253589630127 52.73062896728516 11.23995876312256 50.71778869628906 8.676129341125488 48.15395736694336 C 6.112298965454102 45.59012985229492 4.099449157714844 42.60472869873047 2.693499088287354 39.28067779541016 C 1.237999081611633 35.83950042724609 0.499999076128006 32.18376922607422 0.499999076128006 28.4150390625 C 0.499999076128006 24.64630889892578 1.237999081611633 20.9905891418457 2.693499088287354 17.54939842224121 C 4.099449157714844 14.2253589630127 6.112298965454102 11.23995876312256 8.676129341125488 8.676129341125488 C 11.23995876312256 6.112298965454102 14.2253589630127 4.099449157714844 17.54939842224121 2.693499088287354 C 20.9905891418457 1.237999081611633 24.64630889892578 0.499999076128006 28.4150390625 0.499999076128006 C 32.18376922607422 0.499999076128006 35.8394889831543 1.237999081611633 39.28067779541016 2.693499088287354 C 42.60471725463867 4.099449157714844 45.59011840820312 6.112298965454102 48.15394973754883 8.676129341125488 C 50.71777725219727 11.23995876312256 52.73062896728516 14.2253589630127 54.13657760620117 17.54939842224121 C 55.59207916259766 20.9905891418457 56.330078125 24.64630889892578 56.330078125 28.4150390625 C 56.330078125 32.18376922607422 55.59207916259766 35.83950042724609 54.13657760620117 39.28067779541016 C 52.73062896728516 42.60472869873047 50.71777725219727 45.59012985229492 48.15394973754883 48.15395736694336 C 45.59011840820312 50.71778869628906 42.60471725463867 52.73062896728516 39.28067779541016 54.13657760620117 C 35.83950042724609 55.59207916259766 32.18376922607422 56.330078125 28.4150390625 56.330078125 Z" stroke="none"/>
      <path d="M 28.4150390625 1 C 24.71358871459961 1 21.12339019775391 1.724708557128906 17.74416732788086 3.153999328613281 C 14.47972869873047 4.534740447998047 11.54774856567383 6.511608123779297 9.029678344726562 9.029678344726562 C 6.511608123779297 11.54774856567383 4.534740447998047 14.47972869873047 3.153999328613281 17.74417877197266 C 1.724708557128906 21.12339782714844 1 24.71358871459961 1 28.4150390625 C 1 32.11648941040039 1.724708557128906 35.70668029785156 3.153999328613281 39.08589935302734 C 4.534740447998047 42.35034942626953 6.511608123779297 45.28232955932617 9.029678344726562 47.80039978027344 C 11.54774856567383 50.3184700012207 14.47972869873047 52.29533767700195 17.74416732788086 53.67607879638672 C 21.12339019775391 55.10536956787109 24.71358871459961 55.830078125 28.4150390625 55.830078125 C 32.11648941040039 55.830078125 35.70668029785156 55.10536956787109 39.08589935302734 53.67607879638672 C 42.35034942626953 52.29533767700195 45.28232955932617 50.3184700012207 47.80039978027344 47.80039978027344 C 50.3184700012207 45.28232955932617 52.29533767700195 42.35034942626953 53.67607879638672 39.08589935302734 C 55.10536956787109 35.70668029785156 55.830078125 32.11648941040039 55.830078125 28.4150390625 C 55.830078125 24.71358871459961 55.10536956787109 21.12339782714844 53.67607879638672 17.74417877197266 C 52.29533767700195 14.47972869873047 50.3184700012207 11.54774856567383 47.80039978027344 9.029678344726562 C 45.28232955932617 6.511608123779297 42.35034942626953 4.534740447998047 39.08589935302734 3.153999328613281 C 35.70668029785156 1.724708557128906 32.11648941040039 1 28.4150390625 1 M 28.4150390625 0 C 44.10823059082031 0 56.830078125 12.72184753417969 56.830078125 28.4150390625 C 56.830078125 44.10823059082031 44.10823059082031 56.830078125 28.4150390625 56.830078125 C 12.72183990478516 56.830078125 0 44.10823059082031 0 28.4150390625 C 0 12.72184753417969 12.72183990478516 0 28.4150390625 0 Z" stroke="none" fill="#6f6e88"/>
    </g>
    <g id="Trazado_994158" data-name="Trazado 994158" transform="translate(996.228 6689)" fill="#fff">
      <path d="M 28.4150390625 56.330078125 C 24.64630889892578 56.330078125 20.99057960510254 55.59207916259766 17.54939842224121 54.13657760620117 C 14.2253589630127 52.73062896728516 11.23995876312256 50.71778869628906 8.676129341125488 48.15395736694336 C 6.112298965454102 45.59012985229492 4.099449157714844 42.60472869873047 2.693499088287354 39.28067779541016 C 1.237999081611633 35.83950042724609 0.499999076128006 32.18376922607422 0.499999076128006 28.4150390625 C 0.499999076128006 24.64630889892578 1.237999081611633 20.9905891418457 2.693499088287354 17.54939842224121 C 4.099449157714844 14.2253589630127 6.112298965454102 11.23995876312256 8.676129341125488 8.676129341125488 C 11.23995876312256 6.112298965454102 14.2253589630127 4.099449157714844 17.54939842224121 2.693499088287354 C 20.9905891418457 1.237999081611633 24.64630889892578 0.499999076128006 28.4150390625 0.499999076128006 C 32.18376922607422 0.499999076128006 35.8394889831543 1.237999081611633 39.28067779541016 2.693499088287354 C 42.60471725463867 4.099449157714844 45.59011840820312 6.112298965454102 48.15394973754883 8.676129341125488 C 50.71777725219727 11.23995876312256 52.73062896728516 14.2253589630127 54.13657760620117 17.54939842224121 C 55.59207916259766 20.9905891418457 56.330078125 24.64630889892578 56.330078125 28.4150390625 C 56.330078125 32.18376922607422 55.59207916259766 35.83950042724609 54.13657760620117 39.28067779541016 C 52.73062896728516 42.60472869873047 50.71777725219727 45.59012985229492 48.15394973754883 48.15395736694336 C 45.59011840820312 50.71778869628906 42.60471725463867 52.73062896728516 39.28067779541016 54.13657760620117 C 35.83950042724609 55.59207916259766 32.18376922607422 56.330078125 28.4150390625 56.330078125 Z" stroke="none"/>
      <path d="M 28.4150390625 1 C 24.71358871459961 1 21.12339019775391 1.724708557128906 17.74416732788086 3.153999328613281 C 14.47972869873047 4.534740447998047 11.54774856567383 6.511608123779297 9.029678344726562 9.029678344726562 C 6.511608123779297 11.54774856567383 4.534740447998047 14.47972869873047 3.153999328613281 17.74417877197266 C 1.724708557128906 21.12339782714844 1 24.71358871459961 1 28.4150390625 C 1 32.11648941040039 1.724708557128906 35.70668029785156 3.153999328613281 39.08589935302734 C 4.534740447998047 42.35034942626953 6.511608123779297 45.28232955932617 9.029678344726562 47.80039978027344 C 11.54774856567383 50.3184700012207 14.47972869873047 52.29533767700195 17.74416732788086 53.67607879638672 C 21.12339019775391 55.10536956787109 24.71358871459961 55.830078125 28.4150390625 55.830078125 C 32.11648941040039 55.830078125 35.70668029785156 55.10536956787109 39.08589935302734 53.67607879638672 C 42.35034942626953 52.29533767700195 45.28232955932617 50.3184700012207 47.80039978027344 47.80039978027344 C 50.3184700012207 45.28232955932617 52.29533767700195 42.35034942626953 53.67607879638672 39.08589935302734 C 55.10536956787109 35.70668029785156 55.830078125 32.11648941040039 55.830078125 28.4150390625 C 55.830078125 24.71358871459961 55.10536956787109 21.12339782714844 53.67607879638672 17.74417877197266 C 52.29533767700195 14.47972869873047 50.3184700012207 11.54774856567383 47.80039978027344 9.029678344726562 C 45.28232955932617 6.511608123779297 42.35034942626953 4.534740447998047 39.08589935302734 3.153999328613281 C 35.70668029785156 1.724708557128906 32.11648941040039 1 28.4150390625 1 M 28.4150390625 0 C 44.10823059082031 0 56.830078125 12.72184753417969 56.830078125 28.4150390625 C 56.830078125 44.10823059082031 44.10823059082031 56.830078125 28.4150390625 56.830078125 C 12.72183990478516 56.830078125 0 44.10823059082031 0 28.4150390625 C 0 12.72184753417969 12.72183990478516 0 28.4150390625 0 Z" stroke="none" fill="#6f6e88"/>
    </g>
    <g id="Trazado_994159" data-name="Trazado 994159" transform="translate(589.646 6666.269)" fill="#fff">
      <path d="M 28.4150390625 56.330078125 C 24.64630889892578 56.330078125 20.99057960510254 55.59207916259766 17.54939842224121 54.13657760620117 C 14.2253589630127 52.73062896728516 11.23995876312256 50.71778869628906 8.676129341125488 48.15395736694336 C 6.112298965454102 45.59012985229492 4.099449157714844 42.60472869873047 2.693499088287354 39.28067779541016 C 1.237999081611633 35.83950042724609 0.499999076128006 32.18376922607422 0.499999076128006 28.4150390625 C 0.499999076128006 24.64630889892578 1.237999081611633 20.9905891418457 2.693499088287354 17.54939842224121 C 4.099449157714844 14.2253589630127 6.112298965454102 11.23995876312256 8.676129341125488 8.676129341125488 C 11.23995876312256 6.112298965454102 14.2253589630127 4.099449157714844 17.54939842224121 2.693499088287354 C 20.9905891418457 1.237999081611633 24.64630889892578 0.499999076128006 28.4150390625 0.499999076128006 C 32.18376922607422 0.499999076128006 35.8394889831543 1.237999081611633 39.28067779541016 2.693499088287354 C 42.60471725463867 4.099449157714844 45.59011840820312 6.112298965454102 48.15394973754883 8.676129341125488 C 50.71777725219727 11.23995876312256 52.73062896728516 14.2253589630127 54.13657760620117 17.54939842224121 C 55.59207916259766 20.9905891418457 56.330078125 24.64630889892578 56.330078125 28.4150390625 C 56.330078125 32.18376922607422 55.59207916259766 35.83950042724609 54.13657760620117 39.28067779541016 C 52.73062896728516 42.60472869873047 50.71777725219727 45.59012985229492 48.15394973754883 48.15395736694336 C 45.59011840820312 50.71778869628906 42.60471725463867 52.73062896728516 39.28067779541016 54.13657760620117 C 35.83950042724609 55.59207916259766 32.18376922607422 56.330078125 28.4150390625 56.330078125 Z" stroke="none"/>
      <path d="M 28.4150390625 1 C 24.71358871459961 1 21.12339019775391 1.724708557128906 17.74416732788086 3.153999328613281 C 14.47972869873047 4.534740447998047 11.54774856567383 6.511608123779297 9.029678344726562 9.029678344726562 C 6.511608123779297 11.54774856567383 4.534740447998047 14.47972869873047 3.153999328613281 17.74417877197266 C 1.724708557128906 21.12339782714844 1 24.71358871459961 1 28.4150390625 C 1 32.11648941040039 1.724708557128906 35.70668029785156 3.153999328613281 39.08589935302734 C 4.534740447998047 42.35034942626953 6.511608123779297 45.28232955932617 9.029678344726562 47.80039978027344 C 11.54774856567383 50.3184700012207 14.47972869873047 52.29533767700195 17.74416732788086 53.67607879638672 C 21.12339019775391 55.10536956787109 24.71358871459961 55.830078125 28.4150390625 55.830078125 C 32.11648941040039 55.830078125 35.70668029785156 55.10536956787109 39.08589935302734 53.67607879638672 C 42.35034942626953 52.29533767700195 45.28232955932617 50.3184700012207 47.80039978027344 47.80039978027344 C 50.3184700012207 45.28232955932617 52.29533767700195 42.35034942626953 53.67607879638672 39.08589935302734 C 55.10536956787109 35.70668029785156 55.830078125 32.11648941040039 55.830078125 28.4150390625 C 55.830078125 24.71358871459961 55.10536956787109 21.12339782714844 53.67607879638672 17.74417877197266 C 52.29533767700195 14.47972869873047 50.3184700012207 11.54774856567383 47.80039978027344 9.029678344726562 C 45.28232955932617 6.511608123779297 42.35034942626953 4.534740447998047 39.08589935302734 3.153999328613281 C 35.70668029785156 1.724708557128906 32.11648941040039 1 28.4150390625 1 M 28.4150390625 0 C 44.10823059082031 0 56.830078125 12.72184753417969 56.830078125 28.4150390625 C 56.830078125 44.10823059082031 44.10823059082031 56.830078125 28.4150390625 56.830078125 C 12.72183990478516 56.830078125 0 44.10823059082031 0 28.4150390625 C 0 12.72184753417969 12.72183990478516 0 28.4150390625 0 Z" stroke="none" fill="#6f6e88"/>
    </g>
    <g id="Enmascarar_grupo_1098684" data-name="Enmascarar grupo 1098684" transform="translate(-5.875 -12.913)" clip-path="url(#clip-path-9)">
      <g id="Grupo_1159124" data-name="Grupo 1159124" transform="translate(726.094 6448.373)">
        <path id="Trazado_994566" data-name="Trazado 994566" d="M605.61,179.694s3.947,44.559,7.939,48.325,11.345,3.318,12.822-.195,3.9-42.459-.84-45.894S605.61,179.694,605.61,179.694Z" transform="translate(-544.678 -23.122)" fill="#d98d65"/>
        <g id="Grupo_1159119" data-name="Grupo 1159119" transform="translate(54.2 201.343)">
          <path id="Trazado_994567" data-name="Trazado 994567" d="M626.358,228.923s-9.751-1.173-13.072.49-17.533,11.056-12.907,12.752,19.593.892,24.547-1.3S629.159,229.239,626.358,228.923Z" transform="translate(-599.462 -219.803)" fill="#ca4f24"/>
          <path id="Trazado_994568" data-name="Trazado 994568" d="M614.225,234.221a5.307,5.307,0,0,0-3.809-3.186l.2-1.076a6.416,6.416,0,0,1,4.638,3.881Z" transform="translate(-598.421 -219.667)" fill="#3e2f4d"/>
          <g id="Grupo_1159117" data-name="Grupo 1159117" transform="translate(8.19 11.684)">
            <path id="Trazado_994569" data-name="Trazado 994569" d="M611.732,235.293s-3.085-3.054-4.626-3.591" transform="translate(-606.925 -231.185)" fill="#ca4f24"/>
            <path id="Trazado_994570" data-name="Trazado 994570" d="M611.362,235.726c-.835-.826-3.255-3.056-4.421-3.463l.359-1.034c1.612.562,4.506,3.4,4.831,3.719Z" transform="translate(-606.941 -231.23)" fill="#3e2f4d"/>
          </g>
          <g id="Grupo_1159118" data-name="Grupo 1159118" transform="translate(5.086 14.279)">
            <path id="Trazado_994571" data-name="Trazado 994571" d="M608.9,237.662s-3.085-3.054-4.626-3.591" transform="translate(-604.091 -233.555)" fill="#ca4f24"/>
            <path id="Trazado_994572" data-name="Trazado 994572" d="M608.527,238.1c-.834-.826-3.253-3.056-4.42-3.463l.359-1.034c1.612.561,4.506,3.4,4.83,3.719Z" transform="translate(-604.107 -233.6)" fill="#3e2f4d"/>
          </g>
          <path id="Trazado_994573" data-name="Trazado 994573" d="M626.158,230.087s.954-9.112-.841-9.227-12.578-.857-13.625.537-.288,8.025.841,8.4S625.66,231.029,626.158,230.087Z" transform="translate(-598.347 -220.56)" fill="#f2d9c9"/>
        </g>
        <path id="Trazado_994574" data-name="Trazado 994574" d="M642.733,183.277s11.066,28.3,30.537,40.623c4.637,2.935,11.9-5.836,9.945-9.106-15.269-25.494-15.733-38.619-21.572-38.241S642.733,183.277,642.733,183.277Z" transform="translate(-541.149 -23.402)" fill="#d98d65"/>
        <g id="Grupo_1159122" data-name="Grupo 1159122" transform="translate(129.739 189.06)">
          <path id="Trazado_994575" data-name="Trazado 994575" d="M684.117,216.32s-8.257,5.317-9.754,8.717-6.449,19.7-1.8,18.053,15.659-11.813,18.075-16.659S686.476,214.776,684.117,216.32Z" transform="translate(-668.237 -208.702)" fill="#ca4f24"/>
          <path id="Trazado_994576" data-name="Trazado 994576" d="M678.79,226.735a5.31,5.31,0,0,0-4.966-.023l-.534-.955a6.416,6.416,0,0,1,6.048.03Z" transform="translate(-667.983 -207.856)" fill="#3e2f4d"/>
          <g id="Grupo_1159120" data-name="Grupo 1159120" transform="translate(3.388 20.946)">
            <path id="Trazado_994577" data-name="Trazado 994577" d="M677.565,229.1s-4.325-.383-5.853.186" transform="translate(-671.52 -228.424)" fill="#ca4f24"/>
            <path id="Trazado_994578" data-name="Trazado 994578" d="M671.92,229.849l-.383-1.027c1.6-.6,5.635-.258,6.092-.218l-.1,1.091C676.364,229.591,673.079,229.417,671.92,229.849Z" transform="translate(-671.537 -228.472)" fill="#3e2f4d"/>
          </g>
          <g id="Grupo_1159121" data-name="Grupo 1159121" transform="translate(2.653 24.925)">
            <path id="Trazado_994579" data-name="Trazado 994579" d="M676.894,232.734s-4.324-.383-5.853.186" transform="translate(-670.849 -232.057)" fill="#ca4f24"/>
            <path id="Trazado_994580" data-name="Trazado 994580" d="M671.249,233.482l-.383-1.027c1.6-.6,5.636-.258,6.092-.218l-.1,1.091C675.694,233.224,672.409,233.05,671.249,233.482Z" transform="translate(-670.866 -232.105)" fill="#3e2f4d"/>
          </g>
          <path id="Trazado_994581" data-name="Trazado 994581" d="M685.289,216.691s-4.393-8.311-5.849-7.254-11.079,7.922-11,9.664,5.472,6.73,6.584,6.3S685.505,217.734,685.289,216.691Z" transform="translate(-668.443 -209.344)" fill="#f2d9c9"/>
        </g>
        <path id="Trazado_994582" data-name="Trazado 994582" d="M608.967,207.41s17.932-.411,18.753-.548.274-12.183.274-12.183-20.259.684-20.259,1.643S608.009,206.589,608.967,207.41Z" transform="translate(-544.476 -21.678)" fill="#cf6557"/>
        <path id="Trazado_994583" data-name="Trazado 994583" d="M654.907,205.433s18.479-7.8,18.343-9.582-5.612-12.046-5.612-12.046-19.3,10.266-19.027,11.5S653.949,205.022,654.907,205.433Z" transform="translate(-540.59 -22.712)" fill="#cf6557"/>
        <path id="Trazado_994584" data-name="Trazado 994584" d="M596.38,169.524s-1.77,30.543,4.417,33.846c5.486,2.929,28.436,4.482,32.816-.446s3.833-33.947,3.833-33.947,0,25.734,6.023,31.757,27.924-4.38,33.4-8.761-2.19-23-6.023-26.829S596.38,169.524,596.38,169.524Z" transform="translate(-545.578 -24.583)" fill="#9da6b8"/>
        <path id="Trazado_994585" data-name="Trazado 994585" d="M584.8,136.376s-15.331-18.981-.73-27.742-10.22-18.252,6.57-30.662-3.669-34.441,35.042-40.153c44.533-6.57,38.692,17.521,46.724,26.282s16.791,5.84,11.681,21.171,13.871,8.761,13.871,30.662-35.042,47.453-53.294,35.773S601.6,180.909,584.8,136.376Z" transform="translate(-547.325 -36.699)" fill="#e7bf61"/>
        <path id="Trazado_994586" data-name="Trazado 994586" d="M639.388,105.754s22.382-5.717,29.28.592,13.893,51.029,9.837,60.531-49.962-2.9-56.657-5.548-2.645-47.616-.515-50.536S639.388,105.754,639.388,105.754Z" transform="translate(-543.485 -30.359)" fill="#786892"/>
        <path id="Trazado_994587" data-name="Trazado 994587" d="M654.445,109.222s-33.4-5.9-47.651,5.508-11.084,63.756-8.985,67.313,43.671-.587,74.7-4.237C688.19,175.963,662.284,112.1,654.445,109.222Z" transform="translate(-545.596 -29.948)" fill="#d47d95"/>
        <g id="Grupo_1159123" data-name="Grupo 1159123" transform="translate(56.579 17.807)">
          <path id="Trazado_994588" data-name="Trazado 994588" d="M645.877,82.786s-1.6-13.033,8.412-12.246,9.871,18.11,1.609,20.821S645.877,82.786,645.877,82.786Z" transform="translate(-597.438 -51.291)" fill="#d98d65"/>
          <path id="Trazado_994589" data-name="Trazado 994589" d="M647.938,54.522S617.63,48.893,608.346,59s-7.8,35.88-2.387,40.406c7.778,6.5,13.012,2.3,13.743,6.452,1.99,11.3-9.494,8.533-.194,16.6s19.858-1.378,20.256-9.055-.667-6.76,3.373-7.168,14.141-.821,14.932-19S657.233,55.725,647.938,54.522Z" transform="translate(-601.635 -52.959)" fill="#d98d65"/>
          <circle id="Elipse_11649" data-name="Elipse 11649" cx="4.445" cy="4.445" r="4.445" transform="translate(28.381 20.923)" fill="#261e35"/>
          <circle id="Elipse_11650" data-name="Elipse 11650" cx="4.445" cy="4.445" r="4.445" transform="translate(8.695 19.086)" fill="#261e35"/>
          <circle id="Elipse_11651" data-name="Elipse 11651" cx="5.83" cy="5.83" r="5.83" transform="translate(36.496 29.615)" fill="#cf6557"/>
          <circle id="Elipse_11652" data-name="Elipse 11652" cx="5.83" cy="5.83" r="5.83" transform="translate(2.51 30.085)" fill="#cf6557"/>
          <path id="Trazado_994590" data-name="Trazado 994590" d="M616.985,99.555s13.34,2.394,15.655,1.795,1.714,8.4-14.971,6.966C617.669,108.316,618.281,101.843,616.985,99.555Z" transform="translate(-600.176 -48.529)" fill="#cf6557"/>
          <path id="Trazado_994591" data-name="Trazado 994591" d="M621.681,85.576a4.165,4.165,0,0,1-2.949-1.084,6.506,6.506,0,0,1-1.646-4.6.949.949,0,0,1,.449-.793c.8-.5,2.664.1,3.838.566l2.137-7.716,1.055.292-2.47,8.924-.578-.253A8.708,8.708,0,0,0,618.179,80a5.255,5.255,0,0,0,1.3,3.693,3.326,3.326,0,0,0,2.747.759l.114,1.09A6.571,6.571,0,0,1,621.681,85.576Z" transform="translate(-600.166 -51.154)" fill="#261e35"/>
          <path id="Trazado_994592" data-name="Trazado 994592" d="M623.382,91.643c-1.715,0-3.357-1.677-5.014-5.112l.986-.476c1.472,3.051,2.911,4.593,4.171,4.487,1.939-.177,3.443-4.154,3.858-5.673l1.057.29c-.173.633-1.783,6.2-4.815,6.473C623.542,91.639,623.462,91.643,623.382,91.643Z" transform="translate(-600.044 -49.925)" fill="#261e35"/>
          <path id="Trazado_994593" data-name="Trazado 994593" d="M637.6,69.415a4.417,4.417,0,0,0-2.186-2.279,3.185,3.185,0,0,0-2.642.368l-.525-.961a4.23,4.23,0,0,1,3.544-.435,5.462,5.462,0,0,1,2.824,2.9Z" transform="translate(-598.725 -51.73)" fill="#261e35"/>
          <path id="Trazado_994594" data-name="Trazado 994594" d="M611.891,66.134l-.931-.577a4.228,4.228,0,0,1,2.864-2.13,5.442,5.442,0,0,1,3.891,1.122l-.681.857a4.425,4.425,0,0,0-3.028-.9A3.19,3.19,0,0,0,611.891,66.134Z" transform="translate(-600.749 -51.969)" fill="#261e35"/>
          <path id="Trazado_994595" data-name="Trazado 994595" d="M653.435,86.3a1.678,1.678,0,0,1-1.382-.717c-1.187-1.6-.658-5.75.608-8.021,1.37-2.461,3.515-2.51,4.456-2.193l-.348,1.038.174-.519-.17.52c-.08-.024-1.9-.572-3.156,1.686-1.152,2.07-1.517,5.711-.683,6.837a.616.616,0,0,0,.7.251l.231,1.071A2.056,2.056,0,0,1,653.435,86.3Z" transform="translate(-596.905 -50.841)" fill="#261e35"/>
        </g>
        <path id="Trazado_994596" data-name="Trazado 994596" d="M647.771,111.455s38.478-7.238,37.951-32.2c0,0-4.792-14.655-1.071-13.3S688.8,76.792,688.8,76.792s-1.728-15.5,2.179-13.278,2.6,13.687,2.6,13.687,1.993-14.14,4.47-12.691.591,13.58.591,13.58,3.022-10.213,5.2-5.993-3.413,11.74-3.413,11.74,1.64,47.624-41.117,50.918Z" transform="translate(-540.67 -34.17)" fill="#d98d65"/>
        <path id="Trazado_994597" data-name="Trazado 994597" d="M690.032,82.9l-1.082-.164c.005-.038.561-3.873-1.138-5.564a3.246,3.246,0,0,0-2.977-.724l-.169-1.082a4.321,4.321,0,0,1,3.92,1.033C690.677,78.484,690.059,82.722,690.032,82.9Z" transform="translate(-537.162 -33.03)" fill="#3e2f4d"/>
        <path id="Trazado_994598" data-name="Trazado 994598" d="M614.5,118.2s-39.026,3.13-45.078-21.089c0,0,.772-15.4-2.461-13.11S565.8,95.537,565.8,95.537,563.4,80.129,560.211,83.3s1.09,13.889,1.09,13.889-5.639-13.118-7.649-11.07,3,13.258,3,13.258-5.6-9.06-6.59-4.418,6.379,10.431,6.379,10.431,10.934,46.381,53.054,38.321Z" transform="translate(-549.968 -32.309)" fill="#d98d65"/>
        <path id="Trazado_994599" data-name="Trazado 994599" d="M561.941,101.841c-.073-.166-1.784-4.093-.314-6.654a4.322,4.322,0,0,1,3.512-2.027l.122,1.089a3.248,3.248,0,0,0-2.682,1.482c-1.2,2.078.348,5.632.364,5.667Z" transform="translate(-548.917 -31.33)" fill="#3e2f4d"/>
        <path id="Trazado_994600" data-name="Trazado 994600" d="M610.838,47.55c-.465,0-9.464,12.722-7.756,15.2s18.926,3.258,20.168,1.241,3.723-11.014,3.723-11.014-4.033,10.239.621,11.945,18.151,2.948,20.478,2.637,5.585-12.256-5.585-19.7S610.838,47.55,610.838,47.55Z" transform="translate(-544.939 -35.96)" fill="#e7bf61"/>
        <path id="Trazado_994601" data-name="Trazado 994601" d="M644.184,109.456s16.841-8.78,20.666-7.107,13.628,20.561,14.107,25.343-13.389,11.476-16.736,10.759S643.945,116.629,644.184,109.456Z" transform="translate(-541.011 -30.477)" fill="#d47d95"/>
        <path id="Trazado_994602" data-name="Trazado 994602" d="M618.8,109.439s-19.566-1.272-23.152-.077-13.15,30.126-10.042,32.995,20.8,5.26,23.67,2.869S614.049,118.2,618.8,109.439Z" transform="translate(-546.639 -29.839)" fill="#d47d95"/>
        <path id="Trazado_994603" data-name="Trazado 994603" d="M647.175,106.822s8.2,46.645,27.179,45.184c0,0,3.24,11.432,1.46,13.871s-24.452-11.194-29.2-27.742-9.89-29.833-8.4-31.027S647.175,106.822,647.175,106.822Z" transform="translate(-541.603 -30.063)" fill="#786892"/>
        <path id="Trazado_994604" data-name="Trazado 994604" d="M615.618,109.111s-8.4,13.678-11.989,27.783c-3.794,14.924-4.8,26.606-6.317,33.053-.687,2.922-5.785-6.082-5.785-15.207,0-6.411,9.2-38.807,14.236-43.438S615.618,109.111,615.618,109.111Z" transform="translate(-546.017 -29.875)" fill="#786892"/>
        <path id="Trazado_994605" data-name="Trazado 994605" d="M607.373,168.121c-3.06,0-4.825-.091-4.874-.092l.06-1.094a179.27,179.27,0,0,0,31.285-1.82,303.737,303.737,0,0,1,36.945-2.56v1.1A302.618,302.618,0,0,0,634,166.2,192.724,192.724,0,0,1,607.373,168.121Z" transform="translate(-544.974 -24.733)" fill="#fff"/>
        <path id="Trazado_994606" data-name="Trazado 994606" d="M624.646,124.458a14.5,14.5,0,0,1-9.848-3.57,8.694,8.694,0,0,1-3.1-6.167h1.1a7.716,7.716,0,0,0,2.75,5.36,13.759,13.759,0,0,0,10.527,3.221c7.992-.7,11.938-7.68,11.978-7.75l.959.528c-.17.309-4.257,7.566-12.844,8.312Q625.4,124.459,624.646,124.458Z" transform="translate(-544.1 -29.281)" fill="#fff"/>
        <path id="Trazado_994607" data-name="Trazado 994607" d="M616.847,130.657a33.609,33.609,0,0,1-10.152-1.642l.364-1.033a32.257,32.257,0,0,0,12.532,1.432c6.5-.722,22.121-2.176,22.278-2.191l.1,1.091c-.157.014-15.766,1.467-22.256,2.189A26.133,26.133,0,0,1,616.847,130.657Z" transform="translate(-544.575 -28.092)" fill="#fff"/>
        <path id="Trazado_994608" data-name="Trazado 994608" d="M604.329,139.312l-.007-1.1c.068,0,6.9-.053,17.343-.773s25.01-2.533,25.157-2.552l.135,1.086c-.146.019-14.736,1.835-25.216,2.558S604.4,139.312,604.329,139.312Z" transform="translate(-544.801 -27.363)" fill="#fff"/>
        <path id="Trazado_994609" data-name="Trazado 994609" d="M601.551,147.537l-.045-1.094c.263-.011,26.38-1.1,33.97-1.1a155.412,155.412,0,0,0,17.81-1.454l.154,1.084a156.575,156.575,0,0,1-17.964,1.465C627.909,146.442,601.814,147.526,601.551,147.537Z" transform="translate(-545.068 -26.507)" fill="#fff"/>
        <path id="Trazado_994610" data-name="Trazado 994610" d="M610.477,157.678a87.7,87.7,0,0,1-10.686-.535l.15-1.084c.091.012,9.249,1.24,23.6-.1,4.588-.429,35.288-2.888,36.6-1.24l.184.232-.077.362-1.039-.346a.449.449,0,0,0,.169.517c-1.422-.7-20.459.139-35.732,1.565C618.555,157.523,614.108,157.678,610.477,157.678Z" transform="translate(-545.232 -25.531)" fill="#fff"/>
        <path id="Trazado_994611" data-name="Trazado 994611" d="M663.951,133.646c-1.787-8.579-10.44-24.145-10.527-24.3l.956-.533c.359.644,8.823,15.87,10.643,24.612Z" transform="translate(-540.132 -29.842)" fill="#fff"/>
        <path id="Trazado_994612" data-name="Trazado 994612" d="M671.822,130.451c-.024-.083-2.572-8.371-6.128-13.347a74.8,74.8,0,0,1-6.63-12.152l1.01-.425a73.374,73.374,0,0,0,6.511,11.94c3.661,5.125,6.178,13.318,6.284,13.665Z" transform="translate(-539.596 -30.25)" fill="#fff"/>
        <path id="Trazado_994613" data-name="Trazado 994613" d="M589.777,140.811,588.7,140.6c.091-.465,2.239-11.46,5.165-16.945,2.883-5.406,6.889-13.412,6.929-13.492l.98.49c-.04.08-4.052,8.1-6.942,13.519C591.985,129.513,589.8,140.7,589.777,140.811Z" transform="translate(-546.286 -29.714)" fill="#fff"/>
        <path id="Trazado_994614" data-name="Trazado 994614" d="M606.854,196.523c-3.527,0-5.636-.106-5.687-.108l.058-1.094a182.406,182.406,0,0,0,27.331-1.138l.126,1.087A192.612,192.612,0,0,1,606.854,196.523Z" transform="translate(-545.101 -21.726)" fill="#3e2f4d"/>
        <path id="Trazado_994615" data-name="Trazado 994615" d="M644.735,194.46l-.385-1.026c.029-.011,3.05-1.138,13.165-4.389,9.92-3.188,12.565-5.351,12.59-5.371l.71.833c-.108.092-2.756,2.3-12.965,5.582C647.772,193.327,644.764,194.449,644.735,194.46Z" transform="translate(-540.995 -22.725)" fill="#3e2f4d"/>
        <path id="Trazado_994616" data-name="Trazado 994616" d="M587.548,111.236,587.2,110.2c.086-.03,8.682-2.965,8.935-8.539.093-2.054-.644-4.762-1.356-7.382-1.385-5.093-2.817-10.362,1.091-12.51,5.125-2.819,4.921-13.092,4.918-13.195l1.1-.027c.012.45.217,11.046-5.485,14.182-3.153,1.733-1.836,6.579-.562,11.264.734,2.7,1.493,5.493,1.392,7.718C596.943,108.032,587.931,111.107,587.548,111.236Z" transform="translate(-546.428 -33.671)" fill="#3e2f4d"/>
        <path id="Trazado_994617" data-name="Trazado 994617" d="M604.706,107.722l-.638-.89a7.555,7.555,0,0,0,2.521-7.661l1.073-.215A8.632,8.632,0,0,1,604.706,107.722Z" transform="translate(-544.825 -30.779)" fill="#3e2f4d"/>
        <path id="Trazado_994618" data-name="Trazado 994618" d="M614.689,59.741c-3.076-10.624,5.293-17.749,5.377-17.82l.7.841c-.079.067-7.9,6.751-5.026,16.675Z" transform="translate(-543.88 -36.202)" fill="#3e2f4d"/>
        <path id="Trazado_994619" data-name="Trazado 994619" d="M605.2,59.064l-1.078-.2c.114-.627,2.913-15.412,13.224-19.035l.363,1.033C607.989,44.28,605.223,58.916,605.2,59.064Z" transform="translate(-544.82 -36.401)" fill="#3e2f4d"/>
        <path id="Trazado_994620" data-name="Trazado 994620" d="M629.236,59.2l-1.093-.078c.533-7.464-3.216-18.013-3.255-18.118l1.031-.37C626.078,41.076,629.785,51.51,629.236,59.2Z" transform="translate(-542.845 -36.324)" fill="#3e2f4d"/>
        <path id="Trazado_994621" data-name="Trazado 994621" d="M641.766,60.687l-1.01-.425c2.292-5.457,1.351-10.622-2.795-15.35a26.445,26.445,0,0,0-7.075-5.576l.49-.98C631.54,38.439,647.645,46.688,641.766,60.687Z" transform="translate(-542.275 -36.541)" fill="#3e2f4d"/>
        <path id="Trazado_994622" data-name="Trazado 994622" d="M672.755,99.047c-1.891,0-3.2-.5-4.009-1.523-1.613-2.048-.726-5.723.211-9.613.854-3.541,1.738-7.2.818-9.759-.969-2.692-3.063-4.158-5.278-5.712-3.182-2.23-6.788-4.756-7.616-11.38-1.326-10.61-14.454-21.437-14.586-21.546l.693-.848c.554.453,13.6,11.216,14.981,22.257.768,6.141,4.017,8.418,7.157,10.619,2.363,1.656,4.595,3.218,5.681,6.238,1.03,2.864.108,6.689-.784,10.387-.875,3.625-1.7,7.048-.417,8.678a3.775,3.775,0,0,0,3.149,1.106v1.1Z" transform="translate(-541.19 -36.511)" fill="#3e2f4d"/>
        <path id="Trazado_994623" data-name="Trazado 994623" d="M663.491,100.126a6.275,6.275,0,0,1-4.309-2.7c-1.04-1.719-1.03-4.008.029-6.8l1.025.388c-.935,2.464-.975,4.431-.116,5.847a5.2,5.2,0,0,0,3.5,2.176Z" transform="translate(-539.658 -31.571)" fill="#3e2f4d"/>
      </g>
    </g>
  </g>
</svg>
