<svg xmlns="http://www.w3.org/2000/svg" xmlns:xlink="http://www.w3.org/1999/xlink" width="108" height="108" viewBox="0 0 108 108">
  <defs>
    <filter id="Fondo" x="0" y="0" width="108" height="108" filterUnits="userSpaceOnUse">
      <feOffset dy="3" input="SourceAlpha"/>
      <feGaussianBlur stdDeviation="3" result="blur"/>
      <feFlood flood-opacity="0.161"/>
      <feComposite operator="in" in2="blur"/>
      <feComposite in="SourceGraphic"/>
    </filter>
  </defs>
  <g id="Grupo_1162991" data-name="Grupo 1162991" transform="translate(-154.228 -6901)">
    <g id="Grupo_1158162" data-name="Grupo 1158162" transform="translate(-42.458 5715)">
      <g transform="matrix(1, 0, 0, 1, 196.69, 1186)" filter="url(#Fondo)">
        <g id="Fondo-2" data-name="Fondo" transform="translate(9 6)" fill="#ebe9f0">
          <path d="M 45 88.5 C 39.12687683105469 88.5 33.43022537231445 87.35007476806641 28.06830024719238 85.08217620849609 C 22.88852500915527 82.89131164550781 18.23629951477051 79.75458526611328 14.2408504486084 75.75914764404297 C 10.24541282653809 71.76370239257812 7.108687400817871 67.11147308349609 4.917825222015381 61.93170166015625 C 2.649924993515015 56.56977462768555 1.5 50.87312316894531 1.5 45 C 1.5 39.12687683105469 2.649924993515015 33.43022537231445 4.917825222015381 28.06830024719238 C 7.108687400817871 22.88852500915527 10.24541282653809 18.23629951477051 14.2408504486084 14.2408504486084 C 18.23629951477051 10.24541282653809 22.88852500915527 7.108687400817871 28.06830024719238 4.917825222015381 C 33.43022537231445 2.649924993515015 39.12687683105469 1.5 45 1.5 C 50.87312316894531 1.5 56.56977462768555 2.649924993515015 61.93170166015625 4.917825222015381 C 67.11147308349609 7.108687400817871 71.76370239257812 10.24541282653809 75.75914764404297 14.2408504486084 C 79.75458526611328 18.23629951477051 82.89131164550781 22.88852500915527 85.08217620849609 28.06830024719238 C 87.35007476806641 33.43022537231445 88.5 39.12687683105469 88.5 45 C 88.5 50.87312316894531 87.35007476806641 56.56977462768555 85.08217620849609 61.93170166015625 C 82.89131164550781 67.11147308349609 79.75458526611328 71.76370239257812 75.75914764404297 75.75914764404297 C 71.76370239257812 79.75458526611328 67.11147308349609 82.89131164550781 61.93170166015625 85.08217620849609 C 56.56977462768555 87.35007476806641 50.87312316894531 88.5 45 88.5 Z" stroke="none"/>
          <path d="M 45 3 C 39.32871246337891 3 33.82865524291992 4.110054016113281 28.65262985229492 6.299339294433594 C 23.65165710449219 8.414573669433594 19.15968322753906 11.44334411621094 15.301513671875 15.301513671875 C 11.44334411621094 19.15968322753906 8.414573669433594 23.65165710449219 6.299339294433594 28.65262985229492 C 4.110054016113281 33.82865524291992 3 39.32871246337891 3 45 C 3 50.67128753662109 4.110054016113281 56.17134475708008 6.299339294433594 61.34737396240234 C 8.414573669433594 66.34834289550781 11.44334411621094 70.84031677246094 15.301513671875 74.698486328125 C 19.15968322753906 78.55665588378906 23.65165710449219 81.58542633056641 28.65262985229492 83.70066070556641 C 33.82865524291992 85.88994598388672 39.32871246337891 87 45 87 C 50.67128753662109 87 56.17134475708008 85.88994598388672 61.34737396240234 83.70066070556641 C 66.34834289550781 81.58542633056641 70.84031677246094 78.55665588378906 74.698486328125 74.698486328125 C 78.55665588378906 70.84031677246094 81.58542633056641 66.34834289550781 83.70066070556641 61.34737396240234 C 85.88994598388672 56.17134475708008 87 50.67128753662109 87 45 C 87 39.32871246337891 85.88994598388672 33.82865524291992 83.70066070556641 28.65262985229492 C 81.58542633056641 23.65165710449219 78.55665588378906 19.15968322753906 74.698486328125 15.301513671875 C 70.84031677246094 11.44334411621094 66.34834289550781 8.414573669433594 61.34737396240234 6.299339294433594 C 56.17134475708008 4.110054016113281 50.67128753662109 3 45 3 M 45 0 C 69.85281372070312 0 90 20.14718627929688 90 45 C 90 69.85281372070312 69.85281372070312 90 45 90 C 20.14718627929688 90 0 69.85281372070312 0 45 C 0 20.14718627929688 20.14718627929688 0 45 0 Z" stroke="none" fill="#453179"/>
        </g>
      </g>
    </g>
    <g id="nutricion_3_" data-name="nutricion (3)" transform="translate(166.15 6923)">
      <path id="Trazado_999008" data-name="Trazado 999008" d="M140.8,137.793a18.077,18.077,0,0,0-5.238.772v13.81a.562.562,0,0,1-.562.562H122.954a18.092,18.092,0,0,0,22.891,20.3V161.485a.562.562,0,0,1,.562-.562H158.16a18.092,18.092,0,0,0-17.365-23.13Z" transform="translate(-95.543 -122.311)" fill="#fd4755"/>
      <g id="Grupo_1162977" data-name="Grupo 1162977" transform="translate(45.252 33.562)">
        <g id="Grupo_1162976" data-name="Grupo 1162976" transform="translate(0)">
          <path id="Trazado_999009" data-name="Trazado 999009" d="M283.636,298.715V316.8a18.149,18.149,0,0,0,3.762-.393V298.715Z" transform="translate(-283.636 -298.715)" fill="#fb2b3a"/>
        </g>
      </g>
      <g id="Grupo_1162978" data-name="Grupo 1162978" transform="translate(45.252 15.482)">
        <path id="Trazado_999010" data-name="Trazado 999010" d="M283.636,155.873h18.08a18.08,18.08,0,0,0-18.08-18.08Z" transform="translate(-283.636 -137.793)" fill="#8bc727"/>
      </g>
      <g id="Grupo_1162979" data-name="Grupo 1162979" transform="translate(45.252 15.482)">
        <path id="Trazado_999011" data-name="Trazado 999011" d="M283.636,137.793v18.08H287.4V138.186A18.152,18.152,0,0,0,283.636,137.793Z" transform="translate(-283.636 -137.793)" fill="#81b823"/>
      </g>
      <path id="Trazado_999012" data-name="Trazado 999012" d="M135.557,138.565v13.81a.562.562,0,0,1-.562.562H122.954A18.089,18.089,0,0,0,140.8,173.954V137.793A18.08,18.08,0,0,0,135.557,138.565Z" transform="translate(-95.543 -122.311)" fill="#fac600"/>
      <g id="Grupo_1162980" data-name="Grupo 1162980" transform="translate(27.172 30.625)">
        <path id="Trazado_999013" data-name="Trazado 999013" d="M126.468,275.514a18.2,18.2,0,0,1,.238-2.937h-3.753A18.089,18.089,0,0,0,140.8,293.594V293.2A18.086,18.086,0,0,1,126.468,275.514Z" transform="translate(-122.715 -272.577)" fill="#e8b800"/>
      </g>
      <g id="Grupo_1162981" data-name="Grupo 1162981" transform="translate(50.301 38.612)">
        <path id="Trazado_999014" data-name="Trazado 999014" d="M329.157,361.728a18.081,18.081,0,0,0,17.492-17.492.562.562,0,0,0-.562-.579H329.14a.562.562,0,0,0-.562.562v16.947A.563.563,0,0,0,329.157,361.728Z" transform="translate(-328.578 -343.657)" fill="#01d0fb"/>
      </g>
      <g id="Grupo_1162982" data-name="Grupo 1162982" transform="translate(50.302 38.612)">
        <path id="Trazado_999015" data-name="Trazado 999015" d="M332.114,361.166V344.219a.562.562,0,0,1,.562-.562h-3.535a.562.562,0,0,0-.562.562v16.947a.562.562,0,0,0,.579.562,18.119,18.119,0,0,0,3-.346A.56.56,0,0,1,332.114,361.166Z" transform="translate(-328.579 -343.657)" fill="#01c0fa"/>
      </g>
      <g id="Grupo_1162989" data-name="Grupo 1162989" transform="translate(15.921 0.843)">
        <g id="Grupo_1162983" data-name="Grupo 1162983" transform="translate(0)">
          <path id="Trazado_999016" data-name="Trazado 999016" d="M46.109,37.283H23.14a.562.562,0,0,1-.562-.562V8.062A.562.562,0,0,1,23.14,7.5h22.97a.562.562,0,0,1,.562.562V36.721A.562.562,0,0,1,46.109,37.283Z" transform="translate(-22.578 -7.5)" fill="#dff6fd"/>
        </g>
        <g id="Grupo_1162984" data-name="Grupo 1162984" transform="translate(0)">
          <path id="Trazado_999017" data-name="Trazado 999017" d="M26.338,36.721V8.062A.562.562,0,0,1,26.9,7.5H23.14a.562.562,0,0,0-.562.562V36.721a.562.562,0,0,0,.562.562H26.9A.562.562,0,0,1,26.338,36.721Z" transform="translate(-22.578 -7.5)" fill="#c8effe"/>
        </g>
        <g id="Grupo_1162988" data-name="Grupo 1162988" transform="translate(4.242 6.332)">
          <g id="Grupo_1162985" data-name="Grupo 1162985" transform="translate(0)">
            <path id="Trazado_999018" data-name="Trazado 999018" d="M73.019,63.936a5.334,5.334,0,0,0-4.877,2.1,5.334,5.334,0,0,0-4.877-2.1c-2.5.527-3.613,3.634-2.488,6.939s4.062,5.557,6.56,5.029a3.313,3.313,0,0,0,.806-.282,3.313,3.313,0,0,0,.806.282c2.5.527,5.436-1.724,6.56-5.029S75.518,64.464,73.019,63.936Z" transform="translate(-60.338 -63.86)" fill="#fd4755"/>
          </g>
          <g id="Grupo_1162987" data-name="Grupo 1162987" transform="translate(0 0)">
            <g id="Grupo_1162986" data-name="Grupo 1162986">
              <path id="Trazado_999019" data-name="Trazado 999019" d="M64.572,70.877c-.951-2.795-.3-5.447,1.433-6.519a4.238,4.238,0,0,0-2.741-.42c-2.5.527-3.613,3.634-2.488,6.939s4.062,5.557,6.56,5.029a3.312,3.312,0,0,0,.806-.282,3.312,3.312,0,0,0,.806.282,3.681,3.681,0,0,0,1.092.059C67.83,75.766,65.535,73.709,64.572,70.877Z" transform="translate(-60.337 -63.861)" fill="#fb2b3a"/>
            </g>
          </g>
        </g>
      </g>
      <g id="Grupo_1162990" data-name="Grupo 1162990" transform="translate(15.078 0)">
        <path id="Trazado_999020" data-name="Trazado 999020" d="M68.82,38.2a1.413,1.413,0,0,0-1.009-.428H63.7a18.909,18.909,0,0,0-3.9-16.311A.843.843,0,0,0,58.5,22.537,17.257,17.257,0,0,1,62.468,32.72H46.095V16.345A17.047,17.047,0,0,1,55.8,19.932.843.843,0,0,0,56.836,18.6a18.913,18.913,0,0,0-15.98-3.442V12.046A21.956,21.956,0,0,1,67.213,33.562a.843.843,0,1,0,1.685,0A23.645,23.645,0,0,0,40.856,10.328V7.3a.843.843,0,0,0-1.685,0v22.48H16.763V1.685H39.171V3.371a.843.843,0,0,0,1.685,0V1.4a1.406,1.406,0,0,0-1.4-1.4H16.482a1.406,1.406,0,0,0-1.4,1.4V30.064a1.406,1.406,0,0,0,1.4,1.4H21.7c-.061.69-.094,1.388-.094,2.094A23.674,23.674,0,0,0,45.252,57.209a.843.843,0,0,0,0-1.685A21.986,21.986,0,0,1,23.29,33.562c0-.706.036-1.4.1-2.094h3.053A18.918,18.918,0,0,0,49.459,52.01v4.11a1.405,1.405,0,0,0,1.405,1.405h.043A18.96,18.96,0,0,0,62.6,52.992a.843.843,0,0,0-1.1-1.28,17.272,17.272,0,0,1-10.36,4.117V39.454H67.519a17.107,17.107,0,0,1-3.445,9.524.843.843,0,1,0,1.346,1.015,18.788,18.788,0,0,0,3.8-10.776,1.411,1.411,0,0,0-.4-1.021Zm-24.41-4.634V50.779A17.239,17.239,0,0,1,28.142,31.468h11.31a1.406,1.406,0,0,0,1.4-1.4V16.9a17.133,17.133,0,0,1,3.553-.551V33.562Zm6.454,4.207a1.406,1.406,0,0,0-1.4,1.4v11.1a17.144,17.144,0,0,1-3.364.5V34.4H62.469a17.136,17.136,0,0,1-.5,3.364Z" transform="translate(-15.078 0)"/>
        <path id="Trazado_999021" data-name="Trazado 999021" d="M69.347,40.431a4.265,4.265,0,0,0-2.835-2.122A5.5,5.5,0,0,0,62.089,39.5a2.54,2.54,0,0,1,.942-2.061.843.843,0,1,0-1.011-1.348,4.133,4.133,0,0,0-1.6,3.121,5.333,5.333,0,0,0-4.01-.9,4.265,4.265,0,0,0-2.835,2.122,7.288,7.288,0,0,0-.277,5.913,9.259,9.259,0,0,0,3.05,4.349,5.909,5.909,0,0,0,3.559,1.329,4.466,4.466,0,0,0,.923-.1,4.151,4.151,0,0,0,.632-.187,4.141,4.141,0,0,0,.632.187,5.526,5.526,0,0,0,4.482-1.233,9.261,9.261,0,0,0,3.05-4.349A7.289,7.289,0,0,0,69.347,40.431ZM68.028,45.8c-.973,2.86-3.532,4.91-5.588,4.476a2.483,2.483,0,0,1-.6-.211.843.843,0,0,0-.757,0,2.483,2.483,0,0,1-.6.211c-2.055.434-4.615-1.616-5.588-4.476a5.7,5.7,0,0,1,.146-4.536,2.568,2.568,0,0,1,1.718-1.306,2.724,2.724,0,0,1,.564-.058,4.943,4.943,0,0,1,3.506,1.886.843.843,0,0,0,1.268,0,4.535,4.535,0,0,1,4.07-1.828,2.568,2.568,0,0,1,1.718,1.306A5.7,5.7,0,0,1,68.028,45.8Z" transform="translate(-48.571 -31.882)"/>
        <path id="Trazado_999022" data-name="Trazado 999022" d="M126.47,199.174h-8.089a.843.843,0,0,0,0,1.685h8.089a.843.843,0,0,0,0-1.685Z" transform="translate(-106.027 -176.796)"/>
        <path id="Trazado_999023" data-name="Trazado 999023" d="M55.995,200.859h4.313a.843.843,0,1,0,0-1.685H55.995a.843.843,0,0,0,0,1.685Z" transform="translate(-50.649 -176.796)"/>
        <path id="Trazado_999024" data-name="Trazado 999024" d="M55.995,230.845h15.1a.843.843,0,0,0,0-1.685h-15.1a.843.843,0,1,0,0,1.685Z" transform="translate(-50.649 -203.413)"/>
        <path id="Trazado_999025" data-name="Trazado 999025" d="M175.022,306.579h-7.64a.843.843,0,1,0,0,1.685h7.64a.843.843,0,1,0,0-1.685Z" transform="translate(-149.522 -272.133)"/>
        <path id="Trazado_999026" data-name="Trazado 999026" d="M175.022,333.579h-7.64a.843.843,0,1,0,0,1.685h7.64a.843.843,0,1,0,0-1.685Z" transform="translate(-149.522 -296.1)"/>
        <path id="Trazado_999027" data-name="Trazado 999027" d="M203.426,360.579h-4.045a.843.843,0,1,0,0,1.685h4.045a.843.843,0,1,0,0-1.685Z" transform="translate(-177.926 -320.066)"/>
      </g>
    </g>
  </g>
</svg>
