<svg xmlns="http://www.w3.org/2000/svg" xmlns:xlink="http://www.w3.org/1999/xlink" width="108" height="108" viewBox="0 0 108 108">
  <defs>
    <filter id="Fondo" x="0" y="0" width="108" height="108" filterUnits="userSpaceOnUse">
      <feOffset dy="3" input="SourceAlpha"/>
      <feGaussianBlur stdDeviation="3" result="blur"/>
      <feFlood flood-opacity="0.161"/>
      <feComposite operator="in" in2="blur"/>
      <feComposite in="SourceGraphic"/>
    </filter>
  </defs>
  <g id="Grupo_1162974" data-name="Grupo 1162974" transform="translate(-154.228 -1114)">
    <g id="Grupo_1158135" data-name="Grupo 1158135" transform="translate(-42.458 -72)">
      <g transform="matrix(1, 0, 0, 1, 196.69, 1186)" filter="url(#Fondo)">
        <g id="Fondo-2" data-name="Fondo" transform="translate(9 6)" fill="#ebe9f0">
          <path d="M 45 88.5 C 39.12687683105469 88.5 33.43022537231445 87.35007476806641 28.06830024719238 85.08217620849609 C 22.88852500915527 82.89131164550781 18.23629951477051 79.75458526611328 14.2408504486084 75.75914764404297 C 10.24541282653809 71.76370239257812 7.108687400817871 67.11147308349609 4.917825222015381 61.93170166015625 C 2.649924993515015 56.56977462768555 1.5 50.87312316894531 1.5 45 C 1.5 39.12687683105469 2.649924993515015 33.43022537231445 4.917825222015381 28.06830024719238 C 7.108687400817871 22.88852500915527 10.24541282653809 18.23629951477051 14.2408504486084 14.2408504486084 C 18.23629951477051 10.24541282653809 22.88852500915527 7.108687400817871 28.06830024719238 4.917825222015381 C 33.43022537231445 2.649924993515015 39.12687683105469 1.5 45 1.5 C 50.87312316894531 1.5 56.56977462768555 2.649924993515015 61.93170166015625 4.917825222015381 C 67.11147308349609 7.108687400817871 71.76370239257812 10.24541282653809 75.75914764404297 14.2408504486084 C 79.75458526611328 18.23629951477051 82.89131164550781 22.88852500915527 85.08217620849609 28.06830024719238 C 87.35007476806641 33.43022537231445 88.5 39.12687683105469 88.5 45 C 88.5 50.87312316894531 87.35007476806641 56.56977462768555 85.08217620849609 61.93170166015625 C 82.89131164550781 67.11147308349609 79.75458526611328 71.76370239257812 75.75914764404297 75.75914764404297 C 71.76370239257812 79.75458526611328 67.11147308349609 82.89131164550781 61.93170166015625 85.08217620849609 C 56.56977462768555 87.35007476806641 50.87312316894531 88.5 45 88.5 Z" stroke="none"/>
          <path d="M 45 3 C 39.32871246337891 3 33.82865524291992 4.110054016113281 28.65262985229492 6.299339294433594 C 23.65165710449219 8.414573669433594 19.15968322753906 11.44334411621094 15.301513671875 15.301513671875 C 11.44334411621094 19.15968322753906 8.414573669433594 23.65165710449219 6.299339294433594 28.65262985229492 C 4.110054016113281 33.82865524291992 3 39.32871246337891 3 45 C 3 50.67128753662109 4.110054016113281 56.17134475708008 6.299339294433594 61.34737396240234 C 8.414573669433594 66.34834289550781 11.44334411621094 70.84031677246094 15.301513671875 74.698486328125 C 19.15968322753906 78.55665588378906 23.65165710449219 81.58542633056641 28.65262985229492 83.70066070556641 C 33.82865524291992 85.88994598388672 39.32871246337891 87 45 87 C 50.67128753662109 87 56.17134475708008 85.88994598388672 61.34737396240234 83.70066070556641 C 66.34834289550781 81.58542633056641 70.84031677246094 78.55665588378906 74.698486328125 74.698486328125 C 78.55665588378906 70.84031677246094 81.58542633056641 66.34834289550781 83.70066070556641 61.34737396240234 C 85.88994598388672 56.17134475708008 87 50.67128753662109 87 45 C 87 39.32871246337891 85.88994598388672 33.82865524291992 83.70066070556641 28.65262985229492 C 81.58542633056641 23.65165710449219 78.55665588378906 19.15968322753906 74.698486328125 15.301513671875 C 70.84031677246094 11.44334411621094 66.34834289550781 8.414573669433594 61.34737396240234 6.299339294433594 C 56.17134475708008 4.110054016113281 50.67128753662109 3 45 3 M 45 0 C 69.85281372070312 0 90 20.14718627929688 90 45 C 90 69.85281372070312 69.85281372070312 90 45 90 C 20.14718627929688 90 0 69.85281372070312 0 45 C 0 20.14718627929688 20.14718627929688 0 45 0 Z" stroke="none" fill="#453179"/>
        </g>
      </g>
    </g>
    <g id="maternidad" transform="translate(180.228 1136.997)">
      <g id="Grupo_1162973" data-name="Grupo 1162973" transform="translate(1.098 1.101)">
        <path id="Trazado_998990" data-name="Trazado 998990" d="M423.361,64a2.665,2.665,0,0,1-3.94,0,2.747,2.747,0,0,0-2.712,2.781c0,2.152,4.681,5.731,4.681,5.731s4.681-3.579,4.681-5.731A2.747,2.747,0,0,0,423.361,64Z" transform="translate(-372.063 -58.074)" fill="#fe90c5"/>
        <path id="Trazado_998991" data-name="Trazado 998991" d="M16.651,10a2.672,2.672,0,0,0-1.97.87,2.673,2.673,0,0,0-1.97-.87A2.747,2.747,0,0,0,10,12.783c0,2.152,4.681,5.731,4.681,5.731s4.681-3.579,4.681-5.731A2.747,2.747,0,0,0,16.651,10Z" transform="translate(-10 -10.002)" fill="#fe90c5"/>
      </g>
      <path id="Trazado_998992" data-name="Trazado 998992" d="M99.717,124.154,112.08,111.79l-5.9-5.9.007-4.894a15.708,15.708,0,0,0-2.662-8.771L98.7,85.024a3.276,3.276,0,0,0-4.615-.849,3.332,3.332,0,0,0-.865,4.442l1.847,3.046a.472.472,0,0,1-.737.578L80.734,78.649a3.257,3.257,0,0,0-4.574-.071,3.2,3.2,0,0,0-.165,4.382l-1.983-1.983a3.206,3.206,0,0,0-4.49-.043,3.274,3.274,0,0,0,.016,4.636l1.923,1.923a3.2,3.2,0,0,0-4.382.165,3.257,3.257,0,0,0,.071,4.574L69.3,94.387a3.2,3.2,0,0,0-4.367.15h0a3.205,3.205,0,0,0,0,4.533L75.35,109.484h0l4.178,4.178a15.707,15.707,0,0,0,11.129,4.6l3.163,0Z" transform="translate(-56.973 -69.145)" fill="#ffd4ac"/>
      <path id="Trazado_998993" data-name="Trazado 998993" d="M18.889,248.947l4.827-4.827,3.518.005a11.293,11.293,0,0,0,6.305-1.913l5.18-3.474a2.355,2.355,0,0,0,.618-3.307h0a2.355,2.355,0,0,0-3.15-.663l-2.239,1.357a.34.34,0,0,1-.416-.53l7.412-7.412a2.3,2.3,0,0,0,0-3.259h0a2.3,2.3,0,0,0-3.259,0L32.506,230.1l1.62-1.608,5.178-5.178a2.3,2.3,0,0,0,0-3.259h0a2.3,2.3,0,0,0-3.259,0l-5.178,5.178-1.608,1.62,5.178-5.178a2.3,2.3,0,0,0,0-3.259h0a2.3,2.3,0,0,0-3.259,0L26,223.6l.006.006,1.356-1.356a2.3,2.3,0,0,0,0-3.259h0a2.3,2.3,0,0,0-3.259,0l-2.967,2.967,2.444-2.444-5.448,5.448a11.292,11.292,0,0,0-3.307,8l0,2.274L10,240.058Z" transform="translate(-8.902 -193.837)" fill="#ffcc9c"/>
      <path id="Trazado_998994" data-name="Trazado 998994" d="M37.624,108.431a1.1,1.1,0,0,0-.776-.322h0l-3.163,0h-.021a14.694,14.694,0,0,1-5.132-.934l1.9-1.273a3.451,3.451,0,0,0-1.93-6.319h-.053l4.372-4.372a3.406,3.406,0,0,0-1.109-5.553,3.4,3.4,0,0,0-4.657-4.657A3.4,3.4,0,0,0,21.5,83.9l-1.57,1.57a3.4,3.4,0,0,0-5.506-1l-.7.7L10.9,82.349a2.108,2.108,0,0,1,2.819-3.127l2.74,2.74a1.1,1.1,0,0,0,1.552-1.552l-4.727-4.727A2.108,2.108,0,0,1,16.263,72.7L24.545,81A1.1,1.1,0,1,0,26.1,79.447L19.8,73.137a2.108,2.108,0,0,1,3.127-2.819l2.306,2.306a1.1,1.1,0,1,0,1.552-1.552l-2.306-2.306a4.3,4.3,0,0,0-7.2,1.933A4.3,4.3,0,0,0,11.278,76.7a4.3,4.3,0,0,0-2.2,6.905A4.3,4.3,0,0,0,7.189,90.8l.49.49a12.3,12.3,0,0,0-2.855,7.93l0,1.818-4.5,4.5a1.1,1.1,0,1,0,1.552,1.553L6.7,102.265a1.1,1.1,0,0,0,.322-.778l0-2.274A10.126,10.126,0,0,1,10,91.99l5.448-5.448h0l.523-.523a1.206,1.206,0,0,1,1.8,1.605l-1.451,1.451a1.1,1.1,0,0,0,0,1.553l0,0,0,0a1.1,1.1,0,0,0,1.552,0l5.172-5.184a1.206,1.206,0,0,1,1.8,1.6l-5.268,5.279a1.1,1.1,0,1,0,1.552,1.553l6.786-6.8A1.207,1.207,0,0,1,29.625,88.8l-6.8,6.786a1.1,1.1,0,1,0,1.552,1.553l5.28-5.268a1.206,1.206,0,0,1,1.6,1.8l-7.412,7.412a1.437,1.437,0,0,0,1.761,2.245l2.239-1.357a1.258,1.258,0,0,1,1.352,2.12l-5.18,3.474a10.159,10.159,0,0,1-5.678,1.727h-.014l-3.518-.005h0a1.1,1.1,0,0,0-.776.322L9.21,114.428a1.1,1.1,0,1,0,1.552,1.553l4.5-4.5,3.063,0h.017a12.348,12.348,0,0,0,6.9-2.1l1.109-.744a16.9,16.9,0,0,0,7.305,1.672h.024l2.708,0,5.574,5.574a1.1,1.1,0,1,0,1.552-1.553ZM8.741,86.263a2.111,2.111,0,0,1,2.819-.146l.607.607-.711.711h0L9.194,89.7l-.453-.453A2.11,2.11,0,0,1,8.741,86.263Z" transform="translate(0 -60.094)"/>
      <path id="Trazado_998995" data-name="Trazado 998995" d="M493.1,378.452a1.1,1.1,0,1,0,.776.322A1.1,1.1,0,0,0,493.1,378.452Z" transform="translate(-437.99 -336.904)"/>
      <path id="Trazado_998996" data-name="Trazado 998996" d="M294.337,144.354l.006-4.438a16.747,16.747,0,0,0-2.848-9.383l-4.832-7.206a4.374,4.374,0,0,0-6.141-1.147,4.388,4.388,0,0,0-1.66,4.9l-2.869-2.869a1.1,1.1,0,1,0-1.553,1.553l6.163,6.163a1.57,1.57,0,0,0,2.453-1.924l-1.888-3.115a2.178,2.178,0,0,1,2.263-3.271,2.162,2.162,0,0,1,1.409.928l4.832,7.206a14.559,14.559,0,0,1,2.476,8.157l-.007,4.894a1.1,1.1,0,0,0,.322.778l2.944,2.944a1.1,1.1,0,1,0,1.552-1.553Z" transform="translate(-244.027 -108.059)"/>
      <path id="Trazado_998997" data-name="Trazado 998997" d="M251.709,122.908a1.1,1.1,0,1,0-.777-.322A1.1,1.1,0,0,0,251.709,122.908Z" transform="translate(-223.099 -107.458)"/>
      <path id="Trazado_998998" data-name="Trazado 998998" d="M331.543,263.627a1.1,1.1,0,0,0-1.553-1.553l-.479.479a5.264,5.264,0,0,0,0,7.436,1.1,1.1,0,1,0,1.552-1.553,3.066,3.066,0,0,1,0-4.331Z" transform="translate(-291.971 -233.016)"/>
      <path id="Trazado_998999" data-name="Trazado 998999" d="M414.459,54a3.743,3.743,0,0,1-3.94,0,3.849,3.849,0,0,0-3.809,3.879c0,1.212.872,2.668,2.664,4.451a27.97,27.97,0,0,0,2.448,2.152,1.1,1.1,0,0,0,1.334,0,27.989,27.989,0,0,0,2.448-2.152c1.793-1.783,2.664-3.239,2.664-4.451A3.849,3.849,0,0,0,414.459,54Zm-1.97,8.205c-1.835-1.524-3.583-3.468-3.583-4.326a1.652,1.652,0,0,1,1.614-1.683,1.569,1.569,0,0,1,1.163.517,1.1,1.1,0,0,0,1.614,0,1.569,1.569,0,0,1,1.163-.517,1.652,1.652,0,0,1,1.614,1.683C416.073,58.737,414.324,60.682,412.489,62.207Z" transform="translate(-362.063 -48.071)"/>
      <path id="Trazado_999000" data-name="Trazado 999000" d="M5.112,10.485a1.1,1.1,0,0,0,1.334,0A27.986,27.986,0,0,0,8.894,8.333c1.793-1.783,2.664-3.239,2.664-4.451A3.849,3.849,0,0,0,7.749,0a3.77,3.77,0,0,0-1.97.56A3.77,3.77,0,0,0,3.809,0,3.849,3.849,0,0,0,0,3.882C0,5.094.872,6.55,2.664,8.333A28,28,0,0,0,5.112,10.485ZM3.809,2.2a1.569,1.569,0,0,1,1.163.517,1.1,1.1,0,0,0,1.614,0A1.569,1.569,0,0,1,7.749,2.2,1.652,1.652,0,0,1,9.363,3.882c0,.856-1.749,2.8-3.584,4.326C3.944,6.685,2.2,4.741,2.2,3.882A1.652,1.652,0,0,1,3.809,2.2Z"/>
    </g>
  </g>
</svg>
