<svg xmlns="http://www.w3.org/2000/svg" xmlns:xlink="http://www.w3.org/1999/xlink" width="110" height="110" viewBox="0 0 110 110">
  <defs>
    <filter id="Trazado_982547" x="0" y="0" width="110" height="110" filterUnits="userSpaceOnUse">
      <feOffset dy="3" input="SourceAlpha"/>
      <feGaussianBlur stdDeviation="3" result="blur"/>
      <feFlood flood-opacity="0.161"/>
      <feComposite operator="in" in2="blur"/>
      <feComposite in="SourceGraphic"/>
    </filter>
  </defs>
  <g id="Grupo_1168590" data-name="Grupo 1168590" transform="translate(-645 -2136)">
    <g id="Grupo_1167440" data-name="Grupo 1167440" transform="translate(654 2142)">
      <g id="Grupo_1162411" data-name="Grupo 1162411" transform="translate(0)">
        <g id="Grupo_1158637" data-name="Grupo 1158637" transform="translate(0 0)">
          <g id="Grupo_1155724" data-name="Grupo 1155724">
            <g id="Grupo_1154703" data-name="Grupo 1154703">
              <g id="Grupo_1150789" data-name="Grupo 1150789" transform="translate(0 0)">
                <g id="Grupo_1154212" data-name="Grupo 1154212" transform="translate(0)">
                  <g id="Grupo_1152583" data-name="Grupo 1152583">
                    <g id="Grupo_1146973" data-name="Grupo 1146973">
                      <g id="Grupo_1146954" data-name="Grupo 1146954">
                        <g transform="matrix(1, 0, 0, 1, -9, -6)" filter="url(#Trazado_982547)">
                          <g id="Trazado_982547-2" data-name="Trazado 982547" transform="translate(9 6)" fill="#ebe9f0">
                            <path d="M 46.00000381469727 90.49986267089844 C 39.99188232421875 90.49986267089844 34.16427230834961 89.32350158691406 28.67905807495117 87.00344848632812 C 23.38020324707031 84.76223754882812 18.62104415893555 81.55341339111328 14.53375053405762 77.46613311767578 C 10.44647026062012 73.37885284423828 7.237643718719482 68.61968994140625 4.996417045593262 63.32085037231445 C 2.676363706588745 57.83565139770508 1.500003814697266 52.00805282592773 1.500003814697266 45.99993133544922 C 1.500003814697266 39.99182510375977 2.676363706588745 34.16422653198242 4.996417045593262 28.67901039123535 C 7.237643718719482 23.38017082214355 10.44647026062012 18.62101173400879 14.53375053405762 14.53373146057129 C 18.62104415893555 10.44645118713379 23.38020324707031 7.237624645233154 28.67905807495117 4.996411323547363 C 34.16427230834961 2.676357984542847 39.99188232421875 1.499997973442078 46.00000381469727 1.499997973442078 C 52.00812530517578 1.499997973442078 57.83573532104492 2.676357984542847 63.32094955444336 4.996411323547363 C 68.61980438232422 7.237624645233154 73.37896728515625 10.44645118713379 77.46625518798828 14.53373146057129 C 81.55353546142578 18.62101173400879 84.76236724853516 23.38017082214355 87.00359344482422 28.67901039123535 C 89.32364654541016 34.16422653198242 90.5 39.99182510375977 90.5 45.99993133544922 C 90.5 52.00805282592773 89.32364654541016 57.83565139770508 87.00359344482422 63.32085037231445 C 84.76236724853516 68.61968994140625 81.55353546142578 73.37885284423828 77.46625518798828 77.46613311767578 C 73.37896728515625 81.55341339111328 68.61980438232422 84.76223754882812 63.32094955444336 87.00344848632812 C 57.83573532104492 89.32350158691406 52.00812530517578 90.49986267089844 46.00000381469727 90.49986267089844 Z" stroke="none"/>
                            <path d="M 46.00000381469727 3 C 40.19371795654297 3 34.56270217895508 4.136505126953125 29.26337432861328 6.377914428710938 C 24.14333343505859 8.54351806640625 19.54441833496094 11.64438629150391 15.59440612792969 15.59439086914062 C 11.64440155029297 19.54440307617188 8.54351806640625 24.14330291748047 6.377914428710938 29.26334381103516 C 4.136505126953125 34.56266021728516 3.000007629394531 40.19366073608398 3.000007629394531 45.99993133544922 C 3.000007629394531 51.80620193481445 4.136505126953125 57.43720245361328 6.377914428710938 62.73651885986328 C 8.54351806640625 67.85655975341797 11.64440155029297 72.45545959472656 15.59440612792969 76.40547180175781 C 19.54441833496094 80.35547637939453 24.14333343505859 83.45634460449219 29.26337432861328 85.6219482421875 C 34.56270217895508 87.86335754394531 40.19371795654297 88.99986267089844 46.00000381469727 88.99986267089844 C 51.80628967285156 88.99986267089844 57.43730545043945 87.86335754394531 62.73661804199219 85.6219482421875 C 67.85667419433594 83.45634460449219 72.45557403564453 80.35547637939453 76.40558624267578 76.40547180175781 C 80.35560607910156 72.45545959472656 83.45647430419922 67.85655975341797 85.62207794189453 62.73651885986328 C 87.86350250244141 57.43720245361328 89 51.80620193481445 89 45.99993133544922 C 89 40.19366073608398 87.86350250244141 34.56266021728516 85.62207794189453 29.26334381103516 C 83.45647430419922 24.14330291748047 80.35560607910156 19.54440307617188 76.40558624267578 15.59439086914062 C 72.45557403564453 11.64438629150391 67.85667419433594 8.54351806640625 62.73661804199219 6.377914428710938 C 57.43730545043945 4.136505126953125 51.80628967285156 3 46.00000381469727 3 M 46.00000381469727 0 C 71.40509033203125 0 92 20.59487152099609 92 45.99993133544922 C 92 71.40499114990234 71.40509033203125 91.99986267089844 46.00000381469727 91.99986267089844 C 20.59490203857422 91.99986267089844 7.62939453125e-06 71.40499114990234 7.62939453125e-06 45.99993133544922 C 7.62939453125e-06 20.59487152099609 20.59490203857422 0 46.00000381469727 0 Z" stroke="none" fill="#453179"/>
                          </g>
                        </g>
                      </g>
                    </g>
                  </g>
                </g>
              </g>
            </g>
          </g>
        </g>
      </g>
    </g>
    <g id="Dairy_Product" data-name="Dairy Product" transform="translate(672 2160)">
      <g id="Filled" transform="translate(0.879 0.879)">
        <path id="Trazado_1016072" data-name="Trazado 1016072" d="M8,136H23.82v40.428H8Z" transform="translate(-8 -121.938)" fill="#e2dbd5"/>
        <path id="Trazado_1016073" data-name="Trazado 1016073" d="M23.82,64.789H8L13.273,56h15.82Z" transform="translate(-8 -50.727)" fill="#efebe8"/>
        <path id="Trazado_1016074" data-name="Trazado 1016074" d="M162.583,105.217H152V64.789L157.292,56l5.291,8.789Z" transform="translate(-136.18 -50.727)" fill="#d4ccc7"/>
        <path id="Trazado_1016075" data-name="Trazado 1016075" d="M157.292,105.217H152V64.789L157.292,56Z" transform="translate(-136.18 -50.727)" fill="#c6bab3"/>
        <path id="Trazado_1016076" data-name="Trazado 1016076" d="M8,216H23.82v22.851H8Z" transform="translate(-8 -193.149)" fill="#ea6049"/>
        <path id="Trazado_1016077" data-name="Trazado 1016077" d="M312,8h10.546v7.031H312Z" transform="translate(-278.603 -8)" fill="#ffead2"/>
        <path id="Trazado_1016078" data-name="Trazado 1016078" d="M280,101.882V86.062l.177-1.758a8.8,8.8,0,0,1,3.339-5.273s1.758-1.758-.857-3.944c-1.138-.951-1.182-3.093.728-3.087h10.8c1.84-.009,1.91,2.1.728,3.087-2.615,2.186-.857,3.944-.857,3.944a8.79,8.79,0,0,1,3.515,7.031v15.82Z" transform="translate(-250.118 -64.969)" fill="#f09b73"/>
        <path id="Trazado_1016079" data-name="Trazado 1016079" d="M280,192.777v6.3h17.577V183.26a8.779,8.779,0,0,0-.247-2.066A22.858,22.858,0,0,1,280,192.777Z" transform="translate(-250.118 -162.167)" fill="#e58b6c"/>
        <path id="Trazado_1016080" data-name="Trazado 1016080" d="M56,8H71.82v5.273H56Z" transform="translate(-50.727 -8)" fill="#d4ccc7"/>
        <path id="Trazado_1016081" data-name="Trazado 1016081" d="M289.5,224.691c-3.374.912-4.46-3.6-1.886-4.9L286.152,216H280v31.64c5.273,0,13-.651,16.7-4.247Z" transform="translate(-250.118 -193.149)" fill="#eed60f"/>
        <path id="Trazado_1016082" data-name="Trazado 1016082" d="M194.547,216l-3.061,7.95c3.907.642,1.576,7.021-1.859,4.828l-2.84,7.376a2.669,2.669,0,0,1-1.712,4.447L184,243.392a15.218,15.218,0,0,0,21.093,0Z" transform="translate(-164.665 -193.149)" fill="#f8e868"/>
        <path id="Trazado_1016083" data-name="Trazado 1016083" d="M188.937,376.257a15.224,15.224,0,0,0,20.551-.5L205.231,364.7a21.989,21.989,0,0,1-16.294,11.557Z" transform="translate(-169.059 -325.513)" fill="#f6e23d"/>
        <circle id="Elipse_11884" data-name="Elipse 11884" cx="2.064" cy="2.064" r="2.064" transform="translate(31.316 44.524)" fill="#f8e868"/>
        <circle id="Elipse_11885" data-name="Elipse 11885" cx="1.651" cy="1.651" r="1.651" transform="translate(28.84 38.746)" fill="#f6e23d"/>
        <circle id="Elipse_11886" data-name="Elipse 11886" cx="1.651" cy="1.651" r="1.651" transform="translate(24.712 47.826)" fill="#f6e23d"/>
        <g id="Grupo_1168589" data-name="Grupo 1168589" transform="translate(24.608 38.669)">
          <path id="Trazado_1016084" data-name="Trazado 1016084" d="M298.635,417.749a1.748,1.748,0,0,1,.863.227,1.779,1.779,0,0,0,.016-.227,1.758,1.758,0,1,0-2.62,1.531A1.757,1.757,0,0,1,298.635,417.749Z" transform="translate(-288.967 -409.838)" fill="#eed60f"/>
          <path id="Trazado_1016085" data-name="Trazado 1016085" d="M274.635,361.749a1.748,1.748,0,0,1,.863.227,1.78,1.78,0,0,0,.016-.227,1.758,1.758,0,1,0-2.62,1.531A1.757,1.757,0,0,1,274.635,361.749Z" transform="translate(-267.604 -359.99)" fill="#eed60f"/>
          <path id="Trazado_1016086" data-name="Trazado 1016086" d="M234.635,441.749a1.748,1.748,0,0,1,.863.227,1.779,1.779,0,0,0,.016-.227,1.758,1.758,0,1,0-2.62,1.531A1.757,1.757,0,0,1,234.635,441.749Z" transform="translate(-231.998 -431.201)" fill="#eed60f"/>
        </g>
        <path id="Trazado_1016087" data-name="Trazado 1016087" d="M353.335,15.031V8h-2.678a9.658,9.658,0,0,1-4.069,7.031Z" transform="translate(-309.391 -8)" fill="#faddc3"/>
        <circle id="Elipse_11887" data-name="Elipse 11887" cx="1.651" cy="1.651" r="1.651" transform="translate(28.014 28.014)" fill="#fcf5be"/>
        <ellipse id="Elipse_11888" data-name="Elipse 11888" cx="0.826" cy="1.238" rx="0.826" ry="1.238" transform="translate(30.491 32.142)" fill="#fcf5be"/>
        <circle id="Elipse_11889" data-name="Elipse 11889" cx="2.064" cy="2.064" r="2.064" transform="translate(36.269 13.155)" fill="#f2bba5"/>
        <ellipse id="Elipse_11890" data-name="Elipse 11890" cx="1.238" cy="1.651" rx="1.238" ry="1.651" transform="translate(40.397 17.282)" fill="#f2bba5"/>
        <ellipse id="Elipse_11891" data-name="Elipse 11891" cx="2.064" cy="1.651" rx="2.064" ry="1.651" transform="translate(4.074 8.202)" fill="#fff"/>
        <circle id="Elipse_11892" data-name="Elipse 11892" cx="0.826" cy="0.826" r="0.826" transform="translate(8.202 11.504)" fill="#fff"/>
        <path id="Trazado_1016088" data-name="Trazado 1016088" d="M8,271.249v5.865H23.82V258.985A23.768,23.768,0,0,1,8,271.249Z" transform="translate(-8 -231.412)" fill="#de513e"/>
        <path id="Trazado_1016089" data-name="Trazado 1016089" d="M344,328l1.758,19.335h12.3L359.82,328Z" transform="translate(-307.087 -292.845)" fill="#81c784"/>
        <circle id="Elipse_11893" data-name="Elipse 11893" cx="1.651" cy="1.651" r="1.651" transform="translate(38.746 37.92)" fill="#c8e6c9"/>
        <circle id="Elipse_11894" data-name="Elipse 11894" cx="0.826" cy="0.826" r="0.826" transform="translate(42.048 41.222)" fill="#c8e6c9"/>
        <path id="Trazado_1016090" data-name="Trazado 1016090" d="M356.4,397.206h12.3l1.2-13.18a18.881,18.881,0,0,1-13.946,8.3Z" transform="translate(-317.734 -342.716)" fill="#66bb6a"/>
        <path id="Trazado_1016091" data-name="Trazado 1016091" d="M48.789,271.91a4.394,4.394,0,0,1-8.789,0c0-2.427,4.394-7.91,4.394-7.91S48.789,269.483,48.789,271.91Z" transform="translate(-36.484 -235.876)" fill="#fff"/>
        <path id="Trazado_1016092" data-name="Trazado 1016092" d="M55.328,324.975a8.083,8.083,0,0,1-7.7,3.79,4.394,4.394,0,0,0,7.951-2.579A3.851,3.851,0,0,0,55.328,324.975Z" transform="translate(-43.271 -290.152)" fill="#efebe8"/>
      </g>
      <g id="Outline" transform="translate(0)">
        <path id="Trazado_1016093" data-name="Trazado 1016093" d="M290.637,409.789a.879.879,0,0,0,.879-.879c0-1.681-3.515-.855-3.515,1.758s3.515,3.445,3.515,1.758a.879.879,0,0,0-.879-.879.879.879,0,0,1,0-1.758Z" transform="translate(-256.36 -363.209)"/>
        <path id="Trazado_1016094" data-name="Trazado 1016094" d="M269.273,354.637a2.637,2.637,0,1,0-2.637,2.637A2.637,2.637,0,0,0,269.273,354.637Zm-3.516,0a.879.879,0,1,1,.879.879A.879.879,0,0,1,265.758,354.637Z" transform="translate(-234.997 -313.329)"/>
        <path id="Trazado_1016095" data-name="Trazado 1016095" d="M226.637,432a2.637,2.637,0,1,0,2.637,2.637A2.637,2.637,0,0,0,226.637,432Zm0,3.516a.879.879,0,1,1,.879-.879A.879.879,0,0,1,226.637,435.515Z" transform="translate(-199.391 -384.541)"/>
        <path id="Trazado_1016096" data-name="Trazado 1016096" d="M192.051,238.69a14.448,14.448,0,0,1-14.139-2.849l.679-1.763a3.58,3.58,0,0,0,2.077-5.394l2.321-6.029c3.8,1.172,6.053-4.9,2.532-6.576l1.9-4.946,2.585,6.715a.879.879,0,0,0,1.64-.632l-2.946-7.65h4.269l.99,2.572c-2.646,2.212-.807,7.169,3.189,6.089a.879.879,0,0,0-.458-1.7c-2.325.628-2.915-2.434-1.262-3.265a.879.879,0,0,0,.425-1.1l-1.46-3.793a.879.879,0,0,0-.82-.563c-6.316,0-6.676-.206-6.972.563-3.031,8.192-3.375,8.053-3,8.7a.879.879,0,0,0,.62.431c1.9.313,1.433,2.583.413,3.3a1.392,1.392,0,0,1-1.656-.082.879.879,0,0,0-1.293.425l-2.84,7.376a.879.879,0,0,0,.19.928,1.791,1.791,0,0,1-1.135,2.958.879.879,0,0,0-.767.562l-1.074,2.791a.879.879,0,0,0,.208.946,16.1,16.1,0,0,0,16.348,3.646.879.879,0,0,0-.563-1.665Z" transform="translate(-156.665 -184.957)"/>
        <path id="Trazado_1016097" data-name="Trazado 1016097" d="M340.214,320H320.879a.879.879,0,0,0,0,1.758h.956l1.685,18.536a.879.879,0,0,0,.875.8h12.3a.879.879,0,0,0,.875-.8l.639-7.039a.879.879,0,1,0-1.75-.159l-.567,6.239H325.2l-1.6-17.578h13.9L337.1,326.1a.879.879,0,1,0,1.751.159l.409-4.5h.955a.879.879,0,0,0,0-1.758Z" transform="translate(-284.845 -284.845)"/>
        <path id="Trazado_1016098" data-name="Trazado 1016098" d="M274.312,21.075a.879.879,0,0,0,1.037-.685,7.91,7.91,0,0,1,3-4.746.879.879,0,0,0,.094-.082c1.167-1.168,1.339-3.356-.915-5.24a1.265,1.265,0,0,1-.439-1.25c.028-.078.1-.286.6-.284,10.644.2,11.177-.312,11.4.3a1.23,1.23,0,0,1-.433,1.236,4.227,4.227,0,0,0-1.747,3,3.058,3.058,0,0,0,.926,2.321,7.95,7.95,0,0,1,3.164,6.328.879.879,0,1,0,1.758,0,9.716,9.716,0,0,0-3.794-7.679c-.718-.891-.053-1.891.821-2.622,1.591-1.33,1.5-3.991-.542-4.545V.879A.879.879,0,0,0,288.373,0H277.827a.879.879,0,0,0-.879.879V7.125c-2.06.549-2.136,3.213-.542,4.546.886.74,1.534,1.737.821,2.622a9.666,9.666,0,0,0-3.6,5.746.879.879,0,0,0,.685,1.037Zm4.394-19.317h8.789V3.516h-6.152a.879.879,0,0,0,0,1.758h6.152V7.031h-8.789Z" transform="translate(-243.55 0)"/>
        <path id="Trazado_1016099" data-name="Trazado 1016099" d="M38.152,269.185a.879.879,0,0,0-.879-.879,3.519,3.519,0,0,1-3.516-3.516c0-1.337,1.941-4.37,3.516-6.473,1.575,2.1,3.516,5.134,3.516,6.473a.879.879,0,1,0,1.758,0c0-2.659-4.118-7.874-4.587-8.459a.879.879,0,0,0-1.372,0c-.47.586-4.587,5.8-4.587,8.459C32,269.637,38.152,271.307,38.152,269.185Z" transform="translate(-28.484 -227.878)"/>
        <path id="Trazado_1016100" data-name="Trazado 1016100" d="M20.214,54.49H17.578V15.184l4.405-7.341L26.4,15.185V23.73a.879.879,0,0,0,1.758,0V14.941c0-.447.042-.089-5.31-9.063v-5A.879.879,0,0,0,21.972,0H6.152a.879.879,0,0,0-.879.879v5.03l-.7,1.172a.879.879,0,1,0,1.507.9l.572-.954H20.42L16.2,14.062H13.183a.879.879,0,1,0,0,1.758H15.82v7.031H1.758V15.82h7.91a.879.879,0,0,0,0-1.758H2.431l.03-.05a.879.879,0,1,0-1.507-.9C.082,14.563,0,14.617,0,14.941V55.369a.879.879,0,0,0,.879.879H20.214a.879.879,0,1,0,0-1.758ZM7.031,5.273V1.758H21.093V5.273ZM15.82,54.49H1.758V47.459H15.82Zm0-8.789H1.758V24.609H15.82Z" transform="translate(0)"/>
        <circle id="Elipse_11895" data-name="Elipse 11895" cx="0.826" cy="0.826" r="0.826" transform="translate(2.477 9.906)"/>
        <circle id="Elipse_11896" data-name="Elipse 11896" cx="0.826" cy="0.826" r="0.826" transform="translate(11.557 39.625)"/>
        <ellipse id="Elipse_11897" data-name="Elipse 11897" cx="1.238" cy="0.826" rx="1.238" ry="0.826" transform="translate(47.054 24.765)"/>
        <circle id="Elipse_11898" data-name="Elipse 11898" cx="0.826" cy="0.826" r="0.826" transform="translate(52.007 43.752)"/>
        <path id="Trazado_1016101" data-name="Trazado 1016101" d="M432.879,256a.879.879,0,0,0-.879.879v3.516a.879.879,0,0,0,1.758,0v-3.516A.879.879,0,0,0,432.879,256Z" transform="translate(-384.541 -227.876)"/>
      </g>
    </g>
  </g>
</svg>
