<svg xmlns="http://www.w3.org/2000/svg" xmlns:xlink="http://www.w3.org/1999/xlink" width="110" height="110" viewBox="0 0 110 110">
  <defs>
    <filter id="Trazado_982547" x="0" y="0" width="110" height="110" filterUnits="userSpaceOnUse">
      <feOffset dy="3" input="SourceAlpha"/>
      <feGaussianBlur stdDeviation="3" result="blur"/>
      <feFlood flood-opacity="0.161"/>
      <feComposite operator="in" in2="blur"/>
      <feComposite in="SourceGraphic"/>
    </filter>
  </defs>
  <g id="Grupo_1168593" data-name="Grupo 1168593" transform="translate(-645 -2431)">
    <g id="Grupo_1167442" data-name="Grupo 1167442" transform="translate(654 2437)">
      <g id="Grupo_1162411" data-name="Grupo 1162411" transform="translate(0)">
        <g id="Grupo_1158637" data-name="Grupo 1158637" transform="translate(0 0)">
          <g id="Grupo_1155724" data-name="Grupo 1155724">
            <g id="Grupo_1154703" data-name="Grupo 1154703">
              <g id="Grupo_1150789" data-name="Grupo 1150789" transform="translate(0 0)">
                <g id="Grupo_1154212" data-name="Grupo 1154212" transform="translate(0)">
                  <g id="Grupo_1152583" data-name="Grupo 1152583">
                    <g id="Grupo_1146973" data-name="Grupo 1146973">
                      <g id="Grupo_1146954" data-name="Grupo 1146954">
                        <g transform="matrix(1, 0, 0, 1, -9, -6)" filter="url(#Trazado_982547)">
                          <g id="Trazado_982547-2" data-name="Trazado 982547" transform="translate(9 6)" fill="#ebe9f0">
                            <path d="M 46.00000381469727 90.49986267089844 C 39.99188232421875 90.49986267089844 34.16427230834961 89.32350158691406 28.67905807495117 87.00344848632812 C 23.38020324707031 84.76223754882812 18.62104415893555 81.55341339111328 14.53375053405762 77.46613311767578 C 10.44647026062012 73.37885284423828 7.237643718719482 68.61968994140625 4.996417045593262 63.32085037231445 C 2.676363706588745 57.83565139770508 1.500003814697266 52.00805282592773 1.500003814697266 45.99993133544922 C 1.500003814697266 39.99182510375977 2.676363706588745 34.16422653198242 4.996417045593262 28.67901039123535 C 7.237643718719482 23.38017082214355 10.44647026062012 18.62101173400879 14.53375053405762 14.53373146057129 C 18.62104415893555 10.44645118713379 23.38020324707031 7.237624645233154 28.67905807495117 4.996411323547363 C 34.16427230834961 2.676357984542847 39.99188232421875 1.499997973442078 46.00000381469727 1.499997973442078 C 52.00812530517578 1.499997973442078 57.83573532104492 2.676357984542847 63.32094955444336 4.996411323547363 C 68.61980438232422 7.237624645233154 73.37896728515625 10.44645118713379 77.46625518798828 14.53373146057129 C 81.55353546142578 18.62101173400879 84.76236724853516 23.38017082214355 87.00359344482422 28.67901039123535 C 89.32364654541016 34.16422653198242 90.5 39.99182510375977 90.5 45.99993133544922 C 90.5 52.00805282592773 89.32364654541016 57.83565139770508 87.00359344482422 63.32085037231445 C 84.76236724853516 68.61968994140625 81.55353546142578 73.37885284423828 77.46625518798828 77.46613311767578 C 73.37896728515625 81.55341339111328 68.61980438232422 84.76223754882812 63.32094955444336 87.00344848632812 C 57.83573532104492 89.32350158691406 52.00812530517578 90.49986267089844 46.00000381469727 90.49986267089844 Z" stroke="none"/>
                            <path d="M 46.00000381469727 3 C 40.19371795654297 3 34.56270217895508 4.136505126953125 29.26337432861328 6.377914428710938 C 24.14333343505859 8.54351806640625 19.54441833496094 11.64438629150391 15.59440612792969 15.59439086914062 C 11.64440155029297 19.54440307617188 8.54351806640625 24.14330291748047 6.377914428710938 29.26334381103516 C 4.136505126953125 34.56266021728516 3.000007629394531 40.19366073608398 3.000007629394531 45.99993133544922 C 3.000007629394531 51.80620193481445 4.136505126953125 57.43720245361328 6.377914428710938 62.73651885986328 C 8.54351806640625 67.85655975341797 11.64440155029297 72.45545959472656 15.59440612792969 76.40547180175781 C 19.54441833496094 80.35547637939453 24.14333343505859 83.45634460449219 29.26337432861328 85.6219482421875 C 34.56270217895508 87.86335754394531 40.19371795654297 88.99986267089844 46.00000381469727 88.99986267089844 C 51.80628967285156 88.99986267089844 57.43730545043945 87.86335754394531 62.73661804199219 85.6219482421875 C 67.85667419433594 83.45634460449219 72.45557403564453 80.35547637939453 76.40558624267578 76.40547180175781 C 80.35560607910156 72.45545959472656 83.45647430419922 67.85655975341797 85.62207794189453 62.73651885986328 C 87.86350250244141 57.43720245361328 89 51.80620193481445 89 45.99993133544922 C 89 40.19366073608398 87.86350250244141 34.56266021728516 85.62207794189453 29.26334381103516 C 83.45647430419922 24.14330291748047 80.35560607910156 19.54440307617188 76.40558624267578 15.59439086914062 C 72.45557403564453 11.64438629150391 67.85667419433594 8.54351806640625 62.73661804199219 6.377914428710938 C 57.43730545043945 4.136505126953125 51.80628967285156 3 46.00000381469727 3 M 46.00000381469727 0 C 71.40509033203125 0 92 20.59487152099609 92 45.99993133544922 C 92 71.40499114990234 71.40509033203125 91.99986267089844 46.00000381469727 91.99986267089844 C 20.59490203857422 91.99986267089844 7.62939453125e-06 71.40499114990234 7.62939453125e-06 45.99993133544922 C 7.62939453125e-06 20.59487152099609 20.59490203857422 0 46.00000381469727 0 Z" stroke="none" fill="#453179"/>
                          </g>
                        </g>
                      </g>
                    </g>
                  </g>
                </g>
              </g>
            </g>
          </g>
        </g>
      </g>
    </g>
    <g id="porcion-de-pizza" transform="translate(672.502 2450)">
      <path id="Trazado_1016114" data-name="Trazado 1016114" d="M63.165,118.194v6.871a2.457,2.457,0,1,0,4.914,0V107.947l5.914,4.03v8.274a2.457,2.457,0,0,0,4.913,0v-4.925l12.539,8.544v6.318a2.457,2.457,0,1,0,4.913,0v-2.969l8.022,5.466V78.43a54.2,54.2,0,0,0-44.838,23.7l3.622,2.468v3.349" transform="translate(-51.483 -68.385)" fill="#ffe192"/>
      <path id="Trazado_1016115" data-name="Trazado 1016115" d="M61.627,18.765V12.572A2.571,2.571,0,0,0,58.947,10,63.176,63.176,0,0,0,11.02,35.288a2.57,2.57,0,0,0,.612,3.663l5.157,3.514a54.2,54.2,0,0,1,44.838-23.7Zm0,0" transform="translate(-8.728 -8.72)" fill="#ff6e37"/>
      <g id="Grupo_1168592" data-name="Grupo 1168592" transform="translate(18.546 10.778)">
        <path id="Trazado_1016116" data-name="Trazado 1016116" d="M152.318,204.186a5.682,5.682,0,1,0-2.974,7.465A5.682,5.682,0,0,0,152.318,204.186Zm0,0" transform="translate(-141.416 -185.815)" fill="#ff5a5a"/>
        <path id="Trazado_1016117" data-name="Trazado 1016117" d="M300.451,224.682a5.682,5.682,0,1,0-2.974,7.465A5.682,5.682,0,0,0,300.451,224.682Zm0,0" transform="translate(-270.577 -203.686)" fill="#ff5a5a"/>
        <path id="Trazado_1016118" data-name="Trazado 1016118" d="M376.354,348.045a5.681,5.681,0,0,0,1.265,10.815V347.668a5.686,5.686,0,0,0-1.265.377Zm0,0" transform="translate(-343.267 -313.918)" fill="#ff5a5a"/>
        <path id="Trazado_1016119" data-name="Trazado 1016119" d="M245.4,352.1a5.682,5.682,0,0,0-10.748.935l8.772,5.978A5.684,5.684,0,0,0,245.4,352.1Zm0,0" transform="translate(-222.714 -314.789)" fill="#ff5a5a"/>
        <path id="Trazado_1016120" data-name="Trazado 1016120" d="M276.486,84.152a53.876,53.876,0,0,0-8.915,2.272,5.682,5.682,0,1,0,8.915-2.272Zm0,0" transform="translate(-251.063 -84.152)" fill="#ff5a5a"/>
      </g>
      <path id="Trazado_1016121" data-name="Trazado 1016121" d="M52.992,1.071A3.818,3.818,0,0,0,50.164,0a64.459,64.459,0,0,0-48.9,25.8,3.852,3.852,0,0,0,.917,5.489L7.339,34.8h0L10.4,36.89v2.672a1.281,1.281,0,1,0,2.561,0V36.213a1.282,1.282,0,0,0-.559-1.059L9.855,33.418A53.866,53.866,0,0,1,13.493,28.9a50.989,50.989,0,0,1,4.236-4.211,53.046,53.046,0,0,1,9.55-6.752,51.013,51.013,0,0,1,5.4-2.6q.347-.143.7-.282A6.965,6.965,0,1,0,46.4,11.726q2.6-.321,5.218-.384v32.2a6.957,6.957,0,0,0,0,13.164v5.171l-6.02-4.1a1.281,1.281,0,0,0-2,1.059V61.8a1.176,1.176,0,0,1-2.352,0V55.484a1.288,1.288,0,0,0-.083-.453,6.961,6.961,0,1,0-11.282-7.969l-1.734-1.181a1.281,1.281,0,0,0-2,1.058v4.926a1.176,1.176,0,0,1-2.352,0V43.592a1.282,1.282,0,0,0-.559-1.059L17.317,38.5a1.28,1.28,0,0,0-2,1.058V56.68a1.176,1.176,0,1,1-2.352,0V49.809a1.281,1.281,0,0,0-2.562,0V56.68a3.738,3.738,0,0,0,7.475,0v-14.7l3.353,2.284v7.6a3.738,3.738,0,0,0,7.475,0v-2.5l1.061.723h0l8.772,5.977.143.1V61.8a3.738,3.738,0,1,0,7.475,0v-.547l6.02,4.1a1.293,1.293,0,0,0,2-1.059V3.852a3.82,3.82,0,0,0-1.187-2.781ZM32.009,48.515A4.358,4.358,0,0,1,34.277,46.3a4.4,4.4,0,0,1,4.9,7.1l-4.739-3.229ZM3.078,28.319a1.28,1.28,0,0,1,.239-.985A61.894,61.894,0,0,1,50.272,2.563l.057,0a1.29,1.29,0,0,1,1.288,1.29V8.778a55.6,55.6,0,0,0-6.123.481c-.579.078-1.159.16-1.735.255a55.294,55.294,0,0,0-9.127,2.326A57.474,57.474,0,0,0,28.5,14.412a52.888,52.888,0,0,0-5.871,3.329,57.533,57.533,0,0,0-5.33,3.938,56.221,56.221,0,0,0-4.866,4.588A54.76,54.76,0,0,0,8.22,31.311q-.245.33-.484.663l-4.111-2.8a1.278,1.278,0,0,1-.546-.853ZM44.424,16.774a4.4,4.4,0,0,1-8.357-2.7,51.293,51.293,0,0,1,5.867-1.6c.542-.113,1.085-.22,1.63-.318a4.4,4.4,0,0,1,.86,4.619Zm5.412,35.09a4.4,4.4,0,0,1,1.782-5.516V53.9a4.39,4.39,0,0,1-1.782-2.037Zm0,0" transform="translate(0 0)"/>
      <path id="Trazado_1016122" data-name="Trazado 1016122" d="M135.786,204.158a6.963,6.963,0,1,0-3.819-3.717A6.957,6.957,0,0,0,135.786,204.158Zm-1.512-8.1a4.4,4.4,0,1,1,.046,3.368,4.372,4.372,0,0,1-.046-3.368Zm0,0" transform="translate(-114.134 -166.296)"/>
      <path id="Trazado_1016123" data-name="Trazado 1016123" d="M283.92,224.651a6.963,6.963,0,1,0-3.819-3.717A6.947,6.947,0,0,0,283.92,224.651Zm-1.512-8.1a4.4,4.4,0,1,1,.046,3.368A4.371,4.371,0,0,1,282.408,216.554Zm0,0" transform="translate(-243.296 -184.165)"/>
      <path id="Trazado_1016124" data-name="Trazado 1016124" d="M79.119,341.49a1.281,1.281,0,1,0-1.254-1.021,1.293,1.293,0,0,0,1.254,1.021Zm0,0" transform="translate(-67.436 -295.523)"/>
    </g>
  </g>
</svg>
