<svg xmlns="http://www.w3.org/2000/svg" xmlns:xlink="http://www.w3.org/1999/xlink" width="108" height="108" viewBox="0 0 108 108">
  <defs>
    <filter id="Fondo" x="0" y="0" width="108" height="108" filterUnits="userSpaceOnUse">
      <feOffset dy="3" input="SourceAlpha"/>
      <feGaussianBlur stdDeviation="3" result="blur"/>
      <feFlood flood-opacity="0.161"/>
      <feComposite operator="in" in2="blur"/>
      <feComposite in="SourceGraphic"/>
    </filter>
  </defs>
  <g id="Grupo_1167862" data-name="Grupo 1167862" transform="translate(-154.228 -5214)">
    <g id="Grupo_1163006" data-name="Grupo 1163006" transform="translate(0 327)">
      <g id="Grupo_1158161" data-name="Grupo 1158161" transform="translate(-42.458 3701)">
        <g transform="matrix(1, 0, 0, 1, 196.69, 1186)" filter="url(#Fondo)">
          <g id="Fondo-2" data-name="Fondo" transform="translate(9 6)" fill="#fefcf6">
            <path d="M 45 88.5 C 39.12687683105469 88.5 33.43022537231445 87.35007476806641 28.06830024719238 85.08217620849609 C 22.88852500915527 82.89131164550781 18.23629951477051 79.75458526611328 14.2408504486084 75.75914764404297 C 10.24541282653809 71.76370239257812 7.108687400817871 67.11147308349609 4.917825222015381 61.93170166015625 C 2.649924993515015 56.56977462768555 1.5 50.87312316894531 1.5 45 C 1.5 39.12687683105469 2.649924993515015 33.43022537231445 4.917825222015381 28.06830024719238 C 7.108687400817871 22.88852500915527 10.24541282653809 18.23629951477051 14.2408504486084 14.2408504486084 C 18.23629951477051 10.24541282653809 22.88852500915527 7.108687400817871 28.06830024719238 4.917825222015381 C 33.43022537231445 2.649924993515015 39.12687683105469 1.5 45 1.5 C 50.87312316894531 1.5 56.56977462768555 2.649924993515015 61.93170166015625 4.917825222015381 C 67.11147308349609 7.108687400817871 71.76370239257812 10.24541282653809 75.75914764404297 14.2408504486084 C 79.75458526611328 18.23629951477051 82.89131164550781 22.88852500915527 85.08217620849609 28.06830024719238 C 87.35007476806641 33.43022537231445 88.5 39.12687683105469 88.5 45 C 88.5 50.87312316894531 87.35007476806641 56.56977462768555 85.08217620849609 61.93170166015625 C 82.89131164550781 67.11147308349609 79.75458526611328 71.76370239257812 75.75914764404297 75.75914764404297 C 71.76370239257812 79.75458526611328 67.11147308349609 82.89131164550781 61.93170166015625 85.08217620849609 C 56.56977462768555 87.35007476806641 50.87312316894531 88.5 45 88.5 Z" stroke="none"/>
            <path d="M 45 3 C 39.32871246337891 3 33.82865524291992 4.110054016113281 28.65262985229492 6.299339294433594 C 23.65165710449219 8.414573669433594 19.15968322753906 11.44334411621094 15.301513671875 15.301513671875 C 11.44334411621094 19.15968322753906 8.414573669433594 23.65165710449219 6.299339294433594 28.65262985229492 C 4.110054016113281 33.82865524291992 3 39.32871246337891 3 45 C 3 50.67128753662109 4.110054016113281 56.17134475708008 6.299339294433594 61.34737396240234 C 8.414573669433594 66.34834289550781 11.44334411621094 70.84031677246094 15.301513671875 74.698486328125 C 19.15968322753906 78.55665588378906 23.65165710449219 81.58542633056641 28.65262985229492 83.70066070556641 C 33.82865524291992 85.88994598388672 39.32871246337891 87 45 87 C 50.67128753662109 87 56.17134475708008 85.88994598388672 61.34737396240234 83.70066070556641 C 66.34834289550781 81.58542633056641 70.84031677246094 78.55665588378906 74.698486328125 74.698486328125 C 78.55665588378906 70.84031677246094 81.58542633056641 66.34834289550781 83.70066070556641 61.34737396240234 C 85.88994598388672 56.17134475708008 87 50.67128753662109 87 45 C 87 39.32871246337891 85.88994598388672 33.82865524291992 83.70066070556641 28.65262985229492 C 81.58542633056641 23.65165710449219 78.55665588378906 19.15968322753906 74.698486328125 15.301513671875 C 70.84031677246094 11.44334411621094 66.34834289550781 8.414573669433594 61.34737396240234 6.299339294433594 C 56.17134475708008 4.110054016113281 50.67128753662109 3 45 3 M 45 0 C 69.85281372070312 0 90 20.14718627929688 90 45 C 90 69.85281372070312 69.85281372070312 90 45 90 C 20.14718627929688 90 0 69.85281372070312 0 45 C 0 20.14718627929688 20.14718627929688 0 45 0 Z" stroke="none" fill="#86815c"/>
          </g>
        </g>
      </g>
    </g>
    <g id="comida-sana_1_" data-name="comida-sana (1)" transform="translate(176.406 5233.678)">
      <g id="Grupo_1167860" data-name="Grupo 1167860" transform="translate(0.932 0.932)">
        <path id="Trazado_1015086" data-name="Trazado 1015086" d="M251.7,68.5c-.2,0-.408,0-.61.007v3.732c.2-.006.406-.01.61-.01a19.578,19.578,0,1,1,0,39.157c-.2,0-.408,0-.61-.01v3.732c.2,0,.406.007.61.007a23.308,23.308,0,1,0,0-46.615Z" transform="translate(-220.81 -60.917)" fill="#fce3a0"/>
        <path id="Trazado_1015087" data-name="Trazado 1015087" d="M91.2,72.292V68.56a23.308,23.308,0,0,0,0,46.6v-3.732a19.578,19.578,0,0,1,0-39.137Z" transform="translate(-60.917 -60.97)" fill="#ffce71"/>
        <g id="Grupo_1167855" data-name="Grupo 1167855" transform="translate(16.595)">
          <g id="Grupo_1167850" data-name="Grupo 1167850" transform="translate(0 8.55)">
            <g id="Grupo_1167848" data-name="Grupo 1167848" transform="translate(10.987)">
              <path id="Trazado_1015088" data-name="Trazado 1015088" d="M246.988,77.946V93.294c0,.041,0,.081,0,.121-13.9-2.178-20.731-7.781-16.217-17.1A62.609,62.609,0,0,1,246.988,77.946Z" transform="translate(-229.384 -76.285)" fill="#fff8e6"/>
            </g>
            <g id="Grupo_1167849" data-name="Grupo 1167849" transform="translate(0 0.03)">
              <path id="Trazado_1015089" data-name="Trazado 1015089" d="M169.587,93.63a3.727,3.727,0,0,1-3.725,3.609H144.729A3.729,3.729,0,0,1,141,93.509V78.161a63.183,63.183,0,0,1,12.37-1.631c1.43,6.989,5.581,13.641,16.217,17.1Z" transform="translate(-141 -76.53)" fill="#fff1cf"/>
            </g>
          </g>
          <g id="Grupo_1167851" data-name="Grupo 1167851" transform="translate(7.048 14.606)">
            <path id="Trazado_1015090" data-name="Trazado 1015090" d="M273.087,127.173a2.168,2.168,0,0,1-.636,1.536l-2.029,2.029c-2.4.182-3.814-.478-2.91-3.241l1.862-1.863a2.175,2.175,0,0,1,3.713,1.539Z" transform="translate(-258.593 -124.997)" fill="#b5e9f1"/>
            <path id="Trazado_1015091" data-name="Trazado 1015091" d="M209.527,148.351l-3.5,3.5a3.729,3.729,0,0,1-5.274,0l-2.419-2.419a2.175,2.175,0,0,1,0-3.075h0a2.175,2.175,0,0,1,3.075,0l1.541,1.541a.622.622,0,0,0,.879,0l2.786-2.786A19.931,19.931,0,0,0,209.527,148.351Z" transform="translate(-197.698 -142.61)" fill="#9be1ec"/>
          </g>
          <g id="Grupo_1167854" data-name="Grupo 1167854" transform="translate(0 2.797)">
            <g id="Grupo_1167852" data-name="Grupo 1167852" transform="translate(10.388)">
              <path id="Trazado_1015092" data-name="Trazado 1015092" d="M242.768,33.729v3.729H226.946c-2.2-2.458-3.519-4.986-1.037-7.458h13.129A3.729,3.729,0,0,1,242.768,33.729Z" transform="translate(-224.565 -30)" fill="#99b2e9"/>
            </g>
            <g id="Grupo_1167853" data-name="Grupo 1167853">
              <path id="Trazado_1015093" data-name="Trazado 1015093" d="M153.769,37.458H141V33.729A3.729,3.729,0,0,1,144.729,30h8A32.048,32.048,0,0,0,153.769,37.458Z" transform="translate(-141 -30)" fill="#85a4e4"/>
            </g>
          </g>
          <path id="Trazado_1015094" data-name="Trazado 1015094" d="M292.919,13.094h-.109a1.81,1.81,0,0,1-1.81-1.81V9.31a1.81,1.81,0,0,1,1.81-1.81h.109a1.81,1.81,0,0,1,1.81,1.81v1.974A1.81,1.81,0,0,1,292.919,13.094Z" transform="translate(-272.354 -7.5)" fill="#b5e9f1"/>
          <path id="Trazado_1015095" data-name="Trazado 1015095" d="M192.919,13.094h-.109a1.81,1.81,0,0,1-1.81-1.81V9.31a1.81,1.81,0,0,1,1.81-1.81h.109a1.81,1.81,0,0,1,1.81,1.81v1.974A1.81,1.81,0,0,1,192.919,13.094Z" transform="translate(-184.785 -7.5)" fill="#9be1ec"/>
        </g>
        <g id="Grupo_1167857" data-name="Grupo 1167857" transform="translate(45.621 25.519)">
          <g id="Grupo_1167856" data-name="Grupo 1167856">
            <path id="Trazado_1015096" data-name="Trazado 1015096" d="M421.959,226.7a7.248,7.248,0,0,1-.725,3.1c-11.308.464-12.092-6.492-10.192-14.57.781-.9,1.494-1.618,2.011-2.112a1.2,1.2,0,0,1,1.651,0C416.762,215.084,421.959,220.646,421.959,226.7Z" transform="translate(-405.799 -212.787)" fill="#8ce09f"/>
            <path id="Trazado_1015097" data-name="Trazado 1015097" d="M389.935,247.01a8.1,8.1,0,0,1-15.435-3.1c0-4.533,2.915-8.792,5.243-11.47C379.777,238.045,381.106,244.3,389.935,247.01Z" transform="translate(-374.5 -229.997)" fill="#73da8c"/>
          </g>
        </g>
        <g id="Grupo_1167858" data-name="Grupo 1167858" transform="translate(19.703 35.283)">
          <path id="Trazado_1015098" data-name="Trazado 1015098" d="M201.711,299.519s1.162-3.572-.973-6.116a6.552,6.552,0,0,0-5.064-2.064.991.991,0,0,0-.971.815,6.553,6.553,0,0,0,1.154,5.346C197.992,300.044,201.711,299.519,201.711,299.519Z" transform="translate(-191.017 -291.339)" fill="#8ce09f"/>
          <path id="Trazado_1015099" data-name="Trazado 1015099" d="M231.536,351.516a12.361,12.361,0,0,1-2.931,7.627c-11.807-.9-15.62-9.185-12.007-16.662a10.842,10.842,0,0,1,3.147.548,2,2,0,0,0,1.206,0C228.263,340.711,231.536,346.144,231.536,351.516Z" transform="translate(-209.161 -336.122)" fill="#ff8a98"/>
          <path id="Trazado_1015100" data-name="Trazado 1015100" d="M185.444,359.143a9.116,9.116,0,0,1-6.076,3.465,4.428,4.428,0,0,1-1.569-.173,2.111,2.111,0,0,0-1.221,0,4.428,4.428,0,0,1-1.569.173c-5.049-.427-9.008-6.181-9.008-11.092,0-4.529,2.326-9.1,7.438-9.036A16.025,16.025,0,0,0,185.444,359.143Z" transform="translate(-166 -336.122)" fill="#ff6e80"/>
        </g>
        <g id="Grupo_1167859" data-name="Grupo 1167859" transform="translate(0 25.519)">
          <path id="Trazado_1015101" data-name="Trazado 1015101" d="M38.33,343.885a2.356,2.356,0,0,1-.749-4.525.777.777,0,0,0,.487-.714v-7.435h3.925v7.435a.777.777,0,0,0,.487.714,2.356,2.356,0,1,1-2.074,4.22.759.759,0,0,0-.75,0A2.349,2.349,0,0,1,38.33,343.885Z" transform="translate(-32.573 -316.49)" fill="#fff1cf"/>
          <path id="Trazado_1015102" data-name="Trazado 1015102" d="M46.958,220.248a14.746,14.746,0,0,1-2.154,7.174c-9.383-1.152-10.165-7.256-8.7-13.781h0a7.162,7.162,0,0,1,3.4-.85A7.613,7.613,0,0,1,46.958,220.248Z" transform="translate(-32.041 -212.79)" fill="#e4996d"/>
          <path id="Trazado_1015103" data-name="Trazado 1015103" d="M20.263,233.412a25.436,25.436,0,0,1-2.047,3.032,4.136,4.136,0,0,1-6.514,0c-2.008-2.573-4.2-6.281-4.2-10.206a7.723,7.723,0,0,1,4.062-6.608C11.572,224.815,12.69,230.616,20.263,233.412Z" transform="translate(-7.5 -218.78)" fill="#df8a57"/>
        </g>
      </g>
      <g id="Grupo_1167861" data-name="Grupo 1167861" transform="translate(0)">
        <path id="Trazado_1015104" data-name="Trazado 1015104" d="M196.836,129.705a4.647,4.647,0,0,1-3.3-1.363l-2.419-2.419a3.108,3.108,0,0,1,4.4-4.4l1.321,1.321,4.429-4.429a3.107,3.107,0,0,1,4.394,4.394l-5.528,5.528A4.647,4.647,0,0,1,196.836,129.705Zm-3.517-7.222a1.243,1.243,0,0,0-.88,2.121l2.419,2.419a2.8,2.8,0,0,0,3.955,0l5.528-5.528a1.242,1.242,0,1,0-1.757-1.757l-4.648,4.648a1.556,1.556,0,0,1-2.2,0l-1.541-1.541A1.237,1.237,0,0,0,193.319,122.483Z" transform="translate(-166.568 -102.904)"/>
        <path id="Trazado_1015105" data-name="Trazado 1015105" d="M56.1,26.107a2.123,2.123,0,0,0-.843-.5,24.33,24.33,0,0,0-8.209-12.65v-5.5A4.667,4.667,0,0,0,42.389,2.8H40.835a2.8,2.8,0,1,0-5.594,0H28.4a2.8,2.8,0,1,0-5.594,0H21.256a4.667,4.667,0,0,0-4.662,4.662v5.5A24.324,24.324,0,0,0,8.412,25.519H8.391a8.174,8.174,0,0,0-1.915.227.932.932,0,1,0,.437,1.813,6.3,6.3,0,0,1,1.478-.175,6.7,6.7,0,0,1,6.526,6.526c0,3.719-2.178,7.291-4,9.632a3.2,3.2,0,0,1-5.044,0c-1.827-2.341-4-5.913-4-9.632a6.626,6.626,0,0,1,1.784-4.391A.932.932,0,0,0,2.273,28.26,8.51,8.51,0,0,0,0,33.91c0,4.249,2.392,8.207,4.4,10.779a5.079,5.079,0,0,0,1.1,1.042V48.5A3.288,3.288,0,0,0,6.63,54.776q.108.007.216.007A3.282,3.282,0,0,0,8.391,54.4a3.288,3.288,0,1,0,2.9-5.9V45.731a5.023,5.023,0,0,0,.442-.347,24.343,24.343,0,0,0,8.049,7.478,13.5,13.5,0,0,0,2.73,6.544,10.148,10.148,0,0,0,7.058,4.224c.125.011.254.016.385.016a5.4,5.4,0,0,0,1.533-.225,1.167,1.167,0,0,1,.68,0,5.322,5.322,0,0,0,1.918.209c5.2-.439,9.193-5.8,9.786-10.767a24.185,24.185,0,0,0,6.172-5.046A8.921,8.921,0,0,0,53.7,49.029v1.554a.932.932,0,1,0,1.865,0V49.029a8.991,8.991,0,0,0,5.528-2.683,8.683,8.683,0,0,0,2.552-5.982c0-6.364-5.275-12.09-7.543-14.256ZM11.355,51.594a1.44,1.44,0,0,1-1.324,1.321,1.424,1.424,0,0,1-.8-.182,1.69,1.69,0,0,0-1.679,0,1.422,1.422,0,0,1-.8.183A1.423,1.423,0,0,1,6.3,50.182,1.707,1.707,0,0,0,7.36,48.608V46.531a5.161,5.161,0,0,0,2.061,0v2.077a1.707,1.707,0,0,0,1.06,1.574,1.429,1.429,0,0,1,.873,1.413ZM53.408,25.907a2.153,2.153,0,0,0-.244.2c-.364.348-.811.792-1.3,1.32A20.338,20.338,0,0,0,47.05,18.1V15.429A22.453,22.453,0,0,1,53.408,25.907ZM37.106,2.8a.932.932,0,0,1,1.865,0V4.662a.932.932,0,0,1-1.865,0Zm-12.431,0a.932.932,0,1,1,1.865,0V4.662a.932.932,0,1,1-1.865,0ZM18.46,7.458a2.8,2.8,0,0,1,2.8-2.8H22.81a2.8,2.8,0,0,0,5.594,0h6.837a2.8,2.8,0,1,0,5.594,0h1.554a2.8,2.8,0,0,1,2.8,2.8v2.8H32.224a.932.932,0,0,0,0,1.865H45.186V26.492a2.8,2.8,0,0,1-2.8,2.8H21.256a2.8,2.8,0,0,1-2.8-2.8V12.12h9.414a.932.932,0,1,0,0-1.865H18.46ZM12.044,26.383a8.1,8.1,0,0,0-1.759-.643,22.447,22.447,0,0,1,6.31-10.311V18.1A20.5,20.5,0,0,0,12.044,26.383Zm7.691,24.271A22.483,22.483,0,0,1,12.98,43.9q.639-.879,1.146-1.711A20.6,20.6,0,0,0,20.035,48.6,13.138,13.138,0,0,0,19.735,50.654ZM33.924,61.771a3.494,3.494,0,0,1-1.22-.135,3.025,3.025,0,0,0-1.763,0,3.484,3.484,0,0,1-1.22.135c-4.592-.388-8.154-5.782-8.154-10.163,0-3.06,1.1-5.692,2.942-7.04A5.688,5.688,0,0,1,27.958,43.5a9.91,9.91,0,0,1,2.98.51,2.911,2.911,0,0,0,1.769,0h0c2.623-.832,4.786-.645,6.429.558,1.842,1.348,2.942,3.98,2.942,7.04C42.078,55.99,38.516,61.384,33.924,61.771ZM25.238,37.194a.058.058,0,0,1,.058-.047,5.63,5.63,0,0,1,4.345,1.732,4.9,4.9,0,0,1,1.071,3.129,10.079,10.079,0,0,0-4.489-.191l-.035-.041a5.636,5.636,0,0,1-.95-4.583ZM43.911,50.655a13.147,13.147,0,0,0-.3-2.056,20.564,20.564,0,0,0,3.671-3.311,9.312,9.312,0,0,0,.892,1.057q.178.182.365.353A22.319,22.319,0,0,1,43.911,50.655Zm11.655-3.512V44.751a8.977,8.977,0,0,1,3.679-3.856.932.932,0,1,0-.844-1.663,9.447,9.447,0,0,0-2.835,2.249V38.895a8.909,8.909,0,0,1,2.416-2.911.932.932,0,1,0-1.111-1.5,9.1,9.1,0,0,0-1.305,1.189V31.918a.932.932,0,1,0-1.865,0v3.758A9.1,9.1,0,0,0,52.4,34.486a.932.932,0,1,0-1.111,1.5A8.908,8.908,0,0,1,53.7,38.895v2.587a9.444,9.444,0,0,0-2.835-2.249.932.932,0,1,0-.844,1.663A8.978,8.978,0,0,1,53.7,44.751v2.392c-3.1-.455-6.215-3.112-6.215-6.779a10.542,10.542,0,0,1,.2-2.03.932.932,0,0,0-1.829-.36,12.4,12.4,0,0,0-.239,2.39,8.119,8.119,0,0,0,.678,3.2,18.725,18.725,0,0,1-3.285,3.167,8.584,8.584,0,0,0-2.776-3.664,8.438,8.438,0,0,0-7.037-1.12,11.97,11.97,0,0,1,1.442-2.483.932.932,0,0,0-1.494-1.116,14.351,14.351,0,0,0-.934,1.417,6.174,6.174,0,0,0-1.143-2.081,7.422,7.422,0,0,0-5.741-2.4H25.29A1.922,1.922,0,0,0,23.4,36.864a7.681,7.681,0,0,0,.973,5.6,7.19,7.19,0,0,0-.968.6,8.585,8.585,0,0,0-2.776,3.665,18.726,18.726,0,0,1-5.444-6.487,14.629,14.629,0,0,0,1.593-6.332,8.509,8.509,0,0,0-2.364-5.749,8.834,8.834,0,0,0-.728-.69,18.575,18.575,0,0,1,2.906-6.4v5.419a4.667,4.667,0,0,0,4.662,4.662H42.389a4.667,4.667,0,0,0,4.662-4.662V21.069a18.432,18.432,0,0,1,3.241,8.171,25.935,25.935,0,0,0-2.883,4.393.932.932,0,0,0,1.661.847,27.673,27.673,0,0,1,5.382-7.023.263.263,0,0,1,.363,0c6.287,6.006,6.966,11.028,6.966,12.908C61.781,44.031,58.67,46.688,55.565,47.143Z" transform="translate(0)"/>
      </g>
    </g>
  </g>
</svg>
