<svg xmlns="http://www.w3.org/2000/svg" xmlns:xlink="http://www.w3.org/1999/xlink" width="110" height="110" viewBox="0 0 110 110">
  <defs>
    <filter id="Trazado_982547" x="0" y="0" width="110" height="110" filterUnits="userSpaceOnUse">
      <feOffset dy="3" input="SourceAlpha"/>
      <feGaussianBlur stdDeviation="3" result="blur"/>
      <feFlood flood-opacity="0.161"/>
      <feComposite operator="in" in2="blur"/>
      <feComposite in="SourceGraphic"/>
    </filter>
  </defs>
  <g id="Grupo_1168595" data-name="Grupo 1168595" transform="translate(-959.637 -2431.759)">
    <g id="Grupo_1167443" data-name="Grupo 1167443" transform="translate(968.637 2437.759)">
      <g id="Grupo_1162412" data-name="Grupo 1162412" transform="translate(0 0)">
        <g id="Grupo_1158638" data-name="Grupo 1158638" transform="translate(0 0)">
          <g id="Grupo_1155734" data-name="Grupo 1155734">
            <g id="Grupo_1154704" data-name="Grupo 1154704">
              <g id="Grupo_1150790" data-name="Grupo 1150790" transform="translate(0 0)">
                <g id="Grupo_1154214" data-name="Grupo 1154214" transform="translate(0)">
                  <g id="Grupo_1152583" data-name="Grupo 1152583">
                    <g id="Grupo_1146973" data-name="Grupo 1146973">
                      <g id="Grupo_1146954" data-name="Grupo 1146954">
                        <g transform="matrix(1, 0, 0, 1, -9, -6)" filter="url(#Trazado_982547)">
                          <g id="Trazado_982547-2" data-name="Trazado 982547" transform="translate(9 6)" fill="#ebe9f0">
                            <path d="M 46.00000381469727 90.49986267089844 C 39.99188232421875 90.49986267089844 34.16427230834961 89.32350158691406 28.67905807495117 87.00344848632812 C 23.38020324707031 84.76223754882812 18.62104415893555 81.55341339111328 14.53375053405762 77.46613311767578 C 10.44647026062012 73.37885284423828 7.237643718719482 68.61968994140625 4.996417045593262 63.32085037231445 C 2.676363706588745 57.83565139770508 1.500003814697266 52.00805282592773 1.500003814697266 45.99993133544922 C 1.500003814697266 39.99182510375977 2.676363706588745 34.16422653198242 4.996417045593262 28.67901039123535 C 7.237643718719482 23.38017082214355 10.44647026062012 18.62101173400879 14.53375053405762 14.53373146057129 C 18.62104415893555 10.44645118713379 23.38020324707031 7.237624645233154 28.67905807495117 4.996411323547363 C 34.16427230834961 2.676357984542847 39.99188232421875 1.499997973442078 46.00000381469727 1.499997973442078 C 52.00812530517578 1.499997973442078 57.83573532104492 2.676357984542847 63.32094955444336 4.996411323547363 C 68.61980438232422 7.237624645233154 73.37896728515625 10.44645118713379 77.46625518798828 14.53373146057129 C 81.55353546142578 18.62101173400879 84.76236724853516 23.38017082214355 87.00359344482422 28.67901039123535 C 89.32364654541016 34.16422653198242 90.5 39.99182510375977 90.5 45.99993133544922 C 90.5 52.00805282592773 89.32364654541016 57.83565139770508 87.00359344482422 63.32085037231445 C 84.76236724853516 68.61968994140625 81.55353546142578 73.37885284423828 77.46625518798828 77.46613311767578 C 73.37896728515625 81.55341339111328 68.61980438232422 84.76223754882812 63.32094955444336 87.00344848632812 C 57.83573532104492 89.32350158691406 52.00812530517578 90.49986267089844 46.00000381469727 90.49986267089844 Z" stroke="none"/>
                            <path d="M 46.00000381469727 3 C 40.19371795654297 3 34.56270217895508 4.136505126953125 29.26337432861328 6.377914428710938 C 24.14333343505859 8.54351806640625 19.54441833496094 11.64438629150391 15.59440612792969 15.59439086914062 C 11.64440155029297 19.54440307617188 8.54351806640625 24.14330291748047 6.377914428710938 29.26334381103516 C 4.136505126953125 34.56266021728516 3.000007629394531 40.19366073608398 3.000007629394531 45.99993133544922 C 3.000007629394531 51.80620193481445 4.136505126953125 57.43720245361328 6.377914428710938 62.73651885986328 C 8.54351806640625 67.85655975341797 11.64440155029297 72.45545959472656 15.59440612792969 76.40547180175781 C 19.54441833496094 80.35547637939453 24.14333343505859 83.45634460449219 29.26337432861328 85.6219482421875 C 34.56270217895508 87.86335754394531 40.19371795654297 88.99986267089844 46.00000381469727 88.99986267089844 C 51.80628967285156 88.99986267089844 57.43730545043945 87.86335754394531 62.73661804199219 85.6219482421875 C 67.85667419433594 83.45634460449219 72.45557403564453 80.35547637939453 76.40558624267578 76.40547180175781 C 80.35560607910156 72.45545959472656 83.45647430419922 67.85655975341797 85.62207794189453 62.73651885986328 C 87.86350250244141 57.43720245361328 89 51.80620193481445 89 45.99993133544922 C 89 40.19366073608398 87.86350250244141 34.56266021728516 85.62207794189453 29.26334381103516 C 83.45647430419922 24.14330291748047 80.35560607910156 19.54440307617188 76.40558624267578 15.59439086914062 C 72.45557403564453 11.64438629150391 67.85667419433594 8.54351806640625 62.73661804199219 6.377914428710938 C 57.43730545043945 4.136505126953125 51.80628967285156 3 46.00000381469727 3 M 46.00000381469727 0 C 71.40509033203125 0 92 20.59487152099609 92 45.99993133544922 C 92 71.40499114990234 71.40509033203125 91.99986267089844 46.00000381469727 91.99986267089844 C 20.59490203857422 91.99986267089844 7.62939453125e-06 71.40499114990234 7.62939453125e-06 45.99993133544922 C 7.62939453125e-06 20.59487152099609 20.59490203857422 0 46.00000381469727 0 Z" stroke="none" fill="#453179"/>
                          </g>
                        </g>
                      </g>
                    </g>
                  </g>
                </g>
              </g>
            </g>
          </g>
        </g>
      </g>
    </g>
    <g id="cubos-de-azucar" transform="translate(966.355 2452.259)">
      <path id="Trazado_1016125" data-name="Trazado 1016125" d="M82.012,210.254H28.794a1.537,1.537,0,0,0-1.537,1.537v3.221a1.537,1.537,0,0,0,1.537,1.537H82.012a1.537,1.537,0,0,0,1.537-1.537v-3.221A1.537,1.537,0,0,0,82.012,210.254Z" transform="translate(-6.576 -184.383)" fill="#75cef9"/>
      <path id="Trazado_1016126" data-name="Trazado 1016126" d="M100.345,261.418H49.535A25.413,25.413,0,0,0,65.2,284.891a1.024,1.024,0,0,1,.6,1.2l-1.136,4.361a.7.7,0,0,0,.675.874H84.535a.7.7,0,0,0,.675-.874l-1.136-4.361a1.024,1.024,0,0,1,.6-1.2A25.413,25.413,0,0,0,100.345,261.418Z" transform="translate(-26.113 -229.251)" fill="#75cef9"/>
      <path id="Trazado_1016127" data-name="Trazado 1016127" d="M82.012,210.254H78.627v.086a3.749,3.749,0,0,1-3.749,3.749H27.257v.924a1.537,1.537,0,0,0,1.537,1.537H82.012a1.537,1.537,0,0,0,1.537-1.537v-3.221A1.537,1.537,0,0,0,82.012,210.254Z" transform="translate(-6.576 -184.383)" fill="#6bbef6"/>
      <path id="Trazado_1016128" data-name="Trazado 1016128" d="M192.379,284.891a25.413,25.413,0,0,0,15.67-23.473h-5.04a25.419,25.419,0,0,1-14.072,20.341,3.125,3.125,0,0,0-1.634,3.593,2.808,2.808,0,0,1-2.718,3.516h-11.8l-.413,1.587a.7.7,0,0,0,.675.874h19.189a.7.7,0,0,0,.675-.874l-1.136-4.361A1.024,1.024,0,0,1,192.379,284.891Z" transform="translate(-133.817 -229.251)" fill="#6bbef6"/>
      <g id="Grupo_1168594" data-name="Grupo 1168594" transform="translate(21.569 0.923)">
        <path id="Trazado_1016129" data-name="Trazado 1016129" d="M119.45,18.9l6.875,3.97a1.576,1.576,0,0,1,.788,1.368V21.946a1.577,1.577,0,0,1,1.577-1.577h6.916l-.01-.04L132.472,8.667a1.577,1.577,0,0,0-1.931-1.115l-11.661,3.125a1.577,1.577,0,0,0-1.115,1.931Z" transform="translate(-107.468 -7.498)" fill="#f4fbff"/>
        <path id="Trazado_1016130" data-name="Trazado 1016130" d="M256.87,20.329l.01.04h5.156a1.577,1.577,0,0,1,1.577,1.577v2.288a1.575,1.575,0,0,1,.788-1.368l6.875-3.97,1.685-6.288a1.576,1.576,0,0,0-1.115-1.931L260.186,7.553a1.577,1.577,0,0,0-1.931,1.115L256,17.083Z" transform="translate(-228.742 -7.498)" fill="#f4fbff"/>
        <path id="Trazado_1016131" data-name="Trazado 1016131" d="M35.263,95.012l4.211,2.431H49.62l4.288-7.427a1.577,1.577,0,0,0-.577-2.154L42.876,81.826a1.577,1.577,0,0,0-2.154.577L34.686,92.858A1.577,1.577,0,0,0,35.263,95.012Z" transform="translate(-34.474 -72.495)" fill="#f4fbff"/>
        <path id="Trazado_1016132" data-name="Trazado 1016132" d="M209.355,124.175v-10.5a1.577,1.577,0,0,0-1.577-1.577H195.706a1.577,1.577,0,0,0-1.577,1.577v10.5Z" transform="translate(-174.484 -99.226)" fill="#f4fbff"/>
        <path id="Trazado_1016133" data-name="Trazado 1016133" d="M322.369,97.443h10.146l4.211-2.431a1.577,1.577,0,0,0,.577-2.154L331.267,82.4a1.577,1.577,0,0,0-2.154-.577l-10.455,6.036a1.577,1.577,0,0,0-.577,2.154Z" transform="translate(-282.998 -72.495)" fill="#f4fbff"/>
      </g>
      <path id="Trazado_1016134" data-name="Trazado 1016134" d="M167.534,20.329,164.409,8.667a1.577,1.577,0,0,0-1.931-1.115l-2.454.658,1.239,4.626a3.832,3.832,0,0,1-3.892,5.072h-1.666a1.577,1.577,0,0,0-1.577,1.577v.995l4.133,2.386a1.576,1.576,0,0,1,.788,1.368V21.946a1.577,1.577,0,0,1,1.576-1.577h6.916C167.541,20.355,167.537,20.342,167.534,20.329Z" transform="translate(-117.837 -6.576)" fill="#e4f6ff"/>
      <path id="Trazado_1016135" data-name="Trazado 1016135" d="M297.09,26.162l-3.754-1.006a1.579,1.579,0,0,1-.053.476l-.731,2.726a8.9,8.9,0,0,1-4.148,5.406l-3.619,2.09h2.494a1.577,1.577,0,0,1,1.577,1.577v2.288a1.576,1.576,0,0,1,.788-1.368l6.875-3.97,1.685-6.288a1.577,1.577,0,0,0-1.115-1.931Z" transform="translate(-232.416 -22.06)" fill="#e4f6ff"/>
      <path id="Trazado_1016136" data-name="Trazado 1016136" d="M58.6,87.863,48.147,81.826a1.569,1.569,0,0,0-1-.2L53.68,85.4a1.577,1.577,0,0,1,.577,2.154L51.922,91.6a6.766,6.766,0,0,1-5.859,3.383H40.485l.049.03,4.211,2.431H54.891l4.288-7.427A1.577,1.577,0,0,0,58.6,87.863Z" transform="translate(-18.177 -71.572)" fill="#e4f6ff"/>
      <path id="Trazado_1016137" data-name="Trazado 1016137" d="M207.779,112.1h-3.345v6.267a3.35,3.35,0,0,1-3.35,3.35H194.13v2.461h15.226v-10.5a1.577,1.577,0,0,0-1.577-1.577Z" transform="translate(-152.916 -98.304)" fill="#e4f6ff"/>
      <path id="Trazado_1016138" data-name="Trazado 1016138" d="M359.245,92.858,353.208,82.4a1.577,1.577,0,0,0-2.154-.577l-1.26.728,4.529,7.844a1.577,1.577,0,0,1-.577,2.154l-1.234.713a12.83,12.83,0,0,1-6.415,1.719H342.89l1.421,2.461h10.146l4.211-2.431A1.576,1.576,0,0,0,359.245,92.858Z" transform="translate(-283.371 -71.572)" fill="#e4f6ff"/>
      <path id="Trazado_1016139" data-name="Trazado 1016139" d="M73.413,38.656a.923.923,0,0,0,1.1-.7,26.435,26.435,0,0,0,.623-4.868h.3a2.463,2.463,0,0,0,2.46-2.46V27.409a2.463,2.463,0,0,0-2.46-2.46h-.907l1.229-.709a2.5,2.5,0,0,0,.915-3.414L70.636,10.37a2.5,2.5,0,0,0-3.414-.915l-1.65.953L66.68,6.271A2.5,2.5,0,0,0,64.913,3.21L53.251.086A2.5,2.5,0,0,0,50.19,1.853l-.337,1.258a.923.923,0,1,0,1.783.478l.337-1.258a.655.655,0,0,1,.8-.462L64.435,4.993a.653.653,0,0,1,.462.8l-1.586,5.919-5.958,3.44a2.5,2.5,0,0,0-2.49-2.282H50.415l-.633-2.363.757-2.825a.923.923,0,0,0-1.7-.688L47.463,1.853A2.5,2.5,0,0,0,44.4.086L32.741,3.21a2.5,2.5,0,0,0-1.767,3.061l1.108,4.136-1.65-.953a2.5,2.5,0,0,0-3.414.915L20.981,20.825a2.5,2.5,0,0,0,.915,3.414l1.229.709h-.907a2.463,2.463,0,0,0-2.46,2.46V30.63a2.463,2.463,0,0,0,2.46,2.46h.3a26.336,26.336,0,0,0,16.223,23.4.1.1,0,0,1,.062.118l-1.136,4.361A1.62,1.62,0,0,0,39.233,63H58.421a1.62,1.62,0,0,0,1.568-2.029l-1.136-4.361a.1.1,0,0,1,.062-.118A26.542,26.542,0,0,0,73.167,42.219a.923.923,0,1,0-1.706-.705A24.684,24.684,0,0,1,58.208,54.788a1.956,1.956,0,0,0-1.141,2.288l1.063,4.079H39.524l1.063-4.079a1.956,1.956,0,0,0-1.141-2.288,24.42,24.42,0,0,1-15.084-21.7H29.67a.923.923,0,1,0,0-1.846H22.218a.615.615,0,0,1-.614-.614V27.409a.615.615,0,0,1,.614-.614H75.436a.615.615,0,0,1,.614.614V30.63a.615.615,0,0,1-.614.614H33.977a.923.923,0,1,0,0,1.846H73.292a24.577,24.577,0,0,1-.577,4.464.923.923,0,0,0,.7,1.1ZM57.69,17.09l10.455-6.036a.653.653,0,0,1,.893.239l6.036,10.455a.655.655,0,0,1-.239.893l-4,2.308H61.472L57.45,17.983A.653.653,0,0,1,57.69,17.09Zm-.327,4.432,1.978,3.427H57.362ZM55.517,15.37v9.579H42.137V15.37a.654.654,0,0,1,.654-.654H54.863a.654.654,0,0,1,.654.654ZM40.291,24.949H38.313l1.978-3.427ZM32.756,5.794a.653.653,0,0,1,.462-.8L44.88,1.868a.655.655,0,0,1,.8.462l2.25,8.4.009.034L48.5,12.87H42.791a2.5,2.5,0,0,0-2.49,2.282l-5.958-3.44ZM22.819,22.641a.654.654,0,0,1-.239-.893l6.036-10.455a.653.653,0,0,1,.893-.239L39.964,17.09a.653.653,0,0,1,.239.893l-4.022,6.966H26.816Z" transform="translate(0 0)"/>
      <path id="Trazado_1016140" data-name="Trazado 1016140" d="M213.522,447.334a.923.923,0,0,0,0,1.846h8.835a.923.923,0,1,0,0-1.846Z" transform="translate(-169.112 -392.291)"/>
    </g>
  </g>
</svg>
