<svg xmlns="http://www.w3.org/2000/svg" xmlns:xlink="http://www.w3.org/1999/xlink" width="108" height="108" viewBox="0 0 108 108">
  <defs>
    <filter id="Fondo" x="0" y="0" width="108" height="108" filterUnits="userSpaceOnUse">
      <feOffset dy="3" input="SourceAlpha"/>
      <feGaussianBlur stdDeviation="3" result="blur"/>
      <feFlood flood-opacity="0.161"/>
      <feComposite operator="in" in2="blur"/>
      <feComposite in="SourceGraphic"/>
    </filter>
  </defs>
  <g id="Grupo_1168086" data-name="Grupo 1168086" transform="translate(-609.228 -7354)">
    <g id="Grupo_1163208" data-name="Grupo 1163208" transform="translate(618.228 7360)">
      <g id="Grupo_1158163" data-name="Grupo 1158163">
        <g transform="matrix(1, 0, 0, 1, -9, -6)" filter="url(#Fondo)">
          <g id="Fondo-2" data-name="Fondo" transform="translate(9 6)" fill="#edf3fc">
            <path d="M 45 88.5 C 39.12687683105469 88.5 33.43022537231445 87.35007476806641 28.06830024719238 85.08217620849609 C 22.88852500915527 82.89131164550781 18.23629951477051 79.75458526611328 14.2408504486084 75.75914764404297 C 10.24541282653809 71.76370239257812 7.108687400817871 67.11147308349609 4.917825222015381 61.93170166015625 C 2.649924993515015 56.56977462768555 1.5 50.87312316894531 1.5 45 C 1.5 39.12687683105469 2.649924993515015 33.43022537231445 4.917825222015381 28.06830024719238 C 7.108687400817871 22.88852500915527 10.24541282653809 18.23629951477051 14.2408504486084 14.2408504486084 C 18.23629951477051 10.24541282653809 22.88852500915527 7.108687400817871 28.06830024719238 4.917825222015381 C 33.43022537231445 2.649924993515015 39.12687683105469 1.5 45 1.5 C 50.87312316894531 1.5 56.56977462768555 2.649924993515015 61.93170166015625 4.917825222015381 C 67.11147308349609 7.108687400817871 71.76370239257812 10.24541282653809 75.75914764404297 14.2408504486084 C 79.75458526611328 18.23629951477051 82.89131164550781 22.88852500915527 85.08217620849609 28.06830024719238 C 87.35007476806641 33.43022537231445 88.5 39.12687683105469 88.5 45 C 88.5 50.87312316894531 87.35007476806641 56.56977462768555 85.08217620849609 61.93170166015625 C 82.89131164550781 67.11147308349609 79.75458526611328 71.76370239257812 75.75914764404297 75.75914764404297 C 71.76370239257812 79.75458526611328 67.11147308349609 82.89131164550781 61.93170166015625 85.08217620849609 C 56.56977462768555 87.35007476806641 50.87312316894531 88.5 45 88.5 Z" stroke="none"/>
            <path d="M 45 3 C 39.32871246337891 3 33.82865524291992 4.110054016113281 28.65262985229492 6.299339294433594 C 23.65165710449219 8.414573669433594 19.15968322753906 11.44334411621094 15.301513671875 15.301513671875 C 11.44334411621094 19.15968322753906 8.414573669433594 23.65165710449219 6.299339294433594 28.65262985229492 C 4.110054016113281 33.82865524291992 3 39.32871246337891 3 45 C 3 50.67128753662109 4.110054016113281 56.17134475708008 6.299339294433594 61.34737396240234 C 8.414573669433594 66.34834289550781 11.44334411621094 70.84031677246094 15.301513671875 74.698486328125 C 19.15968322753906 78.55665588378906 23.65165710449219 81.58542633056641 28.65262985229492 83.70066070556641 C 33.82865524291992 85.88994598388672 39.32871246337891 87 45 87 C 50.67128753662109 87 56.17134475708008 85.88994598388672 61.34737396240234 83.70066070556641 C 66.34834289550781 81.58542633056641 70.84031677246094 78.55665588378906 74.698486328125 74.698486328125 C 78.55665588378906 70.84031677246094 81.58542633056641 66.34834289550781 83.70066070556641 61.34737396240234 C 85.88994598388672 56.17134475708008 87 50.67128753662109 87 45 C 87 39.32871246337891 85.88994598388672 33.82865524291992 83.70066070556641 28.65262985229492 C 81.58542633056641 23.65165710449219 78.55665588378906 19.15968322753906 74.698486328125 15.301513671875 C 70.84031677246094 11.44334411621094 66.34834289550781 8.414573669433594 61.34737396240234 6.299339294433594 C 56.17134475708008 4.110054016113281 50.67128753662109 3 45 3 M 45 0 C 69.85281372070312 0 90 20.14718627929688 90 45 C 90 69.85281372070312 69.85281372070312 90 45 90 C 20.14718627929688 90 0 69.85281372070312 0 45 C 0 20.14718627929688 20.14718627929688 0 45 0 Z" stroke="none" fill="#5692e8"/>
          </g>
        </g>
      </g>
    </g>
    <g id="Fill_Outline" data-name="Fill Outline" transform="translate(631.228 7373)">
      <g id="Stroke_copy" data-name="Stroke copy">
        <g id="Grupo_1168084" data-name="Grupo 1168084">
          <g id="Grupo_1168082" data-name="Grupo 1168082">
            <circle id="Elipse_11866" data-name="Elipse 11866" cx="20" cy="20" r="20" transform="translate(12 21)" fill="#57b7eb"/>
            <path id="Trazado_1015440" data-name="Trazado 1015440" d="M39,53A19.965,19.965,0,0,1,21.014,24.3,19.992,19.992,0,1,0,49.986,49.7,19.9,19.9,0,0,1,39,53Z" fill="#4891d3"/>
            <path id="Trazado_1015441" data-name="Trazado 1015441" d="M27.949,60.589A20.1,20.1,0,0,0,32,61c.675,0,1.342-.036,2-.1V55l-4,2Z" fill="#a1d51c"/>
            <path id="Trazado_1015442" data-name="Trazado 1015442" d="M42.263,23.857A19.941,19.941,0,0,0,13.208,34.208L17,38l-1,3v4H12.412A20.027,20.027,0,0,0,23.624,59.144L29,53l-7-3,9-5-7-3-3-6,3-4,8,4,3-4,8-2Z" fill="#c4f236"/>
            <path id="Trazado_1015443" data-name="Trazado 1015443" d="M52,41a19.891,19.891,0,0,0-2.175-9.037L38,43l4,4L36.995,60.346A19.99,19.99,0,0,0,52,41Z" fill="#c4f236"/>
            <path id="Trazado_1015444" data-name="Trazado 1015444" d="M29,53l-5.38,6.14A20.046,20.046,0,0,1,12.41,45H16V41l1-3-3.79-3.79a20.06,20.06,0,0,1,7.76-9.88,20.013,20.013,0,0,0,4.74,23.61L22,50Z" fill="#a1d51c"/>
            <path id="Trazado_1015445" data-name="Trazado 1015445" d="M50,49.69A20.02,20.02,0,0,1,37,60.35l2.76-7.37A19.746,19.746,0,0,0,50,49.69Z" fill="#a1d51c"/>
          </g>
          <g id="Grupo_1168083" data-name="Grupo 1168083">
            <path id="Trazado_1015446" data-name="Trazado 1015446" d="M61,20a3.989,3.989,0,0,0-2.93-3.837A2.994,2.994,0,0,0,56,11c-.047,0-.091.012-.137.014a3.968,3.968,0,0,0-.507-1.178A2.984,2.984,0,0,0,51.2,5.617,3.982,3.982,0,0,0,48,4a4.057,4.057,0,0,0-.719.072,2.963,2.963,0,0,0-4.3-.277A11.422,11.422,0,0,0,38.8,3H35.442a5.272,5.272,0,0,0-.878.073L32.632,3.4a5.335,5.335,0,0,0-4.184,6.949L29,12h2l1.46-2.92A1.954,1.954,0,0,1,34.208,8h.982a1.954,1.954,0,0,1,1.382.572l1.574,1.574a1.955,1.955,0,0,0,2,.472,1.949,1.949,0,0,1,2.214.741,3.962,3.962,0,0,0,4.655,5.495c0,.049-.015.1-.015.146a2.991,2.991,0,0,0,2.578,2.957,3.959,3.959,0,0,0,4.55,5.862A2.991,2.991,0,1,0,59.383,23.2,3.984,3.984,0,0,0,61,20Z" fill="#93999a"/>
            <path id="Trazado_1015447" data-name="Trazado 1015447" d="M57.128,22.819a3.562,3.562,0,0,1-3.785-1.039A3.862,3.862,0,0,1,52,18.95a3.973,3.973,0,0,1,.578-1.993A2.991,2.991,0,0,1,50,14c0-.05.012-.1.015-.146-1.086.286-2.283.288-3.846-1.277A3.71,3.71,0,0,1,45,9.821a3.982,3.982,0,0,1,.356-1.462A1.947,1.947,0,0,0,43.1,7.632a1.9,1.9,0,0,1-1.96-.486A3.374,3.374,0,0,1,40.4,3.507l.145-.361A11.393,11.393,0,0,0,38.8,3H35.442a5.272,5.272,0,0,0-.878.073L32.632,3.4a5.335,5.335,0,0,0-4.184,6.949L29,12h2l1.46-2.92A1.954,1.954,0,0,1,34.208,8h.982a1.954,1.954,0,0,1,1.382.572l1.574,1.574a1.955,1.955,0,0,0,2,.472,1.949,1.949,0,0,1,2.214.741,3.962,3.962,0,0,0,4.655,5.495c0,.049-.015.1-.015.146a2.991,2.991,0,0,0,2.578,2.957,3.959,3.959,0,0,0,4.55,5.862A2.992,2.992,0,0,0,60,25h0a2.987,2.987,0,0,1-2.872-2.181Z" fill="#656b76"/>
            <path id="Trazado_1015448" data-name="Trazado 1015448" d="M21.728,3.692a3.135,3.135,0,0,0-2.5.488l-.45.3a1.309,1.309,0,0,1-1.488.048L16.2,3.8a1.3,1.3,0,0,0-1.868.525A1.278,1.278,0,0,1,13.211,5h-.445a6.5,6.5,0,0,1-2.887-.794A1.964,1.964,0,0,0,9,4,2,2,0,0,0,7,6,2,2,0,0,0,5.323,9.084,2.989,2.989,0,0,0,4.4,14.53a2.9,2.9,0,0,0,0,2.94,2.984,2.984,0,0,0,.82,5.414,2.963,2.963,0,0,0,.747,3.31,2.98,2.98,0,0,0-.407,5.423,2,2,0,1,0,2.88,0A2.989,2.989,0,0,0,10,29a2.822,2.822,0,0,0-.03-.293,1.967,1.967,0,0,0,1.532.228,2,2,0,0,0,1.155-3.055,1.985,1.985,0,0,0,1.02-2.964,2.988,2.988,0,0,0,.1-5.8A2.984,2.984,0,0,0,14,16a3,3,0,0,0,1.116-5.78.852.852,0,0,1,.118-.571l.941-1.411a.863.863,0,0,1,1.486.084.815.815,0,0,0,.972.467l.771-.257a.879.879,0,0,1,1.215.993L20,12h3l.662-2.647A11.36,11.36,0,0,0,24,6.606h0a3.008,3.008,0,0,0-2.272-2.914Z" fill="#93999a"/>
            <path id="Trazado_1015449" data-name="Trazado 1015449" d="M38,27H20V19H34l4,4Z" fill="#f9e109"/>
            <rect id="Rect치ngulo_413592" data-name="Rect치ngulo 413592" width="4" height="8" transform="translate(20 11)" fill="#57b7eb"/>
            <rect id="Rect치ngulo_413593" data-name="Rect치ngulo 413593" width="4" height="8" transform="translate(28 11)" fill="#57b7eb"/>
            <path id="Trazado_1015450" data-name="Trazado 1015450" d="M20,50a1.985,1.985,0,0,0-1.5.69A1.985,1.985,0,0,0,17,50c-.061,0-.119.013-.178.018A2.99,2.99,0,0,0,14,48a3,3,0,1,0-6,0,3,3,0,1,0,1.154,5.768,2,2,0,0,0,3.692,0,2.994,2.994,0,0,0,2.83-.28A1.972,1.972,0,0,0,18.5,53.31,2,2,0,1,0,20,50Z" fill="#93999a"/>
            <circle id="Elipse_11867" data-name="Elipse 11867" cx="2" cy="2" r="2" transform="translate(3 39)" fill="#93999a"/>
            <path id="Trazado_1015451" data-name="Trazado 1015451" d="M55,35a1.906,1.906,0,0,0-.263.027A1.992,1.992,0,0,0,53,34c-.061,0-.119.013-.178.018a2.987,2.987,0,0,0-5.738.3,1.985,1.985,0,0,0-2.964,1.02A2,2,0,1,0,43,39a1.963,1.963,0,0,0,.255-.041,1.983,1.983,0,0,0,3.489,0A1.817,1.817,0,0,0,47,39a1.677,1.677,0,0,0,.175-.027,2.975,2.975,0,0,0,5.15.9,1.959,1.959,0,0,0,2.417-.911A1.821,1.821,0,0,0,55,39a2,2,0,1,0,0-4Z" fill="#93999a"/>
            <path id="Trazado_1015452" data-name="Trazado 1015452" d="M59,49a1.987,1.987,0,0,0-1,.277,1.92,1.92,0,0,0-1.675-.152A2.915,2.915,0,0,0,53.3,48.092a2.98,2.98,0,0,0-4.77.213,3.968,3.968,0,0,0-5,1.748A3.036,3.036,0,0,0,43,50a2.978,2.978,0,0,0-2,.779A2.988,2.988,0,0,0,36,53a2,2,0,1,0,1.846,2.768A2.967,2.967,0,0,0,41,55.221,2.978,2.978,0,0,0,43,56a2,2,0,0,0,3.635,1.147A3.994,3.994,0,0,0,54,55a4.057,4.057,0,0,0-.072-.719,3.117,3.117,0,0,0,.314-.3h.021A1.993,1.993,0,0,0,58,53a1.763,1.763,0,0,0-.027-.263l.03-.016A1.968,1.968,0,0,0,59,53a2,2,0,0,0,0-4Z" fill="#93999a"/>
            <path id="Trazado_1015453" data-name="Trazado 1015453" d="M56.31,35.5A1.983,1.983,0,0,1,55,36a1.822,1.822,0,0,1-.258-.036,1.959,1.959,0,0,1-2.417.911,2.975,2.975,0,0,1-5.15-.9A1.676,1.676,0,0,1,47,36a1.817,1.817,0,0,1-.256-.039,1.983,1.983,0,0,1-3.489,0A1.652,1.652,0,0,1,41.69,35.5,1.992,1.992,0,0,0,43,39a1.963,1.963,0,0,0,.255-.041,1.983,1.983,0,0,0,3.489,0A1.817,1.817,0,0,0,47,39a1.677,1.677,0,0,0,.175-.027,2.975,2.975,0,0,0,5.15.9,1.959,1.959,0,0,0,2.417-.911A1.821,1.821,0,0,0,55,39a1.992,1.992,0,0,0,1.31-3.5Z" fill="#656b76"/>
            <path id="Trazado_1015454" data-name="Trazado 1015454" d="M51,56a3.986,3.986,0,0,1-3.365-1.853A2,2,0,0,1,44,53a2.978,2.978,0,0,1-2-.779,2.967,2.967,0,0,1-3.154.547,2,2,0,0,1-3.5.352,2,2,0,1,0,2.5,2.648A2.967,2.967,0,0,0,41,55.221,2.978,2.978,0,0,0,43,56a2,2,0,0,0,3.635,1.147A3.994,3.994,0,0,0,54,55c0-.116-.023-.225-.034-.338A3.976,3.976,0,0,1,51,56Z" fill="#656b76"/>
            <path id="Trazado_1015455" data-name="Trazado 1015455" d="M60.485,49.927a3.946,3.946,0,0,1-5.544,1.486A3.791,3.791,0,0,1,55,52a3.97,3.97,0,0,1-.623,2.126A1.971,1.971,0,0,0,56,55a2,2,0,0,0,2-2,1.763,1.763,0,0,0-.027-.263l.03-.016A1.968,1.968,0,0,0,59,53a2,2,0,0,0,1.657-3.12C60.6,49.9,60.542,49.912,60.485,49.927Z" fill="#93999a"/>
            <path id="Trazado_1015456" data-name="Trazado 1015456" d="M20,52a1.985,1.985,0,0,1-1.5-.69,1.972,1.972,0,0,1-2.824.178,2.994,2.994,0,0,1-2.83.28,2,2,0,0,1-3.692,0A2.983,2.983,0,0,1,5.184,50,2.962,2.962,0,0,0,5,51a3,3,0,0,0,4.154,2.768,2,2,0,0,0,3.692,0,2.994,2.994,0,0,0,2.83-.28A1.972,1.972,0,0,0,18.5,53.31,1.99,1.99,0,0,0,21.723,51,1.994,1.994,0,0,1,20,52Z" fill="#656b76"/>
            <path id="Trazado_1015457" data-name="Trazado 1015457" d="M6,42a1.992,1.992,0,0,1-1.82-2.82,2,2,0,1,0,2.64,2.64A1.99,1.99,0,0,1,6,42Z" fill="#656b76"/>
            <path id="Trazado_1015458" data-name="Trazado 1015458" d="M9.25,30.961a1.85,1.85,0,0,1-.186-.451,2,2,0,0,1,.5-1.893,2.98,2.98,0,0,1,.407-5.423,2.963,2.963,0,0,1-.747-3.31A2.984,2.984,0,0,1,8.4,14.47a2.9,2.9,0,0,1,0-2.94,2.989,2.989,0,0,1,.923-5.446,1.956,1.956,0,0,1-.062-2.053A1.879,1.879,0,0,0,9,4,2,2,0,0,0,7,6,2,2,0,0,0,5.323,9.084,2.989,2.989,0,0,0,4.4,14.53a2.9,2.9,0,0,0,0,2.94,2.984,2.984,0,0,0,.82,5.414,2.963,2.963,0,0,0,.747,3.31,2.98,2.98,0,0,0-.407,5.423,2,2,0,1,0,2.88,0,3.061,3.061,0,0,0,.81-.656Z" fill="#656b76"/>
            <path id="Trazado_1015459" data-name="Trazado 1015459" d="M30,15V11H28v8h4V17A2,2,0,0,1,30,15Z" fill="#4891d3"/>
            <path id="Trazado_1015460" data-name="Trazado 1015460" d="M22,15V11H20v8h4V17A2,2,0,0,1,22,15Z" fill="#4891d3"/>
            <path id="Trazado_1015461" data-name="Trazado 1015461" d="M28.184,24a6.185,6.185,0,0,1-6.068-5H20v8H38V24Z" fill="#fcbc04"/>
          </g>
        </g>
      </g>
      <g id="Stroke_Cut_copy_2" data-name="Stroke Cut copy 2">
        <g id="Grupo_1168085" data-name="Grupo 1168085">
          <path id="Trazado_1015462" data-name="Trazado 1015462" d="M35,45a1,1,0,0,0-1,1,2.731,2.731,0,0,1-1.219,2.277l-1.336.891a1,1,0,1,0,1.11,1.664l1.336-.891A4.727,4.727,0,0,0,36,46,1,1,0,0,0,35,45Z" fill="#323232"/>
          <path id="Trazado_1015463" data-name="Trazado 1015463" d="M36.832,38.555a1,1,0,0,0-1.664-1.11l-.246.369a3.145,3.145,0,0,1-3.606,1.237,1,1,0,1,0-.632,1.9,5.148,5.148,0,0,0,5.9-2.025Z" fill="#323232"/>
          <path id="Trazado_1015464" data-name="Trazado 1015464" d="M26,22H24a1,1,0,0,0,0,2h2a1,1,0,0,0,0-2Z" fill="#323232"/>
          <path id="Trazado_1015465" data-name="Trazado 1015465" d="M30,22a1,1,0,0,0,0,2h2a1,1,0,0,0,0-2Z" fill="#323232"/>
          <path id="Trazado_1015466" data-name="Trazado 1015466" d="M8,41a3,3,0,1,0-3,3A3,3,0,0,0,8,41ZM4,41a1,1,0,1,1,1,1A1,1,0,0,1,4,41Z" fill="#323232"/>
          <path id="Trazado_1015467" data-name="Trazado 1015467" d="M59,48a2.941,2.941,0,0,0-1,.178,2.882,2.882,0,0,0-1.347-.156,3.861,3.861,0,0,0-3.006-1,3.973,3.973,0,0,0-5.448.129A5.053,5.053,0,0,0,43.022,49,4.307,4.307,0,0,0,41,49.545,3.958,3.958,0,0,0,39,49a4.006,4.006,0,0,0-3.907,3.14,3.007,3.007,0,0,0-2.011,2.2L29.553,56.1a1.006,1.006,0,0,0-.421.4L27.454,59.44a19.181,19.181,0,0,1-2.169-.676l4.467-5.1a1,1,0,0,0-.358-1.578l-5.126-2.2,7.218-4.01a1,1,0,0,0-.092-1.793L24.73,41.225,22.171,36.1,24.3,33.268,31.553,36.9a1,1,0,0,0,1.247-.3l2.787-3.716,7.656-1.914a1,1,0,1,0-.486-1.94l-8,2a1,1,0,0,0-.557.37l-2.5,3.332-7.254-3.627A1,1,0,0,0,23.2,31.4l-3,4a1,1,0,0,0-.1,1.047l3,6a1,1,0,0,0,.5.472l5.126,2.2-7.218,4.01a1.032,1.032,0,0,0-.228.175,2.929,2.929,0,0,0-2.786.108,2.975,2.975,0,0,0-1.027-.371A4,4,0,0,0,14.9,47.1a4,4,0,0,0-7.8,0,4,4,0,0,0,1.606,7.835,3,3,0,0,0,4.584,0,4.017,4.017,0,0,0,2.329-.279,2.9,2.9,0,0,0,.667.245A20.9,20.9,0,0,0,43.46,58.564a2.96,2.96,0,0,0,3.061.019A4.994,4.994,0,0,0,54.936,55.8,2.959,2.959,0,0,0,56,56a3.006,3.006,0,0,0,2.831-2A3,3,0,0,0,59,48ZM35,57.816a2.948,2.948,0,0,0,3.292-.879A3.993,3.993,0,0,0,41,56.455a4,4,0,0,0,1.139.449c.012.037.03.07.043.106A18.861,18.861,0,0,1,35,59.76Zm-7.659-4.439-3.97,4.538a19.035,19.035,0,0,1-4.435-3.14A2.948,2.948,0,0,0,22.949,51.5ZM15.116,52.66a2.015,2.015,0,0,1-1.885.186,1,1,0,0,0-1.308.538,1,1,0,0,1-1.846,0,1,1,0,0,0-1.308-.54A2,2,0,1,1,8,49a1,1,0,0,0,1-1,2,2,0,0,1,4,0,1,1,0,0,0,1,1,2,2,0,0,1,1.877,1.347A1.1,1.1,0,0,0,17,51a.991.991,0,0,1,.747.348,1.032,1.032,0,0,0,1.506,0,1,1,0,1,1,0,1.3,1.032,1.032,0,0,0-1.506,0,.973.973,0,0,1-1.406.09,1,1,0,0,0-1.225-.082Zm14.417,7.172,1.185-2.073L33,56.618v3.344c-.333.017-.665.038-1,.038a18.9,18.9,0,0,1-2.467-.168Zm28.974-7.975a1.055,1.055,0,0,0-1.015,0,1.023,1.023,0,0,0-.5,1.039A.914.914,0,0,1,57,53a1,1,0,0,1-1,1,.985.985,0,0,1-.865-.516,1.031,1.031,0,0,0-.965-.506,1,1,0,0,0-.679.337,2.014,2.014,0,0,1-.21.2,1,1,0,0,0-.337.942,2.99,2.99,0,0,1-5.466,2.148,1,1,0,0,0-.821-.461h-.022a1,1,0,0,0-.818.425A1,1,0,0,1,44,56a1,1,0,0,0-1-1,1.979,1.979,0,0,1-1.331-.521,1,1,0,0,0-1.338,0,1.973,1.973,0,0,1-2.1.367,1,1,0,0,0-1.308.538A1,1,0,1,1,36,54a1,1,0,0,0,1-1,2,2,0,0,1,2-2,1.979,1.979,0,0,1,1.331.521,1,1,0,0,0,1.338,0A1.979,1.979,0,0,1,43,51a1.912,1.912,0,0,1,.349.038,1,1,0,0,0,1.048-.5,3.036,3.036,0,0,1,3.748-1.314,1,1,0,0,0,1.207-.358,2.046,2.046,0,0,1,3.176-.14,1,1,0,0,0,1,.333,1.917,1.917,0,0,1,2.015.689,1,1,0,0,0,1.116.313.907.907,0,0,1,.834.075,1,1,0,0,0,1.006,0,1,1,0,1,1,.008,1.716Z" fill="#323232"/>
          <path id="Trazado_1015468" data-name="Trazado 1015468" d="M4.475,17.239a1,1,0,0,0-1.414.055,3.98,3.98,0,0,0,.975,6.178A3.882,3.882,0,0,0,4,24a3.946,3.946,0,0,0,.484,1.9,3.967,3.967,0,0,0-.259,5.961,3.031,3.031,0,0,0-.132,1.888,2.979,2.979,0,0,0,2.284,2.184A3.052,3.052,0,0,0,7,36a3,3,0,0,0,2.778-4.137A3.994,3.994,0,0,0,10.872,30a3,3,0,0,0,3.045-3.7,2.985,2.985,0,0,0,1.039-2.811,3.986,3.986,0,0,0,.384-6.718,4,4,0,0,0,1.015-7l.53-.8a1.779,1.779,0,0,0,2.064.763l.656-.283-.188.754A.981.981,0,0,0,19,11V24.547A20.811,20.811,0,0,0,11,41a1,1,0,0,0,2,0,19.089,19.089,0,0,1,.652-4.934l2.2,2.2-.8,2.414A1,1,0,0,0,15,41v2a1,1,0,0,0,2,0V41.162l.949-2.846a1,1,0,0,0-.242-1.023l-3.349-3.349a18.853,18.853,0,0,1,4.672-6.8A.987.987,0,0,0,20,28H38a1,1,0,0,0,1-1V23.377a18.9,18.9,0,0,1,9.328,7.993,3.961,3.961,0,0,0-1.815,1.674A3.036,3.036,0,0,0,43.7,34.083a3,3,0,0,0-2.91,4.943l-3.474,3.243a1,1,0,0,0-.025,1.438l3,3a1,1,0,1,0,1.414-1.414l-2.268-2.268L42.7,39.98c.023,0,.044.009.066.011a2.974,2.974,0,0,0,4.038.4,3.965,3.965,0,0,0,5.848.589,2.97,2.97,0,0,0,2.58-.987,3,3,0,0,0,1.445-5.478,1,1,0,0,0-1.119,1.657A1,1,0,0,1,55.022,38h-.006l-.144-.024a1.011,1.011,0,0,0-1,.506.924.924,0,0,1-1.2.455,1,1,0,0,0-1.116.313,1.975,1.975,0,0,1-3.426-.6,1,1,0,0,0-1.036-.67L47,37.993l-.121-.02a1,1,0,0,0-1,.508,1.015,1.015,0,0,1-1.738,0,1,1,0,0,0-1.01-.509c-.059.008-.118.02-.121.032a1,1,0,1,1,.56-1.829,1,1,0,0,0,1.5-.5,1.017,1.017,0,0,1,1.477-.511,1,1,0,0,0,1.518-.614,1.982,1.982,0,0,1,1.79-1.535h.017c.045,0,.089-.012.135-.012a2,2,0,0,1,1.877,1.347,1,1,0,0,0,1.889-.658,4,4,0,0,0-3.308-2.653,20.913,20.913,0,0,0-13.406-10.4l-2.345-2.345A1,1,0,0,0,34,18H33V11a.972.972,0,0,0-.141-.482l.495-.991A.95.95,0,0,1,34.208,9h.982a.961.961,0,0,1,.675.279l1.574,1.574a2.94,2.94,0,0,0,3.023.714.928.928,0,0,1,.735.06A4.885,4.885,0,0,0,41,13a5,5,0,0,0,5.129,5,4.035,4.035,0,0,0,2.089,2.569A4.865,4.865,0,0,0,48,22a4.97,4.97,0,0,0,5.532,4.967A3.991,3.991,0,0,0,61,25a3.917,3.917,0,0,0-.343-1.606A4.928,4.928,0,0,0,62,20a5,5,0,0,0-2.4-4.253A3.96,3.96,0,0,0,60,14a4.007,4.007,0,0,0-3.41-3.957c-.022-.054-.046-.108-.07-.161A3.924,3.924,0,0,0,57,8a3.987,3.987,0,0,0-6.409-3.18A1,1,0,1,0,51.8,6.414,1.975,1.975,0,0,1,53,6a1.985,1.985,0,0,1,1.568,3.221,1,1,0,0,0-.052,1.158,2.955,2.955,0,0,1,.378.882,1.021,1.021,0,0,0,1.011.752c.054,0,.107-.009.095-.013a2,2,0,0,1,2,2,1.978,1.978,0,0,1-.621,1.44,1,1,0,0,0,.422,1.686,2.977,2.977,0,0,1,.983,5.274,1,1,0,0,0-.2,1.405,1.988,1.988,0,1,1-3.495,1.739,1,1,0,0,0-1.245-.684A2.936,2.936,0,0,1,53,25a3,3,0,0,1-3-3,2.951,2.951,0,0,1,.436-1.529,1,1,0,0,0-.717-1.5A1.993,1.993,0,0,1,48,17.058c0-.03.014-.124.016-.155a1,1,0,0,0-1.255-1.016A2.944,2.944,0,0,1,46,16a3,3,0,0,1-3-3,2.969,2.969,0,0,1,.271-1.229,1,1,0,0,0-.091-.984,2.93,2.93,0,0,0-3.35-1.118.95.95,0,0,1-.977-.23L37.279,7.865A2.933,2.933,0,0,0,35.19,7h-.982a2.938,2.938,0,0,0-2.643,1.633L30.882,10H29.39A4.329,4.329,0,0,1,32.8,4.381l1.933-.322A4.366,4.366,0,0,1,35.441,4H38.8a10.361,10.361,0,0,1,3.812.726,1.006,1.006,0,0,0,1.041-.194,2.019,2.019,0,0,1,2.862.186,1,1,0,0,0,.942.338A3,3,0,0,1,48,5a1,1,0,0,0,0-2,2.866,2.866,0,0,0-.356.015,4.052,4.052,0,0,0-4.839-.349A12.335,12.335,0,0,0,38.8,2H35.441a6.385,6.385,0,0,0-1.041.086l-1.932.322a6.3,6.3,0,0,0-5.081,7.822A.981.981,0,0,0,27,11v7H25V11a.985.985,0,0,0-.507-.851l.139-.554A12.352,12.352,0,0,0,25,6.6a4.02,4.02,0,0,0-3.021-3.881,4.123,4.123,0,0,0-3.3.624l-.451.3a.345.345,0,0,1-.379.048l-1.087-.725a2.216,2.216,0,0,0-1.788-.312,2.39,2.39,0,0,0-1.516,1.2A.278.278,0,0,1,13.211,4h-.445a5.483,5.483,0,0,1-2.441-.689A2.936,2.936,0,0,0,9,3,3,3,0,0,0,6.129,5.129,3,3,0,0,0,4.044,8.513a3.991,3.991,0,0,0-.179,6.862,1,1,0,0,0,1.07-1.69,1.99,1.99,0,0,1,.613-3.627A1,1,0,0,0,6.162,8.54,1,1,0,0,1,7,7,1,1,0,0,0,8,6,1,1,0,0,1,9,5a.963.963,0,0,1,.433.1,7.373,7.373,0,0,0,3.333.9h.445a2.273,2.273,0,0,0,2.006-1.2.386.386,0,0,1,.239-.2.225.225,0,0,1,.193.035l1.088.725a2.307,2.307,0,0,0,2.6-.048l.452-.3A2.13,2.13,0,0,1,21.48,4.66,2.019,2.019,0,0,1,23,6.605a10.327,10.327,0,0,1-.309,2.5l-.222.89h-.938l.058-.232a1.833,1.833,0,0,0-.53-1.792,1.954,1.954,0,0,0-1.971-.393l-.585.2a1.863,1.863,0,0,0-3.16-.1L14.4,9.094a1.838,1.838,0,0,0-.28,1.233,1,1,0,0,0,.621.82A2,2,0,0,1,14,15a1,1,0,0,0-1,1,2,2,0,0,1-.148.744,1,1,0,0,0,.667,1.337,1.988,1.988,0,0,1-.067,3.861,1,1,0,0,0-.614,1.518A.976.976,0,0,1,13,24a1,1,0,0,1-.673.937,1,1,0,0,0-.5,1.5,1,1,0,0,1-.578,1.526.964.964,0,0,1-.764-.116,1,1,0,0,0-1.513.955L9,29a2,2,0,0,1-1.043,1.741,1,1,0,0,0-.238,1.569,1,1,0,1,1-1.438,0,1,1,0,0,0-.238-1.569,1.98,1.98,0,0,1,.27-3.609,1,1,0,0,0,.334-1.672A1.971,1.971,0,0,1,6,24a2,2,0,0,1,.148-.744,1,1,0,0,0-.667-1.337A2,2,0,0,1,4,20a1.976,1.976,0,0,1,.53-1.347A1,1,0,0,0,4.475,17.239ZM23,12v2H21V12ZM37,23.414V26H21V20H33.586ZM29,12h2v2H29Zm0,4h2v2H29Zm-8,2V16h2v2Z" fill="#323232"/>
        </g>
      </g>
    </g>
  </g>
</svg>
