<svg xmlns="http://www.w3.org/2000/svg" xmlns:xlink="http://www.w3.org/1999/xlink" width="108" height="108" viewBox="0 0 108 108">
  <defs>
    <filter id="Fondo" x="0" y="0" width="108" height="108" filterUnits="userSpaceOnUse">
      <feOffset dy="3" input="SourceAlpha"/>
      <feGaussianBlur stdDeviation="3" result="blur"/>
      <feFlood flood-opacity="0.161"/>
      <feComposite operator="in" in2="blur"/>
      <feComposite in="SourceGraphic"/>
    </filter>
  </defs>
  <g id="Grupo_1168101" data-name="Grupo 1168101" transform="translate(-197.228 -9293)">
    <g id="Grupo_1163212" data-name="Grupo 1163212" transform="translate(206.228 9299)">
      <g id="Grupo_1158163" data-name="Grupo 1158163">
        <g transform="matrix(1, 0, 0, 1, -9, -6)" filter="url(#Fondo)">
          <g id="Fondo-2" data-name="Fondo" transform="translate(9 6)" fill="#fefcf6">
            <path d="M 45 88.5 C 39.12687683105469 88.5 33.43022537231445 87.35007476806641 28.06830024719238 85.08217620849609 C 22.88852500915527 82.89131164550781 18.23629951477051 79.75458526611328 14.2408504486084 75.75914764404297 C 10.24541282653809 71.76370239257812 7.108687400817871 67.11147308349609 4.917825222015381 61.93170166015625 C 2.649924993515015 56.56977462768555 1.5 50.87312316894531 1.5 45 C 1.5 39.12687683105469 2.649924993515015 33.43022537231445 4.917825222015381 28.06830024719238 C 7.108687400817871 22.88852500915527 10.24541282653809 18.23629951477051 14.2408504486084 14.2408504486084 C 18.23629951477051 10.24541282653809 22.88852500915527 7.108687400817871 28.06830024719238 4.917825222015381 C 33.43022537231445 2.649924993515015 39.12687683105469 1.5 45 1.5 C 50.87312316894531 1.5 56.56977462768555 2.649924993515015 61.93170166015625 4.917825222015381 C 67.11147308349609 7.108687400817871 71.76370239257812 10.24541282653809 75.75914764404297 14.2408504486084 C 79.75458526611328 18.23629951477051 82.89131164550781 22.88852500915527 85.08217620849609 28.06830024719238 C 87.35007476806641 33.43022537231445 88.5 39.12687683105469 88.5 45 C 88.5 50.87312316894531 87.35007476806641 56.56977462768555 85.08217620849609 61.93170166015625 C 82.89131164550781 67.11147308349609 79.75458526611328 71.76370239257812 75.75914764404297 75.75914764404297 C 71.76370239257812 79.75458526611328 67.11147308349609 82.89131164550781 61.93170166015625 85.08217620849609 C 56.56977462768555 87.35007476806641 50.87312316894531 88.5 45 88.5 Z" stroke="none"/>
            <path d="M 45 3 C 39.32871246337891 3 33.82865524291992 4.110054016113281 28.65262985229492 6.299339294433594 C 23.65165710449219 8.414573669433594 19.15968322753906 11.44334411621094 15.301513671875 15.301513671875 C 11.44334411621094 19.15968322753906 8.414573669433594 23.65165710449219 6.299339294433594 28.65262985229492 C 4.110054016113281 33.82865524291992 3 39.32871246337891 3 45 C 3 50.67128753662109 4.110054016113281 56.17134475708008 6.299339294433594 61.34737396240234 C 8.414573669433594 66.34834289550781 11.44334411621094 70.84031677246094 15.301513671875 74.698486328125 C 19.15968322753906 78.55665588378906 23.65165710449219 81.58542633056641 28.65262985229492 83.70066070556641 C 33.82865524291992 85.88994598388672 39.32871246337891 87 45 87 C 50.67128753662109 87 56.17134475708008 85.88994598388672 61.34737396240234 83.70066070556641 C 66.34834289550781 81.58542633056641 70.84031677246094 78.55665588378906 74.698486328125 74.698486328125 C 78.55665588378906 70.84031677246094 81.58542633056641 66.34834289550781 83.70066070556641 61.34737396240234 C 85.88994598388672 56.17134475708008 87 50.67128753662109 87 45 C 87 39.32871246337891 85.88994598388672 33.82865524291992 83.70066070556641 28.65262985229492 C 81.58542633056641 23.65165710449219 78.55665588378906 19.15968322753906 74.698486328125 15.301513671875 C 70.84031677246094 11.44334411621094 66.34834289550781 8.414573669433594 61.34737396240234 6.299339294433594 C 56.17134475708008 4.110054016113281 50.67128753662109 3 45 3 M 45 0 C 69.85281372070312 0 90 20.14718627929688 90 45 C 90 69.85281372070312 69.85281372070312 90 45 90 C 20.14718627929688 90 0 69.85281372070312 0 45 C 0 20.14718627929688 20.14718627929688 0 45 0 Z" stroke="none" fill="#86815c"/>
          </g>
        </g>
      </g>
    </g>
    <g id="basura" transform="translate(225.228 9318)">
      <g id="Grupo_1168099" data-name="Grupo 1168099" transform="translate(0.971 0.842)">
        <g id="Grupo_1168087" data-name="Grupo 1168087" transform="translate(30.302)">
          <path id="Trazado_1015469" data-name="Trazado 1015469" d="M40.52,1.842V4.367H37.153V1.842A.844.844,0,0,1,37.995,1h1.683A.844.844,0,0,1,40.52,1.842Z" transform="translate(-37.153 -1)" fill="#ccd1d9"/>
        </g>
        <g id="Grupo_1168088" data-name="Grupo 1168088" transform="translate(26.935 3.367)">
          <path id="Trazado_1015470" data-name="Trazado 1015470" d="M43.254,6.683v5.05H33.995l-.842-1.683V6.683A1.688,1.688,0,0,1,34.836,5H41.57A1.688,1.688,0,0,1,43.254,6.683Z" transform="translate(-33.153 -5)" fill="#e6e9ed"/>
        </g>
        <g id="Grupo_1168089" data-name="Grupo 1168089" transform="translate(10.942 1.683)">
          <path id="Trazado_1015471" data-name="Trazado 1015471" d="M21.728,3,24.8,7.6,22.57,8.05l-1.683,3.367H16.678L14.153,7.209Z" transform="translate(-14.153 -3)" fill="#fcd770"/>
        </g>
        <g id="Grupo_1168090" data-name="Grupo 1168090" transform="translate(11.784 5.892)">
          <path id="Trazado_1015472" data-name="Trazado 1015472" d="M31.146,12.209H40.4l1.683,3.367H15.153l1.683-3.367h4.209l1.683-3.367L24.959,8.4,26.937,8l.842,1.683,2.525.842Z" transform="translate(-15.153 -8)" fill="#dfb28b"/>
        </g>
        <g id="Grupo_1168091" data-name="Grupo 1168091" transform="translate(0 37.036)">
          <path id="Trazado_1015473" data-name="Trazado 1015473" d="M28.93,46.683,32.3,50.05h2.525l3.367-3.367h2.525L43.239,45l3.367,1.683,1.683,5.05,2.525,1.683.842,3.367H44.922V50.892a.844.844,0,0,0-.842-.842H39.03a.844.844,0,0,0-.842.842v5.892H17.9a5.859,5.859,0,0,0,1.768-4.209v-.842H7.887v.842a5.859,5.859,0,0,0,1.768,4.209h-8.5l.842-5.892,3.367-1.683,1.683-3.367L11.254,45l3.367,3.367h3.367L21.354,45l5.05,2.525Z" transform="translate(-1.153 -45)" fill="#cf9e76"/>
        </g>
        <g id="Grupo_1168092" data-name="Grupo 1168092" transform="translate(11.784 16.834)">
          <path id="Trazado_1015474" data-name="Trazado 1015474" d="M42.088,22.683l-1.566,20.2H40.4l-3.367,3.367V36.993a.844.844,0,0,0-.842-.842H29.462a.844.844,0,0,0-.842.842v6.734L23.57,41.2,20.2,44.568H16.836L16.012,33.9l-.859-11.22h6.734A1.7,1.7,0,0,1,23.57,21h10.1a1.688,1.688,0,0,1,1.683,1.683Z" transform="translate(-15.153 -21)" fill="#b4dd7f"/>
        </g>
        <g id="Grupo_1168093" data-name="Grupo 1168093" transform="translate(10.101 13.467)">
          <path id="Trazado_1015475" data-name="Trazado 1015475" d="M43.455,17.842v3.367a.844.844,0,0,1-.842.842H35.038a1.688,1.688,0,0,0-1.683-1.683h-10.1A1.7,1.7,0,0,0,21.57,22.05H13.995a.844.844,0,0,1-.842-.842V17.842A.844.844,0,0,1,13.995,17H42.613A.844.844,0,0,1,43.455,17.842Z" transform="translate(-13.153 -17)" fill="#a0d468"/>
        </g>
        <g id="Grupo_1168094" data-name="Grupo 1168094" transform="translate(8.417 29.738)">
          <path id="Trazado_1015476" data-name="Trazado 1015476" d="M15.378,36.33,16.2,46.995l-3.367-3.367-1.683-5.892Z" transform="translate(-11.153 -36.33)" fill="#fcd770"/>
        </g>
        <g id="Grupo_1168095" data-name="Grupo 1168095" transform="translate(25.252 31.985)">
          <path id="Trazado_1015477" data-name="Trazado 1015477" d="M31.153,46.575V39.842A.844.844,0,0,1,31.995,39h6.734a.844.844,0,0,1,.842.842V49.1H37.045l-3.367-3.367Z" transform="translate(-31.153 -39)" fill="#fcd770"/>
        </g>
        <g id="Grupo_1168096" data-name="Grupo 1168096" transform="translate(37.036 42.928)">
          <path id="Trazado_1015478" data-name="Trazado 1015478" d="M47.678,54.525h1.683A2.522,2.522,0,0,0,51.887,52v5.892H45.153V52A2.522,2.522,0,0,0,47.678,54.525Z" transform="translate(-45.153 -52)" fill="#ffeaa7"/>
        </g>
        <g id="Grupo_1168097" data-name="Grupo 1168097" transform="translate(37.036 42.086)">
          <path id="Trazado_1015479" data-name="Trazado 1015479" d="M51.887,51.842a2.522,2.522,0,0,1-2.525,2.525H47.678a2.522,2.522,0,0,1-2.525-2.525A.844.844,0,0,1,45.995,51h5.05A.844.844,0,0,1,51.887,51.842Z" transform="translate(-45.153 -51)" fill="#fcd770"/>
        </g>
        <g id="Grupo_1168098" data-name="Grupo 1168098" transform="translate(6.734 43.769)">
          <path id="Trazado_1015480" data-name="Trazado 1015480" d="M20.937,53v.842a5.892,5.892,0,1,1-11.784,0V53Z" transform="translate(-9.153 -53)" fill="#ff826e"/>
        </g>
      </g>
      <g id="Grupo_1168100" data-name="Grupo 1168100" transform="translate(0)">
        <path id="Trazado_1015481" data-name="Trazado 1015481" d="M18.035,50.5H52.553L51.37,45.775l-2.555-1.7-1.7-5.107L43,36.907l-2.72,1.812H39.036L40.47,20.2h.062a1.685,1.685,0,0,0,1.683-1.683V15.151a1.685,1.685,0,0,0-1.683-1.683h-.322l-1.362-2.724V5.892a2.528,2.528,0,0,0-2.525-2.525h-.842V1.683A1.685,1.685,0,0,0,33.8,0H32.115a1.685,1.685,0,0,0-1.683,1.683V3.367H29.59a2.528,2.528,0,0,0-2.525,2.525v2.2l-1.087-.362L25,5.783l-2.058.412L19.758,1.412,10.743,6.421l2.736,4.559-1.244,2.488h-.322a1.685,1.685,0,0,0-1.683,1.683v3.367A1.685,1.685,0,0,0,11.913,20.2h.062l.752,9.784L8.357,31.442l1.654,5.788-3.717.743L4.552,41.459,1.041,43.214,0,50.5H9.158a6.694,6.694,0,0,0,8.878,0Zm-7.076-.752L13.6,46.059l2.637,3.693a5,5,0,0,1-5.274,0Zm6.549-1.11-2.277-3.188h3.415a5.026,5.026,0,0,1-1.138,3.188ZM8.546,45.453h3.415L9.684,48.641A5.026,5.026,0,0,1,8.546,45.453Zm30.3,1.215a3.332,3.332,0,0,0,1.683.468h1.683a3.332,3.332,0,0,0,1.683-.468V48.82h-5.05Zm0-2.9H43.9a1.685,1.685,0,0,1-1.683,1.683H40.531A1.686,1.686,0,0,1,38.848,43.769ZM28.747,8.417h8.417V10.1h-7.9l-.52-1.04Zm3.367-6.734H33.8V3.367H32.114ZM29.589,5.05h6.734a.842.842,0,0,1,.842.842v.842H28.747V5.892A.843.843,0,0,1,29.589,5.05ZM19.219,3.638l1.942,2.913-1.4.279L18.126,10.1H14.915L13.083,7.047Zm-4.261,8.146h4.209L20.9,8.32l3.174-.635.71,1.42,2.525.842.918,1.837h9.259l.842,1.683H14.116Zm-3.045,3.367H40.531v3.367H33.654a2.53,2.53,0,0,0-2.381-1.683h-10.1a2.53,2.53,0,0,0-2.381,1.683H11.913ZM20.33,20.2V19.36a.842.842,0,0,1,.842-.842h10.1a.842.842,0,0,1,.842.842V20.2H38.78l-1.46,18.854-1.84,1.84V33.669A1.685,1.685,0,0,0,33.8,31.985H27.064a1.685,1.685,0,0,0-1.683,1.683V39.04l-4.374-2.187-3.55,3.55H15.217L13.664,20.2ZM33.8,42.086H32.463L28.974,38.6l-1.912.637V33.669H33.8v8.417ZM12.861,31.715l.563,7.325-1.6-1.6-1.4-4.907ZM2.583,44.325l3.223-1.612,1.625-3.249,3.363-.673,3.3,3.294h6.734l1.437,1.437,1.19-1.19L21.52,40.4H19.837l1.5-1.5,4.82,2.41,2.363-.788,3.246,3.246h3.222L38.355,40.4h2.432l2.332-1.554,2.618,1.309L47.4,45.151,49.9,46.815l.5,2H45.582v-5.05A1.685,1.685,0,0,0,43.9,42.086h-5.05a1.685,1.685,0,0,0-1.683,1.683v5.05H19.419a6.683,6.683,0,0,0,.911-3.367V43.769H6.863v1.683a6.683,6.683,0,0,0,.911,3.367H1.942Z" transform="translate(0)"/>
        <path id="Trazado_1015482" data-name="Trazado 1015482" d="M4.153,54H5.836v1.683H4.153Z" transform="translate(-0.657 -8.547)"/>
        <path id="Trazado_1015483" data-name="Trazado 1015483" d="M10.153,48h1.683v1.683H10.153Z" transform="translate(-1.607 -7.598)"/>
        <path id="Trazado_1015484" data-name="Trazado 1015484" d="M28.153,54h1.683v1.683H28.153Z" transform="translate(-4.456 -8.547)"/>
        <path id="Trazado_1015485" data-name="Trazado 1015485" d="M32.153,50h1.683v1.683H32.153Z" transform="translate(-5.089 -7.914)"/>
        <path id="Trazado_1015486" data-name="Trazado 1015486" d="M38.153,54h1.683v1.683H38.153Z" transform="translate(-6.039 -8.547)"/>
        <path id="Trazado_1015487" data-name="Trazado 1015487" d="M.153,33.518H1.836a1.683,1.683,0,0,1,.623-1.288A3.324,3.324,0,0,0,3.52,29.812a3.33,3.33,0,0,0-1.061-2.42,1.638,1.638,0,0,1,0-2.571A3.325,3.325,0,0,0,3.52,22.4a3.318,3.318,0,0,0-1.061-2.417,1.635,1.635,0,0,1,0-2.567A3.323,3.323,0,0,0,3.52,15H1.836a1.676,1.676,0,0,1-.622,1.284,3.282,3.282,0,0,0,0,4.833,1.637,1.637,0,0,1,0,2.569,3.287,3.287,0,0,0,0,4.837,1.683,1.683,0,0,1,.623,1.288A1.678,1.678,0,0,1,1.214,31.1,3.337,3.337,0,0,0,.153,33.518Z" transform="translate(-0.024 -2.374)"/>
        <path id="Trazado_1015488" data-name="Trazado 1015488" d="M6.153,24.518H7.836a1.683,1.683,0,0,1,.623-1.288,3.289,3.289,0,0,0,0-4.838,1.638,1.638,0,0,1,0-2.571,3.284,3.284,0,0,0,0-4.835,1.635,1.635,0,0,1,0-2.567A3.323,3.323,0,0,0,9.52,6H7.836a1.676,1.676,0,0,1-.622,1.284,3.282,3.282,0,0,0,0,4.833,1.637,1.637,0,0,1,0,2.569,3.287,3.287,0,0,0,0,4.837,1.641,1.641,0,0,1,0,2.574A3.337,3.337,0,0,0,6.153,24.518Z" transform="translate(-0.974 -0.95)"/>
        <path id="Trazado_1015489" data-name="Trazado 1015489" d="M58.153,29.812a3.324,3.324,0,0,0,1.061,2.418,1.683,1.683,0,0,1,.623,1.288H61.52a3.33,3.33,0,0,0-1.061-2.42,1.641,1.641,0,0,1,0-2.574,3.287,3.287,0,0,0,0-4.837,1.637,1.637,0,0,1,0-2.569,3.282,3.282,0,0,0,0-4.833A1.677,1.677,0,0,1,59.836,15H58.153a3.318,3.318,0,0,0,1.061,2.417,1.635,1.635,0,0,1,0,2.567,3.284,3.284,0,0,0,0,4.835,1.638,1.638,0,0,1,0,2.571A3.328,3.328,0,0,0,58.153,29.812Z" transform="translate(-9.205 -2.375)"/>
        <path id="Trazado_1015490" data-name="Trazado 1015490" d="M52.153,20.812a3.324,3.324,0,0,0,1.061,2.418,1.683,1.683,0,0,1,.623,1.288H55.52a3.33,3.33,0,0,0-1.061-2.42,1.641,1.641,0,0,1,0-2.574,3.287,3.287,0,0,0,0-4.837,1.637,1.637,0,0,1,0-2.569,3.282,3.282,0,0,0,0-4.833A1.685,1.685,0,0,1,53.836,6H52.153a3.318,3.318,0,0,0,1.061,2.417,1.635,1.635,0,0,1,0,2.567,3.284,3.284,0,0,0,0,4.835,1.638,1.638,0,0,1,0,2.571A3.336,3.336,0,0,0,52.153,20.812Z" transform="translate(-8.255 -0.95)"/>
        <path id="Trazado_1015491" data-name="Trazado 1015491" d="M26.153,12h1.683v1.683H26.153Z" transform="translate(-4.14 -1.899)"/>
      </g>
    </g>
  </g>
</svg>
