<svg xmlns="http://www.w3.org/2000/svg" xmlns:xlink="http://www.w3.org/1999/xlink" width="108" height="108" viewBox="0 0 108 108">
  <defs>
    <filter id="Fondo" x="0" y="0" width="108" height="108" filterUnits="userSpaceOnUse">
      <feOffset dy="3" input="SourceAlpha"/>
      <feGaussianBlur stdDeviation="3" result="blur"/>
      <feFlood flood-opacity="0.161"/>
      <feComposite operator="in" in2="blur"/>
      <feComposite in="SourceGraphic"/>
    </filter>
  </defs>
  <g id="Grupo_1168596" data-name="Grupo 1168596" transform="translate(-186.864 -270)">
    <g id="Grupo_1167484" data-name="Grupo 1167484" transform="translate(32.635 -4617)">
      <g id="Grupo_1158161" data-name="Grupo 1158161" transform="translate(-42.458 3701)">
        <g transform="matrix(1, 0, 0, 1, 196.69, 1186)" filter="url(#Fondo)">
          <g id="Fondo-2" data-name="Fondo" transform="translate(9 6)" fill="#fefcf6">
            <path d="M 45 88.5 C 39.12687683105469 88.5 33.43022537231445 87.35007476806641 28.06830024719238 85.08217620849609 C 22.88852500915527 82.89131164550781 18.23629951477051 79.75458526611328 14.2408504486084 75.75914764404297 C 10.24541282653809 71.76370239257812 7.108687400817871 67.11147308349609 4.917825222015381 61.93170166015625 C 2.649924993515015 56.56977462768555 1.5 50.87312316894531 1.5 45 C 1.5 39.12687683105469 2.649924993515015 33.43022537231445 4.917825222015381 28.06830024719238 C 7.108687400817871 22.88852500915527 10.24541282653809 18.23629951477051 14.2408504486084 14.2408504486084 C 18.23629951477051 10.24541282653809 22.88852500915527 7.108687400817871 28.06830024719238 4.917825222015381 C 33.43022537231445 2.649924993515015 39.12687683105469 1.5 45 1.5 C 50.87312316894531 1.5 56.56977462768555 2.649924993515015 61.93170166015625 4.917825222015381 C 67.11147308349609 7.108687400817871 71.76370239257812 10.24541282653809 75.75914764404297 14.2408504486084 C 79.75458526611328 18.23629951477051 82.89131164550781 22.88852500915527 85.08217620849609 28.06830024719238 C 87.35007476806641 33.43022537231445 88.5 39.12687683105469 88.5 45 C 88.5 50.87312316894531 87.35007476806641 56.56977462768555 85.08217620849609 61.93170166015625 C 82.89131164550781 67.11147308349609 79.75458526611328 71.76370239257812 75.75914764404297 75.75914764404297 C 71.76370239257812 79.75458526611328 67.11147308349609 82.89131164550781 61.93170166015625 85.08217620849609 C 56.56977462768555 87.35007476806641 50.87312316894531 88.5 45 88.5 Z" stroke="none"/>
            <path d="M 45 3 C 39.32871246337891 3 33.82865524291992 4.110054016113281 28.65262985229492 6.299339294433594 C 23.65165710449219 8.414573669433594 19.15968322753906 11.44334411621094 15.301513671875 15.301513671875 C 11.44334411621094 19.15968322753906 8.414573669433594 23.65165710449219 6.299339294433594 28.65262985229492 C 4.110054016113281 33.82865524291992 3 39.32871246337891 3 45 C 3 50.67128753662109 4.110054016113281 56.17134475708008 6.299339294433594 61.34737396240234 C 8.414573669433594 66.34834289550781 11.44334411621094 70.84031677246094 15.301513671875 74.698486328125 C 19.15968322753906 78.55665588378906 23.65165710449219 81.58542633056641 28.65262985229492 83.70066070556641 C 33.82865524291992 85.88994598388672 39.32871246337891 87 45 87 C 50.67128753662109 87 56.17134475708008 85.88994598388672 61.34737396240234 83.70066070556641 C 66.34834289550781 81.58542633056641 70.84031677246094 78.55665588378906 74.698486328125 74.698486328125 C 78.55665588378906 70.84031677246094 81.58542633056641 66.34834289550781 83.70066070556641 61.34737396240234 C 85.88994598388672 56.17134475708008 87 50.67128753662109 87 45 C 87 39.32871246337891 85.88994598388672 33.82865524291992 83.70066070556641 28.65262985229492 C 81.58542633056641 23.65165710449219 78.55665588378906 19.15968322753906 74.698486328125 15.301513671875 C 70.84031677246094 11.44334411621094 66.34834289550781 8.414573669433594 61.34737396240234 6.299339294433594 C 56.17134475708008 4.110054016113281 50.67128753662109 3 45 3 M 45 0 C 69.85281372070312 0 90 20.14718627929688 90 45 C 90 69.85281372070312 69.85281372070312 90 45 90 C 20.14718627929688 90 0 69.85281372070312 0 45 C 0 20.14718627929688 20.14718627929688 0 45 0 Z" stroke="none" fill="#86815c"/>
          </g>
        </g>
      </g>
    </g>
    <g id="nutricionista_1_" data-name="nutricionista (1)" transform="translate(166.362 289.999)">
      <path id="Trazado_1016141" data-name="Trazado 1016141" d="M93.341,27.348c0,1.093-1.776,2.036-1.934,3.079-.164,1.077,1.245,2.508.927,3.517-.327,1.036-2.305,1.394-2.781,2.342-.487.969.4,2.771-.223,3.63-.638.875-2.623.575-3.388,1.316s-.546,2.748-1.434,3.341-2.643-.384-3.632.032-1.512,2.353-2.572,2.567c-1.037.21-2.275-1.366-3.367-1.366s-2.33,1.576-3.367,1.366c-1.06-.215-1.588-2.153-2.572-2.567s-2.739.565-3.633-.032-.659-2.59-1.434-3.341-2.75-.441-3.388-1.316c-.626-.858.263-2.66-.223-3.63-.476-.948-2.454-1.305-2.781-2.342-.319-1.009,1.09-2.44.927-3.517-.158-1.043-1.934-1.987-1.934-3.079s1.776-2.036,1.934-3.079c.164-1.077-1.245-2.508-.927-3.517.327-1.036,2.305-1.394,2.781-2.342.487-.969-.4-2.771.223-3.63.638-.875,2.623-.575,3.388-1.316s.546-2.748,1.434-3.341,2.643.384,3.633-.032,1.512-2.353,2.572-2.567c1.037-.21,2.275,1.366,3.367,1.366s2.33-1.576,3.367-1.366c1.06.215,1.588,2.153,2.572,2.567s2.739-.565,3.633.032.659,2.59,1.434,3.341,2.75.441,3.388,1.316c.626.858-.263,2.66.223,3.63.476.948,2.454,1.305,2.781,2.342.319,1.009-1.09,2.44-.927,3.517.158,1.043,1.934,1.987,1.934,3.079Z" transform="translate(-7.053 -6.591)" fill="#704444"/>
      <path id="Trazado_1016142" data-name="Trazado 1016142" d="M97.061,133.515l-.112-1.76H95.612a2.332,2.332,0,0,0-2.332,2.332,4.582,4.582,0,0,0,4.582,4.582h.088l.488-6.533Z" transform="translate(-39.332 -115.73)" fill="#ca6e59"/>
      <path id="Trazado_1016143" data-name="Trazado 1016143" d="M138.467,266.536H151.9s1.977-11.369,1.837-11.409l-1-.286a2.816,2.816,0,0,1-2.042-2.707v-3.256H139.674v3.255a2.815,2.815,0,0,1-2.042,2.707l-1,.286C136.494,255.167,138.467,266.536,138.467,266.536Z" transform="translate(-77.405 -218.609)" fill="#bb5d4c"/>
      <path id="Trazado_1016144" data-name="Trazado 1016144" d="M158.213,334.115A5.422,5.422,0,0,1,153,338.047h-5.253a5.422,5.422,0,0,1-5.213-3.932l4.482,15.685v5.037h6.715V349.8Z" transform="translate(-82.596 -293.479)" fill="#fed402"/>
      <path id="Trazado_1016145" data-name="Trazado 1016145" d="M175.4,484.5l.483,2.432H182.6l.483-2.432Z" transform="translate(-111.464 -425.573)" fill="#fac600"/>
      <path id="Trazado_1016146" data-name="Trazado 1016146" d="M65.814,300.253l-.828.236-1.278.365A10.626,10.626,0,0,0,56,311.072v13.9a.122.122,0,0,0,.122.122H71.007v-5.037Z" transform="translate(-6.587 -263.735)" fill="#dff6fd"/>
      <path id="Trazado_1016147" data-name="Trazado 1016147" d="M239.8,300.253l.828.236,1.278.365a10.626,10.626,0,0,1,7.707,10.217v13.9a.122.122,0,0,1-.122.122H234.6v-5.037Z" transform="translate(-163.468 -263.735)" fill="#dff6fd"/>
      <path id="Trazado_1016148" data-name="Trazado 1016148" d="M118.75,318.808l-8.4-11.753,1.679-1.679-1.679-2.015,3.2-4.476a.128.128,0,0,1,.228.043Z" transform="translate(-54.33 -262.486)" fill="#f2fbff"/>
      <path id="Trazado_1016149" data-name="Trazado 1016149" d="M234.593,318.808l8.4-11.753-1.679-1.679,1.678-2.015-3.2-4.476a.128.128,0,0,0-.228.043Z" transform="translate(-163.458 -262.486)" fill="#f2fbff"/>
      <path id="Trazado_1016150" data-name="Trazado 1016150" d="M55.99,484.5v2.311a.122.122,0,0,0,.122.122H71V484.5Z" transform="translate(-6.577 -425.572)" fill="#c8effe"/>
      <path id="Trazado_1016151" data-name="Trazado 1016151" d="M241.883,303.534l-.807-.231a10.623,10.623,0,0,1,3.649,8.015v6.554a7.468,7.468,0,0,1-7.468,7.468h-2.675v2.433h14.887a.122.122,0,0,0,.122-.122v-13.9A10.626,10.626,0,0,0,241.883,303.534Z" transform="translate(-163.448 -266.414)" fill="#c8effe"/>
      <circle id="Elipse_11901" data-name="Elipse 11901" cx="1.679" cy="1.679" r="1.679" transform="translate(76.971 51.285)" fill="#91b9de"/>
      <path id="Trazado_1016152" data-name="Trazado 1016152" d="M278.046,131.755H280.9a2.332,2.332,0,0,1,2.332,2.332,4.582,4.582,0,0,1-4.582,4.582h-.088Z" transform="translate(-201.626 -115.73)" fill="#bb5d4c"/>
      <path id="Trazado_1016153" data-name="Trazado 1016153" d="M290.693,419.616h16.69a.133.133,0,0,0,.128-.1l3.282-11.487a.133.133,0,0,0-.128-.17H294.051Z" transform="translate(-212.735 -358.257)" fill="#fd6930"/>
      <path id="Trazado_1016154" data-name="Trazado 1016154" d="M310.665,407.862h-5.383l-1.522,5.326a5.508,5.508,0,0,1-5.3,3.995h-7.076l-.695,2.433h16.69a.133.133,0,0,0,.128-.1l3.282-11.487A.133.133,0,0,0,310.665,407.862Z" transform="translate(-212.735 -358.256)" fill="#fd5426"/>
      <path id="Trazado_1016155" data-name="Trazado 1016155" d="M360.683,394.059h6.54a.133.133,0,0,1,.128.17l-.883,3.092a.133.133,0,0,1-.128.1h-6.616Z" transform="translate(-273.37 -346.132)" fill="#b4d2e2"/>
      <path id="Trazado_1016156" data-name="Trazado 1016156" d="M63.558,443.868A7.556,7.556,0,0,1,56,436.313v-.84H71.113v.84A7.556,7.556,0,0,1,63.558,443.868Z" transform="translate(-6.588 -382.509)" fill="#05e39c"/>
      <path id="Trazado_1016157" data-name="Trazado 1016157" d="M72.464,484.5a7.536,7.536,0,0,0,5.549,2.433h.009a7.536,7.536,0,0,0,5.549-2.433Z" transform="translate(-21.048 -425.572)" fill="#0ed290"/>
      <path id="Trazado_1016158" data-name="Trazado 1016158" d="M83.613,435.473v.84a4.2,4.2,0,0,0,8.4,0v-.84Z" transform="translate(-30.841 -382.509)" fill="#fd4755"/>
      <path id="Trazado_1016159" data-name="Trazado 1016159" d="M141.6,94.069A12.307,12.307,0,0,1,134.777,92l-4.287-2.858a1.728,1.728,0,0,0-2.687,1.438,4.365,4.365,0,0,1-1.278,3.086l-2.161,2.161.323,5.066a9.746,9.746,0,0,0,19.452,0l.436-6.825H141.6Z" transform="translate(-66.636 -78.045)" fill="#d78878"/>
      <path id="Trazado_1016160" data-name="Trazado 1016160" d="M166.4,130.415a12.3,12.3,0,0,1-2.129-.186,2.8,2.8,0,0,1,.047.719l-.246,3.86a9.753,9.753,0,0,1-11.477,8.968,9.746,9.746,0,0,0,16.342-6.536l.436-6.825Z" transform="translate(-91.432 -114.39)" fill="#ca6e59"/>
      <path id="Trazado_1016161" data-name="Trazado 1016161" d="M360.683,394.059h6.54a.133.133,0,0,1,.128.17l-.883,3.092a.133.133,0,0,1-.128.1h-6.616Z" transform="translate(-273.37 -346.132)" fill="#b4d2e2"/>
      <path id="Trazado_1016162" data-name="Trazado 1016162" d="M193.3,157.147h.233a2.411,2.411,0,0,0,2.408-2.408v-1.961a.912.912,0,1,0-1.824,0v1.961a.584.584,0,0,1-.584.584H193.3a.912.912,0,0,0,0,1.824Z" transform="translate(-126.385 -133.395)"/>
      <path id="Trazado_1016163" data-name="Trazado 1016163" d="M178.886,206.665a.912.912,0,1,0-1.29-1.29,4.13,4.13,0,0,1-5.834,0,.912.912,0,1,0-1.29,1.29A5.956,5.956,0,0,0,178.886,206.665Z" transform="translate(-106.902 -180.161)"/>
      <path id="Trazado_1016164" data-name="Trazado 1016164" d="M98.764,49.109a1.051,1.051,0,0,0-.834-.415H94.759l.1-.346a1.045,1.045,0,0,0-1-1.333h-6.54a.908.908,0,0,0-.262.038,11.612,11.612,0,0,0-.135-1.5.912.912,0,0,0-1.8.282,9.772,9.772,0,0,1,.117,1.5v1.357H81.316a.912.912,0,0,0-.877.662l-.405,1.419a2.582,2.582,0,0,0-.472-.236V46.1l.712-1a.912.912,0,0,0-.1-1.175l-.615-.615V42.263l.669-.8a.912.912,0,0,0,.041-1.114l-1.557-2.179A9.705,9.705,0,0,1,83.7,42.1a.912.912,0,1,0,1.537-.983,11.529,11.529,0,0,0-6.093-4.737,2.952,2.952,0,0,1,.378-1.089,3.221,3.221,0,0,1,1.156-.344,3.456,3.456,0,0,0,2.334-1.09,3.429,3.429,0,0,0,.32-2.518,3.215,3.215,0,0,1-.019-1.24,3.2,3.2,0,0,1,.979-.7,3.478,3.478,0,0,0,1.857-1.781,3.432,3.432,0,0,0-.487-2.475,3.2,3.2,0,0,1-.407-1.179,3.194,3.194,0,0,1,.716-.954A3.5,3.5,0,0,0,87.2,20.757a3.5,3.5,0,0,0-1.229-2.263,3.194,3.194,0,0,1-.716-.954,3.2,3.2,0,0,1,.407-1.179,3.432,3.432,0,0,0,.487-2.475,3.477,3.477,0,0,0-1.857-1.781,3.2,3.2,0,0,1-.979-.7,3.214,3.214,0,0,1,.019-1.24,3.429,3.429,0,0,0-.32-2.518,3.456,3.456,0,0,0-2.334-1.09,3.223,3.223,0,0,1-1.156-.344,3.237,3.237,0,0,1-.395-1.165,3.417,3.417,0,0,0-1.167-2.279,3.418,3.418,0,0,0-2.57-.2,3.25,3.25,0,0,1-1.215.087,3.259,3.259,0,0,1-.782-.921,3.416,3.416,0,0,0-1.963-1.7A3.378,3.378,0,0,0,69,.831a3.2,3.2,0,0,1-1.116.556A3.2,3.2,0,0,1,66.768.831,3.377,3.377,0,0,0,64.336.039a3.416,3.416,0,0,0-1.963,1.7,3.257,3.257,0,0,1-.782.921,3.242,3.242,0,0,1-1.215-.087,3.419,3.419,0,0,0-2.57.2,3.418,3.418,0,0,0-1.167,2.279,3.235,3.235,0,0,1-.4,1.165,3.221,3.221,0,0,1-1.156.344,3.456,3.456,0,0,0-2.334,1.09,3.429,3.429,0,0,0-.32,2.518,3.215,3.215,0,0,1,.019,1.24,3.2,3.2,0,0,1-.979.7,3.478,3.478,0,0,0-1.857,1.781,3.433,3.433,0,0,0,.487,2.475,3.2,3.2,0,0,1,.407,1.179,3.2,3.2,0,0,1-.716.954,3.5,3.5,0,0,0-1.229,2.263A3.5,3.5,0,0,0,49.8,23.019a3.193,3.193,0,0,1,.716.954,3.2,3.2,0,0,1-.407,1.179,3.433,3.433,0,0,0-.487,2.475,3.478,3.478,0,0,0,1.857,1.781,3.207,3.207,0,0,1,.979.7,3.215,3.215,0,0,1-.019,1.24,3.429,3.429,0,0,0,.32,2.518,3.456,3.456,0,0,0,2.334,1.09,3.223,3.223,0,0,1,1.156.344,2.74,2.74,0,0,1,.364,1.026A11.539,11.539,0,0,0,48.5,47.337v.6a.912.912,0,1,0,1.824,0v-.6a9.759,9.759,0,0,1,6.512-9.171l-1.556,2.179a.912.912,0,0,0,.041,1.114l.435.522a4.213,4.213,0,0,0-4.035,4.2v5.866H50.315a.912.912,0,0,0-1.814.141v9.045a1.035,1.035,0,0,0,1.034,1.034H94.648a1.051,1.051,0,0,0,1.005-.758l3.282-11.488a1.051,1.051,0,0,0-.171-.916Zm-5.944-.27-.438,1.534H87.563L88,48.839ZM79.286,53.392a.767.767,0,1,1,.13-.455ZM70.25,56.1a.912.912,0,0,0-.027.249v4.1H65.332v-4.1a.923.923,0,0,0-.031-.257l-.087-.348a8.465,8.465,0,0,0,.223-1.936v-.84a.912.912,0,0,0-.912-.912h-.233L62.505,44.9a6.329,6.329,0,0,0,2.646.577H70.4a6.328,6.328,0,0,0,2.644-.577Zm-10-2.224a3.285,3.285,0,0,1-6.569,0ZM58.349,43.535A.912.912,0,0,0,58.4,42.3l-1.224-1.469,1.8-2.521L62.37,51.882l-5.154-7.215Zm4.833-10.009V31.847a10.644,10.644,0,0,0,9.194-.006v1.684A3.743,3.743,0,0,0,75,37.087L73.726,42.2A4.5,4.5,0,0,1,70.4,43.656H65.151a4.5,4.5,0,0,1-3.322-1.46l-1.277-5.109a3.744,3.744,0,0,0,2.63-3.562Zm13.4,4.786,1.8,2.521-1.227,1.474a.912.912,0,0,0,.056,1.229l1.133,1.133-5.155,7.216ZM55.423,33.158a2.988,2.988,0,0,1-1.2-.371,3.046,3.046,0,0,1,.016-1.22,3.979,3.979,0,0,0-.161-2.282,3.91,3.91,0,0,0-1.712-1.465c-.378-.214-.95-.537-1.015-.742a3.054,3.054,0,0,1,.4-1.146,3.971,3.971,0,0,0,.562-2.233,3.879,3.879,0,0,0-1.18-1.918c-.3-.32-.743-.8-.743-1.024s.447-.7.743-1.024a3.878,3.878,0,0,0,1.18-1.918,3.974,3.974,0,0,0-.562-2.234,3.059,3.059,0,0,1-.4-1.146c.065-.2.637-.528,1.015-.742a3.91,3.91,0,0,0,1.712-1.465,3.979,3.979,0,0,0,.161-2.282,3.045,3.045,0,0,1-.016-1.22,2.99,2.99,0,0,1,1.2-.371,3.943,3.943,0,0,0,2.09-.827,4,4,0,0,0,.906-2.076,3.024,3.024,0,0,1,.4-1.161,3,3,0,0,1,1.237.077A4,4,0,0,0,62.3,4.341a4,4,0,0,0,1.58-1.572c.231-.337.617-.9.819-.942.187-.037.771.338,1.085.54a4.061,4.061,0,0,0,2.1.845,4.062,4.062,0,0,0,2.1-.845c.315-.2.9-.576,1.085-.54.2.041.589.605.819.942a3.994,3.994,0,0,0,1.58,1.572,4,4,0,0,0,2.242.027,3,3,0,0,1,1.237-.077,3.023,3.023,0,0,1,.4,1.161,4,4,0,0,0,.906,2.076,3.942,3.942,0,0,0,2.09.827,2.989,2.989,0,0,1,1.2.371,3.046,3.046,0,0,1-.016,1.22,3.979,3.979,0,0,0,.161,2.282A3.909,3.909,0,0,0,83.4,13.693c.378.214.95.537,1.015.742a3.055,3.055,0,0,1-.4,1.146,3.973,3.973,0,0,0-.562,2.234,3.88,3.88,0,0,0,1.18,1.918c.3.32.744.8.744,1.024s-.448.7-.744,1.024a3.878,3.878,0,0,0-1.18,1.918,3.973,3.973,0,0,0,.562,2.234,3.058,3.058,0,0,1,.4,1.146c-.065.2-.637.528-1.015.742a3.91,3.91,0,0,0-1.712,1.465,3.979,3.979,0,0,0-.161,2.282,3.047,3.047,0,0,1,.016,1.22,2.989,2.989,0,0,1-1.2.371,3.941,3.941,0,0,0-2.09.827,3.673,3.673,0,0,0-.863,1.888l-.409-.117a1.042,1.042,0,0,0-1.013-.29l-.389-.111a1.91,1.91,0,0,1-1.38-1.83v-2.8A10.661,10.661,0,0,0,78.335,23.7a5.478,5.478,0,0,0,4.184-5.338,3.248,3.248,0,0,0-3.244-3.244H74.968A11.359,11.359,0,0,1,68.647,13.2l-4.287-2.858a2.64,2.64,0,0,0-4.105,2.2,3.429,3.429,0,0,1-1.011,2.441l-.761.761a.912.912,0,0,0-.867-.627H56.28a3.248,3.248,0,0,0-3.244,3.244A5.477,5.477,0,0,0,57.221,23.7a10.648,10.648,0,0,0,.268,1.322.912.912,0,1,0,1.761-.476,8.9,8.9,0,0,1-.284-1.689c0-.041-.046-.723-.3-4.714l1.869-1.869a5.241,5.241,0,0,0,1.545-3.731.816.816,0,0,1,1.269-.679l4.287,2.858a13.177,13.177,0,0,0,7.333,2.22h2l-.374,5.855a8.834,8.834,0,0,1-15.536,5.171.912.912,0,1,0-1.387,1.185,10.7,10.7,0,0,0,1.687,1.589v2.788a1.911,1.911,0,0,1-1.38,1.83l-.39.111a1.044,1.044,0,0,0-1.015.29l-.209.06a3.589,3.589,0,0,0-.85-1.832,3.943,3.943,0,0,0-2.09-.827ZM79.275,16.937a1.421,1.421,0,0,1,1.42,1.42,3.66,3.66,0,0,1-2.2,3.369l.306-4.789ZM57.066,21.726a3.66,3.66,0,0,1-2.206-3.369,1.421,1.421,0,0,1,1.42-1.42h.48ZM53.548,46.186a2.388,2.388,0,0,1,1.9-2.335l-.073.073a.912.912,0,0,0-.1,1.175l4.837,6.771v.182H53.548Zm-1.688,7.691a5.11,5.11,0,0,0,10.218,0h1.534a6.644,6.644,0,0,1-13.286,0Zm-1.534,6.571v-1.4a8.541,8.541,0,0,0,1.4,1.4Zm13.181-1.268v1.268H62.215A8.545,8.545,0,0,0,63.508,59.179Zm8.54-2.566,5.69-7.965v1.889a2.591,2.591,0,0,0,.93,5.017l-1.4,4.892H72.047ZM94.06,60.447H79.167L82,50.518h3.62l-.148.517a.912.912,0,0,0,.877,1.163h6.616a1.049,1.049,0,0,0,1.005-.758l.263-.921H96.9Z" transform="translate(0 0)"/>
    </g>
  </g>
</svg>
