<svg xmlns="http://www.w3.org/2000/svg" xmlns:xlink="http://www.w3.org/1999/xlink" width="610" height="395" viewBox="0 0 610 395">
  <defs>
    <clipPath id="clip-path">
      <rect id="Rectángulo_413610" data-name="Rectángulo 413610" width="610" height="395" transform="translate(180.228 9689)" fill="#fff" stroke="#707070" stroke-width="1" opacity="0.8"/>
    </clipPath>
  </defs>
  <g id="Enmascarar_grupo_1098780" data-name="Enmascarar grupo 1098780" transform="translate(-180.228 -9689)" clip-path="url(#clip-path)">
    <g id="OBJECTS" transform="translate(150.322 9657.267)">
      <g id="Grupo_1168164" data-name="Grupo 1168164" transform="translate(46.864 62.051)">
        <g id="Grupo_1168102" data-name="Grupo 1168102" transform="translate(21.411 107.551)">
          <path id="Trazado_1015492" data-name="Trazado 1015492" d="M603.083,334.249c-4.057-6.3-10.278-11.192-13.279-18.06-6.419-14.692,4.053-32.48-1.633-47.472-3.422-9.022-12.311-15.155-21.693-17.4s-19.245-1.137-28.7.763c-23.644,4.75-48.922,14.188-70.83,4.107-25.124-11.559-33.993-43.522-54.707-61.845a35.479,35.479,0,0,0-26.614-8.623c-22.88,2.24-38.342,25.644-60.576,31.486-23.8,6.252-49.012-9.039-73.094-3.994-17,3.563-30.467,16.815-39.751,31.5S196.852,275.87,188.3,290.989s-20.424,29.429-36.726,35.432c-21.932,8.076-49.635.487-67.253,15.845-8.179,7.13-12.284,18.132-12.8,28.969s2.221,21.586,5.9,31.792H597.956c4.3-9.787,8.364-27.3,10.146-37.845S608.871,343.237,603.083,334.249Z" transform="translate(-71.45 -185.555)" fill="#d7e5e6"/>
          <path id="Trazado_1015493" data-name="Trazado 1015493" d="M682.451,320.789a24.854,24.854,0,0,0,2.113,7.129c1.086,2.085,2.74,3.693,4.561,3.813,2.043.134,3.915-1.564,5.492-3.421a26.106,26.106,0,0,0,5.265-9.378,38.891,38.891,0,0,0,1.111-13.138c-.519-9.3-5.95-25.142-14.351-18.782C679.6,292.341,680.915,311.943,682.451,320.789Z" transform="translate(-150.213 -198.47)" fill="#d7e5e6"/>
          <path id="Trazado_1015494" data-name="Trazado 1015494" d="M681.743,260.571c-2.339,1.742-7.026-.6-10.468-5.219s-4.336-9.784-2-11.525,7.026.6,10.468,5.219S684.083,258.829,681.743,260.571Z" transform="translate(-148.5 -193.007)" fill="#d7e5e6"/>
          <path id="Trazado_1015495" data-name="Trazado 1015495" d="M202.954,278.423c-2.293,2.432-5.036,4.65-8.31,5.323s-7.136-.627-8.541-3.66a9.254,9.254,0,0,1-.7-3.744c-.161-9.674,6.483-18.442,14.735-23.493,3.179-1.945,6.937-3.5,10.564-2.645,2.644.622,5.382,7.56,2.894,12.242C210.548,268.171,207.466,273.636,202.954,278.423Z" transform="translate(-86.168 -193.874)" fill="#d7e5e6"/>
          <path id="Trazado_1015496" data-name="Trazado 1015496" d="M286.2,202.832c0,2.476-3.114,4.483-6.956,4.483s-6.956-2.007-6.956-4.483,3.114-4.483,6.956-4.483S286.2,200.356,286.2,202.832Z" transform="translate(-97.392 -187.207)" fill="#d7e5e6"/>
          <path id="Trazado_1015497" data-name="Trazado 1015497" d="M312.524,205.565c0,1.535-2.2,2.78-4.922,2.78s-4.922-1.244-4.922-2.78,2.2-2.78,4.922-2.78S312.524,204.029,312.524,205.565Z" transform="translate(-101.317 -187.78)" fill="#d7e5e6"/>
        </g>
        <g id="Grupo_1168112" data-name="Grupo 1168112" transform="translate(0 206.05)">
          <path id="Trazado_1015498" data-name="Trazado 1015498" d="M609.357,423.822s-.883-21.2,6.713-30.738c0,0,12.012,16.428,12.012,24.732S609.357,423.822,609.357,423.822Z" transform="translate(-119.514 -310.859)" fill="#53a097"/>
          <g id="Grupo_1168103" data-name="Grupo 1168103" transform="translate(0 4.352)">
            <path id="Trazado_1015499" data-name="Trazado 1015499" d="M100.7,411.812S46.864,384.7,46.864,303.661c0,0,48.369,9.023,58.1,48.974S100.7,411.812,100.7,411.812Z" transform="translate(-46.864 -303.661)" fill="#78d097"/>
            <path id="Trazado_1015500" data-name="Trazado 1015500" d="M104.764,396.783c-4.878-9.348-10.994-20.194-17.292-31,.564-1.655,3.659-10.892,3.659-14.694h-1.19c0,3.1-2.309,10.422-3.268,13.327-3.852-6.589-7.753-13.135-11.466-19.292.59-1.5,2.956-7.721,3.276-11.718l-1.186-.095c-.26,3.255-2.021,8.261-2.87,10.521-5.7-9.436-10.909-17.88-14.739-24.037.164-.587,1.264-4.574,1.764-7.249l-.584-.109h0l-.584-.109c-.359,1.912-1.052,4.59-1.453,6.089-3.409-5.472-5.531-8.822-5.614-8.953l-1,.637c.126.2,4.886,7.714,11.714,18.8a61.949,61.949,0,0,0-7.447-3.72l-.22.551h0l-.22.552a67.748,67.748,0,0,1,9.124,4.738l.035-.056c4.207,6.848,9.09,14.88,14.112,23.311-2.806-.275-9.979-1.057-13.287-2.16l-.188.564h0l-.188.564c3.921,1.306,12.672,2.141,14.418,2.3C83.8,361.837,87.6,368.32,91.235,374.68c-2.9-.077-11.186-.431-16-1.989l-.366,1.131c5.542,1.794,15.134,2.033,17.054,2.064,4.3,7.534,8.35,14.864,11.785,21.449Z" transform="translate(-47.555 -304.411)" fill="#408797"/>
          </g>
          <g id="Grupo_1168104" data-name="Grupo 1168104" transform="translate(53.906 48.946)">
            <path id="Trazado_1015501" data-name="Trazado 1015501" d="M108.765,416.74s2.87-22.708,18.225-39.741,18.517-19.167,20.654-22.13c0,0-3.809,41.178-16.272,52.144S108.765,416.74,108.765,416.74Z" transform="translate(-108.765 -354.869)" fill="#53a097"/>
            <path id="Trazado_1015502" data-name="Trazado 1015502" d="M139.9,375.943c2.6-4.493,4.359-7.247,4.4-7.308l-.75-.483c-.027.042-.85,1.329-2.187,3.555l-.388-1.247-.852.265.626,2.009c-1.195,2.012-2.7,4.608-4.37,7.637a20.179,20.179,0,0,1-1.087-2.418l-.839.307a21.255,21.255,0,0,0,1.41,3.051c-1.046,1.912-2.147,3.981-3.273,6.172l-.151.072.055.114q-.99,1.929-2,3.974a9.951,9.951,0,0,1-.989-2.813c-.1-.542-.159-1.089-.217-1.638a18.651,18.651,0,0,0-.28-1.972l-.873.188a17.913,17.913,0,0,1,.266,1.877c.06.573.121,1.144.227,1.709a10.843,10.843,0,0,0,1.388,3.625c-.924,1.9-1.846,3.866-2.749,5.874l.813.367c1.693-3.761,3.453-7.37,5.162-10.706l5.263-2.525-.386-.8-4.2,2.014c1.97-3.792,3.849-7.187,5.454-9.989h.093a27.031,27.031,0,0,0,3.192-.188l-.105-.885A25.216,25.216,0,0,1,139.9,375.943Z" transform="translate(-111.156 -356.585)" fill="#40d097"/>
          </g>
          <path id="Trazado_1015503" data-name="Trazado 1015503" d="M444.722,367.167c1.888,22.612,9.146,51.2,9.146,51.2l14.832-.128C460.408,391.194,444.722,367.167,444.722,367.167Z" transform="translate(-98.253 -307.511)" fill="#61bb97"/>
          <g id="Grupo_1168106" data-name="Grupo 1168106" transform="translate(416.365 35.053)">
            <g id="Grupo_1168105" data-name="Grupo 1168105">
              <path id="Trazado_1015504" data-name="Trazado 1015504" d="M525,418.293l5.193.989c23.739-12.611,30.168-80.367,30.168-80.367S524.016,364.384,525,418.293Z" transform="translate(-524.985 -338.915)" fill="#61bb97"/>
              <path id="Trazado_1015505" data-name="Trazado 1015505" d="M527.58,418.721l2.953.563c23.628-12.552,30.107-79.725,30.167-80.352Z" transform="translate(-525.32 -338.917)" fill="#78d097"/>
            </g>
            <path id="Trazado_1015506" data-name="Trazado 1015506" d="M532.186,380.066a97.566,97.566,0,0,1,12.61-23.659c.47-4.984.541-11.222-1.21-15.6,0,0-13.051,31-11.4,39.256C532.185,380.062,532.185,380.064,532.186,380.066Z" transform="translate(-525.897 -339.159)" fill="#53a097"/>
          </g>
          <g id="Grupo_1168109" data-name="Grupo 1168109" transform="translate(209.238 52.792)">
            <g id="Grupo_1168107" data-name="Grupo 1168107">
              <path id="Trazado_1015507" data-name="Trazado 1015507" d="M302.708,393.309a2.962,2.962,0,0,0-1.932.613,1.679,1.679,0,0,0-.475,1.58,2.667,2.667,0,0,0,1.432,1.582,7.713,7.713,0,0,0,4.631.8c1.105-.137,5.618-1.3,3.317-2.967C307.847,393.589,304.9,393.208,302.708,393.309Z" transform="translate(-288.831 -363.678)" fill="#78d097"/>
              <path id="Trazado_1015508" data-name="Trazado 1015508" d="M326.37,400.933s4.9-14.92,8.967-11.906S328.856,400.858,326.37,400.933Z" transform="translate(-292.204 -363.075)" fill="#78d097"/>
              <path id="Trazado_1015509" data-name="Trazado 1015509" d="M314.411,378.623s7.755-3.221,6.442-9.544S314.172,373.731,314.411,378.623Z" transform="translate(-290.658 -360.303)" fill="#78d097"/>
              <path id="Trazado_1015510" data-name="Trazado 1015510" d="M300.856,381.777s-7.794-3.376-10.061-.155S297.4,383.448,300.856,381.777Z" transform="translate(-287.561 -361.99)" fill="#78d097"/>
              <path id="Trazado_1015511" data-name="Trazado 1015511" d="M303.1,375.127s-8.619-15.719-13.474-15.84-1.35,6.631,0,7.951C295.089,372.578,303.1,375.127,303.1,375.127Z" transform="translate(-287.136 -359.285)" fill="#78d097"/>
            </g>
            <path id="Trazado_1015512" data-name="Trazado 1015512" d="M326.311,393.664l-.573-.683c-2.672,2.236-5.225,7.937-6.163,10.185-.944-2.518-2.012-5.138-3.227-7.8l.079-.063c-.017-.022-.093-.112-.222-.245a96.179,96.179,0,0,0-5.861-10.885c.393-1.554,2.121-7.872,4.922-10.738l-.637-.623c-2.627,2.687-4.295,7.981-4.939,10.338a59.967,59.967,0,0,0-14.04-15.522l-.534.713A55.6,55.6,0,0,1,306.3,379.817a39.582,39.582,0,0,0-9.45.183l.168.876a40.265,40.265,0,0,1,9.972-.093c.832,1.16,1.635,2.337,2.4,3.536,0,0,0,.011,0,.013l.013,0a92.753,92.753,0,0,1,5.257,9.529c-1.662-1.025-4.589-2.181-9.228-1.965l.043.892c6.219-.307,9.191,2.03,10.008,2.816a129.217,129.217,0,0,1,9.145,28.564l.88-.149a126.554,126.554,0,0,0-5.468-19.616C320.087,404.276,323.206,396.265,326.311,393.664Z" transform="translate(-288.167 -360.363)" fill="#408797"/>
            <g id="Grupo_1168108" data-name="Grupo 1168108" transform="translate(7.059 35.147)">
              <path id="Trazado_1015513" data-name="Trazado 1015513" d="M323.421,423.335c-.14-.157-14.171-15.8-28.179-19.639l.315-1.148c14.351,3.934,28.172,19.343,28.753,20Z" transform="translate(-295.242 -400.02)" fill="#408797"/>
              <path id="Trazado_1015514" data-name="Trazado 1015514" d="M314.943,420.858l-.181-1.176a14.245,14.245,0,0,0,4.568-1.527l.563,1.048A15.426,15.426,0,0,1,314.943,420.858Z" transform="translate(-297.763 -402.036)" fill="#408797"/>
              <path id="Trazado_1015515" data-name="Trazado 1015515" d="M314.825,414.09a8.491,8.491,0,0,0-1.043-3.858l1.042-.574a9.7,9.7,0,0,1,1.19,4.4Z" transform="translate(-297.637 -400.938)" fill="#408797"/>
              <path id="Trazado_1015516" data-name="Trazado 1015516" d="M305.584,413.647l-.277-1.156c.416-.1.883-.2,1.372-.31a29.321,29.321,0,0,0,4.238-1.144l.446,1.1a30.1,30.1,0,0,1-4.428,1.2C306.453,413.446,305.994,413.548,305.584,413.647Z" transform="translate(-296.542 -401.116)" fill="#408797"/>
              <path id="Trazado_1015517" data-name="Trazado 1015517" d="M304.912,407.409c-.091-.688-.365-2.779-1.138-3.644l.886-.792c.9,1.009,1.239,2.818,1.431,4.281Z" transform="translate(-296.344 -400.075)" fill="#408797"/>
              <rect id="Rectángulo_413595" data-name="Rectángulo 413595" width="4.38" height="1.189" transform="translate(1.198 6.754) rotate(-26.716)" fill="#408797"/>
              <path id="Trazado_1015518" data-name="Trazado 1015518" d="M297.535,403.248l-1.187-.079.593.039-.593-.037a4.6,4.6,0,0,0-.927-2.8l.94-.73A5.733,5.733,0,0,1,297.535,403.248Z" transform="translate(-295.265 -399.645)" fill="#408797"/>
            </g>
          </g>
          <g id="Grupo_1168110" data-name="Grupo 1168110" transform="translate(504.379 25.514)">
            <path id="Trazado_1015519" data-name="Trazado 1015519" d="M626.054,417.762h0c.839,5.827,13.307,7.641,32.585-8.9s35.33-80.9,35.33-80.9c-23.452,9.382-40.558,27.809-51.554,43.286A90.346,90.346,0,0,0,626.054,417.762Z" transform="translate(-626.054 -327.961)" fill="#78d097"/>
            <path id="Trazado_1015520" data-name="Trazado 1015520" d="M674.065,359.825c.236,0,5.791-.077,8.288-1.568l-.611-1.022c-1.679,1-5.183,1.291-6.815,1.371,7.269-9.882,12.682-16.584,12.813-16.747l-.925-.748c-.089.11-2.583,3.2-6.42,8.219-.92-1.432-1.992-3.423-1.894-4.278l-1.183-.135c-.174,1.518,1.611,4.368,2.31,5.418-3.092,4.063-6.936,9.23-11.076,15.057-.352-2.177-1.165-7.3-1.338-9.139l-1.184.111c.226,2.392,1.461,9.912,1.514,10.23l.18-.03c-4.676,6.62-9.664,14-14.3,21.509-.95-2.725-2.922-8.968-2.822-13.569l-1.19-.025c-.119,5.481,2.475,12.9,3.213,14.9a202.683,202.683,0,0,0-11.777,21.777l1.085.488c4.688-10.409,11.72-22.094,18.875-32.885a101.622,101.622,0,0,0,13.607-3.358l-.387-1.124a96.053,96.053,0,0,1-12.3,3.106c4.261-6.372,8.524-12.384,12.338-17.6Z" transform="translate(-627.965 -329.659)" fill="#408797"/>
          </g>
          <g id="Grupo_1168111" data-name="Grupo 1168111" transform="translate(492.308)">
            <path id="Trazado_1015521" data-name="Trazado 1015521" d="M613.052,411.407l-.859-.237c.223-.807,22.65-81,53.9-102.664l.509.734C635.613,330.724,613.274,410.6,613.052,411.407Z" transform="translate(-612.192 -299.934)" fill="#408797"/>
            <path id="Trazado_1015522" data-name="Trazado 1015522" d="M637.2,357.731s-.277-11.928-3.606-11.651S637.2,357.731,637.2,357.731Z" transform="translate(-614.84 -304.787)" fill="#53a097"/>
            <path id="Trazado_1015523" data-name="Trazado 1015523" d="M629.271,377.215c-.424.716,15.118-3.468,15.4-7.905S631.49,373.471,629.271,377.215Z" transform="translate(-614.397 -307.628)" fill="#78d097"/>
            <path id="Trazado_1015524" data-name="Trazado 1015524" d="M623.475,390.858s-.148-8.187-2.88-8.627S623.475,390.858,623.475,390.858Z" transform="translate(-613.181 -309.455)" fill="#78d097"/>
            <path id="Trazado_1015525" data-name="Trazado 1015525" d="M621.038,400.316s13.718-.868,13.8-5.122S626.073,394.673,621.038,400.316Z" transform="translate(-613.335 -310.894)" fill="#53a097"/>
            <path id="Trazado_1015526" data-name="Trazado 1015526" d="M643.163,348.357s13.8-.36,13.439-4.8S643.163,348.357,643.163,348.357Z" transform="translate(-616.192 -304.306)" fill="#78d097"/>
            <path id="Trazado_1015527" data-name="Trazado 1015527" d="M650.432,334.018c0-.3-.1-12.476-3.622-11.672S650.432,334.018,650.432,334.018Z" transform="translate(-616.537 -301.717)" fill="#53a097"/>
            <path id="Trazado_1015528" data-name="Trazado 1015528" d="M660.126,322.771s8.955,2.717,10.263-.2S662.34,321.161,660.126,322.771Z" transform="translate(-618.383 -301.537)" fill="#53a097"/>
            <path id="Trazado_1015529" data-name="Trazado 1015529" d="M666.6,313.01s.7-10.263-3.421-9.156S666.6,313.01,666.6,313.01Z" transform="translate(-618.618 -299.323)" fill="#78d097"/>
            <path id="Trazado_1015530" data-name="Trazado 1015530" d="M673.413,308.983s9.458-5.433,9.961-1.409S675.425,310.291,673.413,308.983Z" transform="translate(-620.1 -299.622)" fill="#78d097"/>
            <path id="Trazado_1015531" data-name="Trazado 1015531" d="M673.791,307.42s3.824-8.552.3-8.754S673.791,307.42,673.791,307.42Z" transform="translate(-619.975 -298.663)" fill="#53a097"/>
          </g>
          <path id="Trazado_1015532" data-name="Trazado 1015532" d="M199.059,365.757c.448,21.862,3.6,52.431,3.6,52.431h13.974C214.893,407.292,199.059,365.757,199.059,365.757Z" transform="translate(-66.522 -307.329)" fill="#408797"/>
          <path id="Trazado_1015533" data-name="Trazado 1015533" d="M394.641,422.565l13.664.395c3.9-4.132,4.771-23.314,4.771-23.314C405.613,404.14,394.641,422.565,394.641,422.565Z" transform="translate(-91.784 -311.707)" fill="#408797"/>
          <path id="Trazado_1015534" data-name="Trazado 1015534" d="M468.7,418.242c-8.293-27.048-23.979-51.075-23.979-51.075.106,1.27.232,2.561.369,3.862l17.579,47.265Z" transform="translate(-98.253 -307.511)" fill="#78d097"/>
        </g>
        <g id="Grupo_1168119" data-name="Grupo 1168119" transform="translate(128.696 204.713)">
          <g id="Grupo_1168114" data-name="Grupo 1168114">
            <rect id="Rectángulo_413596" data-name="Rectángulo 413596" width="92.6" height="11.575" fill="#40ad97"/>
            <path id="Trazado_1015535" data-name="Trazado 1015535" d="M272.449,412.08H212.163l-7.01-101.66h74.308Z" transform="translate(-196.006 -298.845)" fill="#40ad97"/>
            <g id="Grupo_1168113" data-name="Grupo 1168113" transform="translate(23.979 43.777)">
              <path id="Trazado_1015536" data-name="Trazado 1015536" d="M227.082,394.941h15.509v-6.265H230.276Z" transform="translate(-222.818 -352.73)" fill="#e1d6e6"/>
              <path id="Trazado_1015537" data-name="Trazado 1015537" d="M239.036,380.752,235.679,367.6l-12.617,5.011,5.349,2.727-6.226,12.214,4.264,4.669,7.237-14.194Z" transform="translate(-222.185 -350.007)" fill="#fff"/>
              <path id="Trazado_1015538" data-name="Trazado 1015538" d="M257.531,385.435l-8.055,7.083,8.055,7.083v-4.744h10.425l2.162-4.678H257.531Z" transform="translate(-225.71 -352.311)" fill="#fff"/>
              <path id="Trazado_1015539" data-name="Trazado 1015539" d="M271.583,389.367l-4.514-10.215h-6.253l4.311,10.215Z" transform="translate(-227.175 -351.499)" fill="#e1d6e6"/>
              <path id="Trazado_1015540" data-name="Trazado 1015540" d="M235.987,359.667h6.577l5-6.772-2.478-5.444Z" transform="translate(-223.968 -347.405)" fill="#e1d6e6"/>
              <path id="Trazado_1015541" data-name="Trazado 1015541" d="M247.475,363l11.339,5.1,3.6-11.9-5,2.278-5.54-11.08-5.438.047,6.044,13.279Z" transform="translate(-225.317 -347.398)" fill="#fff"/>
            </g>
            <rect id="Rectángulo_413597" data-name="Rectángulo 413597" width="85.9" height="6.9" transform="translate(3.35 11.575)" fill="#40d097"/>
            <text id="ORGANIC" transform="translate(23.653 30.333)" fill="#fff" font-size="7" font-family="Roboto-Bold, Roboto" font-weight="700"><tspan x="0" y="0">ORGANIC</tspan></text>
            <path id="Trazado_1015542" data-name="Trazado 1015542" d="M279.055,318.343H205.7l.608,8.81c13.205-3.228,53.909-4.083,72.444-4.406l.3-4.4Z" transform="translate(-196.076 -299.868)" fill="#408f97"/>
          </g>
          <g id="Grupo_1168116" data-name="Grupo 1168116" transform="translate(107.092)">
            <rect id="Rectángulo_413598" data-name="Rectángulo 413598" width="92.6" height="11.575" fill="#5aa9e0"/>
            <path id="Trazado_1015543" data-name="Trazado 1015543" d="M395.425,412.08H335.139l-7.01-101.66h74.307Z" transform="translate(-318.982 -298.845)" fill="#5aa9e0"/>
            <g id="Grupo_1168115" data-name="Grupo 1168115" transform="translate(23.979 43.777)">
              <path id="Trazado_1015544" data-name="Trazado 1015544" d="M350.058,394.941h15.509v-6.265H353.252Z" transform="translate(-345.794 -352.73)" fill="#e1d6e6"/>
              <path id="Trazado_1015545" data-name="Trazado 1015545" d="M362.011,380.752,358.655,367.6l-12.617,5.011,5.349,2.727-6.227,12.214,4.265,4.669,7.237-14.194Z" transform="translate(-345.161 -350.007)" fill="#fff"/>
              <path id="Trazado_1015546" data-name="Trazado 1015546" d="M380.506,385.435l-8.054,7.083,8.054,7.083v-4.744h10.426l2.162-4.678H380.506Z" transform="translate(-348.686 -352.311)" fill="#fff"/>
              <path id="Trazado_1015547" data-name="Trazado 1015547" d="M394.559,389.367l-4.514-10.215h-6.253l4.31,10.215Z" transform="translate(-350.151 -351.499)" fill="#e1d6e6"/>
              <path id="Trazado_1015548" data-name="Trazado 1015548" d="M358.963,359.667h6.577l5-6.772-2.478-5.444Z" transform="translate(-346.944 -347.405)" fill="#e1d6e6"/>
              <path id="Trazado_1015549" data-name="Trazado 1015549" d="M370.451,363l11.339,5.1,3.6-11.9-5,2.278-5.539-11.08-5.438.047,6.044,13.279Z" transform="translate(-348.293 -347.398)" fill="#fff"/>
            </g>
            <rect id="Rectángulo_413599" data-name="Rectángulo 413599" width="85.9" height="6.9" transform="translate(3.351 11.575)" fill="#75c7e0"/>
            <text id="PAPER" transform="translate(29.771 30.333)" fill="#fff" font-size="7" font-family="Roboto-Bold, Roboto" font-weight="700"><tspan x="0" y="0">PAPER</tspan></text>
            <path id="Trazado_1015550" data-name="Trazado 1015550" d="M329.327,327.8c9.786-5.231,66.91-9.05,72.7-9.424l0-.03H328.675Z" transform="translate(-319.052 -299.868)" fill="#5a92e0"/>
          </g>
          <g id="Grupo_1168118" data-name="Grupo 1168118" transform="translate(217.772)">
            <rect id="Rectángulo_413600" data-name="Rectángulo 413600" width="92.6" height="11.575" fill="#ffad35"/>
            <path id="Trazado_1015551" data-name="Trazado 1015551" d="M522.522,412.08H462.236l-7.011-101.66h74.308Z" transform="translate(-446.079 -298.845)" fill="#ffad35"/>
            <g id="Grupo_1168117" data-name="Grupo 1168117" transform="translate(23.979 43.777)">
              <path id="Trazado_1015552" data-name="Trazado 1015552" d="M477.155,394.941h15.509v-6.265H480.349Z" transform="translate(-472.891 -352.73)" fill="#e1d6e6"/>
              <path id="Trazado_1015553" data-name="Trazado 1015553" d="M489.108,380.752,485.752,367.6l-12.617,5.011,5.349,2.727-6.226,12.214,4.264,4.669,7.236-14.194Z" transform="translate(-472.258 -350.007)" fill="#fff"/>
              <path id="Trazado_1015554" data-name="Trazado 1015554" d="M507.6,385.435l-8.054,7.083L507.6,399.6v-4.744h10.426l2.162-4.678H507.6Z" transform="translate(-475.783 -352.311)" fill="#fff"/>
              <path id="Trazado_1015555" data-name="Trazado 1015555" d="M521.656,389.367l-4.514-10.215h-6.253l4.311,10.215Z" transform="translate(-477.248 -351.499)" fill="#e1d6e6"/>
              <path id="Trazado_1015556" data-name="Trazado 1015556" d="M486.059,359.667h6.578l5-6.772-2.478-5.444Z" transform="translate(-474.041 -347.405)" fill="#e1d6e6"/>
              <path id="Trazado_1015557" data-name="Trazado 1015557" d="M497.547,363l11.339,5.1,3.6-11.9-5,2.278-5.539-11.08-5.438.047,6.044,13.279Z" transform="translate(-475.39 -347.398)" fill="#fff"/>
            </g>
            <rect id="Rectángulo_413601" data-name="Rectángulo 413601" width="85.9" height="6.9" transform="translate(3.35 11.575)" fill="#ffd635"/>
            <text id="PLASTIC" transform="translate(25.199 30.333)" fill="#fff" font-size="7" font-family="Roboto-Bold, Roboto" font-weight="700"><tspan x="0" y="0">PLASTIC</tspan></text>
            <path id="Trazado_1015558" data-name="Trazado 1015558" d="M455.772,318.343l1.236,17.914c3.866-17.02,72.12-17.914,72.12-17.914Z" transform="translate(-446.149 -299.868)" fill="#eb8735"/>
          </g>
        </g>
        <g id="Grupo_1168133" data-name="Grupo 1168133" transform="translate(45.219 21.985)">
          <path id="Trazado_1015559" data-name="Trazado 1015559" d="M129.7,143.261s8.756,9.293,13.13,13.3,8.78,9.815,6.977,17.426-4.5,36.255-4.053,42.465c0,0-17.98,4.607-32-1.4,0,0,5.745-12.619,4.575-25.239s-7.58-35.253-2.972-45.269l2.408-4.455S124.624,143.475,129.7,143.261Z" transform="translate(-100.717 -94.115)" fill="#c63a51"/>
          <path id="Trazado_1015560" data-name="Trazado 1015560" d="M117.812,158.73s-2.038,3.106.594,34.375c.833,12.316-4.642,24.35-4.642,24.35.047.02.094.037.141.057L136.932,197.4Z" transform="translate(-100.724 -96.523)" fill="#973a51"/>
          <g id="Grupo_1168121" data-name="Grupo 1168121" transform="translate(9.709)">
            <path id="Trazado_1015561" data-name="Trazado 1015561" d="M145.535,108.864a10.01,10.01,0,0,0-.5,4.581,12.982,12.982,0,0,0,.6,1.831c.315.857.575,1.734.835,2.609a1.48,1.48,0,0,1,.085.769,1.44,1.44,0,0,1-.609.727q-.905.677-1.87,1.271c-.945,2.565-1.195,5.714-2.892,7.857a2.678,2.678,0,0,1-1.028.853,3.311,3.311,0,0,1-1.681.095,32.373,32.373,0,0,1-6.635-1.555s-1.384,6.782-1.579,9.315c0,0-9.751.812-12.044-4.261-1.275-2.82,4.325-18.831,4.325-18.831s-6.087-3.884,1.354-15.893,21.244,1.062,21.791,5.114S145.535,108.864,145.535,108.864Z" transform="translate(-110.984 -88.069)" fill="#ee957c"/>
            <path id="Trazado_1015562" data-name="Trazado 1015562" d="M142.275,104.26a18.231,18.231,0,0,1-3.087,2.95,6.963,6.963,0,0,1-3.4,1.552,5.964,5.964,0,0,1,.239-2.63,11.656,11.656,0,0,0-5.156,6.887c-.3-1.721-.67-3.441-.971-5.161-.118-.673-.318-1.453-.95-1.714a1.537,1.537,0,0,0-.79-.066,3.07,3.07,0,0,0-1.874,1.009,4.5,4.5,0,0,0-.724,3.882c.281,1.336.893,2.579,1.281,3.887.471,1.588-.118,3.146-.452,4.769a9.075,9.075,0,0,1-1.741-3.181s-.943,14.405-6.192,22.545l-1.549-1.865A13.733,13.733,0,0,1,112,142.356l-.064-3.038-2,.523s3.958-14.353,4.137-19.468l-1.989,1.168s2.519-10.7.3-9.7c0,0-.7-18.436,9.527-23.15,7.661-3.532,20.756-.642,23.747,12.034a13.528,13.528,0,0,1,.317,3.675c-.057,1.365-.16,3.24-.314,4.276A7.845,7.845,0,0,1,142.275,104.26Z" transform="translate(-109.939 -87.297)" fill="#43365e"/>
            <path id="Trazado_1015563" data-name="Trazado 1015563" d="M132.3,137.234c.421-2.352.866-4.536.866-4.536a37.859,37.859,0,0,1-4.9-2.274A13.286,13.286,0,0,0,132.3,137.234Z" transform="translate(-112.306 -92.867)" fill="#d87e7c"/>
            <g id="Grupo_1168120" data-name="Grupo 1168120" transform="translate(28.218 21.317)">
              <path id="Trazado_1015564" data-name="Trazado 1015564" d="M145.634,116.084c-.1.853-.527,1.5-.954,1.453s-.691-.782-.59-1.635.527-1.5.954-1.453S145.734,115.232,145.634,116.084Z" transform="translate(-142.565 -112.12)" fill="#5c364b"/>
              <path id="Trazado_1015565" data-name="Trazado 1015565" d="M142.64,113.24a.3.3,0,0,1-.185-.529,4.341,4.341,0,0,1,1.716-.749,4.85,4.85,0,0,1,1.711-.163.3.3,0,1,1-.07.59,4.262,4.262,0,0,0-1.5.151,3.815,3.815,0,0,0-1.486.636A.3.3,0,0,1,142.64,113.24Z" transform="translate(-142.342 -111.775)" fill="#5c364b"/>
              <path id="Trazado_1015566" data-name="Trazado 1015566" d="M145.907,129.909c.094-.287.185-.577.267-.872a7.745,7.745,0,0,1-2.256-1.721.445.445,0,0,0-.679.577A8.765,8.765,0,0,0,145.907,129.909Z" transform="translate(-142.445 -113.762)" fill="#5c364b"/>
            </g>
            <path id="Trazado_1015567" data-name="Trazado 1015567" d="M130.829,110.85a1.838,1.838,0,0,0-1.52,1.1,3.291,3.291,0,0,0-.189,1.932,3.567,3.567,0,0,0,.235.842,2.653,2.653,0,0,0,1.51,1.419.637.637,0,0,1,.283-.623.925.925,0,0,1,.7-.1c.007-.34-.014-.684-.007-1.023a7.936,7.936,0,0,0-.193-2.4A2.622,2.622,0,0,0,130.829,110.85Z" transform="translate(-112.409 -90.339)" fill="#d87e7c"/>
          </g>
          <g id="Grupo_1168125" data-name="Grupo 1168125" transform="translate(39.622 34.296)">
            <rect id="Rectángulo_413602" data-name="Rectángulo 413602" width="2.871" height="15.307" transform="translate(19.313 8.383) rotate(-10.027)" fill="#40ad97"/>
            <g id="Grupo_1168122" data-name="Grupo 1168122" transform="translate(20.971 0)">
              <path id="Trazado_1015568" data-name="Trazado 1015568" d="M181.226,136.237l4.655-6.9-1.671-1.128-4.655,6.9a1.849,1.849,0,0,1-1.22.788l-1.231.211a3.633,3.633,0,0,0-2.4,1.549l-6.335,9.388,5.974,4.032,6.335-9.388a3.635,3.635,0,0,0,.539-2.8l-.265-1.221A1.845,1.845,0,0,1,181.226,136.237Z" transform="translate(-168.369 -126.878)" fill="#5aa9e0"/>
              <rect id="Rectángulo_413603" data-name="Rectángulo 413603" width="1.203" height="3.217" transform="translate(15.345 0.997) rotate(-55.986)" fill="#5aa9e0"/>
              <rect id="Rectángulo_413604" data-name="Rectángulo 413604" width="5.015" height="7.207" transform="translate(2.993 15.731) rotate(-55.986)" fill="#5a8fe0"/>
            </g>
            <g id="Grupo_1168123" data-name="Grupo 1168123" transform="translate(29.739 3.932)">
              <path id="Trazado_1015569" data-name="Trazado 1015569" d="M186.386,139.756l1.774-8.132-1.97-.429-1.774,8.132a1.851,1.851,0,0,1-.842,1.183l-1.066.651a3.635,3.635,0,0,0-1.656,2.327l-2.414,11.065,7.042,1.536,2.414-11.065a3.634,3.634,0,0,0-.536-2.8l-.7-1.036A1.847,1.847,0,0,1,186.386,139.756Z" transform="translate(-178.438 -131.195)" fill="#5a8fe0"/>
              <path id="Trazado_1015570" data-name="Trazado 1015570" d="M225.419,151.925l5.671-6.092-1.475-1.373-6.209,6.67-3.139.043a1.058,1.058,0,0,0-.759.337l-8.466,9.1,5.276,4.911,8.466-9.1a1.054,1.054,0,0,0,.281-.782l-.136-2.346A1.845,1.845,0,0,1,225.419,151.925Z" transform="translate(-182.649 -132.908)" fill="#5aa9e0"/>
              <path id="Trazado_1015571" data-name="Trazado 1015571" d="M187.284,131.2l-.378,1.733,1.983.367.365-1.67Z" transform="translate(-179.532 -131.195)" fill="#5aa9e0"/>
            </g>
            <g id="Grupo_1168124" data-name="Grupo 1168124" transform="translate(0 17.184)">
              <rect id="Rectángulo_413605" data-name="Rectángulo 413605" width="61.29" height="50.918" transform="matrix(0.315, -0.949, 0.949, 0.315, 0, 58.177)" fill="#b76535"/>
              <path id="Trazado_1015572" data-name="Trazado 1015572" d="M189.495,201.813a16.076,16.076,0,0,0-8.36-.613c-2.018.462-4.64,1.7-5.674,3.613-1.325,2.457,1.965,3.155,3.65,3.945,4.463,2.094,9.005,4.361,12.447,7.982,1.67,1.757,3.086,3.837,5.177,5.065a9.336,9.336,0,0,0,1.571.713l4.363-13.153C198.592,206.275,194.349,203.344,189.495,201.813Z" transform="translate(-148.275 -153.449)" fill="#9a5335"/>
              <rect id="Rectángulo_413606" data-name="Rectángulo 413606" width="6.461" height="18.55" transform="matrix(0.315, -0.949, 0.949, 0.315, 43.184, 19.073)" fill="#c18b35"/>
              <rect id="Rectángulo_413607" data-name="Rectángulo 413607" width="61.29" height="8.607" transform="matrix(0.315, -0.949, 0.949, 0.315, 8.338, 60.942)" fill="#c18b35"/>
            </g>
            <path id="Trazado_1015573" data-name="Trazado 1015573" d="M211.584,160.059l4.023-8.182-5.92-2.615-3.436,9.034Z" transform="translate(-152.291 -129.597)" fill="#a8a8c5"/>
            <path id="Trazado_1015574" data-name="Trazado 1015574" d="M199.144,151.962c.2-.14,1.981-2.045,1.981-2.045l1.91,1.7,2.122-1.7,1.981,2.967,2.476.286-1.2,1.062,1.486,2.189-2.1,2.828-9.987-3.291Z" transform="translate(-151.202 -129.681)" fill="#c4c7e6"/>
            <path id="Trazado_1015575" data-name="Trazado 1015575" d="M188.627,153.222l2.173-3.959,1.981,1.344,1.486-.92,1.769.99v1.273l1.627-.5,1.981,1.139s-1.372,3.833-1.627,3.748Z" transform="translate(-150.015 -129.597)" fill="#e13a51"/>
          </g>
          <g id="Grupo_1168127" data-name="Grupo 1168127" transform="translate(17.066 52.743)">
            <path id="Trazado_1015576" data-name="Trazado 1015576" d="M200.61,204.878c.455.13.974-.13,1.039-1.039s-2.987-3.7-4.091-4.481a23.36,23.36,0,0,0-2.923-1.623,2.844,2.844,0,0,0-1.818-1.884c-1.623-.714-8.785-.012-11.032.334s-8.984-.6-17.537-2.851-22.752-4.309-22.752-4.309c-.679-5.3-3.671-13.171-3.671-13.171h0c-1.7,1.439-6.185,4.7-11.469,4.441.726,3.732,2.8,12.794,6.41,16.634,5.421,5.762,43.557,6.585,44.92,6.715s2.338.455,4.676,2.013,6.495,1.1,8.248.909,4.156,1.429,4.871,1.63.844-1.306.844-1.306l1.3.844a2.215,2.215,0,0,0,1.493.438c.714-.146.65-1.022.65-1.022a4.494,4.494,0,0,0,1.1.974c.52.26,1.169-.584,1.169-1.169S200.61,204.878,200.61,204.878Z" transform="translate(-119.416 -151.478)" fill="#ee957c"/>
            <path id="Trazado_1015577" data-name="Trazado 1015577" d="M137.826,175.854h0c-1.7,1.439-6.185,4.7-11.469,4.441a71.06,71.06,0,0,0,2.039,8.013c2.771-4.386,7.595-8.206,10.265-10.117C138.176,176.778,137.826,175.854,137.826,175.854Z" transform="translate(-119.416 -151.478)" fill="#d87e7c"/>
            <path id="Trazado_1015578" data-name="Trazado 1015578" d="M123.047,176.363s-9.711-24-1.1-27.954c10.379-4.762,15.58,23.169,15.58,23.169S130.805,178.3,123.047,176.363Z" transform="translate(-118.386 -147.863)" fill="#e13a51"/>
            <path id="Trazado_1015579" data-name="Trazado 1015579" d="M188.013,205.731a3.028,3.028,0,0,1-.212-.911c-.108-.82-.529-5.944-2.154-4.425-.666.623-.667,2.388-.8,3.246a18.678,18.678,0,0,0-.257,3.106c.32.013.538.023.618.031,1.364.13,2.338.455,4.676,2.013.071.047.157.076.23.119l.869.189-2.46-2.687A2.887,2.887,0,0,1,188.013,205.731Z" transform="translate(-126.937 -154.612)" fill="#d87e7c"/>
            <path id="Trazado_1015580" data-name="Trazado 1015580" d="M204.284,201.118c-.265-.131-.444-.214-.444-.214a1.689,1.689,0,0,0-.155-.421,27.3,27.3,0,0,0-5.832.13.3.3,0,0,0,.059.589.277.277,0,0,0,.06-.006A29.771,29.771,0,0,1,204.284,201.118Z" transform="translate(-128.62 -154.648)" fill="#c26f6b"/>
            <g id="Grupo_1168126" data-name="Grupo 1168126" transform="translate(72.798 49.016)">
              <path id="Trazado_1015581" data-name="Trazado 1015581" d="M209.822,210.883l-.057-.071a17.316,17.316,0,0,0-7.4-5.145.3.3,0,0,0-.174.568,16.928,16.928,0,0,1,7.053,4.883l.058.658a1.224,1.224,0,0,0,.23-.777s.137.165.33.361Z" transform="translate(-201.983 -204.343)" fill="#c26f6b"/>
              <path id="Trazado_1015582" data-name="Trazado 1015582" d="M211.22,208.5l-.229-.165a16.987,16.987,0,0,0-5.593-4.168.3.3,0,1,0-.218.554,17,17,0,0,1,5.411,4.049l1,.723c-.39-.507-.825-.964-.825-.964A.729.729,0,0,0,211.22,208.5Z" transform="translate(-202.371 -204.149)" fill="#c26f6b"/>
              <path id="Trazado_1015583" data-name="Trazado 1015583" d="M206.352,210.936l-.064-.056a13.417,13.417,0,0,0-3.921-2.4.3.3,0,1,0-.176.568,12.69,12.69,0,0,1,3.64,2.222l.137.447a3.785,3.785,0,0,0,.122-.617l.388.253Z" transform="translate(-201.983 -204.707)" fill="#c26f6b"/>
            </g>
            <rect id="Rectángulo_413608" data-name="Rectángulo 413608" width="9.256" height="2.605" transform="translate(55.6 52.838) rotate(-81.28)" fill="#624746"/>
            <path id="Trazado_1015584" data-name="Trazado 1015584" d="M186.6,203.134a2.446,2.446,0,1,1-2.446-2.446A2.447,2.447,0,0,1,186.6,203.134Z" transform="translate(-126.566 -154.686)" fill="#523f46"/>
            <path id="Trazado_1015585" data-name="Trazado 1015585" d="M185.728,203.287a1.418,1.418,0,1,1-1.418-1.418A1.418,1.418,0,0,1,185.728,203.287Z" transform="translate(-126.718 -154.838)" fill="#978277"/>
          </g>
          <g id="Grupo_1168132" data-name="Grupo 1168132" transform="translate(0 121.549)">
            <path id="Trazado_1015586" data-name="Trazado 1015586" d="M114.373,226.874a31.53,31.53,0,0,0-2.98,19.74c2.085,12.232,4.4,15.179,5.208,29.692s5.107,27.952,2.687,36.284-9.676,17.739-12.9,40.584c0,0,4.416,5.107,13.631,5.644,0,0,6.721-22.359,11.185-28.386s6.249-14.061,7.366-26.115c1.055-11.4,7.25-62.127,5.325-76.447C140.233,228.668,126.223,231.229,114.373,226.874Z" transform="translate(-99.771 -226.874)" fill="#624746"/>
            <path id="Trazado_1015587" data-name="Trazado 1015587" d="M144.752,229.708c-.051-.657-.109-1.283-.184-1.836-3.66.8-17.67,3.357-29.52-1a31.494,31.494,0,0,0-3.19,18.262c1.608-1.846,3.251-3.662,4.954-5.42a17.492,17.492,0,0,1,4.616-3.734,18.647,18.647,0,0,1,3.9-1.258l12.047-2.929C139.7,231.232,142.467,230.825,144.752,229.708Z" transform="translate(-100.446 -226.874)" fill="#523f46"/>
            <g id="Grupo_1168129" data-name="Grupo 1168129" transform="translate(0 152.316)">
              <path id="Trazado_1015588" data-name="Trazado 1015588" d="M98.842,420.984s-.428-15.807,1.175-18.158,3.631,0,6.836,0,5.981-1.5,6.942-.213,1.037,4.245,2.136,4.272c2.761.069,22.964,8.652,23.284,10.36a36.248,36.248,0,0,1,.192,5.468H116.8a7.64,7.64,0,0,0-8.625,0h-7.843a1.5,1.5,0,0,1-1.5-1.542Z" transform="translate(-98.79 -401.782)" fill="#c63a51"/>
              <path id="Trazado_1015589" data-name="Trazado 1015589" d="M101.818,422.721l10.891-1.947s-3.1-6.667-4.977-6.975c-1.33-.219-6.2,1.419-8.933,2.392-.035,3.475.043,6.344.043,6.344l-.006.187h2.983Z" transform="translate(-98.79 -403.331)" fill="#ffad35"/>
              <path id="Trazado_1015590" data-name="Trazado 1015590" d="M116.855,422.239a7.854,7.854,0,0,0-8.759,0h-7.965a1.518,1.518,0,0,1-1.324-.773c.016,1.221.036,1.989.036,1.989l-.006.188a1.5,1.5,0,0,0,1.5,1.542h7.843a7.64,7.64,0,0,1,8.625,0h22.607s.049-1.442.01-2.945H116.855Z" transform="translate(-98.792 -404.253)" fill="#823a51"/>
              <path id="Trazado_1015591" data-name="Trazado 1015591" d="M134.606,416.666a5.692,5.692,0,0,0,2.909-1.257c-6.071-3.139-17.442-7.755-19.464-7.8a.664.664,0,0,1-.481-.253c-.753.82-2.262,2.56-2.359,3.432C115.082,411.947,131.7,417.119,134.606,416.666Z" transform="translate(-100.911 -402.501)" fill="#823a51"/>
              <g id="Grupo_1168128" data-name="Grupo 1168128" transform="translate(15.469 4.604)">
                <path id="Trazado_1015592" data-name="Trazado 1015592" d="M117,413.053a.445.445,0,0,1-.4-.647,15.845,15.845,0,0,1,4.188-5.249.446.446,0,0,1,.532.715,15.258,15.258,0,0,0-3.925,4.936A.443.443,0,0,1,117,413.053Z" transform="translate(-116.553 -407.069)" fill="#ffad35"/>
                <path id="Trazado_1015593" data-name="Trazado 1015593" d="M119.918,414.152a.434.434,0,0,1-.2-.049.446.446,0,0,1-.194-.6,15.824,15.824,0,0,1,4.159-5.192.446.446,0,0,1,.532.715,15.237,15.237,0,0,0-3.9,4.883A.445.445,0,0,1,119.918,414.152Z" transform="translate(-116.93 -407.218)" fill="#ffad35"/>
                <path id="Trazado_1015594" data-name="Trazado 1015594" d="M122.831,415.262a.446.446,0,0,1-.4-.651,15.8,15.8,0,0,1,4.136-5.146.446.446,0,0,1,.532.715,15.222,15.222,0,0,0-3.874,4.839A.447.447,0,0,1,122.831,415.262Z" transform="translate(-117.306 -407.367)" fill="#ffad35"/>
                <path id="Trazado_1015595" data-name="Trazado 1015595" d="M125.839,416.217a.445.445,0,0,1-.393-.655,15.723,15.723,0,0,1,4.028-4.94.445.445,0,0,1,.531.715,15.159,15.159,0,0,0-3.772,4.644A.447.447,0,0,1,125.839,416.217Z" transform="translate(-117.694 -407.517)" fill="#ffad35"/>
                <path id="Trazado_1015596" data-name="Trazado 1015596" d="M128.836,417.193a.446.446,0,0,1-.39-.661,15.7,15.7,0,0,1,3.929-4.758.446.446,0,0,1,.532.715,15.111,15.111,0,0,0-3.68,4.473A.444.444,0,0,1,128.836,417.193Z" transform="translate(-118.082 -407.666)" fill="#ffad35"/>
                <path id="Trazado_1015597" data-name="Trazado 1015597" d="M132.514,418.38a.437.437,0,0,1-.208-.052.446.446,0,0,1-.185-.6,16.63,16.63,0,0,1,3.512-4.526.446.446,0,1,1,.595.664,15.735,15.735,0,0,0-3.318,4.28A.446.446,0,0,1,132.514,418.38Z" transform="translate(-118.557 -407.846)" fill="#ffad35"/>
              </g>
            </g>
            <g id="Grupo_1168131" data-name="Grupo 1168131" transform="translate(63.113 148.21)">
              <path id="Trazado_1015598" data-name="Trazado 1015598" d="M174.406,418.631s-4-15.3-2.973-17.951,3.537-.824,6.658-1.55,5.486-2.813,6.713-1.783,1.972,3.9,3.05,3.677c2.7-.559,24.328,3.219,25.027,4.81a36.291,36.291,0,0,1,1.426,5.283l-22.018,5.127a7.639,7.639,0,0,0-8.4,1.956l-7.638,1.778a1.5,1.5,0,0,1-1.807-1.163Z" transform="translate(-171.264 -397.067)" fill="#c63a51"/>
              <path id="Trazado_1015599" data-name="Trazado 1015599" d="M177.593,419.776l10.165-4.366s-4.533-5.79-6.429-5.666c-1.345.088-5.721,2.788-8.158,4.355.754,3.392,1.48,6.169,1.48,6.169l.037.184Z" transform="translate(-171.511 -398.704)" fill="#ffad35"/>
              <path id="Trazado_1015600" data-name="Trazado 1015600" d="M192.066,415.02a7.855,7.855,0,0,0-8.531,1.986l-7.757,1.806a1.519,1.519,0,0,1-1.465-.453c.292,1.185.486,1.929.486,1.929l.037.184a1.5,1.5,0,0,0,1.807,1.163l7.638-1.778a7.639,7.639,0,0,1,8.4-1.956l22.018-5.127s-.279-1.415-.657-2.871Z" transform="translate(-171.658 -398.725)" fill="#823a51"/>
              <path id="Trazado_1015601" data-name="Trazado 1015601" d="M208.186,406.663a5.681,5.681,0,0,0,2.548-1.885c-6.624-1.681-18.746-3.6-20.727-3.187a.665.665,0,0,1-.526-.137c-.547.969-1.623,3.007-1.52,3.877C188.1,406.494,205.455,407.763,208.186,406.663Z" transform="translate(-173.42 -397.634)" fill="#823a51"/>
              <g id="Grupo_1168130" data-name="Grupo 1168130" transform="translate(16.091 2.816)">
                <path id="Trazado_1015602" data-name="Trazado 1015602" d="M190.188,407.075a.4.4,0,0,1-.106-.013.446.446,0,0,1-.327-.539,15.841,15.841,0,0,1,2.889-6.064.446.446,0,0,1,.68.576,15.264,15.264,0,0,0-2.7,5.7A.447.447,0,0,1,190.188,407.075Z" transform="translate(-189.741 -400.301)" fill="#ffad35"/>
                <path id="Trazado_1015603" data-name="Trazado 1015603" d="M193.279,407.484a.457.457,0,0,1-.108-.013.446.446,0,0,1-.325-.542,15.8,15.8,0,0,1,2.873-6,.446.446,0,1,1,.68.576,15.238,15.238,0,0,0-2.688,5.639A.446.446,0,0,1,193.279,407.484Z" transform="translate(-190.141 -400.362)" fill="#ffad35"/>
                <path id="Trazado_1015604" data-name="Trazado 1015604" d="M196.367,407.9a.428.428,0,0,1-.109-.014.445.445,0,0,1-.324-.541,15.826,15.826,0,0,1,2.861-5.949.446.446,0,0,1,.681.576,15.214,15.214,0,0,0-2.676,5.591A.448.448,0,0,1,196.367,407.9Z" transform="translate(-190.539 -400.422)" fill="#ffad35"/>
                <path id="Trazado_1015605" data-name="Trazado 1015605" d="M199.5,408.155a.442.442,0,0,1-.115-.015.447.447,0,0,1-.316-.546,15.759,15.759,0,0,1,2.8-5.725.446.446,0,1,1,.68.576,15.151,15.151,0,0,0-2.621,5.378A.444.444,0,0,1,199.5,408.155Z" transform="translate(-190.945 -400.483)" fill="#ffad35"/>
                <path id="Trazado_1015606" data-name="Trazado 1015606" d="M202.64,408.431a.478.478,0,0,1-.12-.017.446.446,0,0,1-.309-.55,15.727,15.727,0,0,1,2.749-5.526.446.446,0,0,1,.68.577,15.1,15.1,0,0,0-2.57,5.19A.448.448,0,0,1,202.64,408.431Z" transform="translate(-191.35 -400.544)" fill="#ffad35"/>
                <path id="Trazado_1015607" data-name="Trazado 1015607" d="M206.484,408.765a.431.431,0,0,1-.114-.015.445.445,0,0,1-.317-.544A16.694,16.694,0,0,1,208.446,403a.447.447,0,0,1,.731.514,15.737,15.737,0,0,0-2.262,4.919A.446.446,0,0,1,206.484,408.765Z" transform="translate(-191.846 -400.625)" fill="#ffad35"/>
              </g>
            </g>
            <path id="Trazado_1015608" data-name="Trazado 1015608" d="M106.978,373.076l-4.42,25.014c1.261.127,2.8,1.028,4.781,1.028,2.714,0,5.117-1.067,6.375-.616l4.728-20.9A21.1,21.1,0,0,1,106.978,373.076Z" transform="translate(-99.276 -245.758)" fill="#ee957c"/>
            <path id="Trazado_1015609" data-name="Trazado 1015609" d="M106.99,376.25a82.7,82.7,0,0,0,9.823,11.081l2.2-9.727a21.1,21.1,0,0,1-11.463-4.528Z" transform="translate(-99.849 -245.758)" fill="#d87e7c"/>
            <path id="Trazado_1015610" data-name="Trazado 1015610" d="M169.369,321.688c-.233-8.1,1.968-20.286-2.4-29.913-8.938-19.706-17.876-46.824-17.876-46.824h0c-.577,14.084-2.526,33.307-3.981,47,4.3,5.284,6.833,11.047,7.272,22.9.506,13.671,7.848,43.293,7.848,43.293,5.316.759,13.165-3.291,13.165-3.291S169.6,329.79,169.369,321.688Z" transform="translate(-104.773 -229.209)" fill="#5c4346"/>
            <path id="Trazado_1015611" data-name="Trazado 1015611" d="M175.1,371.579c-1.866.874-6.814,2.985-10.926,3.005,1.139,4.129,4.186,14.878,6.925,21.879,1.238-1.213,3.435-.011,6.074-.625,2.154-.5,3.947-1.649,5.255-1.975C180.795,389.081,177.385,379,175.1,371.579Z" transform="translate(-107.235 -245.565)" fill="#ee957c"/>
            <path id="Trazado_1015612" data-name="Trazado 1015612" d="M149.1,244.952h0c-.578,14.085-2.527,33.307-3.981,47,.685.844,1.321,1.7,1.916,2.593.886-13.188,5.168-29.161,6.42-36.994C151.543,252.114,149.1,244.952,149.1,244.952Z" transform="translate(-104.773 -229.209)" fill="#523f46"/>
            <path id="Trazado_1015613" data-name="Trazado 1015613" d="M175.748,373.653c-.222-.707-.44-1.4-.646-2.074-1.866.874-6.814,2.985-10.926,3.005.446,1.616,1.187,4.254,2.085,7.278.021-.024.049-.053.067-.075a49.491,49.491,0,0,1,6.273-6C173.505,375.068,174.755,374.43,175.748,373.653Z" transform="translate(-107.235 -245.565)" fill="#d87e7c"/>
          </g>
        </g>
        <g id="Grupo_1168143" data-name="Grupo 1168143" transform="translate(389.866 2.76)">
          <path id="Trazado_1015614" data-name="Trazado 1015614" d="M608.033,215.667a47.894,47.894,0,0,1,7.38,21.241c.9,11.881,1.26,27.9,5.4,36.541,0,0-17.281,6.12-29.161,4.68l-1.608-3.257s-13.463,6.684-21.62.566L566.5,252.78l3.693-38.057Z" transform="translate(-503.848 -84.531)" fill="#4b455e"/>
          <path id="Trazado_1015615" data-name="Trazado 1015615" d="M615.873,236.908a47.894,47.894,0,0,0-7.38-21.241l-37.842-.943-.6,6.171c2.275.227,4.517.254,6.281.3a22.566,22.566,0,0,1,12.652,3.332l8.517,4.3a80.069,80.069,0,0,1,12.992,7.621,53.257,53.257,0,0,1,5.706,5.176C616.093,240,615.988,238.42,615.873,236.908Z" transform="translate(-504.307 -84.531)" fill="#393548"/>
          <g id="Grupo_1168135" data-name="Grupo 1168135" transform="translate(52.339 43.368)">
            <path id="Trazado_1015616" data-name="Trazado 1015616" d="M599.74,119.606s-6.314-3.4-8.556-3.559-15.954,7.893-15.954,7.893-3.782,10.844-4.282,16.807.378,54.18,1.6,62.247c0,0,13.472,4.073,24.593,1.1,0,0-1.028-54.907.831-64.269A116.492,116.492,0,0,0,599.74,119.606Z" transform="translate(-556.743 -115.154)" fill="#5aa9e0"/>
            <path id="Trazado_1015617" data-name="Trazado 1015617" d="M588.291,125.822a16.174,16.174,0,0,1-11.535,3.676,3.69,3.69,0,0,1-1.318-.29,2.743,2.743,0,0,1-1.369-2.633,6.138,6.138,0,0,1,1.111-2.905,18.894,18.894,0,0,1,10.371-7.615c1.854-.579,4.473-1.364,6.419-.885,2.3.566,1.561,2.666.888,4.332A16.148,16.148,0,0,1,588.291,125.822Z" transform="translate(-557.164 -115.022)" fill="#86e7ee"/>
            <path id="Trazado_1015618" data-name="Trazado 1015618" d="M601.987,120.134s-2.654,8.459-5.719,17.065c-4.784,13.437-2.159,37.793-.256,45.431a67.515,67.515,0,0,0-7.817,5.789s4.393,6.631,4.793,11.424c0,0,2.556-.719,4.074-1.2l-.159,13.34a19.652,19.652,0,0,0,9.506,0c4.554-1.358,9.665-.639,10.465-.8s-2.316-16.616-1.6-22.048c0,0,11.512-5.6,13.11-9.411s-.615-15.112-2.949-20.764-4.055-24.2-10.2-29.979A51.878,51.878,0,0,0,601.987,120.134Z" transform="translate(-558.989 -115.682)" fill="#8b5346"/>
            <g id="Grupo_1168134" data-name="Grupo 1168134" transform="translate(38.073 73.455)">
              <path id="Trazado_1015619" data-name="Trazado 1015619" d="M598.378,208.878h0c9.044.129,16.426,5.552,19.636,8.342-.617-5.291-1.914-14.139-1.423-17.848Z" transform="translate(-598.378 -199.372)" fill="#724746"/>
              <path id="Trazado_1015620" data-name="Trazado 1015620" d="M598.378,210.288Z" transform="translate(-598.378 -200.782)" fill="#724746"/>
            </g>
            <path id="Trazado_1015621" data-name="Trazado 1015621" d="M597.172,185.764s12.282-8.171,18.268-11.034c0,0-10.02-19.52-11.581-30.321a75.4,75.4,0,0,0,8.084,28.835l-14.771,12.52" transform="translate(-560.149 -118.818)" fill="#724746"/>
            <path id="Trazado_1015622" data-name="Trazado 1015622" d="M554.716,202.523c-.469-26.869,1.964-60.99,5.439-66.967s12.518-10.6,12.518-10.6-6.291,15.2-1.115,81.375l-9.767-2.286v9.167l-7.133-1.706Z" transform="translate(-554.658 -116.305)" fill="#8b5346"/>
            <path id="Trazado_1015623" data-name="Trazado 1015623" d="M562.8,148.139v52.576l2.489,2.593C566.056,186.172,562.8,148.139,562.8,148.139Z" transform="translate(-555.709 -119.299)" fill="#724746"/>
            <path id="Trazado_1015624" data-name="Trazado 1015624" d="M604.584,121.157c-1.286-.672-2.091-1.023-2.091-1.023s-2.654,8.459-5.719,17.065c-4.784,13.437-2.159,37.793-.256,45.431,0,0-2.118,1.341-4.407,3.032l6.61-4.477c-5.965-28.158-.956-42.548,1.681-48.128A78.258,78.258,0,0,0,604.584,121.157Z" transform="translate(-559.495 -115.682)" fill="#97916b"/>
            <path id="Trazado_1015625" data-name="Trazado 1015625" d="M601.05,223.906V208.655l-2.766,1.444.071-.022-.159,13.34A19.681,19.681,0,0,0,601.05,223.906Z" transform="translate(-560.281 -127.116)" fill="#97916b"/>
            <path id="Trazado_1015626" data-name="Trazado 1015626" d="M601.073,210.287v-1.614l-2.7,1.406A23.527,23.527,0,0,1,601.073,210.287Z" transform="translate(-560.305 -127.118)" fill="#87776b"/>
          </g>
          <path id="Trazado_1015627" data-name="Trazado 1015627" d="M587.763,281.345a33.739,33.739,0,0,0,4.662-1.784s-6.374-19.137-7.5-28.532C584.923,251.029,586.305,272.809,587.763,281.345Z" transform="translate(-506.228 -89.221)" fill="#393548"/>
          <path id="Trazado_1015628" data-name="Trazado 1015628" d="M660.161,366.192s-6.469-12.937-10.707-24.537S633.592,319.13,631.325,314.6c-1.967-3.934-7.224-25.906-8.579-31.646-4.6,1.445-15.895,4.621-24.993,4.163l-.069.048c6.026,23.076,21.019,35.382,25.546,41.605s25.847,41.407,25.847,41.407a8.577,8.577,0,0,1,.109,2.949c.437,1.965,3.932.765,7.973,0S660.161,366.192,660.161,366.192Z" transform="translate(-507.876 -93.344)" fill="#ee957c"/>
          <path id="Trazado_1015629" data-name="Trazado 1015629" d="M667.567,378.992a.678.678,0,0,0-1.138.25,8.935,8.935,0,0,1-8.411,5.793c-.992-.034-2.228-.122-2.716.741a2.873,2.873,0,0,0-.218,1.328c-.133,3.607-1.7,6.988-3.378,10.184s-3.547,6.326-4.632,9.768a7.564,7.564,0,0,0-.219,4.952c.91,2.348,3.61,3.5,6.116,3.744a9.863,9.863,0,0,0,3.086-.133c3.273-.725,5.681-3.584,7.082-6.631,2.157-4.692,2.587-10.237,5.8-14.283,1.075-1.355,2.444-2.514,3.169-4.083a11.113,11.113,0,0,0,.772-4.092,4.27,4.27,0,0,0-.1-1.493,4.373,4.373,0,0,0-1.068-1.583C670.444,382.072,668.92,380.455,667.567,378.992Z" transform="translate(-514.185 -105.721)" fill="#8b5346"/>
          <path id="Trazado_1015630" data-name="Trazado 1015630" d="M672.777,385.713a4.377,4.377,0,0,0-1.068-1.583l-.111-.121c0,.027,0,.055,0,.083a11.106,11.106,0,0,1-.771,4.092c-.725,1.57-2.094,2.729-3.169,4.083-3.209,4.046-3.639,9.59-5.8,14.283-1.4,3.046-3.808,5.905-7.082,6.63-1.009.224-2.3-1.374-3.273-1.731-3.273-1.2-3.874-.6-4.966-.367a5.056,5.056,0,0,0,.318,1.6c.91,2.348,3.61,3.5,6.116,3.744a9.863,9.863,0,0,0,3.086-.133c3.273-.725,5.681-3.584,7.082-6.631,2.157-4.692,2.587-10.237,5.8-14.283,1.075-1.355,2.445-2.514,3.169-4.083a11.115,11.115,0,0,0,.772-4.092A4.249,4.249,0,0,0,672.777,385.713Z" transform="translate(-514.187 -106.397)" fill="#b8a994"/>
          <path id="Trazado_1015631" data-name="Trazado 1015631" d="M661.949,391.093a.692.692,0,0,0-.551-.125,17.992,17.992,0,0,1-4.414-.033,5.662,5.662,0,0,0-1.659-.225,29.071,29.071,0,0,1-3.135,8.117c-.625,1.194-1.279,2.379-1.908,3.574a2.542,2.542,0,0,0,2.03,1.318,5.966,5.966,0,0,0,4.036-.3,5.606,5.606,0,0,0,2.35-3.081c.463-1.236.721-2.546,1.245-3.757.721-1.664,1.95-3.168,2.118-4.974A.637.637,0,0,0,661.949,391.093Z" transform="translate(-514.67 -107.261)" fill="#613c3c"/>
          <g id="Grupo_1168136" data-name="Grupo 1168136" transform="translate(135.605 284.707)">
            <path id="Trazado_1015632" data-name="Trazado 1015632" d="M662.869,394.094h-.007a59.172,59.172,0,0,1-8.367-1.051.448.448,0,0,1-.351-.525.437.437,0,0,1,.525-.351,59.337,59.337,0,0,0,8.207,1.035.446.446,0,0,1-.007.893Z" transform="translate(-650.773 -392.156)" fill="#b8a994"/>
            <path id="Trazado_1015633" data-name="Trazado 1015633" d="M662.224,396.462h-.007a59.15,59.15,0,0,1-8.365-1.05.446.446,0,1,1,.172-.876,59.44,59.44,0,0,0,8.208,1.034.446.446,0,0,1-.008.893Z" transform="translate(-650.69 -392.463)" fill="#b8a994"/>
            <path id="Trazado_1015634" data-name="Trazado 1015634" d="M661.273,398.832h-.007a59.222,59.222,0,0,1-8.365-1.051.445.445,0,0,1-.352-.524.44.44,0,0,1,.524-.352,59.543,59.543,0,0,0,8.208,1.035.446.446,0,0,1-.008.893Z" transform="translate(-650.567 -392.769)" fill="#b8a994"/>
            <path id="Trazado_1015635" data-name="Trazado 1015635" d="M660.032,401.2h-.007a59.166,59.166,0,0,1-8.367-1.051.448.448,0,0,1-.351-.525.436.436,0,0,1,.525-.351,59.346,59.346,0,0,0,8.207,1.035.446.446,0,0,1-.007.893Z" transform="translate(-650.407 -393.074)" fill="#b8a994"/>
            <path id="Trazado_1015636" data-name="Trazado 1015636" d="M659.007,403.571H659a59.272,59.272,0,0,1-8.365-1.051.446.446,0,0,1-.352-.524.44.44,0,0,1,.524-.352,59.539,59.539,0,0,0,8.209,1.035.446.446,0,0,1-.009.893Z" transform="translate(-650.274 -393.381)" fill="#b8a994"/>
          </g>
          <path id="Trazado_1015637" data-name="Trazado 1015637" d="M593.821,287.184c-.5-.034-.987-.076-1.467-.134l-1.608-3.257s-10.713,5.312-18.817,2.116A60.555,60.555,0,0,0,574.2,301.1c3.025,11.668,8.21,78.433,7.13,87.724l.145,3.064,12.88-1.308s-1.774-14.222,0-24.522,2.434-35.133,0-50.535C592.73,305.22,593.279,293.7,593.821,287.184Z" transform="translate(-504.55 -93.452)" fill="#ee957c"/>
          <path id="Trazado_1015638" data-name="Trazado 1015638" d="M576.431,405.9c2.218-1.658,6.964.692,9.654.036,1.547-.377,3.036-1.093,4.628-1.111a1.515,1.515,0,0,1,1.026.277,1.48,1.48,0,0,1,.411.821,7.275,7.275,0,0,1,.025,2.808c-.735,4.271,1.089,8.638.663,12.85a1.723,1.723,0,0,1-1.724,1.527H580.533s-1.682-1.829-5.889,0H550.219a1.72,1.72,0,0,1-1.711-1.975c.344-2.114,1.424-5.213,4.785-5.556C558.447,415.049,570.889,410.042,576.431,405.9Z" transform="translate(-501.522 -109.085)" fill="#8b5346"/>
          <path id="Trazado_1015639" data-name="Trazado 1015639" d="M591.968,421.759H581.176s-1.716-1.829-6.007,0h-24.91a1.78,1.78,0,0,1-1.238-.505,10.367,10.367,0,0,0-.512,1.959,1.719,1.719,0,0,0,1.711,1.975h24.424c4.207-1.829,5.89,0,5.89,0h10.581a1.723,1.723,0,0,0,1.724-1.527,14.565,14.565,0,0,0,.031-2.145A1.808,1.808,0,0,1,591.968,421.759Z" transform="translate(-501.522 -111.168)" fill="#b8a994"/>
          <path id="Trazado_1015640" data-name="Trazado 1015640" d="M576.46,407.364l-.009,0a75.187,75.187,0,0,1-14.909,6.888,1.79,1.79,0,0,0,.192.607,1.36,1.36,0,0,0,.563.569,2.2,2.2,0,0,0,1.081.143c4.818-.174,9.869-.536,13.947-3.108a4.537,4.537,0,0,0,1.338-1.161,1.941,1.941,0,0,0,.328-1.687A5.3,5.3,0,0,0,576.46,407.364Z" transform="translate(-503.208 -109.413)" fill="#613c3c"/>
          <g id="Grupo_1168137" data-name="Grupo 1168137" transform="translate(59.514 297.987)">
            <path id="Trazado_1015641" data-name="Trazado 1015641" d="M580.867,413.493a.45.45,0,0,1-.219-.057,14.281,14.281,0,0,1-5.124-5.383.446.446,0,1,1,.794-.407,13.608,13.608,0,0,0,4.766,5.012.446.446,0,0,1-.218.834Z" transform="translate(-564.522 -407.405)" fill="#b8a994"/>
            <path id="Trazado_1015642" data-name="Trazado 1015642" d="M577.561,414.671a.45.45,0,0,1-.219-.057,14.277,14.277,0,0,1-5.124-5.384.446.446,0,1,1,.795-.407,13.608,13.608,0,0,0,4.766,5.013.446.446,0,0,1-.219.835Z" transform="translate(-564.095 -407.557)" fill="#b8a994"/>
            <path id="Trazado_1015643" data-name="Trazado 1015643" d="M573.885,415.952a.441.441,0,0,1-.255-.08,14.694,14.694,0,0,1-4.25-4.834.446.446,0,0,1,.794-.406,14.027,14.027,0,0,0,3.966,4.508.446.446,0,0,1-.255.812Z" transform="translate(-563.728 -407.791)" fill="#b8a994"/>
            <path id="Trazado_1015644" data-name="Trazado 1015644" d="M569.977,416.9a.44.44,0,0,1-.268-.09,14.856,14.856,0,0,1-3.921-4.6.446.446,0,0,1,.794-.406,14.148,14.148,0,0,0,3.663,4.289.446.446,0,0,1,.088.624A.442.442,0,0,1,569.977,416.9Z" transform="translate(-563.264 -407.943)" fill="#b8a994"/>
            <path id="Trazado_1015645" data-name="Trazado 1015645" d="M565.816,417.479a.447.447,0,0,1-.316-.132,15.015,15.015,0,0,1-2.554-3.4.446.446,0,1,1,.794-.407,14.386,14.386,0,0,0,2.391,3.18.446.446,0,0,1,0,.63A.439.439,0,0,1,565.816,417.479Z" transform="translate(-562.897 -408.166)" fill="#b8a994"/>
          </g>
          <g id="Grupo_1168138" data-name="Grupo 1168138" transform="translate(49.626)">
            <path id="Trazado_1015646" data-name="Trazado 1015646" d="M555.225,87.285a6.139,6.139,0,0,0,0,4.741c1.125,2.169,2.973,5.384,2.973,7.955s-.8,4.259,0,4.5,2.41.161,2.732.884,4.178,9.321,7.232,9.16a8.2,8.2,0,0,0,5.223-2.813s.724,7.474.643,10.125c0,0,11.223-.081,15.08-10.709l-1.972-8.657s.358-5.788,1.156-8.07-.912-15.516-5.819-16.315-24.529,2.852-25.442,4.221A22.816,22.816,0,0,0,555.225,87.285Z" transform="translate(-551.953 -66.868)" fill="#ee957c"/>
            <path id="Trazado_1015647" data-name="Trazado 1015647" d="M556.917,76.317c-2.646,1.261-5.024,3.392-5.35,6.576a4.954,4.954,0,0,0,.836,3.242A2.756,2.756,0,0,0,553.7,87.27a2.209,2.209,0,0,0,.889.095c1.785-.136,3.1-1.659,4.208-3.068a5.35,5.35,0,0,0,4.476,3.64,5.991,5.991,0,0,0,5.292-2.39,7.416,7.416,0,0,0,3.623,3.418,4.475,4.475,0,0,0,4.676-.78,31.124,31.124,0,0,0,2.568,6.613.627.627,0,0,0,1.16-.3c.059-1.515.136-3.2.17-4.473a12,12,0,0,0-.047-1.857,2.113,2.113,0,0,1,2.293-2.4,2.841,2.841,0,0,1,2.2,1.977,4.466,4.466,0,0,1-.26,3.1,6.359,6.359,0,0,1-2.309,2.763c-.265,2.5,1.3,5.045,3.272,6.6a3.553,3.553,0,0,0,3.136.939.624.624,0,0,0,.351-.228.722.722,0,0,0,.084-.327,16.8,16.8,0,0,0-.067-3.7s7.557-7.61-1.723-16.96c0,0,1.757-8.606-4.537-10.861a9.475,9.475,0,0,0-8.249.962s-2.569-5.735-8.937-4.675C556.892,66.866,556.917,76.317,556.917,76.317Z" transform="translate(-551.543 -65.221)" fill="#5c364b"/>
            <path id="Trazado_1015648" data-name="Trazado 1015648" d="M581.253,109.709c-.536,1.64-4.145,5.211-5.1,6.134.023.231.358,3.743.536,6.75C579.969,119.7,581.253,109.709,581.253,109.709Z" transform="translate(-554.722 -70.967)" fill="#d87e7c"/>
            <path id="Trazado_1015649" data-name="Trazado 1015649" d="M564.327,99.151c.324.89.3,1.714-.047,1.841s-.9-.491-1.219-1.38-.3-1.714.047-1.841S564,98.262,564.327,99.151Z" transform="translate(-553.001 -69.423)" fill="#5c364b"/>
            <path id="Trazado_1015650" data-name="Trazado 1015650" d="M560.068,96.422a.446.446,0,0,1-.308-.769,4.378,4.378,0,0,1,4.468-.913.446.446,0,1,1-.313.835,3.469,3.469,0,0,0-3.539.725A.444.444,0,0,1,560.068,96.422Z" transform="translate(-552.586 -69)" fill="#5c364b"/>
            <path id="Trazado_1015651" data-name="Trazado 1015651" d="M566.231,114.02a.446.446,0,0,1-.03-.891,3.886,3.886,0,0,0,2.068-.885,11.318,11.318,0,0,0,1.685-1.777.446.446,0,0,1,.692.563,12,12,0,0,1-1.824,1.913,4.7,4.7,0,0,1-2.561,1.075Z" transform="translate(-553.382 -71.044)" fill="#5c364b"/>
            <path id="Trazado_1015652" data-name="Trazado 1015652" d="M587.354,90.457a1.519,1.519,0,0,1,.991.549,1.488,1.488,0,0,1,.224.951,5.293,5.293,0,0,1-.833,2.221c-.072.128-.165.272-.31.29-.068.009-.138-.012-.206,0-.191.025-.272.253-.3.442a1.12,1.12,0,0,1-.152.492.34.34,0,0,1-.453.113c-.095-1.2-.134-2.418-.286-3.611-.046-.363-.2-.65.006-.99A1.2,1.2,0,0,1,587.354,90.457Z" transform="translate(-555.984 -68.476)" fill="#d87e7c"/>
          </g>
          <g id="Grupo_1168140" data-name="Grupo 1168140" transform="translate(0 89.105)">
            <path id="Trazado_1015653" data-name="Trazado 1015653" d="M574.364,242.17l-25.875,16.485a2.753,2.753,0,0,1-3.6-.568l-40.516-49,43.71-27.848,27.288,57.426A2.752,2.752,0,0,1,574.364,242.17Z" transform="translate(-495.824 -169.311)" fill="#ff4c58"/>
            <path id="Trazado_1015654" data-name="Trazado 1015654" d="M548.082,181.24l-43.71,27.848,10.4,12.583c9.346-16.251,28.832-34.724,33.829-39.33Z" transform="translate(-495.824 -169.311)" fill="#b24958"/>
            <path id="Trazado_1015655" data-name="Trazado 1015655" d="M550.783,177.678l-52.05,33.161-4.177-5.129,53.365-32.473Z" transform="translate(-494.556 -168.277)" fill="#ff6f58"/>
            <g id="Grupo_1168139" data-name="Grupo 1168139" transform="translate(36.414 39.215)">
              <path id="Trazado_1015656" data-name="Trazado 1015656" d="M566.709,226.523l-7.064-4-1.429,2.524,6.942,3.929-6.571,4.419.209-2.929-2.892-.206-.5,7.022,6.693,2.187.9-2.756L560.2,235.8l6.689-4.5a2.812,2.812,0,0,0-.185-4.781Z" transform="translate(-538.829 -213.859)" fill="#fff"/>
              <path id="Trazado_1015657" data-name="Trazado 1015657" d="M548.791,219.651l-2.725.718.737,2.8,6.81-1.792-.091-7.041-2.9.037.038,3-7.838-4.437a2.813,2.813,0,0,0-4.176,2.807l1.058,8.2,2.876-.371-1.036-8.033Z" transform="translate(-536.662 -212.573)" fill="#fff"/>
              <path id="Trazado_1015658" data-name="Trazado 1015658" d="M543.5,235.319l2.4,1.4,1.457-2.506-6.087-3.537-4.907,5.05,2.08,2.02,2.156-2.22.944,7.317a2.812,2.812,0,0,0,4.358,1.973l6.012-4.042-1.618-2.406-5.9,3.964Z" transform="translate(-536.371 -214.911)" fill="#fff"/>
            </g>
            <path id="Trazado_1015659" data-name="Trazado 1015659" d="M516.562,191.3l1.393-11.831,3.31-1.128,2.265,3.269,4.534-2.141s2.958-11.929,3.481-11.929h10.043l4.022,8.094-27.829,16.993Z" transform="translate(-497.398 -167.542)" fill="#a8a8c5"/>
            <path id="Trazado_1015660" data-name="Trazado 1015660" d="M503.251,202.986l-2.207-4.754,2.9-1.337,3.2-7.728,2.816.643V192.3l5.632-1.1,2.269,2.894Z" transform="translate(-495.394 -170.335)" fill="#c4c7e6"/>
            <path id="Trazado_1015661" data-name="Trazado 1015661" d="M537.873,182.774v-3.812s3.566.758,3.566,0v-3.022l4.582-2.724h3.605l.467,2.1Z" transform="translate(-500.151 -168.275)" fill="#c4c7e6"/>
          </g>
          <g id="Grupo_1168142" data-name="Grupo 1168142" transform="translate(45.245 115.665)">
            <path id="Trazado_1015662" data-name="Trazado 1015662" d="M583.266,199.2s-5.582,3.56-7.94,3.312-7.077-1.738-9.436-2.359-4.293-1.986-5.411-2.111l3.216,6.768s-3.23,3.362-7.133,4.064a34.444,34.444,0,0,1-6.1.657s-1.4-.175-1.667.657a1.585,1.585,0,0,0,1.354,2.226,6.119,6.119,0,0,1-2.47,0c-.851-.313-1.866,1.477-.511,2.354a9.151,9.151,0,0,0,3.7,1s-.664,1.536.221,1.979a14.941,14.941,0,0,0,6.311.9s-.941.539-.941,1.093.48,1.214,1.919,1.38,8.433.115,10.813-1.048,8.692-5.923,11.792-8.249a18.678,18.678,0,0,1,6.473-2.945C586.793,205.21,584.3,200.878,583.266,199.2Z" transform="translate(-546.512 -198.042)" fill="#ee957c"/>
            <path id="Trazado_1015663" data-name="Trazado 1015663" d="M585.574,212.382a14.772,14.772,0,0,1,1.8-1.147,3.267,3.267,0,0,0-.514-1.413,58.805,58.805,0,0,1-3.253-6.586,2.307,2.307,0,0,0-.683-.88c-.294.121-.584.232-.868.328a1.432,1.432,0,0,0-.045.2c-.129,1.218.587,2.774.752,4a25.531,25.531,0,0,1-.158,7.716C583.73,213.767,584.763,212.991,585.574,212.382Z" transform="translate(-551.095 -198.599)" fill="#d87e7c"/>
            <path id="Trazado_1015664" data-name="Trazado 1015664" d="M587.948,212.119h0a1.094,1.094,0,0,1-1.459-.516l-4.475-9.383a1.094,1.094,0,0,1,.516-1.459h0a1.094,1.094,0,0,1,1.458.516l4.475,9.383A1.1,1.1,0,0,1,587.948,212.119Z" transform="translate(-551.084 -198.379)" fill="#ffd041"/>
            <g id="Grupo_1168141" data-name="Grupo 1168141" transform="translate(0.638 10.912)">
              <path id="Trazado_1015665" data-name="Trazado 1015665" d="M550.175,214.475a16.96,16.96,0,0,0,2.518.166,17.548,17.548,0,0,0,10.582-3.269.445.445,0,0,0-.541-.708c-5.267,4.027-12.347,2.942-12.432,2.929l-1.178-.15a2.059,2.059,0,0,0,1.122.591,6.12,6.12,0,0,1-2.47,0,.635.635,0,0,0-.532.069Z" transform="translate(-547.245 -210.573)" fill="#be6b67"/>
              <path id="Trazado_1015666" data-name="Trazado 1015666" d="M568.059,219.149a19.634,19.634,0,0,1-8.538,1.8c-.55,0-.876-.02-.916-.019l-2.216.4a21.061,21.061,0,0,0,2.3.044,3.132,3.132,0,0,0-.692.563l.659-.119a20.789,20.789,0,0,0,9.817-1.872.446.446,0,0,0-.409-.793Z" transform="translate(-548.426 -211.674)" fill="#be6b67"/>
              <path id="Trazado_1015667" data-name="Trazado 1015667" d="M551.158,218.375l.17-.033a24.261,24.261,0,0,0,14.4-3.048.446.446,0,1,0-.454-.768,23.766,23.766,0,0,1-13.9,2.923.461.461,0,0,0-.147,0l-1.312.256a11.609,11.609,0,0,0,1.4.182A3.686,3.686,0,0,0,551.158,218.375Z" transform="translate(-547.59 -211.075)" fill="#be6b67"/>
            </g>
          </g>
          <path id="Trazado_1015668" data-name="Trazado 1015668" d="M593.278,299.506c.016-4.811.279-9.159.542-12.321-.5-.034-.987-.076-1.466-.134l-1.608-3.257s-10.713,5.312-18.817,2.116c0,.842.035,1.966.145,3.32,1.351.42,3.164.482,4.182.754a39.849,39.849,0,0,1,12.222,5.628A38.874,38.874,0,0,1,593.278,299.506Z" transform="translate(-504.55 -93.453)" fill="#d87e7c"/>
          <path id="Trazado_1015669" data-name="Trazado 1015669" d="M622.745,282.95c-4.6,1.445-15.894,4.621-24.993,4.163l-.069.048c.193.741.421,1.44.632,2.16a5.16,5.16,0,0,0,2,.445c4.837.263,9.763-.008,14.61.017a31.43,31.43,0,0,1,7.909.718,18.809,18.809,0,0,1,1.882.624C623.849,287.6,623.135,284.6,622.745,282.95Z" transform="translate(-507.876 -93.344)" fill="#d87e7c"/>
        </g>
        <rect id="Rectángulo_413609" data-name="Rectángulo 413609" width="546.964" height="9.093" transform="translate(12.27 316.781)" fill="#b6c6e6"/>
        <g id="Grupo_1168163" data-name="Grupo 1168163" transform="translate(222.774)">
          <path id="Trazado_1015670" data-name="Trazado 1015670" d="M337.5,444.528a4.867,4.867,0,0,0,1.046,8.822,30.829,30.829,0,0,0,8.3,1.356c10.153.343,20.152-3.214,30.293-3.933,20.147-1.426,39.929,8.36,60.1,8.116,3.14-.038,6.457-.4,9.038-2.763a6.385,6.385,0,0,0,2.188-5.073c-.269-3.082-3.05-4.426-5.363-4.945-8.708-1.954-17.6-1.622-26.436-1.444q-22.884.462-45.767-.5c-7.664-.323-15.425-.427-23.065-1.334A16.362,16.362,0,0,0,337.5,444.528Z" transform="translate(-306.872 -111.212)" fill="#dae2f0"/>
          <g id="Grupo_1168162" data-name="Grupo 1168162">
            <g id="Grupo_1168145" data-name="Grupo 1168145" transform="translate(105.865 314.668)">
              <path id="Trazado_1015671" data-name="Trazado 1015671" d="M424.251,423.691a5.9,5.9,0,0,0,.675-.076c3.112-.534,11.457.054,15.108.045a33.607,33.607,0,0,0,.768,7.375c.779,2.376,6.583,8.76,8.229,12.62s-2.945,5.228-2.945,5.228h-9.3c-4.637.1-7.8-4.071-9.84-5.913s-1.923-6.785-1.81-12.31-.89-6.968-.89-6.968Z" transform="translate(-424.248 -423.391)" fill="#4b455e"/>
              <path id="Trazado_1015672" data-name="Trazado 1015672" d="M425.139,430.662c.113-5.525-.89-6.968-.89-6.968l0,0a5.9,5.9,0,0,0,.675-.076,24.266,24.266,0,0,1,3.485-.22c.636,1.925,2.516,7.854,2.671,11.161.134,2.872-2.238,6.894-3.507,9.011-.219-.215-.428-.42-.625-.6C424.913,441.13,425.026,436.186,425.139,430.662Z" transform="translate(-424.248 -423.392)" fill="#6c6387"/>
              <path id="Trazado_1015673" data-name="Trazado 1015673" d="M433.172,446.227c3.172-.289,4.925-2.66,9.311-1.214s5.991,2.08,6.571.468c.036.077.079.16.111.235,1.646,3.86-2.945,5.228-2.945,5.228h-9.3c-4.637.1-7.8-4.071-9.84-5.913-1.156-1.046-1.619-3.095-1.783-5.68C426.5,441.065,430.5,446.47,433.172,446.227Z" transform="translate(-424.384 -425.453)" fill="#332c47"/>
              <path id="Trazado_1015674" data-name="Trazado 1015674" d="M437.644,423.585c1.6.056,3.062.1,4.121.1a33.612,33.612,0,0,0,.768,7.375c.392,1.193,2.05,3.4,3.812,5.785a.452.452,0,0,1-.156.369.7.7,0,0,1-.422.079,6.055,6.055,0,0,1-4.219-2.1,10.5,10.5,0,0,1-2-3.938,27.57,27.57,0,0,1-.909-3.96,10.613,10.613,0,0,0-.536-2.957A5.263,5.263,0,0,0,437.644,423.585Z" transform="translate(-425.978 -423.416)" fill="#6c6387"/>
              <g id="Grupo_1168144" data-name="Grupo 1168144" transform="translate(3.463 1.527)">
                <path id="Trazado_1015675" data-name="Trazado 1015675" d="M430.42,436.068a.344.344,0,0,1-.147-.655c4.076-1.931,10.311-.913,10.576-.869a.344.344,0,1,1-.115.679c-.061-.01-6.288-1.026-10.168.812A.357.357,0,0,1,430.42,436.068Z" transform="translate(-428.464 -426.319)" fill="#d7e5e6"/>
                <path id="Trazado_1015676" data-name="Trazado 1015676" d="M429.841,432.591a.345.345,0,0,1-.147-.656c4.073-1.931,10.311-.912,10.575-.868a.344.344,0,0,1-.115.679c-.061-.01-6.288-1.028-10.167.812A.351.351,0,0,1,429.841,432.591Z" transform="translate(-428.389 -425.87)" fill="#d7e5e6"/>
                <path id="Trazado_1015677" data-name="Trazado 1015677" d="M428.895,430.082a.344.344,0,0,1-.147-.655c4.077-1.932,10.311-.914,10.576-.87a.344.344,0,1,1-.115.679c-.061-.01-6.288-1.026-10.168.812A.325.325,0,0,1,428.895,430.082Z" transform="translate(-428.267 -425.546)" fill="#d7e5e6"/>
                <path id="Trazado_1015678" data-name="Trazado 1015678" d="M428.569,426.976a.344.344,0,0,1-.147-.655c4.076-1.932,10.311-.913,10.575-.868a.346.346,0,0,1,.282.4.351.351,0,0,1-.4.282c-.062-.01-6.288-1.028-10.166.811A.358.358,0,0,1,428.569,426.976Z" transform="translate(-428.225 -425.145)" fill="#d7e5e6"/>
              </g>
            </g>
            <g id="Grupo_1168147" data-name="Grupo 1168147" transform="translate(40.107 314.668)">
              <path id="Trazado_1015679" data-name="Trazado 1015679" d="M373.873,423.691a5.88,5.88,0,0,1-.675-.076c-3.112-.534-11.457.054-15.108.045a33.615,33.615,0,0,1-.768,7.375c-.779,2.376-6.584,8.76-8.229,12.62s2.945,5.228,2.945,5.228h9.3c4.637.1,7.8-4.071,9.84-5.913s1.923-6.785,1.81-12.31.89-6.968.89-6.968Z" transform="translate(-348.736 -423.391)" fill="#4b455e"/>
              <path id="Trazado_1015680" data-name="Trazado 1015680" d="M375.7,430.662c-.113-5.525.89-6.968.89-6.968l0,0a5.879,5.879,0,0,1-.675-.076,24.265,24.265,0,0,0-3.485-.22c-.636,1.925-2.516,7.854-2.67,11.161-.134,2.872,2.238,6.894,3.507,9.011.218-.215.428-.42.625-.6C375.925,441.13,375.812,436.186,375.7,430.662Z" transform="translate(-351.451 -423.392)" fill="#6c6387"/>
              <path id="Trazado_1015681" data-name="Trazado 1015681" d="M365.086,446.227c-3.172-.289-4.925-2.66-9.311-1.214s-5.991,2.08-6.571.468c-.036.077-.079.16-.111.235-1.646,3.86,2.945,5.228,2.945,5.228h9.3c4.637.1,7.8-4.071,9.84-5.913,1.156-1.046,1.619-3.095,1.782-5.68C371.76,441.065,367.758,446.47,365.086,446.227Z" transform="translate(-348.736 -425.453)" fill="#332c47"/>
              <path id="Trazado_1015682" data-name="Trazado 1015682" d="M362.917,423.585c-1.6.056-3.062.1-4.121.1a33.612,33.612,0,0,1-.768,7.375c-.392,1.193-2.05,3.4-3.813,5.785a.452.452,0,0,0,.156.369.7.7,0,0,0,.422.079,6.055,6.055,0,0,0,4.219-2.1,10.5,10.5,0,0,0,2-3.938,27.57,27.57,0,0,0,.909-3.96,10.614,10.614,0,0,1,.536-2.957A5.182,5.182,0,0,1,362.917,423.585Z" transform="translate(-349.444 -423.416)" fill="#6c6387"/>
              <g id="Grupo_1168146" data-name="Grupo 1168146" transform="translate(9.004 1.528)">
                <path id="Trazado_1015683" data-name="Trazado 1015683" d="M369.791,436.068a.341.341,0,0,1-.147-.033c-3.88-1.838-10.1-.822-10.167-.813a.349.349,0,0,1-.4-.282.344.344,0,0,1,.282-.4c.263-.043,6.5-1.062,10.575.869a.345.345,0,0,1-.147.656Z" transform="translate(-359.075 -426.321)" fill="#fff"/>
                <path id="Trazado_1015684" data-name="Trazado 1015684" d="M370.371,432.591a.342.342,0,0,1-.147-.033c-3.879-1.837-10.1-.822-10.167-.812a.344.344,0,0,1-.114-.679c.264-.043,6.5-1.063,10.576.868a.345.345,0,0,1-.148.656Z" transform="translate(-359.15 -425.872)" fill="#fff"/>
                <path id="Trazado_1015685" data-name="Trazado 1015685" d="M371.316,430.083a.342.342,0,0,1-.147-.033c-3.881-1.839-10.1-.823-10.166-.812a.344.344,0,0,1-.114-.679c.264-.043,6.5-1.062,10.575.87a.343.343,0,0,1-.148.654Z" transform="translate(-359.272 -425.548)" fill="#fff"/>
                <path id="Trazado_1015686" data-name="Trazado 1015686" d="M371.642,426.977a.342.342,0,0,1-.147-.033c-3.881-1.839-10.1-.821-10.166-.811a.344.344,0,0,1-.114-.679c.263-.043,6.5-1.062,10.575.868a.344.344,0,0,1-.148.655Z" transform="translate(-359.315 -425.147)" fill="#fff"/>
              </g>
            </g>
            <g id="Grupo_1168148" data-name="Grupo 1168148" transform="translate(48.178 152.296)">
              <path id="Trazado_1015687" data-name="Trazado 1015687" d="M406.429,336.256c.321,2.167.6,4.5.818,7.046,1.343,15.67,8.158,45.177,7.934,49.43s-2.687,7.835-.9,8.73,9.178-2.015,14.55-.9,4.029-3.134,2.91-5.372-3.457-19.658-3.9-26.373-3.2-63.172-4.89-71.6-2.208-49.668-6.5-55.433S389.313,237,389.313,237l-23.422,4.785s-1.085,61.459-2.044,78.074-.959,63.262-3.515,70.93-3.239,8.687-.878,8.964,12.5-.694,15.97,0,2.916-2.5,2.639-4.028-2.083-3.194-1.945-5.138,6.728-42.137,6.728-57.583,6.94-69.17,9.849-69.841,5.148,32.906,7.387,44.993c1.873,10.121,4.689,16.946,6.345,28.1" transform="translate(-358.004 -236.936)" fill="#533752"/>
              <path id="Trazado_1015688" data-name="Trazado 1015688" d="M374.522,409.58a20.068,20.068,0,0,1-6.789,4.736c2.405,1.063,5.248.045,7.806.652a16.089,16.089,0,0,0,2.981.733,6.09,6.09,0,0,1-1.145-3.308c.032-.447.4-2.915.959-6.634C376.593,406.14,375.652,408.307,374.522,409.58Z" transform="translate(-359.261 -258.742)" fill="#452f49"/>
              <path id="Trazado_1015689" data-name="Trazado 1015689" d="M423.521,415.81a10.635,10.635,0,0,1,3.2-1.035,34.512,34.512,0,0,0,3.741-.485.754.754,0,0,0,.372-.184.55.55,0,0,0-.092-.738,1.611,1.611,0,0,0-.748-.327,20.817,20.817,0,0,1-4.242-1.364c-.859-.422-1.734-1.27-2.714-1.432a30.745,30.745,0,0,1,.546,4.873C423.567,415.35,423.546,415.581,423.521,415.81Z" transform="translate(-366.403 -259.321)" fill="#452f49"/>
              <path id="Trazado_1015690" data-name="Trazado 1015690" d="M419.85,358.078a1.176,1.176,0,0,0,.347-.943c.239-5.763-2.59-11.149-5.226-16.279-.9-1.752-4.394-10.636-6.7-13.326,1.625,6.476,3.445,12.306,4.65,20.427.321,2.167.6,4.5.818,7.046.017.2.04.419.059.628a8.858,8.858,0,0,0,5.3,2.574A1.114,1.114,0,0,0,419.85,358.078Z" transform="translate(-364.497 -248.637)" fill="#452f49"/>
              <path id="Trazado_1015691" data-name="Trazado 1015691" d="M395.08,269.372a2.665,2.665,0,0,0-.435-.741c-3.281-3.7-5.345,5.588-5.555,7.549q-1.971,18.426-3.361,36.909c-.338,4.5-.645,9.065.308,13.472.388-.908.752-1.824,1.1-2.744C388.735,305.267,392.552,277.386,395.08,269.372Z" transform="translate(-361.543 -240.918)" fill="#452f49"/>
              <path id="Trazado_1015692" data-name="Trazado 1015692" d="M417.578,241.784c-4.3-5.765-27.133-4.785-27.133-4.785l-23.422,4.785s-.095,5.395-.254,13.419a5.3,5.3,0,0,0,1.327.105c4.523-.173,9.645-2.343,14.107-3.273q7.058-1.47,14.182-2.592c7.718-1.215,15.9-2.045,23.385-.3C419.166,245.609,418.451,242.956,417.578,241.784Z" transform="translate(-359.136 -236.936)" fill="#452f49"/>
            </g>
            <g id="Grupo_1168149" data-name="Grupo 1168149" transform="translate(0 142.676)">
              <path id="Trazado_1015693" data-name="Trazado 1015693" d="M318.78,227.147c1.214.327,2.49.961,3.363.057.438-.454.737-1.118,1.345-1.282a1.261,1.261,0,0,1,1.321.587,2.336,2.336,0,0,1,.285,1.49c-.188,1.946-1.682,3.477-2.514,5.247-1.1,2.331-.782,4.98-.326,7.515a11.074,11.074,0,0,0,.941,3.152c.345.563,5.466,4.87,6.621,7.566,0,0,15.285,27.826,9.2,48.75s-27.567,13.687-32.148,7.8c-5.789-7.441-5.9-20.163,1.712-34.621,0,0,10.543-18.142,10.123-25.277s-1.259-9.651-4.9-11.051-5.735-1.959-5.735-4.2,1.6-1.61,3.251-1.292,2.988-.254,3.878-2.161S317.147,226.707,318.78,227.147Z" transform="translate(-302.681 -225.889)" fill="#383a4f"/>
              <path id="Trazado_1015694" data-name="Trazado 1015694" d="M339.1,307.687c2.23-7.668,1.587-16.258-.118-24.072a42.883,42.883,0,0,1-1.174,8.573c-2.106,8.419-8.017,16.453-16.446,18.521-6.064,1.488-12.391-.284-18-3.2a19.612,19.612,0,0,0,3.595,7.975C311.534,321.374,333.014,328.611,339.1,307.687Z" transform="translate(-302.768 -233.345)" fill="#2d2f40"/>
              <path id="Trazado_1015695" data-name="Trazado 1015695" d="M325.756,258.882a2.582,2.582,0,0,0,.316-3.33,2.277,2.277,0,0,0,1.413-2.693,5.323,5.323,0,0,0-1.867-2.726c-1.144-1.016-3.642-3.277-5.264-2.844.127,1.048.223,2.239.3,3.6.152,2.591-1.143,6.632-2.851,10.73a8.049,8.049,0,0,0,1.421,2.623,4,4,0,0,0,1.77,1.311,2.126,2.126,0,0,0,2.093-.378c1.319-1.249.055-3.76,1.215-5.158A13.615,13.615,0,0,1,325.756,258.882Z" transform="translate(-304.634 -228.646)" fill="#2d2f40"/>
            </g>
            <path id="Trazado_1015696" data-name="Trazado 1015696" d="M320.619,258.211a10.017,10.017,0,0,1-4.038-3.413s-1.305,2-.3,3.422,2.97,2.427,3.682,2.218.98-1.776.657-2.228Z" transform="translate(-304.388 -86.947)" fill="#cb7d75"/>
            <g id="Grupo_1168150" data-name="Grupo 1168150" transform="translate(11.724 155.58)">
              <path id="Trazado_1015697" data-name="Trazado 1015697" d="M318.245,240.707s-2.3,3.932-1.322,6.634,5.93,6.981,7.205,6.9,1.576-1.726,1.2-2.777-4.428-4.654-4.878-6.68A11.458,11.458,0,0,0,318.245,240.707Z" transform="translate(-316.213 -240.707)" fill="#cb7d75"/>
              <path id="Trazado_1015698" data-name="Trazado 1015698" d="M323.3,255c-1.864-.9-5.606-4.363-6.441-6.676,0,0-1.424,3.75-.241,5.638s4.45,4.284,5.612,3.485a3.014,3.014,0,0,0,1.078-2.44Z" transform="translate(-316.144 -241.691)" fill="#cb7d75"/>
              <path id="Trazado_1015699" data-name="Trazado 1015699" d="M323.361,255.008l-.007-.007c-1.864-.9-5.606-4.363-6.442-6.676,0,0-.151.4-.313,1a17.708,17.708,0,0,0,6.236,6.25l.007.008a3.473,3.473,0,0,1-.456,1.774A3.1,3.1,0,0,0,323.361,255.008Z" transform="translate(-316.203 -241.691)" fill="#b16c6d"/>
              <path id="Trazado_1015700" data-name="Trazado 1015700" d="M320.717,258.888h0a.692.692,0,0,1,.083.192,1.369,1.369,0,0,0-.118-.866h0a10.016,10.016,0,0,1-4.038-3.413,5.319,5.319,0,0,0-.26.492A11.091,11.091,0,0,0,320.717,258.888Z" transform="translate(-316.175 -242.527)" fill="#b16c6d"/>
            </g>
            <g id="Grupo_1168152" data-name="Grupo 1168152" transform="translate(33.529 45.964)">
              <path id="Trazado_1015701" data-name="Trazado 1015701" d="M375.537,128.387s-21.182,7.294-25.5,13.2-6.132,25.632-8.856,33.6c0,0,4.15,5.693,17.177,5.465,0,0,3.716-10.447,5.305-10.674s3.346,54.736,3.346,54.736,28.359,3.05,44.825,0c0,0,1.525-65.024,3.354-65.292s13.231,10.3,13.231,10.3,9.437-3.1,14.822-11.236A50.1,50.1,0,0,1,437.3,153.6c-2.516-2.516-13.17-16.336-17.018-17.343s-22.156-8.6-24.47-8.875S375.537,128.387,375.537,128.387Z" transform="translate(-341.183 -116.448)" fill="#40ad97"/>
              <path id="Trazado_1015702" data-name="Trazado 1015702" d="M360.83,180.862a27.032,27.032,0,0,1-5.209-.9,26.715,26.715,0,0,1-3.269-1.256,60.782,60.782,0,0,1-9.106-5.048c-.192.941-.385,1.849-.58,2.712a60.871,60.871,0,0,0,9.461,5.3,26.724,26.724,0,0,0,3.269,1.256,24.41,24.41,0,0,0,4.253.8C360,182.837,360.4,181.84,360.83,180.862Z" transform="translate(-341.374 -122.43)" fill="#78d097"/>
              <path id="Trazado_1015703" data-name="Trazado 1015703" d="M428.767,151.392a19.48,19.48,0,0,1,4.566-9.775,14.6,14.6,0,0,1,1.5-1.362,11.941,11.941,0,0,0-4.009-2.857c-.733-.192-1.992-.624-3.563-1.2a11.528,11.528,0,0,0-4.068,6.271,22.907,22.907,0,0,0-.4,5.215q0,6.317.095,12.632a4.779,4.779,0,0,0,.563,2.657,2.667,2.667,0,0,0,1.55,1.057c.238-2.161.484-3.435.737-3.471.445-.065,1.463.518,2.741,1.428A46.227,46.227,0,0,1,428.767,151.392Z" transform="translate(-351.723 -117.592)" fill="#409a97"/>
              <path id="Trazado_1015704" data-name="Trazado 1015704" d="M369.62,170.677a5.263,5.263,0,0,0,.044-3.062,66.139,66.139,0,0,0-1.735-6.527q-1.688-5.468-3.685-10.833a37.515,37.515,0,0,0-5.316-10.445,5.813,5.813,0,0,0-1.453-1.37,30.62,30.62,0,0,0-4,2.71,2.314,2.314,0,0,0,.081.324c1.027,2.492,2.362,4.823,3.289,7.379,3.077,8.481,4.906,17.533,4.215,26.527a22.693,22.693,0,0,0-.12,4.064c1.215-3.111,3.244-7.885,4.314-8.038.229-.033.462,1.082.691,3.009.548-.542,1.111-1.069,1.7-1.561A6.283,6.283,0,0,0,369.62,170.677Z" transform="translate(-342.771 -117.881)" fill="#409a97"/>
              <path id="Trazado_1015705" data-name="Trazado 1015705" d="M393.956,137.77c.016.61,1.574,61.268,1.032,89.583.342.008.687.014,1.032.02.542-28.339-1.016-89.02-1.032-89.63Z" transform="translate(-347.999 -117.791)" fill="#337e7c"/>
              <path id="Trazado_1015706" data-name="Trazado 1015706" d="M400.612,129.2a37.431,37.431,0,0,1-.737-14.366h-15.4a37.431,37.431,0,0,1-.737,14.366s5.275,7.655,8.437,7.493S400.612,129.2,400.612,129.2Z" transform="translate(-346.68 -114.832)" fill="#cb7d75"/>
              <path id="Trazado_1015707" data-name="Trazado 1015707" d="M384.585,114.832a36.638,36.638,0,0,1,.289,7.9,23.4,23.4,0,0,1,6.874-2.7c1.332-.286,2.688-.451,4.042-.615,1.279-.155,2.559-.317,3.84-.469a32.138,32.138,0,0,1,.356-4.115h-15.4Z" transform="translate(-346.789 -114.832)" fill="#b56c75"/>
              <g id="Grupo_1168151" data-name="Grupo 1168151" transform="translate(34.354 7.463)">
                <path id="Trazado_1015708" data-name="Trazado 1015708" d="M384.108,123.4a9.085,9.085,0,0,0,2.986,2.546c.321.148.65.28.979.413l1.694.683a24.564,24.564,0,0,1-3.946,6.6,11.067,11.067,0,0,1-5.189-5.761A14.217,14.217,0,0,1,384.108,123.4Z" transform="translate(-380.632 -123.402)" fill="#78d097"/>
                <path id="Trazado_1015709" data-name="Trazado 1015709" d="M401.391,123.4a9.077,9.077,0,0,1-2.986,2.546c-.321.148-.65.28-.979.413l-1.694.683a24.564,24.564,0,0,0,3.946,6.6,11.067,11.067,0,0,0,5.189-5.761A14.2,14.2,0,0,0,401.391,123.4Z" transform="translate(-382.582 -123.402)" fill="#78d097"/>
              </g>
              <path id="Trazado_1015710" data-name="Trazado 1015710" d="M370.975,131.218s4.047,17.833,15.341,28.346c0,0,1.677,59.719,0,71.573,0,0-16.928,1.019-20.955-3.007,0,0,1.723-52.715,0-57.024s-7.934-28.947-11.436-31.207C353.927,139.9,363.278,132.153,370.975,131.218Z" transform="translate(-342.829 -116.949)" fill="#ffad35"/>
              <path id="Trazado_1015711" data-name="Trazado 1015711" d="M400.978,158.821c10.385-10.432,13.576-27.6,13.576-27.6L428,136.754s-5.5,22.928-5.837,26.733-.3,53.942.4,62.145c0,0,1.754,4.731-.69,4.731h-20.9Z" transform="translate(-348.906 -116.948)" fill="#ffad35"/>
              <path id="Trazado_1015712" data-name="Trazado 1015712" d="M388.806,197.147c-.044-4.489-.107-8.966-.178-13.171-2.215.2-4.29.294-6.227.312.214-12.661.212-24.4-.3-30.637a65.226,65.226,0,0,1-6.728-13.084c-.119,7.092-.455,24.76-1.105,43.334a51.923,51.923,0,0,1-6.379-1.071c.059,3.86.051,8.436.005,13.191a51.075,51.075,0,0,0,5.862,1.008c-.581,13.385-1.338,26.051-2.307,34.314a47.156,47.156,0,0,0,9.493,1.08c.236-5.785.786-19.92,1.173-34.945C384.185,197.466,386.416,197.371,388.806,197.147Z" transform="translate(-344.632 -118.156)" fill="#ffdf4d"/>
              <path id="Trazado_1015713" data-name="Trazado 1015713" d="M422,197.212c-.03-5.006-.042-10.083-.038-14.735q-2.543.584-5.131.943c.135-22.651,1.14-42.944,1.566-50.623l-3.839-1.581a68.225,68.225,0,0,1-6.535,17.919c-.145,8.276-.461,21.389-.807,34.848a60.894,60.894,0,0,1-6.233-.424v15.226a50.287,50.287,0,0,0,5.832.44c-.361,13.434-.7,25.439-.859,31.135H418.27c-.832-9.951-1.244-20.959-1.392-31.938A49.587,49.587,0,0,0,422,197.212Z" transform="translate(-348.907 -116.948)" fill="#ffdf4d"/>
              <path id="Trazado_1015714" data-name="Trazado 1015714" d="M436.827,170.394c.737.644,1.417,1.249,2,1.771,6.636-2.717,12.949-8.2,15.391-10.469-.605-.455-1.352-1.035-2.14-1.689C448.129,163.19,440.587,168.028,436.827,170.394Z" transform="translate(-353.537 -120.667)" fill="#78d097"/>
            </g>
            <g id="Grupo_1168153" data-name="Grupo 1168153" transform="translate(18.525 105.865)">
              <path id="Trazado_1015715" data-name="Trazado 1015715" d="M340.146,183.62l-.009,0A30.777,30.777,0,0,1,336.731,195c-2.951,5.2-11.1,22.064-12.367,26.7s.736,15.145,1.354,16.318,2.72,1.114,3.395.619.066-8.467,0-9.456a4.493,4.493,0,0,1,.518-2.058c4.572-3.981,18.581-24.184,20.419-25.953,1.5-1.439,3.631-10.088,4.379-13.274C346.325,187.707,342.017,185.165,340.146,183.62Z" transform="translate(-323.953 -183.618)" fill="#cb7d75"/>
              <path id="Trazado_1015716" data-name="Trazado 1015716" d="M342.5,183.62l-.009,0s-.068.907-.314,2.313a24.4,24.4,0,0,1,5.453,2.185,31.518,31.518,0,0,1,7.492,6.24c.713-2.489,1.331-5.025,1.667-6.458C348.679,187.707,344.372,185.165,342.5,183.62Z" transform="translate(-326.307 -183.618)" fill="#b56c75"/>
            </g>
            <g id="Grupo_1168159" data-name="Grupo 1168159" transform="translate(60.466)">
              <path id="Trazado_1015717" data-name="Trazado 1015717" d="M405.087,89.439s0,14.564-3.608,19.3-5.886,5.093-7.5,5.093h-4.745c-1.614,0-3.893-.357-7.5-5.093s-3.608-19.3-3.608-19.3v-4.2l1.761-1.4a19.03,19.03,0,0,1,23.439,0l1.761,1.4v4.2Z" transform="translate(-372.892 -64.344)" fill="#cb7d75"/>
              <path id="Trazado_1015718" data-name="Trazado 1015718" d="M403.982,105.3c-2.15-1.642-7.645-5.566-11.553-5.959-4.077-.41-10.6,4.376-12.777,6.084a15.688,15.688,0,0,0,2.279,5.837c3.607,4.736,5.886,5.093,7.5,5.093h4.745c1.556,0,3.734-.345,7.122-4.614l1.317-2.087A21.553,21.553,0,0,0,403.982,105.3Z" transform="translate(-373.089 -66.864)" fill="#e4e7ff"/>
              <g id="Grupo_1168154" data-name="Grupo 1168154" transform="translate(7.797 37.128)">
                <path id="Trazado_1015719" data-name="Trazado 1015719" d="M389.689,108.283c-.151-.478-3.224.039-4.776.442-.536.139-3.551.832-3.845,1.82.094.215.192.421.293.619.893.284,3.4-1.56,4.008-1.766C386.792,108.914,389.689,109.253,389.689,108.283Z" transform="translate(-381.069 -105.125)" fill="#c4c7db"/>
                <path id="Trazado_1015720" data-name="Trazado 1015720" d="M403.127,113.889c-.278-.024-.513-.037-.65-.051q-2.163-.227-4.341-.278-1.04-.025-2.08-.008c-.483.008-.629.737,2.653.762a9.686,9.686,0,0,1,1.936.538,9.439,9.439,0,0,0,1.494.179C402.455,114.691,402.786,114.305,403.127,113.889Z" transform="translate(-382.971 -105.83)" fill="#c4c7db"/>
                <path id="Trazado_1015721" data-name="Trazado 1015721" d="M397.6,105.12a3.672,3.672,0,0,1,1.74.7,4.395,4.395,0,0,1-1.687.166c-1.6-.061-3.192-.2-4.786-.344-.355-.031-1.085-.306-.707-.765.233-.282.989-.17,1.3-.16A26.194,26.194,0,0,1,397.6,105.12Z" transform="translate(-382.488 -104.686)" fill="#c4c7db"/>
              </g>
              <path id="Trazado_1015722" data-name="Trazado 1015722" d="M377.6,93.544c-1.058-.839-2.744-1.865-3.653-.611-1.225,1.689.7,7.02,4.238,7.649C377.835,97.925,377.675,95.347,377.6,93.544Z" transform="translate(-372.304 -65.964)" fill="#b26675"/>
              <path id="Trazado_1015723" data-name="Trazado 1015723" d="M377.992,95.175c-.813-.644-2.107-1.433-2.8-.469-.941,1.3.539,5.39,3.254,5.874C378.171,98.539,378.048,96.559,377.992,95.175Z" transform="translate(-372.475 -66.211)" fill="#915675"/>
              <path id="Trazado_1015724" data-name="Trazado 1015724" d="M408.9,93.544c1.058-.839,2.744-1.865,3.653-.611,1.225,1.689-.7,7.02-4.238,7.649C408.67,97.925,408.83,95.347,408.9,93.544Z" transform="translate(-376.791 -65.964)" fill="#b26675"/>
              <path id="Trazado_1015725" data-name="Trazado 1015725" d="M408.775,95.348c.826-.656,2.144-1.458,2.855-.478.958,1.32-.549,5.485-3.312,5.977C408.592,98.772,408.718,96.757,408.775,95.348Z" transform="translate(-376.791 -66.231)" fill="#915675"/>
              <g id="Grupo_1168155" data-name="Grupo 1168155" transform="translate(3.743 19.513)">
                <path id="Trazado_1015726" data-name="Trazado 1015726" d="M376.413,87.506s.811,8.264,2.3,8.211,3.294-10.86,2.9-11.23S376.413,87.506,376.413,87.506Z" transform="translate(-376.413 -84.458)" fill="#453034"/>
                <path id="Trazado_1015727" data-name="Trazado 1015727" d="M410.019,87.506s-.811,8.264-2.3,8.211-3.294-10.86-2.9-11.23S410.019,87.506,410.019,87.506Z" transform="translate(-380.074 -84.458)" fill="#453034"/>
              </g>
              <g id="Grupo_1168156" data-name="Grupo 1168156">
                <path id="Trazado_1015728" data-name="Trazado 1015728" d="M391.527,64.664c-14.176.813-14.014,13.452-14.014,13.452h28.03S405.7,65.477,391.527,64.664Z" transform="translate(-372.812 -62.389)" fill="#ffad35"/>
                <path id="Trazado_1015729" data-name="Trazado 1015729" d="M397.917,78.117a38.634,38.634,0,0,0-4.635-13.407c-.175-.014-.342-.034-.522-.044-.147.009-.283.025-.427.037-.989,1.427-3.492,5.6-5.286,13.415Z" transform="translate(-374.044 -62.389)" fill="#ffcc35"/>
                <path id="Trazado_1015730" data-name="Trazado 1015730" d="M404.311,79.1s6.937,5.525,4.842,7.952c-1.234,1.43-8.258-3.217-18.322-3.127-10.064-.09-17.087,4.557-18.321,3.127-2.1-2.427,4.842-7.952,4.842-7.952h0a49.289,49.289,0,0,1,26.959,0Z" transform="translate(-372.115 -64.01)" fill="#ffdf4d"/>
                <path id="Trazado_1015731" data-name="Trazado 1015731" d="M409.154,86.406c-1.234,1.43-8.258-3.217-18.322-3.127-10.064-.09-17.088,4.557-18.322,3.127a1.582,1.582,0,0,1-.259-.435,1.883,1.883,0,0,0,.259,1.861c1.234,1.43,8.258-3.217,18.322-3.127,10.064-.09,17.087,4.557,18.322,3.127a1.881,1.881,0,0,0,.258-1.861A1.569,1.569,0,0,1,409.154,86.406Z" transform="translate(-372.117 -64.793)" fill="#ffb54d"/>
                <path id="Trazado_1015732" data-name="Trazado 1015732" d="M394.7,63.256a1.283,1.283,0,1,1-1.281-1.205A1.245,1.245,0,0,1,394.7,63.256Z" transform="translate(-374.701 -62.051)" fill="#ad8035"/>
              </g>
              <g id="Grupo_1168157" data-name="Grupo 1168157" transform="translate(11.511 27.472)">
                <ellipse id="Elipse_11868" data-name="Elipse 11868" cx="0.917" cy="1.65" rx="0.917" ry="1.65" fill="#453034"/>
                <ellipse id="Elipse_11869" data-name="Elipse 11869" cx="0.917" cy="1.65" rx="0.917" ry="1.65" transform="translate(12.602)" fill="#453034"/>
              </g>
              <g id="Grupo_1168158" data-name="Grupo 1168158" transform="translate(9.003 25.046)">
                <path id="Trazado_1015733" data-name="Trazado 1015733" d="M382.9,92.326a.449.449,0,0,1-.42-.334.5.5,0,0,1,.281-.616,9.439,9.439,0,0,1,5.363-.318.493.493,0,0,1,.319.592A.442.442,0,0,1,387.9,92a8.777,8.777,0,0,0-4.866.3A.415.415,0,0,1,382.9,92.326Z" transform="translate(-382.453 -90.812)" fill="#453034"/>
                <path id="Trazado_1015734" data-name="Trazado 1015734" d="M403.665,92.326a.442.442,0,0,1-.145-.024,9.421,9.421,0,0,0-5.048-.3.457.457,0,0,1-.557-.353.492.492,0,0,1,.331-.592,10.173,10.173,0,0,1,5.564.318.5.5,0,0,1,.292.616A.464.464,0,0,1,403.665,92.326Z" transform="translate(-384.448 -90.812)" fill="#453034"/>
              </g>
            </g>
            <g id="Grupo_1168161" data-name="Grupo 1168161" transform="translate(87.626 89.84)">
              <path id="Trazado_1015735" data-name="Trazado 1015735" d="M459.98,176.232a102.893,102.893,0,0,0-10.069-11.016s-5.526,6.525-11.635,8.66a51.106,51.106,0,0,0,8.187,7.718s-8.094,10.957-11.692,15.454-7.42,5.509-8.656,5.4a30.813,30.813,0,0,1-3.817-.84s-.118,4.213-1.467,5.113-10.553,7.887-12.314,8.958-1.213,3.356-.011,3.624c0,0-2.286,1.647-4.555,2.958-1.408.814-.308,3.046,1.3,2.961s4.059-1.987,4.059-1.987a1.865,1.865,0,0,0-.178,1.848,2.292,2.292,0,0,0,2.658.734,17.314,17.314,0,0,0,3.158-2.064s-.157,1.34.491,1.694,3.219.1,5.335-1.473,7.352-4.649,9.374-7.448,3.266-6.013,8.295-9.383,21.955-14.963,23.715-19.518S463.086,180.167,459.98,176.232Z" transform="translate(-403.303 -165.216)" fill="#cb7d75"/>
              <g id="Grupo_1168160" data-name="Grupo 1168160" transform="translate(4.648 47.326)">
                <path id="Trazado_1015736" data-name="Trazado 1015736" d="M409.193,226.643a.324.324,0,0,0,.167-.046,113.273,113.273,0,0,0,9.571-6.456.325.325,0,1,0-.4-.509,111,111,0,0,1-9.424,6.361h-.462a1.186,1.186,0,0,0,.552.325s-.175.125-.46.325Z" transform="translate(-408.64 -219.561)" fill="#9c4860"/>
                <path id="Trazado_1015737" data-name="Trazado 1015737" d="M423.675,226.317a.325.325,0,0,0-.46,0,46.8,46.8,0,0,1-6.833,5.034.338.338,0,0,0-.1.1l-.541.8c.468-.347.811-.617.811-.617a3.891,3.891,0,0,0-.005.588l.235-.347a45.9,45.9,0,0,0,6.894-5.094A.327.327,0,0,0,423.675,226.317Z" transform="translate(-409.557 -220.422)" fill="#9c4860"/>
                <path id="Trazado_1015738" data-name="Trazado 1015738" d="M410.027,230.588a2.465,2.465,0,0,0-.343.866l.557-.618c.563-.369,7.584-4.98,11.283-8.086a.325.325,0,0,0-.419-.5c-3.806,3.2-11.181,8.014-11.256,8.062a.378.378,0,0,0-.064.055l-.9,1C409.547,230.956,410.027,230.588,410.027,230.588Z" transform="translate(-408.671 -219.899)" fill="#9c4860"/>
              </g>
              <path id="Trazado_1015739" data-name="Trazado 1015739" d="M439.123,214.727l-5.637-7.821a.854.854,0,0,1,.193-1.191l1.195-.861a.854.854,0,0,1,1.191.193l5.637,7.822a.853.853,0,0,1-.193,1.191l-1.195.861A.854.854,0,0,1,439.123,214.727Z" transform="translate(-407.181 -170.315)" fill="#533752"/>
              <path id="Trazado_1015740" data-name="Trazado 1015740" d="M449.256,179.722a46.09,46.09,0,0,1,1.311-4.852,23.91,23.91,0,0,1,3.362-6.317,16.238,16.238,0,0,1,2.218-2.357c-.355-.34-.71-.677-1.048-.979,0,0-5.526,6.525-11.635,8.66A61.374,61.374,0,0,0,449.256,179.722Z" transform="translate(-408.49 -165.216)" fill="#b56c75"/>
            </g>
          </g>
        </g>
      </g>
    </g>
  </g>
</svg>
