<svg xmlns="http://www.w3.org/2000/svg" xmlns:xlink="http://www.w3.org/1999/xlink" width="113" height="113" viewBox="0 0 113 113">
  <defs>
    <filter id="Trazado_982547" x="0" y="0" width="113" height="113" filterUnits="userSpaceOnUse">
      <feOffset dy="3" input="SourceAlpha"/>
      <feGaussianBlur stdDeviation="3" result="blur"/>
      <feFlood flood-opacity="0.161"/>
      <feComposite operator="in" in2="blur"/>
      <feComposite in="SourceGraphic"/>
    </filter>
  </defs>
  <g id="Grupo_1168168" data-name="Grupo 1168168" transform="translate(-187.228 -10807)">
    <g id="Grupo_1166124" data-name="Grupo 1166124" transform="translate(-8.417 9335)">
      <g id="Grupo_1164308" data-name="Grupo 1164308" transform="translate(204.645 1478)">
        <g id="Grupo_1163948" data-name="Grupo 1163948" transform="translate(0)">
          <g id="Grupo_1158168" data-name="Grupo 1158168" transform="translate(0)">
            <g id="Grupo_1152576" data-name="Grupo 1152576">
              <g id="Grupo_1148633" data-name="Grupo 1148633">
                <g id="Grupo_1148525" data-name="Grupo 1148525">
                  <g transform="matrix(1, 0, 0, 1, -9, -6)" filter="url(#Trazado_982547)">
                    <g id="Trazado_982547-2" data-name="Trazado 982547" transform="translate(9 6)" fill="#f4fdfe">
                      <path d="M 47.5 93.5 C 41.28937149047852 93.5 35.26533508300781 92.28397369384766 29.59518623352051 89.88570404052734 C 24.11771965026855 87.56893157958984 19.19813346862793 84.25196075439453 14.97309303283691 80.02691650390625 C 10.74804019927979 75.80186462402344 7.431066513061523 70.88229370117188 5.114293098449707 65.40481567382812 C 2.716026782989502 59.73468017578125 1.5 53.71062850952148 1.5 47.5 C 1.5 41.28937149047852 2.716026782989502 35.26533508300781 5.114293098449707 29.59518623352051 C 7.431066513061523 24.11771965026855 10.74804019927979 19.19813346862793 14.97309303283691 14.97309303283691 C 19.19813346862793 10.74804019927979 24.11771965026855 7.431066513061523 29.59518623352051 5.114293098449707 C 35.26533508300781 2.716026782989502 41.28937149047852 1.5 47.5 1.5 C 53.71062850952148 1.5 59.73468017578125 2.716026782989502 65.40481567382812 5.114293098449707 C 70.88229370117188 7.431066513061523 75.80186462402344 10.74804019927979 80.02691650390625 14.97309303283691 C 84.25196075439453 19.19813346862793 87.56893157958984 24.11771965026855 89.88570404052734 29.59518623352051 C 92.28397369384766 35.26533508300781 93.5 41.28937149047852 93.5 47.5 C 93.5 53.71062850952148 92.28397369384766 59.73468017578125 89.88570404052734 65.40481567382812 C 87.56893157958984 70.88229370117188 84.25196075439453 75.80186462402344 80.02691650390625 80.02691650390625 C 75.80186462402344 84.25196075439453 70.88229370117188 87.56893157958984 65.40481567382812 89.88570404052734 C 59.73468017578125 92.28397369384766 53.71062850952148 93.5 47.5 93.5 Z" stroke="none"/>
                      <path d="M 47.5 3 C 41.49121475219727 3 35.66376876831055 4.176155090332031 30.17950439453125 6.495796203613281 C 24.88084411621094 8.736953735351562 20.12152099609375 11.94598388671875 16.03375244140625 16.03375244140625 C 11.94598388671875 20.12152099609375 8.736953735351562 24.88084411621094 6.495796203613281 30.17950439453125 C 4.176155090332031 35.66376876831055 3 41.49121475219727 3 47.5 C 3 53.50878524780273 4.176155090332031 59.33623123168945 6.495796203613281 64.82049560546875 C 8.736953735351562 70.11915588378906 11.94598388671875 74.87847900390625 16.03375244140625 78.96624755859375 C 20.12152099609375 83.05401611328125 24.88084411621094 86.26304626464844 30.17950439453125 88.50419616699219 C 35.66376876831055 90.82384490966797 41.49121475219727 92 47.5 92 C 53.50878524780273 92 59.33623123168945 90.82384490966797 64.82049560546875 88.50419616699219 C 70.11915588378906 86.26304626464844 74.87847900390625 83.05401611328125 78.96624755859375 78.96624755859375 C 83.05401611328125 74.87847900390625 86.26304626464844 70.11915588378906 88.50419616699219 64.82049560546875 C 90.82384490966797 59.33623123168945 92 53.50878524780273 92 47.5 C 92 41.49121475219727 90.82384490966797 35.66376876831055 88.50419616699219 30.17950439453125 C 86.26304626464844 24.88084411621094 83.05401611328125 20.12152099609375 78.96624755859375 16.03375244140625 C 74.87847900390625 11.94598388671875 70.11915588378906 8.736953735351562 64.82049560546875 6.495796203613281 C 59.33623123168945 4.176155090332031 53.50878524780273 3 47.5 3 M 47.5 0 C 73.7335205078125 0 95 21.2664794921875 95 47.5 C 95 73.7335205078125 73.7335205078125 95 47.5 95 C 21.2664794921875 95 0 73.7335205078125 0 47.5 C 0 21.2664794921875 21.2664794921875 0 47.5 0 Z" stroke="none" fill="#56838a"/>
                    </g>
                  </g>
                </g>
              </g>
            </g>
          </g>
        </g>
      </g>
    </g>
    <g id="lavar" transform="translate(214.227 10831)">
      <g id="Grupo_1168166" data-name="Grupo 1168166" transform="translate(1.125 1.124)">
        <path id="Trazado_1015741" data-name="Trazado 1015741" d="M60.733,422H15.173c-2.453,0-5.123,1.964-5.171,4.405a4.571,4.571,0,0,0,4.59,4.59h46.23a4.5,4.5,0,0,0,4.5-4.41A4.568,4.568,0,0,0,60.733,422Z" transform="translate(-10.001 -375.676)" fill="#b3f1ff"/>
        <path id="Trazado_1015742" data-name="Trazado 1015742" d="M360.5,422a4.5,4.5,0,1,1-4.5,4.5A4.5,4.5,0,0,1,360.5,422Z" transform="translate(-317.096 -375.676)" fill="#fff5f5"/>
        <path id="Trazado_1015743" data-name="Trazado 1015743" d="M80.5,422a4.5,4.5,0,1,1-4.5,4.5A4.5,4.5,0,0,1,80.5,422Z" transform="translate(-68.578 -375.676)" fill="#fff5f5"/>
        <path id="Trazado_1015744" data-name="Trazado 1015744" d="M362.745,302c6.746,0,6.746,2.451,6.746,3.373,0,3.538-3.468,10.119-6.746,10.119S356,308.911,356,305.373C356,304.451,356,302,362.745,302Z" transform="translate(-317.096 -269.169)" fill="#ff7b79"/>
        <path id="Trazado_1015745" data-name="Trazado 1015745" d="M178.248,10,176,14.5h36.654V10Z" transform="translate(-157.335 -10)" fill="#b3f1ff"/>
        <path id="Trazado_1015746" data-name="Trazado 1015746" d="M176,50h17.99s-1.14,4.5-8.995,4.5S176,50,176,50Z" transform="translate(-157.335 -45.503)" fill="#fff5f5"/>
        <g id="Grupo_1168165" data-name="Grupo 1168165" transform="translate(2.923 32.831)">
          <path id="Trazado_1015747" data-name="Trazado 1015747" d="M202.745,302c6.746,0,6.746,2.451,6.746,3.373,0,3.538-3.468,10.119-6.746,10.119S196,308.911,196,305.373C196,304.451,196,302,202.745,302Z" transform="translate(-178.009 -302)" fill="#ff7b79"/>
          <path id="Trazado_1015748" data-name="Trazado 1015748" d="M42.745,302c6.746,0,6.746,2.451,6.746,3.373,0,3.538-3.468,10.119-6.746,10.119S36,308.911,36,305.373C36,304.451,36,302,42.745,302Z" transform="translate(-35.999 -302)" fill="#ff7b79"/>
        </g>
      </g>
      <g id="Grupo_1168167" data-name="Grupo 1168167" transform="translate(0.001)">
        <ellipse id="Elipse_11870" data-name="Elipse 11870" cx="1" cy="1.5" rx="1" ry="1.5" transform="translate(48 37)"/>
        <circle id="Elipse_11871" data-name="Elipse 11871" cx="1" cy="1" r="1" transform="translate(46 42)"/>
        <circle id="Elipse_11872" data-name="Elipse 11872" cx="1.5" cy="1.5" r="1.5" transform="translate(43 37)"/>
        <ellipse id="Elipse_11873" data-name="Elipse 11873" cx="1.5" cy="1" rx="1.5" ry="1" transform="translate(43 51)"/>
        <ellipse id="Elipse_11874" data-name="Elipse 11874" cx="1" cy="1.5" rx="1" ry="1.5" transform="translate(30 37)"/>
        <circle id="Elipse_11875" data-name="Elipse 11875" cx="1" cy="1" r="1" transform="translate(28 42)"/>
        <circle id="Elipse_11876" data-name="Elipse 11876" cx="1.5" cy="1.5" r="1.5" transform="translate(25 37)"/>
        <ellipse id="Elipse_11877" data-name="Elipse 11877" cx="1" cy="1.5" rx="1" ry="1.5" transform="translate(12 37)"/>
        <circle id="Elipse_11878" data-name="Elipse 11878" cx="1" cy="1" r="1" transform="translate(12 51)"/>
        <circle id="Elipse_11879" data-name="Elipse 11879" cx="1" cy="1" r="1" transform="translate(10 42)"/>
        <circle id="Elipse_11880" data-name="Elipse 11880" cx="1.5" cy="1.5" r="1.5" transform="translate(7 37)"/>
        <path id="Trazado_1015749" data-name="Trazado 1015749" d="M247.123,130.5a1.124,1.124,0,0,0,1.124-1.124v-2.249a1.124,1.124,0,0,0-2.249,0v2.249A1.124,1.124,0,0,0,247.123,130.5Z" transform="translate(-218.34 -111.833)"/>
        <path id="Trazado_1015750" data-name="Trazado 1015750" d="M246,189.373a1.124,1.124,0,0,0,2.249,0v-2.249a1.124,1.124,0,0,0-2.249,0Z" transform="translate(-218.34 -165.087)"/>
        <path id="Trazado_1015751" data-name="Trazado 1015751" d="M306.742,127.053a1.124,1.124,0,0,0,1.947-1.124l-1.124-1.947a1.124,1.124,0,0,0-1.947,1.124Z" transform="translate(-271.122 -109.542)"/>
        <path id="Trazado_1015752" data-name="Trazado 1015752" d="M338.278,179.424a1.124,1.124,0,0,0,.412-1.536l-1.124-1.947a1.124,1.124,0,1,0-1.947,1.124l1.124,1.947A1.124,1.124,0,0,0,338.278,179.424Z" transform="translate(-297.749 -155.659)"/>
        <path id="Trazado_1015753" data-name="Trazado 1015753" d="M178.2,127.052l1.124-1.947a1.124,1.124,0,0,0-1.947-1.124l-1.124,1.947a1.124,1.124,0,0,0,1.947,1.124Z" transform="translate(-156.298 -109.542)"/>
        <path id="Trazado_1015754" data-name="Trazado 1015754" d="M148.2,179.013l1.124-1.947a1.124,1.124,0,1,0-1.947-1.124l-1.124,1.947a1.124,1.124,0,1,0,1.947,1.124Z" transform="translate(-129.671 -155.66)"/>
        <path id="Trazado_1015755" data-name="Trazado 1015755" d="M204.914,1.124A1.124,1.124,0,0,0,203.79,0H169.384a1.124,1.124,0,0,0-1.006.622l-2.249,4.5a1.123,1.123,0,0,0-.082.779h0c.055.218,1.454,5.345,10.085,5.345,6.586,0,8.961-2.986,9.741-4.5H203.79a1.124,1.124,0,0,0,1.124-1.124ZM176.131,8.995c-3.99,0-6.007-1.216-7-2.25h14C182.138,7.778,180.12,8.995,176.131,8.995Zm-7.176-4.5,1.124-2.249h12.1L183.306,4.5Zm33.711,0H185.82L184.7,2.249h17.97V4.5Z" transform="translate(-147.347)"/>
        <ellipse id="Elipse_11881" data-name="Elipse 11881" cx="1" cy="1.5" rx="1" ry="1.5" transform="translate(28 55)"/>
        <path id="Trazado_1015756" data-name="Trazado 1015756" d="M0,275.5a5.7,5.7,0,0,0,5.714,5.737H23.725a1.124,1.124,0,1,0,0-2.249H17.538a5.611,5.611,0,0,0,0-6.747H40.031a5.611,5.611,0,0,0,0,6.747H33.844a1.124,1.124,0,1,0,0,2.249h18.1a5.622,5.622,0,1,0-.089-11.244H50.851a14.206,14.206,0,0,0,1.485-2.022,14.865,14.865,0,0,0,2.309-6.973,3.534,3.534,0,0,0-1.233-2.883,6.72,6.72,0,0,0-3.248-1.351c1.17-.971,2.232-2.238,2.232-3.636a1.124,1.124,0,0,0-2.249,0c0,.692-1.059,1.694-2.249,2.518v-2.518a1.124,1.124,0,0,0-2.249,0v2.52c-1.19-.823-2.249-1.825-2.249-2.52a1.124,1.124,0,0,0-2.249,0c0,1.4,1.062,2.665,2.232,3.636a6.72,6.72,0,0,0-3.248,1.351,3.534,3.534,0,0,0-1.233,2.883,14.866,14.866,0,0,0,2.309,6.973A14.2,14.2,0,0,0,42.7,269.99H32.861a14.206,14.206,0,0,0,1.485-2.022,14.865,14.865,0,0,0,2.309-6.973,3.534,3.534,0,0,0-1.233-2.883,6.72,6.72,0,0,0-3.248-1.351c1.17-.971,2.232-2.238,2.232-3.636a1.124,1.124,0,0,0-2.249,0c0,.692-1.059,1.694-2.249,2.518v-2.518a1.124,1.124,0,0,0-2.249,0v2.52c-1.19-.823-2.249-1.825-2.249-2.52a1.124,1.124,0,0,0-2.249,0c0,1.4,1.062,2.665,2.232,3.636a6.72,6.72,0,0,0-3.248,1.351,3.534,3.534,0,0,0-1.233,2.883,14.866,14.866,0,0,0,2.309,6.973,14.2,14.2,0,0,0,1.485,2.022H14.872a14.206,14.206,0,0,0,1.485-2.022,14.865,14.865,0,0,0,2.309-6.973,3.534,3.534,0,0,0-1.233-2.883,6.72,6.72,0,0,0-3.248-1.351c1.17-.971,2.232-2.238,2.232-3.636a1.124,1.124,0,0,0-2.249,0c0,.692-1.059,1.694-2.249,2.518v-2.518a1.124,1.124,0,0,0-2.249,0v2.52c-1.19-.823-2.249-1.825-2.249-2.52a1.124,1.124,0,0,0-2.249,0c0,1.4,1.062,2.665,2.232,3.636a6.72,6.72,0,0,0-3.248,1.351,3.533,3.533,0,0,0-1.233,2.883,14.866,14.866,0,0,0,2.309,6.973,14.2,14.2,0,0,0,1.485,2.022H6.3c-2.92,0-6.233,2.355-6.3,5.507Zm51.855-3.258a3.445,3.445,0,0,1,3.461,3.44,3.389,3.389,0,0,1-3.372,3.307H49.02a5.61,5.61,0,0,0,0-6.746ZM41.152,260.995a1.332,1.332,0,0,1,.454-1.181c.462-.4,1.746-1.067,5.164-1.067h.009c3.418,0,4.7.669,5.164,1.067a1.332,1.332,0,0,1,.454,1.181,12.715,12.715,0,0,1-1.978,5.8c-1.205,1.971-2.6,3.2-3.643,3.2s-2.438-1.224-3.643-3.2A12.715,12.715,0,0,1,41.152,260.995Zm3.373,11.244a3.373,3.373,0,1,1-3.373,3.373A3.377,3.377,0,0,1,44.525,272.239ZM23.163,260.995a1.332,1.332,0,0,1,.454-1.181c.462-.4,1.746-1.067,5.164-1.067h.009c3.418,0,4.7.669,5.164,1.067a1.332,1.332,0,0,1,.454,1.181,12.715,12.715,0,0,1-1.978,5.8c-1.205,1.971-2.6,3.2-3.643,3.2s-2.438-1.224-3.643-3.2A12.715,12.715,0,0,1,23.163,260.995Zm-6.746,14.617a3.373,3.373,0,1,1-3.373-3.374A3.377,3.377,0,0,1,16.416,275.612ZM5.173,260.995a1.332,1.332,0,0,1,.454-1.181c.462-.4,1.746-1.067,5.164-1.067H10.8c3.418,0,4.7.669,5.164,1.067a1.332,1.332,0,0,1,.454,1.181,12.715,12.715,0,0,1-1.978,5.8c-1.205,1.971-2.6,3.2-3.643,3.2s-2.438-1.224-3.643-3.2a12.715,12.715,0,0,1-1.978-5.8Zm3.376,11.242a5.611,5.611,0,0,0,0,6.747H5.716a3.448,3.448,0,0,1-3.466-3.443c.036-1.83,2.244-3.3,4.047-3.3Z" transform="translate(-0.001 -223.666)"/>
      </g>
    </g>
  </g>
</svg>
