<svg xmlns="http://www.w3.org/2000/svg" xmlns:xlink="http://www.w3.org/1999/xlink" width="113" height="113" viewBox="0 0 113 113">
  <defs>
    <filter id="Trazado_982547" x="0" y="0" width="113" height="113" filterUnits="userSpaceOnUse">
      <feOffset dy="3" input="SourceAlpha"/>
      <feGaussianBlur stdDeviation="3" result="blur"/>
      <feFlood flood-opacity="0.161"/>
      <feComposite operator="in" in2="blur"/>
      <feComposite in="SourceGraphic"/>
    </filter>
  </defs>
  <g id="Grupo_1168184" data-name="Grupo 1168184" transform="translate(-1026.228 -10807)">
    <g id="Grupo_1167413" data-name="Grupo 1167413" transform="translate(830.583 9335)">
      <g id="Grupo_1164308" data-name="Grupo 1164308" transform="translate(204.645 1478)">
        <g id="Grupo_1163948" data-name="Grupo 1163948" transform="translate(0)">
          <g id="Grupo_1158168" data-name="Grupo 1158168" transform="translate(0)">
            <g id="Grupo_1152576" data-name="Grupo 1152576">
              <g id="Grupo_1148633" data-name="Grupo 1148633">
                <g id="Grupo_1148525" data-name="Grupo 1148525">
                  <g transform="matrix(1, 0, 0, 1, -9, -6)" filter="url(#Trazado_982547)">
                    <g id="Trazado_982547-2" data-name="Trazado 982547" transform="translate(9 6)" fill="#f4fdfe">
                      <path d="M 47.5 93.5 C 41.28937149047852 93.5 35.26533508300781 92.28397369384766 29.59518623352051 89.88570404052734 C 24.11771965026855 87.56893157958984 19.19813346862793 84.25196075439453 14.97309303283691 80.02691650390625 C 10.74804019927979 75.80186462402344 7.431066513061523 70.88229370117188 5.114293098449707 65.40481567382812 C 2.716026782989502 59.73468017578125 1.5 53.71062850952148 1.5 47.5 C 1.5 41.28937149047852 2.716026782989502 35.26533508300781 5.114293098449707 29.59518623352051 C 7.431066513061523 24.11771965026855 10.74804019927979 19.19813346862793 14.97309303283691 14.97309303283691 C 19.19813346862793 10.74804019927979 24.11771965026855 7.431066513061523 29.59518623352051 5.114293098449707 C 35.26533508300781 2.716026782989502 41.28937149047852 1.5 47.5 1.5 C 53.71062850952148 1.5 59.73468017578125 2.716026782989502 65.40481567382812 5.114293098449707 C 70.88229370117188 7.431066513061523 75.80186462402344 10.74804019927979 80.02691650390625 14.97309303283691 C 84.25196075439453 19.19813346862793 87.56893157958984 24.11771965026855 89.88570404052734 29.59518623352051 C 92.28397369384766 35.26533508300781 93.5 41.28937149047852 93.5 47.5 C 93.5 53.71062850952148 92.28397369384766 59.73468017578125 89.88570404052734 65.40481567382812 C 87.56893157958984 70.88229370117188 84.25196075439453 75.80186462402344 80.02691650390625 80.02691650390625 C 75.80186462402344 84.25196075439453 70.88229370117188 87.56893157958984 65.40481567382812 89.88570404052734 C 59.73468017578125 92.28397369384766 53.71062850952148 93.5 47.5 93.5 Z" stroke="none"/>
                      <path d="M 47.5 3 C 41.49121475219727 3 35.66376876831055 4.176155090332031 30.17950439453125 6.495796203613281 C 24.88084411621094 8.736953735351562 20.12152099609375 11.94598388671875 16.03375244140625 16.03375244140625 C 11.94598388671875 20.12152099609375 8.736953735351562 24.88084411621094 6.495796203613281 30.17950439453125 C 4.176155090332031 35.66376876831055 3 41.49121475219727 3 47.5 C 3 53.50878524780273 4.176155090332031 59.33623123168945 6.495796203613281 64.82049560546875 C 8.736953735351562 70.11915588378906 11.94598388671875 74.87847900390625 16.03375244140625 78.96624755859375 C 20.12152099609375 83.05401611328125 24.88084411621094 86.26304626464844 30.17950439453125 88.50419616699219 C 35.66376876831055 90.82384490966797 41.49121475219727 92 47.5 92 C 53.50878524780273 92 59.33623123168945 90.82384490966797 64.82049560546875 88.50419616699219 C 70.11915588378906 86.26304626464844 74.87847900390625 83.05401611328125 78.96624755859375 78.96624755859375 C 83.05401611328125 74.87847900390625 86.26304626464844 70.11915588378906 88.50419616699219 64.82049560546875 C 90.82384490966797 59.33623123168945 92 53.50878524780273 92 47.5 C 92 41.49121475219727 90.82384490966797 35.66376876831055 88.50419616699219 30.17950439453125 C 86.26304626464844 24.88084411621094 83.05401611328125 20.12152099609375 78.96624755859375 16.03375244140625 C 74.87847900390625 11.94598388671875 70.11915588378906 8.736953735351562 64.82049560546875 6.495796203613281 C 59.33623123168945 4.176155090332031 53.50878524780273 3 47.5 3 M 47.5 0 C 73.7335205078125 0 95 21.2664794921875 95 47.5 C 95 73.7335205078125 73.7335205078125 95 47.5 95 C 21.2664794921875 95 0 73.7335205078125 0 47.5 C 0 21.2664794921875 21.2664794921875 0 47.5 0 Z" stroke="none" fill="#56838a"/>
                    </g>
                  </g>
                </g>
              </g>
            </g>
          </g>
        </g>
      </g>
    </g>
    <g id="cocinando" transform="translate(1052.228 10829)">
      <g id="Grupo_1168182" data-name="Grupo 1168182">
        <g id="Grupo_1168170" data-name="Grupo 1168170">
          <path id="Trazado_1015795" data-name="Trazado 1015795" d="M51.22,32.75A11.713,11.713,0,0,0,47,29.87a11.881,11.881,0,0,0-1.75-.56A9,9,0,0,0,49,22V11.07A2.005,2.005,0,0,1,47,13H46a9.981,9.981,0,0,1-7-2.86h-.01A2,2,0,0,1,37,12h-.61a7.852,7.852,0,0,1-3.86-1.01l-.01.01H31a4,4,0,0,0-4,4v7a8.978,8.978,0,0,0,4.66,7.88v.01a23.292,23.292,0,0,0-2.66.93v.01a21.923,21.923,0,0,0-2.24,1.08l-.45.25a6.543,6.543,0,0,0-1.05.73A49.675,49.675,0,0,1,20,31l.53-.71a14.175,14.175,0,0,0,2.79-7.39l.83-10.82A12,12,0,0,1,36.11,1h3.98A12.011,12.011,0,0,1,52.07,12.24l.66,10.55a14.224,14.224,0,0,0,2.8,7.59L56,31s-1.88.83-4.77,1.74Z" fill="#b27946"/>
        </g>
        <g id="Grupo_1168171" data-name="Grupo 1168171">
          <path id="Trazado_1015796" data-name="Trazado 1015796" d="M54.38,39H49.14A11.108,11.108,0,0,0,47,36V29.87a11.713,11.713,0,0,1,4.22,2.88,11.915,11.915,0,0,1,2.98,5.47Z" fill="#fcd770"/>
        </g>
        <g id="Grupo_1168172" data-name="Grupo 1168172">
          <path id="Trazado_1015797" data-name="Trazado 1015797" d="M29,30.83V39H23.12A6.231,6.231,0,0,1,23,37.78a6.424,6.424,0,0,1,2.26-4.89,6.543,6.543,0,0,1,1.05-.73l.45-.25A21.923,21.923,0,0,1,29,30.83Z" fill="#fcd770"/>
        </g>
        <g id="Grupo_1168173" data-name="Grupo 1168173">
          <path id="Trazado_1015798" data-name="Trazado 1015798" d="M47,29.87V53H41.73a1.374,1.374,0,0,0-.13-.2l-5.8-7.73A2.908,2.908,0,0,0,36,44a3,3,0,0,0-3-3H31l-2-2V30.82a23.293,23.293,0,0,1,2.66-.93v-.01a8.057,8.057,0,0,0,1.34.6V37H43V30.48a8.75,8.75,0,0,0,2.25-1.17,11.881,11.881,0,0,1,1.75.56Z" fill="#b4dd7f"/>
        </g>
        <g id="Grupo_1168174" data-name="Grupo 1168174">
          <path id="Trazado_1015799" data-name="Trazado 1015799" d="M32.4,47.2,36.75,53H29V45.5l.4.3a5.952,5.952,0,0,0,2.84,1.15,2.128,2.128,0,0,0,.16.25Z" fill="#b4dd7f"/>
        </g>
        <g id="Grupo_1168175" data-name="Grupo 1168175">
          <path id="Trazado_1015800" data-name="Trazado 1015800" d="M46.1,57a8.351,8.351,0,0,1-7.15,4h-7.9a8.388,8.388,0,0,1-7.96-5.74,1.611,1.611,0,0,1-.09-.54A1.72,1.72,0,0,1,24.72,53H45.28A1.72,1.72,0,0,1,47,54.72a1.611,1.611,0,0,1-.09.54A8.64,8.64,0,0,1,46.1,57Z" fill="#aab2bd"/>
        </g>
        <g id="Grupo_1168176" data-name="Grupo 1168176">
          <path id="Trazado_1015801" data-name="Trazado 1015801" d="M47,53h4.77A2.94,2.94,0,0,0,54,54a2.993,2.993,0,0,0,2.12-.88.689.689,0,0,0,.11-.13l.01.01H59a2.015,2.015,0,0,1,2,2,2.006,2.006,0,0,1-2,2H46.1a8.64,8.64,0,0,0,.81-1.74,1.611,1.611,0,0,0,.09-.54A1.72,1.72,0,0,0,45.28,53Z" fill="#ccd1d9"/>
        </g>
        <g id="Grupo_1168177" data-name="Grupo 1168177">
          <path id="Trazado_1015802" data-name="Trazado 1015802" d="M33,47a3,3,0,0,0,2.8-1.93l5.8,7.73a1.374,1.374,0,0,1,.13.2H36.75L32.4,47.2a2.128,2.128,0,0,1-.16-.25A6.326,6.326,0,0,0,33,47Z" fill="#ccd1d9"/>
        </g>
        <g id="Grupo_1168178" data-name="Grupo 1168178">
          <path id="Trazado_1015803" data-name="Trazado 1015803" d="M54.38,39l2.54,10.66a3.247,3.247,0,0,1,.08.69V51a2.94,2.94,0,0,1-.77,1.99.689.689,0,0,1-.11.13A2.993,2.993,0,0,1,54,54a3.011,3.011,0,0,1-3-3v-.29a2.94,2.94,0,0,1,.32-1.34L52,48l-2.19-7.29A11.446,11.446,0,0,0,49.14,39Z" fill="#f0d0b4"/>
        </g>
        <g id="Grupo_1168179" data-name="Grupo 1168179">
          <path id="Trazado_1015804" data-name="Trazado 1015804" d="M35.12,46.12A2.993,2.993,0,0,1,33,47a6.326,6.326,0,0,1-.76-.05A5.952,5.952,0,0,1,29.4,45.8l-.4-.3-3.43-2.57a6.448,6.448,0,0,1-1.89-2.27A6.372,6.372,0,0,1,23.12,39H29l2,2h2a3,3,0,0,1,3,3,2.908,2.908,0,0,1-.2,1.07,2.975,2.975,0,0,1-.68,1.05Z" fill="#f0d0b4"/>
        </g>
        <g id="Grupo_1168180" data-name="Grupo 1168180">
          <path id="Trazado_1015805" data-name="Trazado 1015805" d="M43,30.48V37H33V30.48A8.8,8.8,0,0,0,36,31h4A8.8,8.8,0,0,0,43,30.48Z" fill="#f0d0b4"/>
        </g>
        <g id="Grupo_1168181" data-name="Grupo 1168181">
          <path id="Trazado_1015806" data-name="Trazado 1015806" d="M39,10.14A9.981,9.981,0,0,0,46,13h1a2.005,2.005,0,0,0,2-1.93V22a9,9,0,0,1-3.75,7.31A9.1,9.1,0,0,1,40,31H36a8.8,8.8,0,0,1-3-.52,8.057,8.057,0,0,1-1.34-.6A8.978,8.978,0,0,1,27,22V15a4,4,0,0,1,4-4h1.52l.01-.01A7.852,7.852,0,0,0,36.39,12H37a2,2,0,0,0,1.99-1.86Z" fill="#f0d0b4"/>
        </g>
      </g>
      <g id="Grupo_1168183" data-name="Grupo 1168183">
        <path id="Trazado_1015807" data-name="Trazado 1015807" d="M36,24H34a4,4,0,0,0,8,0H40a2,2,0,0,1-4,0Z"/>
        <path id="Trazado_1015808" data-name="Trazado 1015808" d="M33,18a2,2,0,0,1,2,2h2a4,4,0,0,0-8,0h2A2,2,0,0,1,33,18Z"/>
        <path id="Trazado_1015809" data-name="Trazado 1015809" d="M43,18a2,2,0,0,1,2,2h2a4,4,0,0,0-8,0h2A2,2,0,0,1,43,18Z"/>
        <path id="Trazado_1015810" data-name="Trazado 1015810" d="M59,52H57.858A3.939,3.939,0,0,0,58,51v-.648a4,4,0,0,0-.109-.926L55.168,37.988a13.03,13.03,0,0,0-2.216-4.761c2.085-.711,3.389-1.284,3.454-1.313l1.146-.509-1.221-1.629a13.1,13.1,0,0,1-2.6-7.05l-.668-10.547A13.025,13.025,0,0,0,40.089,0H36.112A13.058,13.058,0,0,0,23.151,12L22.318,22.82a13.114,13.114,0,0,1-2.587,6.873L18.447,31.4l1.147.51c.073.032,1.547.68,3.874,1.454a7.409,7.409,0,0,0,1.5,10.361L28,46v6H24.721a2.721,2.721,0,0,0-2.581,3.582A9.376,9.376,0,0,0,31.045,62h7.909a9.37,9.37,0,0,0,7.682-4H59a3,3,0,0,0,0-6Zm-3.054-2.111a2,2,0,0,1,.054.463V51a2,2,0,0,1-4,0v-.292a2.009,2.009,0,0,1,.211-.894l.86-1.722-2.3-7.67c-.043-.144-.107-.28-.156-.422h2.977ZM37.25,52l-3.133-4.178A3.994,3.994,0,0,0,35.85,46.8l3.9,5.2Zm5,0L36.9,44.866A3.979,3.979,0,0,0,33,40H31.414L30,38.586V31.5q.781-.3,1.582-.547c.139.069.276.139.418.2V38H44V31.159a9.938,9.938,0,0,0,1.4-.756c.2.055.4.119.6.184V52H42.25ZM31,12h1.288a8.946,8.946,0,0,0,4.1,1H37a2.991,2.991,0,0,0,2.4-1.214A10.92,10.92,0,0,0,46,14h1a2.966,2.966,0,0,0,1-.184V22a8.009,8.009,0,0,1-8,8H36a8.009,8.009,0,0,1-8-8V15a3,3,0,0,1,3-3ZM48,35.625V31.461A10.914,10.914,0,0,1,53.082,38H49.728A12.236,12.236,0,0,0,48,35.625ZM34,31.8a9.983,9.983,0,0,0,2,.2h4a10,10,0,0,0,2-.2V36H34Zm14,7.207A10.161,10.161,0,0,1,48.854,41l2.074,6.911-.505,1.011A4.013,4.013,0,0,0,50,50.708V51a3.939,3.939,0,0,0,.142,1H48ZM24.313,22.973l.833-10.817A11.048,11.048,0,0,1,36.112,2h3.977A11.021,11.021,0,0,1,51.067,12.305l.668,10.547a15.092,15.092,0,0,0,2.7,7.709c-.705.275-1.715.645-2.921,1.036a12.921,12.921,0,0,0-4.273-2.717A9.949,9.949,0,0,0,50,22V11a3,3,0,0,0-3-3H46v2h1a1,1,0,0,1,0,2H46a8.935,8.935,0,0,1-6.034-2.336A2.994,2.994,0,0,0,37,7H36V9h1a1,1,0,0,1,0,2h-.615a6.921,6.921,0,0,1-6.457-4.372l-1.857.743a8.955,8.955,0,0,0,1.782,2.774A5,5,0,0,0,26,15v7a9.973,9.973,0,0,0,3.478,7.563,24.278,24.278,0,0,0-3.208,1.475l-.447.249a7.3,7.3,0,0,0-.759.492c-1.463-.458-2.678-.9-3.492-1.217a15.113,15.113,0,0,0,2.741-7.589ZM24,38c0-.072,0-.144,0-.216a5.433,5.433,0,0,1,2.794-4.748l.447-.249c.249-.138.5-.265.759-.393V38Zm.472,2h4.11l2,2H33a2,2,0,0,1,0,4,5.028,5.028,0,0,1-3-1l-3.827-2.871A5.44,5.44,0,0,1,24.476,40ZM30,47.3a7.107,7.107,0,0,0,1.637.544L34.75,52H30Zm15.963,7.645A7.377,7.377,0,0,1,38.955,60H31.046a7.377,7.377,0,0,1-7.008-5.051A.713.713,0,0,1,24,54.721.721.721,0,0,1,24.721,54H45.279a.721.721,0,0,1,.721.721A.74.74,0,0,1,45.963,54.949ZM59,56H47.7c.054-.139.111-.276.158-.418A2.583,2.583,0,0,0,47.891,54h3.492a3.927,3.927,0,0,0,5.236,0H59a1,1,0,0,1,0,2Z"/>
        <path id="Trazado_1015811" data-name="Trazado 1015811" d="M26,49H15v3a1,1,0,0,1-1,1H3a1,1,0,0,1,0-2H9a3,3,0,0,0,0-6H7a2,2,0,0,1,0-4V39a4,4,0,0,0,0,8H9a1,1,0,0,1,0,2H3a3,3,0,0,0,0,6H14a3,3,0,0,0,3-3V51h9Z"/>
        <path id="Trazado_1015812" data-name="Trazado 1015812" d="M13,40v3h2a2,2,0,0,1,2,2v2h7V45H19a4,4,0,0,0-4-4V40a5.006,5.006,0,0,0-5-5H8v2h2A3,3,0,0,1,13,40Z"/>
      </g>
    </g>
  </g>
</svg>
