<svg xmlns="http://www.w3.org/2000/svg" xmlns:xlink="http://www.w3.org/1999/xlink" width="110" height="110" viewBox="0 0 110 110">
  <defs>
    <filter id="Trazado_982547" x="0" y="0" width="110" height="110" filterUnits="userSpaceOnUse">
      <feOffset dy="3" input="SourceAlpha"/>
      <feGaussianBlur stdDeviation="3" result="blur"/>
      <feFlood flood-opacity="0.161"/>
      <feComposite operator="in" in2="blur"/>
      <feComposite in="SourceGraphic"/>
    </filter>
  </defs>
  <g id="Grupo_1168587" data-name="Grupo 1168587" transform="translate(-376.228 -2165)">
    <g id="Grupo_1162529" data-name="Grupo 1162529" transform="translate(385.229 2171)">
      <g id="Grupo_1162411" data-name="Grupo 1162411" transform="translate(0)">
        <g id="Grupo_1158637" data-name="Grupo 1158637" transform="translate(0 0)">
          <g id="Grupo_1155724" data-name="Grupo 1155724">
            <g id="Grupo_1154703" data-name="Grupo 1154703">
              <g id="Grupo_1150789" data-name="Grupo 1150789" transform="translate(0 0)">
                <g id="Grupo_1154212" data-name="Grupo 1154212" transform="translate(0)">
                  <g id="Grupo_1152583" data-name="Grupo 1152583">
                    <g id="Grupo_1146973" data-name="Grupo 1146973">
                      <g id="Grupo_1146954" data-name="Grupo 1146954">
                        <g transform="matrix(1, 0, 0, 1, -9, -6)" filter="url(#Trazado_982547)">
                          <g id="Trazado_982547-2" data-name="Trazado 982547" transform="translate(9 6)" fill="#ebe9f0">
                            <path d="M 46.00000381469727 90.49986267089844 C 39.99188232421875 90.49986267089844 34.16427230834961 89.32350158691406 28.67905807495117 87.00344848632812 C 23.38020324707031 84.76223754882812 18.62104415893555 81.55341339111328 14.53375053405762 77.46613311767578 C 10.44647026062012 73.37885284423828 7.237643718719482 68.61968994140625 4.996417045593262 63.32085037231445 C 2.676363706588745 57.83565139770508 1.500003814697266 52.00805282592773 1.500003814697266 45.99993133544922 C 1.500003814697266 39.99182510375977 2.676363706588745 34.16422653198242 4.996417045593262 28.67901039123535 C 7.237643718719482 23.38017082214355 10.44647026062012 18.62101173400879 14.53375053405762 14.53373146057129 C 18.62104415893555 10.44645118713379 23.38020324707031 7.237624645233154 28.67905807495117 4.996411323547363 C 34.16427230834961 2.676357984542847 39.99188232421875 1.499997973442078 46.00000381469727 1.499997973442078 C 52.00812530517578 1.499997973442078 57.83573532104492 2.676357984542847 63.32094955444336 4.996411323547363 C 68.61980438232422 7.237624645233154 73.37896728515625 10.44645118713379 77.46625518798828 14.53373146057129 C 81.55353546142578 18.62101173400879 84.76236724853516 23.38017082214355 87.00359344482422 28.67901039123535 C 89.32364654541016 34.16422653198242 90.5 39.99182510375977 90.5 45.99993133544922 C 90.5 52.00805282592773 89.32364654541016 57.83565139770508 87.00359344482422 63.32085037231445 C 84.76236724853516 68.61968994140625 81.55353546142578 73.37885284423828 77.46625518798828 77.46613311767578 C 73.37896728515625 81.55341339111328 68.61980438232422 84.76223754882812 63.32094955444336 87.00344848632812 C 57.83573532104492 89.32350158691406 52.00812530517578 90.49986267089844 46.00000381469727 90.49986267089844 Z" stroke="none"/>
                            <path d="M 46.00000381469727 3 C 40.19371795654297 3 34.56270217895508 4.136505126953125 29.26337432861328 6.377914428710938 C 24.14333343505859 8.54351806640625 19.54441833496094 11.64438629150391 15.59440612792969 15.59439086914062 C 11.64440155029297 19.54440307617188 8.54351806640625 24.14330291748047 6.377914428710938 29.26334381103516 C 4.136505126953125 34.56266021728516 3.000007629394531 40.19366073608398 3.000007629394531 45.99993133544922 C 3.000007629394531 51.80620193481445 4.136505126953125 57.43720245361328 6.377914428710938 62.73651885986328 C 8.54351806640625 67.85655975341797 11.64440155029297 72.45545959472656 15.59440612792969 76.40547180175781 C 19.54441833496094 80.35547637939453 24.14333343505859 83.45634460449219 29.26337432861328 85.6219482421875 C 34.56270217895508 87.86335754394531 40.19371795654297 88.99986267089844 46.00000381469727 88.99986267089844 C 51.80628967285156 88.99986267089844 57.43730545043945 87.86335754394531 62.73661804199219 85.6219482421875 C 67.85667419433594 83.45634460449219 72.45557403564453 80.35547637939453 76.40558624267578 76.40547180175781 C 80.35560607910156 72.45545959472656 83.45647430419922 67.85655975341797 85.62207794189453 62.73651885986328 C 87.86350250244141 57.43720245361328 89 51.80620193481445 89 45.99993133544922 C 89 40.19366073608398 87.86350250244141 34.56266021728516 85.62207794189453 29.26334381103516 C 83.45647430419922 24.14330291748047 80.35560607910156 19.54440307617188 76.40558624267578 15.59439086914062 C 72.45557403564453 11.64438629150391 67.85667419433594 8.54351806640625 62.73661804199219 6.377914428710938 C 57.43730545043945 4.136505126953125 51.80628967285156 3 46.00000381469727 3 M 46.00000381469727 0 C 71.40509033203125 0 92 20.59487152099609 92 45.99993133544922 C 92 71.40499114990234 71.40509033203125 91.99986267089844 46.00000381469727 91.99986267089844 C 20.59490203857422 91.99986267089844 7.62939453125e-06 71.40499114990234 7.62939453125e-06 45.99993133544922 C 7.62939453125e-06 20.59487152099609 20.59490203857422 0 46.00000381469727 0 Z" stroke="none" fill="#453179"/>
                          </g>
                        </g>
                      </g>
                    </g>
                  </g>
                </g>
              </g>
            </g>
          </g>
        </g>
      </g>
    </g>
    <g id="banana" transform="translate(399.229 2185)">
      <path id="Trazado_1016048" data-name="Trazado 1016048" d="M12,53a4.492,4.492,0,0,1-.96,2.96C8,55.66,8,54,8,54V51S12,51,12,53Z" fill="#cf9e76"/>
      <path id="Trazado_1016049" data-name="Trazado 1016049" d="M56,61a.979.979,0,0,1-1,1c-4-6-3-10-3-14a8.161,8.161,0,0,0-5-8h-.02c.01-.34.02-.67.02-1a14.714,14.714,0,0,0-1.12-5.95L46,33c8,0,10,6,10,11C56,50.49,53.86,53.55,56,61Z" fill="#ffc729"/>
      <path id="Trazado_1016050" data-name="Trazado 1016050" d="M52,48c0,4-1,8,3,14-5-1-6-5-6.38-9-.35-3.8-.14-7.59-2.26-8.82A24.548,24.548,0,0,0,46.98,40H47A8.161,8.161,0,0,1,52,48Z" fill="#fcd770"/>
      <path id="Trazado_1016051" data-name="Trazado 1016051" d="M49,18a38.151,38.151,0,0,1-.38,6.38A35.6,35.6,0,0,1,46,33l-.12.05A9.78,9.78,0,0,0,37,27a10.266,10.266,0,0,0-5.77,2H31c0-.34-.01-.68-.02-1H31a18.968,18.968,0,0,0,5-9c1-5-1.85-17,3.28-17,2.68,0,5.12,1.75,6.87,4.62A22.118,22.118,0,0,1,49,18Z" fill="#ffeaa7"/>
      <path id="Trazado_1016052" data-name="Trazado 1016052" d="M46.36,44.18C44.36,52.77,37.99,61.17,33,62a2.206,2.206,0,0,1-1.69-.84L32,61s9-14,9-22c0-7.88-4.85-9.94-9.77-10A10.266,10.266,0,0,1,37,27a9.78,9.78,0,0,1,8.88,6.05A14.714,14.714,0,0,1,47,39c0,.33-.01.66-.02,1A24.548,24.548,0,0,1,46.36,44.18Z" fill="#fcd770"/>
      <path id="Trazado_1016053" data-name="Trazado 1016053" d="M31.23,29c4.92.06,9.77,2.12,9.77,10,0,8-9,22-9,22l-.69.16A2.025,2.025,0,0,1,31,60c0-1.6,2.55-8.3,4.09-12.97.39-1.18.71-2.23.91-3.03,1-4,1-12-5-12H30V31c0-.31-.01-.65-.04-1H30A10.244,10.244,0,0,1,31.23,29Z" fill="#ffc729"/>
      <path id="Trazado_1016054" data-name="Trazado 1016054" d="M31,32c6,0,6,8,5,12-.2.8-.52,1.85-.91,3.03L35,47a35.389,35.389,0,0,1-23,9c-.35,0-.67-.02-.96-.04A4.492,4.492,0,0,0,12,53c0-2-4-2-4-2,0-5,13-12,18-20,0-1,0-3-2-3s-7,8-13,8c6-1,8-13,14-13,3.58,0,4.76,4.01,4.96,7,.03.35.04.69.04,1v1Z" fill="#fcd770"/>
      <path id="Trazado_1016055" data-name="Trazado 1016055" d="M31,29h.23A10.244,10.244,0,0,0,30,30h-.04c-.2-2.99-1.38-7-4.96-7-6,0-8,12-14,13a.979.979,0,0,1-1-1c0-2,4-4,5-9s5-8,8-8c3.83,0,7.66,2.75,7.98,10C30.99,28.32,31,28.66,31,29Z" fill="#ffc729"/>
      <path id="Trazado_1016056" data-name="Trazado 1016056" d="M26.287,38.3l1.427,1.4c1.763-1.795,2.98-2.98,2.984-2.984l-1.4-1.434s-1.232,1.2-3.016,3.017Z"/>
      <path id="Trazado_1016057" data-name="Trazado 1016057" d="M56.482,50.008A40.406,40.406,0,0,0,57,44c0-9.443-5.847-11.541-9.537-11.923A33.1,33.1,0,0,0,50,18C50,8.467,45.29,1,39.276,1a3.351,3.351,0,0,0-2.505,1.029c-1.9,1.961-1.75,6.356-1.608,10.607a31.283,31.283,0,0,1-.144,6.168,16.977,16.977,0,0,1-3.284,6.838C30.7,19.347,26.745,17,23,17c-3.472,0-7.893,3.366-8.98,8.8a12.645,12.645,0,0,1-3.186,5.81C9.85,32.784,9,33.8,9,35a1.959,1.959,0,0,0,2,2c4.2,0,7.774-3.377,10.383-5.842A12.591,12.591,0,0,1,24,29c.651,0,.962.256,1,1.714-2.253,3.477-6.159,6.865-9.613,9.862C10.885,44.479,7,47.85,7,51v3c0,.123.057,3,5,3a36.1,36.1,0,0,0,21.081-7.172c-.137.4-.275.794-.413,1.19C31.008,55.791,30,58.776,30,60a2.916,2.916,0,0,0,3,3h.083l.082-.014C38.473,62.1,44.346,54.4,46.809,46.329a18.307,18.307,0,0,1,.661,4.655c.3,4.5.709,10.672,7.334,12L55,63a1.959,1.959,0,0,0,2-2l-.039-.276a22.3,22.3,0,0,1-.479-10.716ZM55,44a38.839,38.839,0,0,1-.5,5.729,24.849,24.849,0,0,0,.021,9.465,16.805,16.805,0,0,1-1.578-9.171c.028-.68.055-1.352.055-2.023a9.016,9.016,0,0,0-5.009-8.609c0-.13.009-.262.009-.391a17.162,17.162,0,0,0-.668-4.932C53.963,34.744,55,40.489,55,44ZM36.98,19.2a32.21,32.21,0,0,0,.182-6.627c-.116-3.475-.261-7.8,1.046-9.15A1.39,1.39,0,0,1,39.276,3C44.086,3,48,9.729,48,18a30.927,30.927,0,0,1-2.192,12.805A10.888,10.888,0,0,0,37,26a9.935,9.935,0,0,0-3.528.676A18.776,18.776,0,0,0,36.98,19.2ZM12.365,32.9a14.522,14.522,0,0,0,3.616-6.7C16.919,21.5,20.661,19,23,19c3.237,0,5.511,2.039,6.479,5.628A5.048,5.048,0,0,0,25,22c-3.632,0-5.858,3.482-8.012,6.851C15.221,31.615,13.4,34.471,11,34.983c.016-.478.671-1.258,1.365-2.083ZM9,54V52.076c1,.143,2,.477,2,.924a3.924,3.924,0,0,1-.436,1.883C9.43,54.672,9.035,54.231,9,54Zm3.681.99A6.174,6.174,0,0,0,13,53a2.545,2.545,0,0,0-.042-.445A90.732,90.732,0,0,0,23.684,43.73l-1.367-1.46A88.666,88.666,0,0,1,11.8,50.923a6.182,6.182,0,0,0-2.615-.85c.8-2.162,4.068-5,7.507-7.986,3.642-3.16,7.769-6.741,10.154-10.557L27,31.287V31c0-2.654-1.009-4-3-4-1.13,0-2.268,1.076-3.991,2.7-.856.809-1.827,1.725-2.879,2.566.53-.759,1.039-1.554,1.543-2.342C20.623,26.879,22.463,24,25,24c3.888,0,4,6.284,4,7v2h2a3.67,3.67,0,0,1,3.1,1.414c1.816,2.326,1.553,6.862.933,9.344-.17.681-.438,1.563-.757,2.548A34.222,34.222,0,0,1,12.681,54.99Zm21.876-3.315c.971-2.79,1.974-5.675,2.414-7.433.616-2.463,1.137-7.943-1.3-11.06A5.706,5.706,0,0,0,31,31c0-.182,0-.366-.009-.55.134-.115.328-.268.547-.433C37.224,30.192,40,33.129,40,39c0,5.957-5.358,15.643-7.732,19.643.465-1.722,1.451-4.559,2.289-6.968Zm-1.328,9.249C34.987,58.091,42,46.328,42,39c0-5.775-2.591-9.437-7.381-10.6A7.724,7.724,0,0,1,37,28c3.113,0,9,2.3,9,11,0,9.342-7.362,20.552-12.771,21.924ZM49.465,50.852c-.192-2.9-.381-5.65-1.991-7.093q.225-1.074.355-2.135C49.544,42.76,51,44.538,51,48c0,.644-.027,1.288-.054,1.941A18.7,18.7,0,0,0,52.7,60.024c-2.747-1.85-3-5.56-3.237-9.172Z"/>
    </g>
  </g>
</svg>
