<svg xmlns="http://www.w3.org/2000/svg" xmlns:xlink="http://www.w3.org/1999/xlink" width="110" height="110" viewBox="0 0 110 110">
  <defs>
    <filter id="Trazado_982547" x="0" y="0" width="110" height="110" filterUnits="userSpaceOnUse">
      <feOffset dy="3" input="SourceAlpha"/>
      <feGaussianBlur stdDeviation="3" result="blur"/>
      <feFlood flood-opacity="0.161"/>
      <feComposite operator="in" in2="blur"/>
      <feComposite in="SourceGraphic"/>
    </filter>
  </defs>
  <g id="Grupo_1168588" data-name="Grupo 1168588" transform="translate(-691.229 -2166)">
    <g id="Grupo_1162553" data-name="Grupo 1162553" transform="translate(700.229 2172)">
      <g id="Grupo_1162412" data-name="Grupo 1162412" transform="translate(0 0)">
        <g id="Grupo_1158638" data-name="Grupo 1158638" transform="translate(0 0)">
          <g id="Grupo_1155734" data-name="Grupo 1155734">
            <g id="Grupo_1154704" data-name="Grupo 1154704">
              <g id="Grupo_1150790" data-name="Grupo 1150790" transform="translate(0 0)">
                <g id="Grupo_1154214" data-name="Grupo 1154214" transform="translate(0)">
                  <g id="Grupo_1152583" data-name="Grupo 1152583">
                    <g id="Grupo_1146973" data-name="Grupo 1146973">
                      <g id="Grupo_1146954" data-name="Grupo 1146954">
                        <g transform="matrix(1, 0, 0, 1, -9, -6)" filter="url(#Trazado_982547)">
                          <g id="Trazado_982547-2" data-name="Trazado 982547" transform="translate(9 6)" fill="#ebe9f0">
                            <path d="M 46.00000381469727 90.49986267089844 C 39.99188232421875 90.49986267089844 34.16427230834961 89.32350158691406 28.67905807495117 87.00344848632812 C 23.38020324707031 84.76223754882812 18.62104415893555 81.55341339111328 14.53375053405762 77.46613311767578 C 10.44647026062012 73.37885284423828 7.237643718719482 68.61968994140625 4.996417045593262 63.32085037231445 C 2.676363706588745 57.83565139770508 1.500003814697266 52.00805282592773 1.500003814697266 45.99993133544922 C 1.500003814697266 39.99182510375977 2.676363706588745 34.16422653198242 4.996417045593262 28.67901039123535 C 7.237643718719482 23.38017082214355 10.44647026062012 18.62101173400879 14.53375053405762 14.53373146057129 C 18.62104415893555 10.44645118713379 23.38020324707031 7.237624645233154 28.67905807495117 4.996411323547363 C 34.16427230834961 2.676357984542847 39.99188232421875 1.499997973442078 46.00000381469727 1.499997973442078 C 52.00812530517578 1.499997973442078 57.83573532104492 2.676357984542847 63.32094955444336 4.996411323547363 C 68.61980438232422 7.237624645233154 73.37896728515625 10.44645118713379 77.46625518798828 14.53373146057129 C 81.55353546142578 18.62101173400879 84.76236724853516 23.38017082214355 87.00359344482422 28.67901039123535 C 89.32364654541016 34.16422653198242 90.5 39.99182510375977 90.5 45.99993133544922 C 90.5 52.00805282592773 89.32364654541016 57.83565139770508 87.00359344482422 63.32085037231445 C 84.76236724853516 68.61968994140625 81.55353546142578 73.37885284423828 77.46625518798828 77.46613311767578 C 73.37896728515625 81.55341339111328 68.61980438232422 84.76223754882812 63.32094955444336 87.00344848632812 C 57.83573532104492 89.32350158691406 52.00812530517578 90.49986267089844 46.00000381469727 90.49986267089844 Z" stroke="none"/>
                            <path d="M 46.00000381469727 3 C 40.19371795654297 3 34.56270217895508 4.136505126953125 29.26337432861328 6.377914428710938 C 24.14333343505859 8.54351806640625 19.54441833496094 11.64438629150391 15.59440612792969 15.59439086914062 C 11.64440155029297 19.54440307617188 8.54351806640625 24.14330291748047 6.377914428710938 29.26334381103516 C 4.136505126953125 34.56266021728516 3.000007629394531 40.19366073608398 3.000007629394531 45.99993133544922 C 3.000007629394531 51.80620193481445 4.136505126953125 57.43720245361328 6.377914428710938 62.73651885986328 C 8.54351806640625 67.85655975341797 11.64440155029297 72.45545959472656 15.59440612792969 76.40547180175781 C 19.54441833496094 80.35547637939453 24.14333343505859 83.45634460449219 29.26337432861328 85.6219482421875 C 34.56270217895508 87.86335754394531 40.19371795654297 88.99986267089844 46.00000381469727 88.99986267089844 C 51.80628967285156 88.99986267089844 57.43730545043945 87.86335754394531 62.73661804199219 85.6219482421875 C 67.85667419433594 83.45634460449219 72.45557403564453 80.35547637939453 76.40558624267578 76.40547180175781 C 80.35560607910156 72.45545959472656 83.45647430419922 67.85655975341797 85.62207794189453 62.73651885986328 C 87.86350250244141 57.43720245361328 89 51.80620193481445 89 45.99993133544922 C 89 40.19366073608398 87.86350250244141 34.56266021728516 85.62207794189453 29.26334381103516 C 83.45647430419922 24.14330291748047 80.35560607910156 19.54440307617188 76.40558624267578 15.59439086914062 C 72.45557403564453 11.64438629150391 67.85667419433594 8.54351806640625 62.73661804199219 6.377914428710938 C 57.43730545043945 4.136505126953125 51.80628967285156 3 46.00000381469727 3 M 46.00000381469727 0 C 71.40509033203125 0 92 20.59487152099609 92 45.99993133544922 C 92 71.40499114990234 71.40509033203125 91.99986267089844 46.00000381469727 91.99986267089844 C 20.59490203857422 91.99986267089844 7.62939453125e-06 71.40499114990234 7.62939453125e-06 45.99993133544922 C 7.62939453125e-06 20.59487152099609 20.59490203857422 0 46.00000381469727 0 Z" stroke="none" fill="#453179"/>
                          </g>
                        </g>
                      </g>
                    </g>
                  </g>
                </g>
              </g>
            </g>
          </g>
        </g>
      </g>
    </g>
    <g id="comida-sana_2_" data-name="comida-sana (2)" transform="translate(716.227 2189.502)">
      <path id="Trazado_1016058" data-name="Trazado 1016058" d="M282.434,50.8c0,7.739-5,14.071-11.116,14.071H264.8a9.136,9.136,0,0,1-4.744-1.355c-4.159-2.5-6.372-7.7-6.372-12.716a12.939,12.939,0,0,1,3.487-9.1A12.751,12.751,0,0,0,260,37.174a15.805,15.805,0,0,0,.92-3.992c.054-.543.082-1.094.082-1.649,0-4.912,3.176-8.931,7.056-8.931a6.4,6.4,0,0,1,4.983,2.623,10.212,10.212,0,0,1,2.072,6.307A14.507,14.507,0,0,0,278.948,41.7a11.656,11.656,0,0,1,2.538,3.971,14.092,14.092,0,0,1,.948,5.129Zm0,0" transform="translate(-224.59 -19.57)" fill="#35e298"/>
      <path id="Trazado_1016059" data-name="Trazado 1016059" d="M267.457,128.025a17.016,17.016,0,0,1-2.162,7.645l-5.243,9.533c-4.159-2.5-6.372-7.7-6.372-12.716a12.939,12.939,0,0,1,3.487-9.1A12.763,12.763,0,0,0,260,118.864a15.825,15.825,0,0,0,.92-3.992,12.01,12.01,0,0,1,5.621,7.043,17.018,17.018,0,0,1,.917,6.11Zm0,0" transform="translate(-224.591 -101.259)" fill="#1ab975"/>
      <path id="Trazado_1016060" data-name="Trazado 1016060" d="M324.721,208.044a8.376,8.376,0,1,1-8.376-8.376A8.376,8.376,0,0,1,324.721,208.044Zm0,0" transform="translate(-272.655 -176.333)" fill="#ae583e"/>
      <path id="Trazado_1016061" data-name="Trazado 1016061" d="M315.327,200.23a8.384,8.384,0,0,0-4.094,14.926l2.153-3.915a16.7,16.7,0,0,0,1.941-11.011Zm0,0" transform="translate(-272.681 -176.83)" fill="#7c3f2c"/>
      <path id="Trazado_1016062" data-name="Trazado 1016062" d="M67.972,15.857c-.438-1.993-2.7-9.211-12.233-7.569a.426.426,0,0,0-.312.6c.988,2.075,5.179,9.765,12.154,7.626a.565.565,0,0,0,.391-.66Zm0,0" transform="translate(-49.033 -6.684)" fill="#1ed688"/>
      <path id="Trazado_1016063" data-name="Trazado 1016063" d="M67.583,16.562c-6.975,2.14-11.166-5.55-12.154-7.626a.426.426,0,0,1,.311-.6A15.956,15.956,0,0,1,58.035,8.1c1.463,2.582,4.739,7.088,9.647,6.741a10.924,10.924,0,0,1,.292,1.063.565.565,0,0,1-.391.66Zm0,0" transform="translate(-49.035 -6.729)" fill="#1ab975"/>
      <path id="Trazado_1016064" data-name="Trazado 1016064" d="M42.441,125.744l-6.086,11.065a6.133,6.133,0,0,1-7.981,2.042,4.963,4.963,0,0,0-4.606,0,6.129,6.129,0,0,1-7.98-2.042L9.7,125.744a16.787,16.787,0,0,1-1.246-13.756c1.87-5.436,5.519-7.333,8.039-7.987a10.12,10.12,0,0,1,2.479-.34c.143,0,.22,0,.22,0a9.867,9.867,0,0,1,3.238.541,9.353,9.353,0,0,1,2.73,1.491,1.4,1.4,0,0,0,1.82,0,9.339,9.339,0,0,1,2.729-1.491,9.865,9.865,0,0,1,3.238-.541s7.706-.491,10.738,8.323a16.777,16.777,0,0,1-1.246,13.756Zm0,0" transform="translate(-6.664 -91.334)" fill="#c42d2d"/>
      <path id="Trazado_1016065" data-name="Trazado 1016065" d="M85.256,125.744,79.17,136.809a6.133,6.133,0,0,1-7.981,2.042,4.963,4.963,0,0,0-4.606,0,6.191,6.191,0,0,1-2.42.681c-.047-.093-4.879-10.721-6.112-13.43C54.366,118,55.8,108.974,59.31,104a10.12,10.12,0,0,1,2.479-.34c.143,0,.22,0,.22,0a9.867,9.867,0,0,1,3.238.541,9.354,9.354,0,0,1,2.73,1.491,1.4,1.4,0,0,0,1.82,0,9.339,9.339,0,0,1,2.729-1.491,9.865,9.865,0,0,1,3.238-.541s7.706-.491,10.738,8.323A16.777,16.777,0,0,1,85.256,125.744Zm0,0" transform="translate(-49.479 -91.334)" fill="#f44545"/>
      <path id="Trazado_1016066" data-name="Trazado 1016066" d="M15.851,318.5a1.987,1.987,0,0,0-.83,2.686,12.778,12.778,0,0,0,2.2,2.983l-6.629-.739a1.987,1.987,0,1,0-.44,3.951l6.629.739a12.783,12.783,0,0,0-2.8,2.426A1.987,1.987,0,1,0,17,333.127c2.271-2.656,6.388-3.794,9.872-3.908a1.986,1.986,0,0,0,.368-3.924c-.063-.014-6.362-1.532-8.7-5.967a1.988,1.988,0,0,0-2.685-.83Zm0,0" transform="translate(-7.422 -281.333)" fill="#1ab975"/>
      <path id="Trazado_1016067" data-name="Trazado 1016067" d="M183.559,341.617a5.036,5.036,0,0,1-5,4.479l-28.068.054a8.231,8.231,0,1,1,1.816-16.253l23.8,5.438,1.7.389,1.861.426a5.035,5.035,0,0,1,3.885,5.468Zm0,0" transform="translate(-125.937 -291.444)" fill="#ffa90b"/>
      <path id="Trazado_1016068" data-name="Trazado 1016068" d="M190.979,340.22a5.03,5.03,0,0,1-3.992,1.978l-28.066.054a8.232,8.232,0,0,1-8.247-8.206,8.248,8.248,0,0,1,7.253-4.359,8.085,8.085,0,0,1,.993.061,8.219,8.219,0,0,1,.851.148l.85.194c22.005,5.029,2.388.546,22.953,5.245l1.7.389,1.861.426a5.035,5.035,0,0,1,3.846,4.071Zm0,0" transform="translate(-133.395 -291.444)" fill="#ffb52d"/>
      <path id="Trazado_1016069" data-name="Trazado 1016069" d="M26.9,370.777l.014,0Zm0,0" transform="translate(-23.813 -327.822)"/>
      <path id="Trazado_1016070" data-name="Trazado 1016070" d="M27.191,370.813h0Zm0,0" transform="translate(-24.072 -327.854)"/>
      <path id="Trazado_1016071" data-name="Trazado 1016071" d="M53.931,43.862l-.639-.146c6.19-5.072,7.509-16.331,1.679-22.2a13.729,13.729,0,0,1-3.584-9.554c0-5.4-3.553-9.8-7.921-9.8s-7.921,4.395-7.921,9.8a15.444,15.444,0,0,1-.421,3.587,11.247,11.247,0,0,0-14.852-2.232V2.3a.865.865,0,0,0-1.73,0V5.7C15.96,1.037,11.26-.209,6,.85a.866.866,0,0,0-.63,1.176A20.258,20.258,0,0,0,8.831,7.41c2.664,2.91,5.97,4.355,9.712,3.319v2.588C13.464,9.788,4.958,11.055,1.464,19.1a.865.865,0,0,0,1.587.688c3.2-7.364,10.844-7.959,14.9-4.764a2.264,2.264,0,0,0,2.915,0c4.617-3.637,12.6-2.054,15.34,5.9a15.965,15.965,0,0,1-1.376,13.4c-1.016,1.817-1.851,3.328-2.541,4.586-5.356-1.154-6.121-1.575-7.944-1.536a.864.864,0,0,0,.035,1.728,7.381,7.381,0,0,1,1.046.056l-.519,4.658a.865.865,0,0,0,1.719.191l.5-4.5,8.382,1.915-.248,2.222a.865.865,0,1,0,1.719.191l.226-2.025L50.17,44.776l-.668,6a.865.865,0,0,0,1.719.192l.646-5.8,1.678.384a4.172,4.172,0,0,1-.92,8.239l-8.852.017.314-2.82a.865.865,0,1,0-1.719-.192l-.336,3.015-8.485.016.3-2.651a.865.865,0,0,0-1.719-.191c-.073.661-.309,2.776-.317,2.846l-4.062.008.514-4.615a.865.865,0,0,0-1.72-.191l-.536,4.81h-.031l-1.432,0a7.364,7.364,0,0,1-3.149-14.023.865.865,0,0,0-.742-1.563,9.076,9.076,0,0,0-3.951,3.6,10.761,10.761,0,0,1-4.82-4.269,2.854,2.854,0,0,0-5.373,1.323L3.8,33.987A15.919,15.919,0,0,1,2.067,22.915a.865.865,0,1,0-1.694-.35A17.651,17.651,0,0,0,2.28,34.821l3.695,6.715-2.708-.3a2.852,2.852,0,0,0-.632,5.67l4.483.5c-1.112,1-2.007,1.9-1.894,3.32a2.856,2.856,0,0,0,5.011,1.632,10.773,10.773,0,0,1,5.642-3.107,9.107,9.107,0,0,0,8.665,6.321l28.086-.054a5.9,5.9,0,0,0,1.3-11.654ZM7.44,2.359c5.751-.786,9.377,1.956,10.588,6.718C13.342,10.338,9.658,6.635,7.44,2.359ZM51.036,43.2,34.047,39.318c.491-.9,1.036-1.892,1.642-2.984a9.241,9.241,0,0,0,17.062-2.8.865.865,0,0,0-1.7-.339,7.512,7.512,0,0,1-14.342,1.3A17.868,17.868,0,0,0,38.814,26a7.521,7.521,0,0,1,12.216,4.112.865.865,0,1,0,1.69-.366,9.24,9.24,0,0,0-14.044-5.8,17.014,17.014,0,0,0-2.251-6.615,17.086,17.086,0,0,0,.849-5.373c0-3.99,2.485-8.066,6.191-8.066,3.666,0,6.191,4.021,6.191,8.066a15.28,15.28,0,0,0,4.087,10.774c4.5,4.529,4.068,12.938.155,17.891A10.755,10.755,0,0,1,51.036,43.2ZM15.509,47.546a12.558,12.558,0,0,0-6.589,3.685,1.123,1.123,0,0,1-1.707-1.459A11.965,11.965,0,0,1,9.829,47.51a.865.865,0,0,0-.374-1.586l-6.629-.739a1.122,1.122,0,1,1,.249-2.231h.005l.021,0h0l.02,0H3.107l5.991.668c.275-.017,1.113.339,1.479-.413a.866.866,0,0,0-.16-.985,11.957,11.957,0,0,1-2.052-2.781,1.125,1.125,0,0,1,.468-1.517h0a1.122,1.122,0,0,1,1.517.469,12.522,12.522,0,0,0,5.623,5.021,9.191,9.191,0,0,0-.464,4.127Zm0,0" transform="translate(0)"/>
    </g>
  </g>
</svg>
