<svg xmlns="http://www.w3.org/2000/svg" xmlns:xlink="http://www.w3.org/1999/xlink" width="108" height="108" viewBox="0 0 108 108">
  <defs>
    <filter id="Fondo" x="0" y="0" width="108" height="108" filterUnits="userSpaceOnUse">
      <feOffset dy="3" input="SourceAlpha"/>
      <feGaussianBlur stdDeviation="3" result="blur"/>
      <feFlood flood-opacity="0.161"/>
      <feComposite operator="in" in2="blur"/>
      <feComposite in="SourceGraphic"/>
    </filter>
  </defs>
  <g id="Grupo_1167846" data-name="Grupo 1167846" transform="translate(-617.228 -4052)">
    <g id="Grupo_1163004" data-name="Grupo 1163004" transform="translate(626.228 4058)">
      <g id="Grupo_1158163" data-name="Grupo 1158163">
        <g transform="matrix(1, 0, 0, 1, -9, -6)" filter="url(#Fondo)">
          <g id="Fondo-2" data-name="Fondo" transform="translate(9 6)" fill="#ebe9f0">
            <path d="M 45 88.5 C 39.12687683105469 88.5 33.43022537231445 87.35007476806641 28.06830024719238 85.08217620849609 C 22.88852500915527 82.89131164550781 18.23629951477051 79.75458526611328 14.2408504486084 75.75914764404297 C 10.24541282653809 71.76370239257812 7.108687400817871 67.11147308349609 4.917825222015381 61.93170166015625 C 2.649924993515015 56.56977462768555 1.5 50.87312316894531 1.5 45 C 1.5 39.12687683105469 2.649924993515015 33.43022537231445 4.917825222015381 28.06830024719238 C 7.108687400817871 22.88852500915527 10.24541282653809 18.23629951477051 14.2408504486084 14.2408504486084 C 18.23629951477051 10.24541282653809 22.88852500915527 7.108687400817871 28.06830024719238 4.917825222015381 C 33.43022537231445 2.649924993515015 39.12687683105469 1.5 45 1.5 C 50.87312316894531 1.5 56.56977462768555 2.649924993515015 61.93170166015625 4.917825222015381 C 67.11147308349609 7.108687400817871 71.76370239257812 10.24541282653809 75.75914764404297 14.2408504486084 C 79.75458526611328 18.23629951477051 82.89131164550781 22.88852500915527 85.08217620849609 28.06830024719238 C 87.35007476806641 33.43022537231445 88.5 39.12687683105469 88.5 45 C 88.5 50.87312316894531 87.35007476806641 56.56977462768555 85.08217620849609 61.93170166015625 C 82.89131164550781 67.11147308349609 79.75458526611328 71.76370239257812 75.75914764404297 75.75914764404297 C 71.76370239257812 79.75458526611328 67.11147308349609 82.89131164550781 61.93170166015625 85.08217620849609 C 56.56977462768555 87.35007476806641 50.87312316894531 88.5 45 88.5 Z" stroke="none"/>
            <path d="M 45 3 C 39.32871246337891 3 33.82865524291992 4.110054016113281 28.65262985229492 6.299339294433594 C 23.65165710449219 8.414573669433594 19.15968322753906 11.44334411621094 15.301513671875 15.301513671875 C 11.44334411621094 19.15968322753906 8.414573669433594 23.65165710449219 6.299339294433594 28.65262985229492 C 4.110054016113281 33.82865524291992 3 39.32871246337891 3 45 C 3 50.67128753662109 4.110054016113281 56.17134475708008 6.299339294433594 61.34737396240234 C 8.414573669433594 66.34834289550781 11.44334411621094 70.84031677246094 15.301513671875 74.698486328125 C 19.15968322753906 78.55665588378906 23.65165710449219 81.58542633056641 28.65262985229492 83.70066070556641 C 33.82865524291992 85.88994598388672 39.32871246337891 87 45 87 C 50.67128753662109 87 56.17134475708008 85.88994598388672 61.34737396240234 83.70066070556641 C 66.34834289550781 81.58542633056641 70.84031677246094 78.55665588378906 74.698486328125 74.698486328125 C 78.55665588378906 70.84031677246094 81.58542633056641 66.34834289550781 83.70066070556641 61.34737396240234 C 85.88994598388672 56.17134475708008 87 50.67128753662109 87 45 C 87 39.32871246337891 85.88994598388672 33.82865524291992 83.70066070556641 28.65262985229492 C 81.58542633056641 23.65165710449219 78.55665588378906 19.15968322753906 74.698486328125 15.301513671875 C 70.84031677246094 11.44334411621094 66.34834289550781 8.414573669433594 61.34737396240234 6.299339294433594 C 56.17134475708008 4.110054016113281 50.67128753662109 3 45 3 M 45 0 C 69.85281372070312 0 90 20.14718627929688 90 45 C 90 69.85281372070312 69.85281372070312 90 45 90 C 20.14718627929688 90 0 69.85281372070312 0 45 C 0 20.14718627929688 20.14718627929688 0 45 0 Z" stroke="none" fill="#453179"/>
          </g>
        </g>
      </g>
    </g>
    <g id="nutricionista" transform="translate(605.023 4073)">
      <path id="Trazado_1015060" data-name="Trazado 1015060" d="M173.586,253.7a3.938,3.938,0,0,1-1.036-2.664v-2.169H161.8v2.169a3.939,3.939,0,0,1-1.036,2.664l6.411,4.2Z" transform="translate(-105.376 -219.346)" fill="#0681af"/>
      <path id="Trazado_1015061" data-name="Trazado 1015061" d="M82.665,292.243l-5.9-1.474a3.935,3.935,0,0,1-1.95-1.161l-6.411,2.564L62,289.609a3.935,3.935,0,0,1-1.95,1.161l-5.9,1.474a7.194,7.194,0,0,0-5.449,6.979v15.762a.119.119,0,0,0,.119.119H88a.119.119,0,0,0,.119-.119V299.222A7.194,7.194,0,0,0,82.665,292.243Z" transform="translate(-6.609 -255.251)" fill="#dff6fd"/>
      <path id="Trazado_1015062" data-name="Trazado 1015062" d="M82.665,309.514l-1.238-.31a7.187,7.187,0,0,1,1.942,4.916v9.318A6.563,6.563,0,0,1,76.805,330H48.7v2.254a.119.119,0,0,0,.119.119H88a.119.119,0,0,0,.119-.119V316.493A7.194,7.194,0,0,0,82.665,309.514Z" transform="translate(-6.609 -272.521)" fill="#c8effe"/>
      <path id="Trazado_1015063" data-name="Trazado 1015063" d="M152.359,298.709l-9.712,12.949-9.712-12.949,9.712,3.122Z" transform="translate(-80.848 -263.271)" fill="#fed402"/>
      <path id="Trazado_1015064" data-name="Trazado 1015064" d="M173.586,253.7a3.938,3.938,0,0,1-1.036-2.664v-2.169H161.8v2.169a3.939,3.939,0,0,1-1.036,2.664l6.411,4.2Z" transform="translate(-105.376 -219.346)" fill="#f6a96c"/>
      <path id="Trazado_1015065" data-name="Trazado 1015065" d="M192.1,316.136h-3.276l-1.638-4.914h6.551Z" transform="translate(-128.664 -274.3)" fill="#01c0fa"/>
      <path id="Trazado_1015066" data-name="Trazado 1015066" d="M196.576,356.308l2.162,2.883,2.162-2.883-.524-3.669H197.1Z" transform="translate(-136.938 -310.803)" fill="#08a9f1"/>
      <path id="Trazado_1015067" data-name="Trazado 1015067" d="M134.009,283.819l8.106,3.242-4.914,4.914-4.843-6.457a.135.135,0,0,1,.013-.177l1.492-1.492A.136.136,0,0,1,134.009,283.819Z" transform="translate(-80.316 -250.139)" fill="#fedf30"/>
      <path id="Trazado_1015068" data-name="Trazado 1015068" d="M222.906,283.819l-8.106,3.242,4.914,4.914,4.843-6.457a.136.136,0,0,0-.013-.177l-1.492-1.492A.136.136,0,0,0,222.906,283.819Z" transform="translate(-153 -250.139)" fill="#fedf30"/>
      <path id="Trazado_1015069" data-name="Trazado 1015069" d="M106.165,135.011h-2.784a2.274,2.274,0,0,0-2.274,2.274,4.469,4.469,0,0,0,4.469,4.469h.086Z" transform="translate(-52.795 -118.994)" fill="#ffbd86"/>
      <path id="Trazado_1015070" data-name="Trazado 1015070" d="M285.857,135h2.785a2.275,2.275,0,0,1,2.275,2.275,4.47,4.47,0,0,1-4.47,4.47h-.086Z" transform="translate(-215.628 -118.981)" fill="#f6a96c"/>
      <path id="Trazado_1015071" data-name="Trazado 1015071" d="M117.459,311.307l-9.712-12.949a.118.118,0,0,0-.2.018l-3.19,6.38h3.276l-1.638,3.276Z" transform="translate(-55.659 -262.92)" fill="#f2fbff"/>
      <path id="Trazado_1015072" data-name="Trazado 1015072" d="M214.8,311.306l9.712-12.949a.118.118,0,0,1,.2.018l3.19,6.38h-3.276l1.638,3.276Z" transform="translate(-153 -262.919)" fill="#f2fbff"/>
      <circle id="Elipse_11857" data-name="Elipse 11857" cx="1.638" cy="1.638" r="1.638" transform="translate(71.626 48.387)" fill="#91b9de"/>
      <path id="Trazado_1015073" data-name="Trazado 1015073" d="M139.871,49.947a9.508,9.508,0,0,1-9.488-8.9l-.576-9.035a10.085,10.085,0,1,1,20.13,0l-.576,9.035A9.508,9.508,0,0,1,139.871,49.947Z" transform="translate(-78.071 -18.757)" fill="#fed2a4"/>
      <path id="Trazado_1015074" data-name="Trazado 1015074" d="M165.052,21.283a10.038,10.038,0,0,0-6.7,2.543h1.978a5.293,5.293,0,0,0,3.591,4.482l.727.242a3.923,3.923,0,0,1,2.4,2.312l.008.021,2.479,6.2a3.657,3.657,0,0,1,.254,1.591,9.515,9.515,0,0,1-11.2,8.749,9.508,9.508,0,0,0,15.942-6.376l.576-9.035A10.085,10.085,0,0,0,165.052,21.283Z" transform="translate(-103.253 -18.758)" fill="#ffbd86"/>
      <path id="Trazado_1015075" data-name="Trazado 1015075" d="M141.9,7.5h-6.931a4.113,4.113,0,0,0-2.908,1.2l-.217.217a.74.74,0,0,1-.523.217h-2.037a3.276,3.276,0,0,0-3.269,3.485L127,28.079l2.788-6.971a2.828,2.828,0,0,0,.2-1.051V17.526a3.474,3.474,0,0,1,3.474-3.474h3.1a5.293,5.293,0,0,0,3.591,4.482l2.934.978v.547a2.83,2.83,0,0,0,.2,1.051l2.786,6.965.963-15.09A5.156,5.156,0,0,0,141.9,7.5Z" transform="translate(-74.744 -6.61)" fill="#017297"/>
      <path id="Trazado_1015076" data-name="Trazado 1015076" d="M297.989,419.327h16.28a.13.13,0,0,0,.125-.094l3.2-11.2a.13.13,0,0,0-.125-.166H301.265Z" transform="translate(-226.32 -359.475)" fill="#fd6930"/>
      <path id="Trazado_1015077" data-name="Trazado 1015077" d="M317.472,407.862H312.22l-1.484,5.2a5.372,5.372,0,0,1-5.166,3.9h-6.9l-.678,2.373h16.28a.13.13,0,0,0,.125-.094l3.2-11.2a.13.13,0,0,0-.125-.166Z" transform="translate(-226.321 -359.475)" fill="#fd5426"/>
      <path id="Trazado_1015078" data-name="Trazado 1015078" d="M367.953,394.057h6.379a.13.13,0,0,1,.125.166l-.862,3.016a.13.13,0,0,1-.125.094h-6.453Z" transform="translate(-287.159 -347.308)" fill="#b4d2e2"/>
      <path id="Trazado_1015079" data-name="Trazado 1015079" d="M83.565,421.667a2.245,2.245,0,0,0-1.172.287,2.361,2.361,0,0,1-2.3,0,2.244,2.244,0,0,0-1.172-.287,2.286,2.286,0,0,0-2.145,2.678l.825,4.949a2.632,2.632,0,0,0,2.6,2.2h2.093a2.631,2.631,0,0,0,2.6-2.2l.825-4.949A2.286,2.286,0,0,0,83.565,421.667Z" transform="translate(-31.322 -371.642)" fill="#fd4755"/>
      <path id="Trazado_1015080" data-name="Trazado 1015080" d="M88.438,486.873a2.632,2.632,0,0,0,2.6-2.2l.029-.174H83.72l.029.174a2.631,2.631,0,0,0,2.6,2.2h2.093Z" transform="translate(-37.471 -427.021)" fill="#fb2b3a"/>
      <path id="Trazado_1015081" data-name="Trazado 1015081" d="M367.955,394.056h6.379a.13.13,0,0,1,.125.166l-.862,3.016a.13.13,0,0,1-.125.094h-6.453Z" transform="translate(-287.161 -347.307)" fill="#b4d2e2"/>
      <path id="Trazado_1015082" data-name="Trazado 1015082" d="M367.955,394.056h6.379a.13.13,0,0,1,.125.166l-.862,3.016a.13.13,0,0,1-.125.094h-6.453Z" transform="translate(-287.161 -347.307)" fill="#b4d2e2"/>
      <path id="Trazado_1015083" data-name="Trazado 1015083" d="M201.085,157.012h.227a2.351,2.351,0,0,0,2.349-2.349V152.75a.89.89,0,1,0-1.78,0v1.913a.57.57,0,0,1-.569.569h-.227a.89.89,0,0,0,0,1.78Z" transform="translate(-140.128 -133.844)"/>
      <path id="Trazado_1015084" data-name="Trazado 1015084" d="M186.48,206.622a.89.89,0,0,0-1.258-1.258,4.028,4.028,0,0,1-5.69,0,.89.89,0,0,0-1.258,1.258A5.81,5.81,0,0,0,186.48,206.622Z" transform="translate(-120.577 -180.77)"/>
      <path id="Trazado_1015085" data-name="Trazado 1015085" d="M91.965,47.9a1.025,1.025,0,0,0-.814-.406H88.057l.1-.337a1.02,1.02,0,0,0-.98-1.3H82.394V43.972a8.072,8.072,0,0,0-6.123-7.842l-3.688-.922-.074-.148a9.736,9.736,0,0,0-.336-.487L70.68,33.079a1.024,1.024,0,0,0-1.1-.226l-1.067.427a3.045,3.045,0,0,1-.445-1.587V29.972a10.406,10.406,0,0,0,3.971-6.46,5.333,5.333,0,0,0,4.144-5.222,3.168,3.168,0,0,0-3.165-3.164h-.378l.555-8.7A6.045,6.045,0,0,0,67.158,0H60.227A4.971,4.971,0,0,0,56.69,1.465l-.173.173H54.542a4.166,4.166,0,0,0-4.157,4.431L50.5,7.838a.89.89,0,1,0,1.776-.113l-.113-1.769a2.386,2.386,0,0,1,2.381-2.538h2.037a1.62,1.62,0,0,0,1.152-.477l.217-.217a3.2,3.2,0,0,1,2.279-.944h6.931a4.266,4.266,0,0,1,4.257,4.537L70.7,17.475l-1.323-3.307a1.932,1.932,0,0,1-.139-.72V12.9a.89.89,0,0,0-.608-.844L65.7,11.079a4.408,4.408,0,0,1-2.988-3.728.89.89,0,0,0-.885-.8h-3.1a4.369,4.369,0,0,0-4.364,4.364v2.532a1.932,1.932,0,0,1-.139.72L52.9,17.48l-.358-5.609a.89.89,0,0,0-1.776.113l.2,3.143h-.377a3.167,3.167,0,0,0-3.164,3.164,5.332,5.332,0,0,0,4.143,5.221,10.406,10.406,0,0,0,3.972,6.46v1.722a3.045,3.045,0,0,1-.445,1.587l-1.067-.427a1.026,1.026,0,0,0-1.106.227l-1.492,1.492a9.983,9.983,0,0,0-.335.485l-.075.149-3.688.922a8.072,8.072,0,0,0-6.123,7.842v5.117a.89.89,0,1,0,1.78,0V43.971a6.3,6.3,0,0,1,4.775-6.116l2.209-.552L47.9,41.438a.89.89,0,0,0-.091.332,4.1,4.1,0,0,0-1.64,3.281v4.472a3.143,3.143,0,0,0-.905.754,3.219,3.219,0,0,0-.689,2.574L45.4,57.8a3.536,3.536,0,0,0,.41,1.163H42.985V53.241a.89.89,0,0,0-1.78,0v6.492a1.01,1.01,0,0,0,1.008,1.008H87.949a1.024,1.024,0,0,0,.98-.74l3.2-11.2a1.024,1.024,0,0,0-.166-.894Zm-6.227,1.232h-4.7l.427-1.5h4.7Zm-9.9-11.279a6.3,6.3,0,0,1,4.775,6.116v1.906a.89.89,0,0,0-.676.627l-.284.993H74.944a.889.889,0,0,0-.607.239q-.09-.042-.183-.077V42.726H74.9a.89.89,0,0,0,.8-1.288L73.631,37.3ZM71,58.962H67.6V55.828h2.36a.89.89,0,0,0,0-1.78h-3.25a.89.89,0,0,0-.89.89v4.024H61.051V50.867l1.28-1.707,10.043-2.869v1.368a2.528,2.528,0,0,0,.465,4.858ZM50.769,48.338a.89.89,0,0,0-1.769.2,4.71,4.71,0,0,1,.03.528v.38a3.138,3.138,0,0,0-1.081-.3v-4.1a2.328,2.328,0,0,1,2.325-2.325h.259l-.994,1.988a.89.89,0,0,0,.551,1.254l4.267,1.219v2.852a3.1,3.1,0,0,0-2.089-.9h0a3.154,3.154,0,0,0-1.459.31v-.38a6.522,6.522,0,0,0-.041-.728ZM54.44,57.8l.825-4.949q.025-.149.036-.3a.89.89,0,0,0,.837-.888V47.695l4.175,1.193-.862,1.149a.889.889,0,0,0-.178.534v8.391H54.029a3.536,3.536,0,0,0,.41-1.163Zm3.621-15.88.893-.893.3.892-.191,1.334ZM61.8,38.181l1.439,1.439L62.8,40.946H60.8l-.442-1.327Zm3.739,3.739-1,1.333-.191-1.334.3-.892ZM61.8,46.9l-1.229-1.639.363-2.54h1.732l.363,2.54Zm10.717,3.121a.748.748,0,0,1,1.2-.593l-.382,1.337a.749.749,0,0,1-.822-.745ZM69.775,34.691l.677.677-.727.97a.89.89,0,1,0,1.424,1.068l.326-.435,1.988,3.976H71.627a.89.89,0,0,0-.8,1.288l1.158,2.317L64.1,46.8l4.507-6.01a.89.89,0,0,0-1.424-1.068l-.565.754-3.234-3.234,6.392-2.557Zm3.24-17.785A1.386,1.386,0,0,1,74.4,18.29a3.564,3.564,0,0,1-2.175,3.3c.01-.163.288-4.52.3-4.682ZM49.2,18.291a1.386,1.386,0,0,1,1.384-1.384h.491l.3,4.68a3.563,3.563,0,0,1-2.174-3.3Zm4,3.94-.04-.618,2.713-6.784a3.7,3.7,0,0,0,.266-1.381V10.915a2.587,2.587,0,0,1,2.584-2.584h2.353a6.193,6.193,0,0,0,4.06,4.436l2.327.776a3.7,3.7,0,0,0,.265,1.286l2.711,6.779-.04.623a8.618,8.618,0,0,1-17.2,0Zm4.116,9.463v-.635a10.361,10.361,0,0,0,8.968,0v.635a4.823,4.823,0,0,0,.557,2.254L61.8,35.964l-5.041-2.016A4.82,4.82,0,0,0,57.315,31.694Zm-3.491,3,6.392,2.557-3.234,3.234-3.835-5.113Zm-3.688,6.255,1.988-3.976L59.5,46.8,51.61,44.55l1.158-2.317a.89.89,0,0,0-.8-1.288ZM48.874,58.962a1.736,1.736,0,0,1-1.718-1.455l-.825-4.949a1.44,1.44,0,0,1,.308-1.151,1.333,1.333,0,0,1,.637-.434l.054-.015a1.361,1.361,0,0,1,1,.13,3.256,3.256,0,0,0,3.173,0,1.359,1.359,0,0,1,.709-.173,1.313,1.313,0,0,1,.985.492,1.44,1.44,0,0,1,.26.477c.005.021.011.041.018.061a1.439,1.439,0,0,1,.03.613l-.825,4.949a1.736,1.736,0,0,1-1.718,1.455H48.874Zm38.5,0H72.849l2.767-9.685h3.531l-.144.5a.891.891,0,0,0,.856,1.134h6.453a1.023,1.023,0,0,0,.98-.74l.257-.9h2.595Z" transform="translate(0)"/>
    </g>
  </g>
</svg>
